<?xml version="1.0" encoding="UTF-8" standalone="no"?>
<!-- Created with Inkscape (http://www.inkscape.org/) -->

<svg
   xmlns:dc="http://purl.org/dc/elements/1.1/"
   xmlns:cc="http://creativecommons.org/ns#"
   xmlns:rdf="http://www.w3.org/1999/02/22-rdf-syntax-ns#"
   xmlns:svg="http://www.w3.org/2000/svg"
   xmlns="http://www.w3.org/2000/svg"
   xmlns:xlink="http://www.w3.org/1999/xlink"
   xmlns:sodipodi="http://sodipodi.sourceforge.net/DTD/sodipodi-0.dtd"
   xmlns:inkscape="http://www.inkscape.org/namespaces/inkscape"
   width="744.09448819"
   height="1052.3622047"
   id="svg2"
   version="1.1"
   inkscape:version="0.48.1 r9760"
   sodipodi:docname="mini-loader.svg">
  <defs
     id="defs4" />
  <sodipodi:namedview
     id="base"
     pagecolor="#ffffff"
     bordercolor="#666666"
     borderopacity="1.0"
     inkscape:pageopacity="0.0"
     inkscape:pageshadow="2"
     inkscape:zoom="1"
     inkscape:cx="789.15359"
     inkscape:cy="855.6322"
     inkscape:document-units="px"
     inkscape:current-layer="layer1"
     showgrid="false">
    <inkscape:grid
       type="xygrid"
       id="grid3031" />
  </sodipodi:namedview>
  <metadata
     id="metadata7">
    <rdf:RDF>
      <cc:Work
         rdf:about="">
        <dc:format>image/svg+xml</dc:format>
        <dc:type
           rdf:resource="http://purl.org/dc/dcmitype/StillImage" />
        <dc:title></dc:title>
      </cc:Work>
    </rdf:RDF>
  </metadata>
  <g
     inkscape:label="Layer 1"
     inkscape:groupmode="layer"
     id="layer1">
    <g
       id="g3061">
      <image
         width="129"
         height="133"
         xlink:href="file:///Users/saman/Desktop/Screen%20Shot%202013-04-05%20at%2011.19.16%20AM.png"
         id="image3028"
         x="496"
         y="147.36218" />
      <rect
         y="198.36218"
         x="569"
         height="17"
         width="14"
         id="rect3033"
         style="color:#000000;fill:#fafafa;fill-opacity:1;fill-rule:nonzero;stroke:none;stroke-width:3;marker:none;visibility:visible;display:inline;overflow:visible;enable-background:accumulate" />
      <path
         sodipodi:nodetypes="ccccccccc"
         inkscape:connector-curvature="0"
         id="rect3035"
         d="m 570,200.36218 11,0 1,1 0,1 -1,1 -11,0 -1,-1 0,-1 z"
         style="color:#000000;fill:#8c8c8c;fill-opacity:1;fill-rule:nonzero;stroke:none;stroke-width:3;marker:none;visibility:visible;display:inline;overflow:visible;enable-background:accumulate" />
      <path
         style="color:#000000;fill:#8c8c8c;fill-opacity:1;fill-rule:nonzero;stroke:none;stroke-width:3;marker:none;visibility:visible;display:inline;overflow:visible;enable-background:accumulate;opacity:0.5"
         d="m 570,205.36218 11,0 1,1 0,1 -1,1 -11,0 -1,-1 0,-1 z"
         id="path3038"
         inkscape:connector-curvature="0"
         sodipodi:nodetypes="ccccccccc" />
      <path
         sodipodi:nodetypes="ccccccccc"
         inkscape:connector-curvature="0"
         id="path3040"
         d="m 570,210.36218 11,0 1,1 0,1 -1,1 -11,0 -1,-1 0,-1 z"
         style="color:#000000;fill:#8c8c8c;fill-opacity:1;fill-rule:nonzero;stroke:none;stroke-width:3;marker:none;visibility:visible;display:inline;overflow:visible;enable-background:accumulate;opacity:0.25" />
      <g
         id="g4154">
        <path
           style="color:#000000;fill:#222222;fill-opacity:1;fill-rule:nonzero;stroke:none;stroke-width:3;marker:none;visibility:visible;display:inline;overflow:visible;enable-background:accumulate"
           d="m 829,145.36218 11,0 1,1 0,1 -1,1 -11,0 -1,-1 0,-1 z"
           id="rect3035-5"
           inkscape:connector-curvature="0"
           sodipodi:nodetypes="ccccccccc" />
        <path
           sodipodi:nodetypes="ccccccccc"
           inkscape:connector-curvature="0"
           id="path3038-5"
           d="m 829,150.36218 11,0 1,1 0,1 -1,1 -11,0 -1,-1 0,-1 z"
           style="opacity:0.50000000000000000;color:#000000;fill:#222222;fill-opacity:1;fill-rule:nonzero;stroke:none;stroke-width:3;marker:none;visibility:visible;display:inline;overflow:visible;enable-background:accumulate" />
        <path
           style="opacity:0.25000000000000000;color:#000000;fill:#222222;fill-opacity:1;fill-rule:nonzero;stroke:none;stroke-width:3;marker:none;visibility:visible;display:inline;overflow:visible;enable-background:accumulate"
           d="m 829,155.36218 11,0 1,1 0,1 -1,1 -11,0 -1,-1 0,-1 z"
           id="path3040-8"
           inkscape:connector-curvature="0"
           sodipodi:nodetypes="ccccccccc" />
        <rect
           y="142.36218"
           x="825"
           height="20"
           width="20"
           id="rect4075"
           style="opacity:0.25000000000000000;color:#000000;fill:none;fill-opacity:1;fill-rule:nonzero;stroke:none;stroke-width:3;marker:none;visibility:visible;display:inline;overflow:visible;enable-background:accumulate" />
      </g>
      <g
         id="g4160"
         transform="translate(0,20)">
        <path
           sodipodi:nodetypes="ccccccccc"
           inkscape:connector-curvature="0"
           id="path4162"
           d="m 829,153.36218 11,0 1,-1 0,-1 -1,-1 -11,0 -1,1 0,1 z"
           style="color:#000000;fill:#222222;fill-opacity:1;fill-rule:nonzero;stroke:none;stroke-width:3;marker:none;visibility:visible;display:inline;overflow:visible;enable-background:accumulate" />
        <path
           style="opacity:0.50000000000000000;color:#000000;fill:#222222;fill-opacity:1;fill-rule:nonzero;stroke:none;stroke-width:3;marker:none;visibility:visible;display:inline;overflow:visible;enable-background:accumulate"
           d="m 829,148.36218 11,0 1,-1 0,-1 -1,-1 -11,0 -1,1 0,1 z"
           id="path4164"
           inkscape:connector-curvature="0"
           sodipodi:nodetypes="ccccccccc" />
        <path
           sodipodi:nodetypes="ccccccccc"
           inkscape:connector-curvature="0"
           id="path4166"
           d="m 829,155.36218 11,0 1,1 0,1 -1,1 -11,0 -1,-1 0,-1 z"
           style="opacity:0.25000000000000000;color:#000000;fill:#222222;fill-opacity:1;fill-rule:nonzero;stroke:none;stroke-width:3;marker:none;visibility:visible;display:inline;overflow:visible;enable-background:accumulate" />
        <rect
           style="opacity:0.25;color:#000000;fill:none;stroke:none;stroke-width:3;marker:none;visibility:visible;display:inline;overflow:visible;enable-background:accumulate"
           id="rect4168"
           width="20"
           height="20"
           x="825"
           y="142.36218" />
      </g>
      <g
         transform="translate(0,40)"
         id="g4170">
        <path
           style="color:#000000;fill:#222222;fill-opacity:1;fill-rule:nonzero;stroke:none;stroke-width:3;marker:none;visibility:visible;display:inline;overflow:visible;enable-background:accumulate"
           d="m 829,155.36218 11,0 1,1 0,1 -1,1 -11,0 -1,-1 0,-1 z"
           id="path4172"
           inkscape:connector-curvature="0"
           sodipodi:nodetypes="ccccccccc" />
        <path
           sodipodi:nodetypes="ccccccccc"
           inkscape:connector-curvature="0"
           id="path4174"
           d="m 829,150.36218 11,0 1,1 0,1 -1,1 -11,0 -1,-1 0,-1 z"
           style="opacity:0.50000000000000000;color:#000000;fill:#222222;fill-opacity:1;fill-rule:nonzero;stroke:none;stroke-width:3;marker:none;visibility:visible;display:inline;overflow:visible;enable-background:accumulate" />
        <path
           style="opacity:0.25000000000000000;color:#000000;fill:#222222;fill-opacity:1;fill-rule:nonzero;stroke:none;stroke-width:3;marker:none;visibility:visible;display:inline;overflow:visible;enable-background:accumulate"
           d="m 829,145.36218 11,0 1,1 0,1 -1,1 -11,0 -1,-1 0,-1 z"
           id="path4176"
           inkscape:connector-curvature="0"
           sodipodi:nodetypes="ccccccccc" />
        <rect
           y="142.36218"
           x="825"
           height="20"
           width="20"
           id="rect4178"
           style="opacity:0.25;color:#000000;fill:none;stroke:none;stroke-width:3;marker:none;visibility:visible;display:inline;overflow:visible;enable-background:accumulate" />
      </g>
      <g
         id="g4180"
         transform="translate(0,60)">
        <path
           sodipodi:nodetypes="ccccccccc"
           inkscape:connector-curvature="0"
           id="path4182"
           d="m 829,153.36218 11,0 1,-1 0,-1 -1,-1 -11,0 -1,1 0,1 z"
           style="color:#000000;fill:#222222;fill-opacity:1;fill-rule:nonzero;stroke:none;stroke-width:3;marker:none;visibility:visible;display:inline;overflow:visible;enable-background:accumulate" />
        <path
           style="opacity:0.50000000000000000;color:#000000;fill:#222222;fill-opacity:1;fill-rule:nonzero;stroke:none;stroke-width:3;marker:none;visibility:visible;display:inline;overflow:visible;enable-background:accumulate"
           d="m 829,158.36218 11,0 1,-1 0,-1 -1,-1 -11,0 -1,1 0,1 z"
           id="path4184"
           inkscape:connector-curvature="0"
           sodipodi:nodetypes="ccccccccc" />
        <path
           sodipodi:nodetypes="ccccccccc"
           inkscape:connector-curvature="0"
           id="path4186"
           d="m 829,145.36218 11,0 1,1 0,1 -1,1 -11,0 -1,-1 0,-1 z"
           style="opacity:0.25000000000000000;color:#000000;fill:#222222;fill-opacity:1;fill-rule:nonzero;stroke:none;stroke-width:3;marker:none;visibility:visible;display:inline;overflow:visible;enable-background:accumulate" />
        <rect
           style="opacity:0.25;color:#000000;fill:none;stroke:none;stroke-width:3;marker:none;visibility:visible;display:inline;overflow:visible;enable-background:accumulate"
           id="rect4188"
           width="20"
           height="20"
           x="825"
           y="142.36218" />
      </g>
      <g
         transform="translate(0,80)"
         id="g4190">
        <path
           style="color:#000000;fill:#222222;fill-opacity:1;fill-rule:nonzero;stroke:none;stroke-width:3;marker:none;visibility:visible;display:inline;overflow:visible;enable-background:accumulate"
           d="m 829,145.36218 11,0 1,1 0,1 -1,1 -11,0 -1,-1 0,-1 z"
           id="path4192"
           inkscape:connector-curvature="0"
           sodipodi:nodetypes="ccccccccc" />
        <path
           sodipodi:nodetypes="ccccccccc"
           inkscape:connector-curvature="0"
           id="path4194"
           d="m 829,150.36218 11,0 1,1 0,1 -1,1 -11,0 -1,-1 0,-1 z"
           style="opacity:0.50000000000000000;color:#000000;fill:#222222;fill-opacity:1;fill-rule:nonzero;stroke:none;stroke-width:3;marker:none;visibility:visible;display:inline;overflow:visible;enable-background:accumulate" />
        <path
           style="opacity:0.25000000000000000;color:#000000;fill:#222222;fill-opacity:1;fill-rule:nonzero;stroke:none;stroke-width:3;marker:none;visibility:visible;display:inline;overflow:visible;enable-background:accumulate"
           d="m 829,155.36218 11,0 1,1 0,1 -1,1 -11,0 -1,-1 0,-1 z"
           id="path4196"
           inkscape:connector-curvature="0"
           sodipodi:nodetypes="ccccccccc" />
        <rect
           y="142.36218"
           x="825"
           height="20"
           width="20"
           id="rect4198"
           style="opacity:0.25;color:#000000;fill:none;stroke:none;stroke-width:3;marker:none;visibility:visible;display:inline;overflow:visible;enable-background:accumulate" />
      </g>
    </g>
    <g
       id="g3068"
       transform="translate(0,140)">
      <image
         y="147.36218"
         x="496"
         id="image3070"
         xlink:href="file:///Users/saman/Desktop/Screen%20Shot%202013-04-05%20at%2011.19.16%20AM.png"
         height="133"
         width="129" />
      <rect
         style="color:#000000;fill:#fafafa;fill-opacity:1;fill-rule:nonzero;stroke:none;stroke-width:3;marker:none;visibility:visible;display:inline;overflow:visible;enable-background:accumulate"
         id="rect3072"
         width="14"
         height="17"
         x="569"
         y="198.36218" />
      <path
         style="color:#000000;fill:#8c8c8c;fill-opacity:1;fill-rule:nonzero;stroke:none;stroke-width:3;marker:none;visibility:visible;display:inline;overflow:visible;enable-background:accumulate"
         d="m 570,208.36218 11,0 1,-1 0,-1 -1,-1 -11,0 -1,1 0,1 z"
         id="path3074"
         inkscape:connector-curvature="0"
         sodipodi:nodetypes="ccccccccc" />
      <path
         sodipodi:nodetypes="ccccccccc"
         inkscape:connector-curvature="0"
         id="path3076"
         d="m 570,203.36218 11,0 1,-1 0,-1 -1,-1 -11,0 -1,1 0,1 z"
         style="opacity:0.5;color:#000000;fill:#8c8c8c;fill-opacity:1;fill-rule:nonzero;stroke:none;stroke-width:3;marker:none;visibility:visible;display:inline;overflow:visible;enable-background:accumulate" />
      <path
         style="opacity:0.25;color:#000000;fill:#8c8c8c;fill-opacity:1;fill-rule:nonzero;stroke:none;stroke-width:3;marker:none;visibility:visible;display:inline;overflow:visible;enable-background:accumulate"
         d="m 570,210.36218 11,0 1,1 0,1 -1,1 -11,0 -1,-1 0,-1 z"
         id="path3078"
         inkscape:connector-curvature="0"
         sodipodi:nodetypes="ccccccccc" />
    </g>
    <g
       transform="translate(0,290)"
       id="g3080">
      <image
         width="129"
         height="133"
         xlink:href="file:///Users/saman/Desktop/Screen%20Shot%202013-04-05%20at%2011.19.16%20AM.png"
         id="image3082"
         x="496"
         y="147.36218" />
      <rect
         y="198.36218"
         x="569"
         height="17"
         width="14"
         id="rect3084"
         style="color:#000000;fill:#fafafa;fill-opacity:1;fill-rule:nonzero;stroke:none;stroke-width:3;marker:none;visibility:visible;display:inline;overflow:visible;enable-background:accumulate" />
      <path
         sodipodi:nodetypes="ccccccccc"
         inkscape:connector-curvature="0"
         id="path3086"
         d="m 570,210.36218 11,0 1,1 0,1 -1,1 -11,0 -1,-1 0,-1 z"
         style="color:#000000;fill:#8c8c8c;fill-opacity:1;fill-rule:nonzero;stroke:none;stroke-width:3;marker:none;visibility:visible;display:inline;overflow:visible;enable-background:accumulate" />
      <path
         style="opacity:0.5;color:#000000;fill:#8c8c8c;fill-opacity:1;fill-rule:nonzero;stroke:none;stroke-width:3;marker:none;visibility:visible;display:inline;overflow:visible;enable-background:accumulate"
         d="m 570,205.36218 11,0 1,1 0,1 -1,1 -11,0 -1,-1 0,-1 z"
         id="path3088"
         inkscape:connector-curvature="0"
         sodipodi:nodetypes="ccccccccc" />
      <path
         sodipodi:nodetypes="ccccccccc"
         inkscape:connector-curvature="0"
         id="path3090"
         d="m 570,200.36218 11,0 1,1 0,1 -1,1 -11,0 -1,-1 0,-1 z"
         style="opacity:0.25;color:#000000;fill:#8c8c8c;fill-opacity:1;fill-rule:nonzero;stroke:none;stroke-width:3;marker:none;visibility:visible;display:inline;overflow:visible;enable-background:accumulate" />
    </g>
    <g
       id="g3092"
       transform="translate(0,-150)">
      <image
         y="147.36218"
         x="496"
         id="image3094"
         xlink:href="file:///Users/saman/Desktop/Screen%20Shot%202013-04-05%20at%2011.19.16%20AM.png"
         height="133"
         width="129" />
      <image
         width="129"
         height="133"
         xlink:href="file:///Users/saman/Desktop/Screen%20Shot%202013-04-05%20at%2011.19.16%20AM.png"
         id="image3104"
         x="496"
         y="-2.6378174" />
      <image
         y="-152.63782"
         x="496"
         id="image3106"
         xlink:href="file:///Users/saman/Desktop/Screen%20Shot%202013-04-05%20at%2011.19.16%20AM.png"
         height="133"
         width="129" />
    </g>
  </g>
</svg>
