<?xml version="1.0" encoding="UTF-8" standalone="no"?>
<!-- Created with Inkscape (http://www.inkscape.org/) -->

<svg
   xmlns:dc="http://purl.org/dc/elements/1.1/"
   xmlns:cc="http://creativecommons.org/ns#"
   xmlns:rdf="http://www.w3.org/1999/02/22-rdf-syntax-ns#"
   xmlns:svg="http://www.w3.org/2000/svg"
   xmlns="http://www.w3.org/2000/svg"
   xmlns:sodipodi="http://sodipodi.sourceforge.net/DTD/sodipodi-0.dtd"
   xmlns:inkscape="http://www.inkscape.org/namespaces/inkscape"
   width="32"
   height="32"
   id="svg13890"
   version="1.1"
   inkscape:version="0.48.2 r9819"
   sodipodi:docname="New document 88">
  <defs
     id="defs13892" />
  <sodipodi:namedview
     id="base"
     pagecolor="#ffffff"
     bordercolor="#666666"
     borderopacity="1.0"
     inkscape:pageopacity="0.0"
     inkscape:pageshadow="2"
     inkscape:zoom="0.35"
     inkscape:cx="136.71429"
     inkscape:cy="-89.714285"
     inkscape:document-units="px"
     inkscape:current-layer="layer1"
     showgrid="false"
     fit-margin-top="0"
     fit-margin-left="0"
     fit-margin-right="0"
     fit-margin-bottom="0"
     inkscape:window-width="1015"
     inkscape:window-height="705"
     inkscape:window-x="338"
     inkscape:window-y="46"
     inkscape:window-maximized="0" />
  <metadata
     id="metadata13895">
    <rdf:RDF>
      <cc:Work
         rdf:about="">
        <dc:format>image/svg+xml</dc:format>
        <dc:type
           rdf:resource="http://purl.org/dc/dcmitype/StillImage" />
        <dc:title></dc:title>
      </cc:Work>
    </rdf:RDF>
  </metadata>
  <g
     inkscape:label="Layer 1"
     inkscape:groupmode="layer"
     id="layer1"
     transform="translate(-275.42857,-513.50504)">
    <path
       style="font-size:medium;font-style:normal;font-variant:normal;font-weight:normal;font-stretch:normal;text-indent:0;text-align:start;text-decoration:none;line-height:normal;letter-spacing:normal;word-spacing:normal;text-transform:none;direction:ltr;block-progression:tb;writing-mode:lr-tb;text-anchor:start;baseline-shift:baseline;opacity:0.5;color:#000000;fill:#000000;fill-opacity:1;fill-rule:nonzero;stroke:none;stroke-width:8;marker:none;visibility:visible;display:inline;overflow:visible;enable-background:accumulate;font-family:Sans;-inkscape-font-specification:Sans"
       d="m 291.42857,513.50504 c -8.78917,0 -16.00001,7.21082 -16,16 0,8.78917 7.21082,16.00001 16,16 8.78917,0 16.00001,-7.21082 16,-16 0,-8.78917 -7.21082,-16.00001 -16,-16 z"
       id="path13862"
       inkscape:connector-curvature="0"
       sodipodi:nodetypes="sssss" />
    <path
       style="font-size:medium;font-style:normal;font-variant:normal;font-weight:normal;font-stretch:normal;text-indent:0;text-align:start;text-decoration:none;line-height:normal;letter-spacing:normal;word-spacing:normal;text-transform:none;direction:ltr;block-progression:tb;writing-mode:lr-tb;text-anchor:start;baseline-shift:baseline;color:#000000;fill:#e06d5f;fill-opacity:1;fill-rule:nonzero;stroke:none;stroke-width:1.25;marker:none;visibility:visible;display:inline;overflow:visible;enable-background:accumulate;font-family:Sans;-inkscape-font-specification:Sans"
       d="m 291.42857,517.50504 c -6.62739,0 -12.00001,5.37261 -12,12 0,6.62739 5.37261,12.00001 12,12 6.62739,0 12.00001,-5.37261 12,-12 0,-6.62739 -5.37261,-12.00001 -12,-12 z"
       id="path12055"
       inkscape:connector-curvature="0" />
    <path
       style="opacity:0.5;color:#000000;fill:#000000;fill-opacity:1;fill-rule:nonzero;stroke:none;stroke-width:0;marker:none;visibility:visible;display:inline;overflow:visible;enable-background:accumulate"
       d="m 295.92857,522.64286 -5,5 -2,2 -4,4 0,1 1,1 1,0 4,-4 2,-2 5,-5 0,-1 -1,-1 -1,0 z m -6.5,0.875 -2,1 -1,1 -1,2 0,4.1875 2.78125,-2.78125 0.21875,-0.21875 0,-1.1875 1,-1 1.1875,0 2.59375,-2.59375 -0.78125,-0.40625 -3,0 z m 7,4.03125 -2.78125,2.78125 -0.21875,0.1875 -1.5625,1.59375 3.0625,3.40625 4.5,-5 -3,0 0,-2.96875 z"
       id="path12057"
       inkscape:connector-curvature="0" />
  </g>
</svg>
