<?xml version="1.0" encoding="UTF-8" standalone="no"?>
<!-- Created with Inkscape (http://www.inkscape.org/) -->

<svg
   xmlns:dc="http://purl.org/dc/elements/1.1/"
   xmlns:cc="http://creativecommons.org/ns#"
   xmlns:rdf="http://www.w3.org/1999/02/22-rdf-syntax-ns#"
   xmlns:svg="http://www.w3.org/2000/svg"
   xmlns="http://www.w3.org/2000/svg"
   xmlns:sodipodi="http://sodipodi.sourceforge.net/DTD/sodipodi-0.dtd"
   xmlns:inkscape="http://www.inkscape.org/namespaces/inkscape"
   width="24"
   height="44"
   id="svg14109"
   version="1.1"
   inkscape:version="0.48.2 r9819"
   sodipodi:docname="New document 103">
  <defs
     id="defs14111" />
  <sodipodi:namedview
     id="base"
     pagecolor="#ffffff"
     bordercolor="#666666"
     borderopacity="1.0"
     inkscape:pageopacity="0.0"
     inkscape:pageshadow="2"
     inkscape:zoom="0.35"
     inkscape:cx="7"
     inkscape:cy="24.857147"
     inkscape:document-units="px"
     inkscape:current-layer="layer1"
     showgrid="false"
     fit-margin-top="0"
     fit-margin-left="0"
     fit-margin-right="0"
     fit-margin-bottom="0"
     inkscape:window-width="808"
     inkscape:window-height="402"
     inkscape:window-x="703"
     inkscape:window-y="256"
     inkscape:window-maximized="0" />
  <metadata
     id="metadata14114">
    <rdf:RDF>
      <cc:Work
         rdf:about="">
        <dc:format>image/svg+xml</dc:format>
        <dc:type
           rdf:resource="http://purl.org/dc/dcmitype/StillImage" />
        <dc:title></dc:title>
      </cc:Work>
    </rdf:RDF>
  </metadata>
  <g
     inkscape:label="Layer 1"
     inkscape:groupmode="layer"
     id="layer1"
     transform="translate(-368,-513.21933)">
    <path
       style="font-size:medium;font-style:normal;font-variant:normal;font-weight:normal;font-stretch:normal;text-indent:0;text-align:start;text-decoration:none;line-height:normal;letter-spacing:normal;word-spacing:normal;text-transform:none;direction:ltr;block-progression:tb;writing-mode:lr-tb;text-anchor:start;baseline-shift:baseline;opacity:0.5;color:#000000;fill:#000000;fill-opacity:1;fill-rule:nonzero;stroke:none;stroke-width:8;marker:none;visibility:visible;display:inline;overflow:visible;enable-background:accumulate;font-family:Sans;-inkscape-font-specification:Sans"
       d="m 380,513.21933 c -2,0 -3.2899,1.14974 -4,2 l -7.03125,8.41907 c -1.27939,1.51205 -1.17862,4.00251 0.21875,5.40625 l 1,1 c 0.73414,0.74243 1.76843,1.17913 2.8125,1.1875 l 0,4.375 c -2.98748,2.1875 -4.99995,5.67161 -5,9.625 6e-5,6.58002 5.41995,11.98722 12,11.98718 6.58003,10e-6 12,-5.40714 12,-11.98718 -10e-6,-3.96861 -1.99295,-7.47078 -5,-9.65625 l 0,-4.34375 c 1.05451,-1.8e-4 2.10227,-0.43771 2.84375,-1.1875 l 1,-1 c 1.39737,-1.40374 1.49814,-3.8942 0.21875,-5.40625 L 384,515.21933 c -0.77221,-0.92054 -2,-2 -4,-2 z"
       id="path12182"
       inkscape:connector-curvature="0"
       sodipodi:nodetypes="ssccccccsscccccss" />
    <path
       style="font-size:medium;font-style:normal;font-variant:normal;font-weight:normal;font-stretch:normal;text-indent:0;text-align:start;text-decoration:none;line-height:normal;letter-spacing:normal;word-spacing:normal;text-transform:none;direction:ltr;block-progression:tb;writing-mode:lr-tb;text-anchor:start;baseline-shift:baseline;color:#000000;fill:#8cd05f;fill-opacity:1;fill-rule:nonzero;stroke:none;stroke-width:1.25;marker:none;visibility:visible;display:inline;overflow:visible;enable-background:accumulate;font-family:Sans;-inkscape-font-specification:Sans"
       d="m 380,517.21933 -8,9.01282 1,1 4,0 0,10.59375 c -2.92023,1.19221 -4.99998,4.05725 -5,7.40625 4e-5,4.41829 3.58172,7.98721 8,7.98718 4.41827,10e-6 8,-3.5689 8,-7.98718 2e-5,-3.36351 -2.05966,-6.25472 -5,-7.4375 l 0,-10.5625 4,0 1,-1 z"
       id="path12188"
       inkscape:connector-curvature="0"
       sodipodi:nodetypes="ccccccssccccc" />
    <path
       style="font-size:medium;font-style:normal;font-variant:normal;font-weight:normal;font-stretch:normal;text-indent:0;text-align:start;text-decoration:none;line-height:normal;letter-spacing:normal;word-spacing:normal;text-transform:none;direction:ltr;block-progression:tb;writing-mode:lr-tb;text-anchor:start;baseline-shift:baseline;opacity:0.5;color:#000000;fill:#000000;fill-opacity:1;fill-rule:nonzero;stroke:none;stroke-width:0;marker:none;visibility:visible;display:inline;overflow:visible;enable-background:accumulate;font-family:Sans;-inkscape-font-specification:Sans"
       d="m 380.01488,542.22229 c 1.65685,0 3,1.34313 2.99999,3.00001 -10e-6,1.65687 -1.34312,3 -2.99999,3.00002 -1.65687,-3e-5 -2.99999,-1.34314 -2.99999,-3.00001 -10e-6,-1.6569 1.34312,-3 2.99999,-3.00002 z"
       id="path12196"
       inkscape:connector-curvature="0" />
  </g>
</svg>
