<?xml version="1.0" encoding="UTF-8" standalone="no"?>
<!-- Created with Inkscape (http://www.inkscape.org/) -->

<svg
   xmlns:dc="http://purl.org/dc/elements/1.1/"
   xmlns:cc="http://creativecommons.org/ns#"
   xmlns:rdf="http://www.w3.org/1999/02/22-rdf-syntax-ns#"
   xmlns:svg="http://www.w3.org/2000/svg"
   xmlns="http://www.w3.org/2000/svg"
   xmlns:sodipodi="http://sodipodi.sourceforge.net/DTD/sodipodi-0.dtd"
   xmlns:inkscape="http://www.inkscape.org/namespaces/inkscape"
   width="24"
   height="44"
   id="svg14277"
   version="1.1"
   inkscape:version="0.48.2 r9819"
   sodipodi:docname="New document 111">
  <defs
     id="defs14279" />
  <sodipodi:namedview
     id="base"
     pagecolor="#ffffff"
     bordercolor="#666666"
     borderopacity="1.0"
     inkscape:pageopacity="0.0"
     inkscape:pageshadow="2"
     inkscape:zoom="0.35"
     inkscape:cx="-67.285716"
     inkscape:cy="59.142856"
     inkscape:document-units="px"
     inkscape:current-layer="layer1"
     showgrid="false"
     fit-margin-top="0"
     fit-margin-left="0"
     fit-margin-right="0"
     fit-margin-bottom="0"
     inkscape:window-width="1291"
     inkscape:window-height="917"
     inkscape:window-x="347"
     inkscape:window-y="20"
     inkscape:window-maximized="0" />
  <metadata
     id="metadata14282">
    <rdf:RDF>
      <cc:Work
         rdf:about="">
        <dc:format>image/svg+xml</dc:format>
        <dc:type
           rdf:resource="http://purl.org/dc/dcmitype/StillImage" />
        <dc:title></dc:title>
      </cc:Work>
    </rdf:RDF>
  </metadata>
  <g
     inkscape:label="Layer 1"
     inkscape:groupmode="layer"
     id="layer1"
     transform="translate(-216.57143,-558.93361)">
    <path
       sodipodi:nodetypes="ssccccccsscccccss"
       inkscape:connector-curvature="0"
       id="path14094"
       d="m 228.57143,558.93361 c -2,0 -3.2899,1.14974 -4,2 l -7.03125,8.41907 c -1.27939,1.51205 -1.17862,4.00251 0.21875,5.40625 l 1,1 c 0.73414,0.74243 1.76843,1.17913 2.8125,1.1875 l 0,4.375 c -2.98748,2.1875 -4.99995,5.67161 -5,9.625 6e-5,6.58002 5.41995,11.98722 12,11.98718 6.58003,10e-6 12,-5.40714 12,-11.98718 -1e-5,-3.96861 -1.99295,-7.47078 -5,-9.65625 l 0,-4.34375 c 1.05451,-1.8e-4 2.10227,-0.43771 2.84375,-1.1875 l 1,-1 c 1.39737,-1.40374 1.49814,-3.8942 0.21875,-5.40625 l -7.0625,-8.41907 c -0.77221,-0.92054 -2,-2 -4,-2 z"
       style="font-size:medium;font-style:normal;font-variant:normal;font-weight:normal;font-stretch:normal;text-indent:0;text-align:start;text-decoration:none;line-height:normal;letter-spacing:normal;word-spacing:normal;text-transform:none;direction:ltr;block-progression:tb;writing-mode:lr-tb;text-anchor:start;baseline-shift:baseline;opacity:0.5;color:#000000;fill:#000000;fill-opacity:1;fill-rule:nonzero;stroke:none;stroke-width:8;marker:none;visibility:visible;display:inline;overflow:visible;enable-background:accumulate;font-family:Sans;-inkscape-font-specification:Sans" />
    <path
       style="font-size:medium;font-style:normal;font-variant:normal;font-weight:normal;font-stretch:normal;text-indent:0;text-align:start;text-decoration:none;line-height:normal;letter-spacing:normal;word-spacing:normal;text-transform:none;direction:ltr;block-progression:tb;writing-mode:lr-tb;text-anchor:start;baseline-shift:baseline;color:#000000;fill:#e06d5f;fill-opacity:1;fill-rule:nonzero;stroke:none;stroke-width:1.25;marker:none;visibility:visible;display:inline;overflow:visible;enable-background:accumulate;font-family:Sans;-inkscape-font-specification:Sans"
       d="m 228.57143,563.93361 -8,9.01282 1,1 4,0 0,10.5625 c -2.93772,1.184 -5,4.07588 -5,7.4375 0,4.41827 3.58173,7.98718 8,7.98718 4.41827,0 8,-3.56891 8,-7.98718 0,-3.36162 -2.06228,-6.2535 -5,-7.4375 l 0,-10.5625 4,0 1,-1 z"
       id="path10717"
       inkscape:connector-curvature="0"
       sodipodi:nodetypes="cccccsssccccc" />
    <path
       style="opacity:0.5;color:#000000;fill:#000000;fill-opacity:1;fill-rule:nonzero;stroke:none;stroke-width:8;marker:none;visibility:visible;display:inline;overflow:visible;enable-background:accumulate"
       d="m 224.57143,589.93361 8,0 1,1 0,2 -1,1 -8,0 -1,-1 0,-2 z"
       id="rect10944"
       inkscape:connector-curvature="0"
       sodipodi:nodetypes="ccccccccc" />
  </g>
</svg>
