<?xml version="1.0" encoding="UTF-8" standalone="no"?>
<!-- Created with Inkscape (http://www.inkscape.org/) -->

<svg
   xmlns:dc="http://purl.org/dc/elements/1.1/"
   xmlns:cc="http://creativecommons.org/ns#"
   xmlns:rdf="http://www.w3.org/1999/02/22-rdf-syntax-ns#"
   xmlns:svg="http://www.w3.org/2000/svg"
   xmlns="http://www.w3.org/2000/svg"
   xmlns:sodipodi="http://sodipodi.sourceforge.net/DTD/sodipodi-0.dtd"
   xmlns:inkscape="http://www.inkscape.org/namespaces/inkscape"
   width="32"
   height="32"
   id="svg13993"
   version="1.1"
   inkscape:version="0.48.2 r9819"
   sodipodi:docname="New document 95">
  <defs
     id="defs13995" />
  <sodipodi:namedview
     id="base"
     pagecolor="#ffffff"
     bordercolor="#666666"
     borderopacity="1.0"
     inkscape:pageopacity="0.0"
     inkscape:pageshadow="2"
     inkscape:zoom="4"
     inkscape:cx="28.721171"
     inkscape:cy="11.899626"
     inkscape:document-units="px"
     inkscape:current-layer="layer1"
     showgrid="false"
     fit-margin-top="0"
     fit-margin-left="0"
     fit-margin-right="0"
     fit-margin-bottom="0"
     inkscape:window-width="930"
     inkscape:window-height="540"
     inkscape:window-x="725"
     inkscape:window-y="445"
     inkscape:window-maximized="0" />
  <metadata
     id="metadata13998">
    <rdf:RDF>
      <cc:Work
         rdf:about="">
        <dc:format>image/svg+xml</dc:format>
        <dc:type
           rdf:resource="http://purl.org/dc/dcmitype/StillImage" />
        <dc:title></dc:title>
      </cc:Work>
    </rdf:RDF>
  </metadata>
  <g
     inkscape:label="Layer 1"
     inkscape:groupmode="layer"
     id="layer1"
     transform="translate(-212.5625,-787.78125)">
    <path
       style="font-size:medium;font-style:normal;font-variant:normal;font-weight:normal;font-stretch:normal;text-indent:0;text-align:start;text-decoration:none;line-height:normal;letter-spacing:normal;word-spacing:normal;text-transform:none;direction:ltr;block-progression:tb;writing-mode:lr-tb;text-anchor:start;baseline-shift:baseline;opacity:0.5;color:#000000;fill:#000000;fill-opacity:1;fill-rule:nonzero;stroke:#000000;stroke-width:8;stroke-linecap:butt;stroke-linejoin:round;stroke-miterlimit:4;stroke-opacity:1;stroke-dasharray:none;stroke-dashoffset:0;marker:none;visibility:visible;display:inline;overflow:visible;enable-background:accumulate;font-family:Sans;-inkscape-font-specification:Sans"
       d="m 228.57143,791.79075 c -6.62739,0 -11.99999,5.37261 -12,12 0,6.62739 5.37261,11.99999 12,12 6.62739,0 11.99999,-5.37261 12,-12 0,-6.62739 -5.37261,-11.99999 -12,-12 z"
       id="path12001"
       inkscape:connector-curvature="0" />
    <path
       inkscape:connector-curvature="0"
       id="path11970"
       d="m 228.57143,791.79075 c -6.62739,0 -11.99999,5.37261 -12,12 0,6.62739 5.37261,11.99999 12,12 6.62739,0 11.99999,-5.37261 12,-12 0,-6.62739 -5.37261,-11.99999 -12,-12 z"
       style="font-size:medium;font-style:normal;font-variant:normal;font-weight:normal;font-stretch:normal;text-indent:0;text-align:start;text-decoration:none;line-height:normal;letter-spacing:normal;word-spacing:normal;text-transform:none;direction:ltr;block-progression:tb;writing-mode:lr-tb;text-anchor:start;baseline-shift:baseline;color:#000000;fill:#8cd05f;fill-opacity:1;fill-rule:nonzero;stroke:none;stroke-width:1.25;marker:none;visibility:visible;display:inline;overflow:visible;enable-background:accumulate;font-family:Sans;-inkscape-font-specification:Sans" />
    <path
       inkscape:connector-curvature="0"
       style="opacity:0.5;color:#000000;fill:#000000;fill-opacity:1;fill-rule:nonzero;stroke:none;stroke-width:0;marker:none;visibility:visible;display:inline;overflow:visible;enable-background:accumulate"
       id="path2997-6-6"
       d="m 236.57144,804.79078 -2.99999,-4e-5 -3e-5,-2.99998 -0.99997,-2.00006 -1.00001,-0.99998 -2.00002,-0.99997 -3.00003,3e-5 -1.99994,0.99998 -1.00004,0.99999 -0.99998,2.00003 -1e-5,4.99996 1.00004,1.00001 0.99996,10e-6 1,-1 2e-5,-4.99996 0.99999,-1.00004 2.99997,0 1.00003,0.99999 -1e-5,3 -3.00003,-3e-5 4.50003,5.00003 z"
       sodipodi:nodetypes="cccccccccccccccccccccc" />
  </g>
</svg>
