<svg aria-hidden="true" focusable="false" data-prefix="fas" data-icon="hashtag" class="svg-inline--fa fa-hashtag" role="img" xmlns="http://www.w3.org/2000/svg" viewBox="0 0 448 512"><path fill="currentColor" d="M181.3 32.4c17.4 2.9 29.2 19.4 26.3 36.8L197.8 128l95.1 0 11.5-69.3c2.9-17.4 19.4-29.2 36.8-26.3s29.2 19.4 26.3 36.8L357.8 128l58.2 0c17.7 0 32 14.3 32 32s-14.3 32-32 32l-68.9 0L325.8 320l58.2 0c17.7 0 32 14.3 32 32s-14.3 32-32 32l-68.9 0-11.5 69.3c-2.9 17.4-19.4 29.2-36.8 26.3s-29.2-19.4-26.3-36.8l9.8-58.7-95.1 0-11.5 69.3c-2.9 17.4-19.4 29.2-36.8 26.3s-29.2-19.4-26.3-36.8L90.2 384 32 384c-17.7 0-32-14.3-32-32s14.3-32 32-32l68.9 0 21.3-128L64 192c-17.7 0-32-14.3-32-32s14.3-32 32-32l68.9 0 11.5-69.3c2.9-17.4 19.4-29.2 36.8-26.3zM187.1 192L165.8 320l95.1 0 21.3-128-95.1 0z"></path></svg>