<svg aria-hidden="true" focusable="false" data-prefix="fas" data-icon="table-cells" class="svg-inline--fa fa-table-cells" role="img" xmlns="http://www.w3.org/2000/svg" viewBox="0 0 512 512"><path fill="currentColor" d="M64 32C28.7 32 0 60.7 0 96L0 416c0 35.3 28.7 64 64 64l384 0c35.3 0 64-28.7 64-64l0-320c0-35.3-28.7-64-64-64L64 32zm88 64l0 64-88 0 0-64 88 0zm56 0l88 0 0 64-88 0 0-64zm240 0l0 64-88 0 0-64 88 0zM64 224l88 0 0 64-88 0 0-64zm232 0l0 64-88 0 0-64 88 0zm64 0l88 0 0 64-88 0 0-64zM152 352l0 64-88 0 0-64 88 0zm56 0l88 0 0 64-88 0 0-64zm240 0l0 64-88 0 0-64 88 0z"></path></svg>