<svg aria-hidden="true" focusable="false" data-prefix="fas" data-icon="plug" class="svg-inline--fa fa-plug" role="img" xmlns="http://www.w3.org/2000/svg" viewBox="0 0 384 512"><path fill="currentColor" d="M96 0C78.3 0 64 14.3 64 32l0 96 64 0 0-96c0-17.7-14.3-32-32-32zM288 0c-17.7 0-32 14.3-32 32l0 96 64 0 0-96c0-17.7-14.3-32-32-32zM32 160c-17.7 0-32 14.3-32 32s14.3 32 32 32l0 32c0 77.4 55 142 128 156.8l0 67.2c0 17.7 14.3 32 32 32s32-14.3 32-32l0-67.2C297 398 352 333.4 352 256l0-32c17.7 0 32-14.3 32-32s-14.3-32-32-32L32 160z"></path></svg>