<svg aria-hidden="true" focusable="false" data-prefix="fas" data-icon="jar" class="svg-inline--fa fa-jar" role="img" xmlns="http://www.w3.org/2000/svg" viewBox="0 0 320 512"><path fill="currentColor" d="M32 32C32 14.3 46.3 0 64 0L256 0c17.7 0 32 14.3 32 32s-14.3 32-32 32L64 64C46.3 64 32 49.7 32 32zM0 160c0-35.3 28.7-64 64-64l192 0c35.3 0 64 28.7 64 64l0 288c0 35.3-28.7 64-64 64L64 512c-35.3 0-64-28.7-64-64L0 160zm96 64c-17.7 0-32 14.3-32 32l0 96c0 17.7 14.3 32 32 32l128 0c17.7 0 32-14.3 32-32l0-96c0-17.7-14.3-32-32-32L96 224z"></path></svg>