<svg aria-hidden="true" focusable="false" data-prefix="fas" data-icon="sign-hanging" class="svg-inline--fa fa-sign-hanging" role="img" xmlns="http://www.w3.org/2000/svg" viewBox="0 0 512 512"><path fill="currentColor" d="M96 0c17.7 0 32 14.3 32 32l0 32 352 0c17.7 0 32 14.3 32 32s-14.3 32-32 32l-352 0 0 352c0 17.7-14.3 32-32 32s-32-14.3-32-32l0-352-32 0C14.3 128 0 113.7 0 96S14.3 64 32 64l32 0 0-32C64 14.3 78.3 0 96 0zm96 160l256 0c17.7 0 32 14.3 32 32l0 160c0 17.7-14.3 32-32 32l-256 0c-17.7 0-32-14.3-32-32l0-160c0-17.7 14.3-32 32-32z"></path></svg>