<svg aria-hidden="true" focusable="false" data-prefix="fas" data-icon="apple-whole" class="svg-inline--fa fa-apple-whole" role="img" xmlns="http://www.w3.org/2000/svg" viewBox="0 0 448 512"><path fill="currentColor" d="M336 128c-32 0-80.02 16.03-112 32.03c-32.01-16-79.1-32.02-111.1-32.03C32 128 .4134 210.5 .0033 288c-.5313 99.97 63.99 224 159.1 224c32 0 48-16 64-16c16 0 32 16 64 16c96 0 160.4-122.8 159.1-224C447.7 211.6 416 128 336 128zM320 32V0h-32C243.8 0 208 35.82 208 80v32h32C284.2 112 320 76.18 320 32z"></path></svg>