<svg aria-hidden="true" focusable="false" data-prefix="fas" data-icon="bell-concierge" class="svg-inline--fa fa-bell-concierge" role="img" xmlns="http://www.w3.org/2000/svg" viewBox="0 0 512 512"><path fill="currentColor" d="M216 64c-13.3 0-24 10.7-24 24s10.7 24 24 24l16 0 0 33.3C119.6 157.2 32 252.4 32 368l448 0c0-115.6-87.6-210.8-200-222.7l0-33.3 16 0c13.3 0 24-10.7 24-24s-10.7-24-24-24l-40 0-40 0zM24 400c-13.3 0-24 10.7-24 24s10.7 24 24 24l464 0c13.3 0 24-10.7 24-24s-10.7-24-24-24L24 400z"></path></svg>