<svg aria-hidden="true" focusable="false" data-prefix="fas" data-icon="vector-square" class="svg-inline--fa fa-vector-square" role="img" xmlns="http://www.w3.org/2000/svg" viewBox="0 0 448 512"><path fill="currentColor" d="M368 80l32 0 0 32-32 0 0-32zM352 32c-17.7 0-32 14.3-32 32L128 64c0-17.7-14.3-32-32-32L32 32C14.3 32 0 46.3 0 64l0 64c0 17.7 14.3 32 32 32l0 192c-17.7 0-32 14.3-32 32l0 64c0 17.7 14.3 32 32 32l64 0c17.7 0 32-14.3 32-32l192 0c0 17.7 14.3 32 32 32l64 0c17.7 0 32-14.3 32-32l0-64c0-17.7-14.3-32-32-32l0-192c17.7 0 32-14.3 32-32l0-64c0-17.7-14.3-32-32-32l-64 0zM96 160c17.7 0 32-14.3 32-32l192 0c0 17.7 14.3 32 32 32l0 192c-17.7 0-32 14.3-32 32l-192 0c0-17.7-14.3-32-32-32l0-192zM48 400l32 0 0 32-32 0 0-32zm320 32l0-32 32 0 0 32-32 0zM48 112l0-32 32 0 0 32-32 0z"></path></svg>