<svg aria-hidden="true" focusable="false" data-prefix="fas" data-icon="ticket-simple" class="svg-inline--fa fa-ticket-simple" role="img" xmlns="http://www.w3.org/2000/svg" viewBox="0 0 576 512"><path fill="currentColor" d="M0 128C0 92.7 28.7 64 64 64H512c35.3 0 64 28.7 64 64v64c0 8.8-7.4 15.7-15.7 18.6C541.5 217.1 528 235 528 256s13.5 38.9 32.3 45.4c8.3 2.9 15.7 9.8 15.7 18.6v64c0 35.3-28.7 64-64 64H64c-35.3 0-64-28.7-64-64V320c0-8.8 7.4-15.7 15.7-18.6C34.5 294.9 48 277 48 256s-13.5-38.9-32.3-45.4C7.4 207.7 0 200.8 0 192V128z"></path></svg>