<svg aria-hidden="true" focusable="false" data-prefix="fas" data-icon="building-flag" class="svg-inline--fa fa-building-flag" role="img" xmlns="http://www.w3.org/2000/svg" viewBox="0 0 640 512"><path fill="currentColor" d="M48 0C21.5 0 0 21.5 0 48L0 464c0 26.5 21.5 48 48 48l96 0 0-80c0-26.5 21.5-48 48-48s48 21.5 48 48l0 80 96 0c26.5 0 48-21.5 48-48l0-416c0-26.5-21.5-48-48-48L48 0zM64 240c0-8.8 7.2-16 16-16l32 0c8.8 0 16 7.2 16 16l0 32c0 8.8-7.2 16-16 16l-32 0c-8.8 0-16-7.2-16-16l0-32zm112-16l32 0c8.8 0 16 7.2 16 16l0 32c0 8.8-7.2 16-16 16l-32 0c-8.8 0-16-7.2-16-16l0-32c0-8.8 7.2-16 16-16zm80 16c0-8.8 7.2-16 16-16l32 0c8.8 0 16 7.2 16 16l0 32c0 8.8-7.2 16-16 16l-32 0c-8.8 0-16-7.2-16-16l0-32zM80 96l32 0c8.8 0 16 7.2 16 16l0 32c0 8.8-7.2 16-16 16l-32 0c-8.8 0-16-7.2-16-16l0-32c0-8.8 7.2-16 16-16zm80 16c0-8.8 7.2-16 16-16l32 0c8.8 0 16 7.2 16 16l0 32c0 8.8-7.2 16-16 16l-32 0c-8.8 0-16-7.2-16-16l0-32zM272 96l32 0c8.8 0 16 7.2 16 16l0 32c0 8.8-7.2 16-16 16l-32 0c-8.8 0-16-7.2-16-16l0-32c0-8.8 7.2-16 16-16zM448 0c-17.7 0-32 14.3-32 32l0 480 64 0 0-320 144 0c8.8 0 16-7.2 16-16l0-128c0-8.8-7.2-16-16-16L480 32c0-17.7-14.3-32-32-32z"></path></svg>