<svg aria-hidden="true" focusable="false" data-prefix="fas" data-icon="dumbbell" class="svg-inline--fa fa-dumbbell" role="img" xmlns="http://www.w3.org/2000/svg" viewBox="0 0 640 512"><path fill="currentColor" d="M112 96c0-17.7 14.3-32 32-32h16c17.7 0 32 14.3 32 32V224v64V416c0 17.7-14.3 32-32 32H144c-17.7 0-32-14.3-32-32V384H64c-17.7 0-32-14.3-32-32V288c-17.7 0-32-14.3-32-32s14.3-32 32-32V160c0-17.7 14.3-32 32-32h48V96zm416 0v32h48c17.7 0 32 14.3 32 32v64c17.7 0 32 14.3 32 32s-14.3 32-32 32v64c0 17.7-14.3 32-32 32H528v32c0 17.7-14.3 32-32 32H480c-17.7 0-32-14.3-32-32V288 224 96c0-17.7 14.3-32 32-32h16c17.7 0 32 14.3 32 32zM416 224v64H224V224H416z"></path></svg>