<svg aria-hidden="true" focusable="false" data-prefix="fas" data-icon="dumbbell" class="svg-inline--fa fa-dumbbell" role="img" xmlns="http://www.w3.org/2000/svg" viewBox="0 0 640 512"><path fill="currentColor" d="M96 64c0-17.7 14.3-32 32-32l32 0c17.7 0 32 14.3 32 32l0 160 0 64 0 160c0 17.7-14.3 32-32 32l-32 0c-17.7 0-32-14.3-32-32l0-64-32 0c-17.7 0-32-14.3-32-32l0-64c-17.7 0-32-14.3-32-32s14.3-32 32-32l0-64c0-17.7 14.3-32 32-32l32 0 0-64zm448 0l0 64 32 0c17.7 0 32 14.3 32 32l0 64c17.7 0 32 14.3 32 32s-14.3 32-32 32l0 64c0 17.7-14.3 32-32 32l-32 0 0 64c0 17.7-14.3 32-32 32l-32 0c-17.7 0-32-14.3-32-32l0-160 0-64 0-160c0-17.7 14.3-32 32-32l32 0c17.7 0 32 14.3 32 32zM416 224l0 64-192 0 0-64 192 0z"></path></svg>