<?xml version="1.0" encoding="UTF-8" standalone="no"?>
<svg width="256px" height="256px" viewBox="0 0 256 256" version="1.1" xmlns="http://www.w3.org/2000/svg" xmlns:xlink="http://www.w3.org/1999/xlink" xmlns:sketch="http://www.bohemiancoding.com/sketch/ns">
    <!-- Generator: Sketch 3.4.4 (17249) - http://www.bohemiancoding.com/sketch -->
    <title>pano</title>
    <desc>Created with Sketch.</desc>
    <defs></defs>
    <g id="Page-1" stroke="none" stroke-width="1" fill="none" fill-rule="evenodd" sketch:type="MSPage">
        <g id="pano" sketch:type="MSArtboardGroup">
            <g id="Rectangle-1-Copy-+-Rectangle-1-Copy-2-+-Oval-1" sketch:type="MSLayerGroup" transform="translate(61.572384, 84.192352)">
                <path d="M135.855232,101.615296 C135.855232,101.615296 103.382746,92.2132101 67.9276161,92.2132101 C32.4724863,92.2132101 0,101.615296 0,101.615296 L0,0 C0,0 30.4122297,10.0360786 67.9276161,10.0360786 C105.443003,10.0360786 135.855232,0 135.855232,0 L135.855232,101.615296 Z" id="Rectangle-1-Copy" stroke="#FFFFFF" stroke-width="8" stroke-linecap="square" sketch:type="MSShapeGroup"></path>
                <path d="M65.2515468,92.2308451 C66.141358,92.2191889 67.0335387,92.2132101 67.9276161,92.2132101 C103.382746,92.2132101 135.855232,101.615296 135.855232,101.615296 L135.855232,84.0980298 L98.3326441,48.9258831 L76.4197966,75.0316935 L50.9457121,57.298266 L26.0895311,75.0316935 L15.1908438,65.499134 L1.06628275,83.4616565 L0.396784939,97.363561 L5.38768417,100.205177 C15.5281798,97.7097096 38.7177244,92.7317312 64.01058,92.2507818 L65.3398193,92.1152917 L65.2515468,92.2308451 L65.2515468,92.2308451 Z" id="Rectangle-1-Copy-2" fill="#FFFFFF" sketch:type="MSShapeGroup"></path>
                <ellipse id="Oval-1" fill="#FFFFFF" sketch:type="MSShapeGroup" cx="24.2149372" cy="29.7946083" rx="12.2647085" ry="12.2314708"></ellipse>
            </g>
            <path d="M218.346443,139.284176 L218.346443,151.634652 L252.65332,134.481213 L218.346443,117.327775 L218.346443,128.305975 L207.368243,128.305975 L207.368243,139.284176 L218.346443,139.284176 Z" id="Triangle-1-Copy-3" fill="#FFFFFF" sketch:type="MSShapeGroup"></path>
            <path d="M40.6535565,139.284176 L40.6535565,151.634652 L6.34667969,134.481213 L40.6535565,117.327775 L40.6535565,128.305975 L51.6317571,128.305975 L51.6317571,139.284176 L40.6535565,139.284176 Z" id="Triangle-1-Copy-4" fill="#FFFFFF" sketch:type="MSShapeGroup"></path>
            <path d="M134.336433,73.2141516 L146.686909,73.2141516 L129.53347,38.9072747 L112.380032,73.2141516 L123.358232,73.2141516 L123.358232,84.1923522 L134.336433,84.1923522 L134.336433,73.2141516 Z" id="Triangle-1-Copy-5" fill="#FFFFFF" sketch:type="MSShapeGroup"></path>
            <path d="M134.336433,196.785848 L146.686909,196.785848 L129.53347,231.092725 L112.380032,196.785848 L123.358232,196.785848 L123.358232,185.807648 L134.336433,185.807648 L134.336433,196.785848 Z" id="Triangle-1-Copy-6" fill="#FFFFFF" sketch:type="MSShapeGroup"></path>
        </g>
    </g>
</svg>