<svg width="32" height="32" viewBox="0 0 32 32" xmlns="http://www.w3.org/2000/svg"><title>spinner</title><path d="M16 3.368c.93 0 1.684-.754 1.684-1.684C17.684.754 16.93 0 16 0c-.93 0-1.684.754-1.684 1.684 0 .93.754 1.684 1.684 1.684zm4.82.956c.857.364 1.845-.036 2.21-.892.362-.856-.037-1.845-.894-2.208-.856-.364-1.844.036-2.208.892-.363.856.036 1.845.892 2.208zm4.112 2.744c.658.658 1.724.658 2.382 0 .657-.658.657-1.724 0-2.382-.658-.657-1.724-.657-2.382 0-.658.658-.658 1.724 0 2.382zm2.732 4.085c.35.862 1.33 1.28 2.193.93.862-.348 1.28-1.33.93-2.192-.348-.862-1.33-1.278-2.192-.93-.862.348-1.28 1.33-.93 2.193zM28.632 16c0 .93.754 1.684 1.684 1.684.93 0 1.684-.754 1.684-1.684 0-.93-.754-1.684-1.684-1.684-.93 0-1.684.754-1.684 1.684zm-.956 4.82c-.364.857.036 1.845.892 2.21.856.362 1.845-.037 2.208-.894.364-.856-.036-1.844-.892-2.208-.856-.363-1.845.036-2.208.892zm-2.744 4.112c-.658.658-.658 1.724 0 2.382.658.657 1.724.657 2.382 0 .657-.658.657-1.724 0-2.382-.658-.658-1.724-.658-2.382 0zm-4.085 2.732c-.862.35-1.28 1.33-.93 2.193.348.862 1.33 1.28 2.192.93.862-.348 1.278-1.33.93-2.192-.348-.862-1.33-1.28-2.193-.93zM16 28.632c-.93 0-1.684.754-1.684 1.684 0 .93.754 1.684 1.684 1.684.93 0 1.684-.754 1.684-1.684 0-.93-.754-1.684-1.684-1.684zm-4.82-.956c-.857-.364-1.845.036-2.21.892-.362.856.037 1.845.894 2.208.856.364 1.844-.036 2.208-.892.363-.856-.036-1.845-.892-2.208zm-4.112-2.744c-.658-.658-1.724-.658-2.382 0-.657.658-.657 1.724 0 2.382.658.657 1.724.657 2.382 0 .658-.658.658-1.724 0-2.382zM4.324 20.82c-.363-.856-1.352-1.255-2.208-.892-.856.364-1.256 1.352-.892 2.208.363.857 1.352 1.256 2.208.893.856-.365 1.256-1.353.892-2.21zM3.368 16c0-.93-.754-1.684-1.684-1.684C.754 14.316 0 15.07 0 16c0 .93.754 1.684 1.684 1.684.93 0 1.684-.754 1.684-1.684zm.956-4.82c.364-.857-.036-1.845-.892-2.21-.856-.362-1.845.037-2.208.894-.364.856.036 1.844.892 2.208.856.363 1.845-.036 2.208-.892zm2.744-4.112c.658-.658.658-1.724 0-2.382-.658-.657-1.724-.657-2.382 0-.657.658-.657 1.724 0 2.382.658.658 1.724.658 2.382 0zm4.085-2.732c.862-.35 1.28-1.33.93-2.193-.348-.862-1.33-1.28-2.192-.93-.862.348-1.278 1.33-.93 2.192.348.862 1.33 1.28 2.193.93z" fill="#ABB1B9" fill-rule="evenodd"/></svg>
