<?xml version="1.0" encoding="UTF-8"?>
<!DOCTYPE svg PUBLIC "-//W3C//DTD SVG 1.1//EN" "http://www.w3.org/Graphics/SVG/1.1/DTD/svg11.dtd">
<svg version="1.1" xmlns="http://www.w3.org/2000/svg" xmlns:xlink="http://www.w3.org/1999/xlink" x="0" y="0" width="20" height="20" viewBox="0 0 20 20">
    <path d="M14,4 C10.686,4 8,6.686 8,10 C8,13.314 10.686,16 14,16 C17.314,16 20,13.314 20,10 C20,6.686 17.314,4 14,4 z M13,6 L15,6 L15,9 L18,9 L18,11 L15,11 L15,14 L13,14 L13,11 L10,11 L10,9 L13,9 L13,6 z M5,9 L5,11 L7,11 L7,9 L5,9 z" fill="currentColor"/>
    <path d="M2,8 C0.895,8 -0,8.895 -0,10 C-0,11.105 0.895,12 2,12 C3.105,12 4,11.105 4,10 C4,8.895 3.105,8 2,8 z" fill="inherit"/>
</svg>
