<?xml version="1.0" encoding="UTF-8"?>
<!DOCTYPE svg PUBLIC "-//W3C//DTD SVG 1.1//EN" "http://www.w3.org/Graphics/SVG/1.1/DTD/svg11.dtd">
<svg version="1.1" xmlns="http://www.w3.org/2000/svg" xmlns:xlink="http://www.w3.org/1999/xlink" x="0" y="0" width="20" height="20" viewBox="0 0 20 20">
    <path d="M7,15 L13,15 L13,17 L7,17 z M3,13 L5,13 L5,7 L3,7 z M15,13 L17,13 L17,7 L15,7 z M7,5 L13,5 L13,3 L7,3 z" fill="currentColor"/>
    <path d="M4,2 C2.895,2 2,2.895 2,4 C2,5.105 2.895,6 4,6 C5.105,6 6,5.105 6,4 C6,2.895 5.105,2 4,2 z M4,14 C5.105,14 6,14.895 6,16 C6,17.105 5.105,18 4,18 C2.895,18 2,17.105 2,16 C2,14.895 2.895,14 4,14 z M16,14 C17.105,14 18,14.895 18,16 C18,17.105 17.105,18 16,18 C14.895,18 14,17.105 14,16 C14,14.895 14.895,14 16,14 z M16,2 C17.105,2 18,2.895 18,4 C18,5.105 17.105,6 16,6 C14.895,6 14,5.105 14,4 C14,2.895 14.895,2 16,2 z" fill="inherit"/>
</svg>
