<?xml version="1.0" encoding="UTF-8"?>
<!DOCTYPE svg PUBLIC "-//W3C//DTD SVG 1.1//EN" "http://www.w3.org/Graphics/SVG/1.1/DTD/svg11.dtd">
<svg version="1.1" xmlns="http://www.w3.org/2000/svg" xmlns:xlink="http://www.w3.org/1999/xlink" x="0" y="0" width="20" height="20" viewBox="0 0 20 20">
    <path d="M5,9 L7,9 L7,11 L5,11 z M13,11 L15,11 L15,9 L13,9 z" fill="currentColor"/>
    <path d="M2,8 C0.895,8 -0,8.895 -0,10 C-0,11.105 0.895,12 2,12 C3.105,12 4,11.105 4,10 C4,8.895 3.105,8 2,8 z M10,8 C11.105,8 12,8.895 12,10 C12,11.105 11.105,12 10,12 C8.895,12 8,11.105 8,10 C8,8.895 8.895,8 10,8 z M18,8 C19.105,8 20,8.895 20,10 C20,11.105 19.105,12 18,12 C16.895,12 16,11.105 16,10 C16,8.895 16.895,8 18,8 z" fill="inherit"/>
</svg>
