<?xml version="1.0" encoding="UTF-8"?>
<!DOCTYPE svg PUBLIC "-//W3C//DTD SVG 1.1//EN" "http://www.w3.org/Graphics/SVG/1.1/DTD/svg11.dtd">
<svg version="1.1" xmlns="http://www.w3.org/2000/svg" xmlns:xlink="http://www.w3.org/1999/xlink" x="0" y="0" width="20" height="20" viewBox="0 0 20 20">
    <path d="M16.143,8.488 C16.379,8.488 16.581,8.572 16.749,8.738 C16.916,8.905 17,9.107 17,9.343 L17,10.657 C17,10.895 16.916,11.095 16.749,11.262 C16.581,11.43 16.379,11.513 16.143,11.513 L11.513,11.513 L11.513,16.126 C11.513,16.376 11.429,16.583 11.263,16.749 C11.096,16.916 10.892,17 10.656,17 L9.344,17 C9.108,17 8.904,16.916 8.737,16.749 C8.569,16.583 8.487,16.381 8.487,16.143 L8.487,11.513 L3.876,11.513 C3.626,11.513 3.417,11.434 3.251,11.272 C3.084,11.112 3,10.906 3,10.657 L3,9.343 C3,9.107 3.084,8.905 3.251,8.738 C3.417,8.572 3.619,8.488 3.857,8.488 L8.487,8.488 L8.487,3.876 C8.487,3.626 8.567,3.419 8.727,3.251 C8.889,3.086 9.095,3 9.344,3 L10.656,3 C10.892,3 11.096,3.086 11.263,3.251 C11.429,3.419 11.513,3.621 11.513,3.857 L11.513,8.488 z" fill="inherit"/>
</svg>
