<?xml version="1.0" encoding="UTF-8"?>
<!DOCTYPE svg PUBLIC "-//W3C//DTD SVG 1.1//EN" "http://www.w3.org/Graphics/SVG/1.1/DTD/svg11.dtd">
<svg version="1.1" xmlns="http://www.w3.org/2000/svg" xmlns:xlink="http://www.w3.org/1999/xlink" x="0" y="0" width="20" height="20" viewBox="0 0 20 20">
    <path d="M9,7.5 L9,11 L8,11 L7,12 L10,15 L13,12 L12,11 L11,11 L11,9.5 C9.3,8.65 9,7.5 9,7.5 z" fill="currentColor"/>
    <path d="M8,2 C6.667,2 5.781,2.781 5.281,3.281 C4.781,3.781 4.667,4 4,4 L3,4 L3,6 L4,6 C5.333,6 6.219,5.219 6.719,4.719 C7.219,4.219 7.333,4 8,4 C8.167,4 8.206,4.009 8.406,4.25 C8.607,4.491 8.844,4.938 9.094,5.438 C9.344,5.938 9.607,6.491 10.031,7 C10.456,7.509 11.167,8 12,8 C13.333,8 14.219,7.219 14.719,6.719 C15.219,6.219 15.333,6 16,6 L17,6 L17,4 L16,4 C14.667,4 13.781,4.781 13.281,5.281 C12.781,5.781 12.667,6 12,6 C11.833,6 11.794,5.991 11.594,5.75 C11.393,5.509 11.156,5.062 10.906,4.562 C10.656,4.062 10.393,3.509 9.969,3 C9.544,2.491 8.833,2 8,2 z M3,16 L17,16 L17,18 L3,18 L3,16 z" fill="inherit"/>
</svg>
