<?xml version="1.0" encoding="UTF-8"?>
<!DOCTYPE svg PUBLIC "-//W3C//DTD SVG 1.1//EN" "http://www.w3.org/Graphics/SVG/1.1/DTD/svg11.dtd">
<svg version="1.1" xmlns="http://www.w3.org/2000/svg" xmlns:xlink="http://www.w3.org/1999/xlink" x="0" y="0" width="20" height="20" viewBox="0 0 20 20">
    <path d="M10,1 L7,4 L8,5 L9,5 L9,7 L11,7 L11,5 L12,5 L13,4 L10,1 z M4,7 L5,8 L5,9 L7,9 L7,11 L5,11 L5,12 L4,13 L1,10 L4,7 z M16,7 L19,10 L16,13 L15,12 L15,11 L13,11 L13,9 L15,9 L15,8 L16,7 z M9,13 L11,13 L11,15 L12,15 L13,16 L10,19 L7,16 L8,15 L9,15 L9,13 z" fill="currentColor"/>
    <path d="M10,8 C8.895,8 8,8.895 8,10 C8,11.105 8.895,12 10,12 C11.105,12 12,11.105 12,10 C12,8.895 11.105,8 10,8 z" fill="inherit"/>
</svg>
