<?xml version="1.0" encoding="UTF-8"?>
<!DOCTYPE svg PUBLIC "-//W3C//DTD SVG 1.1//EN" "http://www.w3.org/Graphics/SVG/1.1/DTD/svg11.dtd">
<svg version="1.1" xmlns="http://www.w3.org/2000/svg" xmlns:xlink="http://www.w3.org/1999/xlink" x="0" y="0" width="20" height="20" viewBox="0 0 20 20">
    <path d="M12,11 C12.276,11 12.5,11.224 12.5,11.5 L12.5,12.5 L13.5,12.5 C13.776,12.5 14,12.724 14,13 C14,13.276 13.776,13.5 13.5,13.5 L12.5,13.5 L12.5,14.5 C12.5,14.776 12.276,15 12,15 C11.724,15 11.5,14.776 11.5,14.5 L11.5,13.5 L10.5,13.5 C10.224,13.5 10,13.276 10,13 C10,12.724 10.224,12.5 10.5,12.5 L11.5,12.5 L11.5,11.5 C11.5,11.224 11.724,11 12,11 z" fill="inherit"/>
    <path d="M16,8 C16.552,8 17,8.448 17,9 L17,17 C17,17.552 16.552,18 16,18 L8,18 C7.448,18 7,17.552 7,17 L7,9 C7,8.448 7.448,8 8,8 L16,8 z M15,10 L9,10 L9,16 L15,16 L15,10 z" fill="inherit"/>
    <path d="M8.5,1.5 C9.26,1.654 8.943,1.478 9.466,2 L12,2 C12.552,2 13,2.448 13,3 L13,7 L11,7 L11,4 L9.466,4 C8.943,4.523 9.26,4.347 8.5,4.5 L6.5,4.5 C5.74,4.347 6.057,4.523 5.534,4 L4,4 L4,14 L6,14 L6,16 L3,16 C2.448,16 2,15.552 2,15 L2,3 C2,2.448 2.448,2 3,2 L5.534,2 C6.057,1.477 5.74,1.654 6.5,1.5 L8.5,1.5 z" fill="inherit"/>
</svg>
