<?xml version="1.0" encoding="UTF-8"?>
<!DOCTYPE svg PUBLIC "-//W3C//DTD SVG 1.1//EN" "http://www.w3.org/Graphics/SVG/1.1/DTD/svg11.dtd">
<svg version="1.1" xmlns="http://www.w3.org/2000/svg" xmlns:xlink="http://www.w3.org/1999/xlink" x="0" y="0" width="20" height="20" viewBox="0 0 20 20">
    <path d="M10,1 L9,2 L9,3.062 C5.056,3.556 2,6.922 2,11 C2,15.418 5.582,19 10,19 C14.418,19 18,15.418 18,11 C18,8.533 16.881,6.341 15.125,4.875 L13.719,6.281 C15.114,7.38 16,9.086 16,11 C16,14.314 13.314,17 10,17 C6.686,17 4,14.314 4,11 C4,8.024 6.159,5.567 9,5.094 L9,6 L10,7 L13,4 L10,1 z" fill="currentColor"/>
    <path d="M10,9 C8.895,9 8,9.895 8,11 C8,12.105 8.895,13 10,13 C11.105,13 12,12.105 12,11 C12,9.895 11.105,9 10,9 z" fill="inherit"/>
</svg>
