<?xml version="1.0" encoding="UTF-8"?>
<!DOCTYPE svg PUBLIC "-//W3C//DTD SVG 1.1//EN" "http://www.w3.org/Graphics/SVG/1.1/DTD/svg11.dtd">
<svg version="1.1" xmlns="http://www.w3.org/2000/svg" xmlns:xlink="http://www.w3.org/1999/xlink" x="0" y="0" width="20" height="20" viewBox="0 0 20 20">
    <path d="M7.026,2.563 C5.697,3.094 4.582,3.982 3.714,5.094 C3.785,5.112 3.864,5.103 3.933,5.125 C4.453,5.294 4.874,5.615 5.214,6 C5.797,5.303 6.535,4.762 7.37,4.375 C7.142,3.953 6.995,3.478 6.995,2.969 C6.995,2.829 7.007,2.698 7.026,2.563 z M12.964,2.563 C12.983,2.698 12.995,2.829 12.995,2.969 C12.995,3.478 12.848,3.953 12.62,4.375 C13.455,4.762 14.193,5.303 14.776,6 C15.116,5.615 15.537,5.294 16.058,5.125 C16.125,5.103 16.204,5.086 16.276,5.063 C15.41,3.96 14.285,3.091 12.964,2.563 z M2.026,10.781 C2.159,12.135 2.645,13.396 3.37,14.469 C3.424,14.373 3.492,14.278 3.558,14.188 C3.856,13.777 4.248,13.465 4.683,13.25 C4.243,12.529 3.954,11.689 3.839,10.813 C3.275,10.977 2.654,10.975 2.058,10.781 C2.049,10.778 2.035,10.784 2.026,10.781 z M17.933,10.781 C17.336,10.975 16.715,10.977 16.151,10.812 C16.036,11.689 15.747,12.529 15.308,13.25 C15.746,13.454 16.129,13.769 16.433,14.188 C16.498,14.278 16.566,14.373 16.62,14.469 C17.345,13.396 17.831,12.135 17.964,10.781 C17.955,10.784 17.942,10.778 17.933,10.781 z M8.995,16.125 C8.965,16.683 8.781,17.239 8.433,17.719 C8.406,17.756 8.367,17.777 8.339,17.812 C8.879,17.928 9.421,18 9.995,18 C10.569,18 11.111,17.928 11.651,17.812 C11.623,17.777 11.585,17.756 11.558,17.719 C11.209,17.239 11.025,16.683 10.995,16.125 C10.666,16.179 10.34,16.219 9.995,16.219 C9.65,16.219 9.324,16.178 8.995,16.125 z" fill="currentColor"/>
    <path d="M9.995,0.956 C8.89,0.956 7.995,1.851 7.995,2.956 C7.995,4.061 8.89,4.956 9.995,4.956 C11.1,4.956 11.995,4.061 11.995,2.956 C11.995,1.851 11.1,0.956 9.995,0.956 z M2.839,5.956 C3.098,5.934 3.357,5.964 3.62,6.05 C4.671,6.391 5.243,7.53 4.901,8.581 C4.56,9.632 3.421,10.204 2.37,9.862 C1.32,9.521 0.747,8.382 1.089,7.331 C1.345,6.543 2.062,6.023 2.839,5.956 z M16.776,5.956 C17.701,5.852 18.603,6.412 18.901,7.331 C19.243,8.381 18.671,9.521 17.62,9.862 C16.57,10.204 15.43,9.631 15.089,8.581 C14.747,7.53 15.32,6.391 16.37,6.05 C16.501,6.007 16.644,5.971 16.776,5.956 z M6.058,13.956 C6.443,13.969 6.847,14.088 7.183,14.331 C8.076,14.98 8.269,16.25 7.62,17.143 C6.971,18.037 5.701,18.23 4.808,17.581 C3.914,16.932 3.721,15.662 4.37,14.768 C4.776,14.21 5.416,13.934 6.058,13.956 z M13.933,13.956 C14.574,13.934 15.214,14.21 15.62,14.768 C16.269,15.662 16.076,16.932 15.183,17.581 C14.289,18.23 13.019,18.037 12.37,17.143 C11.721,16.25 11.914,14.98 12.808,14.331 C13.143,14.088 13.548,13.969 13.933,13.956 z" fill="inherit"/>
</svg>
