<?xml version="1.0" encoding="UTF-8"?>
<!DOCTYPE svg PUBLIC "-//W3C//DTD SVG 1.1//EN" "http://www.w3.org/Graphics/SVG/1.1/DTD/svg11.dtd">
<svg version="1.1" xmlns="http://www.w3.org/2000/svg" xmlns:xlink="http://www.w3.org/1999/xlink" x="0" y="0" width="20" height="20" viewBox="0 0 20 20">
    <path d="M12.156,14.787 C12.156,14.878 12.191,14.954 12.258,15.015 C12.325,15.075 12.412,15.105 12.515,15.105 L12.875,15.105 C12.973,15.105 13.057,15.075 13.126,15.019 C13.197,14.961 13.234,14.884 13.234,14.787 L13.234,9.497 C13.234,9.405 13.197,9.324 13.126,9.26 C13.057,9.193 12.973,9.159 12.875,9.159 L12.515,9.159 C12.417,9.159 12.333,9.193 12.264,9.26 C12.193,9.324 12.156,9.405 12.156,9.497 z M10.537,9.497 C10.537,9.405 10.504,9.324 10.433,9.26 C10.36,9.193 10.276,9.159 10.18,9.159 L9.82,9.159 C9.722,9.159 9.64,9.193 9.576,9.26 C9.513,9.324 9.48,9.405 9.48,9.497 L9.48,14.787 C9.48,14.878 9.511,14.954 9.573,15.015 C9.634,15.075 9.715,15.105 9.82,15.105 L10.18,15.105 C10.276,15.105 10.36,15.075 10.433,15.019 C10.504,14.961 10.537,14.884 10.537,14.787 z M8.672,4.964 C9.555,4.951 10.445,4.951 11.348,4.964 C11.348,4.895 11.353,4.829 11.367,4.762 C11.378,4.695 11.378,4.632 11.367,4.575 L11.367,4.447 C11.152,4.389 10.923,4.357 10.685,4.352 C10.445,4.346 10.218,4.343 10.005,4.343 C9.778,4.343 9.548,4.346 9.311,4.352 C9.075,4.357 8.848,4.389 8.635,4.447 L8.635,4.575 C8.635,4.632 8.637,4.697 8.645,4.766 C8.651,4.836 8.66,4.901 8.672,4.964 M7.844,9.497 C7.844,9.405 7.807,9.324 7.738,9.26 C7.667,9.193 7.583,9.159 7.485,9.159 L7.127,9.159 C7.027,9.159 6.947,9.193 6.883,9.26 C6.818,9.324 6.785,9.405 6.785,9.497 L6.785,14.787 C6.785,14.878 6.818,14.954 6.883,15.015 C6.947,15.075 7.027,15.105 7.127,15.105 L7.485,15.105 C7.583,15.105 7.667,15.075 7.738,15.019 C7.807,14.961 7.844,14.884 7.844,14.787 z M10.005,8.185 C10.796,8.174 11.586,8.156 12.377,8.135 C13.167,8.111 13.958,8.056 14.751,7.962 L14.751,15.174 C14.751,15.535 14.615,15.848 14.346,16.108 C14.075,16.37 13.747,16.5 13.361,16.5 L6.639,16.5 C6.253,16.5 5.921,16.372 5.64,16.111 C5.362,15.856 5.224,15.543 5.224,15.174 L5.224,7.962 C5.977,8.056 6.726,8.115 7.467,8.144 C8.209,8.171 8.956,8.185 9.711,8.185 z M16,6.076 L16,6.67 C15.773,6.785 15.397,6.877 14.869,6.95 C14.342,7.022 13.774,7.076 13.163,7.112 C12.554,7.152 11.96,7.174 11.384,7.177 C10.808,7.183 10.349,7.186 10.005,7.186 C9.667,7.186 9.208,7.183 8.626,7.177 C8.042,7.174 7.446,7.152 6.835,7.112 C6.226,7.076 5.662,7.022 5.141,6.954 C4.619,6.884 4.246,6.79 4.019,6.67 C4.006,6.578 4,6.479 4,6.371 L4,6.076 L4,5.764 C4,5.662 4.006,5.557 4.019,5.453 C4.171,5.376 4.39,5.305 4.672,5.251 C4.953,5.198 5.252,5.153 5.571,5.118 C5.89,5.084 6.205,5.059 6.514,5.041 C6.826,5.025 7.066,5.009 7.237,4.998 C7.187,4.528 7.223,4.161 7.342,3.894 C7.463,3.632 7.644,3.434 7.89,3.306 C8.134,3.176 8.435,3.092 8.795,3.054 C9.154,3.018 9.555,3 10.005,3 C10.343,3 10.677,3.007 11.011,3.025 C11.346,3.043 11.643,3.103 11.908,3.2 C12.172,3.302 12.381,3.459 12.538,3.671 C12.694,3.884 12.773,4.184 12.773,4.575 L12.773,4.782 C12.773,4.852 12.765,4.924 12.756,4.998 C12.932,5.009 13.174,5.025 13.48,5.041 C13.787,5.059 14.102,5.084 14.425,5.118 C14.746,5.153 15.051,5.198 15.337,5.251 C15.627,5.305 15.848,5.376 16,5.453 z" fill="inherit"/>
</svg>
