<svg xmlns="http://www.w3.org/2000/svg" width="400" height="400" viewBox="0 0 400 400" version="1.1"><title>turn-left</title><desc>Created with Sketch.</desc><g stroke="none" stroke-width="1" fill="none" fill-rule="evenodd"><g transform="translate(31.000000, 29.000000)"><g transform="translate(38.753425, 20.216749)"/><path d="M305 271.7C273.9 313.2 223.9 339.6 168.1 338.6 75.5 337 1.8 260.6 3.4 168.1 5 75.5 81.4 1.8 173.9 3.4 266.5 5 340.3 81.4 338.6 173.9 338.4 188.8 336.2 203.3 332.3 216.9 325.1 209.3 317.4 202.2 309.4 195.8 294.8 183.9 279.3 174.3 262.9 166.7L261.8 229.8C266.2 232.6 270.4 235.7 274.4 238.9 282.4 245.4 295.3 259.8 305 271.7L305 271.7 305 271.7ZM285.7 249.6C260.1 286.8 217 310.8 168.6 310 91.8 308.6 30.7 245.3 32 168.6 33.4 91.8 96.7 30.7 173.4 32 250.2 33.4 311.3 96.7 310 173.4 309.9 180.6 309.2 187.7 308 194.6 293.8 183.3 278.8 174 262.9 166.7L261.8 229.8C266.2 232.6 270.4 235.7 274.4 238.9 277.6 241.5 281.5 245.3 285.7 249.6L285.7 249.6 285.7 249.6Z" fill="#FFFFFF"/><g transform="translate(111.205479, 69.073892)"><g transform="translate(128.897260, 105.295567) rotate(-90.000000) translate(-128.897260, -105.295567) translate(23.589041, -23.586207)"/></g><path d="M219 246.6C221.9 249.5 221.9 254.2 219 257.1L203.3 272.8C200.4 275.6 195.8 275.7 192.9 272.8L98.6 178.6C97.9 177.8 97.3 176.8 96.9 175.9 95.4 173.1 95.8 169.5 98.2 167.1L192.4 72.9C195.3 70 200 70 202.9 72.9L218.6 88.6C221.5 91.5 221.5 96.2 218.6 99.1L163.6 154.1C168.7 153.8 190.2 151.8 217.9 158.6 245 165.2 271.9 177.6 296.9 197.1 317.1 212.9 335.3 232.8 351.1 257.1 352.6 259.5 353.4 265.5 350.3 267.4 344.8 270.7 336.2 276 331 279.1 329.1 280.3 324.4 281.2 320.9 275.7 317.4 270.1 292 238.2 275.1 225 254.2 208.7 231.6 199.4 209.6 193 183.1 185.2 161.7 187.2 161.7 187.2L219 246.6 219 246.6Z" fill="#FFFFFF"/></g></g></svg>