<?xml version="1.0" encoding="UTF-8"?>
<!DOCTYPE svg PUBLIC "-//W3C//DTD SVG 1.1//EN" "http://www.w3.org/Graphics/SVG/1.1/DTD/svg11.dtd">
<svg version="1.1" xmlns="http://www.w3.org/2000/svg" xmlns:xlink="http://www.w3.org/1999/xlink" x="0" y="0" width="20" height="20" viewBox="0 0 20 20">
  <path d="M17.42 5C17.74 5 18 5.26 18 5.58C18 5.86 18 6.14 18 6.43C18 6.74 17.74 7 17.42 7C15.54 7 10.46 7 8.57 7C8.26 7 8 6.74 8 6.43C8 6.14 8 5.86 8 5.58C8 5.26 8.26 5 8.57 5C10.46 5 15.54 5 17.42 5Z" id="a1IaMBujP0" fill="currentColor"/>
  <path d="M17.31 10C17.69 10 18 10.31 18 10.69C18 10.95 18 11.05 18 11.31C18 11.69 17.69 12 17.31 12C15.05 12 8.95 12 6.69 12C6.31 12 6 11.69 6 11.31C6 11.05 6 10.95 6 10.69C6 10.31 6.31 10 6.69 10C8.95 10 15.05 10 17.31 10Z" id="b1pa8rBlN" fill="currentColor"/>
  <path d="M4.3 11C4.3 11.76 3.68 12.38 2.92 12.38C2.16 12.38 1.55 11.76 1.55 11C1.55 10.24 2.16 9.63 2.92 9.63C3.68 9.63 4.3 10.24 4.3 11Z" id="d7xjT4baDy" fill="currentColor"/>
  <path d="M3.91 7.26L3.91 7.26L2.97 8.25L1.24 6.42L2.17 5.43L2.97 6.27L5.36 3.75L6.3 4.74L3.91 7.26Z" fill="currentColor"/>
  <path d="M17.31 15C17.69 15 18 15.31 18 15.69C18 15.96 18 16.05 18 16.31C18 16.69 17.69 17 17.31 17C15.05 17 8.95 17 6.69 17C6.31 17 6 16.69 6 16.31C6 16.05 6 15.96 6 15.69C6 15.31 6.31 15 6.69 15C8.95 15 15.05 15 17.31 15Z" fill="currentColor"/>
  <path d="M4.3 16C4.3 16.76 3.68 17.38 2.92 17.38C2.16 17.38 1.55 16.76 1.55 16C1.55 15.24 2.16 14.63 2.92 14.63C3.68 14.63 4.3 15.24 4.3 16Z" fill="currentColor"/>
</svg>