<?xml version="1.0" encoding="UTF-8"?>
<svg width="20px" height="20px" viewBox="0 0 20 20" version="1.1" xmlns="http://www.w3.org/2000/svg" xmlns:xlink="http://www.w3.org/1999/xlink">
    <path d="M2,2 L2,5 C2,5.55228475 1.55228475,6 1,6 C0.44771525,6 6.76353751e-17,5.55228475 0,5 L0,0 L5,0 C5.55228475,-1.01453063e-16 6,0.44771525 6,1 C6,1.55228475 5.55228475,2 5,2 L2,2 Z M2,18 L5,18 C5.55228475,18 6,18.4477153 6,19 C6,19.5522847 5.55228475,20 5,20 L0,20 L0,15 C-6.76353751e-17,14.4477153 0.44771525,14 1,14 C1.55228475,14 2,14.4477153 2,15 L2,18 Z M20,0 L20,5 C20,5.55228475 19.5522847,6 19,6 C18.4477153,6 18,5.55228475 18,5 L18,2 L15,2 C14.4477153,2 14,1.55228475 14,1 C14,0.44771525 14.4477153,1.01453063e-16 15,0 L20,0 Z M18,18 L18,15 C18,14.4477153 18.4477153,14 19,14 C19.5522847,14 20,14.4477153 20,15 L20,20 L15,20 C14.4477153,20 14,19.5522847 14,19 C14,18.4477153 14.4477153,18 15,18 L18,18 Z" fill="currentColor"></path>
    <path d="M10,16 C12.6666667,12.139426 14,9.47275933 14,8 C14,5.790861 12.209139,4 10,4 C7.790861,4 6,5.790861 6,8 C6,9.47275933 7.33333333,12.139426 10,16 Z" fill="inherit"></path>
</svg>
