<?xml version="1.0" encoding="UTF-8"?>
<svg width="20px" height="20px" viewBox="0 0 20 20" version="1.1" xmlns="http://www.w3.org/2000/svg" xmlns:xlink="http://www.w3.org/1999/xlink">
    <path d="M10.6879121,7.42604898 C10.2489814,6.19270935 10.5231466,4.76238732 11.5104076,3.77512627 C12.8772427,2.40829124 15.0933201,2.40829124 16.4601551,3.77512627 C16.6542987,3.96926984 16.8208663,4.1805469 16.9598581,4.4040902 L14.1066017,5.11740429 L14.1066017,7.11740429 L17.0920951,7.86377764 C16.9309697,8.17376943 16.720323,8.46470585 16.4601551,8.72487373 C15.4728941,9.71213479 14.042572,9.98629999 12.8092324,9.54736932 L7.9750032,14.3815985 C8.08186131,15.1334839 7.84611589,15.9246994 7.26776695,16.5030483 C6.29145622,17.4793591 4.70854378,17.4793591 3.73223305,16.5030483 C2.75592232,15.5267376 2.75592232,13.9438252 3.73223305,12.9675144 C4.31058199,12.3891655 5.10179747,12.1534201 5.85368286,12.2602782 L10.6879121,7.42604898 Z M6.20710678,15.4423882 C6.59763107,15.0518639 6.59763107,14.4186989 6.20710678,14.0281746 C5.81658249,13.6376503 5.18341751,13.6376503 4.79289322,14.0281746 C4.40236893,14.4186989 4.40236893,15.0518639 4.79289322,15.4423882 C5.18341751,15.8329124 5.81658249,15.8329124 6.20710678,15.4423882 Z" fill="currentColor"/>
</svg>
