<?xml version="1.0" encoding="UTF-8"?>
<!DOCTYPE svg PUBLIC "-//W3C//DTD SVG 1.1//EN" "http://www.w3.org/Graphics/SVG/1.1/DTD/svg11.dtd">
<svg version="1.1" xmlns="http://www.w3.org/2000/svg" xmlns:xlink="http://www.w3.org/1999/xlink" x="0" y="0" width="20" height="20" viewBox="0 0 20 20">
    <path d="M10.937,13.886 C10.937,13.798 10.912,13.725 10.861,13.666 C10.812,13.609 10.741,13.58 10.651,13.58 L9.351,13.58 C9.271,13.58 9.203,13.607 9.143,13.663 C9.083,13.718 9.054,13.793 9.054,13.886 L9.054,15.107 C9.054,15.195 9.083,15.266 9.143,15.318 C9.203,15.37 9.271,15.396 9.351,15.396 L10.651,15.396 C10.847,15.396 10.944,15.299 10.937,15.107 z M10.575,12.8 C10.653,12.8 10.722,12.77 10.782,12.713 C10.84,12.654 10.87,12.587 10.87,12.51 L10.997,7.257 C10.997,7.179 10.967,7.112 10.907,7.055 C10.849,6.996 10.78,6.968 10.7,6.968 L9.298,6.968 C9.21,6.968 9.135,6.996 9.083,7.055 C9.03,7.112 9.003,7.179 9.003,7.257 L9.106,12.51 C9.106,12.587 9.135,12.654 9.194,12.713 C9.252,12.77 9.321,12.8 9.4,12.8 z M9.991,3.5 C10.176,3.5 10.335,3.559 10.468,3.677 C10.602,3.798 10.713,3.93 10.803,4.081 L17.304,15.124 C17.362,15.212 17.408,15.306 17.444,15.408 C17.482,15.512 17.5,15.621 17.5,15.736 C17.5,16.008 17.392,16.204 17.179,16.321 C16.965,16.441 16.736,16.5 16.494,16.5 L3.504,16.5 C3.262,16.5 3.035,16.441 2.819,16.321 C2.606,16.204 2.5,16.008 2.5,15.736 C2.5,15.627 2.518,15.517 2.549,15.413 C2.585,15.308 2.632,15.212 2.694,15.124 L9.181,4.081 C9.271,3.93 9.381,3.798 9.513,3.677 C9.647,3.559 9.804,3.5 9.991,3.5" fill="currentColor"/>
</svg>
