<?xml version="1.0" encoding="UTF-8"?>
<!DOCTYPE svg PUBLIC "-//W3C//DTD SVG 1.1//EN" "http://www.w3.org/Graphics/SVG/1.1/DTD/svg11.dtd">
<svg version="1.1" xmlns="http://www.w3.org/2000/svg" xmlns:xlink="http://www.w3.org/1999/xlink" x="0" y="0" width="20" height="20" viewBox="0 0 20 20">
    <path d="M16.634,3.892 C17.028,4.316 17.122,5.17 16.634,5.657 C14.948,7.339 13.483,8.801 12.018,10.263 C16.487,14.724 15.445,13.683 16.634,14.87 C17.122,15.358 17.122,16.147 16.634,16.635 C16.146,17.122 15.354,17.122 14.866,16.635 C10.355,12.132 10.61,12.387 10.25,12.028 C5.781,16.488 6.544,15.726 5.634,16.634 C5.146,17.122 4.354,17.122 3.866,16.635 C3.378,16.147 3.378,15.358 3.866,14.87 C6.247,12.494 7.365,11.379 8.482,10.263 C5.95,7.737 4.908,6.697 3.866,5.657 C3.378,5.17 3.449,4.301 3.866,3.893 C4.283,3.484 5.157,3.469 5.634,3.892 C6.111,4.316 10.25,8.5 10.25,8.5 C10.25,8.5 14.329,4.477 14.866,3.892 C15.403,3.308 16.139,3.434 16.634,3.892 z" fill="currentColor"/>
</svg>
