<?xml version="1.0" encoding="UTF-8"?>
<!DOCTYPE svg PUBLIC "-//W3C//DTD SVG 1.1//EN" "http://www.w3.org/Graphics/SVG/1.1/DTD/svg11.dtd">
<svg version="1.1" xmlns="http://www.w3.org/2000/svg" xmlns:xlink="http://www.w3.org/1999/xlink" x="0" y="0" width="20" height="20" viewBox="0 0 20 20">
    <path d="M9,2 L8,3 L8,4.594 L3.594,9 L2,9 L1,10 L1,12 L2,13 L4,13 L5,12 L5,10.406 L9.406,6 L11,6 L12,5 L12,3 L11,2 z M11,13 L11,15 L12,16 L14,16 L15,15 L15,13 L14,12 L12,12 z M11,9 L12,10 L14,10 L15,9 L17,9 L18,10 L18,12 L17,13 L17,15 L18,16 L18,18 L17,19 L15,19 L14,18 L12,18 L11,19 L9,19 L8,18 L8,16 L9,15 L9,13 L8,12 L8,10 L9,9 z" fill="currentColor"/>
</svg>
