<?xml version="1.0" encoding="UTF-8"?>
<!DOCTYPE svg PUBLIC "-//W3C//DTD SVG 1.1//EN" "http://www.w3.org/Graphics/SVG/1.1/DTD/svg11.dtd">
<svg version="1.1" xmlns="http://www.w3.org/2000/svg" xmlns:xlink="http://www.w3.org/1999/xlink" x="0" y="0" width="20" height="20" viewBox="0 0 20 20">
    <path d="M10.13,3.582 C10.13,3.582 10.066,3.884 10.041,4.159 C10.016,4.433 9.971,5.136 10.033,5.496 C10.095,5.857 10.179,6.112 10.179,6.112 L4.932,6.112 C4.819,6.112 4.731,6.148 4.65,6.229 C4.565,6.314 4.53,6.4 4.53,6.516 L4.53,13.824 C4.53,13.94 4.565,14.026 4.648,14.108 C4.732,14.192 4.819,14.228 4.932,14.228 L13.454,14.228 C13.57,14.228 13.658,14.192 13.746,14.105 C13.83,14.023 13.867,13.937 13.866,13.824 L13.866,10.124 L14.668,10.73 C14.845,10.864 15.039,10.97 15.249,11.048 C15.465,11.126 15.684,11.169 15.911,11.175 L16.396,11.189 L16.396,13.824 C16.396,14.226 16.315,14.61 16.153,14.972 C15.995,15.318 15.784,15.626 15.52,15.89 C15.256,16.154 14.95,16.364 14.6,16.522 C14.244,16.679 13.861,16.758 13.454,16.758 L4.932,16.758 C4.533,16.758 4.149,16.68 3.786,16.522 C3.429,16.366 3.118,16.153 2.856,15.886 C2.6,15.623 2.393,15.317 2.236,14.965 C2.079,14.607 2,14.224 2,13.824 L2,6.516 C2,6.116 2.078,5.734 2.235,5.369 C2.391,5.012 2.599,4.704 2.86,4.442 C3.121,4.181 3.432,3.973 3.786,3.82 C4.147,3.661 4.531,3.582 4.932,3.582 L10.13,3.582 z M16.656,3.582 L12.091,3.582 C11.836,3.582 11.604,3.677 11.418,3.853 C11.214,4.054 11.116,4.307 11.142,4.582 L11.139,5.216 C11.14,5.476 11.23,5.712 11.408,5.894 C11.586,6.079 11.826,6.175 12.091,6.175 L13.018,6.175 L7.765,11.443 C7.584,11.611 7.485,11.856 7.489,12.127 C7.495,12.388 7.587,12.617 7.762,12.795 L8.389,13.43 C8.586,13.616 8.82,13.705 9.075,13.705 C9.334,13.705 9.569,13.613 9.749,13.433 L15.015,8.181 L15.015,9.101 C15.016,9.358 15.111,9.593 15.293,9.775 C15.475,9.957 15.712,10.051 15.974,10.051 L16.656,10.051 C16.873,10.075 17.121,9.982 17.316,9.793 C17.509,9.605 17.608,9.367 17.608,9.101 L17.608,4.534 C17.608,4.284 17.509,4.054 17.329,3.871 C17.15,3.685 16.915,3.582 16.656,3.582 z" fill="currentColor"/>
</svg>
