<?xml version="1.0" encoding="UTF-8"?>
<svg width="20px" height="20px" viewBox="0 0 20 20" version="1.1" xmlns="http://www.w3.org/2000/svg" xmlns:xlink="http://www.w3.org/1999/xlink">
    <path d="M15,4 L15,2 L20,5 L15,8 L15,6 L4,6 C2.8954305,6 2,6.8954305 2,8 L2,11 L-5.18822318e-10,12 L-5.18822318e-10,8 C-5.18823033e-10,5.790861 1.790861,4 4,4 L15,4 L15,4 Z M5,16 L5,18 L8.70414851e-14,15 L5,12 L5,14 L16,14 C17.1045695,14 18,13.1045695 18,12 L18,9 L20,8 L20,12 C20,14.209139 18.209139,16 16,16 L5,16 L5,16 Z" fill="currentColor"></path>
</svg>
