<?xml version="1.0" encoding="UTF-8"?>
<!DOCTYPE svg PUBLIC "-//W3C//DTD SVG 1.1//EN" "http://www.w3.org/Graphics/SVG/1.1/DTD/svg11.dtd">
<svg version="1.1" xmlns="http://www.w3.org/2000/svg" xmlns:xlink="http://www.w3.org/1999/xlink" x="0" y="0" width="20" height="20" viewBox="0 0 20 20">
    <path d="M9.357,10.404 L8.998,10.07 L8.587,10 C8.033,10.022 7.479,10.044 6.925,10.066 C6.006,10.103 5.087,10.14 4.167,10.177 C3.615,10.199 3.186,10.664 3.208,11.216 C3.23,11.768 3.695,12.197 4.247,12.175 C4.746,12.155 5.244,12.135 5.743,12.115 L2.366,15.232 C1.878,15.72 1.878,16.512 2.366,17 C2.854,17.488 3.646,17.488 4.134,17 L7.511,13.883 C7.491,14.381 7.471,14.88 7.451,15.379 C7.428,15.93 7.858,16.396 8.41,16.418 C8.962,16.44 9.427,16.01 9.449,15.458 C9.471,14.906 9.471,14.906 9.537,13.249 C9.604,11.592 9.604,11.592 9.626,11.039 C9.553,10.577 9.64,10.79 9.357,10.404 z M10.269,8.989 C9.986,8.603 10.073,8.816 10,8.354 C10.022,7.802 10.022,7.802 10.088,6.145 C10.155,4.487 10.155,4.487 10.177,3.935 C10.199,3.383 10.664,2.954 11.216,2.976 C11.768,2.998 12.197,3.463 12.175,4.015 C12.155,4.513 12.135,5.012 12.115,5.511 L15.232,2.366 C15.72,1.878 16.512,1.878 17,2.366 C17.488,2.854 17.488,3.646 17,4.134 L13.883,7.278 C14.382,7.258 14.88,7.238 15.379,7.218 C15.93,7.196 16.396,7.626 16.418,8.178 C16.44,8.729 16.01,9.195 15.458,9.217 C14.539,9.253 13.62,9.29 12.701,9.327 C12.147,9.349 11.593,9.371 11.039,9.393 L10.627,9.323 L10.269,8.989 z" fill="currentColor"/>
</svg>
