<?xml version="1.0" encoding="UTF-8"?>
<!DOCTYPE svg PUBLIC "-//W3C//DTD SVG 1.1//EN" "http://www.w3.org/Graphics/SVG/1.1/DTD/svg11.dtd">
<svg version="1.1" xmlns="http://www.w3.org/2000/svg" xmlns:xlink="http://www.w3.org/1999/xlink" x="0" y="0" width="20" height="20" viewBox="0 0 20 20">
    <path d="M14.429,2.256 C14.679,2.252 14.86,2.384 14.862,2.648 C14.87,4.107 14.869,3.883 14.871,4.276 C16.969,3.979 17.535,3.899 17.572,3.892 C17.809,3.851 17.992,3.921 18.05,4.188 C18.191,4.927 18.214,5.047 18.222,5.086 C18.273,5.325 18.185,5.551 17.919,5.596 C15.827,5.957 15.355,6.039 14.884,6.12 L14.894,7.551 C16.886,7.548 18.558,8.404 19.412,10.225 L19.412,10.225 C20.19,12.356 19.055,15.029 16.68,16.665 C16.516,16.778 16.268,16.788 16.111,16.599 C16.051,16.527 15.645,16.03 15.539,15.9 C15.385,15.712 15.457,15.46 15.621,15.347 C16.843,14.432 18.544,12.274 17.705,10.624 C16.753,12.963 14.929,14.652 12.35,14.635 C10.916,14.46 9.988,13.436 9.988,11.907 C9.988,10.851 10.418,9.796 11.168,9.008 C11.707,8.418 12.425,8.053 13.172,7.803 L13.148,6.421 C11.119,6.771 11.119,6.771 10.744,6.836 C10.516,6.875 10.33,6.756 10.285,6.544 C10.125,5.635 10.1,5.493 10.094,5.464 C10.038,5.207 10.215,5.071 10.434,5.034 C12.293,4.713 12.705,4.641 13.118,4.57 C13.097,3.089 13.092,2.702 13.091,2.663 C13.086,2.426 13.255,2.274 13.485,2.271 C13.574,2.27 14.299,2.258 14.429,2.257 z M13.206,9.586 C12.078,10.203 11.757,11.26 11.761,11.907 C11.766,12.531 11.979,12.941 12.411,12.995 C13.049,13.002 12.764,13.039 13.27,12.926 L13.206,9.586 z M14.903,9.196 L14.871,12.073 C16.094,11.484 16.75,9.578 16.501,9.496 C16,9.281 15.611,9.222 14.903,9.196 z M5.301,7.603 L6.304,11.243 L4.297,11.243 L5.301,7.603 z M6.198,5.297 L4.403,5.297 C4.208,5.297 4.046,5.414 3.986,5.603 C1.182,14.459 0.775,15.742 0.769,15.763 C0.703,15.974 0.829,16.159 1.065,16.159 L2.66,16.159 C2.832,16.159 2.956,16.073 3.004,15.915 C3.604,13.938 3.741,13.489 3.877,13.039 L6.724,13.039 C7.477,15.516 7.592,15.895 7.598,15.916 C7.646,16.073 7.769,16.159 7.942,16.159 L9.537,16.159 C9.773,16.159 9.899,15.973 9.833,15.763 C9.816,15.711 6.957,6.682 6.615,5.603 L6.615,5.603 C6.405,5.305 6.545,5.407 6.198,5.297 z" fill="currentColor"/>
</svg>
