<?xml version="1.0" encoding="UTF-8"?>
<svg width="20px" height="20px" viewBox="0 0 20 20" version="1.1" xmlns="http://www.w3.org/2000/svg" xmlns:xlink="http://www.w3.org/1999/xlink">
    <path d="M2,2 L2,5 C2,5.55228475 1.55228475,6 1,6 C0.44771525,6 6.76353751e-17,5.55228475 0,5 L0,0 L5,0 C5.55228475,-1.01453063e-16 6,0.44771525 6,1 C6,1.55228475 5.55228475,2 5,2 L2,2 Z M2,18 L5,18 C5.55228475,18 6,18.4477153 6,19 C6,19.5522847 5.55228475,20 5,20 L0,20 L0,15 C-6.76353751e-17,14.4477153 0.44771525,14 1,14 C1.55228475,14 2,14.4477153 2,15 L2,18 Z M20,0 L20,5 C20,5.55228475 19.5522847,6 19,6 C18.4477153,6 18,5.55228475 18,5 L18,2 L15,2 C14.4477153,2 14,1.55228475 14,1 C14,0.44771525 14.4477153,1.01453063e-16 15,0 L20,0 Z M18,18 L18,15 C18,14.4477153 18.4477153,14 19,14 C19.5522847,14 20,14.4477153 20,15 L20,20 L15,20 C14.4477153,20 14,19.5522847 14,19 C14,18.4477153 14.4477153,18 15,18 L18,18 Z" fill="currentColor"></path>
    <path d="M9,4.20710678 L9,6 C12.7647431,6.04515396 16,7.39084128 16,11.1285282 C16,12.6371221 15.0723201,14.1316469 14.0468823,14.9130141 C13.7268901,15.1568553 13.2708431,14.85082 13.3888275,14.4555572 C14.4515777,10.8949995 12.6347587,10.0548035 9,10 L9,11.7928932 C9,12.0690356 8.77614237,12.2928932 8.5,12.2928932 C8.36739176,12.2928932 8.2402148,12.2402148 8.14644661,12.1464466 L4.35355339,8.35355339 C4.15829124,8.15829124 4.15829124,7.84170876 4.35355339,7.64644661 L8.14644661,3.85355339 C8.34170876,3.65829124 8.65829124,3.65829124 8.85355339,3.85355339 C8.94732158,3.94732158 9,4.07449854 9,4.20710678 Z" fill="inherit"></path>
</svg>
