<?xml version="1.0" encoding="UTF-8"?>
<!DOCTYPE svg PUBLIC "-//W3C//DTD SVG 1.1//EN" "http://www.w3.org/Graphics/SVG/1.1/DTD/svg11.dtd">
<svg version="1.1" xmlns="http://www.w3.org/2000/svg" xmlns:xlink="http://www.w3.org/1999/xlink" x="0" y="0" width="20" height="20" viewBox="0 0 20 20">
    <path d="M10.452,3 Q11.015,3 11.415,3.4 Q11.814,3.8 11.814,4.371 Q11.814,4.934 11.415,5.333 Q11.015,5.733 10.443,5.733 Q9.881,5.733 9.481,5.333 Q9.081,4.934 9.081,4.371 Q9.081,3.8 9.481,3.4 Q9.881,3 10.452,3 z M8,15.744 L8,15.015 Q8.993,14.979 9.147,14.892 C9.147,14.892 9.292,14.79 9.345,14.399 C9.525,13.391 9.556,11.062 9.362,9.416 C9.382,9.081 9.252,8.788 9.252,8.788 Q9.143,8.669 8.659,8.651 L8,8.625 L8,7.948 Q10.118,7.79 11.489,7.201 L11.709,7.377 Q11.586,9.056 11.586,12.264 Q11.586,14.118 11.647,14.505 Q11.691,14.777 11.81,14.856 Q11.929,14.936 12.966,15.015 L12.966,15.744 Q11.375,15.691 10.505,15.691 Q10.039,15.691 8,15.744 z" fill="currentColor"/>
</svg>
