<?xml version="1.0" encoding="UTF-8"?>
<!DOCTYPE svg PUBLIC "-//W3C//DTD SVG 1.1//EN" "http://www.w3.org/Graphics/SVG/1.1/DTD/svg11.dtd">
<svg version="1.1" xmlns="http://www.w3.org/2000/svg" xmlns:xlink="http://www.w3.org/1999/xlink" x="0" y="0" width="20" height="20" viewBox="0 0 20 20">
    <path d="M14.558,3 C13.21,3 12.116,4.093 12.116,5.442 C12.116,5.688 12.161,5.92 12.228,6.144 L6.144,12.228 C5.92,12.161 5.688,12.116 5.442,12.116 C4.093,12.116 3,13.21 3,14.558 C3,15.907 4.093,17 5.442,17 C6.79,17 7.884,15.907 7.884,14.558 C7.884,14.312 7.839,14.08 7.772,13.856 L13.856,7.772 C14.08,7.839 14.312,7.884 14.558,7.884 C15.907,7.884 17,6.79 17,5.442 C17,4.093 15.907,3 14.558,3 z M14.558,4.465 C15.098,4.465 15.535,4.902 15.535,5.442 C15.535,5.981 15.098,6.419 14.558,6.419 C14.019,6.419 13.581,5.981 13.581,5.442 C13.581,4.902 14.019,4.465 14.558,4.465 z M5.442,13.581 C5.981,13.581 6.419,14.019 6.419,14.558 C6.419,15.098 5.981,15.535 5.442,15.535 C4.902,15.535 4.465,15.098 4.465,14.558 C4.465,14.019 4.902,13.581 5.442,13.581 z" fill="currentColor"/>
</svg>
