<?xml version="1.0" encoding="UTF-8"?>
<!DOCTYPE svg PUBLIC "-//W3C//DTD SVG 1.1//EN" "http://www.w3.org/Graphics/SVG/1.1/DTD/svg11.dtd">
<svg version="1.1" xmlns="http://www.w3.org/2000/svg" xmlns:xlink="http://www.w3.org/1999/xlink" x="0" y="0" width="20" height="20" viewBox="0 0 20 20">
    <path d="M10,6 C10.453,5.984 10.695,6.093 10.949,6.336 C11.203,6.578 16.199,12.191 16.949,13.027 C17.398,13.528 17.338,14.283 16.813,14.712 C16.289,15.142 15.5,15.084 15.051,14.583 C11.367,10.474 10.683,9.763 10,9 C5.699,13.797 5.699,13.746 4.949,14.583 C4.5,15.084 3.711,15.142 3.187,14.712 C2.662,14.283 2.602,13.528 3.051,13.027 C8.301,7.172 8.766,6.656 9.051,6.336 C9.312,6.109 9.547,6.016 10,6 z" fill="currentColor"/>
</svg>
