<?xml version="1.0" encoding="UTF-8"?>
<svg width="20px" height="20px" viewBox="0 0 20 20" version="1.1" xmlns="http://www.w3.org/2000/svg" xmlns:xlink="http://www.w3.org/1999/xlink">
    <g transform="translate(1.500000, 1.500000)" fill="currentColor">
        <path d="M8.5,16.5 C4.081722,16.5 0.5,12.918278 0.5,8.5 C0.5,4.081722 4.081722,0.5 8.5,0.5 C12.918278,0.5 16.5,4.081722 16.5,8.5 C16.5,12.918278 12.918278,16.5 8.5,16.5 Z M10.5418959,12.0922852 C10.4699555,12.1261395 10.3535829,12.165283 10.1927748,12.2097168 C10.0319668,12.2541506 9.88808798,12.2763672 9.76113422,12.2763672 C9.49029953,12.2763672 9.29987175,12.231934 9.18984516,12.1430664 C9.07981857,12.0541988 9.0248061,11.8870455 9.0248061,11.6416016 C9.0248061,11.5442703 9.04173301,11.4003916 9.07558735,11.2099609 C9.10944168,11.0195303 9.14752724,10.8502612 9.18984516,10.7021484 L9.71035297,8.85498047 C9.76113448,8.68570879 9.79604624,8.49951273 9.8150893,8.29638672 C9.83413236,8.0932607 9.84365375,7.9514978 9.84365375,7.87109375 C9.84365375,7.48176889 9.70718051,7.16544718 9.43422993,6.92211914 C9.16127934,6.6787911 8.77301825,6.55712891 8.269435,6.55712891 C7.99013673,6.55712891 7.69391574,6.60685172 7.38076313,6.70629883 C7.06761052,6.80574594 6.73965156,6.92529227 6.39687641,7.06494141 L6.25722797,7.63623047 C6.35879098,7.59814434 6.48045317,7.55794292 6.62221821,7.515625 C6.76398324,7.47330708 6.90257235,7.45214844 7.03798969,7.45214844 C7.31305617,7.45214844 7.49925223,7.49869745 7.59658344,7.59179688 C7.69391466,7.6848963 7.74257953,7.84993371 7.74257953,8.08691406 C7.74257953,8.21809961 7.72671055,8.36303632 7.69497211,8.52172852 C7.66323367,8.68042072 7.62409018,8.84863192 7.57754047,9.02636719 L7.05703266,10.8798828 C7.01048295,11.0745452 6.97662912,11.249104 6.95547016,11.4035645 C6.9343112,11.5580249 6.92373188,11.7093092 6.92373188,11.8574219 C6.92373188,12.2382832 7.06443685,12.552489 7.34585102,12.8000488 C7.62726519,13.0476087 8.02187387,13.1713867 8.52968891,13.1713867 C8.85976869,13.1713867 9.14964209,13.1280115 9.39931782,13.0412598 C9.64899354,12.954508 9.9833001,12.8286141 10.4022475,12.6635742 L10.5418959,12.0922852 Z M10.6751967,4.34179688 C10.6751967,4.02018068 10.5535345,3.74511833 10.3102065,3.51660156 C10.0668784,3.28808479 9.77383125,3.17382812 9.4310561,3.17382812 C9.08828095,3.17382812 8.79417581,3.28808479 8.54873188,3.51660156 C8.30328794,3.74511833 8.18056782,4.02018068 8.18056782,4.34179688 C8.18056782,4.66341307 8.30328794,4.93741749 8.54873188,5.16381836 C8.79417581,5.39021923 9.08828095,5.50341797 9.4310561,5.50341797 C9.77383125,5.50341797 10.0668784,5.39021923 10.3102065,5.16381836 C10.5535345,4.93741749 10.6751967,4.66341307 10.6751967,4.34179688 Z"/>
    </g>
</svg>
