<?xml version="1.0" encoding="UTF-8"?>
<!DOCTYPE svg PUBLIC "-//W3C//DTD SVG 1.1//EN" "http://www.w3.org/Graphics/SVG/1.1/DTD/svg11.dtd">
<svg version="1.1" xmlns="http://www.w3.org/2000/svg" xmlns:xlink="http://www.w3.org/1999/xlink" x="0" y="0" width="20" height="20" viewBox="0 0 20 20">
    <path d="M16,8.606 C16.69,8.606 17.25,9.159 17.25,9.841 L17.25,15.766 C17.25,16.447 16.69,17 16,17 L4,17 C3.31,17 2.75,16.447 2.75,15.766 L2.75,9.841 C2.75,9.159 3.31,8.606 4,8.606 C4.69,8.606 5.25,9.159 5.25,9.841 L5.25,14.531 L14.75,14.531 L14.75,9.841 C14.75,9.159 15.31,8.606 16,8.606 z" fill="currentColor"/>
    <path d="M10.009,2.002 C10.4,1.971 10.697,2.251 10.697,2.251 C10.697,2.251 13.357,4.955 13.748,5.449 C14.088,5.878 14.098,6.469 13.692,6.837 C13.285,7.205 12.652,7.18 12.277,6.781 C11.938,6.421 11.599,6.061 11.26,5.701 L11.26,11.272 C11.26,11.95 10.7,12.5 10.009,12.5 C9.318,12.5 8.757,11.95 8.757,11.272 L8.757,5.701 C8.418,6.061 8.08,6.421 7.741,6.781 C7.366,7.18 6.732,7.205 6.326,6.837 C5.919,6.469 5.885,5.839 6.269,5.449 C6.849,4.862 9.336,2.251 9.336,2.251 C9.336,2.251 9.618,2.033 10.009,2.002 z" fill="currentColor"/>
</svg>
