<?xml version="1.0" encoding="UTF-8"?>
<!DOCTYPE svg PUBLIC "-//W3C//DTD SVG 1.1//EN" "http://www.w3.org/Graphics/SVG/1.1/DTD/svg11.dtd">
<svg version="1.1" xmlns="http://www.w3.org/2000/svg" xmlns:xlink="http://www.w3.org/1999/xlink" x="0" y="0" width="20" height="20" viewBox="0 0 20 20">
    <path d="M12.928,3.208 C13.182,3.433 15.772,5.833 16.178,6.208 C16.607,6.604 16.607,7.282 16.178,7.677 C14.553,9.177 13.335,10.302 12.928,10.677 C12.522,11.052 11.89,11.027 11.515,10.621 C11.141,10.215 11.166,9.582 11.572,9.208 C11.935,8.873 12.298,8.537 12.661,8.202 C11.359,8.219 10.953,8.219 9.586,8.433 C7.542,8.861 6.5,9.766 6.5,11.443 C6.5,13.413 7.591,14.285 9.876,14.584 C12.993,14.68 13.085,14.679 13.25,14.679 C13.94,14.679 14.5,15.238 14.5,15.929 C14.5,16.619 13.94,17.179 13.25,17.179 C11.28,17.206 10.488,17.186 9.552,17.063 C6.16,16.619 4,14.892 4,11.443 C4,8.367 5.999,6.629 9.074,5.986 C9.074,5.986 10.969,5.703 12.643,5.699 C12.31,5.35 11.922,5.037 11.572,4.677 C11.15,4.245 11.126,3.723 11.515,3.264 C11.821,2.904 12.62,2.935 12.928,3.208 z" fill="currentColor"/>
</svg>
