<?xml version="1.0" encoding="UTF-8"?>
<!DOCTYPE svg PUBLIC "-//W3C//DTD SVG 1.1//EN" "http://www.w3.org/Graphics/SVG/1.1/DTD/svg11.dtd">
<svg version="1.1" xmlns="http://www.w3.org/2000/svg" xmlns:xlink="http://www.w3.org/1999/xlink" x="0" y="0" width="20" height="20" viewBox="0 0 20 20">
    <path d="M10,2 C5.582,2 2,5.582 2,10 C2,14.418 5.582,18 10,18 C14.418,18 18,14.418 18,10 C18,5.582 14.418,2 10,2 z M10,4.065 C13.278,4.065 15.935,6.722 15.935,10 C15.935,11.267 15.531,12.439 14.855,13.403 L6.597,5.145 C7.561,4.469 8.733,4.065 10,4.065 z M5.145,6.597 L13.403,14.855 C12.439,15.531 11.267,15.935 10,15.935 C6.722,15.935 4.065,13.278 4.065,10 C4.065,8.733 4.469,7.561 5.145,6.597 z" fill="currentColor"/>
</svg>
