<?xml version="1.0" encoding="UTF-8"?>
<!DOCTYPE svg PUBLIC "-//W3C//DTD SVG 1.1//EN" "http://www.w3.org/Graphics/SVG/1.1/DTD/svg11.dtd">
<svg version="1.1" xmlns="http://www.w3.org/2000/svg" xmlns:xlink="http://www.w3.org/1999/xlink" x="0" y="0" width="20" height="20" viewBox="0 0 20 20">
    <path d="M10,14.999 C10.453,15.014 10.695,14.905 10.949,14.663 C11.203,14.42 16.199,8.808 16.949,7.971 C17.398,7.47 17.338,6.716 16.813,6.286 C16.289,5.857 15.5,5.915 15.051,6.416 C11.367,10.524 10.683,11.236 10,11.999 C5.699,7.202 5.699,7.252 4.949,6.416 C4.5,5.915 3.711,5.857 3.187,6.286 C2.662,6.716 2.602,7.47 3.051,7.971 C8.301,13.826 8.766,14.342 9.051,14.663 C9.312,14.889 9.547,14.983 10,14.999 z" fill="currentColor"/>
</svg>
