<?xml version="1.0" encoding="UTF-8"?>
<!DOCTYPE svg PUBLIC "-//W3C//DTD SVG 1.1//EN" "http://www.w3.org/Graphics/SVG/1.1/DTD/svg11.dtd">
<svg version="1.1" xmlns="http://www.w3.org/2000/svg" xmlns:xlink="http://www.w3.org/1999/xlink" x="0" y="0" width="20" height="20" viewBox="0 0 20 20">
    <path d="M6.5,6.5 L13.5,6.5 L13.5,13.5 L6.5,13.5 L6.5,6.5 z" fill="currentColor" fill-opacity="0.253"/>
    <path d="M5.5,3 C4.119,3 3,4.119 3,5.5 C3,6.458 3.543,7.288 4.333,7.708 L4.333,12.292 C3.543,12.712 3,13.542 3,14.5 C3,15.881 4.119,17 5.5,17 C6.458,17 7.288,16.457 7.708,15.667 L12.292,15.667 C12.712,16.457 13.542,17 14.5,17 C15.881,17 17,15.881 17,14.5 C17,13.542 16.457,12.712 15.667,12.292 L15.667,7.708 C16.457,7.288 17,6.458 17,5.5 C17,4.119 15.881,3 14.5,3 C13.531,3 12.696,3.558 12.281,4.365 L12.219,4.333 L7.708,4.333 C7.288,3.543 6.458,3 5.5,3 z M5.5,4.5 C6.052,4.5 6.5,4.948 6.5,5.5 C6.5,6.052 6.052,6.5 5.5,6.5 C4.948,6.5 4.5,6.052 4.5,5.5 C4.5,4.948 4.948,4.5 5.5,4.5 z M14.5,4.5 C15.052,4.5 15.5,4.948 15.5,5.5 C15.5,6.052 15.052,6.5 14.5,6.5 C13.948,6.5 13.5,6.052 13.5,5.5 C13.5,4.948 13.948,4.5 14.5,4.5 z M7.708,6.667 L12.292,6.667 C12.526,7.108 12.892,7.474 13.333,7.708 L13.333,12.292 C12.892,12.526 12.526,12.892 12.292,13.333 L7.708,13.333 C7.474,12.892 7.108,12.526 6.667,12.292 L6.667,7.708 C7.108,7.474 7.474,7.108 7.708,6.667 z M5.5,13.5 C6.052,13.5 6.5,13.948 6.5,14.5 C6.5,15.052 6.052,15.5 5.5,15.5 C4.948,15.5 4.5,15.052 4.5,14.5 C4.5,13.948 4.948,13.5 5.5,13.5 z M14.5,13.5 C15.052,13.5 15.5,13.948 15.5,14.5 C15.5,15.052 15.052,15.5 14.5,15.5 C13.948,15.5 13.5,15.052 13.5,14.5 C13.5,13.948 13.948,13.5 14.5,13.5 z" fill="currentColor"/>
</svg>
