<?xml version="1.0" encoding="UTF-8"?>
<svg width="98px" height="94px" viewBox="0 0 98 94" version="1.1" xmlns="http://www.w3.org/2000/svg" xmlns:xlink="http://www.w3.org/1999/xlink">
    <!-- Generator: Sketch 58 (84663) - https://sketch.com -->
    <title>Group 6</title>
    <desc>Created with Sketch.</desc>
    <defs>
        <polygon id="path-1" points="0 0.999 98 0.999 98 94.9997191 0 94.9997191"></polygon>
    </defs>
    <g id="Page-1" stroke="none" stroke-width="1" fill="none" fill-rule="evenodd">
        <g id="Desktop-HD" transform="translate(0.000000, -1.000000)">
            <g id="Group-6">
                <path d="M60.5898,36.0658 L44.1698,50.6858 L37.7498,43.5258 C36.1108,41.8228 33.4018,41.7718 31.6978,43.4108 C30.0808,44.9678 29.9418,47.5108 31.3798,49.2358 L43.4898,62.7458 L66.2698,42.4458 C67.9868,40.8218 68.0638,38.1128 66.4398,36.3958 C64.8838,34.7498 62.3158,34.6008 60.5798,36.0558 L60.5898,36.0658 Z" id="Fill-1" fill="currentColor"></path>
                <g id="Group-5" transform="translate(0.000000, 0.001400)">
                    <mask id="mask-2" fill="white">
                        <use xlink:href="#path-1"></use>
                    </mask>
                    <g id="Clip-4"></g>
                    <path d="M49,79.164 C31.78,79.164 17.82,65.205 17.82,47.984 C17.82,30.764 31.78,16.804 49,16.804 C66.221,16.804 80.18,30.764 80.18,47.984 C80.18,65.205 66.221,79.164 49,79.164 M91.55,34.154 C90.01,29.424 91.55,23.154 88.65,19.154 C85.75,15.154 79.27,14.664 75.29,11.774 C71.31,8.884 68.87,2.904 64.15,1.374 C59.58,-0.106 54.06,3.264 49,3.264 C43.94,3.264 38.42,-0.106 33.85,1.374 C29.13,2.904 26.65,8.984 22.71,11.794 C18.77,14.604 12.25,15.205 9.36,19.185 C6.47,23.164 8,29.435 6.45,34.154 C5,38.725 0,42.924 0,47.984 C0,53.044 5,57.244 6.45,61.814 C7.99,66.544 6.45,72.814 9.35,76.814 C12.25,80.814 18.73,81.305 22.71,84.194 C26.69,87.084 29.12,93.084 33.85,94.624 C38.41,96.104 43.94,92.734 49,92.734 C54.06,92.734 59.58,96.104 64.15,94.624 C68.88,93.084 71.36,87.064 75.29,84.194 C79.22,81.324 85.75,80.784 88.65,76.814 C91.55,72.845 90.02,66.564 91.55,61.814 C93,57.244 98,53.044 98,47.984 C98,42.924 93,38.725 91.55,34.154" id="Fill-3" fill="currentColor" mask="url(#mask-2)"></path>
                </g>
            </g>
        </g>
    </g>
</svg>
