<?xml version="1.0" encoding="UTF-8"?>
<!DOCTYPE svg PUBLIC "-//W3C//DTD SVG 1.1//EN" "http://www.w3.org/Graphics/SVG/1.1/DTD/svg11.dtd">
<svg version="1.1" xmlns="http://www.w3.org/2000/svg" xmlns:xlink="http://www.w3.org/1999/xlink" x="0" y="0" width="20" height="20" viewBox="0 0 20 20">
    <path d="M7.572,3.208 C7.318,3.433 4.728,5.833 4.322,6.208 C3.893,6.604 3.893,7.282 4.322,7.677 C5.947,9.177 7.165,10.302 7.572,10.677 C7.977,11.052 8.61,11.027 8.985,10.621 C9.359,10.215 9.334,9.582 8.928,9.208 C8.565,8.873 8.202,8.537 7.839,8.202 C9.141,8.219 9.547,8.219 10.914,8.433 C12.958,8.861 14,9.766 14,11.443 C14,13.413 12.909,14.285 10.624,14.584 C7.507,14.68 7.415,14.679 7.25,14.679 C6.56,14.679 6,15.238 6,15.929 C6,16.619 6.56,17.179 7.25,17.179 C9.22,17.206 10.011,17.186 10.948,17.063 C14.34,16.619 16.5,14.892 16.5,11.443 C16.5,8.367 14.501,6.629 11.426,5.986 C11.426,5.986 9.531,5.703 7.857,5.699 C8.19,5.35 8.578,5.037 8.928,4.677 C9.35,4.245 9.374,3.723 8.985,3.264 C8.679,2.904 7.88,2.935 7.572,3.208 z" fill="currentColor"/>
</svg>
