<?xml version="1.0" encoding="UTF-8"?>
<svg width="20px" height="20px" viewBox="0 0 20 20" version="1.1" xmlns="http://www.w3.org/2000/svg" xmlns:xlink="http://www.w3.org/1999/xlink">
    <circle stroke="currentColor" fill="transparent" cx="10" cy="10" r="7.5"/>
    <path d="M12.0418959,13.5922852 L11.9022475,14.1635742 C11.4833001,14.3286141 11.1489935,14.454508 10.8993178,14.5412598 C10.6496421,14.6280115 10.3597687,14.6713867 10.0296889,14.6713867 C9.52187387,14.6713867 9.12726519,14.5476087 8.84585102,14.3000488 C8.56443685,14.052489 8.42373188,13.7382832 8.42373188,13.3574219 C8.42373188,13.2093092 8.4343112,13.0580249 8.45547016,12.9035645 C8.47662912,12.749104 8.51048295,12.5745452 8.55703266,12.3798828 L9.07754047,10.5263672 C9.12409018,10.3486319 9.16323367,10.1804207 9.19497211,10.0217285 C9.22671055,9.86303632 9.24257953,9.71809961 9.24257953,9.58691406 C9.24257953,9.34993371 9.19391466,9.1848963 9.09658344,9.09179688 C8.99925223,8.99869745 8.81305617,8.95214844 8.53798969,8.95214844 C8.40257235,8.95214844 8.26398324,8.97330708 8.12221821,9.015625 C7.98045317,9.05794292 7.85879098,9.09814434 7.75722797,9.13623047 L7.89687641,8.56494141 C8.23965156,8.42529227 8.56761052,8.30574594 8.88076313,8.20629883 C9.19391574,8.10685172 9.49013673,8.05712891 9.769435,8.05712891 C10.2730183,8.05712891 10.6612793,8.1787911 10.9342299,8.42211914 C11.2071805,8.66544718 11.3436538,8.98176889 11.3436538,9.37109375 C11.3436538,9.4514978 11.3341324,9.5932607 11.3150893,9.79638672 C11.2960462,9.99951273 11.2611345,10.1857088 11.210353,10.3549805 L10.6898452,12.2021484 C10.6475272,12.3502612 10.6094417,12.5195303 10.5755873,12.7099609 C10.541733,12.9003916 10.5248061,13.0442703 10.5248061,13.1416016 C10.5248061,13.3870455 10.5798186,13.5541988 10.6898452,13.6430664 C10.7998718,13.731934 10.9902995,13.7763672 11.2611342,13.7763672 C11.388088,13.7763672 11.5319668,13.7541506 11.6927748,13.7097168 C11.8535829,13.665283 11.9699555,13.6261395 12.0418959,13.5922852 Z M12.1751967,5.84179688 C12.1751967,6.16341307 12.0535345,6.43741749 11.8102065,6.66381836 C11.5668784,6.89021923 11.2738312,7.00341797 10.9310561,7.00341797 C10.5882809,7.00341797 10.2941758,6.89021923 10.0487319,6.66381836 C9.80328794,6.43741749 9.68056782,6.16341307 9.68056782,5.84179688 C9.68056782,5.52018068 9.80328794,5.24511833 10.0487319,5.01660156 C10.2941758,4.78808479 10.5882809,4.67382812 10.9310561,4.67382812 C11.2738312,4.67382812 11.5668784,4.78808479 11.8102065,5.01660156 C12.0535345,5.24511833 12.1751967,5.52018068 12.1751967,5.84179688 Z" fill="currentColor"/>
</svg>
