<?xml version="1.0" encoding="UTF-8"?>
<!DOCTYPE svg PUBLIC "-//W3C//DTD SVG 1.1//EN" "http://www.w3.org/Graphics/SVG/1.1/DTD/svg11.dtd">
<svg version="1.1" xmlns="http://www.w3.org/2000/svg" xmlns:xlink="http://www.w3.org/1999/xlink" x="0" y="0" width="20" height="20" viewBox="0 0 20 20">
    <path d="M2.269,2.404 L2.627,2.07 L3.039,2 C3.593,2.022 4.147,2.044 4.701,2.066 C5.62,2.103 6.539,2.14 7.458,2.177 C8.01,2.199 8.44,2.664 8.418,3.216 C8.396,3.768 7.93,4.197 7.379,4.175 C6.88,4.155 6.382,4.135 5.883,4.115 L9,7.232 C9.488,7.72 9.488,8.512 9,9 C8.512,9.488 7.72,9.488 7.232,9 L4.115,5.883 C4.135,6.381 4.155,6.88 4.175,7.379 C4.197,7.93 3.768,8.396 3.216,8.418 C2.664,8.44 2.199,8.01 2.177,7.458 C2.155,6.906 2.155,6.906 2.088,5.249 C2.022,3.592 2.022,3.592 2,3.039 C2.073,2.577 1.986,2.79 2.269,2.404 z M17.991,2.404 C18.274,2.79 18.186,2.577 18.26,3.039 C18.238,3.592 18.238,3.592 18.171,5.249 C18.105,6.906 18.105,6.906 18.083,7.458 C18.061,8.01 17.596,8.44 17.044,8.418 C16.492,8.396 16.062,7.93 16.085,7.379 C16.104,6.88 16.124,6.381 16.144,5.883 L12.768,9 C12.28,9.488 11.488,9.488 11,9 C10.512,8.512 10.512,7.72 11,7.232 L14.377,4.115 C13.878,4.135 13.38,4.155 12.881,4.175 C12.329,4.197 11.864,3.768 11.842,3.216 C11.82,2.664 12.249,2.199 12.801,2.177 C13.72,2.14 14.64,2.103 15.559,2.066 C16.113,2.044 16.667,2.022 17.221,2 L17.632,2.07 L17.991,2.404 z M2.269,17.856 C1.986,17.469 2.073,17.682 2,17.22 C2.022,16.668 2.022,16.668 2.088,15.011 C2.155,13.353 2.155,13.353 2.177,12.801 C2.199,12.249 2.664,11.82 3.216,11.842 C3.768,11.864 4.197,12.329 4.175,12.881 C4.155,13.38 4.135,13.878 4.115,14.377 L7.232,11.232 C7.72,10.744 8.512,10.744 9,11.232 C9.488,11.72 9.488,12.512 9,13 L5.883,16.144 C6.382,16.124 6.88,16.104 7.379,16.084 C7.93,16.062 8.396,16.492 8.418,17.044 C8.44,17.596 8.01,18.061 7.458,18.083 C6.539,18.12 5.62,18.156 4.701,18.193 C4.147,18.215 3.593,18.237 3.039,18.26 L2.627,18.189 L2.269,17.856 z M17.991,17.856 C18.274,17.469 18.186,17.682 18.26,17.22 C18.238,16.668 18.238,16.668 18.171,15.011 C18.105,13.353 18.105,13.353 18.083,12.801 C18.061,12.249 17.596,11.82 17.044,11.842 C16.492,11.864 16.062,12.329 16.085,12.881 C16.104,13.38 16.124,13.878 16.144,14.377 L12.768,11 C12.28,10.512 11.488,10.512 11,11 C10.512,11.488 10.512,12.28 11,12.768 L14.377,16.144 C13.878,16.124 13.38,16.104 12.881,16.084 C12.329,16.062 11.864,16.492 11.842,17.044 C11.82,17.596 12.249,18.061 12.801,18.083 C13.72,18.12 14.64,18.156 15.559,18.193 C16.113,18.215 16.667,18.237 17.221,18.26 L17.632,18.189 L17.991,17.856 z" fill="currentColor"/>
</svg>
