<?xml version="1.0" encoding="UTF-8"?>
<!DOCTYPE svg PUBLIC "-//W3C//DTD SVG 1.1//EN" "http://www.w3.org/Graphics/SVG/1.1/DTD/svg11.dtd">
<svg version="1.1" xmlns="http://www.w3.org/2000/svg" xmlns:xlink="http://www.w3.org/1999/xlink" x="0" y="0" width="20" height="20" viewBox="0 0 20 20">
    <path d="M12.87,4 C13.973,4.079 13.561,3.887 14.199,4.353 C14.648,4.843 14.588,5.581 14.063,6.001 C9.766,9.444 8.968,10.083 8.171,10.722 C13.188,14.743 13.188,14.743 14.063,15.444 C14.588,15.864 14.648,16.602 14.199,17.092 C13.75,17.582 12.961,17.639 12.437,17.219 C6.312,12.311 6.312,12.311 5.437,11.61 C4.854,11.143 4.854,10.302 5.437,9.835 C11.562,4.927 11.562,4.927 12.437,4.226 L12.87,4 z" fill="currentColor"/>
</svg>
