<?xml version="1.0" encoding="UTF-8"?>
<!DOCTYPE svg PUBLIC "-//W3C//DTD SVG 1.1//EN" "http://www.w3.org/Graphics/SVG/1.1/DTD/svg11.dtd">
<svg version="1.1" xmlns="http://www.w3.org/2000/svg" xmlns:xlink="http://www.w3.org/1999/xlink" x="0" y="0" width="20" height="20" viewBox="0 0 20 20">
    <path d="M6,3 L6,4 L8,6.406 L8,8 L12,8 L12,6.406 L14,4 L14,3 L13,3 L11,5 L9,5 L7,3 L6,3 z M7,9 L6,10 L3,10 L2,11 L3,12 L6,12 L6,13 L4,14 L3,15 L3,16 L4,16 L6,15 L8,17 L12,17 L14,15 L16,16 L17,16 L17,15 L16,14 L14,13 L14,12 L17,12 L18,11 L17,10 L14,10 L13,9 L7,9 z" fill="currentColor"/>
</svg>
