<?xml version="1.0" encoding="UTF-8"?>
<!DOCTYPE svg PUBLIC "-//W3C//DTD SVG 1.1//EN" "http://www.w3.org/Graphics/SVG/1.1/DTD/svg11.dtd">
<svg version="1.1" xmlns="http://www.w3.org/2000/svg" xmlns:xlink="http://www.w3.org/1999/xlink" x="0" y="0" width="20" height="20" viewBox="0 0 20 20">
    <path d="M16,8.606 C16.69,8.606 17.25,9.159 17.25,9.841 L17.25,15.766 C17.25,16.447 16.69,17 16,17 L4,17 C3.31,17 2.75,16.447 2.75,15.766 L2.75,9.841 C2.75,9.159 3.31,8.606 4,8.606 C4.69,8.606 5.25,9.159 5.25,9.841 L5.25,14.531 L14.75,14.531 L14.75,9.841 C14.75,9.159 15.31,8.606 16,8.606 z" fill="currentColor"/>
    <path d="M10.009,12.498 C10.4,12.529 10.697,12.249 10.697,12.249 C10.697,12.249 13.357,9.545 13.748,9.051 C14.088,8.622 14.098,8.031 13.692,7.663 C13.285,7.295 12.652,7.32 12.277,7.719 C11.938,8.079 11.599,8.439 11.26,8.799 L11.26,3.228 C11.26,2.55 10.7,2 10.009,2 C9.318,2 8.757,2.55 8.757,3.228 L8.757,8.799 C8.418,8.439 8.08,8.079 7.741,7.719 C7.366,7.32 6.732,7.295 6.326,7.663 C5.919,8.031 5.885,8.661 6.269,9.051 C6.849,9.638 9.336,12.249 9.336,12.249 C9.336,12.249 9.618,12.467 10.009,12.498 z" fill="currentColor"/>
</svg>
