<?xml version="1.0" encoding="UTF-8"?>
<!DOCTYPE svg PUBLIC "-//W3C//DTD SVG 1.1//EN" "http://www.w3.org/Graphics/SVG/1.1/DTD/svg11.dtd">
<svg version="1.1" xmlns="http://www.w3.org/2000/svg" xmlns:xlink="http://www.w3.org/1999/xlink" x="0" y="0" width="20" height="20" viewBox="0 0 20 20">
    <path d="M8.66,2.75 C11.923,2.75 14.569,5.396 14.569,8.66 C14.377,10.568 14.435,10.39 13.611,11.843 L16.884,15.116 C17.372,15.604 17.372,16.396 16.884,16.884 C16.396,17.372 15.604,17.372 15.116,16.884 L11.843,13.611 C10.297,14.279 10.111,14.545 8.66,14.569 C5.6,14.621 2.75,11.923 2.75,8.66 C2.75,5.396 5.396,2.75 8.66,2.75 z M8.66,5.25 C6.777,5.25 5.25,6.777 5.25,8.66 C5.25,10.543 6.777,12.069 8.66,12.069 C10.543,12.069 12.069,10.543 12.069,8.66 C12.069,6.777 10.543,5.25 8.66,5.25 z" fill="currentColor"/>
</svg>
