<?xml version="1.0" encoding="UTF-8"?>
<!DOCTYPE svg PUBLIC "-//W3C//DTD SVG 1.1//EN" "http://www.w3.org/Graphics/SVG/1.1/DTD/svg11.dtd">
<svg version="1.1" xmlns="http://www.w3.org/2000/svg" xmlns:xlink="http://www.w3.org/1999/xlink" x="0" y="0" width="20" height="20" viewBox="0 0 20 20">
    <path d="M14.5,3 C15.881,3 17,4.119 17,5.5 C17,6.881 15.881,8 14.5,8 C13.489,7.97 12.651,7.429 12.26,6.5 L8.029,6.5 L12.027,10.248 C12.652,9.985 12.327,10.068 13,10 C14.381,10 15.5,11.119 15.5,12.5 C15.5,13.881 14.381,15 13,15 C11.619,15 10.5,13.881 10.5,12.5 C10.561,11.895 10.485,12.152 10.669,11.716 L6.5,7.808 L6.5,12.259 C7.49,12.593 7.903,13.534 8,14.5 C8,15.881 6.881,17 5.5,17 C4.119,17 3,15.881 3,14.5 C3.03,13.489 3.571,12.651 4.5,12.26 L4.5,7.74 C3.51,7.407 3.097,6.465 3,5.5 C3,4.119 4.119,3 5.5,3 C6.511,3.03 7.35,3.571 7.74,4.5 L12.26,4.5 C12.593,3.51 13.535,3.097 14.5,3 z M5.5,13.5 C4.948,13.5 4.5,13.948 4.5,14.5 C4.5,15.052 4.948,15.5 5.5,15.5 C6.052,15.5 6.5,15.052 6.5,14.5 C6.5,13.948 6.052,13.5 5.5,13.5 z M13,11.5 C12.448,11.5 12,11.948 12,12.5 C12,13.052 12.448,13.5 13,13.5 C13.552,13.5 14,13.052 14,12.5 C14,11.948 13.552,11.5 13,11.5 z M5.5,4.5 C4.948,4.5 4.5,4.948 4.5,5.5 C4.5,6.052 4.948,6.5 5.5,6.5 C6.052,6.5 6.5,6.052 6.5,5.5 C6.5,4.948 6.052,4.5 5.5,4.5 z M14.5,4.5 C13.948,4.5 13.5,4.948 13.5,5.5 C13.5,6.052 13.948,6.5 14.5,6.5 C15.052,6.5 15.5,6.052 15.5,5.5 C15.5,4.948 15.052,4.5 14.5,4.5 z" fill="currentColor"/>
</svg>
