<?xml version="1.0" encoding="UTF-8"?>
<!DOCTYPE svg PUBLIC "-//W3C//DTD SVG 1.1//EN" "http://www.w3.org/Graphics/SVG/1.1/DTD/svg11.dtd">
<svg version="1.1" xmlns="http://www.w3.org/2000/svg" xmlns:xlink="http://www.w3.org/1999/xlink" x="0" y="0" width="20" height="20" viewBox="0 0 20 20">
    <path d="M16,12 C14.895,12 14,11.105 14,10 C14,8.895 14.895,8 16,8 C17.105,8 18,8.895 18,10 C18,11.105 17.105,12 16,12 z M10,12 C11.105,12 12,11.105 12,10 C12,8.895 11.105,8 10,8 C8.895,8 8,8.895 8,10 C8,11.105 8.895,12 10,12 z M4,12 C5.105,12 6,11.105 6,10 C6,8.895 5.105,8 4,8 C2.895,8 2,8.895 2,10 C2,11.105 2.895,12 4,12 z" fill="currentColor"/>
</svg>
