<?xml version="1.0" encoding="UTF-8"?>
<!DOCTYPE svg PUBLIC "-//W3C//DTD SVG 1.1//EN" "http://www.w3.org/Graphics/SVG/1.1/DTD/svg11.dtd">
<svg version="1.1" xmlns="http://www.w3.org/2000/svg" xmlns:xlink="http://www.w3.org/1999/xlink" x="0" y="0" width="20" height="20" viewBox="0 0 20 20">
    <path d="M6.63,4 C5.527,4.079 5.939,3.887 5.301,4.353 C4.852,4.843 4.912,5.581 5.437,6.001 C9.734,9.444 10.532,10.083 11.329,10.722 C6.312,14.743 6.312,14.743 5.437,15.444 C4.912,15.864 4.852,16.602 5.301,17.092 C5.75,17.582 6.539,17.639 7.063,17.219 C13.188,12.311 13.188,12.311 14.063,11.61 C14.646,11.143 14.646,10.302 14.063,9.835 C7.938,4.927 7.938,4.927 7.063,4.226 L6.63,4 z" fill="currentColor"/>
</svg>
