<?xml version="1.0" encoding="UTF-8"?>
<!DOCTYPE svg PUBLIC "-//W3C//DTD SVG 1.1//EN" "http://www.w3.org/Graphics/SVG/1.1/DTD/svg11.dtd">
<svg version="1.1" xmlns="http://www.w3.org/2000/svg" xmlns:xlink="http://www.w3.org/1999/xlink" x="0" y="0" width="20" height="20" viewBox="0 0 20 20">
    <path d="M16.5,1 L17.5,2 L17.5,16 L16.5,17 L16.5,2 L5,2 L4.5,3 L15.5,3 L15.5,18 L14.5,19 L3,19 L3,3 L4,1 L16.5,1 z M10.4,13.844 L8.202,13.844 L8.202,16 L10.4,16 L10.4,13.844 z M9.35,5.766 Q8.58,5.766 7.957,6.025 Q7.334,6.284 6.893,6.746 Q6.452,7.208 6.207,7.838 Q5.962,8.468 5.948,9.224 L8.006,9.224 Q8.006,8.846 8.09,8.517 Q8.174,8.188 8.349,7.943 Q8.524,7.698 8.797,7.551 Q9.07,7.404 9.448,7.404 Q10.008,7.404 10.323,7.712 Q10.638,8.02 10.638,8.664 Q10.652,9.042 10.505,9.294 Q10.358,9.546 10.12,9.756 Q9.882,9.966 9.602,10.176 Q9.322,10.386 9.07,10.673 Q8.818,10.96 8.629,11.366 Q8.44,11.772 8.398,12.374 L8.398,13.004 L10.288,13.004 L10.288,12.472 Q10.344,12.052 10.561,11.772 Q10.778,11.492 11.058,11.275 Q11.338,11.058 11.653,10.841 Q11.968,10.624 12.227,10.316 Q12.486,10.008 12.661,9.574 Q12.836,9.14 12.836,8.468 Q12.836,8.062 12.661,7.593 Q12.486,7.124 12.08,6.718 Q11.674,6.312 11.009,6.039 Q10.344,5.766 9.35,5.766 z" fill="currentColor"/>
</svg>
