<?xml version="1.0" encoding="UTF-8"?>
<!DOCTYPE svg PUBLIC "-//W3C//DTD SVG 1.1//EN" "http://www.w3.org/Graphics/SVG/1.1/DTD/svg11.dtd">
<svg version="1.1" xmlns="http://www.w3.org/2000/svg" xmlns:xlink="http://www.w3.org/1999/xlink" x="0" y="0" width="200" height="80" viewBox="0 0 200 80">
    <path d="M0,0 L200,0 L200,80 L0,80 z" fill="#FFFFFF"/>
    <g id="img-waterway-river">
      <path d="M140,50 L180,50 L180,53 L140,53 z" fill="#60D4DE"/>
      <path d="M146.762,46 C146.762,46 146.226,44.154 146.417,43.25 C146.638,42.203 148.071,40.5 148.071,40.5 C148.071,40.5 149.505,38.797 149.726,37.75 C149.917,36.846 149.381,35 149.381,35 C149.381,35 148.845,33.154 149.036,32.25 C149.257,31.203 150.69,29.5 150.69,29.5 C150.69,29.5 152.124,27.797 152.345,26.75 C152.536,25.846 152,24 152,24 L168.5,24 C168.5,24 169.933,25.703 170.155,26.75 C170.346,27.654 169.81,29.5 169.81,29.5 C169.81,29.5 169.273,31.346 169.464,32.25 C169.686,33.297 171.119,35 171.119,35 C171.119,35 172.552,36.703 172.774,37.75 C172.965,38.654 172.429,40.5 172.429,40.5 C172.429,40.5 171.892,42.346 172.083,43.25 C172.305,44.297 173.738,46 173.738,46 z" fill="#60D4DE"/>
      <path d="M147.966,37.759 C147.752,38.559 147.145,39.092 146.612,38.949 C146.078,38.806 145.82,38.041 146.034,37.241 C146.248,36.441 146.855,35.908 147.388,36.051 C147.922,36.194 148.18,36.959 147.966,37.759 z" fill="#60D4DE" opacity="0.5"/>
      <path d="M149.799,27.75 C149.247,28.707 148.217,29.146 147.5,28.732 C146.783,28.318 146.649,27.207 147.201,26.25 C147.753,25.293 148.783,24.854 149.5,25.268 C150.217,25.682 150.351,26.793 149.799,27.75 z" fill="#60D4DE" opacity="0.5"/>
      <path d="M171.422,31.708 C171.637,32.508 172.243,33.041 172.776,32.898 C173.31,32.755 173.569,31.99 173.354,31.19 C173.14,30.39 172.533,29.857 172,30 C171.467,30.143 171.208,30.908 171.422,31.708 z" fill="#60D4DE" opacity="0.5"/>
      <path d="M174.299,42.75 C174.851,43.707 175.881,44.146 176.598,43.732 C177.316,43.318 177.449,42.207 176.897,41.25 C176.345,40.293 175.316,39.854 174.598,40.268 C173.881,40.682 173.747,41.793 174.299,42.75 z" fill="#60D4DE" opacity="0.5"/>
      <path d="M182,51.5 C182,52.881 180.881,54 179.5,54 C178.119,54 177,52.881 177,51.5 C177,50.119 178.119,49 179.5,49 C180.881,49 182,50.119 182,51.5 z" fill="#60D4DE"/>
      <path d="M181,51.5 C181,52.328 180.328,53 179.5,53 C178.672,53 178,52.328 178,51.5 C178,50.672 178.672,50 179.5,50 C180.328,50 181,50.672 181,51.5 z" fill="#FFFFFF"/>
      <path d="M143,51.5 C143,52.881 141.881,54 140.5,54 C139.119,54 138,52.881 138,51.5 C138,50.119 139.119,49 140.5,49 C141.881,49 143,50.119 143,51.5 z" fill="#60D4DE"/>
      <path d="M142,51.5 C142,52.328 141.328,53 140.5,53 C139.672,53 139,52.328 139,51.5 C139,50.672 139.672,50 140.5,50 C141.328,50 142,50.672 142,51.5 z" fill="#FFFFFF"/>
    </g>
    <g id="img-railway-rail">
      <path d="M93.5,23 L92,24 L91.531,26 L88.25,26 C87.696,26 87.384,26.463 87.25,27 L87,28 C86.866,28.537 87.446,29 88,29 L112,29 C112.554,29 113.134,28.537 113,28 L112.75,27 C112.616,26.463 112.304,26 111.75,26 L108.969,26 L108.5,24 L107,23 L106,24 L106.469,26 L94.031,26 L94.5,24 L93.5,23 z M91.5,27 C91.776,27 92,27.224 92,27.5 C92,27.776 91.776,28 91.5,28 C91.224,28 91,27.776 91,27.5 C91,27.224 91.224,27 91.5,27 z M108.5,27 C108.776,27 109,27.224 109,27.5 C109,27.776 108.776,28 108.5,28 C108.224,28 108,27.776 108,27.5 C108,27.224 108.224,27 108.5,27 z M90.562,30 L90.094,32 L87.25,32 C86.696,32 86.384,32.463 86.25,33 L86,34 C85.866,34.537 86.446,35 87,35 L113,35 C113.554,35 114.134,34.537 114,34 L113.75,33 C113.616,32.463 113.304,32 112.75,32 L110.406,32 L109.938,30 L107.438,30 L107.906,32 L92.594,32 L93.062,30 L90.562,30 z M90.5,33 C90.776,33 91,33.224 91,33.5 C91,33.776 90.776,34 90.5,34 C90.224,34 90,33.776 90,33.5 C90,33.224 90.224,33 90.5,33 z M109.5,33 C109.776,33 110,33.224 110,33.5 C110,33.776 109.776,34 109.5,34 C109.224,34 109,33.776 109,33.5 C109,33.224 109.224,33 109.5,33 z M89.156,36 L88.688,38 L86.25,38 C85.696,38 85.384,38.463 85.25,39 L85,40 C84.866,40.537 85.446,41 86,41 L114,41 C114.554,41 115.134,40.537 115,40 L114.75,39 C114.616,38.463 114.304,38 113.75,38 L111.812,38 L111.344,36 L108.844,36 L109.312,38 L91.188,38 L91.656,36 L89.156,36 z M89.5,39 C89.776,39 90,39.224 90,39.5 C90,39.776 89.776,40 89.5,40 C89.224,40 89,39.776 89,39.5 C89,39.224 89.224,39 89.5,39 z M110.5,39 C110.776,39 111,39.224 111,39.5 C111,39.776 110.776,40 110.5,40 C110.224,40 110,39.776 110,39.5 C110,39.224 110.224,39 110.5,39 z M87.719,42 L87,45 L88.5,46 L89.5,45 L90.219,42 L87.719,42 z M110.281,42 L111,45 L112,46 L113.5,45 L112.781,42 L110.281,42 z" fill="#A9A9A9"/>
      <g>
        <path d="M80,50 L120,50 L120,53 L80,53 z" fill="#A9A9A9"/>
        <path d="M114,51 L119,51 L119,52 L114,52 z" fill="#FFFFFF"/>
        <path d="M103,51 L108,51 L108,52 L103,52 z" fill="#FFFFFF"/>
        <path d="M92,51 L97,51 L97,52 L92,52 z" fill="#FFFFFF"/>
        <path d="M81,51 L86,51 L86,52 L81,52 z" fill="#FFFFFF"/>
      </g>
      <path d="M122,51.5 C122,52.881 120.881,54 119.5,54 C118.119,54 117,52.881 117,51.5 C117,50.119 118.119,49 119.5,49 C120.881,49 122,50.119 122,51.5 z" fill="#A9A9A9"/>
      <path d="M121,51.5 C121,52.328 120.328,53 119.5,53 C118.672,53 118,52.328 118,51.5 C118,50.672 118.672,50 119.5,50 C120.328,50 121,50.672 121,51.5 z" fill="#FFFFFF"/>
      <path d="M83,51.5 C83,52.881 81.881,54 80.5,54 C79.119,54 78,52.881 78,51.5 C78,50.119 79.119,49 80.5,49 C81.881,49 83,50.119 83,51.5 z" fill="#A9A9A9"/>
      <path d="M82,51.5 C82,52.328 81.328,53 80.5,53 C79.672,53 79,52.328 79,51.5 C79,50.672 79.672,50 80.5,50 C81.328,50 82,50.672 82,51.5 z" fill="#FFFFFF"/>
    </g>
    <g id="img-highway-unclassified">
      <path d="M32.5,25 L29.625,31 L28,31 L27,32 L27,34 L28.406,34 L28,35 L28,40 L28,41 L28,41 C28,41 28.608,41.608 29,42 L30,42 L34,42 L36,43 L44,43 L46,42 L50,42 L51,42 L52,41 L52,41 L52,40 L52,35 L51.594,34 L53,34 L53,32 L52,31 L50.375,31 L47.5,25 z M33.5,28 L46.5,28 L48,32 L47,33 L33,33 L32,32 z M31,36 L34,36 L35,38 L35,39 L31,39 L30,38 L30,37 z M46,36 L49,36 L50,37 L50,38 L49,39 L45,39 L45,38 z M29,43 L29,45 L30,46 L33,46 L34,45 L34,43 z M46,43 L46,45 L47,46 L50,46 L51,45 L51,43 z" fill="#A9A9A9"/>
      <path d="M21,51 L59,51 L59,52 L21,52 z" fill="#7092FF"/>
      <g>
        <path d="M20.5,50 C19.119,50 18,51.119 18,52.5 C18,53.881 19.119,55 20.5,55 L59.5,55 C60.881,55 62,53.881 62,52.5 C62,51.119 60.881,50 59.5,50 z" fill="#A9A9A9"/>
        <path d="M22.5,51 C22.81,51.416 23,51.941 23,52.5 C23,53.059 22.81,53.584 22.5,54 L57.5,54 C57.19,53.584 57,53.059 57,52.5 C57,51.941 57.19,51.416 57.5,51 L22.5,51 z" fill="#FFFFFF"/>
        <path d="M22,52.5 C22,53.328 21.328,54 20.5,54 C19.672,54 19,53.328 19,52.5 C19,51.672 19.672,51 20.5,51 C21.328,51 22,51.672 22,52.5 z" fill="#FFFFFF"/>
        <path d="M61,52.5 C61,53.328 60.328,54 59.5,54 C58.672,54 58,53.328 58,52.5 C58,51.672 58.672,51 59.5,51 C60.328,51 61,51.672 61,52.5 z" fill="#FFFFFF"/>
      </g>
    </g>
</svg>
