<?xml version="1.0" encoding="UTF-8"?>
<!DOCTYPE svg PUBLIC "-//W3C//DTD SVG 1.1//EN" "http://www.w3.org/Graphics/SVG/1.1/DTD/svg11.dtd">
<svg version="1.1" xmlns="http://www.w3.org/2000/svg" xmlns:xlink="http://www.w3.org/1999/xlink" x="0" y="0" width="200" height="80" viewBox="0 0 200 80">
    <path d="M0,0 L200,0 L200,80 L0,80 z" fill="#FFFFFF"/>
    <g>
      <path d="M20,58.544 L44.051,68.671 L44.051,47.152 L20,37.025 z" fill="#E16E5F"/>
      <path d="M70,57.911 L44.051,68.671 L44.051,47.152 L57.342,35.127 L70,37.025 z" fill="#9F655C"/>
      <path d="M20,37.025 L34.557,25 L57.342,35.127 L44.051,47.152 L20,37.025 z" fill="#695757"/>
      <path d="M70,37.025 L34.557,25 L57.342,35.127" fill="#4B4442"/>
      <g>
        <path d="M29.494,62.342 L29.494,56.013 L33.924,57.911 L33.924,64.24 L29.494,62.342 z" fill="#695757"/>
        <path d="M37.089,65.506 L37.089,59.177 L41.519,61.076 L41.519,67.405 L37.089,65.506 z" fill="#695757"/>
        <path d="M21.899,59.177 L21.899,52.848 L26.329,54.747 L26.329,61.076 L21.899,59.177 z" fill="#695757"/>
        <path d="M37.089,54.114 L37.089,47.785 L41.519,49.684 L41.519,56.013 L37.089,54.114 z" fill="#695757"/>
        <path d="M29.494,50.949 L29.494,44.62 L33.924,46.519 L33.924,52.848 L29.494,50.949 z" fill="#695757"/>
        <path d="M21.899,47.785 L21.899,41.456 L26.329,43.354 L26.329,49.684 L21.899,47.785 z" fill="#695757"/>
      </g>
      <g>
        <path d="M52.278,64.873 L52.278,58.544 L47.848,60.443 L47.848,66.772 L52.278,64.873 z" fill="#554646"/>
        <path d="M52.278,53.481 L52.278,47.152 L47.848,49.051 L47.848,55.38 L52.278,53.481 z" fill="#554646"/>
        <path d="M59.873,61.709 L59.873,55.38 L55.443,57.278 L55.443,63.608 L59.873,61.709 z" fill="#554646"/>
        <path d="M59.873,50.316 L59.873,43.987 L55.443,45.886 L55.443,52.215 L59.873,50.316 z" fill="#554646"/>
        <path d="M67.468,58.544 L67.468,52.215 L63.038,54.114 L63.038,60.443 L67.468,58.544 z" fill="#554646"/>
        <path d="M67.468,47.152 L67.468,40.823 L63.038,42.722 L63.038,49.051 L67.468,47.152 z" fill="#554646"/>
      </g>
    </g>
    <g>
      <path d="M75.5,36.544 L99.551,46.671 L99.551,25.152 L75.5,15.025 z" fill="#E16E5F"/>
      <path d="M125.5,35.911 L99.551,46.671 L99.551,25.152 L112.842,13.127 L125.5,15.025 z" fill="#9F655C"/>
      <path d="M75.5,15.025 L90.057,3 L112.842,13.127 L99.551,25.152 L75.5,15.025 z" fill="#695757"/>
      <path d="M125.5,15.025 L90.057,3 L112.842,13.127" fill="#4B4442"/>
      <g>
        <path d="M84.994,40.342 L84.994,34.013 L89.424,35.911 L89.424,42.24 L84.994,40.342 z" fill="#695757"/>
        <path d="M92.589,43.506 L92.589,37.177 L97.019,39.076 L97.019,45.405 L92.589,43.506 z" fill="#695757"/>
        <path d="M77.399,37.177 L77.399,30.848 L81.829,32.747 L81.829,39.076 L77.399,37.177 z" fill="#695757"/>
        <path d="M92.589,32.114 L92.589,25.785 L97.019,27.684 L97.019,34.013 L92.589,32.114 z" fill="#695757"/>
        <path d="M84.994,28.949 L84.994,22.62 L89.424,24.519 L89.424,30.848 L84.994,28.949 z" fill="#695757"/>
        <path d="M77.399,25.785 L77.399,19.456 L81.829,21.354 L81.829,27.684 L77.399,25.785 z" fill="#695757"/>
      </g>
      <g>
        <path d="M107.778,42.873 L107.778,36.544 L103.348,38.443 L103.348,44.772 L107.778,42.873 z" fill="#554646"/>
        <path d="M107.778,31.481 L107.778,25.152 L103.348,27.051 L103.348,33.38 L107.778,31.481 z" fill="#554646"/>
        <path d="M115.373,39.709 L115.373,33.38 L110.943,35.278 L110.943,41.608 L115.373,39.709 z" fill="#554646"/>
        <path d="M115.373,28.316 L115.373,21.987 L110.943,23.886 L110.943,30.215 L115.373,28.316 z" fill="#554646"/>
        <path d="M122.968,36.544 L122.968,30.215 L118.538,32.114 L118.538,38.443 L122.968,36.544 z" fill="#554646"/>
        <path d="M122.968,25.152 L122.968,18.823 L118.538,20.722 L118.538,27.051 L122.968,25.152 z" fill="#554646"/>
      </g>
    </g>
    <g>
      <path d="M130.5,58.544 L154.551,68.671 L154.551,47.152 L130.5,37.025 z" fill="#E16E5F"/>
      <path d="M180.5,57.911 L154.551,68.671 L154.551,47.152 L167.842,35.127 L180.5,37.025 z" fill="#9F655C"/>
      <path d="M130.5,37.025 L145.057,25 L167.842,35.127 L154.551,47.152 L130.5,37.025 z" fill="#695757"/>
      <path d="M180.5,37.025 L145.057,25 L167.842,35.127" fill="#4B4442"/>
      <g>
        <path d="M139.994,62.342 L139.994,56.013 L144.424,57.911 L144.424,64.24 L139.994,62.342 z" fill="#695757"/>
        <path d="M147.589,65.506 L147.589,59.177 L152.019,61.076 L152.019,67.405 L147.589,65.506 z" fill="#695757"/>
        <path d="M132.399,59.177 L132.399,52.848 L136.829,54.747 L136.829,61.076 L132.399,59.177 z" fill="#695757"/>
        <path d="M147.589,54.114 L147.589,47.785 L152.019,49.684 L152.019,56.013 L147.589,54.114 z" fill="#695757"/>
        <path d="M139.994,50.949 L139.994,44.62 L144.424,46.519 L144.424,52.848 L139.994,50.949 z" fill="#695757"/>
        <path d="M132.399,47.785 L132.399,41.456 L136.829,43.354 L136.829,49.684 L132.399,47.785 z" fill="#695757"/>
      </g>
      <g>
        <path d="M162.778,64.873 L162.778,58.544 L158.348,60.443 L158.348,66.772 L162.778,64.873 z" fill="#554646"/>
        <path d="M162.778,53.481 L162.778,47.152 L158.348,49.051 L158.348,55.38 L162.778,53.481 z" fill="#554646"/>
        <path d="M170.373,61.709 L170.373,55.38 L165.943,57.278 L165.943,63.608 L170.373,61.709 z" fill="#554646"/>
        <path d="M170.373,50.316 L170.373,43.987 L165.943,45.886 L165.943,52.215 L170.373,50.316 z" fill="#554646"/>
        <path d="M177.968,58.544 L177.968,52.215 L173.538,54.114 L173.538,60.443 L177.968,58.544 z" fill="#554646"/>
        <path d="M177.968,47.152 L177.968,40.823 L173.538,42.722 L173.538,49.051 L177.968,47.152 z" fill="#554646"/>
      </g>
    </g>
</svg>
