<?xml version="1.0" encoding="UTF-8"?>
<!DOCTYPE svg PUBLIC "-//W3C//DTD SVG 1.1//EN" "http://www.w3.org/Graphics/SVG/1.1/DTD/svg11.dtd">
<svg version="1.1" xmlns="http://www.w3.org/2000/svg" xmlns:xlink="http://www.w3.org/1999/xlink" x="0" y="0" width="200" height="80" viewBox="0 0 200 80">
    <path d="M0,0 L200,0 L200,80 L0,80 z" fill="#FFFFFF"/>
    <path d="M170,31 C161.716,31 155,37.716 155,46 C155,54.284 170,67 170,67 C170,67 185,54.284 185,46 C185,37.716 178.284,31 170,31 z" fill="#7092FF"/>
    <path d="M100,31 C91.716,31 85,37.716 85,46 C85,54.284 100,67 100,67 C100,67 115,54.284 115,46 C115,37.716 108.284,31 100,31 z" fill="#7092FF"/>
    <path d="M30,31 C21.716,31 15,37.716 15,46 C15,54.284 30,67 30,67 C30,67 45,54.284 45,46 C45,37.716 38.284,31 30,31 z" fill="#7092FF"/>
    <path d="M135,11 C126.716,11 120,17.716 120,26 C120,34.284 135,47 135,47 C135,47 150,34.284 150,26 C150,17.716 143.284,11 135,11 z" fill="#7092FF"/>
    <path d="M65,11 C56.716,11 50,17.716 50,26 C50,34.284 65,47 65,47 C65,47 80,34.284 80,26 C80,17.716 73.284,11 65,11 z" fill="#7092FF"/>
    <path d="M162,38 C161.529,38 161,38.5 161,39 L161,46 C161,48.216 162,51 166,51 C166.359,51 166.686,50.983 167,50.938 L167,48 L163,48 C163,48 163.5,46 166,46 C166.5,46 166.697,46.075 167,46.188 L167,44 C167,43.084 167.365,42.318 168,42 C169,41.5 169.404,41.702 170,42 C171,42.5 171,42.5 171,42.5 L171,39 C171,38.5 170.471,38 170,38 C169,38 168,39 166,39 C164,39 163,38 162,38 z M163.75,41.5 C164.44,41.5 165,42.06 165,42.75 C165,43.44 164.44,44 163.75,44 C163.06,44 162.5,43.44 162.5,42.75 C162.5,42.06 163.06,41.5 163.75,41.5 z M169,43 C168.529,43 168,43.5 168,44 L168,51 C168,53.216 169,56 173,56 C177,56 178,53.216 178,51 L178,44 C178,43.5 177.471,43 177,43 C176,43 175,44 173,44 C171,44 170,43 169,43 z M170.75,46.5 C171.44,46.5 172,47.06 172,47.75 C172,48.44 171.44,49 170.75,49 C170.06,49 169.5,48.44 169.5,47.75 C169.5,47.06 170.06,46.5 170.75,46.5 z M175.25,46.5 C175.94,46.5 176.5,47.06 176.5,47.75 C176.5,48.44 175.94,49 175.25,49 C174.56,49 174,48.44 174,47.75 C174,47.06 174.56,46.5 175.25,46.5 z M170,52 L176,52 C176,52 175.5,54 173,54 C170.5,54 170,52 170,52 z" fill="#FFFFFF"/>
    <path d="M98,38 C95,38 92,39.5 92,42 L92,44 L109,44 L109,42 C109,39.5 106,38 103,38 z M98.5,39 C98.777,39 99,39.223 99,39.5 C99,39.777 98.777,40 98.5,40 C98.223,40 98,39.777 98,39.5 C98,39.223 98.223,39 98.5,39 z M102.5,39 C102.777,39 103,39.223 103,39.5 C103,39.777 102.777,40 102.5,40 C102.223,40 102,39.777 102,39.5 C102,39.223 102.223,39 102.5,39 z M96.5,41 C96.777,41 97,41.223 97,41.5 C97,41.777 96.777,42 96.5,42 C96.223,42 96,41.777 96,41.5 C96,41.223 96.223,41 96.5,41 z M100.5,41 C100.777,41 101,41.223 101,41.5 C101,41.777 100.777,42 100.5,42 C100.223,42 100,41.777 100,41.5 C100,41.223 100.223,41 100.5,41 z M104.5,41 C104.777,41 105,41.223 105,41.5 C105,41.777 104.777,42 104.5,42 C104.223,42 104,41.777 104,41.5 C104,41.223 104.223,41 104.5,41 z M92,45 C91.5,45 91,45.5 91,46 C91,46.5 91.5,47 92,47 L109,47 C109.5,47 110,46.5 110,46 C110,45.5 109.5,45 109,45 z M92,48 L92,49 C92,50 93,51 94,51 L107,51 C108,51 109,50 109,49 L109,48 z" fill="#FFFFFF"/>
    <path d="M24,36 C23.446,36 23,36.446 23,37 L23,53 C23,53.5 23.5,54 24,54 L33,54 C33.5,54 34,53.5 34,53 L34,48 L34.5,48 C35,48 35,48.5 35,48.5 L35,50.5 C35,51.5 35.5,52 36.5,52 C37.5,52 38,51.5 38,50.5 C38,49.333 38,46 38,45 C38,44 36,43 36,42 L36,39 L35,39 L34,38 L34,37 C34,36.446 33.554,36 33,36 z M25,38 L32,38 L32,42 L25,42 z M34,41 L35,41 C35,41 35,41.833 35,42.5 C35,43.5 37,44.5 37,45.5 L37,50.5 C37,51 36.5,51 36.5,51 C36.5,51 36,51 36,50.5 C36,50.5 36,48.5 36,48 C36,47.5 35.5,47 35,47 C34.667,47 34,47 34,47 z" fill="#FFFFFF"/>
    <path d="M134,18 C133.446,18 133,18.446 133,19 L133,23 L129,23 C128.446,23 128,23.446 128,24 L128,27 C128,27.554 128.446,28 129,28 L133,28 L133,32 C133,32.554 133.446,33 134,33 L137,33 C137.554,33 138,32.554 138,32 L138,28 L142,28 C142.554,28 143,27.554 143,27 L143,24 C143,23.446 142.554,23 142,23 L138,23 L138,19 C138,18.446 137.554,18 137,18 z" fill="#FFFFFF"/>
    <path d="M59,18 C58.446,18 58,18.446 58,19 L58,28 C58,28.554 58.446,29 59,29 L70,29 C70.554,29 71,28.554 71,28 L71,27 L71.5,27 C72,27 72,26.5 72,26.5 L72,26 L73,26 C74,26 75,25 75,24 L75,23 L75,21 C75,20.5 74.5,20 74,20 L71,20 L71,19 C71,18.446 70.554,18 70,18 z M71,21 L73.5,21 C74,21 74,21.5 74,21.5 L74,24 C74,24.5 73.5,25 73,25 L72,25 L71,25 z M56,30 L57,31 L58,32 L71,32 L72,31 L73,30 z" fill="#FFFFFF"/>
</svg>
