<?xml version="1.0" encoding="UTF-8"?>
<!DOCTYPE svg PUBLIC "-//W3C//DTD SVG 1.1//EN" "http://www.w3.org/Graphics/SVG/1.1/DTD/svg11.dtd">
<svg version="1.1" xmlns="http://www.w3.org/2000/svg" xmlns:xlink="http://www.w3.org/1999/xlink" x="0" y="0" width="200" height="80" viewBox="0 0 200 80">
    <path d="M0,0 L200,0 L200,80 L0,80 z" fill="#FFFFFF"/>
    <path d="M128.955,27.415 C126.526,33.621 112.429,37.423 97.471,35.906 C82.513,34.39 72.36,28.129 74.795,21.924 C77.229,15.721 91.324,11.921 106.278,13.437 C121.231,14.953 131.384,21.211 128.955,27.415 z" fill="#7092FF"/>
    <path d="M53,36 L18,46 L18,40 L53,30 z" fill="#A9A9A9"/>
    <path d="M54,30.5 L54,36.5 L83,51 L83,45 L54,30.5 z" fill="#A9A9A9"/>
    <path d="M173.5,28 C172.271,28 171.272,28.893 171.062,30.062 C170.879,30.019 170.697,30 170.5,30 C169.119,30 168,31.119 168,32.5 C168,33.139 168.23,33.714 168.625,34.156 C167.68,34.513 167,35.43 167,36.5 C167,37.881 168,39 169.5,39 L170,39 L172,42.5 L172,43.937 C170.521,43.506 169.114,43.057 168,42.5 C163,40 158.566,35.517 153,35 C146.959,34.439 141.333,38.333 135.5,40 C129.667,41.667 118.561,41.959 118,48 L148,63 L183,53 C183.326,49.495 179.292,46.013 175,44.781 L175,42.5 L177,39 L177.719,39 C179,39.014 180,37.805 180,36.5 C180,35.43 179.32,34.513 178.375,34.156 C178.77,33.714 179,33.139 179,32.5 C179,31.119 177.881,30 176.5,30 C176.303,30 176.121,30.019 175.938,30.062 C175.728,28.893 174.729,28 173.5,28 z M172,39 L175,39 L174,41 L173,41 z" fill="#8CD05F"/>
    <g>
      <path d="M18.5,46.5 L48.5,61.5 L48.5,55.5 L18.5,40.5 z" fill="#C1C1C1"/>
      <path d="M18.5,46.5 L48.5,61.5 L48.5,55.5 L18.5,40.5 z" fill-opacity="0" stroke="#FFFFFF" stroke-width="2"/>
    </g>
    <g>
      <path d="M83.5,51.5 L48.5,61.5 L48.5,55.5 L83.5,45.5 z" fill="#C1C1C1"/>
      <path d="M83.5,51.5 L48.5,61.5 L48.5,55.5 L83.5,45.5 z" fill-opacity="0" stroke="#FFFFFF" stroke-width="2"/>
    </g>
    <path d="M18,46 L48,61 L48,55 L18,40 z" fill="#A9A9A9"/>
    <path d="M83,51 L48,61 L48,55 L83,45 z" fill="#A9A9A9"/>
    <path d="M107,17 C107,17 109.636,20.529 112.438,20.969 C107.96,20.816 107,19 107,19 C107,19 106.04,20.816 101.562,20.969 C104.364,20.529 107,17 107,17 z" fill="#FFFFFF"/>
    <path d="M93,19 C93,19 95.636,22.529 98.438,22.969 C93.96,22.816 93,21 93,21 C93,21 92.04,22.816 87.562,22.969 C90.364,22.529 93,19 93,19 z" fill="#FFFFFF"/>
    <path d="M103,24 C103,24 105.636,27.529 108.438,27.969 C103.96,27.816 103,26 103,26 C103,26 102.04,27.816 97.562,27.969 C100.364,27.529 103,24 103,24 z" fill="#FFFFFF"/>
</svg>
