<?xml version="1.0" encoding="UTF-8"?>
<!DOCTYPE svg PUBLIC "-//W3C//DTD SVG 1.1//EN" "http://www.w3.org/Graphics/SVG/1.1/DTD/svg11.dtd">
<svg version="1.1" xmlns="http://www.w3.org/2000/svg" xmlns:xlink="http://www.w3.org/1999/xlink" x="0" y="0" width="100" height="100" viewBox="0 0 100 100">
      <path d="M4,5 L11.813,25.5 L4,46 L11.813,66.531 L4,87.031 L8.813,88.875 L34.844,62.812 L39.531,63.531 L45.219,57.844 C41.87,53.964 39.339,49.332 37.969,44.219 L40.656,42.062 C40.199,39.939 39.938,37.726 39.938,35.469 C39.938,24.191 45.95,14.277 54.938,8.781 L45.031,5 L24.5,12.813 L4,5 z M71.094,9.313 C56.734,9.313 45.094,20.953 45.094,35.312 C45.094,49.672 56.734,61.312 71.094,61.312 C85.453,61.312 97.094,49.672 97.094,35.312 C97.094,20.953 85.453,9.313 71.094,9.313 z M91.156,59.469 C85.735,63.987 78.776,66.719 71.188,66.719 C68.93,66.719 66.717,66.458 64.594,66 L62.438,68.656 C57.582,67.355 53.131,65.067 49.375,61.969 L43.5,67.844 L44.219,72.188 L22.406,94.031 L24.5,94.844 L45.031,87.031 L65.531,94.844 L86.031,87.031 L93.844,66.531 L91.156,59.469 z" fill="currentColor"/>
</svg>
