<?xml version="1.0" encoding="UTF-8"?>
<!DOCTYPE svg PUBLIC "-//W3C//DTD SVG 1.1//EN" "http://www.w3.org/Graphics/SVG/1.1/DTD/svg11.dtd">
<svg version="1.1" xmlns="http://www.w3.org/2000/svg" xmlns:xlink="http://www.w3.org/1999/xlink" x="0" y="0" width="100" height="100" viewBox="0 0 100 100">
    <path d="M67.531,11 C59.247,11 52.531,17.716 52.531,26 C52.531,34.284 67.531,47 67.531,47 C67.531,47 82.531,34.284 82.531,26 C82.531,17.716 75.816,11 67.531,11 z M68,20 C71.314,20 74,22.686 74,26 C74,29.314 71.314,32 68,32 C64.687,32 62,29.314 62,26 C62,22.686 64.687,20 68,20 z" fill="currentColor"/>
    <path d="M83.5,48 C79.358,48 76,51.358 76,55.5 C76,56.256 76.136,56.968 76.344,57.656 L57.656,76.344 C56.968,76.136 56.256,76 55.5,76 C51.358,76 48,79.358 48,83.5 C48,87.642 51.358,91 55.5,91 C59.642,91 63,87.642 63,83.5 C63,82.744 62.864,82.032 62.656,81.344 L81.344,62.656 C82.032,62.864 82.744,63 83.5,63 C87.642,63 91,59.642 91,55.5 C91,51.358 87.642,48 83.5,48 z M83.5,52.5 C85.157,52.5 86.5,53.843 86.5,55.5 C86.5,57.157 85.157,58.5 83.5,58.5 C81.843,58.5 80.5,57.157 80.5,55.5 C80.5,53.843 81.843,52.5 83.5,52.5 z M55.5,80.5 C57.157,80.5 58.5,81.843 58.5,83.5 C58.5,85.157 57.157,86.5 55.5,86.5 C53.843,86.5 52.5,85.157 52.5,83.5 C52.5,81.843 53.843,80.5 55.5,80.5 z" fill="currentColor"/>
    <path d="M16.5,33 C12.358,33 9,36.358 9,40.5 C9,43.373 10.628,45.865 13,47.125 L13,60.875 C10.628,62.135 9,64.627 9,67.5 C9,71.642 12.358,75 16.5,75 C19.373,75 21.865,73.372 23.125,71 L36.875,71 C38.135,73.372 40.627,75 43.5,75 C47.642,75 51,71.642 51,67.5 C51,64.627 49.372,62.135 47,60.875 L47,47.125 C49.372,45.865 51,43.373 51,40.5 C51,36.358 47.642,33 43.5,33 C40.592,33 38.088,34.675 36.844,37.094 L36.656,37 L23.125,37 C21.865,34.628 19.373,33 16.5,33 z M16.5,37.5 C18.157,37.5 19.5,38.843 19.5,40.5 C19.5,42.157 18.157,43.5 16.5,43.5 C14.843,43.5 13.5,42.157 13.5,40.5 C13.5,38.843 14.843,37.5 16.5,37.5 z M43.5,37.5 C45.157,37.5 46.5,38.843 46.5,40.5 C46.5,42.157 45.157,43.5 43.5,43.5 C41.843,43.5 40.5,42.157 40.5,40.5 C40.5,38.843 41.843,37.5 43.5,37.5 z M23.125,44 L36.875,44 C37.578,45.323 38.677,46.422 40,47.125 L40,60.875 C38.677,61.578 37.578,62.677 36.875,64 L23.125,64 C22.422,62.677 21.323,61.578 20,60.875 L20,47.125 C21.323,46.422 22.422,45.323 23.125,44 z M16.5,64.5 C18.157,64.5 19.5,65.843 19.5,67.5 C19.5,69.157 18.157,70.5 16.5,70.5 C14.843,70.5 13.5,69.157 13.5,67.5 C13.5,65.843 14.843,64.5 16.5,64.5 z M43.5,64.5 C45.157,64.5 46.5,65.843 46.5,67.5 C46.5,69.157 45.157,70.5 43.5,70.5 C41.843,70.5 40.5,69.157 40.5,67.5 C40.5,65.843 41.843,64.5 43.5,64.5 z" fill="currentColor"/>
</svg>
