<?xml version="1.0" encoding="UTF-8"?>
<!DOCTYPE svg PUBLIC "-//W3C//DTD SVG 1.1//EN" "http://www.w3.org/Graphics/SVG/1.1/DTD/svg11.dtd">
<svg version="1.1" xmlns="http://www.w3.org/2000/svg" xmlns:xlink="http://www.w3.org/1999/xlink" x="0" y="0" width="100" height="100" viewBox="0 0 100 100">
    <path d="M5,8 C5,32.885 5,57.771 5,82.656 C12.5,86.104 20,89.552 27.5,93 C35,89.667 42.5,86.333 50,83 C57.5,86.333 65,89.667 72.5,93 C80,89.552 87.5,86.104 95,82.656 C95,57.771 95,32.885 95,8 C87.5,11.333 80,14.667 72.5,18 C65,14.667 57.5,11.333 50,8 C42.5,11.333 35,14.667 27.5,18 C20,14.667 12.5,11.333 5,8 z M62.406,31.594 L68,37.188 L73.594,31.594 L76.056,34.756 L70.812,40 L76.406,45.594 L73.244,48.056 L68,42.812 L62.406,48.406 L59.319,45.431 L65.188,40 L59.594,34.406 z M37.219,43.906 C40.248,44.171 43.258,45.231 45.594,47.219 L42.688,50 C40.99,48.733 38.912,48.062 36.813,47.875 C36.948,46.552 37.084,45.229 37.219,43.906 z M32.375,44.281 C32.609,45.537 33.708,47.147 33.656,48.094 C31.677,49.095 30.374,51.09 29.25,52.844 L26.101,50.327 C27.697,47.9 29.611,45.435 32.375,44.281 z M65.844,50.562 L69.531,52.156 C68.676,54.791 67.472,57.356 65.656,59.469 L62.875,56.562 C64.255,54.787 65.19,52.705 65.844,50.562 z M48.625,50.656 C50.155,52.869 51.085,55.419 52.469,57.719 L48.875,59.5 C47.613,57.332 46.722,54.942 45.281,52.875 C46.396,52.135 47.511,51.396 48.625,50.656 z M23.875,54.469 L27.313,56.5 C26.366,58.654 25.484,60.883 24.781,63.094 L21.113,61.432 C21.904,59.065 22.803,56.724 23.875,54.469 z M60.125,59.094 L61.725,62.775 C59.006,64.297 55.468,64.858 52.594,63.438 L54.762,60.026 C56.531,60.57 58.608,60.033 60.125,59.094 z" fill="currentColor"/>
</svg>
