<?xml version="1.0" encoding="UTF-8"?>
<!DOCTYPE svg PUBLIC "-//W3C//DTD SVG 1.1//EN" "http://www.w3.org/Graphics/SVG/1.1/DTD/svg11.dtd">
<svg version="1.1" xmlns="http://www.w3.org/2000/svg" xmlns:xlink="http://www.w3.org/1999/xlink" x="0" y="0" width="45" height="45" viewBox="0 0 45 45">
    <path d="M14,10.5 C14,12.433 12.433,14 10.5,14 C8.567,14 7,12.433 7,10.5 C7,8.567 8.567,7 10.5,7 C12.433,7 14,8.567 14,10.5 z" fill="#000000" opacity="0.2"/>
    <path d="M10.5,30.999 C9.963,31 9.467,30.714 9.199,30.25 C8.93,29.786 8.93,29.213 9.199,28.749 C9.467,28.284 9.963,27.999 10.5,27.999 C11.327,28.001 11.998,28.672 11.998,29.499 C11.998,30.327 11.327,30.998 10.5,30.999 z" fill="#000000" opacity="0.2"/>
    <path d="M14,48.5 C14,50.433 12.433,52 10.5,52 C8.567,52 7,50.433 7,48.5 C7,46.567 8.567,45 10.5,45 C12.433,45 14,46.567 14,48.5 z" fill="#000000" opacity="0.2"/>
    <path d="M31,48.5 C31,49.328 30.328,50 29.5,50 C28.672,50 28,49.328 28,48.5 C28,47.672 28.672,47 29.5,47 C30.328,47 31,47.672 31,48.5 z" fill="#000000" opacity="0.2"/>
    <path d="M52,48.5 C52,50.433 50.433,52 48.5,52 C46.567,52 45,50.433 45,48.5 C45,46.567 46.567,45 48.5,45 C50.433,45 52,46.567 52,48.5 z" fill="#000000" opacity="0.2"/>
    <path d="M48.5,30.999 C47.672,30.999 47.001,30.327 47.001,29.499 C47.001,28.671 47.672,28 48.5,27.999 C49.329,27.999 50.001,28.67 50.001,29.499 C50.001,30.328 49.329,31 48.5,30.999 z" fill="#000000" opacity="0.2"/>
    <path d="M52,10.5 C52,12.433 50.433,14 48.5,14 C46.567,14 45,12.433 45,10.5 C45,8.567 46.567,7 48.5,7 C50.433,7 52,8.567 52,10.5 z" fill="#000000" opacity="0.2"/>
    <path d="M31,10.5 C31,11.328 30.328,12 29.5,12 C28.672,12 28,11.328 28,10.5 C28,9.672 28.672,9 29.5,9 C30.328,9 31,9.672 31,10.5 z" fill="#000000" opacity="0.2"/>
    <path d="M13,10.5 C13,11.881 11.881,13 10.5,13 C9.119,13 8,11.881 8,10.5 C8,9.119 9.119,8 10.5,8 C11.881,8 13,9.119 13,10.5 z" fill="#FFFFFF"/>
    <path d="M10.5,29 L10.5,29 C10.776,29 11,29.224 11,29.5 L11,29.5 C11,29.776 10.776,30 10.5,30 L10.5,30 C10.224,30 10,29.776 10,29.5 L10,29.5 C10,29.224 10.224,29 10.5,29 z" fill="#FFFFFF" opacity="0.5"/>
    <path d="M13,48.5 C13,49.881 11.881,51 10.5,51 C9.119,51 8,49.881 8,48.5 C8,47.119 9.119,46 10.5,46 C11.881,46 13,47.119 13,48.5 z" fill="#FFFFFF"/>
    <path d="M30,48.5 L30,48.5 C30,48.776 29.776,49 29.5,49 L29.5,49 C29.224,49 29,48.776 29,48.5 L29,48.5 C29,48.224 29.224,48 29.5,48 L29.5,48 C29.776,48 30,48.224 30,48.5 z" fill="#FFFFFF" opacity="0.5"/>
    <path d="M51,48.5 C51,49.881 49.881,51 48.5,51 C47.119,51 46,49.881 46,48.5 C46,47.119 47.119,46 48.5,46 C49.881,46 51,47.119 51,48.5 z" fill="#FFFFFF"/>
    <path d="M48.5,29 L48.5,29 C48.776,29 49,29.224 49,29.5 L49,29.5 C49,29.776 48.776,30 48.5,30 L48.5,30 C48.224,30 48,29.776 48,29.5 L48,29.5 C48,29.224 48.224,29 48.5,29 z" fill="#FFFFFF" opacity="0.5"/>
    <path d="M51,10.5 C51,11.881 49.881,13 48.5,13 C47.119,13 46,11.881 46,10.5 C46,9.119 47.119,8 48.5,8 C49.881,8 51,9.119 51,10.5 z" fill="#FFFFFF"/>
    <path d="M30,10.5 L30,10.5 C30,10.776 29.776,11 29.5,11 L29.5,11 C29.224,11 29,10.776 29,10.5 L29,10.5 C29,10.224 29.224,10 29.5,10 L29.5,10 C29.776,10 30,10.224 30,10.5 z" fill="#FFFFFF" opacity="0.5"/>
</svg>
