<?xml version="1.0" encoding="UTF-8"?>
<svg width="20px" height="20px" viewBox="0 0 20 20" version="1.1" xmlns="http://www.w3.org/2000/svg" xmlns:xlink="http://www.w3.org/1999/xlink">
    <path d="M7.86048705,6.9951281 C8.96236588,7.07217897 9.91807723,6.24139177 9.9951281,5.13951295 C10.072179,4.03763412 9.24139177,3.08192277 8.13951295,3.0048719 C7.03763412,2.92782103 6.08192277,3.75860823 6.0048719,4.86048705 C5.92782103,5.96236588 6.75860823,6.91807723 7.86048705,6.9951281 Z M7.65121763,9.98782025 C4.89652057,9.79519307 2.81955257,7.40591469 3.01217975,4.65121763 C3.20480693,1.89652057 5.59408531,-0.180447435 8.34878237,0.0121797487 C11.1034794,0.204806932 13.1804474,2.59408531 12.9878203,5.34878237 C12.7951931,8.10347943 10.4059147,10.1804474 7.65121763,9.98782025 Z" fill="currentColor"/>
    <path d="M7,13 L7,5 C7,4.44771525 7.44771525,4 8,4 C8.55228475,4 9,4.44771525 9,5 L9,9 C9,8.44771525 9.44771525,8 10,8 C10.5522847,8 11,8.44771525 11,9 L11,10 C11,9.44771525 11.4477153,9 12,9 C12.5522847,9 13,9.44771525 13,10 L13,11 C13,10.4477153 13.4477153,10 14,10 C14.5522847,10 15,10.4477153 15,11 L15,16 C15,18.209134 13.209143,19.999991 11.000009,19.999991 C10.2659918,20 9.59932211,20 9,20 C7.25562789,20 5.75375111,18.7687556 5.41165159,17.058258 L4.19611614,10.9805807 C4.10732158,10.5366079 4.39525043,10.1047146 4.83922323,10.01592 C4.89216058,10.0053326 4.94601429,10 5,10 C5.59719029,10 6.12737961,10.3821388 6.31622777,10.9486833 L7,13 L7,13 Z" fill="inherit"/>
</svg>
