<?xml version="1.0" encoding="UTF-8"?>
<svg width="20px" height="20px" viewBox="0 0 20 20" version="1.1" xmlns="http://www.w3.org/2000/svg" xmlns:xlink="http://www.w3.org/1999/xlink">
    <path d="M6,12 L6,8 L4,8 L2,6 L6.91268923,-1.59872116e-14 L11.9126892,6 L10,8 L8,8 L8,12 L10,12 L12,14 L6.95634462,20 L2,14 L4,12 L6,12 Z M6.86049281,16.9950458 C7.96232617,17.0720935 8.91799808,16.2413405 8.99504577,15.1395072 C9.07209347,14.0376738 8.24134055,13.0820019 7.13950719,13.0049542 C6.03767383,12.9279065 5.08200192,13.7586595 5.00495423,14.8604928 C4.92790653,15.9623262 5.75865945,16.9179981 6.86049281,16.9950458 Z M6.86049281,6.99504577 C7.96232617,7.07209347 8.91799808,6.24134055 8.99504577,5.13950719 C9.07209347,4.03767383 8.24134055,3.08200192 7.13950719,3.00495423 C6.03767383,2.92790653 5.08200192,3.75865945 5.00495423,4.86049281 C4.92790653,5.96232617 5.75865945,6.91799808 6.86049281,6.99504577 Z" fill="currentColor"/>
    <path d="M6,5 C6.00519002,4.49349619 6.41999983,4.08710108 6.92650363,4.0922911 C7.17456075,4.09483288 7.41100871,4.19775003 7.58190584,4.37756372 L11.9751431,9 C11.9917144,8.33333333 12.3333333,8 13,8 C13.6666667,8 14,8.66666667 14,10 C14,9.44771525 14.4477153,9 15,9 C15.5522847,9 16,9.44771525 16,10 L16.0616257,11 C16.0616257,10.4477153 16.5093409,10 17.0616257,10 C17.6139104,10 17.9502861,10.5469022 17.9502861,11.099187 L17.9502861,13.6849734 C17.9502861,15.8941074 16.8309668,18 14.6218328,18 C13.8878155,18.000009 12,18 11,17 C10,16 7.96481899,16 7.42419436,16 C6,16 5,15 7,14 C9,13 11,15 11,13 C11,11 5.98821303,6.15031261 6,5 Z" fill="inherit"/>
</svg>
