<?xml version="1.0" encoding="UTF-8"?>
<svg width="20px" height="20px" viewBox="0 0 20 20" version="1.1" xmlns="http://www.w3.org/2000/svg" xmlns:xlink="http://www.w3.org/1999/xlink">
    <path d="M7.17089955,4 C7.60868534,2.75922055 8.83295642,1.91119076 10.2092608,2.00743134 C11.4383491,2.09337756 12.4425623,2.90818733 12.829104,4 L15,4 L15,2 L16,1 L20,5 L16,9 L15,8 L15,6 L12.8291005,6 C12.3913147,7.24077945 11.1670436,8.08880924 9.79073921,7.99256866 C8.56165094,7.90662244 7.5574377,7.09181267 7.17089596,6 L5,6 L5,8 L4,9 L-3.55271368e-15,5 L4,1 L5,2 L5,4 L7.17089955,4 Z M9.86049281,6.99504577 C10.9623262,7.07209347 11.9179981,6.24134055 11.9950458,5.13950719 C12.0720935,4.03767383 11.2413405,3.08200192 10.1395072,3.00495423 C9.03767383,2.92790653 8.08200192,3.75865945 8.00495423,4.86049281 C7.92790653,5.96232617 8.75865945,6.91799808 9.86049281,6.99504577 Z" fill="currentColor"/>
    <path d="M9,5 C9,4.44771525 9.44771525,4 10,4 C10.5522847,4 11,4.44771525 11,5 L11,9 C11,8.44771525 11.4477153,8 12,8 C12.5522847,8 13,8.44771525 13,9 L13,10 C13,9.44771525 13.4477153,9 14,9 C14.5522847,9 15,9.44771525 15,10 L15,11 C15,10.4477153 15.4477153,10 16,10 C16.5522847,10 17,10.4477153 17,11 L17,15 C17,17.209134 15.209143,18.999991 13.000009,18.999991 C12.2659918,19 11.5993221,19 11,19 C9.25562789,19 7.75375111,17.7687556 7.41165159,16.058258 L6.19611614,10.9805807 C6.10732158,10.5366079 6.39525043,10.1047146 6.83922323,10.01592 C6.89216058,10.0053326 6.94601429,10 7,10 C7.59719029,10 8.12737961,10.3821388 8.31622777,10.9486833 L9,13 L9,5 Z" fill="inherit"/>
</svg>
