<?xml version="1.0" encoding="UTF-8"?>
<svg width="20px" height="20px" viewBox="0 0 20 20" version="1.1" xmlns="http://www.w3.org/2000/svg" xmlns:xlink="http://www.w3.org/1999/xlink">
    <path d="M8.58147843,11.9851373 C5.27597836,11.7539942 2.7837196,8.8869785 3.01486268,5.58147843 C3.24600576,2.27597836 6.1130215,-0.216280402 9.41852157,0.0148626794 C12.7240216,0.246005761 15.2162804,3.1130215 14.9851373,6.41852157 C14.7539942,9.72402164 11.8869785,12.2162804 8.58147843,11.9851373 Z M8.65123202,10.9876144 C11.4058154,11.1802337 13.7949952,9.10335137 13.9876144,6.34876798 C14.1802337,3.59418459 12.1033514,1.2050048 9.34876798,1.01238557 C6.59418459,0.819766331 4.2050048,2.89664863 4.01238557,5.65123202 C3.81976633,8.40581541 5.89664863,10.7949952 8.65123202,10.9876144 Z M8.72098562,9.99009155 C6.51731891,9.83599616 4.85581307,7.92465233 5.00990845,5.72098562 C5.16400384,3.51731891 7.07534767,1.85581307 9.27901438,2.00990845 C11.4826811,2.16400384 13.1441869,4.07534767 12.9900915,6.27901438 C12.8359962,8.48268109 10.9246523,10.1441869 8.72098562,9.99009155 Z M8.86049281,7.99504577 C9.96232617,8.07209347 10.9179981,7.24134055 10.9950458,6.13950719 C11.0720935,5.03767383 10.2413405,4.08200192 9.13950719,4.00495423 C8.03767383,3.92790653 7.08200192,4.75865945 7.00495423,5.86049281 C6.92790653,6.96232617 7.75865945,7.91799808 8.86049281,7.99504577 Z" fill="currentColor"/>
    <path d="M8,6 C8,5.44771525 8.44771525,5 9,5 C9.55228475,5 10,5.44771525 10,6 L10,10 C10,9.44771525 10.4477153,9 11,9 C11.5522847,9 12,9.44771525 12,10 L12,11 C12,10.4477153 12.4477153,10 13,10 C13.5522847,10 14,10.4477153 14,11 L14,12 C14,11.4477153 14.4477153,11 15,11 C15.5522847,11 16,11.4477153 16,12 L16,16 C16,18.209134 14.209143,19.999991 12.000009,19.999991 C11.2659918,20 10.5993221,20 10,20 C8.25562789,20 6.75375111,18.7687556 6.41165159,17.058258 L5.19611614,11.9805807 C5.10732158,11.5366079 5.39525043,11.1047146 5.83922323,11.01592 C5.89216058,11.0053326 5.94601429,11 6,11 C6.59719029,11 7.12737961,11.3821388 7.31622777,11.9486833 L8,14 L8,6 Z" fill="inherit"/>
</svg>
