<?xml version="1.0" encoding="UTF-8"?>
<svg width="20px" height="20px" viewBox="0 0 20 20" version="1.1" xmlns="http://www.w3.org/2000/svg" xmlns:xlink="http://www.w3.org/1999/xlink">
    <path d="M10,1 C12.7614237,1 15,3.23857625 15,6 L15,9 L10,9 L10,1 Z" fill="currentColor"/>
    <path d="M9.45,1.130523 C7.0027024,1.40387724 5.1,3.47973864 5.1,6 L5.1,8 L9.45,8 L9.45,1.130523 L9.45,1.130523 Z M10.55,1.130523 L10.55,8 L14.9,8 L14.9,6 C14.9,3.47973864 12.9972976,1.40387724 10.55,1.130523 L10.55,1.130523 Z M5.1,9 L5.1,14 C5.1,16.7061953 7.29380473,18.9 10,18.9 C12.7061953,18.9 14.9,16.7061953 14.9,14 L14.9,9 L5.1,9 Z M10,0 C13.3137085,-6.08718376e-16 16,2.6862915 16,6 L16,14 C16,17.3137085 13.3137085,20 10,20 C6.6862915,20 4,17.3137085 4,14 L4,6 C4,2.6862915 6.6862915,6.08718376e-16 10,0 Z" fill="inherit"/>
</svg>
