<?xml version="1.0" encoding="UTF-8"?>
<svg width="20px" height="20px" viewBox="0 0 20 20" version="1.1" xmlns="http://www.w3.org/2000/svg" xmlns:xlink="http://www.w3.org/1999/xlink">
    <path d="M7.72026326,3.43469021 C7.40040739,3.68491118 7.16597202,4.02281125 7.04366924,4.42284563 L4.17475497,3.54573052 C4.48596687,2.52780226 5.09255063,1.68141532 5.87180132,1.07181306 L7.72026326,3.43469021 Z M6.98452476,5.07962475 C7.00603199,5.4851562 7.14835692,5.87100592 7.40589591,6.20064079 L5.04186365,8.04762522 C4.38652944,7.20883569 4.041132,6.22648376 3.9887349,5.23850548 L6.98452476,5.07962475 Z M9.58467966,3.09706893 C9.19837594,2.97181818 8.78714949,2.96641377 8.38711511,3.08871656 L7.51,0.21980229 C8.52792826,-0.0914096107 9.56881216,-0.0618224581 10.5099468,0.243320388 L9.58467966,3.09706893 Z M10.8952355,4.40704449 C10.7898835,4.01484648 10.5704461,3.66701952 10.25,3.39813333 L12.1783628,1.1 C12.9937706,1.78420832 13.5358627,2.67328134 13.792527,3.62877596 L10.8952355,4.40704449 Z M7.95310719,6.67125583 C8.29383066,6.89222152 8.68964613,7.00387501 9.10770396,6.98927611 L9.21240245,9.98744859 C8.14861169,10.024597 7.15085276,9.72661741 6.3207633,9.18828849 L7.95310719,6.67125583 Z M10.5,6.30723366 C10.7608424,5.99597884 10.9199014,5.61672085 10.9563598,5.2 L13.9449439,5.46146723 C13.8521719,6.52185591 13.4348172,7.47586311 12.7993384,8.23415943 L10.5,6.30723366 Z" fill="currentColor"/>
    <path d="M8,5 C8,4.44771525 8.44771525,4 9,4 C9.55228475,4 10,4.44771525 10,5 L10,9 C10,8.44771525 10.4477153,8 11,8 C11.5522847,8 12,8.44771525 12,9 L12,10 C12,9.44771525 12.4477153,9 13,9 C13.5522847,9 14,9.44771525 14,10 L14,11 C14,10.4477153 14.4477153,10 15,10 C15.5522847,10 16,10.4477153 16,11 L16,15 C16,17.209134 14.209143,18.999991 12.000009,18.999991 C11.2659918,19 10.5993221,19 10,19 C8.25562789,19 6.75375111,17.7687556 6.41165159,16.058258 L5.19611614,10.9805807 C5.10732158,10.5366079 5.39525043,10.1047146 5.83922323,10.01592 C5.89216058,10.0053326 5.94601429,10 6,10 C6.59719029,10 7.12737961,10.3821388 7.31622777,10.9486833 L8,13 L8,5 Z" fill="inherit"/>
</svg>
