<?xml version="1.0" encoding="UTF-8"?>
<svg width="20px" height="20px" viewBox="0 0 20 20" version="1.1" xmlns="http://www.w3.org/2000/svg" xmlns:xlink="http://www.w3.org/1999/xlink">
    <path d="M10.873934,4 L14,4 L14,2 L15,1 L19,5 L15,9 L14,8 L14,6 L10.8735405,6 C10.4024659,7.83337491 8.67686556,9.12686 6.72098562,8.99009155 C4.51731891,8.83599616 2.85581307,6.92465233 3.00990845,4.72098562 C3.16400384,2.51731891 5.07534767,0.855813065 7.27901438,1.00990845 C9.04063914,1.13309326 10.4557959,2.37924807 10.873934,4 Z M6.86049281,6.99504577 C7.96232617,7.07209347 8.91799808,6.24134055 8.99504577,5.13950719 C9.07209347,4.03767383 8.24134055,3.08200192 7.13950719,3.00495423 C6.03767383,2.92790653 5.08200192,3.75865945 5.00495423,4.86049281 C4.92790653,5.96232617 5.75865945,6.91799808 6.86049281,6.99504577 Z" fill="currentColor"></path>
    <path d="M6,5 C6,4.44771525 6.44771525,4 7,4 C7.55228475,4 8,4.44771525 8,5 L8,9 C8,8.44771525 8.44771525,8 9,8 C9.55228475,8 10,8.44771525 10,9 L10,10 C10,9.44771525 10.4477153,9 11,9 C11.5522847,9 12,9.44771525 12,10 L12,11 C12,10.4477153 12.4477153,10 13,10 C13.5522847,10 14,10.4477153 14,11 L14,15 C14,17.209134 12.209143,18.999991 10.000009,18.999991 C9.26599179,19 8.59932211,19 8,19 C6.25562789,19 4.75375111,17.7687556 4.41165159,16.058258 L3.19611614,10.9805807 C3.10732158,10.5366079 3.39525043,10.1047146 3.83922323,10.01592 C3.89216058,10.0053326 3.94601429,10 4,10 C4.59719029,10 5.12737961,10.3821388 5.31622777,10.9486833 L6,13 L6,5 Z" fill="inherit"></path>
</svg>
