<?xml version="1.0" encoding="UTF-8"?>
<!DOCTYPE svg PUBLIC "-//W3C//DTD SVG 1.1//EN" "http://www.w3.org/Graphics/SVG/1.1/DTD/svg11.dtd">
<svg version="1.1" xmlns="http://www.w3.org/2000/svg" xmlns:xlink="http://www.w3.org/1999/xlink" x="0" y="0" width="60" height="60" viewBox="0 0 60 60">
      <path d="M29.5,12 L29.5,27 L41,27 C41,17 37,12 29.5,12 z" fill="currentColor"/>
      <path d="M29.5,12 L29.5,27 L18,27 C18,17 23,12 29.5,12 z" fill="inherit"/>
      <path d="M29.5,11 C36.404,11 42,16.596 42,23.5 L42,41.5 C42,48.404 36.404,54 29.5,54 C22.596,54 17,48.404 17,41.5 L17,23.5 C17,16.596 22.596,11 29.5,11 z M19,28 L19,41.5 C19,47.299 23.701,52 29.5,52 C35.299,52 40,47.299 40,41.5 L40,28 L19,28 z M30.573,13.054 L30.5,13.05 L30.5,26 L40,26 L40,23.5 C39.823,17.619 36.075,14.176 30.573,13.054 z M19,26 L28.5,26 L28.5,13.05 C22.988,13.815 19.279,17.971 19,23.5 L19,26 z" fill="#000001"/>
</svg>
