<?xml version="1.0" encoding="UTF-8"?>
<svg width="20px" height="20px" viewBox="0 0 20 20" version="1.1" xmlns="http://www.w3.org/2000/svg" xmlns:xlink="http://www.w3.org/1999/xlink">
    <path d="M10,1.1 C7.29380473,1.1 5.1,3.29380473 5.1,6 L5.1,14 C5.1,16.7061953 7.29380473,18.9 10,18.9 C12.7061953,18.9 14.9,16.7061953 14.9,14 L14.9,6 C14.9,3.29380473 12.7061953,1.1 10,1.1 Z M10,0 C13.3137085,-6.08718376e-16 16,2.6862915 16,6 L16,14 C16,17.3137085 13.3137085,20 10,20 C6.6862915,20 4,17.3137085 4,14 L4,6 C4,2.6862915 6.6862915,6.08718376e-16 10,0 Z M10,3.5 C9.44771525,3.5 9,3.94771525 9,4.5 L9,8.5 C9,9.05228475 9.44771525,9.5 10,9.5 C10.5522847,9.5 11,9.05228475 11,8.5 L11,4.5 C11,3.94771525 10.5522847,3.5 10,3.5 Z M10,2.5 C11.1045695,2.5 12,3.3954305 12,4.5 L12,8.5 C12,9.6045695 11.1045695,10.5 10,10.5 C8.8954305,10.5 8,9.6045695 8,8.5 L8,4.5 C8,3.3954305 8.8954305,2.5 10,2.5 Z" fill="inherit"></path>
    <path d="M10,3.5 C10.5522847,3.5 11,3.94771525 11,4.5 L11,8.5 C11,9.05228475 10.5522847,9.5 10,9.5 C9.44771525,9.5 9,9.05228475 9,8.5 L9,4.5 C9,3.94771525 9.44771525,3.5 10,3.5 Z" fill="currentColor"></path>
</svg>
