<?xml version="1.0" encoding="UTF-8"?>
<svg width="20px" height="20px" viewBox="0 0 20 20" version="1.1" xmlns="http://www.w3.org/2000/svg" xmlns:xlink="http://www.w3.org/1999/xlink">
    <path d="M8.65123202,9.98761443 C5.89664863,9.7949952 3.81976633,7.40581541 4.01238557,4.65123202 C4.2050048,1.89664863 6.59418459,-0.180233669 9.34876798,0.0123855661 C12.1033514,0.205004801 14.1802337,2.59418459 13.9876144,5.34876798 C13.7949952,8.10335137 11.4058154,10.1802337 8.65123202,9.98761443 Z M8.86049281,6.99504577 C9.96232617,7.07209347 10.9179981,6.24134055 10.9950458,5.13950719 C11.0720935,4.03767383 10.2413405,3.08200192 9.13950719,3.00495423 C8.03767383,2.92790653 7.08200192,3.75865945 7.00495423,4.86049281 C6.92790653,5.96232617 7.75865945,6.91799808 8.86049281,6.99504577 Z" fill="currentColor"/>
    <path d="M8,5 C8,4.44771525 8.44771525,4 9,4 C9.55228475,4 10,4.44771525 10,5 L10,9 C10,8.44771525 10.4477153,8 11,8 C11.5522847,8 12,8.44771525 12,9 L12,10 C12,9.44771525 12.4477153,9 13,9 C13.5522847,9 14,9.44771525 14,10 L14,11 C14,10.4477153 14.4477153,10 15,10 C15.5522847,10 16,10.4477153 16,11 L16,15 C16,17.209134 14.209143,18.999991 12.000009,18.999991 C11.2659918,19 10.5993221,19 10,19 C8.25562789,19 6.75375111,17.7687556 6.41165159,16.058258 L5.19611614,10.9805807 C5.10732158,10.5366079 5.39525043,10.1047146 5.83922323,10.01592 C5.89216058,10.0053326 5.94601429,10 6,10 C6.59719029,10 7.12737961,10.3821388 7.31622777,10.9486833 L8,13 L8,5 Z" fill="inherit"/>
</svg>
