<?xml version="1.0" encoding="UTF-8"?>
<svg width="20px" height="20px" viewBox="0 0 20 20" version="1.1" xmlns="http://www.w3.org/2000/svg" xmlns:xlink="http://www.w3.org/1999/xlink">
    <path d="M6.72026326,3.43469021 C6.40040739,3.68491118 6.16597202,4.02281125 6.04366924,4.42284563 L3.17475497,3.54573052 C3.48596687,2.52780226 4.09255063,1.68141532 4.87180132,1.07181306 L6.72026326,3.43469021 Z M5.98452476,5.07962475 C6.00603199,5.4851562 6.14835692,5.87100592 6.40589591,6.20064079 L4.04186365,8.04762522 C3.38652944,7.20883569 3.041132,6.22648376 2.9887349,5.23850548 L5.98452476,5.07962475 Z M8.58467966,3.09706893 C8.19837594,2.97181818 7.78714949,2.96641377 7.38711511,3.08871656 L6.51,0.21980229 C7.52792826,-0.0914096107 8.56881216,-0.0618224581 9.5099468,0.243320388 L8.58467966,3.09706893 Z M9.89523551,4.40704449 C9.78988354,4.01484648 9.57044608,3.66701952 9.25,3.39813333 L11.1783628,1.1 C11.9937706,1.78420832 12.5358627,2.67328134 12.792527,3.62877596 L9.89523551,4.40704449 Z M6.95310719,6.67125583 C7.29383066,6.89222152 7.68964613,7.00387501 8.10770396,6.98927611 L8.21240245,9.98744859 C7.14861169,10.024597 6.15085276,9.72661741 5.3207633,9.18828849 L6.95310719,6.67125583 Z M9.5,6.30723366 C9.76084239,5.99597884 9.91990141,5.61672085 9.95635976,5.2 L12.9449439,5.46146723 C12.8521719,6.52185591 12.4348172,7.47586311 11.7993384,8.23415943 L9.5,6.30723366 Z" fill="currentColor"/>
    <path d="M7,13 L7,5 C7,4.44771525 7.44771525,4 8,4 C8.55228475,4 9,4.44771525 9,5 L9,9 C9,8.44771525 9.44771525,8 10,8 C10.5522847,8 11,8.44771525 11,9 L11,10 C11,9.44771525 11.4477153,9 12,9 C12.5522847,9 13,9.44771525 13,10 L13,11 C13,10.4477153 13.4477153,10 14,10 C14.5522847,10 15,10.4477153 15,11 L15,16 C15,18.209134 13.209143,19.999991 11.000009,19.999991 C10.2659918,20 9.59932211,20 9,20 C7.25562789,20 5.75375111,18.7687556 5.41165159,17.058258 L4.19611614,10.9805807 C4.10732158,10.5366079 4.39525043,10.1047146 4.83922323,10.01592 C4.89216058,10.0053326 4.94601429,10 5,10 C5.59719029,10 6.12737961,10.3821388 6.31622777,10.9486833 L7,13 L7,13 Z" fill="inherit"/>
</svg>
