<?xml version="1.0" encoding="UTF-8"?>
<svg width="20px" height="20px" viewBox="0 0 20 20" version="1.1" xmlns="http://www.w3.org/2000/svg" xmlns:xlink="http://www.w3.org/1999/xlink">
    <path d="M8.72098562,8.99009155 C6.51731891,8.83599616 4.85581307,6.92465233 5.00990845,4.72098562 C5.16400384,2.51731891 7.07534767,0.855813065 9.27901438,1.00990845 C11.4826811,1.16400384 13.1441869,3.07534767 12.9900915,5.27901438 C12.8359962,7.48268109 10.9246523,9.14418693 8.72098562,8.99009155 Z M8.86049281,6.99504577 C9.96232617,7.07209347 10.9179981,6.24134055 10.9950458,5.13950719 C11.0720935,4.03767383 10.2413405,3.08200192 9.13950719,3.00495423 C8.03767383,2.92790653 7.08200192,3.75865945 7.00495423,4.86049281 C6.92790653,5.96232617 7.75865945,6.91799808 8.86049281,6.99504577 Z" fill="currentColor"></path>
    <path d="M8,5 C8,4.44771525 8.44771525,4 9,4 C9.55228475,4 10,4.44771525 10,5 L10,9 C10,8.44771525 10.4477153,8 11,8 C11.5522847,8 12,8.44771525 12,9 L12,10 C12,9.44771525 12.4477153,9 13,9 C13.5522847,9 14,9.44771525 14,10 L14,11 C14,10.4477153 14.4477153,10 15,10 C15.5522847,10 16,10.4477153 16,11 L16,15 C16,17.209134 14.209143,18.999991 12.000009,18.999991 C11.2659918,19 10.5993221,19 10,19 C8.25562789,19 6.75375111,17.7687556 6.41165159,16.058258 L5.19611614,10.9805807 C5.10732158,10.5366079 5.39525043,10.1047146 5.83922323,10.01592 C5.89216058,10.0053326 5.94601429,10 6,10 C6.59719029,10 7.12737961,10.3821388 7.31622777,10.9486833 L8,13 L8,5 Z" fill="inherit"></path>
</svg>
