<svg xmlns="http://www.w3.org/2000/svg" viewBox="0 0 48 48.00012" x="0px" y="0px"><title>Asset 578</title><g data-name="Layer 2"><g><path d="M46,26.00012a2.00006,2.00006,0,0,0-2,2v3l-12-9V17.47961A2.49323,2.49323,0,0,0,28,15.507V10.63a2.99982,2.99982,0,0,0-.21246-1.10888L25.096.74377a1.17942,1.17942,0,0,0-2.192,0L20.21246,9.52112A2.99982,2.99982,0,0,0,20,10.63v4.877a2.49323,2.49323,0,0,0-4,1.97265v4.52051l-12,9v-3a2,2,0,0,0-4,0v14a2,2,0,0,0,4,0v-2l16-4v5l-4.44916,3.811a1.86807,1.86807,0,0,0,1.32093,3.189l7.11682-1,7.13964,1a1.86807,1.86807,0,0,0,1.32093-3.189L28,41.00012v-5l16,4v2a2,2,0,1,0,4,0v-14A2.00006,2.00006,0,0,0,46,26.00012Z"></path></g></g></svg>