<svg xmlns="http://www.w3.org/2000/svg" viewBox="0 0 48 44" x="0px" y="0px"><title>Asset 593</title><g data-name="Layer 2"><g><path d="M46,0H2A2.00583,2.00583,0,0,0,0,2V44H9.97V21A14.03006,14.03006,0,0,1,38.03,21V44H48V2A2.00583,2.00583,0,0,0,46,0Z"></path><path d="M32,33V29a2.9959,2.9959,0,0,0-3-3H19a2.9959,2.9959,0,0,0-3,3v4a3.01739,3.01739,0,0,0-3,3v2a2.9959,2.9959,0,0,0,3,3v1a2,2,0,0,0,4,0V41h8v1a2,2,0,0,0,4,0V41a2.9959,2.9959,0,0,0,3-3V36a3.01739,3.01739,0,0,0-3-3ZM19,30a1.00308,1.00308,0,0,1,1-1h8a1.00308,1.00308,0,0,1,1,1v3H19Zm-1.5,5A1.5,1.5,0,1,1,16,36.5,1.49793,1.49793,0,0,1,17.5,35Zm13,3A1.5,1.5,0,1,1,32,36.5,1.49793,1.49793,0,0,1,30.5,38Z"></path></g></g></svg>