<svg xmlns="http://www.w3.org/2000/svg" viewBox="0 0 48 47.99975" x="0px" y="0px"><title>Asset 579</title><g data-name="Layer 2"><g><path d="M3.98126,35.99975H16.02032A.97953.97953,0,0,0,17,35.02026V16.99975a.97964.97964,0,0,0-1.7951-.543L3.16583,34.47729A.97964.97964,0,0,0,3.98126,35.99975Z"></path><path d="M20.00049,35.99975H43.9928a1.00432,1.00432,0,0,0,1.007-1.01855C44.57971,16.59936,32.84259.76391,20.033.00171a.99244.99244,0,0,0-1.033,1V35.00122A.99964.99964,0,0,0,20.00049,35.99975Z"></path><path d="M46,38.99975H2a2.00006,2.00006,0,0,0-2,2,6.99988,6.99988,0,0,0,7,7H41a6.99988,6.99988,0,0,0,7-7A2.00006,2.00006,0,0,0,46,38.99975Z"></path></g></g></svg>