<svg xmlns="http://www.w3.org/2000/svg" xmlns:xlink="http://www.w3.org/1999/xlink" version="1.1" x="0px" y="0px" viewBox="0 0 100 100" enable-background="new 0 0 100 100" xml:space="preserve"><path d="M91.993,13.647C59.323,13.38,52.267,4.858,38.36,4.858c-16.549,0-26.263,4.551-30.43,7.116  c-3.086,1.66-2.37-1.537-2.37-2.65c0-1.12,1.836-2.207,1.836-2.207c3.828-2.48,13.672-7.448,30.963-7.448  c13.932,0,21.002,8.555,53.79,8.789c0,0,2.5-0.254,2.5,1.979C94.649,12.67,94.493,13.647,91.993,13.647z"></path><path d="M94.649,96.459c0-2.232-2.5-1.979-2.5-1.979c-32.787-0.241-39.857-8.789-53.79-8.789c-17.292,0-27.135,4.967-30.963,7.447  c0,0-1.836,1.088-1.836,2.207c0,1.113-0.716,4.311,2.37,2.637c4.167-2.552,13.88-7.103,30.43-7.115  c13.907,0,20.963,8.535,53.633,8.802C94.493,99.669,94.649,98.692,94.649,96.459z"></path><path d="M94.649,21.056c0-2.233-2.5-1.979-2.5-1.979c-32.787-0.241-39.857-8.789-53.79-8.789c-17.292,0-27.135,4.967-30.963,7.448  c0,0-1.836,1.087-1.836,2.207v64.648c0,1.113-0.716,4.31,2.37,2.649c4.167-2.571,13.88-7.115,30.43-7.115  c13.907,0,20.963,8.521,53.633,8.789c2.5,0,2.656-0.977,2.656-3.21V21.056z"></path></svg>