<svg xmlns="http://www.w3.org/2000/svg" xmlns:xlink="http://www.w3.org/1999/xlink" version="1.1" x="0px" y="0px" viewBox="0 0 59.987 100" enable-background="new 0 0 59.987 100" xml:space="preserve"><path d="M38.268,14.401v4.597H10.886v-4.597h2.643V1.693l0,0C13.529,0.749,18.477,0,24.57,0s11.029,0.749,11.029,1.693l0,0v12.708  H38.268z"></path><path d="M51.966,31.458l-13.255-9.258H10.677L0.886,33.77L0,100h59.635l0.352-40.944L51.966,31.458z M43.412,60.944l-5.208-17.989  c-0.117-8.574,4.531-8.268,7.435-6.146c2.019,1.497,2.617,4.121,2.617,4.121l2.409,19.818  C47.435,67.376,43.412,60.944,43.412,60.944z"></path></svg>