<?xml version="1.0" encoding="utf-8"?><svg xmlns="http://www.w3.org/2000/svg" xmlns:xlink="http://www.w3.org/1999/xlink"><symbol viewBox="0 0 512 512" id="community-aparat" xmlns="http://www.w3.org/2000/svg"><path fill="currentColor" d="M150.156.012c-11.08.186-22.178 2.656-33.611 8.275-33.26 16.346-44.937 54.724-52.367 94.524 45.998-46.907 79.612-73.204 151.44-84.93C192.397 7.62 171.31-.344 150.155.01zM253.83 31.74c-123.84 0-224.328 100.92-224.328 225.293 0 124.374 100.488 225.295 224.328 225.295s224.328-100.921 224.328-225.295C478.158 132.66 377.67 31.74 253.83 31.74zm156.748 37.313c55.551 47.262 71.12 86.706 86.334 150.67 14.153-37.668 23.707-76.757 3.54-108.028-20.17-30.916-51.306-37.667-89.874-42.642zM191.91 94.993c34.675 0 62.983 28.073 62.983 62.898 0 34.824-28.308 62.896-62.983 62.896s-62.627-28.072-62.627-62.896c0-34.825 27.952-62.899 62.627-62.899zm158.87 30.915c34.675 0 62.628 28.43 62.628 63.254 0 34.825-27.953 62.897-62.629 62.897-34.675 0-62.627-28.072-62.627-62.897s27.952-63.254 62.627-63.254zm-97.657 105.186c15.922 0 29.014 12.792 29.014 28.783 0 15.99-13.092 28.783-29.014 28.783-15.568 0-28.66-12.792-28.66-28.783 0-15.991 13.092-28.783 28.66-28.783zM158.65 263.43c34.676 0 62.63 28.43 62.63 63.254s-27.954 62.898-62.63 62.898c-34.675 0-62.627-28.074-62.627-62.898 0-34.825 27.952-63.254 62.627-63.254zm160.993 30.916c34.675 0 62.982 28.073 62.982 62.898s-28.307 62.897-62.982 62.897c-34.676 0-62.627-28.072-62.627-62.897s27.951-62.898 62.627-62.898zm-307.123 6.04c-12.738 38.024-20.523 77.823.707 108.028 21.583 30.205 53.075 35.536 91.642 38.734-57.32-44.774-74.658-83.864-92.35-146.761zm435.21 105.542c-43.874 48.683-76.428 76.046-147.902 90.615 36.09 14.214 66.876 23.453 99.428 5.686 32.552-17.413 42.813-56.502 48.474-96.301z"/></symbol><symbol class="bsvg-inline--fa bfa-discord" viewBox="0 0 640 512" id="community-discord" xmlns="http://www.w3.org/2000/svg"><path fill="currentColor" d="M524.531 69.836a1.5 1.5 0 0 0-.764-.7A485.065 485.065 0 0 0 404.081 32.03a1.816 1.816 0 0 0-1.923.91 337.461 337.461 0 0 0-14.9 30.6 447.848 447.848 0 0 0-134.426 0 309.541 309.541 0 0 0-15.135-30.6 1.89 1.89 0 0 0-1.924-.91 483.689 483.689 0 0 0-119.688 37.107 1.712 1.712 0 0 0-.788.676C39.068 183.651 18.186 294.69 28.43 404.354a2.016 2.016 0 0 0 .765 1.375 487.666 487.666 0 0 0 146.825 74.189 1.9 1.9 0 0 0 2.063-.676A348.2 348.2 0 0 0 208.12 430.4a1.86 1.86 0 0 0-1.019-2.588 321.173 321.173 0 0 1-45.868-21.853 1.885 1.885 0 0 1-.185-3.126 251.047 251.047 0 0 0 9.109-7.137 1.819 1.819 0 0 1 1.9-.256c96.229 43.917 200.41 43.917 295.5 0a1.812 1.812 0 0 1 1.924.233 234.533 234.533 0 0 0 9.132 7.16 1.884 1.884 0 0 1-.162 3.126 301.407 301.407 0 0 1-45.89 21.83 1.875 1.875 0 0 0-1 2.611 391.055 391.055 0 0 0 30.014 48.815 1.864 1.864 0 0 0 2.063.7A486.048 486.048 0 0 0 610.7 405.729a1.882 1.882 0 0 0 .765-1.352c12.264-126.783-20.532-236.912-86.934-334.541ZM222.491 337.58c-28.972 0-52.844-26.587-52.844-59.239s23.409-59.241 52.844-59.241c29.665 0 53.306 26.82 52.843 59.239 0 32.654-23.41 59.241-52.843 59.241Zm195.38 0c-28.971 0-52.843-26.587-52.843-59.239s23.409-59.241 52.843-59.241c29.667 0 53.307 26.82 52.844 59.239 0 32.654-23.177 59.241-52.844 59.241Z"/></symbol><symbol class="csvg-inline--fa cfa-discourse" viewBox="0 0 448 512" id="community-discourse" xmlns="http://www.w3.org/2000/svg"><path fill="currentColor" d="M225.9 32C103.3 32 0 130.5 0 252.1 0 256 .1 480 .1 480l225.8-.2c122.7 0 222.1-102.3 222.1-223.9C448 134.3 348.6 32 225.9 32zM224 384c-19.4 0-37.9-4.3-54.4-12.1L88.5 392l22.9-75c-9.8-18.1-15.4-38.9-15.4-61 0-70.7 57.3-128 128-128s128 57.3 128 128-57.3 128-128 128z"/></symbol><symbol class="dsvg-inline--fa dfa-facebook" viewBox="0 0 512 512" id="community-facebook" xmlns="http://www.w3.org/2000/svg"><path fill="currentColor" d="M504 256C504 119 393 8 256 8S8 119 8 256c0 123.78 90.69 226.38 209.25 245V327.69h-63V256h63v-54.64c0-62.15 37-96.48 93.67-96.48 27.14 0 55.52 4.84 55.52 4.84v61h-31.28c-30.8 0-40.41 19.12-40.41 38.73V256h68.78l-11 71.69h-57.78V501C413.31 482.38 504 379.78 504 256z"/></symbol><symbol class="esvg-inline--fa efa-comments" viewBox="0 0 640 512" id="community-forum" xmlns="http://www.w3.org/2000/svg"><path fill="currentColor" d="M208 352c114.9 0 208-78.8 208-176S322.9 0 208 0 0 78.8 0 176c0 38.6 14.7 74.3 39.6 103.4-3.5 9.4-8.7 17.7-14.2 24.7-4.8 6.2-9.7 11-13.3 14.3-1.8 1.6-3.3 2.9-4.3 3.7-.5.4-.9.7-1.1.8l-.2.2C1 327.2-1.4 334.4.8 340.9S9.1 352 16 352c21.8 0 43.8-5.6 62.1-12.5 9.2-3.5 17.8-7.4 25.3-11.4C134.1 343.3 169.8 352 208 352zm240-176c0 112.3-99.1 196.9-216.5 207 24.3 74.4 104.9 129 200.5 129 38.2 0 73.9-8.7 104.7-23.9 7.5 4 16 7.9 25.2 11.4 18.3 6.9 40.3 12.5 62.1 12.5 6.9 0 13.1-4.5 15.2-11.1 2.1-6.6-.2-13.8-5.8-17.9l-.2-.2c-.2-.2-.6-.4-1.1-.8-1-.8-2.5-2-4.3-3.7-3.6-3.3-8.5-8.1-13.3-14.3-5.5-7-10.7-15.4-14.2-24.7 24.9-29 39.6-64.7 39.6-103.4 0-92.8-84.9-168.9-192.6-175.5.4 5.1.6 10.3.6 15.5z"/></symbol><symbol class="fsvg-inline--fa ffa-github" viewBox="0 0 496 512" id="community-github" xmlns="http://www.w3.org/2000/svg"><path fill="currentColor" d="M165.9 397.4c0 2-2.3 3.6-5.2 3.6-3.3.3-5.6-1.3-5.6-3.6 0-2 2.3-3.6 5.2-3.6 3-.3 5.6 1.3 5.6 3.6zm-31.1-4.5c-.7 2 1.3 4.3 4.3 4.9 2.6 1 5.6 0 6.2-2s-1.3-4.3-4.3-5.2c-2.6-.7-5.5.3-6.2 2.3zm44.2-1.7c-2.9.7-4.9 2.6-4.6 4.9.3 2 2.9 3.3 5.9 2.6 2.9-.7 4.9-2.6 4.6-4.6-.3-1.9-3-3.2-5.9-2.9zM244.8 8C106.1 8 0 113.3 0 252c0 110.9 69.8 205.8 169.5 239.2 12.8 2.3 17.3-5.6 17.3-12.1 0-6.2-.3-40.4-.3-61.4 0 0-70 15-84.7-29.8 0 0-11.4-29.1-27.8-36.6 0 0-22.9-15.7 1.6-15.4 0 0 24.9 2 38.6 25.8 21.9 38.6 58.6 27.5 72.9 20.9 2.3-16 8.8-27.1 16-33.7-55.9-6.2-112.3-14.3-112.3-110.5 0-27.5 7.6-41.3 23.6-58.9-2.6-6.5-11.1-33.3 2.6-67.9 20.9-6.5 69 27 69 27 20-5.6 41.5-8.5 62.8-8.5s42.8 2.9 62.8 8.5c0 0 48.1-33.6 69-27 13.7 34.7 5.2 61.4 2.6 67.9 16 17.7 25.8 31.5 25.8 58.9 0 96.5-58.9 104.2-114.8 110.5 9.2 7.9 17 22.9 17 46.4 0 33.7-.3 75.4-.3 83.6 0 6.5 4.6 14.4 17.3 12.1C428.2 457.8 496 362.9 496 252 496 113.3 383.5 8 244.8 8zM97.2 352.9c-1.3 1-1 3.3.7 5.2 1.6 1.6 3.9 2.3 5.2 1 1.3-1 1-3.3-.7-5.2-1.6-1.6-3.9-2.3-5.2-1zm-10.8-8.1c-.7 1.3.3 2.9 2.3 3.9 1.6 1 3.6.7 4.3-.7.7-1.3-.3-2.9-2.3-3.9-2-.6-3.6-.3-4.3.7zm32.4 35.6c-1.6 1.3-1 4.3 1.3 6.2 2.3 2.3 5.2 2.6 6.5 1 1.3-1.3.7-4.3-1.3-6.2-2.2-2.3-5.2-2.6-6.5-1zm-11.4-14.7c-1.6 1-1.6 3.6 0 5.9 1.6 2.3 4.3 3.3 5.6 2.3 1.6-1.3 1.6-3.9 0-6.2-1.4-2.3-4-3.3-5.6-2z"/></symbol><symbol class="gsvg-inline--fa gfa-gitlab" viewBox="0 0 512 512" id="community-gitlab" xmlns="http://www.w3.org/2000/svg"><path fill="currentColor" d="m503.5 204.6-.7-1.8-69.7-181.78c-1.4-3.57-3.9-6.59-7.2-8.64-2.4-1.55-5.1-2.515-8-2.81-2.9-.295-5.7.083-8.4 1.11-2.7 1.02-5.1 2.66-7.1 4.78-1.9 2.12-3.3 4.67-4.1 7.44l-47 144H160.8l-47.1-144c-.8-2.77-2.2-5.31-4.1-7.43-2-2.12-4.4-3.75-7.1-4.77a18.1 18.1 0 0 0-8.38-1.113 18.4 18.4 0 0 0-8.04 2.793 18.09 18.09 0 0 0-7.16 8.64L9.267 202.8l-.724 1.8a129.57 129.57 0 0 0-3.52 82c7.747 26.9 24.047 50.7 46.447 67.6l.27.2.59.4 105.97 79.5 52.6 39.7 32 24.2c3.7 1.9 8.3 4.3 13 4.3 4.7 0 9.3-2.4 13-4.3l32-24.2 52.6-39.7 106.7-79.9.3-.3c22.4-16.9 38.7-40.6 45.6-67.5 8.6-27 7.4-55.8-2.6-82z"/></symbol><symbol class="hsvg-inline--fa hfa-users" viewBox="0 0 640 512" id="community-group" xmlns="http://www.w3.org/2000/svg"><path fill="currentColor" d="M144 160c-44.2 0-80-35.8-80-80S99.8 0 144 0s80 35.8 80 80-35.8 80-80 80zm368 0c-44.2 0-80-35.8-80-80s35.8-80 80-80 80 35.8 80 80-35.8 80-80 80zM0 298.7C0 239.8 47.8 192 106.7 192h42.7c15.9 0 31 3.5 44.6 9.7-1.3 7.2-1.9 14.7-1.9 22.3 0 38.2 16.8 72.5 43.3 96H21.3C9.6 320 0 310.4 0 298.7zM405.3 320h-.7c26.6-23.5 43.3-57.8 43.3-96 0-7.6-.7-15-1.9-22.3 13.6-6.3 28.7-9.7 44.6-9.7h42.7c58.9 0 106.7 47.8 106.7 106.7 0 11.8-9.6 21.3-21.3 21.3H405.3zm10.7-96c0 53-43 96-96 96s-96-43-96-96 43-96 96-96 96 43 96 96zM128 485.3c0-73.6 59.7-133.3 133.3-133.3h117.4c73.6 0 133.3 59.7 133.3 133.3 0 14.7-11.9 26.7-26.7 26.7H154.7c-14.7 0-26.7-11.9-26.7-26.7z"/></symbol><symbol class="isvg-inline--fa ifa-keyboard" viewBox="0 0 576 512" id="community-irc" xmlns="http://www.w3.org/2000/svg"><path fill="currentColor" d="M64 64C28.7 64 0 92.7 0 128v256c0 35.3 28.7 64 64 64h448c35.3 0 64-28.7 64-64V128c0-35.3-28.7-64-64-64H64zm16 64h32c8.8 0 16 7.2 16 16v32c0 8.8-7.2 16-16 16H80c-8.8 0-16-7.2-16-16v-32c0-8.8 7.2-16 16-16zM64 240c0-8.8 7.2-16 16-16h32c8.8 0 16 7.2 16 16v32c0 8.8-7.2 16-16 16H80c-8.8 0-16-7.2-16-16v-32zm16 80h32c8.8 0 16 7.2 16 16v32c0 8.8-7.2 16-16 16H80c-8.8 0-16-7.2-16-16v-32c0-8.8 7.2-16 16-16zm80-176c0-8.8 7.2-16 16-16h32c8.8 0 16 7.2 16 16v32c0 8.8-7.2 16-16 16h-32c-8.8 0-16-7.2-16-16v-32zm16 80h32c8.8 0 16 7.2 16 16v32c0 8.8-7.2 16-16 16h-32c-8.8 0-16-7.2-16-16v-32c0-8.8 7.2-16 16-16zm-16 112c0-8.8 7.2-16 16-16h224c8.8 0 16 7.2 16 16v32c0 8.8-7.2 16-16 16H176c-8.8 0-16-7.2-16-16v-32zm112-208h32c8.8 0 16 7.2 16 16v32c0 8.8-7.2 16-16 16h-32c-8.8 0-16-7.2-16-16v-32c0-8.8 7.2-16 16-16zm-16 112c0-8.8 7.2-16 16-16h32c8.8 0 16 7.2 16 16v32c0 8.8-7.2 16-16 16h-32c-8.8 0-16-7.2-16-16v-32zm112-112h32c8.8 0 16 7.2 16 16v32c0 8.8-7.2 16-16 16h-32c-8.8 0-16-7.2-16-16v-32c0-8.8 7.2-16 16-16zm-16 112c0-8.8 7.2-16 16-16h32c8.8 0 16 7.2 16 16v32c0 8.8-7.2 16-16 16h-32c-8.8 0-16-7.2-16-16v-32zm112-112h32c8.8 0 16 7.2 16 16v32c0 8.8-7.2 16-16 16h-32c-8.8 0-16-7.2-16-16v-32c0-8.8 7.2-16 16-16zm-16 112c0-8.8 7.2-16 16-16h32c8.8 0 16 7.2 16 16v32c0 8.8-7.2 16-16 16h-32c-8.8 0-16-7.2-16-16v-32zm16 80h32c8.8 0 16 7.2 16 16v32c0 8.8-7.2 16-16 16h-32c-8.8 0-16-7.2-16-16v-32c0-8.8 7.2-16 16-16z"/></symbol><symbol class="jsvg-inline--fa jfa-linkedin" viewBox="0 0 448 512" id="community-linkedin" xmlns="http://www.w3.org/2000/svg"><path fill="currentColor" d="M416 32H31.9C14.3 32 0 46.5 0 64.3v383.4C0 465.5 14.3 480 31.9 480H416c17.6 0 32-14.5 32-32.3V64.3c0-17.8-14.4-32.3-32-32.3zM135.4 416H69V202.2h66.5V416zm-33.2-243c-21.3 0-38.5-17.3-38.5-38.5S80.9 96 102.2 96c21.2 0 38.5 17.3 38.5 38.5 0 21.3-17.2 38.5-38.5 38.5zm282.1 243h-66.4V312c0-24.8-.5-56.7-34.5-56.7-34.6 0-39.9 27-39.9 54.9V416h-66.4V202.2h63.7v29.2h.9c8.9-16.8 30.6-34.5 62.9-34.5 67.2 0 79.7 44.3 79.7 101.9V416z"/></symbol><symbol class="ksvg-inline--fa kfa-at" viewBox="0 0 512 512" id="community-mailinglist" xmlns="http://www.w3.org/2000/svg"><path fill="currentColor" d="M256 64C150 64 64 150 64 256s86 192 192 192c17.7 0 32 14.3 32 32s-14.3 32-32 32C114.6 512 0 397.4 0 256S114.6 0 256 0s256 114.6 256 256v32c0 53-43 96-96 96-29.3 0-55.6-13.2-73.2-33.9-22.8 21-53.3 33.9-86.8 33.9-70.7 0-128-57.3-128-128s57.3-128 128-128c27.9 0 53.7 8.9 74.7 24.1 5.7-5 13.1-8.1 21.3-8.1 17.7 0 32 14.3 32 32v112c0 17.7 14.3 32 32 32s32-14.3 32-32v-32c0-106-86-192-192-192zm64 192c0-35.3-28.7-64-64-64s-64 28.7-64 64 28.7 64 64 64 64-28.7 64-64z"/></symbol><symbol class="lsvg-inline--fa lfa-comments" viewBox="0 0 640 512" id="community-matrix" xmlns="http://www.w3.org/2000/svg"><path fill="currentColor" d="M208 352c114.9 0 208-78.8 208-176S322.9 0 208 0 0 78.8 0 176c0 38.6 14.7 74.3 39.6 103.4-3.5 9.4-8.7 17.7-14.2 24.7-4.8 6.2-9.7 11-13.3 14.3-1.8 1.6-3.3 2.9-4.3 3.7-.5.4-.9.7-1.1.8l-.2.2C1 327.2-1.4 334.4.8 340.9S9.1 352 16 352c21.8 0 43.8-5.6 62.1-12.5 9.2-3.5 17.8-7.4 25.3-11.4C134.1 343.3 169.8 352 208 352zm240-176c0 112.3-99.1 196.9-216.5 207 24.3 74.4 104.9 129 200.5 129 38.2 0 73.9-8.7 104.7-23.9 7.5 4 16 7.9 25.2 11.4 18.3 6.9 40.3 12.5 62.1 12.5 6.9 0 13.1-4.5 15.2-11.1 2.1-6.6-.2-13.8-5.8-17.9l-.2-.2c-.2-.2-.6-.4-1.1-.8-1-.8-2.5-2-4.3-3.7-3.6-3.3-8.5-8.1-13.3-14.3-5.5-7-10.7-15.4-14.2-24.7 24.9-29 39.6-64.7 39.6-103.4 0-92.8-84.9-168.9-192.6-175.5.4 5.1.6 10.3.6 15.5z"/></symbol><symbol class="msvg-inline--fa mfa-meetup" viewBox="0 0 512 512" id="community-meetup" xmlns="http://www.w3.org/2000/svg"><path fill="currentColor" d="M99 414.3c1.1 5.7-2.3 11.1-8 12.3-5.4 1.1-10.9-2.3-12-8-1.1-5.4 2.3-11.1 7.7-12.3 5.4-1.2 11.1 2.3 12.3 8zm143.1 71.4c-6.3 4.6-8 13.4-3.7 20 4.6 6.6 13.4 8.3 20 3.7 6.3-4.6 8-13.4 3.4-20-4.2-6.5-13.1-8.3-19.7-3.7zm-86-462.3c6.3-1.4 10.3-7.7 8.9-14-1.1-6.6-7.4-10.6-13.7-9.1-6.3 1.4-10.3 7.7-9.1 14 1.4 6.6 7.6 10.6 13.9 9.1zM34.4 226.3c-10-6.9-23.7-4.3-30.6 6-6.9 10-4.3 24 5.7 30.9 10 7.1 23.7 4.6 30.6-5.7 6.9-10.4 4.3-24.1-5.7-31.2zm272-170.9c10.6-6.3 13.7-20 7.7-30.3-6.3-10.6-19.7-14-30-7.7s-13.7 20-7.4 30.6c6 10.3 19.4 13.7 29.7 7.4zm-191.1 58c7.7-5.4 9.4-16 4.3-23.7s-15.7-9.4-23.1-4.3c-7.7 5.4-9.4 16-4.3 23.7 5.1 7.8 15.6 9.5 23.1 4.3zm372.3 156c-7.4 1.7-12.3 9.1-10.6 16.9 1.4 7.4 8.9 12.3 16.3 10.6 7.4-1.4 12.3-8.9 10.6-16.6-1.5-7.4-8.9-12.3-16.3-10.9zm39.7-56.8c-1.1-5.7-6.6-9.1-12-8-5.7 1.1-9.1 6.9-8 12.6 1.1 5.4 6.6 9.1 12.3 8 5.4-1.5 9.1-6.9 7.7-12.6zM447 138.9c-8.6 6-10.6 17.7-4.9 26.3 5.7 8.6 17.4 10.6 26 4.9 8.3-6 10.3-17.7 4.6-26.3-5.7-8.7-17.4-10.9-25.7-4.9zm-6.3 139.4c26.3 43.1 15.1 100-26.3 129.1-17.4 12.3-37.1 17.7-56.9 17.1-12 47.1-69.4 64.6-105.1 32.6-1.1.9-2.6 1.7-3.7 2.9-39.1 27.1-92.3 17.4-119.4-22.3-9.7-14.3-14.6-30.6-15.1-46.9-65.4-10.9-90-94-41.1-139.7-28.3-46.9.6-107.4 53.4-114.9C151.6 70 234.1 38.6 290.1 82c67.4-22.3 136.3 29.4 130.9 101.1 41.1 12.6 52.8 66.9 19.7 95.2zm-70 74.3c-3.1-20.6-40.9-4.6-43.1-27.1-3.1-32 43.7-101.1 40-128-3.4-24-19.4-29.1-33.4-29.4-13.4-.3-16.9 2-21.4 4.6-2.9 1.7-6.6 4.9-11.7-.3-6.3-6-11.1-11.7-19.4-12.9-12.3-2-17.7 2-26.6 9.7-3.4 2.9-12 12.9-20 9.1-3.4-1.7-15.4-7.7-24-11.4-16.3-7.1-40 4.6-48.6 20-12.9 22.9-38 113.1-41.7 125.1-8.6 26.6 10.9 48.6 36.9 47.1 11.1-.6 18.3-4.6 25.4-17.4 4-7.4 41.7-107.7 44.6-112.6 2-3.4 8.9-8 14.6-5.1 5.7 3.1 6.9 9.4 6 15.1-1.1 9.7-28 70.9-28.9 77.7-3.4 22.9 26.9 26.6 38.6 4 3.7-7.1 45.7-92.6 49.4-98.3 4.3-6.3 7.4-8.3 11.7-8 3.1 0 8.3.9 7.1 10.9-1.4 9.4-35.1 72.3-38.9 87.7-4.6 20.6 6.6 41.4 24.9 50.6 11.4 5.7 62.5 15.7 58.5-11.1zm5.7 92.3c-10.3 7.4-12.9 22-5.7 32.6 7.1 10.6 21.4 13.1 32 6 10.6-7.4 13.1-22 6-32.6-7.4-10.6-21.7-13.5-32.3-6z"/></symbol><symbol class="nsvg-inline--fa nfa-newspaper" viewBox="0 0 512 512" id="community-newsletter" xmlns="http://www.w3.org/2000/svg"><path fill="currentColor" d="M96 96c0-35.3 28.7-64 64-64h288c35.3 0 64 28.7 64 64v320c0 35.3-28.7 64-64 64H80c-44.2 0-80-35.8-80-80V128c0-17.7 14.3-32 32-32s32 14.3 32 32v272c0 8.8 7.2 16 16 16s16-7.2 16-16V96zm64 24v80c0 13.3 10.7 24 24 24h240c13.3 0 24-10.7 24-24v-80c0-13.3-10.7-24-24-24H184c-13.3 0-24 10.7-24 24zm0 184c0 8.8 7.2 16 16 16h96c8.8 0 16-7.2 16-16s-7.2-16-16-16h-96c-8.8 0-16 7.2-16 16zm160 0c0 8.8 7.2 16 16 16h96c8.8 0 16-7.2 16-16s-7.2-16-16-16h-96c-8.8 0-16 7.2-16 16zm-160 96c0 8.8 7.2 16 16 16h96c8.8 0 16-7.2 16-16s-7.2-16-16-16h-96c-8.8 0-16 7.2-16 16zm160 0c0 8.8 7.2 16 16 16h96c8.8 0 16-7.2 16-16s-7.2-16-16-16h-96c-8.8 0-16 7.2-16 16z"/></symbol><symbol viewBox="0 0 50 50" id="community-osm" xmlns="http://www.w3.org/2000/svg"><path d="m0 .653 4.237 11.115L0 22.883l4.237 11.115L0 45.113l2.601.992 14.134-14.118 2.536.39 3.078-3.077a18.692 18.692 0 0 1-3.919-7.383l1.443-1.185a16.888 16.888 0 0 1-.384-3.566c0-6.112 3.263-11.483 8.136-14.462L22.243.653 11.121 4.887 0 .653z" fill="currentColor"/><path d="M36.319 3.373C43.875 3.373 50 9.494 50 17.045s-6.125 13.672-13.68 13.672c-7.556 0-13.681-6.121-13.681-13.672S28.764 3.373 36.32 3.373h-.001z" fill="currentColor"/><path d="M47.267 30.181a16.865 16.865 0 0 1-14.398 3.539l-1.186 1.443a18.734 18.734 0 0 1-7.07-3.639l-3.185 3.188.392 2.356L9.976 48.91l1.145.437 11.122-4.234 11.122 4.234 11.121-4.234 4.238-11.115-1.457-3.817z" fill="currentColor"/></symbol><symbol viewBox="0 0 50 50" id="community-osm-lc" xmlns="http://www.w3.org/2000/svg"><path d="m0 .653 4.237 11.115L0 22.883l4.237 11.115L0 45.113l2.601.992 14.134-14.118 2.536.39 3.078-3.077a18.692 18.692 0 0 1-3.919-7.383l1.443-1.185a16.888 16.888 0 0 1-.384-3.566c0-6.112 3.263-11.483 8.136-14.462L22.243.653 11.121 4.887 0 .653z" fill="currentColor"/><path d="M36.319 3.373C43.875 3.373 50 9.494 50 17.045s-6.125 13.672-13.68 13.672c-7.556 0-13.681-6.121-13.681-13.672S28.764 3.373 36.32 3.373h-.001zm0 4.555-2.242 6.453-6.83.139 5.443 4.127-1.978 6.538 5.607-3.902 5.608 3.902-1.979-6.538 5.444-4.127-6.83-.139-2.243-6.453z" fill="currentColor"/><path d="M47.267 30.181a16.865 16.865 0 0 1-14.398 3.539l-1.186 1.443a18.734 18.734 0 0 1-7.07-3.639l-3.185 3.188.392 2.356L9.976 48.91l1.145.437 11.122-4.234 11.122 4.234 11.121-4.234 4.238-11.115-1.457-3.817z" fill="currentColor"/></symbol><symbol class="qsvg-inline--fa qfa-reddit" viewBox="0 0 512 512" id="community-reddit" xmlns="http://www.w3.org/2000/svg"><path fill="currentColor" d="M201.5 305.5c-13.8 0-24.9-11.1-24.9-24.6 0-13.8 11.1-24.9 24.9-24.9 13.6 0 24.6 11.1 24.6 24.9 0 13.6-11.1 24.6-24.6 24.6zM504 256c0 137-111 248-248 248S8 393 8 256 119 8 256 8s248 111 248 248zm-132.3-41.2c-9.4 0-17.7 3.9-23.8 10-22.4-15.5-52.6-25.5-86.1-26.6l17.4-78.3 55.4 12.5c0 13.6 11.1 24.6 24.6 24.6 13.8 0 24.9-11.3 24.9-24.9s-11.1-24.9-24.9-24.9c-9.7 0-18 5.8-22.1 13.8l-61.2-13.6c-3-.8-6.1 1.4-6.9 4.4l-19.1 86.4c-33.2 1.4-63.1 11.3-85.5 26.8-6.1-6.4-14.7-10.2-24.1-10.2-34.9 0-46.3 46.9-14.4 62.8-1.1 5-1.7 10.2-1.7 15.5 0 52.6 59.2 95.2 132 95.2 73.1 0 132.3-42.6 132.3-95.2 0-5.3-.6-10.8-1.9-15.8 31.3-16 19.8-62.5-14.9-62.5zM302.8 331c-18.2 18.2-76.1 17.9-93.6 0-2.2-2.2-6.1-2.2-8.3 0-2.5 2.5-2.5 6.4 0 8.6 22.8 22.8 87.3 22.8 110.2 0 2.5-2.2 2.5-6.1 0-8.6-2.2-2.2-6.1-2.2-8.3 0zm7.7-75c-13.6 0-24.6 11.1-24.6 24.9 0 13.6 11.1 24.6 24.6 24.6 13.8 0 24.9-11.1 24.9-24.6 0-13.8-11-24.9-24.9-24.9z"/></symbol><symbol class="rsvg-inline--fa rfa-slack" viewBox="0 0 448 512" id="community-slack" xmlns="http://www.w3.org/2000/svg"><path fill="currentColor" d="M94.12 315.1c0 25.9-21.16 47.06-47.06 47.06S0 341 0 315.1c0-25.9 21.16-47.06 47.06-47.06h47.06v47.06zm23.72 0c0-25.9 21.16-47.06 47.06-47.06s47.06 21.16 47.06 47.06v117.84c0 25.9-21.16 47.06-47.06 47.06s-47.06-21.16-47.06-47.06V315.1zm47.06-188.98c-25.9 0-47.06-21.16-47.06-47.06S139 32 164.9 32s47.06 21.16 47.06 47.06v47.06H164.9zm0 23.72c25.9 0 47.06 21.16 47.06 47.06s-21.16 47.06-47.06 47.06H47.06C21.16 243.96 0 222.8 0 196.9s21.16-47.06 47.06-47.06H164.9zm188.98 47.06c0-25.9 21.16-47.06 47.06-47.06 25.9 0 47.06 21.16 47.06 47.06s-21.16 47.06-47.06 47.06h-47.06V196.9zm-23.72 0c0 25.9-21.16 47.06-47.06 47.06-25.9 0-47.06-21.16-47.06-47.06V79.06c0-25.9 21.16-47.06 47.06-47.06 25.9 0 47.06 21.16 47.06 47.06V196.9zM283.1 385.88c25.9 0 47.06 21.16 47.06 47.06 0 25.9-21.16 47.06-47.06 47.06-25.9 0-47.06-21.16-47.06-47.06v-47.06h47.06zm0-23.72c-25.9 0-47.06-21.16-47.06-47.06 0-25.9 21.16-47.06 47.06-47.06h117.84c25.9 0 47.06 21.16 47.06 47.06 0 25.9-21.16 47.06-47.06 47.06H283.1z"/></symbol><symbol class="ssvg-inline--fa sfa-telegram" viewBox="0 0 496 512" id="community-telegram" xmlns="http://www.w3.org/2000/svg"><path fill="currentColor" d="M248 8C111.033 8 0 119.033 0 256s111.033 248 248 248 248-111.033 248-248S384.967 8 248 8Zm114.952 168.66c-3.732 39.215-19.881 134.378-28.1 178.3-3.476 18.584-10.322 24.816-16.948 25.425-14.4 1.326-25.338-9.517-39.287-18.661-21.827-14.308-34.158-23.215-55.346-37.177-24.485-16.135-8.612-25 5.342-39.5 3.652-3.793 67.107-61.51 68.335-66.746.153-.655.3-3.1-1.154-4.384s-3.59-.849-5.135-.5q-3.283.746-104.608 69.142-14.845 10.194-26.894 9.934c-8.855-.191-25.888-5.006-38.551-9.123-15.531-5.048-27.875-7.717-26.8-16.291q.84-6.7 18.45-13.7 108.446-47.248 144.628-62.3c68.872-28.647 83.183-33.623 92.511-33.789 2.052-.034 6.639.474 9.61 2.885a10.452 10.452 0 0 1 3.53 6.716 43.765 43.765 0 0 1 .417 9.769Z"/></symbol><symbol class="tsvg-inline--fa tfa-twitter" viewBox="0 0 512 512" id="community-twitter" xmlns="http://www.w3.org/2000/svg"><path fill="currentColor" d="M459.37 151.716c.325 4.548.325 9.097.325 13.645 0 138.72-105.583 298.558-298.558 298.558-59.452 0-114.68-17.219-161.137-47.106 8.447.974 16.568 1.299 25.34 1.299 49.055 0 94.213-16.568 130.274-44.832-46.132-.975-84.792-31.188-98.112-72.772 6.498.974 12.995 1.624 19.818 1.624 9.421 0 18.843-1.3 27.614-3.573-48.081-9.747-84.143-51.98-84.143-102.985v-1.299c13.969 7.797 30.214 12.67 47.431 13.319-28.264-18.843-46.781-51.005-46.781-87.391 0-19.492 5.197-37.36 14.294-52.954 51.655 63.675 129.3 105.258 216.365 109.807-1.624-7.797-2.599-15.918-2.599-24.04 0-57.828 46.782-104.934 104.934-104.934 30.213 0 57.502 12.67 76.67 33.137 23.715-4.548 46.456-13.32 66.599-25.34-7.798 24.366-24.366 44.833-46.132 57.827 21.117-2.273 41.584-8.122 60.426-16.243-14.292 20.791-32.161 39.308-52.628 54.253z"/></symbol><symbol class="usvg-inline--fa ufa-link" viewBox="0 0 640 512" id="community-url" xmlns="http://www.w3.org/2000/svg"><path fill="currentColor" d="M579.8 267.7c56.5-56.5 56.5-148 0-204.5-50-50-128.8-56.5-186.3-15.4l-1.6 1.1c-14.4 10.3-17.7 30.3-7.4 44.6s30.3 17.7 44.6 7.4l1.6-1.1c32.1-22.9 76-19.3 103.8 8.6 31.5 31.5 31.5 82.5 0 114L422.3 334.8c-31.5 31.5-82.5 31.5-114 0-27.9-27.9-31.5-71.8-8.6-103.8l1.1-1.6c10.3-14.4 6.9-34.4-7.4-44.6s-34.4-6.9-44.6 7.4l-1.1 1.6C206.5 251.2 213 330 263 380c56.5 56.5 148 56.5 204.5 0l112.3-112.3zM60.2 244.3c-56.5 56.5-56.5 148 0 204.5 50 50 128.8 56.5 186.3 15.4l1.6-1.1c14.4-10.3 17.7-30.3 7.4-44.6s-30.3-17.7-44.6-7.4l-1.6 1.1c-32.1 22.9-76 19.3-103.8-8.6C74 372 74 321 105.5 289.5l112.2-112.3c31.5-31.5 82.5-31.5 114 0 27.9 27.9 31.5 71.8 8.6 103.9l-1.1 1.6c-10.3 14.4-6.9 34.4 7.4 44.6s34.4 6.9 44.6-7.4l1.1-1.6C433.5 260.8 427 182 377 132c-56.5-56.5-148-56.5-204.5 0L60.2 244.3z"/></symbol><symbol viewBox="0 0 512 512" id="community-wiki" xmlns="http://www.w3.org/2000/svg"><path fill="currentColor" d="m0 6.686 43.383 113.819L0 234.317l43.383 113.82L0 461.957l26.638 10.16 144.728-144.572 25.968 3.997 31.518-31.507c-18.6-21.534-32.524-47.229-40.132-75.604l14.781-12.131c-2.542-11.78-3.93-23.981-3.93-36.517 0-62.593 33.405-117.591 83.314-148.093L227.769 6.686 113.88 50.043 0 6.686z"/><path fill="currentColor" d="M371.911 34.536C449.28 34.537 512 97.219 512 174.541s-62.72 140.004-140.088 140.004c-77.369 0-140.089-62.682-140.089-140.004 0-77.322 62.72-140.004 140.089-140.004zm97.408 86.071c-2.872.001-6.098.178-9.697.533-3.455.372-6.504.549-9.146.548-2.498.001-5.618-.176-9.323-.548-4.006-.355-7.48-.532-10.405-.533-1.081.001-1.612.834-1.613 2.516.001 1.666.355 2.498 1.082 2.498 8.012.372 12.018 3.472 12.017 9.335.001 2.446-.602 5.138-1.79 8.061l-34.44 80.035-23.327-47.493 17.229-31.834c4.237-7.404 7.782-12.151 10.618-14.242 2.836-2.09 6.594-3.383 11.255-3.862 1.312 0 1.968-.956 1.968-2.869 0-1.435-.354-2.144-1.063-2.145-3.049.001-6.86.214-11.398.621-3.58.301-6.31.461-8.153.46-2.57.001-5.867-.176-9.874-.548-4.182-.355-7.71-.532-10.582-.533-.354.001-.708.267-1.081.815a3.026 3.026 0 0 0-.532 1.701c.001 1.666.355 2.498 1.082 2.498 8.012.372 12.018 3.295 12.018 8.787 0 2.338-.904 5.208-2.695 8.609l-12.922 24.109-12.992-26.359c-1.861-3.755-2.783-6.536-2.783-8.326 0-4.003 4.006-6.27 12.018-6.82.603 0 .886-.832.886-2.498 0-1.682-.478-2.515-1.436-2.516-4.005.001-8.064.178-12.195.533-4.005.372-7.798.549-11.379.548-3.651.001-7.09-.176-10.316-.548-3.35-.355-7.019-.532-11.025-.533-.851.001-1.259.834-1.259 2.516 0 .656.195 1.241.585 1.736.39.514.78.762 1.205.762 4.609.479 8.048 1.79 10.317 3.897 2.269 2.126 5.176 6.874 8.703 14.207l19.639 41.151-21.075 39.787-37.135-83.807c-.956-2.144-1.435-3.933-1.436-5.368.001-2.816 1.153-5.084 3.457-6.82 2.305-1.718 5.46-2.745 9.465-3.047.586 0 .887-.832.886-2.498.001-1.682-.478-2.515-1.435-2.516-4.006.001-8.614.178-13.808.533-4.963.372-9.27.549-12.922.548-3.58.001-7.409-.176-11.468-.548a156.047 156.047 0 0 0-12.567-.533c-.957.001-1.436.834-1.436 2.516 0 .656.213 1.241.638 1.736.408.514.869.762 1.348.762 5.548.603 9.89 2.179 12.992 4.712 3.12 2.534 6.08 6.998 8.88 13.392l44.933 102.993c.426.957 1.295 1.435 2.606 1.435 1.082 0 1.915-.478 2.517-1.435l29.495-53.604 25.648 53.604c.603.957 1.437 1.435 2.517 1.435 1.383 0 2.216-.478 2.518-1.435l45.73-102.993c2.996-6.802 5.886-11.425 8.704-13.834 2.801-2.427 6.434-3.844 10.847-4.27.55 0 1.029-.301 1.489-.886.444-.602.674-1.257.674-1.983 0-1.435-.425-2.144-1.258-2.145z"/><path fill="currentColor" d="M484.015 309.049c-30.107 25.08-68.766 40.171-110.902 40.171-12.544 0-24.752-1.387-36.539-3.926l-12.138 14.771a191.705 191.705 0 0 1-72.399-37.264l-32.61 32.652 4.007 24.121-121.278 121.268 11.724 4.472 113.889-43.357 113.888 43.357 113.88-43.357 43.392-113.82-14.914-39.088z"/></symbol><symbol viewBox="-3277 648.6 176.5 134" fill="currentColor" id="community-xmpp" xmlns="http://www.w3.org/2000/svg"><path d="m-3104.1 648.5-52.7 18c.1 1.3.1 2.6.1 4 0 38.6-30.7 90.5-75.8 101.9v2.3c3.7-.5 7.3-1.1 10.8-1.8 57-11.1 116.1-68.7 117.6-124.3z"/><path d="M-3277 648.4c1.2 47.7 46.1 97.4 94.9 117.8.9.4 1.8.8 2.8 1.2.6.2 1.1.5 1.7.7 9.7 4 20 6.6 31 7.5v-2.2c-45.1-11.4-75.8-63.3-75.8-101.9v-4z"/></symbol><symbol viewBox="0 0 50 50" id="community-youthmappers" xmlns="http://www.w3.org/2000/svg"><path d="M10.42 40.16c-.27.34-.62.61-1.02.84-1.4.6-3.1 0-3.7-1.5-.7-1.4 0-3 1.4-3.7.4-.1.8-.2 1.14-.2L6 32.5h18.5L11 45s-.4-3.5-.6-4.8zM9.5 28c-.37 0-.8 0-1.23-.2-1.41-.65-1.97-2.3-1.47-3.8.7-1.3 2.3-2 3.7-1.3.4.1.7.3 1 .6L11 19l15 12H6s2.7-2 3.5-3zM33 12.5c0-.37 0-.8.2-1.3.6-1.3 2.3-2 3.7-1.3 1.4.6 2.1 2.2 1.4 3.6-.2.4-.4.7-.7 1l4.4.5-13.5 13.5L30 9s2 2.7 3 3.6zM14 44l26-25c8.1 8.1 6.2 18.8-.1 25-9.1 9.2-21.2 4.7-25.9 0zm11.7 2.6c-1.7.4-2 .7-2.7 1.4 6 1 9 0 14-3 .2-2.3.7-4 3-5 1-.5 2.2-1.8 3-3 2-4 1-8 .1-11.2-.2-.8-1.1-.8-1.3 0C41 30 40 30 38 29c-1.9-.8-2.5-.3-3 1 0 0-.2.6 1 1 0-1 4-1 .8 1.2-1 .1-1 .7-1.9-.3-.9-.9-2.9.1-2.9.1s-1 1-2 1-1 2 .3 1.7c1.4-.3 1.8-.2 2.6-.2.5.3.9.9 1.2 1.5.3.6-.1 1 .9 1 .3-.5-.1-.9 0-1.5.4-.3 1 .5 1 .5 1 1 2 3 1.1 3.5-1.1.5-2.1.5-3.3-.8-.8-1.7-2.4-2.8-3-3 0 0-.3-.2-.8-.7 0 0-.4 0-1.2.1-1.8-.1-3-.3-3.8.9-2.4 3.8-.1 5.9 2 7 .9 1.9-1.3 3.6-1.3 3.6zM27 30C17 22 11.1 16.3 9.8 13.2c-1.8-4.6.4-9.9 5-11.8 4.6-1.8 9.9.4 11.8 5C27.8 9.5 28 17 27 30zm-7.3-16.8c2-.8 2.9-3 2.1-5-.8-2-3-2.9-5-2.1-1.9.8-2.9 3-2.1 5 .8 1.9 3 2.9 5 2.1z" fill="currentColor"/></symbol><symbol class="ysvg-inline--fa yfa-youtube" viewBox="0 0 576 512" id="community-youtube" xmlns="http://www.w3.org/2000/svg"><path fill="currentColor" d="M549.655 124.083c-6.281-23.65-24.787-42.276-48.284-48.597C458.781 64 288 64 288 64S117.22 64 74.629 75.486c-23.497 6.322-42.003 24.947-48.284 48.597-11.412 42.867-11.412 132.305-11.412 132.305s0 89.438 11.412 132.305c6.281 23.65 24.787 41.5 48.284 47.821C117.22 448 288 448 288 448s170.78 0 213.371-11.486c23.497-6.321 42.003-24.171 48.284-47.821 11.412-42.867 11.412-132.305 11.412-132.305s0-89.438-11.412-132.305zm-317.51 213.508V175.185l142.739 81.205-142.739 81.201z"/></symbol></svg>