<?xml version="1.0" encoding="utf-8"?><svg xmlns="http://www.w3.org/2000/svg" xmlns:xlink="http://www.w3.org/1999/xlink"><symbol viewBox="0 0 512 512" id="community-aparat" xmlns="http://www.w3.org/2000/svg"><path fill="currentColor" d="M150.156.012c-11.08.186-22.178 2.656-33.611 8.275-33.26 16.346-44.937 54.724-52.367 94.524 45.998-46.907 79.612-73.204 151.44-84.93C192.397 7.62 171.31-.344 150.155.01zM253.83 31.74c-123.84 0-224.328 100.92-224.328 225.293 0 124.374 100.488 225.295 224.328 225.295s224.328-100.921 224.328-225.295C478.158 132.66 377.67 31.74 253.83 31.74zm156.748 37.313c55.551 47.262 71.12 86.706 86.334 150.67 14.153-37.668 23.707-76.757 3.54-108.028-20.17-30.916-51.306-37.667-89.874-42.642zM191.91 94.993c34.675 0 62.983 28.073 62.983 62.898 0 34.824-28.308 62.896-62.983 62.896s-62.627-28.072-62.627-62.896c0-34.825 27.952-62.899 62.627-62.899zm158.87 30.915c34.675 0 62.628 28.43 62.628 63.254 0 34.825-27.953 62.897-62.629 62.897-34.675 0-62.627-28.072-62.627-62.897s27.952-63.254 62.627-63.254zm-97.657 105.186c15.922 0 29.014 12.792 29.014 28.783 0 15.99-13.092 28.783-29.014 28.783-15.568 0-28.66-12.792-28.66-28.783 0-15.991 13.092-28.783 28.66-28.783zM158.65 263.43c34.676 0 62.63 28.43 62.63 63.254s-27.954 62.898-62.63 62.898c-34.675 0-62.627-28.074-62.627-62.898 0-34.825 27.952-63.254 62.627-63.254zm160.993 30.916c34.675 0 62.982 28.073 62.982 62.898s-28.307 62.897-62.982 62.897c-34.676 0-62.627-28.072-62.627-62.897s27.951-62.898 62.627-62.898zm-307.123 6.04c-12.738 38.024-20.523 77.823.707 108.028 21.583 30.205 53.075 35.536 91.642 38.734-57.32-44.774-74.658-83.864-92.35-146.761zm435.21 105.542c-43.874 48.683-76.428 76.046-147.902 90.615 36.09 14.214 66.876 23.453 99.428 5.686 32.552-17.413 42.813-56.502 48.474-96.301z"/></symbol><symbol class="bsvg-inline--fa bfa-discord bfa-w-14" viewBox="0 0 448 512" id="community-discord" xmlns="http://www.w3.org/2000/svg"><path fill="currentColor" d="M297.216 243.2c0 15.616-11.52 28.416-26.112 28.416-14.336 0-26.112-12.8-26.112-28.416s11.52-28.416 26.112-28.416c14.592 0 26.112 12.8 26.112 28.416zm-119.552-28.416c-14.592 0-26.112 12.8-26.112 28.416s11.776 28.416 26.112 28.416c14.592 0 26.112-12.8 26.112-28.416.256-15.616-11.52-28.416-26.112-28.416zM448 52.736V512c-64.494-56.994-43.868-38.128-118.784-107.776l13.568 47.36H52.48C23.552 451.584 0 428.032 0 398.848V52.736C0 23.552 23.552 0 52.48 0h343.04C424.448 0 448 23.552 448 52.736zm-72.96 242.688c0-82.432-36.864-149.248-36.864-149.248-36.864-27.648-71.936-26.88-71.936-26.88l-3.584 4.096c43.52 13.312 63.744 32.512 63.744 32.512-60.811-33.329-132.244-33.335-191.232-7.424-9.472 4.352-15.104 7.424-15.104 7.424s21.248-20.224 67.328-33.536l-2.56-3.072s-35.072-.768-71.936 26.88c0 0-36.864 66.816-36.864 149.248 0 0 21.504 37.12 78.08 38.912 0 0 9.472-11.52 17.152-21.248-32.512-9.728-44.8-30.208-44.8-30.208 3.766 2.636 9.976 6.053 10.496 6.4 43.21 24.198 104.588 32.126 159.744 8.96 8.96-3.328 18.944-8.192 29.44-15.104 0 0-12.8 20.992-46.336 30.464 7.68 9.728 16.896 20.736 16.896 20.736 56.576-1.792 78.336-38.912 78.336-38.912z"/></symbol><symbol class="csvg-inline--fa cfa-discourse cfa-w-14" viewBox="0 0 448 512" id="community-discourse" xmlns="http://www.w3.org/2000/svg"><path fill="currentColor" d="M225.9 32C103.3 32 0 130.5 0 252.1 0 256 .1 480 .1 480l225.8-.2c122.7 0 222.1-102.3 222.1-223.9C448 134.3 348.6 32 225.9 32zM224 384c-19.4 0-37.9-4.3-54.4-12.1L88.5 392l22.9-75c-9.8-18.1-15.4-38.9-15.4-61 0-70.7 57.3-128 128-128s128 57.3 128 128-57.3 128-128 128z"/></symbol><symbol class="dsvg-inline--fa dfa-facebook dfa-w-16" viewBox="0 0 512 512" id="community-facebook" xmlns="http://www.w3.org/2000/svg"><path fill="currentColor" d="M504 256C504 119 393 8 256 8S8 119 8 256c0 123.78 90.69 226.38 209.25 245V327.69h-63V256h63v-54.64c0-62.15 37-96.48 93.67-96.48 27.14 0 55.52 4.84 55.52 4.84v61h-31.28c-30.8 0-40.41 19.12-40.41 38.73V256h68.78l-11 71.69h-57.78V501C413.31 482.38 504 379.78 504 256z"/></symbol><symbol class="esvg-inline--fa efa-comments efa-w-18" viewBox="0 0 576 512" id="community-forum" xmlns="http://www.w3.org/2000/svg"><path fill="currentColor" d="M416 192c0-88.4-93.1-160-208-160S0 103.6 0 192c0 34.3 14.1 65.9 38 92-13.4 30.2-35.5 54.2-35.8 54.5-2.2 2.3-2.8 5.7-1.5 8.7S4.8 352 8 352c36.6 0 66.9-12.3 88.7-25 32.2 15.7 70.3 25 111.3 25 114.9 0 208-71.6 208-160zm122 220c23.9-26 38-57.7 38-92 0-66.9-53.5-124.2-129.3-148.1.9 6.6 1.3 13.3 1.3 20.1 0 105.9-107.7 192-240 192-10.8 0-21.3-.8-31.7-1.9C207.8 439.6 281.8 480 368 480c41 0 79.1-9.2 111.3-25 21.8 12.7 52.1 25 88.7 25 3.2 0 6.1-1.9 7.3-4.8 1.3-2.9.7-6.3-1.5-8.7-.3-.3-22.4-24.2-35.8-54.5z"/></symbol><symbol class="fsvg-inline--fa ffa-github ffa-w-16" viewBox="0 0 496 512" id="community-github" xmlns="http://www.w3.org/2000/svg"><path fill="currentColor" d="M165.9 397.4c0 2-2.3 3.6-5.2 3.6-3.3.3-5.6-1.3-5.6-3.6 0-2 2.3-3.6 5.2-3.6 3-.3 5.6 1.3 5.6 3.6zm-31.1-4.5c-.7 2 1.3 4.3 4.3 4.9 2.6 1 5.6 0 6.2-2s-1.3-4.3-4.3-5.2c-2.6-.7-5.5.3-6.2 2.3zm44.2-1.7c-2.9.7-4.9 2.6-4.6 4.9.3 2 2.9 3.3 5.9 2.6 2.9-.7 4.9-2.6 4.6-4.6-.3-1.9-3-3.2-5.9-2.9zM244.8 8C106.1 8 0 113.3 0 252c0 110.9 69.8 205.8 169.5 239.2 12.8 2.3 17.3-5.6 17.3-12.1 0-6.2-.3-40.4-.3-61.4 0 0-70 15-84.7-29.8 0 0-11.4-29.1-27.8-36.6 0 0-22.9-15.7 1.6-15.4 0 0 24.9 2 38.6 25.8 21.9 38.6 58.6 27.5 72.9 20.9 2.3-16 8.8-27.1 16-33.7-55.9-6.2-112.3-14.3-112.3-110.5 0-27.5 7.6-41.3 23.6-58.9-2.6-6.5-11.1-33.3 2.6-67.9 20.9-6.5 69 27 69 27 20-5.6 41.5-8.5 62.8-8.5s42.8 2.9 62.8 8.5c0 0 48.1-33.6 69-27 13.7 34.7 5.2 61.4 2.6 67.9 16 17.7 25.8 31.5 25.8 58.9 0 96.5-58.9 104.2-114.8 110.5 9.2 7.9 17 22.9 17 46.4 0 33.7-.3 75.4-.3 83.6 0 6.5 4.6 14.4 17.3 12.1C428.2 457.8 496 362.9 496 252 496 113.3 383.5 8 244.8 8zM97.2 352.9c-1.3 1-1 3.3.7 5.2 1.6 1.6 3.9 2.3 5.2 1 1.3-1 1-3.3-.7-5.2-1.6-1.6-3.9-2.3-5.2-1zm-10.8-8.1c-.7 1.3.3 2.9 2.3 3.9 1.6 1 3.6.7 4.3-.7.7-1.3-.3-2.9-2.3-3.9-2-.6-3.6-.3-4.3.7zm32.4 35.6c-1.6 1.3-1 4.3 1.3 6.2 2.3 2.3 5.2 2.6 6.5 1 1.3-1.3.7-4.3-1.3-6.2-2.2-2.3-5.2-2.6-6.5-1zm-11.4-14.7c-1.6 1-1.6 3.6 0 5.9 1.6 2.3 4.3 3.3 5.6 2.3 1.6-1.3 1.6-3.9 0-6.2-1.4-2.3-4-3.3-5.6-2z"/></symbol><symbol class="gsvg-inline--fa gfa-users gfa-w-20" viewBox="0 0 640 512" id="community-group" xmlns="http://www.w3.org/2000/svg"><path fill="currentColor" d="M96 224c35.3 0 64-28.7 64-64s-28.7-64-64-64-64 28.7-64 64 28.7 64 64 64zm448 0c35.3 0 64-28.7 64-64s-28.7-64-64-64-64 28.7-64 64 28.7 64 64 64zm32 32h-64c-17.6 0-33.5 7.1-45.1 18.6 40.3 22.1 68.9 62 75.1 109.4h66c17.7 0 32-14.3 32-32v-32c0-35.3-28.7-64-64-64zm-256 0c61.9 0 112-50.1 112-112S381.9 32 320 32 208 82.1 208 144s50.1 112 112 112zm76.8 32h-8.3c-20.8 10-43.9 16-68.5 16s-47.6-6-68.5-16h-8.3C179.6 288 128 339.6 128 403.2V432c0 26.5 21.5 48 48 48h288c26.5 0 48-21.5 48-48v-28.8c0-63.6-51.6-115.2-115.2-115.2zm-223.7-13.4C161.5 263.1 145.6 256 128 256H64c-35.3 0-64 28.7-64 64v32c0 17.7 14.3 32 32 32h65.9c6.3-47.4 34.9-87.3 75.2-109.4z"/></symbol><symbol class="hsvg-inline--fa hfa-keyboard hfa-w-18" viewBox="0 0 576 512" id="community-irc" xmlns="http://www.w3.org/2000/svg"><path fill="currentColor" d="M528 448H48c-26.51 0-48-21.49-48-48V112c0-26.51 21.49-48 48-48h480c26.51 0 48 21.49 48 48v288c0 26.51-21.49 48-48 48zM128 180v-40c0-6.627-5.373-12-12-12H76c-6.627 0-12 5.373-12 12v40c0 6.627 5.373 12 12 12h40c6.627 0 12-5.373 12-12zm96 0v-40c0-6.627-5.373-12-12-12h-40c-6.627 0-12 5.373-12 12v40c0 6.627 5.373 12 12 12h40c6.627 0 12-5.373 12-12zm96 0v-40c0-6.627-5.373-12-12-12h-40c-6.627 0-12 5.373-12 12v40c0 6.627 5.373 12 12 12h40c6.627 0 12-5.373 12-12zm96 0v-40c0-6.627-5.373-12-12-12h-40c-6.627 0-12 5.373-12 12v40c0 6.627 5.373 12 12 12h40c6.627 0 12-5.373 12-12zm96 0v-40c0-6.627-5.373-12-12-12h-40c-6.627 0-12 5.373-12 12v40c0 6.627 5.373 12 12 12h40c6.627 0 12-5.373 12-12zm-336 96v-40c0-6.627-5.373-12-12-12h-40c-6.627 0-12 5.373-12 12v40c0 6.627 5.373 12 12 12h40c6.627 0 12-5.373 12-12zm96 0v-40c0-6.627-5.373-12-12-12h-40c-6.627 0-12 5.373-12 12v40c0 6.627 5.373 12 12 12h40c6.627 0 12-5.373 12-12zm96 0v-40c0-6.627-5.373-12-12-12h-40c-6.627 0-12 5.373-12 12v40c0 6.627 5.373 12 12 12h40c6.627 0 12-5.373 12-12zm96 0v-40c0-6.627-5.373-12-12-12h-40c-6.627 0-12 5.373-12 12v40c0 6.627 5.373 12 12 12h40c6.627 0 12-5.373 12-12zm-336 96v-40c0-6.627-5.373-12-12-12H76c-6.627 0-12 5.373-12 12v40c0 6.627 5.373 12 12 12h40c6.627 0 12-5.373 12-12zm288 0v-40c0-6.627-5.373-12-12-12H172c-6.627 0-12 5.373-12 12v40c0 6.627 5.373 12 12 12h232c6.627 0 12-5.373 12-12zm96 0v-40c0-6.627-5.373-12-12-12h-40c-6.627 0-12 5.373-12 12v40c0 6.627 5.373 12 12 12h40c6.627 0 12-5.373 12-12z"/></symbol><symbol class="isvg-inline--fa ifa-at ifa-w-16" viewBox="0 0 512 512" id="community-mailinglist" xmlns="http://www.w3.org/2000/svg"><path fill="currentColor" d="M256 8C118.941 8 8 118.919 8 256c0 137.059 110.919 248 248 248 48.154 0 95.342-14.14 135.408-40.223 12.005-7.815 14.625-24.288 5.552-35.372l-10.177-12.433c-7.671-9.371-21.179-11.667-31.373-5.129C325.92 429.757 291.314 440 256 440c-101.458 0-184-82.542-184-184S154.542 72 256 72c100.139 0 184 57.619 184 160 0 38.786-21.093 79.742-58.17 83.693-17.349-.454-16.91-12.857-13.476-30.024l23.433-121.11C394.653 149.75 383.308 136 368.225 136h-44.981a13.518 13.518 0 0 0-13.432 11.993l-.01.092c-14.697-17.901-40.448-21.775-59.971-21.775-74.58 0-137.831 62.234-137.831 151.46 0 65.303 36.785 105.87 96 105.87 26.984 0 57.369-15.637 74.991-38.333 9.522 34.104 40.613 34.103 70.71 34.103C462.609 379.41 504 307.798 504 232 504 95.653 394.023 8 256 8zm-21.68 304.43c-22.249 0-36.07-15.623-36.07-40.771 0-44.993 30.779-72.729 58.63-72.729 22.292 0 35.601 15.241 35.601 40.77 0 45.061-33.875 72.73-58.161 72.73z"/></symbol><symbol class="jsvg-inline--fa jfa-comments jfa-w-18" viewBox="0 0 576 512" id="community-matrix" xmlns="http://www.w3.org/2000/svg"><path fill="currentColor" d="M416 192c0-88.4-93.1-160-208-160S0 103.6 0 192c0 34.3 14.1 65.9 38 92-13.4 30.2-35.5 54.2-35.8 54.5-2.2 2.3-2.8 5.7-1.5 8.7S4.8 352 8 352c36.6 0 66.9-12.3 88.7-25 32.2 15.7 70.3 25 111.3 25 114.9 0 208-71.6 208-160zm122 220c23.9-26 38-57.7 38-92 0-66.9-53.5-124.2-129.3-148.1.9 6.6 1.3 13.3 1.3 20.1 0 105.9-107.7 192-240 192-10.8 0-21.3-.8-31.7-1.9C207.8 439.6 281.8 480 368 480c41 0 79.1-9.2 111.3-25 21.8 12.7 52.1 25 88.7 25 3.2 0 6.1-1.9 7.3-4.8 1.3-2.9.7-6.3-1.5-8.7-.3-.3-22.4-24.2-35.8-54.5z"/></symbol><symbol class="ksvg-inline--fa kfa-meetup kfa-w-16" viewBox="0 0 512 512" id="community-meetup" xmlns="http://www.w3.org/2000/svg"><path fill="currentColor" d="M99 414.3c1.1 5.7-2.3 11.1-8 12.3-5.4 1.1-10.9-2.3-12-8-1.1-5.4 2.3-11.1 7.7-12.3 5.4-1.2 11.1 2.3 12.3 8zm143.1 71.4c-6.3 4.6-8 13.4-3.7 20 4.6 6.6 13.4 8.3 20 3.7 6.3-4.6 8-13.4 3.4-20-4.2-6.5-13.1-8.3-19.7-3.7zm-86-462.3c6.3-1.4 10.3-7.7 8.9-14-1.1-6.6-7.4-10.6-13.7-9.1-6.3 1.4-10.3 7.7-9.1 14 1.4 6.6 7.6 10.6 13.9 9.1zM34.4 226.3c-10-6.9-23.7-4.3-30.6 6-6.9 10-4.3 24 5.7 30.9 10 7.1 23.7 4.6 30.6-5.7 6.9-10.4 4.3-24.1-5.7-31.2zm272-170.9c10.6-6.3 13.7-20 7.7-30.3-6.3-10.6-19.7-14-30-7.7s-13.7 20-7.4 30.6c6 10.3 19.4 13.7 29.7 7.4zm-191.1 58c7.7-5.4 9.4-16 4.3-23.7s-15.7-9.4-23.1-4.3c-7.7 5.4-9.4 16-4.3 23.7 5.1 7.8 15.6 9.5 23.1 4.3zm372.3 156c-7.4 1.7-12.3 9.1-10.6 16.9 1.4 7.4 8.9 12.3 16.3 10.6 7.4-1.4 12.3-8.9 10.6-16.6-1.5-7.4-8.9-12.3-16.3-10.9zm39.7-56.8c-1.1-5.7-6.6-9.1-12-8-5.7 1.1-9.1 6.9-8 12.6 1.1 5.4 6.6 9.1 12.3 8 5.4-1.5 9.1-6.9 7.7-12.6zM447 138.9c-8.6 6-10.6 17.7-4.9 26.3 5.7 8.6 17.4 10.6 26 4.9 8.3-6 10.3-17.7 4.6-26.3-5.7-8.7-17.4-10.9-25.7-4.9zm-6.3 139.4c26.3 43.1 15.1 100-26.3 129.1-17.4 12.3-37.1 17.7-56.9 17.1-12 47.1-69.4 64.6-105.1 32.6-1.1.9-2.6 1.7-3.7 2.9-39.1 27.1-92.3 17.4-119.4-22.3-9.7-14.3-14.6-30.6-15.1-46.9-65.4-10.9-90-94-41.1-139.7-28.3-46.9.6-107.4 53.4-114.9C151.6 70 234.1 38.6 290.1 82c67.4-22.3 136.3 29.4 130.9 101.1 41.1 12.6 52.8 66.9 19.7 95.2zm-70 74.3c-3.1-20.6-40.9-4.6-43.1-27.1-3.1-32 43.7-101.1 40-128-3.4-24-19.4-29.1-33.4-29.4-13.4-.3-16.9 2-21.4 4.6-2.9 1.7-6.6 4.9-11.7-.3-6.3-6-11.1-11.7-19.4-12.9-12.3-2-17.7 2-26.6 9.7-3.4 2.9-12 12.9-20 9.1-3.4-1.7-15.4-7.7-24-11.4-16.3-7.1-40 4.6-48.6 20-12.9 22.9-38 113.1-41.7 125.1-8.6 26.6 10.9 48.6 36.9 47.1 11.1-.6 18.3-4.6 25.4-17.4 4-7.4 41.7-107.7 44.6-112.6 2-3.4 8.9-8 14.6-5.1 5.7 3.1 6.9 9.4 6 15.1-1.1 9.7-28 70.9-28.9 77.7-3.4 22.9 26.9 26.6 38.6 4 3.7-7.1 45.7-92.6 49.4-98.3 4.3-6.3 7.4-8.3 11.7-8 3.1 0 8.3.9 7.1 10.9-1.4 9.4-35.1 72.3-38.9 87.7-4.6 20.6 6.6 41.4 24.9 50.6 11.4 5.7 62.5 15.7 58.5-11.1zm5.7 92.3c-10.3 7.4-12.9 22-5.7 32.6 7.1 10.6 21.4 13.1 32 6 10.6-7.4 13.1-22 6-32.6-7.4-10.6-21.7-13.5-32.3-6z"/></symbol><symbol viewBox="0 0 50 50" id="community-osm" xmlns="http://www.w3.org/2000/svg"><path d="M0 .653l4.237 11.115L0 22.883l4.237 11.115L0 45.113l2.601.992 14.134-14.118 2.536.39 3.078-3.077a18.692 18.692 0 0 1-3.919-7.383l1.443-1.185a16.888 16.888 0 0 1-.384-3.566c0-6.112 3.263-11.483 8.136-14.462L22.243.653 11.121 4.887 0 .653z" fill="currentColor"/><path d="M36.319 3.373C43.875 3.373 50 9.494 50 17.045s-6.125 13.672-13.68 13.672c-7.556 0-13.681-6.121-13.681-13.672S28.764 3.373 36.32 3.373h-.001z" fill="currentColor"/><path d="M47.267 30.181a16.865 16.865 0 0 1-14.398 3.539l-1.186 1.443a18.734 18.734 0 0 1-7.07-3.639l-3.185 3.188.392 2.356L9.976 48.91l1.145.437 11.122-4.234 11.122 4.234 11.121-4.234 4.238-11.115-1.457-3.817z" fill="currentColor"/></symbol><symbol viewBox="0 0 50 50" id="community-osm-lc" xmlns="http://www.w3.org/2000/svg"><path d="M0 .653l4.237 11.115L0 22.883l4.237 11.115L0 45.113l2.601.992 14.134-14.118 2.536.39 3.078-3.077a18.692 18.692 0 0 1-3.919-7.383l1.443-1.185a16.888 16.888 0 0 1-.384-3.566c0-6.112 3.263-11.483 8.136-14.462L22.243.653 11.121 4.887 0 .653z" fill="currentColor"/><path d="M36.319 3.373C43.875 3.373 50 9.494 50 17.045s-6.125 13.672-13.68 13.672c-7.556 0-13.681-6.121-13.681-13.672S28.764 3.373 36.32 3.373h-.001zm0 4.555l-2.242 6.453-6.83.139 5.443 4.127-1.978 6.538 5.607-3.902 5.608 3.902-1.979-6.538 5.444-4.127-6.83-.139-2.243-6.453z" fill="currentColor"/><path d="M47.267 30.181a16.865 16.865 0 0 1-14.398 3.539l-1.186 1.443a18.734 18.734 0 0 1-7.07-3.639l-3.185 3.188.392 2.356L9.976 48.91l1.145.437 11.122-4.234 11.122 4.234 11.121-4.234 4.238-11.115-1.457-3.817z" fill="currentColor"/></symbol><symbol class="nsvg-inline--fa nfa-reddit nfa-w-16" viewBox="0 0 512 512" id="community-reddit" xmlns="http://www.w3.org/2000/svg"><path fill="currentColor" d="M201.5 305.5c-13.8 0-24.9-11.1-24.9-24.6 0-13.8 11.1-24.9 24.9-24.9 13.6 0 24.6 11.1 24.6 24.9 0 13.6-11.1 24.6-24.6 24.6zM504 256c0 137-111 248-248 248S8 393 8 256 119 8 256 8s248 111 248 248zm-132.3-41.2c-9.4 0-17.7 3.9-23.8 10-22.4-15.5-52.6-25.5-86.1-26.6l17.4-78.3 55.4 12.5c0 13.6 11.1 24.6 24.6 24.6 13.8 0 24.9-11.3 24.9-24.9s-11.1-24.9-24.9-24.9c-9.7 0-18 5.8-22.1 13.8l-61.2-13.6c-3-.8-6.1 1.4-6.9 4.4l-19.1 86.4c-33.2 1.4-63.1 11.3-85.5 26.8-6.1-6.4-14.7-10.2-24.1-10.2-34.9 0-46.3 46.9-14.4 62.8-1.1 5-1.7 10.2-1.7 15.5 0 52.6 59.2 95.2 132 95.2 73.1 0 132.3-42.6 132.3-95.2 0-5.3-.6-10.8-1.9-15.8 31.3-16 19.8-62.5-14.9-62.5zM302.8 331c-18.2 18.2-76.1 17.9-93.6 0-2.2-2.2-6.1-2.2-8.3 0-2.5 2.5-2.5 6.4 0 8.6 22.8 22.8 87.3 22.8 110.2 0 2.5-2.2 2.5-6.1 0-8.6-2.2-2.2-6.1-2.2-8.3 0zm7.7-75c-13.6 0-24.6 11.1-24.6 24.9 0 13.6 11.1 24.6 24.6 24.6 13.8 0 24.9-11.1 24.9-24.6 0-13.8-11-24.9-24.9-24.9z"/></symbol><symbol class="osvg-inline--fa ofa-slack ofa-w-14" viewBox="0 0 448 512" id="community-slack" xmlns="http://www.w3.org/2000/svg"><path fill="currentColor" d="M94.12 315.1c0 25.9-21.16 47.06-47.06 47.06S0 341 0 315.1c0-25.9 21.16-47.06 47.06-47.06h47.06v47.06zm23.72 0c0-25.9 21.16-47.06 47.06-47.06s47.06 21.16 47.06 47.06v117.84c0 25.9-21.16 47.06-47.06 47.06s-47.06-21.16-47.06-47.06V315.1zm47.06-188.98c-25.9 0-47.06-21.16-47.06-47.06S139 32 164.9 32s47.06 21.16 47.06 47.06v47.06H164.9zm0 23.72c25.9 0 47.06 21.16 47.06 47.06s-21.16 47.06-47.06 47.06H47.06C21.16 243.96 0 222.8 0 196.9s21.16-47.06 47.06-47.06H164.9zm188.98 47.06c0-25.9 21.16-47.06 47.06-47.06 25.9 0 47.06 21.16 47.06 47.06s-21.16 47.06-47.06 47.06h-47.06V196.9zm-23.72 0c0 25.9-21.16 47.06-47.06 47.06-25.9 0-47.06-21.16-47.06-47.06V79.06c0-25.9 21.16-47.06 47.06-47.06 25.9 0 47.06 21.16 47.06 47.06V196.9zM283.1 385.88c25.9 0 47.06 21.16 47.06 47.06 0 25.9-21.16 47.06-47.06 47.06-25.9 0-47.06-21.16-47.06-47.06v-47.06h47.06zm0-23.72c-25.9 0-47.06-21.16-47.06-47.06 0-25.9 21.16-47.06 47.06-47.06h117.84c25.9 0 47.06 21.16 47.06 47.06 0 25.9-21.16 47.06-47.06 47.06H283.1z"/></symbol><symbol class="psvg-inline--fa pfa-telegram pfa-w-16" viewBox="0 0 496 512" id="community-telegram" xmlns="http://www.w3.org/2000/svg"><path fill="currentColor" d="M248 8C111 8 0 119 0 256s111 248 248 248 248-111 248-248S385 8 248 8zm121.8 169.9l-40.7 191.8c-3 13.6-11.1 16.9-22.4 10.5l-62-45.7-29.9 28.8c-3.3 3.3-6.1 6.1-12.5 6.1l4.4-63.1 114.9-103.8c5-4.4-1.1-6.9-7.7-2.5l-142 89.4-61.2-19.1c-13.3-4.2-13.6-13.3 2.8-19.7l239.1-92.2c11.1-4 20.8 2.7 17.2 19.5z"/></symbol><symbol class="qsvg-inline--fa qfa-twitter qfa-w-16" viewBox="0 0 512 512" id="community-twitter" xmlns="http://www.w3.org/2000/svg"><path fill="currentColor" d="M459.37 151.716c.325 4.548.325 9.097.325 13.645 0 138.72-105.583 298.558-298.558 298.558-59.452 0-114.68-17.219-161.137-47.106 8.447.974 16.568 1.299 25.34 1.299 49.055 0 94.213-16.568 130.274-44.832-46.132-.975-84.792-31.188-98.112-72.772 6.498.974 12.995 1.624 19.818 1.624 9.421 0 18.843-1.3 27.614-3.573-48.081-9.747-84.143-51.98-84.143-102.985v-1.299c13.969 7.797 30.214 12.67 47.431 13.319-28.264-18.843-46.781-51.005-46.781-87.391 0-19.492 5.197-37.36 14.294-52.954 51.655 63.675 129.3 105.258 216.365 109.807-1.624-7.797-2.599-15.918-2.599-24.04 0-57.828 46.782-104.934 104.934-104.934 30.213 0 57.502 12.67 76.67 33.137 23.715-4.548 46.456-13.32 66.599-25.34-7.798 24.366-24.366 44.833-46.132 57.827 21.117-2.273 41.584-8.122 60.426-16.243-14.292 20.791-32.161 39.308-52.628 54.253z"/></symbol><symbol class="rsvg-inline--fa rfa-link rfa-w-16" viewBox="0 0 512 512" id="community-url" xmlns="http://www.w3.org/2000/svg"><path fill="currentColor" d="M326.612 185.391c59.747 59.809 58.927 155.698.36 214.59-.11.12-.24.25-.36.37l-67.2 67.2c-59.27 59.27-155.699 59.262-214.96 0-59.27-59.26-59.27-155.7 0-214.96l37.106-37.106c9.84-9.84 26.786-3.3 27.294 10.606.648 17.722 3.826 35.527 9.69 52.721 1.986 5.822.567 12.262-3.783 16.612l-13.087 13.087c-28.026 28.026-28.905 73.66-1.155 101.96 28.024 28.579 74.086 28.749 102.325.51l67.2-67.19c28.191-28.191 28.073-73.757 0-101.83-3.701-3.694-7.429-6.564-10.341-8.569a16.037 16.037 0 0 1-6.947-12.606c-.396-10.567 3.348-21.456 11.698-29.806l21.054-21.055c5.521-5.521 14.182-6.199 20.584-1.731a152.482 152.482 0 0 1 20.522 17.197zM467.547 44.449c-59.261-59.262-155.69-59.27-214.96 0l-67.2 67.2c-.12.12-.25.25-.36.37-58.566 58.892-59.387 154.781.36 214.59a152.454 152.454 0 0 0 20.521 17.196c6.402 4.468 15.064 3.789 20.584-1.731l21.054-21.055c8.35-8.35 12.094-19.239 11.698-29.806a16.037 16.037 0 0 0-6.947-12.606c-2.912-2.005-6.64-4.875-10.341-8.569-28.073-28.073-28.191-73.639 0-101.83l67.2-67.19c28.239-28.239 74.3-28.069 102.325.51 27.75 28.3 26.872 73.934-1.155 101.96l-13.087 13.087c-4.35 4.35-5.769 10.79-3.783 16.612 5.864 17.194 9.042 34.999 9.69 52.721.509 13.906 17.454 20.446 27.294 10.606l37.106-37.106c59.271-59.259 59.271-155.699.001-214.959z"/></symbol><symbol viewBox="0 0 512 512" id="community-wiki" xmlns="http://www.w3.org/2000/svg"><path fill="currentColor" d="M0 6.686l43.383 113.819L0 234.317l43.383 113.82L0 461.957l26.638 10.16 144.728-144.572 25.968 3.997 31.518-31.507c-18.6-21.534-32.524-47.229-40.132-75.604l14.781-12.131c-2.542-11.78-3.93-23.981-3.93-36.517 0-62.593 33.405-117.591 83.314-148.093L227.769 6.686 113.88 50.043 0 6.686z"/><path fill="currentColor" d="M371.911 34.536C449.28 34.537 512 97.219 512 174.541s-62.72 140.004-140.088 140.004c-77.369 0-140.089-62.682-140.089-140.004 0-77.322 62.72-140.004 140.089-140.004zm97.408 86.071c-2.872.001-6.098.178-9.697.533-3.455.372-6.504.549-9.146.548-2.498.001-5.618-.176-9.323-.548-4.006-.355-7.48-.532-10.405-.533-1.081.001-1.612.834-1.613 2.516.001 1.666.355 2.498 1.082 2.498 8.012.372 12.018 3.472 12.017 9.335.001 2.446-.602 5.138-1.79 8.061l-34.44 80.035-23.327-47.493 17.229-31.834c4.237-7.404 7.782-12.151 10.618-14.242 2.836-2.09 6.594-3.383 11.255-3.862 1.312 0 1.968-.956 1.968-2.869 0-1.435-.354-2.144-1.063-2.145-3.049.001-6.86.214-11.398.621-3.58.301-6.31.461-8.153.46-2.57.001-5.867-.176-9.874-.548-4.182-.355-7.71-.532-10.582-.533-.354.001-.708.267-1.081.815a3.026 3.026 0 0 0-.532 1.701c.001 1.666.355 2.498 1.082 2.498 8.012.372 12.018 3.295 12.018 8.787 0 2.338-.904 5.208-2.695 8.609l-12.922 24.109-12.992-26.359c-1.861-3.755-2.783-6.536-2.783-8.326 0-4.003 4.006-6.27 12.018-6.82.603 0 .886-.832.886-2.498 0-1.682-.478-2.515-1.436-2.516-4.005.001-8.064.178-12.195.533-4.005.372-7.798.549-11.379.548-3.651.001-7.09-.176-10.316-.548-3.35-.355-7.019-.532-11.025-.533-.851.001-1.259.834-1.259 2.516 0 .656.195 1.241.585 1.736.39.514.78.762 1.205.762 4.609.479 8.048 1.79 10.317 3.897 2.269 2.126 5.176 6.874 8.703 14.207l19.639 41.151-21.075 39.787-37.135-83.807c-.956-2.144-1.435-3.933-1.436-5.368.001-2.816 1.153-5.084 3.457-6.82 2.305-1.718 5.46-2.745 9.465-3.047.586 0 .887-.832.886-2.498.001-1.682-.478-2.515-1.435-2.516-4.006.001-8.614.178-13.808.533-4.963.372-9.27.549-12.922.548-3.58.001-7.409-.176-11.468-.548a156.047 156.047 0 0 0-12.567-.533c-.957.001-1.436.834-1.436 2.516 0 .656.213 1.241.638 1.736.408.514.869.762 1.348.762 5.548.603 9.89 2.179 12.992 4.712 3.12 2.534 6.08 6.998 8.88 13.392l44.933 102.993c.426.957 1.295 1.435 2.606 1.435 1.082 0 1.915-.478 2.517-1.435l29.495-53.604 25.648 53.604c.603.957 1.437 1.435 2.517 1.435 1.383 0 2.216-.478 2.518-1.435l45.73-102.993c2.996-6.802 5.886-11.425 8.704-13.834 2.801-2.427 6.434-3.844 10.847-4.27.55 0 1.029-.301 1.489-.886.444-.602.674-1.257.674-1.983 0-1.435-.425-2.144-1.258-2.145z"/><path fill="currentColor" d="M484.015 309.049c-30.107 25.08-68.766 40.171-110.902 40.171-12.544 0-24.752-1.387-36.539-3.926l-12.138 14.771a191.705 191.705 0 0 1-72.399-37.264l-32.61 32.652 4.007 24.121-121.278 121.268 11.724 4.472 113.889-43.357 113.888 43.357 113.88-43.357 43.392-113.82-14.914-39.088z"/></symbol><symbol viewBox="0 0 50 50" id="community-youthmappers" xmlns="http://www.w3.org/2000/svg"><path d="M10.42 40.16c-.27.34-.62.61-1.02.84-1.4.6-3.1 0-3.7-1.5-.7-1.4 0-3 1.4-3.7.4-.1.8-.2 1.14-.2L6 32.5h18.5L11 45s-.4-3.5-.6-4.8zM9.5 28c-.37 0-.8 0-1.23-.2-1.41-.65-1.97-2.3-1.47-3.8.7-1.3 2.3-2 3.7-1.3.4.1.7.3 1 .6L11 19l15 12H6s2.7-2 3.5-3zM33 12.5c0-.37 0-.8.2-1.3.6-1.3 2.3-2 3.7-1.3 1.4.6 2.1 2.2 1.4 3.6-.2.4-.4.7-.7 1l4.4.5-13.5 13.5L30 9s2 2.7 3 3.6zM14 44l26-25c8.1 8.1 6.2 18.8-.1 25-9.1 9.2-21.2 4.7-25.9 0zm11.7 2.6c-1.7.4-2 .7-2.7 1.4 6 1 9 0 14-3 .2-2.3.7-4 3-5 1-.5 2.2-1.8 3-3 2-4 1-8 .1-11.2-.2-.8-1.1-.8-1.3 0C41 30 40 30 38 29c-1.9-.8-2.5-.3-3 1 0 0-.2.6 1 1 0-1 4-1 .8 1.2-1 .1-1 .7-1.9-.3-.9-.9-2.9.1-2.9.1s-1 1-2 1-1 2 .3 1.7c1.4-.3 1.8-.2 2.6-.2.5.3.9.9 1.2 1.5.3.6-.1 1 .9 1 .3-.5-.1-.9 0-1.5.4-.3 1 .5 1 .5 1 1 2 3 1.1 3.5-1.1.5-2.1.5-3.3-.8-.8-1.7-2.4-2.8-3-3 0 0-.3-.2-.8-.7 0 0-.4 0-1.2.1-1.8-.1-3-.3-3.8.9-2.4 3.8-.1 5.9 2 7 .9 1.9-1.3 3.6-1.3 3.6zM27 30C17 22 11.1 16.3 9.8 13.2c-1.8-4.6.4-9.9 5-11.8 4.6-1.8 9.9.4 11.8 5C27.8 9.5 28 17 27 30zm-7.3-16.8c2-.8 2.9-3 2.1-5-.8-2-3-2.9-5-2.1-1.9.8-2.9 3-2.1 5 .8 1.9 3 2.9 5 2.1z" fill="currentColor"/></symbol><symbol class="usvg-inline--fa ufa-youtube ufa-w-18" viewBox="0 0 576 512" id="community-youtube" xmlns="http://www.w3.org/2000/svg"><path fill="currentColor" d="M549.655 124.083c-6.281-23.65-24.787-42.276-48.284-48.597C458.781 64 288 64 288 64S117.22 64 74.629 75.486c-23.497 6.322-42.003 24.947-48.284 48.597-11.412 42.867-11.412 132.305-11.412 132.305s0 89.438 11.412 132.305c6.281 23.65 24.787 41.5 48.284 47.821C117.22 448 288 448 288 448s170.78 0 213.371-11.486c23.497-6.321 42.003-24.171 48.284-47.821 11.412-42.867 11.412-132.305 11.412-132.305s0-89.438-11.412-132.305zm-317.51 213.508V175.185l142.739 81.205-142.739 81.201z"/></symbol></svg>