<?xml version="1.0" encoding="utf-8"?><svg xmlns="http://www.w3.org/2000/svg" xmlns:xlink="http://www.w3.org/1999/xlink"><symbol class="asvg-inline--fa afa-ambulance afa-w-20" viewBox="0 0 640 512" id="fas-ambulance" xmlns="http://www.w3.org/2000/svg"><path fill="currentColor" d="M624 352h-16V243.9c0-12.7-5.1-24.9-14.1-33.9L494 110.1c-9-9-21.2-14.1-33.9-14.1H416V48c0-26.5-21.5-48-48-48H48C21.5 0 0 21.5 0 48v320c0 26.5 21.5 48 48 48h16c0 53 43 96 96 96s96-43 96-96h128c0 53 43 96 96 96s96-43 96-96h48c8.8 0 16-7.2 16-16v-32c0-8.8-7.2-16-16-16zM160 464c-26.5 0-48-21.5-48-48s21.5-48 48-48 48 21.5 48 48-21.5 48-48 48zm144-248c0 4.4-3.6 8-8 8h-56v56c0 4.4-3.6 8-8 8h-48c-4.4 0-8-3.6-8-8v-56h-56c-4.4 0-8-3.6-8-8v-48c0-4.4 3.6-8 8-8h56v-56c0-4.4 3.6-8 8-8h48c4.4 0 8 3.6 8 8v56h56c4.4 0 8 3.6 8 8v48zm176 248c-26.5 0-48-21.5-48-48s21.5-48 48-48 48 21.5 48 48-21.5 48-48 48zm80-208H416V144h44.1l99.9 99.9V256z"/></symbol><symbol class="bsvg-inline--fa bfa-bell bfa-w-14" viewBox="0 0 448 512" id="fas-bell" xmlns="http://www.w3.org/2000/svg"><path fill="currentColor" d="M433.884 366.059C411.634 343.809 384 316.118 384 208c0-79.394-57.831-145.269-133.663-157.83A31.845 31.845 0 0 0 256 32c0-17.673-14.327-32-32-32s-32 14.327-32 32c0 6.75 2.095 13.008 5.663 18.17C121.831 62.731 64 128.606 64 208c0 108.118-27.643 135.809-49.893 158.059C-16.042 396.208 5.325 448 48.048 448H160c0 35.346 28.654 64 64 64s64-28.654 64-64h111.943c42.638 0 64.151-51.731 33.941-81.941zM224 472a8 8 0 0 1 0 16c-22.056 0-40-17.944-40-40h16c0 13.234 10.766 24 24 24z"/></symbol><symbol class="csvg-inline--fa cfa-fire-extinguisher cfa-w-14" viewBox="0 0 448 512" id="fas-fire-extinguisher" xmlns="http://www.w3.org/2000/svg"><path fill="currentColor" d="M434.027 26.329l-168 28C254.693 56.218 256 67.8 256 72h-58.332C208.353 36.108 181.446 0 144 0c-39.435 0-66.368 39.676-52.228 76.203-52.039 13.051-75.381 54.213-90.049 90.884-4.923 12.307 1.063 26.274 13.37 31.197 12.317 4.926 26.279-1.075 31.196-13.37C75.058 112.99 106.964 120 168 120v27.076c-41.543 10.862-72 49.235-72 94.129V488c0 13.255 10.745 24 24 24h144c13.255 0 24-10.745 24-24V240c0-44.731-30.596-82.312-72-92.97V120h40c0 2.974-1.703 15.716 10.027 17.671l168 28C441.342 166.89 448 161.25 448 153.834V38.166c0-7.416-6.658-13.056-13.973-11.837zM144 72c-8.822 0-16-7.178-16-16s7.178-16 16-16 16 7.178 16 16-7.178 16-16 16z"/></symbol><symbol class="dsvg-inline--fa dfa-key dfa-w-16" viewBox="0 0 512 512" id="fas-key" xmlns="http://www.w3.org/2000/svg"><path fill="currentColor" d="M512 176.001C512 273.203 433.202 352 336 352c-11.22 0-22.19-1.062-32.827-3.069l-24.012 27.014A23.999 23.999 0 0 1 261.223 384H224v40c0 13.255-10.745 24-24 24h-40v40c0 13.255-10.745 24-24 24H24c-13.255 0-24-10.745-24-24v-78.059c0-6.365 2.529-12.47 7.029-16.971l161.802-161.802C163.108 213.814 160 195.271 160 176 160 78.798 238.797.001 335.999 0 433.488-.001 512 78.511 512 176.001zM336 128c0 26.51 21.49 48 48 48s48-21.49 48-48-21.49-48-48-48-48 21.49-48 48z"/></symbol><symbol class="esvg-inline--fa efa-life-ring efa-w-16" viewBox="0 0 512 512" id="fas-life-ring" xmlns="http://www.w3.org/2000/svg"><path fill="currentColor" d="M256 8C119.033 8 8 119.033 8 256s111.033 248 248 248 248-111.033 248-248S392.967 8 256 8zm173.696 119.559l-63.399 63.399c-10.987-18.559-26.67-34.252-45.255-45.255l63.399-63.399a218.396 218.396 0 0 1 45.255 45.255zM256 352c-53.019 0-96-42.981-96-96s42.981-96 96-96 96 42.981 96 96-42.981 96-96 96zM127.559 82.304l63.399 63.399c-18.559 10.987-34.252 26.67-45.255 45.255l-63.399-63.399a218.372 218.372 0 0 1 45.255-45.255zM82.304 384.441l63.399-63.399c10.987 18.559 26.67 34.252 45.255 45.255l-63.399 63.399a218.396 218.396 0 0 1-45.255-45.255zm302.137 45.255l-63.399-63.399c18.559-10.987 34.252-26.67 45.255-45.255l63.399 63.399a218.403 218.403 0 0 1-45.255 45.255z"/></symbol><symbol class="fsvg-inline--fa ffa-medkit ffa-w-16" viewBox="0 0 512 512" id="fas-medkit" xmlns="http://www.w3.org/2000/svg"><path fill="currentColor" d="M96 480h320V128h-32V80c0-26.51-21.49-48-48-48H176c-26.51 0-48 21.49-48 48v48H96v352zm96-384h128v32H192V96zm320 80v256c0 26.51-21.49 48-48 48h-16V128h16c26.51 0 48 21.49 48 48zM64 480H48c-26.51 0-48-21.49-48-48V176c0-26.51 21.49-48 48-48h16v352zm288-208v32c0 8.837-7.163 16-16 16h-48v48c0 8.837-7.163 16-16 16h-32c-8.837 0-16-7.163-16-16v-48h-48c-8.837 0-16-7.163-16-16v-32c0-8.837 7.163-16 16-16h48v-48c0-8.837 7.163-16 16-16h32c8.837 0 16 7.163 16 16v48h48c8.837 0 16 7.163 16 16z"/></symbol><symbol class="gsvg-inline--fa gfa-motorcycle gfa-w-20" viewBox="0 0 640 512" id="fas-motorcycle" xmlns="http://www.w3.org/2000/svg"><path fill="currentColor" d="M512.949 192.003c-14.862-.108-29.14 2.322-42.434 6.874L437.589 144H520c13.255 0 24-10.745 24-24V88c0-13.255-10.745-24-24-24h-45.311a24 24 0 0 0-17.839 7.945l-37.496 41.663-22.774-37.956A24 24 0 0 0 376 64h-80c-8.837 0-16 7.163-16 16v16c0 8.837 7.163 16 16 16h66.411l19.2 32H227.904c-17.727-23.073-44.924-40-99.904-40H72.54c-13.455 0-24.791 11.011-24.536 24.464C48.252 141.505 58.9 152 72 152h56c24.504 0 38.686 10.919 47.787 24.769l-11.291 20.529c-13.006-3.865-26.871-5.736-41.251-5.21C55.857 194.549 1.565 249.605.034 317.021-1.603 389.076 56.317 448 128 448c59.642 0 109.744-40.794 123.953-96h84.236c13.673 0 24.589-11.421 23.976-25.077-2.118-47.12 17.522-93.665 56.185-125.026l12.485 20.808c-27.646 23.654-45.097 58.88-44.831 98.179.47 69.556 57.203 126.452 126.758 127.11 71.629.678 129.839-57.487 129.234-129.099-.588-69.591-57.455-126.386-127.047-126.892zM128 400c-44.112 0-80-35.888-80-80s35.888-80 80-80c4.242 0 8.405.341 12.469.982L98.97 316.434C90.187 332.407 101.762 352 120 352h81.297c-12.37 28.225-40.56 48-73.297 48zm388.351-.116C470.272 402.337 432 365.554 432 320c0-21.363 8.434-40.781 22.125-55.144l49.412 82.352c4.546 7.577 14.375 10.034 21.952 5.488l13.72-8.232c7.577-4.546 10.034-14.375 5.488-21.952l-48.556-80.927A80.005 80.005 0 0 1 512 240c45.554 0 82.338 38.273 79.884 84.352-2.16 40.558-34.974 73.372-75.533 75.532z"/></symbol><symbol class="hsvg-inline--fa hfa-smoking hfa-w-20" viewBox="0 0 640 512" id="fas-smoking" xmlns="http://www.w3.org/2000/svg"><path fill="currentColor" d="M632 352h-48c-4.4 0-8 3.6-8 8v144c0 4.4 3.6 8 8 8h48c4.4 0 8-3.6 8-8V360c0-4.4-3.6-8-8-8zM553.3 87.1c-5.7-3.8-9.3-10-9.3-16.8V8c0-4.4-3.6-8-8-8h-48c-4.4 0-8 3.6-8 8v62.3c0 22 10.2 43.4 28.6 55.4 42.2 27.3 67.4 73.8 67.4 124V280c0 4.4 3.6 8 8 8h48c4.4 0 8-3.6 8-8v-30.3c0-65.5-32.4-126.2-86.7-162.6zM432 352H48c-26.5 0-48 21.5-48 48v64c0 26.5 21.5 48 48 48h384c8.8 0 16-7.2 16-16V368c0-8.8-7.2-16-16-16zm-32 112H224v-64h176v64zm87.7-322.4C463.8 125 448 99.3 448 70.3V8c0-4.4-3.6-8-8-8h-48c-4.4 0-8 3.6-8 8v66.4c0 43.7 24.6 81.6 60.3 106.7 22.4 15.7 35.7 41.2 35.7 68.6V280c0 4.4 3.6 8 8 8h48c4.4 0 8-3.6 8-8v-30.3c0-43.3-21-83.4-56.3-108.1zM536 352h-48c-4.4 0-8 3.6-8 8v144c0 4.4 3.6 8 8 8h48c4.4 0 8-3.6 8-8V360c0-4.4-3.6-8-8-8z"/></symbol><symbol class="isvg-inline--fa ifa-taxi ifa-w-16" viewBox="0 0 512 512" id="fas-taxi" xmlns="http://www.w3.org/2000/svg"><path fill="currentColor" d="M461.951 243.865l-21.816-87.268A79.885 79.885 0 0 0 362.522 96H352V56c0-13.255-10.745-24-24-24H184c-13.255 0-24 10.745-24 24v40h-10.522a79.885 79.885 0 0 0-77.612 60.597L50.05 243.865C25.515 252.823 8 276.366 8 304v48c0 20.207 9.374 38.214 24 49.943V456c0 13.255 10.745 24 24 24h48c13.255 0 24-10.745 24-24v-40h256v40c0 13.255 10.745 24 24 24h48c13.255 0 24-10.745 24-24v-54.057c14.626-11.729 24-29.737 24-49.943v-48c0-27.634-17.515-51.177-42.049-60.135zM149.478 160h213.045a15.975 15.975 0 0 1 15.522 12.12l16.97 67.88h-278.03l16.97-67.881A15.976 15.976 0 0 1 149.478 160zM132 336c0 19.882-16.118 36-36 36s-36-16.118-36-36 16.118-36 36-36 36 16.118 36 36zm320 0c0 19.882-16.118 36-36 36s-36-16.118-36-36 16.118-36 36-36 36 16.118 36 36z"/></symbol><symbol class="jsvg-inline--fa jfa-thermometer-three-quarters jfa-w-8" viewBox="0 0 256 512" id="fas-thermometer-three-quarters" xmlns="http://www.w3.org/2000/svg"><path fill="currentColor" d="M192 384c0 35.346-28.654 64-64 64-35.346 0-64-28.654-64-64 0-23.685 12.876-44.349 32-55.417V160c0-17.673 14.327-32 32-32s32 14.327 32 32v168.583c19.124 11.068 32 31.732 32 55.417zm32-84.653c19.912 22.563 32 52.194 32 84.653 0 70.696-57.303 128-128 128-.299 0-.609-.001-.909-.003C56.789 511.509-.357 453.636.002 383.333.166 351.135 12.225 321.755 32 299.347V96c0-53.019 42.981-96 96-96s96 42.981 96 96v203.347zM208 384c0-34.339-19.37-52.19-32-66.502V96c0-26.467-21.533-48-48-48S80 69.533 80 96v221.498c-12.732 14.428-31.825 32.1-31.999 66.08-.224 43.876 35.563 80.116 79.423 80.42L128 464c44.112 0 80-35.888 80-80z"/></symbol><symbol class="ksvg-inline--fa kfa-volume-up kfa-w-18" viewBox="0 0 576 512" id="fas-volume-up" xmlns="http://www.w3.org/2000/svg"><path fill="currentColor" d="M256 88.017v335.964c0 21.438-25.943 31.998-40.971 16.971L126.059 352H24c-13.255 0-24-10.745-24-24V184c0-13.255 10.745-24 24-24h102.059l88.971-88.954c15.01-15.01 40.97-4.49 40.97 16.971zm182.056-77.876C422.982.92 403.283 5.668 394.061 20.745c-9.221 15.077-4.473 34.774 10.604 43.995C468.967 104.063 512 174.983 512 256c0 73.431-36.077 142.292-96.507 184.206-14.522 10.072-18.129 30.01-8.057 44.532 10.076 14.528 30.016 18.126 44.531 8.057C529.633 438.927 576 350.406 576 256c0-103.244-54.579-194.877-137.944-245.859zM480 256c0-68.547-36.15-129.777-91.957-163.901-15.076-9.22-34.774-4.471-43.994 10.607-9.22 15.078-4.471 34.774 10.607 43.994C393.067 170.188 416 211.048 416 256c0 41.964-20.62 81.319-55.158 105.276-14.521 10.073-18.128 30.01-8.056 44.532 6.216 8.96 16.185 13.765 26.322 13.765a31.862 31.862 0 0 0 18.21-5.709C449.091 377.953 480 318.938 480 256zm-96 0c0-33.717-17.186-64.35-45.972-81.944-15.079-9.214-34.775-4.463-43.992 10.616s-4.464 34.775 10.615 43.992C314.263 234.538 320 244.757 320 256a32.056 32.056 0 0 1-13.802 26.332c-14.524 10.069-18.136 30.006-8.067 44.53 10.07 14.525 30.008 18.136 44.53 8.067C368.546 316.983 384 287.478 384 256z"/></symbol><symbol class="lsvg-inline--fa lfa-warehouse lfa-w-20" viewBox="0 0 640 512" id="fas-warehouse" xmlns="http://www.w3.org/2000/svg"><path fill="currentColor" d="M504 352H136.4c-4.4 0-8 3.6-8 8l-.1 48c0 4.4 3.6 8 8 8H504c4.4 0 8-3.6 8-8v-48c0-4.4-3.6-8-8-8zm0 96H136.1c-4.4 0-8 3.6-8 8l-.1 48c0 4.4 3.6 8 8 8h368c4.4 0 8-3.6 8-8v-48c0-4.4-3.6-8-8-8zm0-192H136.6c-4.4 0-8 3.6-8 8l-.1 48c0 4.4 3.6 8 8 8H504c4.4 0 8-3.6 8-8v-48c0-4.4-3.6-8-8-8zm106.5-139L338.4 3.7a48.15 48.15 0 0 0-36.9 0L29.5 117C11.7 124.5 0 141.9 0 161.3V504c0 4.4 3.6 8 8 8h80c4.4 0 8-3.6 8-8V256c0-17.6 14.6-32 32.6-32h382.8c18 0 32.6 14.4 32.6 32v248c0 4.4 3.6 8 8 8h80c4.4 0 8-3.6 8-8V161.3c0-19.4-11.7-36.8-29.5-44.3z"/></symbol></svg>