<?xml version="1.0" encoding="UTF-8" standalone="no"?>
<svg
   xmlns:dc="http://purl.org/dc/elements/1.1/"
   xmlns:cc="http://creativecommons.org/ns#"
   xmlns:rdf="http://www.w3.org/1999/02/22-rdf-syntax-ns#"
   xmlns:svg="http://www.w3.org/2000/svg"
   xmlns="http://www.w3.org/2000/svg"
   xmlns:sodipodi="http://sodipodi.sourceforge.net/DTD/sodipodi-0.dtd"
   xmlns:inkscape="http://www.inkscape.org/namespaces/inkscape"
   height="16"
   version="1.1"
   viewBox="0 0 16 16"
   width="16"
   xml:space="preserve"
   id="svg2"
   inkscape:version="0.48.4 r9939"
   sodipodi:docname="fullscreen_request.svg"><metadata
     id="metadata20"><rdf:RDF><cc:Work
         rdf:about=""><dc:format>image/svg+xml</dc:format><dc:type
           rdf:resource="http://purl.org/dc/dcmitype/StillImage" /></cc:Work></rdf:RDF></metadata><defs
     id="defs18" /><sodipodi:namedview
     pagecolor="#ffffff"
     bordercolor="#666666"
     borderopacity="1"
     objecttolerance="10"
     gridtolerance="10"
     guidetolerance="10"
     inkscape:pageopacity="0"
     inkscape:pageshadow="2"
     inkscape:window-width="1920"
     inkscape:window-height="1149"
     id="namedview16"
     showgrid="false"
     fit-margin-top="0"
     fit-margin-left="0"
     fit-margin-right="0"
     fit-margin-bottom="0"
     inkscape:zoom="7.375"
     inkscape:cx="-14.983051"
     inkscape:cy="8"
     inkscape:window-x="0"
     inkscape:window-y="27"
     inkscape:window-maximized="1"
     inkscape:current-layer="svg2" /><g
     id="Layer_1"
     transform="scale(0.5,0.5)"
     style="fill:#ffffff" /><g
     id="fullscreen_x5F_alt"
     transform="scale(0.5,0.5)"
     style="fill:#ffffff"><g
       id="g6"
       style="fill:#ffffff"><polygon
         points="24,32 32,32 32,24 29.414,26.586 22.828,20 20,22.828 26.586,29.414 "
         style="fill:#ffffff"
         id="polygon8" /><polygon
         points="8,0 0,0 0,8 2.586,5.414 9.172,12 12,9.172 5.414,2.586 "
         style="fill:#ffffff"
         id="polygon10" /><polygon
         points="32,8 32,0 24,0 26.586,2.586 20,9.172 22.828,12 29.414,5.414 "
         style="fill:#ffffff"
         id="polygon12" /><polygon
         points="0,32 8,32 5.414,29.414 12,22.828 9.172,20 2.586,26.586 0,24 "
         style="fill:#ffffff"
         id="polygon14" /></g></g></svg>