<?xml version="1.0" encoding="UTF-8"?><svg xmlns="http://www.w3.org/2000/svg" xmlns:xlink="http://www.w3.org/1999/xlink"><symbol viewBox="0 0 15 15" id="maki-aerialway" xmlns="http://www.w3.org/2000/svg"><path d="M13 5H8V2.6a1 1 0 00.42-.46l5.08-.64a.5.5 0 000-1l-5.22.65a1 1 0 00-.78-.4 1 1 0 00-.92.62L1.5 2a.5.5 0 000 1l5.22-.65c.077.1.172.185.28.25V5H2a1 1 0 00-1 1v7a1 1 0 001 1h11a1 1 0 001-1V6a1 1 0 00-1-1zm-6 6H3V7h4v4zm5 0H8V7h4v4z"/></symbol><symbol viewBox="0 0 15 15" id="maki-airfield" xmlns="http://www.w3.org/2000/svg"><path d="M6.818.682H4.773C4.09.682 4.09 0 4.773 0h5.454c.682 0 .682.682 0 .682H8.182S9 1.272 9 2.636V4h6v2L9 8l-.5 5 2.5 1.318V15H4v-.682L6.5 13 6 8 0 6V4h6V2.636c0-1.363.818-1.954.818-1.954z"/></symbol><symbol viewBox="0 0 15 15" id="maki-airport" xmlns="http://www.w3.org/2000/svg"><path d="M15 6.818V8.5l-6.5-1-.318 4.773L11 14v1l-3.5-.682L4 15v-1l2.818-1.727L6.5 7.5 0 8.5V6.818L6.5 4.5v-3s0-1.5 1-1.5 1 1.5 1 1.5v2.818l6.5 2.5z"/></symbol><symbol viewBox="0 0 15 15" id="maki-alcohol-shop" xmlns="http://www.w3.org/2000/svg"><path d="M14 4h-4v3.5a2 2 0 001.5 1.93V13H11a.5.5 0 000 1h2a.5.5 0 000-1h-.5V9.43A2 2 0 0014 7.5V4zm-1 3.5a1 1 0 11-2 0V5h2v2.5zm-7.5-5V2a.5.5 0 000-1V.5A.5.5 0 005 0H4a.5.5 0 00-.5.5V1a.5.5 0 000 1v.5C3.5 3.93 1 5.57 1 7v6a1 1 0 001 1h5a1.1 1.1 0 001-1V7c0-1.35-2.5-3.15-2.5-4.5zm-1 9.5a2.5 2.5 0 110-5 2.5 2.5 0 010 5z"/></symbol><symbol viewBox="0 0 15 15" id="maki-american-football" xmlns="http://www.w3.org/2000/svg"><path d="M7.53 3C3.09 3 1 7.5 1 7.5S3.09 12 7.53 12 14 7.5 14 7.5 12 3 7.53 3zM11 7v1.5a.5.5 0 01-1 0V8H8v.5a.5.5 0 01-1 0V8H5v.5a.5.5 0 01-1 0v-2a.5.5 0 011 0V7h2v-.5a.5.5 0 011 0V7h2v-.5a.5.5 0 011 0V7z"/></symbol><symbol viewBox="0 0 15 15" id="maki-amusement-park" xmlns="http://www.w3.org/2000/svg"><path d="M7.5 0C3.919 0 1 2.919 1 6.5c0 2.316 1.225 4.348 3.057 5.5H4l-1 2h9l-1-2h-.057C12.775 10.848 14 8.816 14 6.5 14 2.919 11.081 0 7.5 0zm-.125 1.506v3.5a1.5 1.5 0 00-.844.35L4.057 2.88a4.972 4.972 0 013.318-1.375zm.25 0c1.29.032 2.45.55 3.318 1.375L8.47 5.356l-.002-.002a1.5 1.5 0 00-.842-.348v-3.5zm-3.744 1.55l2.475 2.475-.002.002a1.5 1.5 0 00-.348.842h-3.5c.032-1.29.55-2.45 1.375-3.318zm7.238 0a4.972 4.972 0 011.375 3.319h-3.5a1.5 1.5 0 00-.35-.844l2.475-2.474zM2.506 6.626h3.5a1.5 1.5 0 00.35.844L3.88 9.943a4.972 4.972 0 01-1.375-3.318zm6.488 0h3.5a4.972 4.972 0 01-1.375 3.318L8.645 7.47s0-.002.002-.002a1.5 1.5 0 00.347-.842zm-2.463 1.02s.002 0 .002.002A1.5 1.5 0 007 7.911v3.563a4.97 4.97 0 01-2.943-1.356L6.53 7.645zm1.938 0l2.474 2.474A4.97 4.97 0 018 11.475V7.912a1.5 1.5 0 00.469-.268z"/></symbol><symbol viewBox="0 0 15 15" id="maki-aquarium" xmlns="http://www.w3.org/2000/svg"><path d="M10.9 11.6c-.3-.6-.3-2.3 0-2.8.4-.6 3.4 1.4 3.4 1.4.9.4.9-6.1 0-5.7 0 0-3.1 2.1-3.4 1.4-.3-.7-.3-2.1 0-2.8.3-.6 4.1-.7 4.1-.7 0-.7-2.9-1.4-4.1-1.4s-2.5.1-4.1.8c-1.6.6-2.9 1.6-4.1 2.8S0 8.2 0 8.9s1.5 2.8 3.7 3.7 3.3 1.1 4.5 1.3c1.1.1 2.6 0 3.9-.3 1-.2 2.9-.7 2.9-1.1 0-.2-3.8-.3-4.1-.9zM4.5 9.3C3.7 9.3 3 8.6 3 7.8s.7-1.5 1.5-1.5S6 7 6 7.8s-.7 1.5-1.5 1.5z"/></symbol><symbol viewBox="0 0 15 15" id="maki-arrow" xmlns="http://www.w3.org/2000/svg"><path d="M8.293 2.293a1 1 0 011.414 0l4.5 4.5a1 1 0 010 1.414l-4.5 4.5a1 1 0 01-1.414-1.414L11 8.5H1.5a1 1 0 010-2H11L8.293 3.707a1 1 0 010-1.414z"/></symbol><symbol viewBox="0 0 15 15" id="maki-art-gallery" xmlns="http://www.w3.org/2000/svg"><path d="M10.71 4L7.85 1.15a.5.5 0 00-.707-.003l-.003.003L4.29 4H1.5a.5.5 0 00-.5.5v9a.5.5 0 00.5.5h12a.5.5 0 00.5-.5v-9a.5.5 0 00-.5-.5h-2.79zM7.5 2.21L9.29 4H5.71L7.5 2.21zM13 13H2V5h11v8zM5 8a1 1 0 110-2 1 1 0 010 2zm7 4H4.5L6 9l1.25 2.5L9.5 7l2.5 5z"/></symbol><symbol viewBox="0 0 15 15" id="maki-attraction" xmlns="http://www.w3.org/2000/svg"><path d="M6 2c-.554 0-.752.505-1 1l-.5 1h-2C1.669 4 1 4.669 1 5.5v5c0 .831.669 1.5 1.5 1.5h10c.831 0 1.5-.669 1.5-1.5v-5c0-.831-.669-1.5-1.5-1.5h-2L10 3c-.25-.5-.446-1-1-1H6zM2.5 5a.5.5 0 110 1 .5.5 0 010-1zm5 0a3 3 0 110 6 3 3 0 010-6zm0 1.5a1.5 1.5 0 000 3 1.5 1.5 0 000-3z"/></symbol><symbol viewBox="0 0 15 15" id="maki-bakery" xmlns="http://www.w3.org/2000/svg"><path d="M5.294 4.382L6 9.5a.979.979 0 001 1h1a.979.979 0 001-1l.706-5.118C9.706 3 7.5 3 7.5 3S5.291 3 5.294 4.382zM3.5 5C2 5 2 6 2 6l1 4h1.5a.793.793 0 00.794-.765L4.5 5zm-2 2.5a1.533 1.533 0 00-1.059.412A1.366 1.366 0 000 8.794V11h.882A1.02 1.02 0 002 10zm10-2.5C13 5 13 6 13 6l-1 4h-1.5a.793.793 0 01-.794-.765L10.5 5zm2 2.5a1.533 1.533 0 011.059.412 1.366 1.366 0 01.441.882V11h-.882A1.02 1.02 0 0113 10z"/></symbol><symbol viewBox="0 0 15 15" id="maki-bank" xmlns="http://www.w3.org/2000/svg"><path d="M1 3c-.554 0-1 .446-1 1v7c0 .554.446 1 1 1h13c.554 0 1-.446 1-1V4c0-.554-.446-1-1-1H1zm0 1h1.5a.5.5 0 11-.5.5l-.5.5a.5.5 0 11-.5.5V4zm6.5 0C8.88 4 10 5.567 10 7.5S8.88 11 7.5 11 5 9.433 5 7.5 6.12 4 7.5 4zm5 0H14v1.5a.5.5 0 11-.5-.5l-.5-.5a.5.5 0 11-.5-.5zm-5 1.5c-.323 0-.534.109-.682.25h1.364c-.148-.141-.359-.25-.682-.25zm-.875.5c-.045.091-.062.171-.08.25h1.91c-.018-.079-.034-.159-.08-.25h-1.75zm-.125.5v.25h2V6.5h-2zm0 .5v.25h2V7h-2zm0 .5v.25h2V7.5h-2zm0 .5l-.25.25h2L8.5 8h-2zm-.5.5s.035.102.102.25h2.273L8 8.5H6zM1.5 9a.5.5 0 010 1l.5.5a.5.5 0 11.5.5H1V9.5a.5.5 0 01.5-.5zm4.738 0c.046.086.076.159.137.25h2.268c.066-.138.107-.25.107-.25H6.238zM13.5 9a.5.5 0 01.5.5V11h-1.5a.5.5 0 11.5-.5l.5-.5a.5.5 0 010-1zm-6.934.5c.079.091.165.176.26.25h1.42c.1-.077.188-.162.254-.25H6.566z"/></symbol><symbol viewBox="0 0 15 15" id="maki-bank-JP" xmlns="http://www.w3.org/2000/svg"><path d="M12.28 3.376l-2.9 3.625h1.87a.75.75 0 010 1.5H8.5v1h2.75a.75.75 0 010 1.5H8.5v1.25a1 1 0 01-2 0v-1.25H3.75a.75.75 0 110-1.5H6.5v-1H3.75a.75.75 0 010-1.5h1.87l-2.9-3.625a1 1 0 011.557-1.254l.004.004L7.5 6.15l3.22-4.024a1 1 0 011.565 1.245z"/></symbol><symbol viewBox="0 0 15 15" id="maki-bar" xmlns="http://www.w3.org/2000/svg"><path d="M7.5 1c-2 0-7 .25-6.5.75L7 8v4c0 1-3 .5-3 2h7c0-1.5-3-1-3-2V8l6-6.25c.5-.5-4.5-.75-6.5-.75zm0 1c2.5 0 4.75.25 4.75.25L11.5 3h-8l-.75-.75S5 2 7.5 2z"/></symbol><symbol viewBox="0 0 15 15" id="maki-barrier" xmlns="http://www.w3.org/2000/svg"><path d="M13 3H2a1 1 0 00-1 1v6a1 1 0 001 1h1v2.5a.5.5 0 001 0V13h7v.5a.5.5 0 001 0V11h1a1 1 0 001-1V4a1 1 0 00-1-1zm0 1v2l-2-2zM9.5 4L13 7.5V10L7 4zm-4 6L2 6.5V4l6 6zM2 10V8l2 2zm9 2H4v-1h7zm-.207-2H9.5l-6-6h2l6 6z"/></symbol><symbol viewBox="0 0 15 15" id="maki-baseball" xmlns="http://www.w3.org/2000/svg"><path d="M10 3.5a1.5 1.5 0 11-3 0 1.5 1.5 0 013 0zM7 .28A.28.28 0 006.72 0a.49.49 0 00-.25.16L4 4.59a.48.48 0 000 .13c0 .155.125.28.28.28a.49.49 0 00.26-.16L7 .41a.472.472 0 000-.13zm5.9 13.92L10 6.39A.49.49 0 009.52 6h-5a.5.5 0 000 1H7l1.45 2.51-4.27 4.61a.49.49 0 00-.18.38.5.5 0 00.5.5.49.49 0 00.33-.13l4.45-4.15 2.76 4a.51.51 0 00.44.26c.28 0 .51-.22.52-.5a.5.5 0 00-.1-.28z"/></symbol><symbol viewBox="0 0 15 15" id="maki-basketball" xmlns="http://www.w3.org/2000/svg"><path d="M3.66 7.002H2.03a5.323 5.323 0 011.01-2.71 8.712 8.712 0 01.62 2.71zm1.075 0h2.34v-4.97a5.458 5.458 0 00-3.24 1.44 9.295 9.295 0 01.9 3.53zm3.19-4.97v4.97h2.34a9.295 9.295 0 01.9-3.53 5.458 5.458 0 00-3.24-1.44zm4.035 2.26a8.712 8.712 0 00-.62 2.71h1.63a5.323 5.323 0 00-1.01-2.71zM14 8.752a.755.755 0 01-.75.75h-1.53l-.76 1.52v2.38a.392.392 0 01-.24.35.586.586 0 01-.14.02.327.327 0 01-.26-.11l-1.02-1.01-1.59 1.06a.398.398 0 01-.42 0l-1.59-1.06-1.02 1.01a.37.37 0 01-.4.09.392.392 0 01-.24-.35v-2.38l-.76-1.52H1.75a.75.75 0 010-1.5h11.5a.749.749 0 01.75.748zm-7.14.75H4.12l.63 1.27a.318.318 0 01.04.16v1.56l.56-.55zm1.98 2.55L7.5 9.892l-1.34 2.16 1.34.9zm2.05-2.55H8.14l1.51 2.44.56.55v-1.56a.318.318 0 01.04-.16z"/></symbol><symbol viewBox="0 0 15 15" id="maki-bbq" xmlns="http://www.w3.org/2000/svg"><path d="M9.32 7.655A4.018 4.018 0 0012 4H3a4.01 4.01 0 002.63 3.631l-.707 1.413A2.494 2.494 0 106.49 13h4.223l.335.717a.5.5 0 00.905-.428L9.32 7.655zM4.5 12.75a1.25 1.25 0 110-2.5 1.25 1.25 0 010 2.5zM6.95 12a2.49 2.49 0 00-1.091-2.594L6.6 7.923a4.91 4.91 0 001.745 0l1.9 4.07L6.95 12zM4.75 1a.25.25 0 00-.25.25c0 .5-.5.5-.5.5-1 0-1 1-1 1a.25.25 0 10.5 0c0-.5.5-.5.5-.5 1 0 1-1 1-1A.25.25 0 004.75 1zm2 0a.25.25 0 00-.25.25c0 .5-.5.5-.5.5-1 0-1 1-1 1a.25.25 0 10.5 0c0-.5.5-.5.5-.5 1 0 1-1 1-1A.25.25 0 006.75 1zm2 0a.25.25 0 00-.25.25c0 .5-.5.5-.5.5-1 0-1 1-1 1a.25.25 0 10.5 0c0-.5.5-.5.5-.5 1 0 1-1 1-1A.25.25 0 008.75 1zm2 0a.25.25 0 00-.25.25c0 .5-.5.5-.5.5-1 0-1 1-1 1a.25.25 0 10.5 0c0-.5.5-.5.5-.5 1 0 1-1 1-1a.25.25 0 00-.25-.25zm2 0a.25.25 0 00-.25.25c0 .5-.5.5-.5.5-1 0-1 1-1 1a.25.25 0 10.5 0c0-.5.5-.5.5-.5 1 0 1-1 1-1a.25.25 0 00-.25-.25z"/></symbol><symbol viewBox="0 0 15 15" id="maki-beach" xmlns="http://www.w3.org/2000/svg"><path d="M5.36 1.67l-.01 4.02a4.452 4.452 0 00-1.1-.11c-.37.1-.74.63-1.1.76a4.202 4.202 0 012.21-4.67zm2.41-.64L9.8 4.48a3.183 3.183 0 01.84-.61c.36-.1.94.17 1.34.11a4.202 4.202 0 00-4.21-2.95zM1 13h13c-.66-.66-2.64-1.11-4.34-1.33l-1.87-7c.52-.05 1.15.03 1.53 0l-2.11-3.6H7.2a6.174 6.174 0 00-.7.14 4.38 4.38 0 00-.64.22l-.01 4.15c.35-.17.84-.54 1.3-.74l1.8 6.74c-.58-.05-1.09-.08-1.45-.08C6.03 11.5 2 12 1 13z"/></symbol><symbol viewBox="0 0 15 15" id="maki-beer" xmlns="http://www.w3.org/2000/svg"><path d="M12 5V2s-1-1-4.5-1S3 2 3 2v3a9.27 9.27 0 001 4 5.63 5.63 0 010 4.5s0 1 3.5 1 3.5-1 3.5-1A5.63 5.63 0 0111 9a9.27 9.27 0 001-4zm-4.5 8.5a7.368 7.368 0 01-2.36-.28c.203-.722.304-1.47.3-2.22h4.12c-.004.75.097 1.498.3 2.22a7.368 7.368 0 01-2.36.28zm0-8.5c-1.186.03-2.37-.14-3.5-.5v-2A10.74 10.74 0 017.5 2a10.74 10.74 0 013.5.5v2c-1.13.36-2.314.53-3.5.5z"/></symbol><symbol viewBox="0 0 15 15" id="maki-bicycle" xmlns="http://www.w3.org/2000/svg"><path d="M7.5 2c-.676-.01-.676 1.01 0 1H9v1.266L6.197 6.6 5.223 4H5.5c.676.01.676-1.01 0-1h-2c-.676-.01-.676 1.01 0 1h.652l.891 2.375A3.45 3.45 0 003.5 6C1.573 6 0 7.573 0 9.5S1.573 13 3.5 13 7 11.427 7 9.5c0-.67-.2-1.291-.53-1.824l2.821-2.35.463 1.16C8.71 7.094 8 8.211 8 9.5c0 1.927 1.573 3.5 3.5 3.5S15 11.427 15 9.5 13.427 6 11.5 6c-.283 0-.554.043-.818.107L10 4.402V2.5a.5.5 0 00-.5-.5h-2zm-4 5a2.48 2.48 0 011.555.553L3.18 9.115c-.511.427.128 1.195.64.77l1.875-1.563c.188.352.305.75.305 1.178C6 10.887 4.887 12 3.5 12S1 10.887 1 9.5 2.113 7 3.5 7zm8 0C12.887 7 14 8.113 14 9.5S12.887 12 11.5 12 9 10.887 9 9.5c0-.877.447-1.642 1.125-2.088l.91 2.274c.246.623 1.18.25.93-.372l-.908-2.27C11.2 7.02 11.348 7 11.5 7z"/></symbol><symbol viewBox="0 0 15 15" id="maki-bicycle-share" xmlns="http://www.w3.org/2000/svg"><path d="M10 1a1 1 0 100 2 1 1 0 000-2zM8.145 2.994a.5.5 0 00-.348.143l-2.64 2.5a.5.5 0 00.042.763L7 7.75v2.75c-.01.676 1.01.676 1 0v-3a.5.5 0 00-.2-.4l-.767-.577 1.818-1.72.749.998A.5.5 0 0010 6h1.5c.676.01.676-1.01 0-1h-1.25L9.5 4l-.6-.8a.5.5 0 00-.384-.206h-.371zM3 7a3 3 0 100 6 3 3 0 000-6zm9 0a3 3 0 100 6 3 3 0 000-6zM3 8a2 2 0 110 4 2 2 0 010-4zm9 0a2 2 0 110 4 2 2 0 010-4z"/></symbol><symbol viewBox="0 0 15 15" id="maki-blood-bank" xmlns="http://www.w3.org/2000/svg"><path d="M11.2 7.1L7.5 2 3.8 7.1c-.5.7-.8 1.6-.8 2.5C3 12 5 14 7.5 14S12 12 12 9.6c0-.9-.3-1.8-.8-2.5zM10 10H8v2H7v-2H5V9h2V7h1v2h2v1z"/></symbol><symbol viewBox="0 0 15 15" id="maki-bowling-alley" xmlns="http://www.w3.org/2000/svg"><path d="M8.83 5.39a11.013 11.013 0 00-.96 4.28 11.469 11.469 0 00.58 3.69A4.942 4.942 0 016 14a5 5 0 112.98-9.01c-.04.13-.1.26-.15.4zM4.12 8.5a.62.62 0 10-.62.62.61.61 0 00.62-.6V8.5zm.38-1.38a.62.62 0 10-.62-.62.61.61 0 00.601.62zM6.12 8.5a.62.62 0 10-.62.62.61.61 0 00.62-.6V8.5zm4.802-5.334c0-.722-.144-.722-.144-1.445a.722.722 0 011.444 0c0 .723-.144.723-.144 1.445 0 2.167 1.553 3.617 1.553 6.5 0 2.167-.686 4.333-1.409 4.333h-1.444c-.722 0-1.409-2.166-1.409-4.333 0-2.883 1.553-4.334 1.553-6.5z"/></symbol><symbol viewBox="0 0 15 15" id="maki-bridge" xmlns="http://www.w3.org/2000/svg"><path d="M0 8.842V13h2v-1a2.07 2.07 0 012-2 2.07 2.07 0 012 2v1h3v-1a2.07 2.07 0 012-2 2.07 2.07 0 012 2v1h2V8.842a9.245 9.245 0 00-15 0zm9.5-3.108a8.802 8.802 0 011.5.5V9H9.5V5.734zm-.5-.1V9H7.5V5.506c.503 0 1.005.043 1.5.128zm-5.5.843c.48-.248.982-.451 1.5-.606V9H3.5V6.477zM5.5 9V5.73A8.732 8.732 0 017 5.515V9H5.5zM3 6.744V9H.5A8.777 8.777 0 013 6.744zM11.5 9V6.5l-.053-.053A8.674 8.674 0 0114.5 9h-3z"/></symbol><symbol viewBox="0 0 15 15" id="maki-building" xmlns="http://www.w3.org/2000/svg"><path d="M3 2v11h5v-3h3v3h1V2H3zm4 10H4v-2h3v2zm0-3H4V7h3v2zm0-3H4V4h3v2zm4 3H8V7h3v2zm0-3H8V4h3v2z"/></symbol><symbol viewBox="0 0 15 15" id="maki-building-alt1" xmlns="http://www.w3.org/2000/svg"><path d="M11 13.5v-9c0-.3-.2-.5-.5-.5H9V1L5 2.1v11.4H2v.5h11v-.5h-2zm-4 0V3h1v10.5H7z"/></symbol><symbol viewBox="0 0 15 15" id="maki-bus" xmlns="http://www.w3.org/2000/svg"><path d="M4 0C2.636 0 1 .743 1 2.746V12s0 1 1 1v1s0 1 1 1 1-1 1-1v-1h7v1s0 1 1 1 1-1 1-1v-1s1 0 1-1V2.746C14 .701 12.764 0 11.4 0H4zm.25 1.5h6.5a.25.25 0 110 .5h-6.5a.25.25 0 110-.5zM3 3h9c1 0 1 .967 1 .967V7s0 1-1 1H3C2 8 2 7 2 7V4s0-1 1-1zm0 7a1 1 0 110 2 1 1 0 010-2zm9 0a1 1 0 110 2 1 1 0 010-2z"/></symbol><symbol viewBox="0 0 15 15" id="maki-cafe" xmlns="http://www.w3.org/2000/svg"><path d="M12 5h-2V3H2v4a4 4 0 007.45 2H12a2 2 0 100-4zm0 3H9.86A4 4 0 0010 7V6h2a1 1 0 110 2zm-2 4.5a.5.5 0 01-.5.5h-7a.5.5 0 010-1h7a.5.5 0 01.5.5z"/></symbol><symbol viewBox="0 0 15 15" id="maki-campsite" xmlns="http://www.w3.org/2000/svg"><path d="M7 1.5l-5.5 9H1c-1 0-1 1-1 1v1s0 1 1 1h13c1 0 1-1 1-1v-1s0-1-1-1h-.5L8 1.5c-.2-.4-.8-.4-1 0zM7.5 5l3.2 5.5H4.2L7.5 5z"/></symbol><symbol viewBox="0 0 15 15" id="maki-car" xmlns="http://www.w3.org/2000/svg"><path d="M13.84 6.852L12.6 5.7l-1.1-2.2a1.05 1.05 0 00-.9-.5H4.4a1.05 1.05 0 00-.9.5L2.4 5.7 1.16 6.852a.5.5 0 00-.16.367V11.5a.5.5 0 00.5.5h2c.2 0 .5-.2.5-.4V11h7v.5c0 .2.2.5.4.5h2.1a.5.5 0 00.5-.5V7.219a.5.5 0 00-.16-.367zM4.5 4h6l1 2h-8zM5 8.6c0 .2-.3.4-.5.4H2.4c-.2 0-.4-.3-.4-.5V7.4c.1-.3.3-.5.6-.4l2 .4c.2 0 .4.3.4.5zm8-.1c0 .2-.2.5-.4.5h-2.1c-.2 0-.5-.2-.5-.4v-.7c0-.2.2-.5.4-.5l2-.4c.3-.1.5.1.6.4z"/></symbol><symbol viewBox="0 0 15 15" id="maki-car-rental" xmlns="http://www.w3.org/2000/svg"><path d="M12.6 8.7l-1.1-2.2a1.05 1.05 0 00-.9-.5H4.4a1.05 1.05 0 00-.9.5L2.4 8.7 1.16 9.852a.5.5 0 00-.16.367V14.5a.5.5 0 00.5.5h2c.2 0 .5-.2.5-.4V14h7v.5c0 .2.2.5.4.5h2.1a.5.5 0 00.5-.5v-4.281a.5.5 0 00-.16-.367zM4.5 7h6l1 2h-8zm.5 4.6c0 .2-.3.4-.5.4H2.4c-.2 0-.4-.3-.4-.5v-1.1c.1-.3.3-.5.6-.4l2 .4c.2 0 .4.3.4.5zm8-.1c0 .2-.2.5-.4.5h-2.1c-.2 0-.5-.2-.5-.4v-.7c0-.2.2-.5.4-.5l2-.4c.3-.1.5.1.6.4zM13.5 0H11a1 1 0 00-1 1H2L1 2v1l1 1 1.5-1.5L5 4l1.5-1.5L8 4h2a1 1 0 001 1h2.5a.5.5 0 00.5-.5v-4a.5.5 0 00-.5-.5zM13 3.5a.5.5 0 01-1 0v-2a.5.5 0 011 0z"/></symbol><symbol viewBox="0 0 15 15" id="maki-car-repair" xmlns="http://www.w3.org/2000/svg"><path d="M12.6 8.7l-1.1-2.2a1.05 1.05 0 00-.9-.5H4.4a1.05 1.05 0 00-.9.5L2.4 8.7 1.16 9.852a.5.5 0 00-.16.367V14.5a.5.5 0 00.5.5h2c.2 0 .5-.2.5-.4V14h7v.5c0 .2.2.5.4.5h2.1a.5.5 0 00.5-.5v-4.281a.5.5 0 00-.16-.367zM4.5 7h6l1 2h-8zm.5 4.6c0 .2-.3.4-.5.4H2.4c-.2 0-.4-.3-.4-.5v-1.1c.1-.3.3-.5.6-.4l2 .4c.2 0 .4.3.4.5zm8-.1c0 .2-.2.5-.4.5h-2.1c-.2 0-.5-.2-.5-.4v-.7c0-.2.2-.5.4-.5l2-.4c.3-.1.5.1.6.4zM14 2v1a1.009 1.009 0 01-1.017 1H5.348A2.549 2.549 0 011 3.5h2.5v-2H1A2.549 2.549 0 015.348 1h7.635A1.009 1.009 0 0114 2z"/></symbol><symbol viewBox="0 0 15 15" id="maki-casino" xmlns="http://www.w3.org/2000/svg"><path d="M8.5 10A2.5 2.5 0 0013 8.5c0-.564-.194-1.079-.509-1.497L12.5 7l-5-6-5 6 .009.003A2.478 2.478 0 002 8.5 2.5 2.5 0 006.5 10l.5-.666V11.5C7 13 4.5 13 4.5 13a.5.5 0 100 1h6a.5.5 0 000-1S8 13 8 11.5V9.334l.5.666z"/></symbol><symbol viewBox="0 0 15 15" id="maki-castle" xmlns="http://www.w3.org/2000/svg"><path d="M11 4H4a1 1 0 01-1-1V.5a.5.5 0 011 0V2h1V1a1 1 0 112 0v1h1V1a1 1 0 112 0v1h1V.5a.5.5 0 011 0V3a1 1 0 01-1 1zm3 10.5a.5.5 0 01-.5.5h-12a.5.5 0 010-1H2a1 1 0 001-1s1-6 1-7a1 1 0 011-1h5a1 1 0 011 1c0 1 1 7 1 7a1 1 0 001 1h.5a.5.5 0 01.5.49v.01zm-5-4a1.5 1.5 0 00-3 0V14h3v-3.5z"/></symbol><symbol viewBox="0 0 15 15" id="maki-castle-JP" xmlns="http://www.w3.org/2000/svg"><path d="M12.5 12.75a1 1 0 01-1-1v-4.5H10a1 1 0 01-1-1v-2H6v2a1 1 0 01-1 1H3.5v4.5a1 1 0 01-2 0v-5.5a1 1 0 011-1H4v-2a1 1 0 011-1h5a1 1 0 011 1v2h1.5a1 1 0 011 1v5.5a1 1 0 01-1 1z"/></symbol><symbol viewBox="0 0 15 15" id="maki-caution" xmlns="http://www.w3.org/2000/svg"><path d="M14.9 13.4L8.5.6C8.1-.2 7-.2 6.6.6L.1 13.4c-.4.7.2 1.6 1 1.6h12.8c.8 0 1.3-.9 1-1.6zM7.5 13c-.8 0-1.5-.7-1.5-1.5S6.6 10 7.5 10s1.5.7 1.5 1.5c0 .9-.7 1.5-1.5 1.5zm1-4h-2L6 5.5c0-.3.2-.5.5-.5h2c.3 0 .5.2.5.5L8.5 9z"/></symbol><symbol viewBox="0 0 15 15" id="maki-cemetery" xmlns="http://www.w3.org/2000/svg"><path d="M11.46 12h-.68L12 3.55a.52.52 0 00-.56-.55h-1.18c0-.92-1.23-2-2.75-2S4.77 2.08 4.77 3H3.54a.52.52 0 00-.54.55L4.2 12h-.65a.53.53 0 00-.55.5V14h9v-1.51a.52.52 0 00-.54-.49zM4.5 5h6v1h-6V5z"/></symbol><symbol viewBox="0 0 15 15" id="maki-cemetery-JP" xmlns="http://www.w3.org/2000/svg"><path d="M11.5 11h-3V2.5a.945.945 0 00-1-1 .945.945 0 00-1 1V11h-3a1 1 0 000 2h8a.945.945 0 001-1 1.002 1.002 0 00-1-1z"/></symbol><symbol viewBox="0 0 15 15" id="maki-charging-station" xmlns="http://www.w3.org/2000/svg"><path d="M13 4V2.49a.5.5 0 00-.5-.49.51.51 0 00-.5.55V5a1 1 0 001 1v5.5a.5.5 0 01-1 0v-2A1.5 1.5 0 0010.5 8H9V2a1 1 0 00-1-1H2a1 1 0 00-1 1v11a1 1 0 001 1h6a1 1 0 001-1V9h1.5a.5.5 0 01.5.5v2a1.5 1.5 0 003 0V5a1 1 0 00-1-1zM7.2 7.4l-2.6 3.467-.017-.007c-.046.078-.116.14-.214.14a.267.267 0 01-.267-.267c0-.028.021-.047.03-.072l-.018-.008.776-2.324A.25.25 0 004.653 8H3a.25.25 0 01-.2-.4L5.4 4.133l.017.007c.046-.078.116-.14.214-.14.148 0 .267.12.267.267 0 .028-.021.046-.03.072l.018.008L5.11 6.67A.25.25 0 005.347 7H7a.25.25 0 01.2.4z"/></symbol><symbol viewBox="0 0 15 15" id="maki-cinema" xmlns="http://www.w3.org/2000/svg"><path d="M14 7.5v2a.5.5 0 01-1 0s.06-.5-1-.5h-1v2.5a.5.5 0 01-.5.5h-8a.5.5 0 01-.5-.5v-4a.5.5 0 01.5-.5h8a.5.5 0 01.5.5V8h1c1.06 0 1-.5 1-.5a.5.5 0 011 0zM4 3a2 2 0 100 4 2 2 0 000-4zm0 3a1 1 0 110-2 1 1 0 010 2zm4.5-4a2.5 2.5 0 100 5 2.5 2.5 0 000-5zm0 4a1.5 1.5 0 110-3 1.5 1.5 0 010 3z"/></symbol><symbol viewBox="0 0 15 15" id="maki-circle" xmlns="http://www.w3.org/2000/svg"><path d="M14 7.5a6.5 6.5 0 11-13 0 6.5 6.5 0 0113 0z"/></symbol><symbol viewBox="0 0 15 15" id="maki-circle-stroked" xmlns="http://www.w3.org/2000/svg"><path d="M7.5 0a7.5 7.5 0 110 15 7.5 7.5 0 010-15zm0 1.667a5.833 5.833 0 100 11.666 5.833 5.833 0 000-11.666z"/></symbol><symbol viewBox="0 0 15 15" id="maki-city" xmlns="http://www.w3.org/2000/svg"><path d="M13.637 4h-1.639V1.36a.36.36 0 00-.36-.36h-.279a.36.36 0 00-.36.36V4H9.36a.36.36 0 00-.36.36v5.638H5.361c-.2 0-.363.163-.363.363v3.275c0 .2.163.362.363.362h8.275c.2 0 .36-.162.36-.361V4.36a.36.36 0 00-.36-.36zm-6.638 7.998h-1v-1h1v1zm2 0h-1v-1h1v1zm2 0h-1v-1h1v1zm0-2h-1v-1h1v1zm0-2h-1v-1h1v1zm0-2h-1v-1h1v1zm2 6h-1v-1h1v1zm0-2h-1v-1h1v1zm0-2h-1v-1h1v1zm0-2h-1v-1h1v1zm-5-4.637A.36.36 0 007.638 1H5.36a.36.36 0 00-.36.36V3H3.36a.36.36 0 00-.36.36V4H1.36a.36.36 0 00-.36.36v9.277c0 .199.162.36.36.36H4V9h3.999V1.36zM3 11.998H2v-1h1v1zm0-2H2v-1h1v1zm0-2H2v-1h1v1zm0-2H2v-1h1v1zm2 2H4v-1h1v1zm0-2H4v-1h1v1zm2 2H6v-1h1v1zm0-2H6v-1h1v1zm0-2H6V3h1v1-.002z"/></symbol><symbol viewBox="0 0 15 15" id="maki-clothing-store" xmlns="http://www.w3.org/2000/svg"><path d="M3.5 1L0 4v3h2.9l.1 7h9V7h3V4l-3.5-3H10L7.5 5 5 1H3.5z"/></symbol><symbol viewBox="0 0 15 15" id="maki-college" xmlns="http://www.w3.org/2000/svg"><path d="M7.5 1L0 4.5l2 .9v1.7c-.6.2-1 .8-1 1.4s.4 1.2 1 1.4v.1l-.9 2.1C.8 13 1 14 2.5 14s1.7-1 1.4-1.9L3 10c.6-.3 1-.8 1-1.5s-.4-1.2-1-1.4V5.9L7.5 8 15 4.5 7.5 1zm4.4 6.5l-4.5 2L5 8.4v.1c0 .7-.3 1.3-.8 1.8l.6 1.4v.1c.1.4.2.8.1 1.2.7.3 1.5.5 2.5.5 3.3 0 4.5-2 4.5-3v-3z"/></symbol><symbol viewBox="0 0 15 15" id="maki-college-JP" xmlns="http://www.w3.org/2000/svg"><path d="M12.5 3h-4V2a1 1 0 00-2 0v1h-4a1 1 0 000 2h.67a10.817 10.817 0 001.98 3.81c.333.432.66.825.979 1.194a14.383 14.383 0 01-2.608 2.117 1 1 0 10.955 1.758A15.65 15.65 0 007.5 11.461a15.65 15.65 0 003.024 2.418 1 1 0 10.955-1.758 14.379 14.379 0 01-2.607-2.117c.319-.369.645-.762.978-1.193a10.818 10.818 0 001.98-3.812h.67a1 1 0 000-2zM8.267 7.587c-.261.338-.515.641-.767.937a25.017 25.017 0 01-.767-.937 9.588 9.588 0 01-1.465-2.589h4.464a9.579 9.579 0 01-1.465 2.589z"/></symbol><symbol viewBox="0 0 15 15" id="maki-commercial" xmlns="http://www.w3.org/2000/svg"><path d="M14 7H1a11.431 11.431 0 011-4h11a11.429 11.429 0 011 4zM3 8h9v6h-1V9H8v5H3V8zm1 3h3V9H4v2z"/></symbol><symbol viewBox="0 0 15 15" id="maki-communications-tower" xmlns="http://www.w3.org/2000/svg"><path d="M11.854 6.434l-.413-.282a4.762 4.762 0 00.282-4.878l-.084-.153.436-.246.09.167a5.262 5.262 0 01-.31 5.392zm1.153 7.131V14h-11v-.435h2.488L6.044 6.4a.5.5 0 01.489-.395h.725V4.602A1.14 1.14 0 016.376 3.5a1.157 1.157 0 112.313 0 1.14 1.14 0 01-.93 1.111v1.395h.721a.5.5 0 01.49.394l1.547 7.165zM8.454 8.751H6.56l-.323 1.493h2.541zm-2.326 1.993l-.323 1.495h3.403l-.323-1.495zm.808-3.738l-.27 1.245h1.68l-.269-1.245zm-1.418 6.56h3.977l-.179-.827h-3.62zM5.21 5.013a2.752 2.752 0 01.016-3.052l-.414-.28a3.25 3.25 0 00-.019 3.607zM10.757 3.5a3.243 3.243 0 00-.534-1.786l-.418.275a2.752 2.752 0 01-.018 3.05l.414.278a3.234 3.234 0 00.556-1.817zM3.534 6.118a4.764 4.764 0 01-.153-4.988L2.948.88a5.264 5.264 0 00.17 5.514z"/></symbol><symbol viewBox="0 0 15 15" id="maki-confectionery" xmlns="http://www.w3.org/2000/svg"><path d="M13 4a1 1 0 00-1-1 1 1 0 00-2 0v2.067A3.48 3.48 0 004.358 9H2a1 1 0 000 2 1 1 0 001 1 1 1 0 002 0V9.933A3.48 3.48 0 0010.642 6H13a1 1 0 000-2zM7.5 9.992A2.484 2.484 0 016.318 5.32a1.08 1.08 0 01.546.307 2.124 2.124 0 01.386 1.386l.001.956a2.582 2.582 0 00.509 1.735 1.546 1.546 0 00.26.233 2.486 2.486 0 01-.52.056zm1.181-.311a1.081 1.081 0 01-.545-.307 2.124 2.124 0 01-.386-1.386l-.001-.956a2.582 2.582 0 00-.509-1.735 1.556 1.556 0 00-.26-.233A2.484 2.484 0 018.682 9.68z"/></symbol><symbol viewBox="0 0 15 15" id="maki-construction" xmlns="http://www.w3.org/2000/svg"><path d="M13.5 12h-1.8L8.2 1.5C8 .8 7 .8 6.8 1.5L3.3 12H1.5c-.3 0-.5.2-.5.5v1c0 .3.2.5.5.5h12c.3 0 .5-.2.5-.5v-1c0-.3-.2-.5-.5-.5zM7 4h1l.7 2H6.4L7 4zM5.7 8h3.6l.7 2H5l.7-2z"/></symbol><symbol viewBox="0 0 15 15" id="maki-convenience" xmlns="http://www.w3.org/2000/svg"><path d="M2.998 3.069s.188-1.062 1-1.062h1.006v-.28a.5.5 0 01.5-.5h3.984a.5.5 0 01.5.5v.28h1.01a.832.832 0 01.638.293 1.759 1.759 0 01.362.769s.311 1.572.592 2.918h-.938L11 3l-7.018-.004-.648 2.99h-.952zm11 4.914a1 1 0 01-.999 1l-1 3.973s-.188 1.042-1 1.042h-7c-.813 0-1-1.042-1-1.042L1.981 8.98a.999.999 0 01.016-1.997h11a1 1 0 011 1zM5.033 12.13l-.003-1.125-.39-1.536a.537.537 0 10-1.066.144l.206 1.395.187 1.267a.537.537 0 101.066-.145zm2-2.597A.533.533 0 006.499 9h-.01a.5.5 0 00-.358.15.529.529 0 00-.165.384v2.68a.533.533 0 101.067 0zm1.998 0a.531.531 0 00-.337-.493.5.5 0 00-.393 0 .531.531 0 00-.337.493v2.68a.533.533 0 101.067 0zm2.385.08a.537.537 0 10-1.065-.144l-.391 1.525-.002 1.136a.537.537 0 101.065.145z"/></symbol><symbol viewBox="0 0 15 15" id="maki-cricket" xmlns="http://www.w3.org/2000/svg"><path d="M8 1.5a1.5 1.5 0 11-3 0 1.5 1.5 0 013 0zm2.88 5.68l-2-2a.5.5 0 00-.4-.18H3.75a.74.74 0 00-.75.64l-1 7.7a.483.483 0 000 .14.5.5 0 00.5.5.49.49 0 00.5-.34l1.2-3.89.26-.83.4.44L6 10.6v2.9a.5.5 0 001 0v-3a.48.48 0 00-.08-.22L5.48 8.5l1-2.5h1.71l2 1.84a.49.49 0 00.37.17.5.5 0 00.44-.51.49.49 0 00-.12-.32zM14 11.27a.75.75 0 100 1.5.75.75 0 000-1.5zm-3.24-1.53V9a.25.25 0 10-.5 0v.74a.49.49 0 00-.25.42v3.34a.5.5 0 001 0v-3.34a.49.49 0 00-.25-.42z"/></symbol><symbol viewBox="0 0 15 15" id="maki-cross" xmlns="http://www.w3.org/2000/svg"><path d="M2.64 1.27L7.5 6.13l4.84-4.84A.92.92 0 0113 1a1 1 0 011 1 .9.9 0 01-.27.66L8.84 7.5l4.89 4.89A.9.9 0 0114 13a1 1 0 01-1 1 .92.92 0 01-.69-.27L7.5 8.87l-4.85 4.85A.92.92 0 012 14a1 1 0 01-1-1 .9.9 0 01.27-.66L6.16 7.5 1.27 2.61A.9.9 0 011 2a1 1 0 011-1c.24.003.47.1.64.27z"/></symbol><symbol viewBox="0 0 15 15" id="maki-dam" xmlns="http://www.w3.org/2000/svg"><path d="M13.94 9.5a.5.5 0 01-.5.5 1 1 0 00-.67.34 2.14 2.14 0 01-1 .6 1.89 1.89 0 01-1.76-.37l-.39-.35a.77.77 0 00-1.089-.011l-.011.011c-.14.12-.27.25-.42.37a1.91 1.91 0 01-2.46-.07l-.34-.33-.1-.06.3 1.22.49 2a.5.5 0 01-.49.65h-4a.5.5 0 01-.5-.5v-12a.5.5 0 01.5-.5h1.1a.5.5 0 01.49.39L4 5.06v.14a1.88 1.88 0 012 .24c.16.13.31.28.47.41a.75.75 0 001 0c.16-.13.31-.28.47-.41a1.9 1.9 0 012.45 0c.15.13.29.27.44.39a.75.75 0 001 0l.47-.41A1.78 1.78 0 0113.43 5a.5.5 0 010 1 1 1 0 00-.67.34 2.14 2.14 0 01-1 .6A1.89 1.89 0 0110 6.57l-.33-.34a.77.77 0 00-1.089-.011l-.011.011c-.14.12-.27.25-.42.37a1.91 1.91 0 01-2.46-.07l-.39-.34a.75.75 0 00-1 0l-.06.05L4.93 9A1.9 1.9 0 016 9.43c.16.13.31.28.47.41a.75.75 0 001 0c.16-.13.31-.28.47-.41a1.9 1.9 0 012.45 0c.15.13.29.27.44.39a.75.75 0 001 0l.47-.41A1.78 1.78 0 0113.43 9a.5.5 0 01.51.5z"/></symbol><symbol viewBox="0 0 15 15" id="maki-danger" xmlns="http://www.w3.org/2000/svg"><path d="M13.94 14.68a.5.5 0 01-.47.32c-.06.01-.12.01-.18 0L7.5 12.56 1.7 15a.5.5 0 01-.648-.284l-.002-.006a.5.5 0 01.29-.71l4.85-2-4.85-2a.5.5 0 11.36-.93l5.8 2.41 5.8-2.41a.5.5 0 11.36.93L8.8 12l4.85 2a.5.5 0 01.29.68zM12 4.23v.45a1 1 0 01-.2.59A17.718 17.718 0 0110 7v1.16a.5.5 0 01-.32.47l-2.16.87h-.07l-2.17-.87A.5.5 0 015 8.16V7a17.563 17.563 0 01-1.82-1.73A1 1 0 013 4.68v-.45A4.6 4.6 0 017.11 0h.75A4.59 4.59 0 0112 4.23zM6 4a1 1 0 10-2 0 1 1 0 002 0zm1 3a.5.5 0 00-1 0v.5a.5.5 0 001 0V7zm2 0a.5.5 0 00-1 0v.5a.5.5 0 001 0V7zm2-3a1 1 0 10-2 0 1 1 0 002 0z"/></symbol><symbol viewBox="0 0 15 15" id="maki-defibrillator" xmlns="http://www.w3.org/2000/svg"><path d="M1.55 6.338c-2.387-4.596 3.63-7.66 5.952-3.064 2.321-4.597 8.339-1.533 5.952 3.064-.087.167-.203.346-.311.521h-1.808L9.52 4.138a.625.625 0 00-1.1.114l-1.648 4.12-1.33-1.33A.625.625 0 005 6.86H1.861c-.109-.175-.224-.354-.311-.52zM11 8.11a.626.626 0 01-.52-.278L9.139 5.82 7.58 9.717a.625.625 0 01-.455.38.605.605 0 01-.125.012.625.625 0 01-.442-.182L4.741 8.109H2.736a42.67 42.67 0 004.46 4.674.464.464 0 00.622 0 43.26 43.26 0 004.45-4.674H11z"/></symbol><symbol viewBox="0 0 15 15" id="maki-dentist" xmlns="http://www.w3.org/2000/svg"><path d="M4.36 14c-1 0-.56-2.67-.86-5-.1-.76-1-1.49-1.12-2.06C2 5 1.39 1.44 3.66 1S6 3 7.54 3 9.11.64 11.39 1s1.59 3.9 1.29 5.9c-.1.45-1.1 1.48-1.18 2.06-.33 2.4.32 5-.8 5-.93 0-1.32-2.72-2-4.5C8.43 8.63 8.06 8 7.54 8 6 8 5.75 14 4.36 14z"/></symbol><symbol viewBox="0 0 15 15" id="maki-diamond" xmlns="http://www.w3.org/2000/svg"><path d="M7.037 1.201L2.125 6.7a.482.482 0 00-.124.3c-.006.11.028.21.096.3l4.91 6.46c.055.074.13.135.215.177a.637.637 0 00.556 0 .595.595 0 00.216-.177l4.91-6.46a.453.453 0 00.095-.3.482.482 0 00-.124-.3L7.963 1.201a.604.604 0 00-.208-.148.64.64 0 00-.718.148z"/></symbol><symbol viewBox="0 0 15 15" id="maki-doctor" xmlns="http://www.w3.org/2000/svg"><path d="M5.5 7A2.5 2.5 0 013 4.5v-2a.5.5 0 01.5-.5H4a.5.5 0 000-1h-.5A1.5 1.5 0 002 2.5v2a3.49 3.49 0 001.51 2.87A4.41 4.41 0 015 10.5a3.5 3.5 0 107 0v-.57a2 2 0 10-1 0v.57a2.5 2.5 0 01-5 0 4.41 4.41 0 011.5-3.13A3.49 3.49 0 009 4.5v-2A1.5 1.5 0 007.5 1H7a.5.5 0 000 1h.5a.5.5 0 01.5.5v2A2.5 2.5 0 015.5 7m6 2a1 1 0 110-2 1 1 0 010 2z"/></symbol><symbol viewBox="0 0 15 15" id="maki-dog-park" xmlns="http://www.w3.org/2000/svg"><path d="M10.3 1.22c-.386 0-.7-.02-.8.78l-.4 2.521L11.5 6.5h2c1.4 0 1.5-.959 1.5-.959l-1.9-2.219c-.7-.7-1.4-.822-2.1-.822V2s.067-.78-.7-.78zm-5.55.28s-.95.02-1.55.22c-.6.2-1.2.901-1.2 1.901v3.9C2 9.221 1.3 9.5 1 9.5c0 0-1 .021-1 1.021v2.2s0 .8.8.8H2V12.822c0-.4-.2-.6-.5-.7v-1.1c1 0 1.1-.201 1.5-.301l.55 2.197c.1.3.2.5.5.6h1L6 13.5v-.8c0-.677-1-.7-1-.7V9.5h3.5l.7 2.621c.4 1.4 1.3 1.379 1.3 1.379H12v-.8c0-.713-1-.7-1-.7l.1-4.078L8 5.5H3.5v-2c0-.4.276-.495.5-.5.494-.012.75 0 .75 0a.75.75 0 000-1.5zm7 2.5a.25.25 0 110 .5.25.25 0 010-.5z"/></symbol><symbol viewBox="0 0 15 15" id="maki-drinking-water" xmlns="http://www.w3.org/2000/svg"><path d="M6 1a2 2 0 00-2 2v3.5a.5.5 0 00.5.5h2a.5.5 0 00.5-.5v-2a.5.5 0 01.5-.5H14V1zm1 14H4a.5.5 0 01-.48-.38L2 8.62a.5.5 0 01.365-.606A.558.558 0 012.5 8h6a.5.5 0 01.514.485A.47.47 0 019 8.62l-1.5 6A.5.5 0 017 15zm-3.35-4h3.71l.5-2H3.14z"/></symbol><symbol viewBox="0 0 15 15" id="maki-elevator" xmlns="http://www.w3.org/2000/svg"><path d="M11 1H4a1 1 0 00-1 1v11a1 1 0 001 1h7a1 1 0 001-1V2a1 1 0 00-1-1zM7.5 12.5l-2-4h4zm-2-6l2-4 2 4z"/></symbol><symbol viewBox="0 0 15 15" id="maki-embassy" xmlns="http://www.w3.org/2000/svg"><path d="M6.65 2C5.43 2 4.48 3.38 4.11 3.82a.49.49 0 00-.11.32v4.4a.44.44 0 00.72.36 3 3 0 011.93-1.17C8.06 7.73 8.6 9 10.07 9a5.28 5.28 0 002.73-1.09.49.49 0 00.2-.4V2.45a.44.44 0 00-.62-.45 5.75 5.75 0 01-2.31 1.06C8.6 3.08 8.12 2 6.65 2zM2.5 3a1 1 0 110-2 1 1 0 010 2zM3 4v9.48a.5.5 0 01-1 0V4a.5.5 0 011 0z"/></symbol><symbol viewBox="0 0 15 15" id="maki-emergency-phone" xmlns="http://www.w3.org/2000/svg"><path d="M7.875 11.49a.51.51 0 00.72 0l.72-.72 2.18 2.16-.37.37a2.24 2.24 0 01-1.44.7H8.24a2.24 2.24 0 01-1.45-.7L1.72 8.23A2.24 2.24 0 011 6.78V5.33a2.24 2.24 0 01.72-1.45l.36-.36 2.18 2.17-.73.73a.51.51 0 000 .72zm4.72.38a1 1 0 00.036-1.414l-.036-.036-.72-.72a1 1 0 00-1.414-.036l-.036.036zm-7.28-7.25a1 1 0 00.036-1.414l-.756-.756a1 1 0 00-1.414-.036l-.041.036zM10 2v2H8v1h2v2h1V5h2V4h-2V2z"/></symbol><symbol viewBox="0 0 15 15" id="maki-entrance" xmlns="http://www.w3.org/2000/svg"><path d="M7 6.5v-1a1 1 0 00-2 0v3zM5 3a1 1 0 111 1 1 1 0 01-1-1m9 3a1 1 0 01-1 1h-1.58a1 1 0 00-.71.29l-5.42 5.42a1 1 0 01-.7.29H2a1 1 0 01-1-1 1 1 0 011-1h1.59a1 1 0 00.7-.29l5.42-5.42a1 1 0 01.71-.29H13a1 1 0 011 1z"/></symbol><symbol viewBox="0 0 15 15" id="maki-entrance-alt1" xmlns="http://www.w3.org/2000/svg"><path d="M6.554 9.639a.5.5 0 00.707.707l2.667-2.677a.25.25 0 000-.354L7.261 4.639a.5.5 0 00-.707.707L8.2 7H1.5a.5.5 0 000 1h6.7zM12 1H5.5a.5.5 0 000 1h6a.5.5 0 01.5.5v10a.5.5 0 01-.5.5H5.25a.5.5 0 000 1H12a1 1 0 001-1V2a1 1 0 00-1-1z"/></symbol><symbol viewBox="0 0 15 15" id="maki-farm" xmlns="http://www.w3.org/2000/svg"><path d="M8 7L5 5 2 7 1 9v4h2v-2h4v2h2V9zM6 9H4V7h2v2zm8 4h-3V3.5a1.5 1.5 0 013 0V13z"/></symbol><symbol viewBox="0 0 15 15" id="maki-fast-food" xmlns="http://www.w3.org/2000/svg"><path d="M14 8a1 1 0 01-1 1H2a1 1 0 110-2h11a1 1 0 011 1zM3.5 10H2a3 3 0 003 3h5a3 3 0 003-3H3.5zM3 6H2V4a2 2 0 012-2h7a2 2 0 012 2v2H3zm8-1.5a.5.5 0 101 0 .5.5 0 00-1 0zm-2-1a.5.5 0 101 0 .5.5 0 00-1 0zm-2 1a.5.5 0 101 0 .5.5 0 00-1 0zm-2-1a.5.5 0 101 0 .5.5 0 00-1 0zm-2 1a.5.5 0 101 0 .5.5 0 00-1 0z"/></symbol><symbol viewBox="0 0 15 15" id="maki-fence" xmlns="http://www.w3.org/2000/svg"><path d="M13.5 10H13V7h.5a.5.5 0 000-1H13V4l-.286-.573a.249.249 0 00-.424-.006L12 4v2h-1V4l-.286-.573a.249.249 0 00-.424-.006L10 4v2H9V4l-.286-.573a.249.249 0 00-.424-.006L8 4v2H7V4l-.286-.573a.249.249 0 00-.424-.006L6 4v2H5V4l-.286-.573a.249.249 0 00-.424-.006L4 4v2H3V4l-.286-.573a.249.249 0 00-.424-.006L2 4v2h-.5a.5.5 0 000 1H2v3h-.5a.5.5 0 000 1H2v1.5a.5.5 0 001 0V11h1v1.5a.5.5 0 001 0V11h1v1.5a.5.5 0 001 0V11h1v1.5a.5.5 0 001 0V11h1v1.5a.5.5 0 001 0V11h1v1.5a.5.5 0 001 0V11h.5a.5.5 0 000-1zM3 10V7h1v3zm2 0V7h1v3zm2 0V7h1v3zm2 0V7h1v3zm2 0V7h1v3z"/></symbol><symbol viewBox="0 0 15 15" id="maki-ferry" xmlns="http://www.w3.org/2000/svg"><path d="M5.33 11a3 3 0 011.85.67l.26.23h.05l.31-.28a2.89 2.89 0 013.44-.18L13.5 7 12 6V2.45A1.54 1.54 0 0010.5 1H10a.94.94 0 00-1-1H6a.94.94 0 00-1 1h-.5A1.54 1.54 0 003 2.45V6L1.5 7l2.25 4.53A2.93 2.93 0 015.33 11zM4 2.45A.47.47 0 014.5 2h6a.47.47 0 01.5.5v3l-3.5-2L4 5.45v-3zM14 13v1a1 1 0 00-.68.34 2.15 2.15 0 01-1 .6 1.91 1.91 0 01-1.77-.37l-.39-.35a.78.78 0 00-1.1 0c-.14.12-.27.25-.42.37a1.92 1.92 0 01-2.48-.07l-.39-.35a.76.76 0 00-1 0c-.19.15-.36.32-.55.47a1.91 1.91 0 01-2.35-.06l-.31-.27A.94.94 0 001 14v-1c.259-.032.52.017.75.14a6.2 6.2 0 01.79.58.84.84 0 00.81.25.93.93 0 00.31-.16c.16-.12.29-.26.45-.39a1.92 1.92 0 012.45 0c.16.13.31.28.47.41a.76.76 0 001 0c.16-.13.31-.28.47-.41a1.92 1.92 0 012.46 0c.15.13.29.27.44.39a.76.76 0 001 0l.47-.41c.32-.26.719-.4 1.13-.4z"/></symbol><symbol viewBox="0 0 15 15" id="maki-ferry-JP" xmlns="http://www.w3.org/2000/svg"><path d="M3 7v5c0 .6.4 1 1 1h6c.6 0 1-.4 1-1V7c0-2-3-7-4-7S3 5 3 7zm2 4V8c0-3 2-5.5 2-5.5S9 5 9 8v3H5z"/></symbol><symbol viewBox="0 0 15 15" id="maki-fire-station" xmlns="http://www.w3.org/2000/svg"><path d="M7.5.5L5 4.5l-1.5-2C2.945 3.475.804 5.792.804 8.304a6.696 6.696 0 1013.392 0c0-2.512-2.141-4.829-2.696-5.804l-1.5 2-2.5-4zm0 6.5S10 9.562 10 11.5c0 .837-.826 2-2.5 2S5 12.337 5 11.5C5 9.628 7.5 7 7.5 7z"/></symbol><symbol viewBox="0 0 15 15" id="maki-fire-station-JP" xmlns="http://www.w3.org/2000/svg"><path d="M8.5 8.149v3.601a1 1 0 01-2 0V8.149a5.008 5.008 0 01-4-4.899 1 1 0 012 0 3 3 0 006 0 1 1 0 012 0 5.008 5.008 0 01-4 4.899z"/></symbol><symbol viewBox="0 0 15 15" id="maki-fitness-centre" xmlns="http://www.w3.org/2000/svg"><path d="M14.5 7v1h-1v2h-1v1H11V8H4v3H2.5v-1h-1V8h-1V7h1V5h1V4H4v3h7V4h1.5v1h1v2z"/></symbol><symbol viewBox="0 0 15 15" id="maki-florist" xmlns="http://www.w3.org/2000/svg"><path d="M1.5 1A2.7 2.7 0 014 3l.5-3L5 3a2.7 2.7 0 012.5-2c-.2.03-1 .26-1 2v.083A1.959 1.959 0 014.5 5h-.083A1.959 1.959 0 012.5 3c0-1.739-.8-1.97-1-2zm10.512 10l3-.5-3-.5A2.686 2.686 0 0014 7.5c-.03.2-.248 1-1.988 1a2 2 0 000 4c1.739 0 1.958.8 1.988 1a2.686 2.686 0 00-1.988-2.5zM9.688 5.548a1 1 0 010-2 1 1 0 010-2 .986.986 0 01.852.507l.023-.012a.978.978 0 01-.116-.444 1 1 0 112 0 .978.978 0 01-.116.444l.019.01a.986.986 0 01.85-.5 1 1 0 01.025 2 1 1 0 01-.025 2 .986.986 0 01-.85-.5l-.016.009a.978.978 0 01.113.44 1 1 0 01-2 0 .978.978 0 01.113-.44l-.02-.011a.986.986 0 01-.852.507zm.71-1.995A1.051 1.051 0 1011.449 2.5 1.051 1.051 0 0010.4 3.553zm-5.452 7.891l-.516-.515 4.462-4.454a1.746 1.746 0 01-.452-.255l-4.364 4.355-.519-.518A16.051 16.051 0 004.912 6a3.373 3.373 0 01-.412.035c-.041 0-.073-.008-.112-.01a16.953 16.953 0 01-1.257 3.606L2.76 9.26a.246.246 0 00-.4.079L.231 14.445a.287.287 0 00-.016.089.25.25 0 00.25.25.289.289 0 00.1-.019l5.1-2.124a.246.246 0 00.079-.4l-.372-.372a16.874 16.874 0 013.612-1.256c0-.059-.015-.106-.015-.166A3.349 3.349 0 019 10.089a16.076 16.076 0 00-4.054 1.355z"/></symbol><symbol viewBox="0 0 15 15" id="maki-fuel" xmlns="http://www.w3.org/2000/svg"><path d="M13 6v5.5a.5.5 0 01-1 0v-2A1.5 1.5 0 0010.5 8H9V2a1 1 0 00-1-1H2a1 1 0 00-1 1v11a1 1 0 001 1h6a1 1 0 001-1V9h1.5a.5.5 0 01.5.5v2a1.5 1.5 0 003 0V5a1 1 0 00-1-1V2.49a.5.5 0 00-.5-.49.51.51 0 00-.5.55V5a1 1 0 101-1M8 6.5a.5.5 0 01-.5.5h-5a.5.5 0 01-.5-.5v-3a.5.5 0 01.5-.5h5a.5.5 0 01.5.5v3z"/></symbol><symbol viewBox="0 0 15 15" id="maki-furniture" xmlns="http://www.w3.org/2000/svg"><path d="M9 10.142V8.5a.5.5 0 00-.5-.5h-1a.5.5 0 00-.5.5v1.641a3.991 3.991 0 00-2.957 3.272.507.507 0 00.5.586h6.922a.507.507 0 00.5-.586A3.991 3.991 0 009 10.142zm4.639-3.863l-2.5-5A.5.5 0 0010.692 1H5.308a.5.5 0 00-.446.276l-2.5 5A.5.5 0 002.806 7H11v1.5a.5.5 0 001 0V7h1.194a.5.5 0 00.445-.721z"/></symbol><symbol viewBox="0 0 15 15" id="maki-gaming" xmlns="http://www.w3.org/2000/svg"><path d="M13.1 12.5c-.6.3-1.4.1-1.8-.5l-1.1-1.4H4.8L3.7 12c-.5.7-1.4.8-2.1.3-.5-.4-.7-1-.6-1.5l.7-3.7C1.9 5.9 3 5 4.2 5H7V3.5C7 2.7 7.6 2 8.4 2h3.1c.3 0 .5.2.5.5s-.2.5-.5.5h-3c-.3 0-.5.2-.5.4V5h2.8c1.2 0 2.3.9 2.5 2.1l.7 3.7c.1.7-.2 1.4-.9 1.7zM6 7.5C6 6.7 5.3 6 4.5 6S3 6.7 3 7.5 3.7 9 4.5 9 6 8.3 6 7.5zm6 0c0-.3-.2-.5-.5-.5H11v-.5c0-.3-.2-.5-.5-.5s-.5.2-.5.5V7h-.5c-.3 0-.5.2-.5.5s.2.5.5.5h.5v.5c0 .3.2.5.5.5s.5-.2.5-.5V8h.5c.3 0 .5-.2.5-.5z"/></symbol><symbol viewBox="0 0 15 15" id="maki-garden" xmlns="http://www.w3.org/2000/svg"><path d="M13 8c0 3.31-2.19 6-5.5 6S2 11.31 2 8a5.33 5.33 0 015 3.61V7H4.5A1.5 1.5 0 013 5.5v-3a.5.5 0 01.9-.3l1.53 2 1.65-3a.5.5 0 01.84 0l1.65 3 1.53-2a.5.5 0 01.9.3v3A1.5 1.5 0 0110.5 7H8v4.61A5.33 5.33 0 0113 8z"/></symbol><symbol viewBox="0 0 15 15" id="maki-garden-centre" xmlns="http://www.w3.org/2000/svg"><path d="M4 5v-.5a2.5 2.5 0 015 0v5.793l2.365-2.365-.347-1.295-.001-.006h-.001a.5.5 0 01.838-.481l2 2a.5.5 0 01-.479.838l-.01-.003-1.293-.346L9 11.707V12a1 1 0 01-1 1H5a1 1 0 01-1-1v-.464L1.732 9.268a2.503 2.503 0 010-3.536A2.493 2.493 0 013.5 5H4zm0 1h-.5a1.5 1.5 0 00-1.061 2.561L4 10.121V6zm4-1v-.5a1.5 1.5 0 00-3 0V5h3z"/></symbol><symbol viewBox="0 0 15 15" id="maki-gift" xmlns="http://www.w3.org/2000/svg"><path d="M6.5 5v2H0V5h6.5zm2 0v2H15V5H8.5zM1 8v4.5A1.5 1.5 0 002.5 14h4V8H1zm7.5 0v6h4a1.5 1.5 0 001.5-1.5V8H8.5zm2-8a3 3 0 00-3 2.25A3 3 0 004.5 0a1.94 1.94 0 00-2 2 1.73 1.73 0 001.91 2h6.13a1.75 1.75 0 002-2 2 2 0 00-2.04-2zm-6 3a.92.92 0 01-1-1 .92.92 0 011-1 2 2 0 012 2h-2zm6 0h-2a2 2 0 012-2 1 1 0 011 1 .92.92 0 01-1 1z"/></symbol><symbol viewBox="0 0 15 15" id="maki-globe" xmlns="http://www.w3.org/2000/svg"><path d="M11.981 9.481l-.721-.721a4.979 4.979 0 11-7.02-7.02l-.721-.721A5.991 5.991 0 007 11.475V13h-.5a.5.5 0 000 1h2a.5.5 0 000-1H8v-1.527a5.983 5.983 0 003.981-1.992zM7.5 9A3.5 3.5 0 104 5.5 3.5 3.5 0 007.5 9zm1-5l.364-.592a2.5 2.5 0 01.823.9L9.5 5h-1zm-1.844-.844L7.5 4v1L8 6h1.94a2.494 2.494 0 01-1.5 1.814L8 7H6.5L5.05 5a2.5 2.5 0 011.606-1.844z"/></symbol><symbol viewBox="0 0 15 15" id="maki-golf" xmlns="http://www.w3.org/2000/svg"><path d="M3.4 1.1v.2c0 .4.3.7.7.7.3 0 .5-.2.6-.5l.2-.5 5.6 2.3L6.6 6c-.4.3-.4.7-.3 1.1l.9 2.1-1.3 3.9c-.2.5.2.9.6.9.3 0 .5-.1.6-.5l1.4-4 .1.3v3.5s0 .7.7.7.7-.7.7-.7V10c0-.2 0-.3-.1-.5L8.5 6.1l2.7-1.9c.2-.2.4-.3.4-.6s-.2-.5-.4-.6L4 .1c-.088 0-.118.018-.2.1l-.4.9zM5.5 3C4.7 3 4 3.7 4 4.5S4.7 6 5.5 6 7 5.3 7 4.5 6.3 3 5.5 3z"/></symbol><symbol viewBox="0 0 15 15" id="maki-grocery" xmlns="http://www.w3.org/2000/svg"><path d="M13.2 1.5s-1.391-.041-1.946.5c-.534.52-.754.918-.754 2H1.2l1.394 4.814c.003.008.01.015.013.022.235.657.848 1.13 1.579 1.158l.013.006h6.5v.2s.001.3-.199.7c-.2.4-.3.6-1.1.6H2.9c-1 0-1 1.5 0 1.5H9.3c1.2 0 2.1-.7 2.4-1.4.3-.7.3-1.3.3-1.3V4c0-.524.229-1 .7-1h.55a.75.75 0 000-1.5h-.05zM9.2 13c-.6 0-1 .4-1 1s.4 1 1 1 1-.4 1-1-.4-1-1-1zm-5 0c-.6 0-1 .4-1 1s.4 1 1 1 1-.4 1-1-.4-1-1-1z"/></symbol><symbol viewBox="0 0 15 15" id="maki-hairdresser" xmlns="http://www.w3.org/2000/svg"><path d="M15 3s-2-.6-3.5.5l-4.3 3c-.8-.6-2-1.3-3.2-1.7V4c0-1.1-.9-2-2-2s-2 .9-2 2v1.5c0 .5.5.5.5.5h2C4.5 6 6 7.5 6 7.5S4.5 9 2.5 9h-2S0 9 0 9.5V11c0 1.1.9 2 2 2s2-.9 2-2v-.8c1.2-.4 2.4-1.1 3.2-1.7l4.3 3c1.5 1.1 3.5.5 3.5.5L8.5 7.5 15 3zM3 5H1V4c0-.6.4-1 1-1s1 .4 1 1v1zm0 6c0 .6-.4 1-1 1s-1-.4-1-1v-1h2v1zm4.25-3a.5.5 0 110-1 .5.5 0 010 1z"/></symbol><symbol viewBox="0 0 15 15" id="maki-harbor" xmlns="http://www.w3.org/2000/svg"><path d="M7.5 0C5.5 0 4 1.567 4 3.5a3.492 3.492 0 002.5 3.338v6.039c-.93-.165-1.875-.55-2.648-1.27-1.053-.98-1.85-2.54-1.85-5.109a1 1 0 10-2.002 0c0 3.003 1.012 5.196 2.49 6.572C3.968 14.447 5.838 15 7.5 15c1.666 0 3.535-.56 5.012-1.94s2.486-3.573 2.486-6.562c.065-1.395-2.063-1.395-1.998 0 0 2.553-.8 4.115-1.853 5.1-.774.722-1.718 1.11-2.647 1.277V6.842A3.494 3.494 0 0011 3.5C11 1.567 9.5 0 7.5 0zm0 2a1.5 1.5 0 110 3 1.5 1.5 0 010-3z"/></symbol><symbol viewBox="0 0 15 15" id="maki-hardware" xmlns="http://www.w3.org/2000/svg"><path d="M13.792 3.262s-1.676 1.675-2.116 2.12a.296.296 0 01-.282.097c-.149-.023-.298-.038-.447-.056l-1.229-.146c-.069-.592-.14-1.172-.2-1.753-.006-.055.033-.13.074-.172.508-.513 1.927-1.929 2.134-2.136-.45-.213-1.224-.297-1.8-.203a3.545 3.545 0 00-2.82 4.625c.037.115.013.182-.069.264-1.848 1.843-3.693 3.69-5.539 5.535a2.569 2.569 0 00-.178.192 1.457 1.457 0 00.298 2.102c.604.42 1.365.344 1.905-.195 1.853-1.852 3.706-3.705 5.556-5.56.092-.092.165-.123.299-.078.619.211 1.252.236 1.888.089a3.544 3.544 0 002.655-4.304c-.031-.13-.078-.259-.13-.421z"/></symbol><symbol viewBox="0 0 15 15" id="maki-heart" xmlns="http://www.w3.org/2000/svg"><path d="M13.91 6.75c-1.17 2.25-4.3 5.31-6.07 6.94a.5.5 0 01-.67 0C5.39 12.06 2.26 9 1.09 6.75-1.48 1.8 5-1.5 7.5 3.45c2.5-4.95 8.98-1.65 6.41 3.3z"/></symbol><symbol viewBox="0 0 15 15" id="maki-heliport" xmlns="http://www.w3.org/2000/svg"><path d="M4 2C3 2 3 3 4 3h4v1c-.277 0-.5.223-.5.5V5H3.932A1.998 1.998 0 000 5.5a2 2 0 002 2 2 2 0 001.053-.303L5.5 10.5C6.507 11.95 8.318 12 9 12h5s1 0 1-1v-.994c0-.733-.126-1.132-.5-1.506l-3-3s-.592-.5-1.273-.5H9.5v-.5c0-.277-.223-.5-.5-.5V3h4c1 0 1-1 0-1H4zM2 4.5a1 1 0 110 2 1 1 0 010-2zM10 6c.5 0 .79.323 1 .5L13.5 9H10S9 9 9 8V7s0-1 1-1z"/></symbol><symbol viewBox="0 0 15 15" id="maki-highway-rest-area" xmlns="http://www.w3.org/2000/svg"><path d="M13.5 13h-3V9h3a.5.5 0 00.41-.787L11.66 5h.84a.5.5 0 00.384-.82l-2.5-3a.515.515 0 00-.768 0l-2.5 3A.5.5 0 007.5 5h.84L6.09 8.213A.5.5 0 006.5 9h3v4H4v-2h1.5a.5.5 0 000-1h-4a.5.5 0 000 1H3v2H1.5a.5.5 0 000 1h12a.5.5 0 000-1z"/></symbol><symbol viewBox="0 0 15 15" id="maki-home" xmlns="http://www.w3.org/2000/svg"><path d="M2 13.748c0 .138.112.25.25.25h3.749v-3h3v3h3.749a.25.25 0 00.25-.25v-5.75H2v5.75zm11.93-7.17l-.932-.82V2a1 1 0 10-2 0v2L7.681 1.09a.25.25 0 00-.353-.011l-.011.011-6.25 5.463a.25.25 0 00.18.42L3 7h10.747a.25.25 0 00.183-.421z"/></symbol><symbol viewBox="0 0 15 15" id="maki-horse-riding" xmlns="http://www.w3.org/2000/svg"><path d="M6 1a1 1 0 111 1 1 1 0 01-1-1zm2 2.5a.484.484 0 000-.058A.472.472 0 007.5 3h-1a.484.484 0 00-.058 0A.472.472 0 006 3.5V7h2zm6.85 3.644L12.8 4.8l.085-.509a.478.478 0 00.008-.063.25.25 0 00-.25-.25.346.346 0 00-.158.056L9 7H8l1 1v1.5a.5.5 0 01-1 0v-1L6 7H4a1.5 1.5 0 00-1.243.661A1.466 1.466 0 001.563 7H1.5A1.449 1.449 0 000 8.4v.086A3.781 3.781 0 00.559 10.4a.278.278 0 00.191.1.25.25 0 00.25-.25V9s-.02-.924.753-1c.5-.048.747.253.747.5V11L2 13v1.75a.25.25 0 00.25.25.254.254 0 00.25-.234V13L4 11v1l.5 2.8a.255.255 0 00.246.2.25.25 0 00.254-.246L4.855 12.3 5.5 11H8v1l.508 2.813A.257.257 0 008.75 15a.25.25 0 00.25-.25V12l.367-1a1.155 1.155 0 00.543-.6l2.161-3.767a.863.863 0 001.023.4l1.066.818a.591.591 0 00.35.135.487.487 0 00.475-.4.552.552 0 00-.135-.442z"/></symbol><symbol viewBox="0 0 15 15" id="maki-hospital" xmlns="http://www.w3.org/2000/svg"><path d="M7 1c-.6 0-1 .4-1 1v4H2c-.6 0-1 .4-1 1v1c0 .6.4 1 1 1h4v4c0 .6.4 1 1 1h1c.6 0 1-.4 1-1V9h4c.6 0 1-.4 1-1V7c0-.6-.4-1-1-1H9V2c0-.6-.4-1-1-1H7z"/></symbol><symbol viewBox="0 0 15 15" id="maki-hospital-JP" xmlns="http://www.w3.org/2000/svg"><path d="M12.504 2.25H2.496A1.005 1.005 0 001.5 3.263v5.58a1.015 1.015 0 00.55.907l4.78 2.84a1.474 1.474 0 001.339 0l4.78-2.84a1.015 1.015 0 00.551-.906v-5.58a1.005 1.005 0 00-.996-1.014zM10.5 7.75h-2v2h-2v-2h-2v-2h2v-2h2v2h2z"/></symbol><symbol viewBox="0 0 15 15" id="maki-hot-spring" xmlns="http://www.w3.org/2000/svg"><path d="M13.536 12.008a1.584 1.584 0 00-1.105.416l-.437.407a.662.662 0 01-.928 0c-.139-.119-.269-.258-.409-.387a1.679 1.679 0 00-2.275 0c-.148.129-.288.278-.436.407a.663.663 0 01-.929 0c-.148-.129-.288-.278-.436-.407a1.68 1.68 0 00-2.266 0c-.139.129-.269.268-.408.387a.86.86 0 01-.279.159.748.748 0 01-.743-.248 5.9 5.9 0 00-.733-.576 1.089 1.089 0 00-.632-.158h-.056a.5.5 0 000 .992.847.847 0 01.6.307l.334.258a1.676 1.676 0 002.164.06c.176-.139.334-.317.51-.466a.663.663 0 01.929 0l.362.347a1.687 1.687 0 002.284.07c.14-.11.251-.248.39-.367A.683.683 0 0110 13.15l.422.406a1.667 1.667 0 001.634.367 1.961 1.961 0 00.928-.6.923.923 0 01.552-.323.5.5 0 000-.992zM7.464 2.047a2.871 2.871 0 00-.594 4.536 1.785 1.785 0 01.562 1.694C7.119 9.17 6.342 10 6.774 11c.286-.971 1.367-1.291 1.861-2.124.99-1.565-.155-3-1.03-4.245C7.144 3.323 8.824 2.32 8.225 1a2.2 2.2 0 01-.761 1.047zm2.946 1.5a2.262 2.262 0 00.525 3.106 1.059 1.059 0 01.52 1.067c-.319.741-1.088 1.408-.686 2.28.374-.87 1.016-.644 1.817-1.546a2.261 2.261 0 00-.519-3.109 1.059 1.059 0 01-.527-1.067c.318-.741 1.088-1.406.687-2.278-.372.87-1.016.645-1.817 1.547zm-8 0a2.262 2.262 0 00.525 3.106 1.059 1.059 0 01.52 1.067c-.319.741-1.088 1.408-.686 2.28.374-.87 1.016-.644 1.817-1.546a2.261 2.261 0 00-.519-3.109 1.059 1.059 0 01-.527-1.067c.318-.741 1.088-1.406.687-2.278-.372.87-1.016.645-1.817 1.547z"/></symbol><symbol viewBox="0 0 15 15" id="maki-ice-cream" xmlns="http://www.w3.org/2000/svg"><path d="M5.44 8.17a3.473 3.473 0 002-.63 3.5 3.5 0 001.56.6h.44L8 13.7a.5.5 0 01-.92 0zm6-3.473a2 2 0 01-4 0 2 2 0 11-2-2h.12a2 2 0 113.75 0h.13A2 2 0 0111.439 4.7z"/></symbol><symbol viewBox="0 0 15 15" id="maki-industry" xmlns="http://www.w3.org/2000/svg"><path d="M14 1v12H1V8.72a.5.5 0 01.17-.37l3-3.22a.5.5 0 01.83.38v3l3.16-3.37a.5.5 0 01.84.37V11h3V1h2z"/></symbol><symbol viewBox="0 0 15 15" id="maki-information" xmlns="http://www.w3.org/2000/svg"><path d="M7.5 1C6.7 1 6 1.7 6 2.5S6.7 4 7.5 4 9 3.3 9 2.5 8.3 1 7.5 1zM4 5v1s2 0 2 2v2c0 2-2 2-2 2v1h7v-1s-2 0-2-2V6c0-.5-.5-1-1-1H4z"/></symbol><symbol viewBox="0 0 15 15" id="maki-jewelry-store" xmlns="http://www.w3.org/2000/svg"><path d="M12 8.5a4.5 4.5 0 11-9 0 4.498 4.498 0 012.71-4.125l.176.137.774.601A3.498 3.498 0 004 8.5C4 10.43 5.57 12 7.5 12S11 10.43 11 8.5a3.498 3.498 0 00-2.66-3.387l.95-.738A4.498 4.498 0 0112 8.5zm-4.5-4L10 2.555 9 1H6L5 2.555l1.5 1.167 1 .778z"/></symbol><symbol viewBox="0 0 15 15" id="maki-karaoke" xmlns="http://www.w3.org/2000/svg"><path d="M12.1 2.952a2.988 2.988 0 00-5.11 1.965l3.142 3.142A2.988 2.988 0 0012.1 2.952zm-7.428 5.3L2.55 10.377a1 1 0 000 1.414l.707.707a1 1 0 001.414 0l2.121-2.121 2.122-2.122-2.121-2.121zm.741 2.087l-.707-.707 2.087-2.084.707.707z"/></symbol><symbol viewBox="0 0 15 15" id="maki-landmark" xmlns="http://www.w3.org/2000/svg"><path d="M12.5 12H12v-.5c0-.3-.2-.5-.5-.5H11V6h1l1-2c-1 .1-2 .1-3 0-.8-.6-1.4-1.2-2-2v-.5c0-.3-.2-.5-.5-.5s-.5.2-.5.5V2c-.6.8-1.2 1.4-2 2-1 .1-2 .1-3 0l1 2h1v5h-.5c-.3 0-.5.2-.5.5v.5h-.5c-.3 0-.5.2-.5.5v.5h11v-.5c0-.3-.2-.5-.5-.5zM7 11H5V6h2v5zm3 0H8V6h2v5z"/></symbol><symbol viewBox="0 0 15 15" id="maki-landmark-JP" xmlns="http://www.w3.org/2000/svg"><path d="M9.5 4.5a2 2 0 11-2-2 2 2 0 012 2zm-6 4a2 2 0 102 2 2 2 0 00-2-2zm8 0a2 2 0 102 2 2 2 0 00-2-2z"/></symbol><symbol viewBox="0 0 15 15" id="maki-landuse" xmlns="http://www.w3.org/2000/svg"><path d="M8.911 3.854a.248.248 0 01.089.19V7.75a.25.25 0 01-.25.25h-2.5A.25.25 0 016 7.75V6H5v1.75a.25.25 0 01-.25.25h-2.5A.25.25 0 012 7.75v-3.7a.248.248 0 01.089-.19l3.254-2.728a.245.245 0 01.315 0zM7.752 9.5a.248.248 0 00-.138.042L5 11.5H4v-2a.5.5 0 00-1 0v2H2v-2a.5.5 0 00-1 0v4.25a.25.25 0 00.25.25h6.5a.25.25 0 00.25-.25v-4a.248.248 0 00-.248-.25zM14 6.245v6.5a.253.253 0 01-.253.253h-3.494a.253.253 0 01-.253-.251V6.25a.249.249 0 01.25-.25H11v-.751A.249.249 0 0111.249 5h1.5a.253.253 0 01.251.253V6h.755a.245.245 0 01.245.245zM13 11h-2v1h2zm0-2h-2v1h2zm0-2h-2v1h2z"/></symbol><symbol viewBox="0 0 15 15" id="maki-laundry" xmlns="http://www.w3.org/2000/svg"><path d="M8 1L6 3H3S2 3 2 4v9c0 1 1 1 1 1h9s1 0 1-1V2c0-1-1-1-1-1H8zm.5 1h2a.499.499 0 110 1h-2a.499.499 0 110-1zm-1 4a3 3 0 110 6 3 3 0 010-6z"/></symbol><symbol viewBox="0 0 15 15" id="maki-library" xmlns="http://www.w3.org/2000/svg"><path d="M1.082 9.939C.987 9.867 1 9.748 1 9.748L1.526 3.5s.008-.069.039-.104c.019-.022.043-.054.09-.073C2.182 3.107 5.053 1.552 6.5 3c.24.278.5.688.5 1v5.288s.006.112-.095.18a.252.252 0 01-.242.003c-2.226-1.114-4.711.154-5.338.487a.22.22 0 01-.243-.02zm12.593.019c-.627-.333-3.112-1.6-5.338-.487a.252.252 0 01-.242-.003C7.994 9.4 8 9.288 8 9.288V4c0-.312.26-.722.5-1 1.446-1.448 4.3.107 4.827.323.046.019.07.051.09.073.03.035.039.104.039.104l.543 6.248s.014.119-.08.19a.22.22 0 01-.244.02zm-4.81 2.728a.24.24 0 00.118-.077.214.214 0 00.042-.109c.05-.938 1.624-1.812 4.648-.03.077.044.166.04.242-.015.086-.063.085-.17.085-.17v-.553s0-.077-.027-.119a.227.227 0 00-.093-.085c-2.025-1.315-4.586-1.898-5.885-.16a.197.197 0 01-.073.09c-.057.045-.126.042-.126.042h-.585s-.07.003-.126-.041a.197.197 0 01-.073-.09c-1.3-1.739-3.86-1.184-5.885.131a.227.227 0 00-.093.086c-.027.042-.027.118-.027.118v.554s-.001.107.085.17c.076.054.165.059.243.015 3.023-1.782 4.598-.88 4.647.057a.214.214 0 00.043.109.24.24 0 00.118.077c.721.18 1.768.25 2.722 0z"/></symbol><symbol viewBox="0 0 15 15" id="maki-lighthouse" xmlns="http://www.w3.org/2000/svg"><path d="M4.5 6L0 7v-.5l4.5-1V6zm0-2.5L0 2.5V3l4.5 1v-.5zm6 0V4L15 3v-.5l-4.5 1zm0 2.5L15 7v-.5l-4.5-1V6zM8 7V2h2.5a.51.51 0 00.2-1l-3-1a.5.5 0 00-.41 0l-3 1a.51.51 0 00.2 1H7v5H5l-2 7h9l-2-7H8z"/></symbol><symbol viewBox="0 0 15 15" id="maki-lighthouse-JP" xmlns="http://www.w3.org/2000/svg"><path d="M9.5 7.4c0 1.1-.9 2-2 2s-2-.9-2-2 .9-2 2-2 2 .9 2 2zm4.5.1c0 .3-.2.5-.5.5h-1.6c-.1.9-.311 1.582-.911 2.282l1.064 1.064c.2.2.196.504-.004.704a.478.478 0 01-.704.004L10.3 11c-.6.5-1.4.8-2.3.9v1.6c0 .3-.2.5-.5.5s-.5-.2-.5-.5v-1.6c-.9-.1-1.7-.4-2.3-.9l-1.1 1.1c-.207.207-.48.213-.696-.004-.2-.2-.207-.5-.007-.7L4 10.3c-.5-.6-.9-1.4-1-2.3H1.5c-.3 0-.5-.2-.5-.5s.2-.5.5-.5H3c.1-.9.4-1.7 1-2.4l-1-1c-.2-.2-.2-.5 0-.7s.5-.2.7 0l1 1c.6-.5 1.4-.8 2.3-.9V1.5c0-.3.2-.5.5-.5s.5.2.5.5V3c.9.1 1.7.5 2.3 1l1.1-1.1c.2-.2.5-.2.7 0s.2.5 0 .7L11 4.7c.5.7.8 1.4.9 2.3h1.6c.3 0 .5.2.5.5zm-2.9-.1c0-2-1.6-3.6-3.6-3.6S3.8 5.5 3.8 7.4 5.4 11 7.4 11s3.7-1.6 3.7-3.6z"/></symbol><symbol viewBox="0 0 15 15" id="maki-lodging" xmlns="http://www.w3.org/2000/svg"><path d="M.5 2.5c-.3 0-.5.2-.5.5v9.5c0 .3.2.5.5.5s.5-.2.5-.5V11h13v1.5c0 .3.2.5.5.5s.5-.2.5-.5v-2c0-.3-.2-.5-.5-.5H1V3c0-.3-.2-.5-.5-.5zm3 .5C2.7 3 2 3.7 2 4.5S2.7 6 3.5 6 5 5.3 5 4.5 4.3 3 3.5 3zM7 4C5.5 4 5.5 5.5 5.5 5.5V7h-3c-.3 0-.5.2-.5.5v1c0 .3.2.5.5.5H15V6.5C15 4 12.5 4 12.5 4H7z"/></symbol><symbol viewBox="0 0 15 15" id="maki-logging" xmlns="http://www.w3.org/2000/svg"><path d="M13.91 3.41L13.5 3l.2-.28c.02-.03.04-.05.06-.08a.969.969 0 00.24-.65 1 1 0 00-1.62-.77c-.03.02-.06.05-.09.07L12 1.5l-.386-.386a.354.354 0 00-.525.475l.417.417-.5.5-.392-.392a.354.354 0 00-.525.475L10.5 3l-.5.5-.381-.381a.354.354 0 10-.528.472l.028.028L9.5 4l-.5.5-.395-.395a.354.354 0 00-.517.483L8.5 5l-.5.5-.365-.365a.354.354 0 00-.556.439C7.1 5.6 7.508 6 7.508 6L7 6.5l-.394-.392a.392.392 0 00-.5-.028.384.384 0 00-.028.5l.022.02.4.4-.5.5-.4-.4a.37.37 0 00-.5 0l1.148 1.144L12.09 2.41 12.5 2h.5v.5l-.41.41-5.839 5.839L7.9 9.9a.355.355 0 000-.5l-.008-.009L7.5 9l.5-.5.384.384a.354.354 0 00.528-.472L8.5 8l.5-.5.38.38a.354.354 0 00.528-.472l-.02-.02L9.5 7l.5-.5.377.377A.35.35 0 0010.64 7a.347.347 0 00.252-.6L10.5 6l.5-.5.38.38a.354.354 0 00.528-.472l-.028-.028L11.5 5l.5-.5.381.381a.354.354 0 00.528-.472l-.025-.025L12.5 4l.5-.5.382.382a.354.354 0 00.528-.472zM4.39 7.916C3.893 7.419 3.641 7 3 7H1.5a.5.5 0 00-.5.5v3a2.19 2.19 0 00.5 1.5l.815.811A2.251 2.251 0 005.493 13L7.5 11zM3.5 10l-1.238 1.238A1.3 1.3 0 012 10.5V8h1a.545.545 0 01.335.194.455.455 0 01.165.418z"/></symbol><symbol viewBox="0 0 15 15" id="maki-marker" xmlns="http://www.w3.org/2000/svg"><path d="M7.5 0C5.068 0 2.23 1.486 2.23 5.27c0 2.568 4.054 8.244 5.27 9.73 1.081-1.486 5.27-7.027 5.27-9.73C12.77 1.487 9.932 0 7.5 0z"/></symbol><symbol viewBox="0 0 15 15" id="maki-marker-stroked" xmlns="http://www.w3.org/2000/svg"><path d="M7.5 14.941l-.4-.495c-.973-1.189-4.9-6.556-4.9-9.16A5.066 5.066 0 017.036 0q.222-.01.445 0a5.066 5.066 0 015.286 4.836q.01.225 0 .45c0 2.213-2.669 6.111-4.678 8.851zM7.481.986a4.077 4.077 0 00-4.3 4.3c0 1.832 2.759 6.038 4.286 8.034 1.25-1.71 4.315-5.989 4.315-8.034a4.077 4.077 0 00-4.3-4.3z"/></symbol><symbol viewBox="0 0 15 15" id="maki-mobile-phone" xmlns="http://www.w3.org/2000/svg"><path d="M10 2v-.5a.5.5 0 00-1 0V2H5a1 1 0 00-1 1v10a1 1 0 001 1h5a1 1 0 001-1V3a1 1 0 00-1-1zM6 13H5v-1h1zm0-2H5v-1h1zm0-2H5V8h1zm2 4H7v-1h1zm0-2H7v-1h1zm0-2H7V8h1zm2 4H9v-1h1zm0-2H9v-1h1zm0-2H9V8h1zm0-2.5a.5.5 0 01-.5.5h-4a.5.5 0 01-.5-.5v-3a.5.5 0 01.5-.5h4a.5.5 0 01.5.5z"/></symbol><symbol viewBox="0 0 15 15" id="maki-monument" xmlns="http://www.w3.org/2000/svg"><path d="M7.5 0L6 2.5v7h3v-7L7.5 0zM3 11.5V15h9v-3.5L10.5 10h-6L3 11.5z"/></symbol><symbol viewBox="0 0 15 15" id="maki-monument-JP" xmlns="http://www.w3.org/2000/svg"><path d="M12 13H4c-.5 0-1-.5-1-1V5c0-2 .8-4 4-4 3.1 0 4 2 4 4v6h1c.5 0 1 .5 1 1s-.5 1-1 1zm-7-2h4V5c0-1 0-2-2-2S5 4 5 5v6z"/></symbol><symbol viewBox="0 0 15 15" id="maki-mountain" xmlns="http://www.w3.org/2000/svg"><path d="M7.5 2c-.3 0-.4.2-.6.4l-5.8 9.5c-.1.1-.1.3-.1.4 0 .5.4.7.7.7h11.6c.4 0 .7-.2.7-.7 0-.2 0-.2-.1-.4L8.2 2.4C8 2.2 7.8 2 7.5 2zm0 1.5L10.8 9H10L8.5 7.5 7.5 9l-1-1.5L5 9h-.9l3.4-5.5z"/></symbol><symbol viewBox="0 0 15 15" id="maki-museum" xmlns="http://www.w3.org/2000/svg"><path d="M7.5 0L1 3.5V4h13v-.5L7.5 0zM2 5v5l-1 1.6V13h13v-1.4L13 10V5H2zm2 1h1v5.5H4V6zm3 0h1v5.5H7V6zm3 0h1v5.5h-1V6z"/></symbol><symbol viewBox="0 0 15 15" id="maki-music" xmlns="http://www.w3.org/2000/svg"><path d="M13.5 1a.49.49 0 00-.23.06L4.5 3.5A.5.5 0 004 4v6.28A2 2 0 003 10a2 2 0 102 2V7.36l8-2.22v3.64a2 2 0 00-1-.28 2 2 0 102 2v-9a.5.5 0 00-.5-.5zM13 4.14L5 6.36v-2l8-2.22v2z"/></symbol><symbol viewBox="0 0 15 15" id="maki-natural" xmlns="http://www.w3.org/2000/svg"><path d="M8.753 6.278a.5.5 0 01-.51 0A4.109 4.109 0 016.5 3.5a2.779 2.779 0 00-.59-1.506l-.019-.027a.257.257 0 01-.056-.144.237.237 0 01.25-.25.264.264 0 01.057.011A3.523 3.523 0 017.5 2.5L8.28.94a.246.246 0 01.44 0L9.5 2.5a3.4 3.4 0 011.339-.907.283.283 0 01.1-.021c.175.009.212.119.221.249a.35.35 0 01-.043.141A5.2 5.2 0 0010.5 3.5a4.113 4.113 0 01-1.747 2.778zM5 8h1.289a.25.25 0 00.25-.25.241.241 0 00-.061-.15L4.7 5.235a.255.255 0 00-.391 0L2.518 7.589a.274.274 0 00-.062.161.25.25 0 00.25.25H4l-2.665 2.6a.273.273 0 00-.058.152.25.25 0 00.252.248H3l-1.565 1.565a.255.255 0 00.18.435H4v1h1v-1h2.385a.255.255 0 00.18-.435L6 11h1.471a.25.25 0 00.25-.25.233.233 0 00-.058-.149zm9.345 3.748a.252.252 0 01-.252.252H8.908a.252.252 0 01-.226-.365l2.588-5.184a.252.252 0 01.451 0l2.6 5.184a.251.251 0 01.024.113zM12.75 10L11.5 7.5 10.25 10z"/></symbol><symbol viewBox="0 0 15 15" id="maki-observation-tower" xmlns="http://www.w3.org/2000/svg"><path d="M12 12.5h-.5L10 9V7c.995 0 .995-.75.995-.75L11.5 3s0-.5-.5-.5h-1s0-.5-.5-.5h-1v-.5s0-1-1-1-1 1-1 1V2h-1c-.5 0-.5.5-.5.5H4c-.5 0-.5.5-.5.5l.505 3.25S4.005 7 5 7v2l-1.5 3.5H3s-1 0-1 .75S3 14 3 14h9s1 0 1-.75-1-.75-1-.75zm-1.75-9L10 5H5l-.25-1.503 5.5.003zM8.5 7v1h-2V7h2zm-2 2.497h2l1 3.003h-4l1-3.003z"/></symbol><symbol viewBox="0 0 15 15" id="maki-optician" xmlns="http://www.w3.org/2000/svg"><path d="M14.5 6h-.677c-.282-.59-.88-1-1.576-1H9.752c-.818 0-1.5.566-1.693 1.325-.174-.042-.36-.075-.559-.075s-.385.033-.559.074A1.751 1.751 0 005.248 5H2.753a1.75 1.75 0 00-1.577 1H.5a.5.5 0 000 1H1v.5C1 9.089 2.002 10 3.75 10h.5C5.998 10 7 9.089 7 7.5v-.159c.15-.048.33-.091.5-.091.17 0 .35.043.5.091V7.5C8 9.089 9.002 10 10.75 10h.5C12.998 10 14 9.089 14 7.5V7h.5a.5.5 0 000-1zM6 7.5C6 8.198 5.801 9 4.25 9h-.5C2.199 9 2 8.198 2 7.5v-.748C2 6.337 2.338 6 2.753 6h2.494c.416 0 .753.337.753.752V7.5zm7 0c0 .698-.2 1.5-1.75 1.5h-.5C9.2 9 9 8.198 9 7.5v-.748C9 6.337 9.337 6 9.752 6h2.495c.415 0 .753.338.753.753V7.5z"/></symbol><symbol viewBox="0 0 15 15" id="maki-paint" xmlns="http://www.w3.org/2000/svg"><path d="M13.5 2.5h-1v-.997A.503.503 0 0011.997 1H1.503A.503.503 0 001 1.503v2.994c0 .278.225.503.503.503h10.494a.503.503 0 00.503-.503V3.5h.5v3.102l-6.112 1.41A.5.5 0 006.5 8.5v1.507a.533.533 0 00-.5.53v2.926c0 .297.24.537.537.537h.926c.297 0 .537-.24.537-.537v-2.926a.533.533 0 00-.5-.53v-1.11l6.112-1.41A.5.5 0 0014 7V3a.5.5 0 00-.5-.5z"/></symbol><symbol viewBox="0 0 15 15" id="maki-park" xmlns="http://www.w3.org/2000/svg"><path d="M14 5.75a1.75 1.75 0 00-1-1.61A1.24 1.24 0 0011.75 3a1.197 1.197 0 00-.29.06 1.2 1.2 0 00-2-.78 1.25 1.25 0 10-2.5 0s.04.02.04.05a1.22 1.22 0 00-2 .74A1.491 1.491 0 004.51 3a1.5 1.5 0 00-1.4 2.07 1.49 1.49 0 000 2.87A1.49 1.49 0 006 7.71c.183.16.41.26.65.29v5L5 14h5l-1.6-1v-2a6.8 6.8 0 012.77-2A1.49 1.49 0 0013 7.52a1.472 1.472 0 000-.16 1.75 1.75 0 001-1.61zm-5.6 4.51V6.82c.27.48.778.779 1.33.78h.28c.016.44.224.849.57 1.12a7.25 7.25 0 00-2.18 1.54z"/></symbol><symbol viewBox="0 0 15 15" id="maki-park-alt1" xmlns="http://www.w3.org/2000/svg"><path d="M9.428 10.429a.269.269 0 01-.074-.18A.25.25 0 019.6 10h1.447a.25.25 0 00.25-.25.258.258 0 00-.079-.179L9.07 7.419a.3.3 0 01-.063-.17.249.249 0 01.25-.249H10.4a.251.251 0 00.25-.251.247.247 0 00-.077-.178L8.432 4.434l-.014-.014a.262.262 0 01-.066-.17A.25.25 0 018.6 4h.866a.25.25 0 00.25-.25.246.246 0 00-.068-.164h.006L7.7 1.238a.253.253 0 00-.042-.044.249.249 0 00-.158-.055.249.249 0 00-.158.055.253.253 0 00-.042.044L5.352 3.586a.246.246 0 00-.068.164.25.25 0 00.25.25H6.4a.241.241 0 01.184.42l-.014.014-2.139 2.137a.247.247 0 00-.077.178A.251.251 0 004.6 7h1.145a.249.249 0 01.25.249.3.3 0 01-.063.17l-2.15 2.152a.258.258 0 00-.082.179.25.25 0 00.25.25H5.4a.25.25 0 01.248.249.269.269 0 01-.074.18l-2.14 2.132-.009.009a.248.248 0 000 .351.256.256 0 00.18.079H7v1l1-.008V13h3.391a.263.263 0 00.26-.254.248.248 0 00-.071-.177z"/></symbol><symbol viewBox="0 0 15 15" id="maki-parking" xmlns="http://www.w3.org/2000/svg"><path d="M11.85 8.37a5.1 5.1 0 01-3.31 1H5.79V14H3V1h5.72a4.63 4.63 0 013.13 1A3.88 3.88 0 0113 5.12a4 4 0 01-1.15 3.25zM9.75 3.7a2.25 2.25 0 00-1.47-.43H5.79v3.82h2.49a2.13 2.13 0 001.47-.47c.38-.395.57-.935.52-1.48a1.77 1.77 0 00-.52-1.44z"/></symbol><symbol viewBox="0 0 15 15" id="maki-parking-garage" xmlns="http://www.w3.org/2000/svg"><path d="M10.5 10.14a3.53 3.53 0 01-2.29.66h-1.9V14h-1.9V5h3.92a3.2 3.2 0 012.16.69 2.69 2.69 0 01.81 2.15 2.76 2.76 0 01-.8 2.3zM9 6.9a1.56 1.56 0 00-1-.3H6.31v2.65H8a1.48 1.48 0 001-.32 1.31 1.31 0 00.36-1A1.23 1.23 0 009 6.9zm5.41-2.69a.5.5 0 00-.24-.66L7.5.45.79 3.55a.501.501 0 10.42.91L7.5 1.55l6.29 2.9a.5.5 0 00.66-.24h-.04z"/></symbol><symbol viewBox="0 0 15 15" id="maki-pharmacy" xmlns="http://www.w3.org/2000/svg"><path d="M9.5 4l1.07-1.54c.06.005.12.005.18 0A1.25 1.25 0 109.5 1.25v.1L7 4h2.5zM12 6V5H3v1l1.5 3.5L3 13v1h9v-1l-1-3.5L12 6zm-2 4H8v2H7v-2H5V9h2V7h1v2h2v1z"/></symbol><symbol viewBox="0 0 15 15" id="maki-picnic-site" xmlns="http://www.w3.org/2000/svg"><path d="M4 3c-.554 0-1 .446-1 1s.446 1 1 1h1.297l-.645 2H2.5c-.554 0-1 .446-1 1s.446 1 1 1h1.51l-.969 3.01a.75.75 0 101.426.465l.002-.004L5.586 9h3.828l1.117 3.47a.75.75 0 101.428-.46L10.99 9h1.51c.554 0 1-.446 1-1s-.446-1-1-1h-2.152l-.645-2H11c.554 0 1-.446 1-1s-.446-1-1-1H4zm2.873 2h1.254l.644 2H6.23l.644-2z"/></symbol><symbol viewBox="0 0 15 15" id="maki-pitch" xmlns="http://www.w3.org/2000/svg"><path d="M5 3a1 1 0 110-2 1 1 0 010 2zm7.5 7H10L9 7 8 5.25 9 5l2.3 1a.539.539 0 00.4-1L9 4H7L5 5 4 6H2.5a.5.5 0 000 1H5l1-1 1 2-2 2v3.5a.5.5 0 001 0v-3.11L8 9l1 2h3.5a.5.5 0 000-1z"/></symbol><symbol viewBox="0 0 15 15" id="maki-place-of-worship" xmlns="http://www.w3.org/2000/svg"><path d="M7.5 0l-2 2v2h4V2l-2-2zm-2 4.5L4 6h7L9.5 4.5h-4zM2 6.5a1 1 0 00-1 1V13h2V7.5a1 1 0 00-1-1zm2 0V13h7V6.5H4zm9 0a1 1 0 00-1 1V13h2V7.5a1 1 0 00-1-1z"/></symbol><symbol viewBox="0 0 15 15" id="maki-playground" xmlns="http://www.w3.org/2000/svg"><path d="M2 1.15a1.5 1.5 0 112.903.757A1.5 1.5 0 012 1.15zm11 11.17a1 1 0 01-.796 1.17H12.2a1 1 0 01-1.07-.49L9.45 9.63 8 9.92l-.22.08h-.06v2.15l.62-.15h.14a.52.52 0 01.19 1l-5 1a.51.51 0 01-.17 0 .52.52 0 01-.2-1l4.15-.83V10l-3.22.58a1 1 0 01-1.21-.68H3L2 5.83a1 1 0 010-.43 1 1 0 01.8-.75l4.7-.52V0h.22v4.1h.06L8 4.08 8.4 4h.21a.5.5 0 01.37.6.49.49 0 01-.49.4L8 5.08h-.28v2.86h.06L8 7.88l1.81-.36a1 1 0 011 .6l2 3.94a.999.999 0 01.19.26zM7.5 5.13L5 5.4l.74 2.94L7.5 8V5.13z"/></symbol><symbol viewBox="0 0 15 15" id="maki-police" xmlns="http://www.w3.org/2000/svg"><path d="M5.5 1L6 2h5l.5-1h-6zM6 2.5v1.25S6 6.5 8.5 6.5 11 3.75 11 3.75V2.5H6zM1.984 3.986A1 1 0 001 5v4a1 1 0 001.217.977L5 9.357V14l5.879-6.93c-.14-.04-.284-.07-.438-.07H6.5L3 7.754V5a1 1 0 00-1.016-1.014zm9.764 3.725L6.412 14H12V8.559c0-.314-.094-.604-.252-.848z"/></symbol><symbol viewBox="0 0 15 15" id="maki-police-JP" xmlns="http://www.w3.org/2000/svg"><path d="M7.5 1A6.5 6.5 0 1014 7.5 6.5 6.5 0 007.5 1zm2.6 2.84l-2.6 2.6-2.6-2.6a4.443 4.443 0 015.2 0zM3.84 4.9l2.6 2.6-2.6 2.6a4.443 4.443 0 010-5.2zm1.06 6.26l2.6-2.6 2.6 2.6a4.443 4.443 0 01-5.2 0zm6.26-1.06l-2.6-2.6 2.6-2.6a4.443 4.443 0 010 5.2z"/></symbol><symbol viewBox="0 0 15 15" id="maki-post" xmlns="http://www.w3.org/2000/svg"><path d="M14 6.5V12a1 1 0 01-1 1H2a1 1 0 01-1-1V6.5a.5.5 0 01.5-.5.49.49 0 01.21 0l5.79 4 5.8-4a.488.488 0 01.2 0 .5.5 0 01.5.5zM1.25 3.92l.08.08L7.5 8l6.19-4h.06a.49.49 0 00.25-.5.5.5 0 00-.5-.5h-12a.5.5 0 00-.5.5.49.49 0 00.25.42z"/></symbol><symbol viewBox="0 0 15 15" id="maki-post-JP" xmlns="http://www.w3.org/2000/svg"><path d="M1.5 3a1 1 0 011-1h10a1 1 0 010 2h-10a1 1 0 01-1-1zm11 2.5h-10a1 1 0 000 2h4V12a1 1 0 002 0V7.5h4a1 1 0 000-2z"/></symbol><symbol viewBox="0 0 15 15" id="maki-prison" xmlns="http://www.w3.org/2000/svg"><path d="M3.5 1v13H12V1H3.5zm6 1H11v3.5H9.5V2zm-5 .055H6V7H4.5V2.055zm2.5 0h1.5V7H7V2.055zM10.25 6.5a.75.75 0 010 1.5.75.75 0 010-1.5zM7 8h1.473l.027 5H7.027L7 8zm-2.5.166H6V13H4.5V8.166zM9.5 9H11v4H9.5V9z"/></symbol><symbol viewBox="0 0 15 15" id="maki-racetrack" xmlns="http://www.w3.org/2000/svg"><path d="M4.993 1.582a.5.5 0 10-.986-.164l-2 12a.5.5 0 10.986.164l.67-4.02c.806.118 1.677.157 2.363.638a3.3 3.3 0 001.432.583c.966.146 1.83-.385 2.784-.234l1.289.194c.26.04.53-.16.569-.42l.884-5.934.004-.004a.518.518 0 00-.427-.564l-1.289-.194c-.963-.143-1.829.373-2.783.23A2.8 2.8 0 017.3 3.38c-.739-.517-1.619-.603-2.486-.725l.18-1.074zm-.59 3.538l.33-1.972c.599.082 1.233.129 1.788.369l-.295 1.965c-.57-.233-1.213-.278-1.822-.362zM3.746 9.07l.33-1.974c.62.086 1.277.13 1.858.368l.3-1.976c.658.27 1.159.733 1.893.841l.3-1.98c.738.111 1.349-.177 2.058-.234l-.3 1.966c-.71.06-1.324.36-2.06.25l-.286 1.978c-.736-.11-1.238-.575-1.899-.844l-.3 1.976c-.595-.239-1.263-.281-1.894-.371zm4.094-.76c.734.11 1.351-.192 2.061-.251l.284-1.978c.655-.06 1.325.111 1.968.209l-.28 1.976c-.644-.097-1.316-.269-1.971-.207l-.3 1.976c-.709.048-1.335.36-2.062.25l.3-1.976z"/></symbol><symbol viewBox="0 0 15 15" id="maki-racetrack-boat" xmlns="http://www.w3.org/2000/svg"><path d="M10.064 12.216c.47-.513.936-1.022 1.594-1.242a2.004 2.004 0 011.867.28c.724.532 1.39-.22.591-.806a3.023 3.023 0 00-2.774-.423c-.72.24-1.213.767-1.705 1.294-.4.427-.8.855-1.322 1.129-.62.324-1.065-.027-1.065-.636V11.8c0-.798-.408-1.3-1.25-1.3-.49 0-.992.258-1.5.5a16.15 16.15 0 00-3.317 2.113.505.505 0 00-.067.707c.25.3.58.162.83-.038.413-.333 1.78-1.391 2.933-1.94.477-.227.862-.342 1.121-.342.25 0 .25.102.25.34-.002 1.326 1.29 2.142 2.529 1.494.504-.265.896-.692 1.285-1.118zM2.5 10c1.5-1 3.255-2 5-2 .75 0 .75.375.75.75s0 .75.75.75c2.527 0 5.363-3.214 5.5-5.5L12 5l-2.342-.974c-.612-.204-.928.744-.316.948L10.5 5.5 9 6 5 4.75c-.236-.079-.389.027-.5.25L3 8 1 9l1.5 1zM5 3a1 1 0 112 0 1 1 0 01-2 0z"/></symbol><symbol viewBox="0 0 15 15" id="maki-racetrack-cycling" xmlns="http://www.w3.org/2000/svg"><path d="M8 1l3 3h1c2 0 2-3 0-3H8zm.463 2a.5.5 0 00-.317.146l-2.5 2.5a.5.5 0 00.042.745l2.158 1.726-1.276 2.125a.501.501 0 10.86.516l1.5-2.5a.5.5 0 00-.117-.649L7.304 6.402 9 4.707l1.146 1.147A.5.5 0 0010.5 6H13a.5.5 0 000-1h-2.293L8.854 3.146A.5.5 0 008.463 3zM2.949 7a3 3 0 10.1 6 3 3 0 00-.099-6h-.001zm9 0a3 3 0 10.1 6 3 3 0 00-.099-6h-.001zm.1 1a2 2 0 11-.098 3.998A2 2 0 0112.05 8z"/></symbol><symbol viewBox="0 0 15 15" id="maki-racetrack-horse" xmlns="http://www.w3.org/2000/svg"><path d="M10 1a1 1 0 100 2 1 1 0 000-2zM5.5 3c-.25 0-1 0-.5.75L6.25 6H4.5c-.277.003-.517.1-.75.25-.806-1.129-1.508-.698-2.24-.25-.403.247-.816.499-1.26.5a.258.258 0 00-.25.25.258.258 0 00.25.25c.376.02.807-.093 1.238-.207.656-.173 1.31-.345 1.766-.043C3.16 6.937 3 7.5 3 8l-.002 1.51c-.206.204-.379.123-.555.04-.14-.065-.283-.13-.443-.05l-1 2.95c0 .25.393.302.5.05l.75-1.756C2.998 10.744 4.5 10 5 9l4 1 2.5 2.5c.197.197.62-.138.46-.385L10 9l2-2.5c.248.5.495.5.986.5H13l.6.75c.388.485 1.22-.007.9-.5l-1.666-2.46L13 4.5c.062-.187-.363-.576-.5-.5l-2 1.5-1.61-2.313A.5.5 0 008.5 3h-3zM9 5.25l.5.75-2.723 1.916a.5.5 0 11-.554-.832L9 5.25z"/></symbol><symbol viewBox="0 0 15 15" id="maki-rail" xmlns="http://www.w3.org/2000/svg"><path d="M3 1a1 1 0 00-1 1v8a1 1 0 001 1h9a1 1 0 001-1V2a1 1 0 00-1-1H3zm2.75.5h3.51a.25.25 0 110 .5H5.75a.25.25 0 110-.5zM3.5 3H7v4H3.5a.5.5 0 01-.5-.5v-3a.5.5 0 01.5-.5zM8 3h3.5a.5.5 0 01.5.5v3a.5.5 0 01-.5.5H8V3zM5 8a1 1 0 110 2 1 1 0 010-2zm5 0a1 1 0 110 2 1 1 0 010-2zm.445 3.994a.504.504 0 00-.425.676l.17.33H4.81l.13-.27a.5.5 0 00-.91-.41l-1 2a.487.487 0 00-.03.18.5.5 0 00.5.5.49.49 0 00.43-.26v-.05H4l.31-.69h6.38l.31.69v.05a.49.49 0 00.43.26.5.5 0 00.5-.5.49.49 0 000-.24l-1-2a.5.5 0 00-.485-.266z"/></symbol><symbol viewBox="0 0 15 15" id="maki-rail-light" xmlns="http://www.w3.org/2000/svg"><path d="M5.5 0C5 0 5 .5 5 .5v1a.499.499 0 101 0V1h1v2H6S4 3 4 5v3c0 3 3 3 3 3h1s3 0 3-3V5c0-2-2-2-2-2H8V1h1v.5a.499.499 0 101 0v-1c0-.5-.5-.5-.5-.5h-4zm2 4l2.045.773L10 6.5c.132.5-.5.5-.5.5h-4s-.632 0-.5-.5l.455-1.727L7.5 4zm0 4a.5.5 0 110 1 .5.5 0 010-1zm-3.375 4L3 15h1.5l.375-1h5.25l.375 1H12l-1.125-3h-1.5l.375 1h-4.5l.375-1h-1.5z"/></symbol><symbol viewBox="0 0 15 15" id="maki-rail-metro" xmlns="http://www.w3.org/2000/svg"><path d="M5.5 0s-.75 0-1 1L3 6.5V10c0 1 1 1 1 1h7s1 0 1-1V6.5L10.5 1c-.273-1-1-1-1-1h-4zm1 1.5h2s.536 0 .75 1L10 6c.215 1.002-1 1-1 1H6s-1.215.002-1-1l.75-3.5c.214-1 .75-1 .75-1zM5 8a1 1 0 110 2 1 1 0 010-2zm1.75 0h1.5a.25.25 0 110 .5h-1.5a.25.25 0 110-.5zM10 8a1 1 0 110 2 1 1 0 010-2zm-5.875 4L3 15h1.5l.375-1h5.25l.375 1H12l-1.125-3h-1.5l.375 1h-4.5l.375-1h-1.5z"/></symbol><symbol viewBox="0 0 15 15" id="maki-ranger-station" xmlns="http://www.w3.org/2000/svg"><path d="M9 .5l-2 1v3.773L2 8v6h4v-4h3v4h4V8L8 5.273V4l1-.5 2 1 2-1v-3l-2 1-2-1z"/></symbol><symbol viewBox="0 0 15 15" id="maki-recycling" xmlns="http://www.w3.org/2000/svg"><path d="M2.456 8.613c-.338.598-.955 1.69.137 2.418.343.227.728.384 1.131.462.307.045.323.518-.038.507-.385-.02-2.26-.193-2.561-1.6-.156-.82.02-1.557.504-2.355l.697-1.233-1.306-.743L4.5 4v4l-1.306-.694-.738 1.307zM6.7 2.034c1.155-.628 1.823.43 2.191 1.007l.806 1.263-1.266.808L12 6.986l-.197-4.026-1.264.807-.76-1.189c-.522-.746-.904-1.297-1.835-1.545C6.307.72 5.301 2.619 5.311 2.607c-.164.287.216.54.451.21.258-.32.577-.586.938-.783zm6.594 6.187c-.088-.19-.549-.141-.419.267.131.39.184.8.157 1.21C12.939 11.01 11.684 11 11 11H9.5V9.5l-3.5 2 3.488 2.025L9.493 12H11c.89.015 1.6-.176 2.2-.713 1.2-1.061.094-3.066.094-3.066z"/></symbol><symbol viewBox="0 0 15 15" id="maki-religious-buddhist" xmlns="http://www.w3.org/2000/svg"><path d="M13.498 6.999h-.533a5.463 5.463 0 00-1.248-3.01l.378-.379a.5.5 0 00-.695-.719l-.012.012-.378.378a5.464 5.464 0 00-3.011-1.248V1.5a.5.5 0 00-1 0v.533a5.464 5.464 0 00-3.01 1.248L3.61 2.9a.5.5 0 00-.707.707l.378.377A5.463 5.463 0 002.034 7H1.5a.5.5 0 000 1h.533a5.463 5.463 0 001.247 3.01l-.378.378a.5.5 0 00.695.72l.012-.013.378-.378a5.462 5.462 0 003.011 1.249v.533a.5.5 0 001 0v-.533a5.463 5.463 0 003.01-1.249l.379.378a.5.5 0 00.719-.695l-.012-.012-.378-.378A5.464 5.464 0 0012.965 8h.533a.5.5 0 000-1zm-5.5-3.948a4.45 4.45 0 012.293.948l-2.15 2.15a1.484 1.484 0 00-.143-.058v-3.04zm-1 0v3.04a1.484 1.484 0 00-.142.058l-2.15-2.15a4.45 4.45 0 012.293-.949zm-3 1.655l2.15 2.15A1.484 1.484 0 006.092 7H3.05a4.45 4.45 0 01.948-2.293zM3.05 8h3.041c.017.048.036.096.058.143l-2.15 2.15a4.448 4.448 0 01-.949-2.293zM7 11.947a4.45 4.45 0 01-2.293-.949l2.15-2.15c.047.022.095.041.143.058v3.041zm1 0v-3.04c.049-.017.096-.037.143-.058l2.15 2.15a4.448 4.448 0 01-2.293.948zm3-1.656l-2.15-2.15c.022-.046.041-.094.058-.143h3.041a4.448 4.448 0 01-.95 2.293zM8.907 7a1.484 1.484 0 00-.058-.143l2.15-2.15a4.45 4.45 0 01.948 2.292h-3.04z"/></symbol><symbol viewBox="0 0 15 15" id="maki-religious-christian" xmlns="http://www.w3.org/2000/svg"><path d="M6 .955V4H3v3h3v8h3V7h3V4H9V1c0-1-.978-1-.978-1H6.99S6 0 6 .955z"/></symbol><symbol viewBox="0 0 15 15" id="maki-religious-jewish" xmlns="http://www.w3.org/2000/svg"><path d="M15 12H9.78L7.5 15l-2.26-3H0l2.7-4L0 4h5.3l2.2-4 2.34 4H15l-2.56 4L15 12z"/></symbol><symbol viewBox="0 0 15 15" id="maki-religious-muslim" xmlns="http://www.w3.org/2000/svg"><path d="M6.794 0C3 0 0 3 0 6.794s3 6.794 6.794 6.794c2.118 0 4.412-.706 5.647-2.294-.794.53-2.294 1.147-3.441 1.147-2.912 0-5.118-2.912-5.118-5.823S6.088 1.148 9 1.148c1.059 0 2.559.617 3.441 1.146C11.206.706 8.911 0 6.794 0zM11 3l-1 2.5H7L9.5 7l-1 3L11 8.5l2.5 1.5-1-3L15 5.5h-3L11 3z"/></symbol><symbol viewBox="0 0 15 15" id="maki-religious-shinto" xmlns="http://www.w3.org/2000/svg"><path d="M12.5 2.5h-10a.945.945 0 00-1 1 .945.945 0 001 1H3V12a.945.945 0 001 1 .945.945 0 001-1V8h5v4a.945.945 0 001 1 .945.945 0 001-1V4.5h.5a.945.945 0 001-1 .945.945 0 00-1-1zM10 6H8V4.5h2zM7 6H5V4.5h2z"/></symbol><symbol viewBox="0 0 15 15" id="maki-residential-community" xmlns="http://www.w3.org/2000/svg"><path d="M11.8 13.5V11c.7-.1 1.2-.7 1.2-1.5S12.3 8 11.5 8 10 8.7 10 9.5c0 .7.5 1.4 1.2 1.5v2.5H7V2H2v11.5H1v.5h13v-.5h-2.2zM6 11H3v-1h3v1zm0-2H3V8h3v1zm0-2H3V6h3v1zm0-2H3V4h3v1z"/></symbol><symbol viewBox="0 0 15 15" id="maki-restaurant" xmlns="http://www.w3.org/2000/svg"><path d="M3.5 0l-1 5.5c-.146.805 1.782 1.181 1.75 2L4 14c-.038 1 1 1 1 1s1.038 0 1-1l-.25-6.5c-.031-.818 1.733-1.18 1.75-2L6.5 0H6l.25 4-.75.5L5.25 0h-.5L4.5 4.5 3.75 4 4 0h-.5zM12 0c-.736 0-1.964.655-2.455 1.637C9.135 2.373 9 4.018 9 5v2.5c0 .818 1.09 1 1.5 1L10 14c-.09.996 1 1 1 1s1 0 1-1V0z"/></symbol><symbol viewBox="0 0 15 15" id="maki-restaurant-bbq" xmlns="http://www.w3.org/2000/svg"><path d="M12.017 12.5H14.5L12 15v-2.483a1.619 1.619 0 01-1.137.48 1.6 1.6 0 01-.993-.345 6.784 6.784 0 01.008-10.31 1.618 1.618 0 012.122.12V0l2.5 2.5h-2.464a1.593 1.593 0 01.122.129 1.624 1.624 0 01-.287 2.28 3.515 3.515 0 00-1.121 2.586 3.558 3.558 0 001.147 2.616 1.635 1.635 0 01.232 2.279c-.034.041-.075.072-.112.11zM2.504 0l-1 5.5c-.146.805 1.781 1.181 1.75 2l-.25 6.5a.963.963 0 001 1 .963.963 0 001-1l-.25-6.5c-.031-.818 1.733-1.18 1.75-2l-1-5.5h-.5l.25 4-.75.5-.25-4.5h-.5l-.25 4.5-.75-.5.25-4z"/></symbol><symbol viewBox="0 0 15 15" id="maki-restaurant-noodle" xmlns="http://www.w3.org/2000/svg"><path d="M4.457 11.99L1 8V7h13v1l-3.496 3.99zM3.988 2.5a.5.5 0 00-1 0v.567l-1.797.368a.25.25 0 10.094.49l1.703-.277v.566l-1.75.036a.25.25 0 000 .5l1.75.036v1.212h1zm9.5 1.5l-7.5.263V2.995l7.594-1.074a.5.5 0 00-.188-.982L5.98 2.455a.496.496 0 00-.99.045v.228l-.494.1v.352l.493-.08v1.197l-.493.01v.461L13.488 5a.5.5 0 000-1zM10 13H5v.576h5z"/></symbol><symbol viewBox="0 0 15 15" id="maki-restaurant-pizza" xmlns="http://www.w3.org/2000/svg"><path d="M2.393 8.931l-1.368-.616A14.048 14.048 0 018.764.999l.027.07.511 1.331-.004.001a12.613 12.613 0 00-6.905 6.53zm10.963 4.96L3.42 9.414a11.604 11.604 0 016.354-6.009l.003-.001.817 2.122c-.028-.002-.052-.016-.081-.016a1.062 1.062 0 10.764 1.793l2.413 6.273a.249.249 0 01-.334.316zM8.426 8.52a.924.924 0 10-.925.924.924.924 0 00.924-.925zm3.017 2.03a.925.925 0 10-.926.925.925.925 0 00.925-.926z"/></symbol><symbol viewBox="0 0 15 15" id="maki-restaurant-seafood" xmlns="http://www.w3.org/2000/svg"><path d="M11.433 10.089h2.49v.75h-2.07a4.81 4.81 0 011.622 2.301l-.71.242a4.01 4.01 0 00-1.74-2.197 1.778 1.778 0 01-1.035.454l-1.553 1.346H6.52l-1.535-1.362a2.022 2.022 0 01-1.093-.44 4.01 4.01 0 00-1.743 2.199l-.71-.242a4.815 4.815 0 011.622-2.301H.99v-.75h2.494l.863-.677-1.014-1.655a2.274 2.274 0 01-.27.029 2.02 2.02 0 01-2.052-2.08c0-2.08 1.979-4.16 1.979-4.16l-.737 4.447 1.726-.001L4.99 2.985v2.996a2.094 2.094 0 01-.699 1.412l.854 1.394.084-.066a3.867 3.867 0 014.478 0l.06.047.87-1.415a2.118 2.118 0 01-.643-1.372V2.985l.983 3.007 1.755.001-.737-4.447s1.982 2.08 1.982 4.16a2.021 2.021 0 01-2.056 2.08 2.313 2.313 0 01-.344-.037l-1.01 1.646.84.659c.013.01.014.024.025.035z"/></symbol><symbol viewBox="0 0 15 15" id="maki-restaurant-sushi" xmlns="http://www.w3.org/2000/svg"><path d="M5.5 3a.5.5 0 00-.5.5H2.75A2.744 2.744 0 00.943 8.313 1.998 1.998 0 000 10c0 1.1.9 2 2 2h8c1.1 0 2-.9 2-2 0-.488-.186-.93-.48-1.277l2.177.963a.75.75 0 10.606-1.372l-1.81-.802 1.63-.272a.75.75 0 10-.246-1.48l-2.13.355C11.258 4.952 10.038 3.784 8 3.55V3.5a.5.5 0 00-.5-.5h-2zM6 4h1v7H6V4zm3.5 4c.259 0 .464.197.49.45l.076-.134a.5.5 0 11.866.5l-.258.448A.986.986 0 0111 10c0 .563-.437 1-1 1H8V9h1v-.5c0-.277.223-.5.5-.5zm-7.06.07a.498.498 0 01.494.246l.2.348A.493.493 0 013.5 8.5c.277 0 .5.223.5.5h1v2H2c-.563 0-1-.437-1-1s.437-1 1-1h.174l-.106-.184a.497.497 0 01.371-.746z"/></symbol><symbol viewBox="0 0 15 15" id="maki-road-accident" xmlns="http://www.w3.org/2000/svg"><path d="M12.6 8.7l-1.1-2.2a1.05 1.05 0 00-.9-.5H4.4a1.05 1.05 0 00-.9.5L2.4 8.7 1.16 9.852a.5.5 0 00-.16.366V14.5a.5.5 0 00.5.5h2c.2 0 .5-.2.5-.4V14h7v.5c0 .2.2.5.4.5h2.1a.5.5 0 00.5-.5v-4.282a.5.5 0 00-.16-.366zM4.5 7h6l1 2h-8zm.5 4.6c0 .2-.3.4-.5.4H2.4c-.2 0-.4-.3-.4-.5v-1.1c.1-.3.3-.5.6-.4l2 .4c.2 0 .4.3.4.5zm8-.1c0 .2-.2.5-.4.5h-2.1c-.2 0-.5-.2-.5-.4v-.7c0-.2.2-.5.4-.5l2-.4c.3-.1.5.1.6.4zM8 4H7L6 0h3zM1.1 1.8L3.7.3l1.1 4-.8.4zM11.3.3l2.6 1.5-2.9 3-.9-.5z"/></symbol><symbol viewBox="0 0 15 15" id="maki-roadblock" xmlns="http://www.w3.org/2000/svg"><path d="M7.5 0a7.5 7.5 0 100 15 7.5 7.5 0 000-15zM3 6h9v3H3V6z"/></symbol><symbol viewBox="0 0 15 15" id="maki-rocket" xmlns="http://www.w3.org/2000/svg"><path d="M12.555 1C10.41 1 7.534 2.471 5.602 5H4c-1.157 0-1.82.864-2.277 1.777L1.11 8H4l1.5 1.5L7 11V13.889l1.223-.612C9.136 12.821 10 12.157 10 11V9.398c2.529-1.932 4-4.809 4-6.953V1h-1.445zM10 4a1 1 0 110 2 1 1 0 110-2zm-6.5 6l-.5.5c-.722.722-1 2.5-1 2.5s1.698-.198 2.5-1l.5-.5L3.5 10z"/></symbol><symbol viewBox="0 0 15 15" id="maki-school" xmlns="http://www.w3.org/2000/svg"><path d="M11 13v-1h2v-1H9.5v-1H13V9h-2V8h2V7h-2V6h2V5H9.5V4H13V3h-2V2h2V1H8v13h5v-1h-2zm-5-2H2V1h4v10zm0 1l-2 2-2-2h4z"/></symbol><symbol viewBox="0 0 15 15" id="maki-school-JP" xmlns="http://www.w3.org/2000/svg"><path d="M12.5 3h-4V2a1 1 0 00-2 0v1h-4a1 1 0 000 2h.67a10.817 10.817 0 001.98 3.81c.333.432.66.825.979 1.194a14.383 14.383 0 01-2.608 2.117 1 1 0 10.955 1.758A15.65 15.65 0 007.5 11.461a15.65 15.65 0 003.024 2.418 1 1 0 10.955-1.758 14.379 14.379 0 01-2.607-2.117c.319-.369.645-.762.978-1.193a10.818 10.818 0 001.98-3.812h.67a1 1 0 000-2zM8.267 7.587c-.261.338-.515.641-.767.937a25.017 25.017 0 01-.767-.937 9.588 9.588 0 01-1.465-2.589h4.464a9.579 9.579 0 01-1.465 2.589z"/></symbol><symbol viewBox="0 0 15 15" id="maki-scooter" xmlns="http://www.w3.org/2000/svg"><path d="M4.908 12a1.5 1.5 0 11-2.816 0zm8.65-6H13V3h.351a.282.282 0 00.223-.148l.268-.536a.334.334 0 00.009-.066A.25.25 0 0013.6 2H13v-.3a.215.215 0 00-.2-.2H9.25a.25.25 0 000 .5H12v4.6L7.6 10H6V7.5a.5.5 0 00-.5-.5H5V5h1.75a.25.25 0 000-.5l-4.484-.466c-.006 0-.01-.007-.016-.007a.25.25 0 00-.25.25v.473a.25.25 0 00.25.25H3v2h-.5A1.538 1.538 0 001 8.5v2a.472.472 0 00.442.5H7.5l2.5-1h3.5a.472.472 0 00.5-.442V6.5a.472.472 0 00-.442-.5zM12.5 11a1.5 1.5 0 101.5 1.5 1.538 1.538 0 00-1.5-1.5z"/></symbol><symbol viewBox="0 0 15 15" id="maki-shelter" xmlns="http://www.w3.org/2000/svg"><path d="M4 7v5h9.5v2H2V7.78l-1 .38V6l13-5v2.14L4 7z"/></symbol><symbol viewBox="0 0 15 15" id="maki-shoe" xmlns="http://www.w3.org/2000/svg"><path d="M9.5 7a9.97 9.97 0 01-1.315-.948L6.01 3.221a.558.558 0 00-1 .279H5V5H3.209a.5.5 0 01-.357-.148S2.5 4 2 4h-.5a.5.5 0 00-.5.5V9h5.5c1.5 0 2 1 3.5 1h4v-.5C14 8 10.547 7.594 9.5 7zm0 4a3.131 3.131 0 01-1.526-.447A4.1 4.1 0 006 10H1v1.5a.5.5 0 00.5.5h4a.5.5 0 00.5-.5V11a3.134 3.134 0 011.526.447A4.1 4.1 0 009.5 12h4a.5.5 0 00.5-.5V11z"/></symbol><symbol viewBox="0 0 15 15" id="maki-shop" xmlns="http://www.w3.org/2000/svg"><path d="M13.33 6H11.5l-.39-2.33A2 2 0 009.7 2.18 3.76 3.76 0 008.62 2H6.38a3.76 3.76 0 00-1.08.18 2 2 0 00-1.41 1.49L3.5 6H1.67a.5.5 0 00-.48.65l1.88 6.3A1.5 1.5 0 004.5 14h6a1.5 1.5 0 001.42-1.05l1.88-6.3a.5.5 0 00-.47-.65zM4.52 6l.36-2.17a.91.91 0 01.74-.7c.246-.078.502-.121.76-.13h2.24c.261.008.52.051.77.13a.91.91 0 01.74.7L10.48 6h-6 .04z"/></symbol><symbol viewBox="0 0 15 15" id="maki-skateboard" xmlns="http://www.w3.org/2000/svg"><path d="M11 8H4a2.002 2.002 0 01-2-2h1a1.001 1.001 0 001 1h7a1.001 1.001 0 001-1h1a2.002 2.002 0 01-2 2zm0 1a1 1 0 101 1 1 1 0 00-1-1zM4 9a1 1 0 101 1 1 1 0 00-1-1z"/></symbol><symbol viewBox="0 0 15 15" id="maki-skiing" xmlns="http://www.w3.org/2000/svg"><path d="M15 4.5a1.5 1.5 0 11-3 0 1.5 1.5 0 013 0zm-1.28 7.39a.25.25 0 00-.33-.11 2.69 2.69 0 01-2.28.25L4.78 8.86 7.5 7.5v-3l1.5.75v3l1.5.75 1.5-.75-1.5-.75V3l-3-1.5-1.5.75v4.5L3.28 8.11.61 6.78a.25.25 0 10-.22.45l10.5 5.25c.316.135.657.2 1 .19a3.84 3.84 0 001.72-.44.25.25 0 00.113-.335l-.003-.005z"/></symbol><symbol viewBox="0 0 15 15" id="maki-slaughterhouse" xmlns="http://www.w3.org/2000/svg"><path d="M15 8.1c0 1.376-1.363.694-1.363.694L12.5 9H11a5.309 5.309 0 01-1.5 2 3.272 3.272 0 01-.523 1.125c-.077.091-.061.2-.068.33l.091 2.3a.264.264 0 01-.266.25.242.242 0 01-.234-.205L8 11.5H4v3.253a.247.247 0 01-.247.247.25.25 0 01-.241-.2L3 12v-.5a8.2 8.2 0 01-1.426-.1A1.886 1.886 0 01.9 12.826c-.128.083-.148.211-.133.386l.19 1.538a.25.25 0 01-.25.25.238.238 0 01-.23-.174l-.427-1.7a.35.35 0 01.055-.3c.437-.68-.049-2.55-.049-2.55A1.354 1.354 0 010 9.922V7.5a2.027 2.027 0 012.736-1.914s.1.03.142.049a15.15 15.15 0 003.814.038l.179-.062a1.842 1.842 0 011.26 0 .972.972 0 01.227.089 1.994 1.994 0 01.287.171A1.8 1.8 0 009.5 6h1V5l.5.5c.5-1.5 2.5-1 2.5-1a1.687 1.687 0 00-1.5 1l2.5 2a.613.613 0 01.186-.069.318.318 0 01.314.321V8.1z"/></symbol><symbol viewBox="0 0 15 15" id="maki-slipway" xmlns="http://www.w3.org/2000/svg"><path d="M1.042 11l12 1.495V13h-12zm12-4l-1 1v.583L4.238 5.332l.062-.125 1.352-1.362h.831a.35.35 0 000-.7h-.976a.352.352 0 00-.248.103L3.763 4.753a.371.371 0 00-.065.09l-.11.219L1.043 4c0 2-.03 3.958 2.86 4.5 1.419.266 8.14 1.5 8.14 1.5l2-2z"/></symbol><symbol viewBox="0 0 15 15" id="maki-snowmobile" xmlns="http://www.w3.org/2000/svg"><path d="M15 11a1 1 0 01-1 1H9.414a1 1 0 01-.707-.293l-1.561-1.561A.498.498 0 006.793 10H3.334a1.002 1.002 0 01-.601-.2L1.386 8.788A1.013 1.013 0 011 8a.995.995 0 01.472-.844L5 5l1.038-1.692A.5.5 0 017 3.5V7l1 1h1l5.412-.992a.5.5 0 01.355.915L13 9l1.631 1.224A.99.99 0 0115 11zm-9.5 0H3.225a3.003 3.003 0 01-1.44-.368l-1.045-.57a.5.5 0 00-.48.877l1.269.693a3.003 3.003 0 001.44.368H5.5a.5.5 0 000-1z"/></symbol><symbol viewBox="0 0 15 15" id="maki-soccer" xmlns="http://www.w3.org/2000/svg"><path d="M11 1.5a1.5 1.5 0 11-3 0 1.5 1.5 0 013 0zm0 9.5a1 1 0 100 2 1 1 0 000-2zm1.84-4.91l-1.91-1.91a.48.48 0 00-.37-.18H3.5a.5.5 0 000 1h2.7L3 11.3a.488.488 0 000 .2.511.511 0 001 .21L5 10h2l-1.93 4.24a.49.49 0 00-.07.26.51.51 0 001 .2l4.7-9.38 1.44 1.48a.5.5 0 00.7-.71z"/></symbol><symbol viewBox="0 0 15 15" id="maki-square" xmlns="http://www.w3.org/2000/svg"><path d="M13 14H2a1 1 0 01-1-1V2a1 1 0 011-1h11a1 1 0 011 1v11a1 1 0 01-1 1z"/></symbol><symbol viewBox="0 0 15 15" id="maki-square-stroked" xmlns="http://www.w3.org/2000/svg"><path d="M12.7 2.3v10.4H2.3V2.3h10.4M13 1H2a1 1 0 00-1 1v11a1 1 0 001 1h11a1 1 0 001-1V2a1 1 0 00-1-1z"/></symbol><symbol viewBox="0 0 15 15" id="maki-stadium" xmlns="http://www.w3.org/2000/svg"><path d="M7 1v4.01c-2.83.094-4.998.957-5 1.99v4.5c0 1.105 2.462 2 5.5 2s5.5-.895 5.5-2V7c-.002-1.034-2.17-1.896-5-1.99v-.947l3-1.313L7 1zM3 8.146c.515.268 1.201.485 2 .633v2.967c-1.205-.269-2-.726-2-1.246V8.146zm9 .002V10.5c0 .52-.795.977-2 1.246V8.781c.799-.148 1.485-.366 2-.633zm-6 .774a14.68 14.68 0 003 .002v2.984c-.471.056-.971.092-1.5.092s-1.029-.036-1.5-.092V8.922z"/></symbol><symbol viewBox="0 0 15 15" id="maki-star" xmlns="http://www.w3.org/2000/svg"><path d="M7.5 0l-2 5h-5l4 3.5-2 6 5-3.5 5 3.5-2-6 4-3.5h-5l-2-5z"/></symbol><symbol viewBox="0 0 15 15" id="maki-star-stroked" xmlns="http://www.w3.org/2000/svg"><path d="M7.5 3.19l1.07 2.68.25.63h3l-2 1.75-.5.44.23.63 1 3.13-2.48-1.77-.57-.4-.57.4-2.52 1.77 1-3.13.21-.63-.5-.44-2-1.75h3l.25-.63L7.5 3.19M7.5.5l-2 5h-5l4 3.5-2 6 5-3.5 5 3.5-2-6 4-3.5h-5l-2-5z"/></symbol><symbol viewBox="0 0 15 15" id="maki-suitcase" xmlns="http://www.w3.org/2000/svg"><path d="M11 4V2c0-1-1-1-1-1H5.05S3.946 1.002 4 2v2H2S1 4 1 5v7c0 1 1 1 1 1h11s1 0 1-1V5c0-1-1-1-1-1h-2zM5.5 2.5h4V4h-4V2.5z"/></symbol><symbol viewBox="0 0 15 15" id="maki-swimming" xmlns="http://www.w3.org/2000/svg"><path d="M10.111 2c-.112 0-.435.147-.435.147l-3.322 1.68c-.443.175-.618.881-.352 1.234l.97 1.408-3.97 2.029L5 9.998l2.502-1.5 2.5 1.5 1.002-1.002-3-4 2.557-1.53c.528-.266.443-.704.443-.97C11 2.286 10.644 2 10.111 2zm2.141 3a1.75 1.75 0 10-.003 3.501A1.75 1.75 0 0012.252 5zM2.5 10L0 11.5V13l2.5-1.5L5 13l2.502-1.5 2.5 1.5L12 11.5l3 1.5v-1.5L12 10l-1.998 1.5-2.5-1.5L5 11.5 2.5 10z"/></symbol><symbol viewBox="0 0 15 15" id="maki-table-tennis" xmlns="http://www.w3.org/2000/svg"><path d="M11.968 10.227a3.812 3.812 0 01-1.913.984L3.768 4.934a4.028 4.028 0 011.005-1.902C7.03.774 9.98.224 12.378 2.622s1.848 5.348-.41 7.605zm-6.987 1.61a3.842 3.842 0 011.168-.559A4.533 4.533 0 018 11.445L3.546 7a4.413 4.413 0 01.157 1.922 3.664 3.664 0 01-.521 1.116C2.11 11.301 1.05 11.765 1.05 12.226a1.838 1.838 0 001.724 1.724c.46 0 .918-1.013 2.207-2.113z"/></symbol><symbol viewBox="0 0 15 15" id="maki-teahouse" xmlns="http://www.w3.org/2000/svg"><path d="M11 7c-.2 1.4-.5 2.7-1 4-.3.4-.6.7-1 1v2H6v-2c-.4-.3-.7-.6-1-1-.5-1.3-.8-2.6-1-4h7zM8.1 5.7c1.2-.3 1.7-.3 1.8-1.5 0-.6-.4-.8-1.5-1.4-.9-.4-1.3-1-1.2-1.8-.4.9-.2 2 .8 2.5 2 1 .1 2.2.1 2.2zM5.8 6c.7-.2 1.1-.2 1.1-.9 0-.4-.3-.5-.9-.9-.6-.2-.9-.7-.8-1.2-.3.6-.1 1.3.5 1.6 1.2.6.1 1.4.1 1.4z"/></symbol><symbol viewBox="0 0 15 15" id="maki-telephone" xmlns="http://www.w3.org/2000/svg"><path d="M4.51 8.88a.51.51 0 000 .72l.72.72-2.16 2.18-.37-.37a2.24 2.24 0 01-.7-1.44V9.24a2.24 2.24 0 01.7-1.45l5.07-5.07A2.24 2.24 0 019.22 2h1.45a2.24 2.24 0 011.45.72l.36.36-2.17 2.18-.73-.73a.51.51 0 00-.72 0zm-.38 4.72a1 1 0 001.414.036l.036-.036.72-.72a1 1 0 00.036-1.414L6.3 11.43zm7.25-7.28a1 1 0 001.414.036l.756-.756a1 1 0 00.036-1.414l-.036-.036z"/></symbol><symbol viewBox="0 0 15 15" id="maki-tennis" xmlns="http://www.w3.org/2000/svg"><path d="M13.128 1.87c-1.541-1.54-4.553-.776-6.28 1.05a6.828 6.828 0 00-1.88 4.4 5.728 5.728 0 01-.57 2.72.681.681 0 00-.67.17l-2.49 2.5a.694.694 0 000 .98l.07.07a.705.705 0 00.98 0l2.5-2.49a.683.683 0 00.18-.66 8.57 8.57 0 013.12-.58 6.549 6.549 0 003.99-1.87c2.03-2.03 2.501-4.84 1.05-6.29zm-2.2-.04a2.307 2.307 0 011.64.61 2.548 2.548 0 01.5 2.44l-2.95-2.96a3.865 3.865 0 01.81-.09zm-4.57 6.81a2.648 2.648 0 01-.48-2.55l3.04 3.04a2.852 2.852 0 01-2.56-.49zm2.88.39l-3.26-3.27a5.162 5.162 0 01.49-1.08l3.85 3.85a5.51 5.51 0 01-1.08.5zm1.34-.66l-3.94-3.95a5.203 5.203 0 01.74-.9l4.1 4.1a5.687 5.687 0 01-.9.75zm1.11-.96l-4.1-4.1a5.571 5.571 0 01.84-.65l3.92 3.92a5.719 5.719 0 01-.66.83zm.82-1.09L8.698 2.5a4.17 4.17 0 011.09-.48l3.2 3.2a5.566 5.566 0 01-.48 1.1z"/></symbol><symbol viewBox="0 0 15 15" id="maki-theatre" xmlns="http://www.w3.org/2000/svg"><path d="M2 1S1 1 1 2v5.158C1 8.888 1.354 11 4.5 11H5V8L2.5 9s0-2.5 2.5-2.5V5c0-.708.087-1.32.5-1.775.381-.42 1.005-1.258 2.656-.471L9 3.303V2s0-1-1-1c-.708 0-1.978 1-3 1S2.787 1 2 1zm1 2a1 1 0 110 2 1 1 0 010-2zm4 1S6 4 6 5v5c0 2 1 4 4 4s4-2 4-4V5c0-1-1-1-1-1-.708 0-1.978 1-3 1S7.787 4 7 4zm1 2a1 1 0 110 2 1 1 0 010-2zm4 0a1 1 0 110 2 1 1 0 010-2zm-4.5 4h5s0 2.5-2.5 2.5S7.5 10 7.5 10z"/></symbol><symbol viewBox="0 0 15 15" id="maki-toilet" xmlns="http://www.w3.org/2000/svg"><path d="M4.5 3a1.5 1.5 0 110-3 1.5 1.5 0 010 3zM14 1.5a1.5 1.5 0 10-3 0 1.5 1.5 0 003 0zM8.86 6.64L6.38 4.15A.51.51 0 006 4H3a.51.51 0 00-.35.14L.14 6.63a.52.52 0 10.73.73L3 5.2 1 11h2v3.33a.503.503 0 000 .15.51.51 0 001 0V11h1v3.5a.51.51 0 001 0 .503.503 0 000-.15V11h2L6 5.2l2.14 2.16a.51.51 0 00.38.17A.52.52 0 009 7a.51.51 0 00-.14-.36zM14.5 4h-4a.5.5 0 00-.5.5v5a.5.5 0 001 0v5a.5.5 0 001 0v-5h1v5a.5.5 0 001 0v-5a.5.5 0 001 0v-5a.5.5 0 00-.5-.5z"/></symbol><symbol viewBox="0 0 15 15" id="maki-town" xmlns="http://www.w3.org/2000/svg"><path d="M10.651 7.121a.251.251 0 00-.314 0L8.092 8.929A.247.247 0 008 9.122v4.625a.253.253 0 00.253.253h1.494a.253.253 0 00.253-.253V12h1v1.747a.253.253 0 00.253.253h1.494a.253.253 0 00.253-.253V9.12a.25.25 0 00-.094-.2zM10 11H9v-1h1zm2 0h-1v-1h1zM5.71 1.815a.252.252 0 00-.42 0L2.042 5.936a.252.252 0 00-.042.14v7.671a.252.252 0 00.251.253h2.5A.252.252 0 005 13.748V12h1v1.748a.252.252 0 00.252.252H7V8a.5.5 0 01.188-.391L9 6c0-.05-3.29-4.185-3.29-4.185zM4 10H3V9h1zm0-3H3V6h1zm2 3H5V9h1zm0-3H5V6h1z"/></symbol><symbol viewBox="0 0 15 15" id="maki-town-hall" xmlns="http://www.w3.org/2000/svg"><path d="M13 4H9V1L7.5 0 6 1v3H2L1 5v1h13V5l-1-1zM7.5 1.5c.4 0 .7.3.7.8s-.3.7-.7.7-.8-.3-.8-.8c0-.4.4-.7.8-.7zM13 7H2v4l-1 1.5V14h13v-1.5L13 11V7zm-8 5.5H4V8h1v4.5zm3 0H7V8h1v4.5zm3 0h-1V8h1v4.5z"/></symbol><symbol viewBox="0 0 15 15" id="maki-triangle" xmlns="http://www.w3.org/2000/svg"><path d="M7.538 2c-.294 0-.488.177-.615.385l-5.846 9.538C1 12 1 12.153 1 12.308c0 .538.385.692.692.692h11.616c.384 0 .692-.154.692-.692 0-.154 0-.231-.077-.385l-5.77-9.538C8.029 2.177 7.789 2 7.539 2z"/></symbol><symbol viewBox="0 0 15 15" id="maki-triangle-stroked" xmlns="http://www.w3.org/2000/svg"><path d="M7.524 1.5a.77.77 0 00-.69.395l-5.5 9.87C1.022 12.307 1.395 13 2 13h11c.605 0 .978-.692.666-1.236l-5.5-9.869a.773.773 0 00-.642-.395zM7.5 3.9l4.127 7.47H3.373L7.5 3.9z"/></symbol><symbol viewBox="0 0 15 15" id="maki-veterinary" xmlns="http://www.w3.org/2000/svg"><path d="M7.5 6c-2.5 0-3 2.28-3 3.47a6.149 6.149 0 00-1.7.89 2 2 0 00-.4 2.78 2.06 2.06 0 002.8.4 4 4 0 012.3-.69 4 4 0 012.3.69 2 2 0 002.8-.3 1.929 1.929 0 00-.226-2.72 1.386 1.386 0 00-.074-.06l-.1-.1a8.992 8.992 0 00-1.7-.89C10.5 8.29 10 6 7.5 6zM2.08 4.3a1.58 1.58 0 00-.76 2 1.52 1.52 0 001.61 1.4 1.58 1.58 0 00.76-2 1.52 1.52 0 00-1.61-1.4zm10.85 0a1.58 1.58 0 01.76 2 1.52 1.52 0 01-1.61 1.4 1.58 1.58 0 01-.76-2 1.52 1.52 0 011.61-1.4zm-7.85-3c-.68.09-1 .94-.76 1.87A1.77 1.77 0 005.93 4.7c.68-.09 1-.94.76-1.87A1.77 1.77 0 005.08 1.3zm4.85 0c.68.09 1 .94.76 1.87A1.77 1.77 0 019.07 4.7c-.68-.08-1-.94-.76-1.87A1.769 1.769 0 019.93 1.3z"/></symbol><symbol viewBox="0 0 15 15" id="maki-viewpoint" xmlns="http://www.w3.org/2000/svg"><path d="M6.02 8.425a2.386 2.386 0 00-.46.44l-4.55-3.5a7.998 7.998 0 011.51-1.51zm6.46-4.56l-3.5 4.55a2.397 2.397 0 01.45.45l4.56-3.5a7.945 7.945 0 00-1.51-1.5zm-5.176 6.148a1.5 1.5 0 101.683 1.291 1.5 1.5 0 00-1.683-1.291zM6.43 2.235a7.933 7.933 0 00-2.06.55l2.2 5.32a2.044 2.044 0 01.61-.17zm2.14.01l-.75 5.69a2.49 2.49 0 01.61.16l2.2-5.3a7.213 7.213 0 00-2.06-.55z"/></symbol><symbol viewBox="0 0 15 15" id="maki-village" xmlns="http://www.w3.org/2000/svg"><path d="M6.176 4.176a.249.249 0 00-.352 0l-4.4 4.4A.25.25 0 001.6 9H3v4.751a.249.249 0 00.249.249h3.5A.249.249 0 007 13.753v-5.43a.249.249 0 01.073-.176L8.5 6.5zM6 12H5v-1h1zm0-2H5V9h1zm6.75-4h-.5a.25.25 0 00-.25.25V8l-1.324-1.824a.249.249 0 00-.352 0L8.056 8.932A.246.246 0 008 9.088v4.66a.249.249 0 00.246.252h1.5a.253.253 0 00.254-.252V12h1v1.747a.253.253 0 00.253.253h1.5a.25.25 0 00.247-.249V6.25a.25.25 0 00-.25-.25zM10 11H9v-1h1zm2 0h-1v-1h1z"/></symbol><symbol viewBox="0 0 15 15" id="maki-volcano" xmlns="http://www.w3.org/2000/svg"><path d="M8.484 1a.502.502 0 00-.375.188L6.45 3.262 4.844 1.738c-.436-.4-1.084.155-.754.647l1.666 2.4a.5.5 0 00.803.026c.166-.21.441-.678.941-.678s.793.49.941.678a.5.5 0 00.713.072l1.668-1.4c.441-.375 0-1.074-.527-.838L9 3.227V1.5a.5.5 0 00-.516-.5zM5 6l-2.924 5.924C2 12.001 2 12.155 2 12.309c0 .538.384.691.691.691h9.618c.384 0 .691-.153.691-.691 0-.154 0-.231-.076-.385L10 6c-.5 0-1 .5-1 1v.5a.499.499 0 11-1 0V7a.5.5 0 10-1 0v2a.499.499 0 11-1 0V7c0-.5-.5-1-1-1z"/></symbol><symbol viewBox="0 0 15 15" id="maki-volleyball" xmlns="http://www.w3.org/2000/svg"><path d="M13.91 7.94a5.909 5.909 0 01-.13.94 8.822 8.822 0 00-2.17-1.49 8.89 8.89 0 00-1.4-.56 8.614 8.614 0 00-1.82-.35.221.221 0 00-.08-.01 7.32 7.32 0 01-.81-1.88c-.01-.01-.01-.01 0-.02a7.757 7.757 0 011.52.15 7.099 7.099 0 011.56.5 6.859 6.859 0 011.4.78 7.417 7.417 0 011.93 1.94zm-1.87-5a6.223 6.223 0 00-1.85-1.27 4.272 4.272 0 00-.98-.36 5.641 5.641 0 00-1.55-.23 1.288 1.288 0 00-.32 0 7.426 7.426 0 00-.13 1.42c0 .2.01.39.02.58a2.28 2.28 0 01.26-.01 2.644 2.644 0 01.28.01 8.287 8.287 0 011.49.16 8.988 8.988 0 011.35.37 8.792 8.792 0 011.53.7 10.18 10.18 0 011.39.97 6.459 6.459 0 00-1.49-2.34zM4.01 8.76a9.408 9.408 0 01-.62-1.37 9.104 9.104 0 01-.37-1.41 9.175 9.175 0 01-.16-1.67v-.03a8.455 8.455 0 01.1-1.34A6.28 6.28 0 001.47 5.3a6.222 6.222 0 00-.4 2.2c0 .15.01.3.02.44a5.909 5.909 0 00.13.94 5.734 5.734 0 00.41 1.23c.22-.05.44-.11.65-.17a8.019 8.019 0 001.9-.88c-.06-.1-.12-.2-.17-.3zm2.6-2.28a9 9 0 01-.63-1.76 9.135 9.135 0 01-.24-1.48c-.02-.25-.03-.49-.03-.74a9.378 9.378 0 01.08-1.19 4.272 4.272 0 00-.98.36 7.704 7.704 0 00-.42 1.94c-.02.22-.03.44-.03.67a7.266 7.266 0 00.06.93 7.426 7.426 0 00.37 1.63 6.47 6.47 0 00.59 1.28 8.017 8.017 0 001.27-1.57.252.252 0 01-.04-.07zm6.09 3.45s0-.01-.01 0a7.013 7.013 0 00-1.7-1.16c-.06.1-.11.19-.17.29a8.783 8.783 0 01-.88 1.22 8.912 8.912 0 01-1.06 1.07 10.418 10.418 0 01-1.38.98 8.993 8.993 0 01-2.64 1.02 6.298 6.298 0 005.28 0 5.967 5.967 0 002.42-1.89 4.826 4.826 0 00.65-1.03 6.032 6.032 0 00-.51-.5zm-5.17-2c-.01.01-.02.03-.03.04a9.26 9.26 0 01-1.25 1.4 9.592 9.592 0 01-1.19.91 9.268 9.268 0 01-2.62 1.18 6.099 6.099 0 00.53.61 7.735 7.735 0 003.15-.72 7.384 7.384 0 001.38-.82 7.643 7.643 0 001.25-1.16 7.744 7.744 0 00.82-1.15 7.341 7.341 0 00-2.04-.29z"/></symbol><symbol viewBox="0 0 15 15" id="maki-warehouse" xmlns="http://www.w3.org/2000/svg"><path d="M13.5 5a.5.5 0 01-.22-.05L7.5 2 1.72 4.93A.514.514 0 011.28 4L7.5.92 13.72 4a.512.512 0 01-.22 1zM5 10H2v3h3v-3zm4 0H6v3h3v-3zm4 0h-3v3h3v-3zm-2-4H8v3h3V6zM7 6H4v3h3V6z"/></symbol><symbol viewBox="0 0 15 15" id="maki-waste-basket" xmlns="http://www.w3.org/2000/svg"><path d="M12.41 5.58l-1.34 8a.5.5 0 01-.49.41H4.42a.5.5 0 01-.49-.41l-1.34-8A.5.5 0 013.08 5h8.83a.5.5 0 01.5.58zM13 3.5a.5.5 0 01-.5.5h-10a.5.5 0 010-1H5V1.5a.5.5 0 01.5-.5h4a.5.5 0 01.5.5V3h2.5a.5.5 0 01.5.5zM9 3V2H6v1h3z"/></symbol><symbol viewBox="0 0 15 15" id="maki-watch" xmlns="http://www.w3.org/2000/svg"><path d="M12.5 7H12a.426.426 0 00-.049.01A4.484 4.484 0 0010 3.76V1.5a.5.5 0 00-.5-.5h-4a.5.5 0 00-.5.5v2.26a4.5 4.5 0 000 7.48v2.26a.5.5 0 00.5.5h4a.5.5 0 00.5-.5v-2.26a4.486 4.486 0 001.951-3.25A.426.426 0 0012 8h.5a.5.5 0 000-1zm-5 4A3.5 3.5 0 1111 7.5 3.5 3.5 0 017.5 11zM9 7H8V5.5a.5.5 0 00-1 0v2a.5.5 0 00.5.5H9a.5.5 0 000-1z"/></symbol><symbol viewBox="0 0 15 15" id="maki-water" xmlns="http://www.w3.org/2000/svg"><path d="M7.49 15A5.84 5.84 0 012 9.5C2 6.6 6.25 1.66 7.49 0c1.24 1.66 5 6.59 5 9.49S10.17 15 7.49 15z"/></symbol><symbol viewBox="0 0 15 15" id="maki-waterfall" xmlns="http://www.w3.org/2000/svg"><path d="M12.9 3H15V1H5S1 1 1 5v5.5c-1.1.8-1.3 2.4-.5 3.5s2.4 1.3 3.5.5c1 .8 2.5.6 3.4-.4.6.6 1.5.9 2.4.9 2.1 0 3.7-1.6 3.8-3.7 0-1.6-1-3-2.5-3.5V5c-.1-1.1.7-2 1.8-2zM10 8v.5c1.5.1 2.6 1.5 2.5 3-.1 1.4-1.3 2.5-2.7 2.5-1.1.1-1.8-.6-2.1-1h-.8c-.1.2-.4 1-1.4 1s-1.3-.6-1.4-1h-.2c-.2.4-.5.8-.9.9-.9.3-1.7-.2-1.9-1-.2-.8.2-1.6.9-1.8V6c0-.5.4-1 1-1 .5 0 1 .4 1 1v4.5c0 .3.2.5.5.5s.5-.2.5-.5V7c0-.6.4-1 1-1s1 .4 1 1v3.5c0 .3.2.5.5.5s.5-.2.5-.5V6c0-.6.4-1 1-1s1 .4 1 1v2z"/></symbol><symbol viewBox="0 0 15 15" id="maki-watermill" xmlns="http://www.w3.org/2000/svg"><path d="M2 10.2L4 9l2.5 1.5 1.466-.879a3.5 3.5 0 01-.843-.567L8.536 7.64c.231.196.52.32.839.347v1.237l.25.15V7.987c.32-.026.608-.151.839-.347l1.413 1.414c-.406.378-.905.649-1.453.8l1.076.646.698-.42A4.478 4.478 0 0014 6.5 4.5 4.5 0 009.5 2a4.474 4.474 0 00-3.298 1.459L4.5 2 1 5h1v5.2zm10.054-1.323L10.64 7.464c.196-.231.32-.52.347-.839h2a3.474 3.474 0 01-.933 2.252zm.933-2.502h-2a1.484 1.484 0 00-.346-.839l1.413-1.413c.555.596.902 1.382.933 2.252zM9.625 3.013c.87.031 1.656.378 2.252.933L10.464 5.36a1.484 1.484 0 00-.839-.346v-2zm-.25 0v2c-.32.026-.608.151-.839.346L7.123 3.946a3.475 3.475 0 012.252-.933zm-2.429 1.11L8.36 5.536c-.195.231-.32.52-.346.839h-2c.031-.87.378-1.656.933-2.252zm1.067 2.502c.026.32.151.608.347.839L6.946 8.877a3.475 3.475 0 01-.933-2.252h2zM9.002 10L6.5 11.5 4 10l-2.5 1.5V13L4 11.5 6.5 13l2.502-1.5L11.5 13l2.5-1.5V10l-2.5 1.5L9.002 10z"/></symbol><symbol viewBox="0 0 15 15" id="maki-wetland" xmlns="http://www.w3.org/2000/svg"><path d="M1.48 4.5A2.18 2.18 0 013 4a2.36 2.36 0 012.5 2l.78 4.68a2.3 2.3 0 00-2 .05L3.48 6a2.21 2.21 0 00-2-1.5zm6 6.74a3.41 3.41 0 011.3-.65L10 3a2.21 2.21 0 012-1.5 2.18 2.18 0 00-1.5-.5A2.36 2.36 0 008 3l-1.3 7.79c.279.115.54.267.78.45zm4.32-.5c.157-.128.324-.241.5-.34L13 6a2.21 2.21 0 012-1.5 2.18 2.18 0 00-1.5-.5A2.36 2.36 0 0011 6l-.67 4a3.41 3.41 0 011.47.74zM14 12a1.78 1.78 0 00-1.19.42l-.47.41a.75.75 0 01-1 0c-.15-.12-.29-.26-.44-.39a1.9 1.9 0 00-2.45 0c-.16.13-.31.28-.47.41a.75.75 0 01-1 0c-.16-.13-.31-.28-.47-.41a1.9 1.9 0 00-2.44 0c-.15.13-.29.27-.44.39a.92.92 0 01-.3.16.84.84 0 01-.8-.25 6.167 6.167 0 00-.79-.58 1.23 1.23 0 00-.68-.16H1a.5.5 0 000 1 .93.93 0 01.64.31l.36.26a1.9 1.9 0 002.33.06c.19-.14.36-.32.55-.47a.75.75 0 011 0l.39.35a1.91 1.91 0 002.46.07c.15-.11.27-.25.42-.37a.77.77 0 011.089-.011l.011.011.39.35a1.89 1.89 0 001.76.37 2.14 2.14 0 001-.6A1 1 0 0114 13a.5.5 0 000-1z"/></symbol><symbol viewBox="0 0 15 15" id="maki-wheelchair" xmlns="http://www.w3.org/2000/svg"><path d="M12 1.5a1.5 1.5 0 11-3 0 1.5 1.5 0 013 0zM2.82 4.87l1.74-1.71 1.85 1.29-.74 1.25a5.49 5.49 0 012.71 1.88l.88-1.5a.86.86 0 00-.34-1.17l-.62-.37L4.79 2.1a.5.5 0 00-.64.05l-2 2a.5.5 0 00.67.72zm5.31 6.07a4.11 4.11 0 01-1.54 3.16 4 4 0 01-2.52.9A4.07 4.07 0 010 10.94a4 4 0 01.91-2.53c.187-.232.398-.443.63-.63a4 4 0 012.53-.91 4.07 4.07 0 014.06 4.07zM6 12.21A2.29 2.29 0 002.79 9a1.72 1.72 0 00-.63.63 2.29 2.29 0 003.17 3.17c.25-.164.476-.362.67-.59zm8.2 1l-2.49-5a.75.75 0 00-.71-.46H8.51c.33.458.586.964.76 1.5h1.26l2.29 4.58a.754.754 0 101.35-.67l.03.05z"/></symbol><symbol viewBox="0 0 15 15" id="maki-windmill" xmlns="http://www.w3.org/2000/svg"><path d="M6 5L3.5 7.5l1 1L7 6v-.5l.5-.5.5.5V6l2.5 2.5 1-1L9 5h-.5L8 4.5l.5-.5H9l2.5-2.5-1-1L8 3v.5l-.5.5-.5-.5V3L4.5.5l-1 1L6 4h.5l.5.5-.5.5H6zm5.5 8h-1l-1-4-2-2-2 2-1 4h-1a.5.5 0 100 1h8a.5.5 0 000-1zM8 13H7v-1.502c0-.275.223-.498.498-.498.277 0 .502.225.502.502V13z"/></symbol><symbol viewBox="0 0 15 15" id="maki-zoo" xmlns="http://www.w3.org/2000/svg"><path d="M8.388 3.893S7.682 5 7 5H4.5c-.682 0-1.298.409-1.773.864L.5 8c-.269.258-.493.768-.5 1-.016.5 0 1 0 1s1 0 1-1v-.5l1-1h.5l.158.29s-.954 1.824-.954 3.528c0 .682.682.682.682.682h.682s.341 0 0-.34l-.34-.342C2.727 10.636 3.5 9.667 4 9c0 0 .017 1.158 0 2-.008.41.272 1 .682 1h.682s.34 0 0-.34l-.341-.342C4.71 10.75 5.5 8.5 5.5 8.5c1.272 0 1.5.5 3 .5l.364 2.318c.111.71.636.682.636.682H11c.34 0 .961-.311.34-.774L11 11V9c1.214-.172 2-1 2-2h1c.321 0 1 0 1-.5v-1l-1.704-1.682C12.543 3.078 12 2.5 11 2.5c-1.453 0-2.136.569-2.612 1.393z"/></symbol></svg>