<?xml version="1.0" encoding="utf-8"?><svg xmlns="http://www.w3.org/2000/svg" xmlns:xlink="http://www.w3.org/1999/xlink"><symbol viewBox="0 0 24 24" id="construction--barrier--temporary" xmlns="http://www.w3.org/2000/svg"><path d="M20.275 7.185a1.961 1.961 0 00-.423-.298c.01-.063.039-.122.039-.186V5.455c0-.355-.149-.7-.408-.946a1.33 1.33 0 00-.921-.366H17.25c-.345 0-.672.13-.921.366-.259.246-.407.59-.407.945v1.182H8.407V5.455c0-.355-.149-.7-.408-.946a1.33 1.33 0 00-.921-.366H5.766c-.345 0-.672.13-.921.366a1.31 1.31 0 00-.407.946v1.247c0 .018.01.034.011.052a1.923 1.923 0 00-1.324 1.817v3.117a1.923 1.923 0 001.324 1.818c-.001.018-.011.034-.011.052v4.987c0 .355.149.7.407.945.248.236.576.366.921.366h1.312c.345 0 .672-.13.921-.366.259-.246.407-.59.407-.945v-4.922h7.516v4.922c0 .355.149.7.407.945.248.236.576.366.921.366h1.312c.345 0 .672-.13.921-.366.259-.246.407-.59.407-.945v-4.987c0-.064-.029-.123-.039-.186.151-.082.296-.177.423-.298.381-.362.6-.867.6-1.386V8.571a1.918 1.918 0 00-.599-1.386z"/><path fill-rule="evenodd" fill="#F35700" d="M17.25 13.247h1.312a.34.34 0 01.232.091.302.302 0 01.096.22v4.987a.304.304 0 01-.096.22.34.34 0 01-.232.091H17.25a.34.34 0 01-.232-.091.302.302 0 01-.096-.22v-4.987c0-.083.035-.162.096-.22a.34.34 0 01.232-.091zM5.766 13.247h1.313a.34.34 0 01.232.091.302.302 0 01.096.22v4.987a.304.304 0 01-.096.22.34.34 0 01-.232.091H5.766a.34.34 0 01-.232-.091.302.302 0 01-.096-.22v-4.987c0-.083.035-.162.096-.22a.338.338 0 01.232-.091zM7.078 7.013H5.766a.34.34 0 01-.232-.091.302.302 0 01-.096-.22V5.455c0-.083.035-.162.096-.22a.34.34 0 01.232-.091h1.313a.34.34 0 01.232.091.302.302 0 01.096.22v1.247a.304.304 0 01-.096.22.342.342 0 01-.233.091zM18.563 7.013H17.25a.34.34 0 01-.232-.091.302.302 0 01-.096-.22V5.455c0-.083.035-.162.096-.22a.34.34 0 01.232-.091h1.312a.34.34 0 01.232.091.302.302 0 01.096.22v1.247a.304.304 0 01-.096.22.335.335 0 01-.231.091zM5.109 7.636H18.89c.261 0 .511.099.696.274a.91.91 0 01.288.661v3.117a.913.913 0 01-.288.661 1.014 1.014 0 01-.696.274H5.109c-.261 0-.511-.099-.696-.274a.91.91 0 01-.288-.661V8.571c0-.248.104-.486.288-.661.185-.175.435-.274.696-.274z"/><path fill-rule="evenodd" d="M5.438 11.065c0 .083.035.162.096.22s.145.091.232.091h1.719a.251.251 0 00.209-.111.22.22 0 00.01-.227l-.986-1.876a.517.517 0 00-.196-.203.553.553 0 00-.279-.075h-.477a.34.34 0 00-.232.091.302.302 0 00-.096.22v1.87zM8.419 9.222l.988 1.876a.51.51 0 00.196.203c.084.049.18.075.279.075h1.541a.251.251 0 00.209-.111.22.22 0 00.01-.227l-.988-1.876a.51.51 0 00-.196-.203.553.553 0 00-.279-.075h-1.54a.251.251 0 00-.209.11.228.228 0 00-.011.228zM12.357 9.222l.988 1.876a.51.51 0 00.196.203c.084.049.18.075.279.075h1.541a.251.251 0 00.209-.111.22.22 0 00.01-.227l-.988-1.876a.51.51 0 00-.196-.203.553.553 0 00-.279-.075h-1.541a.251.251 0 00-.208.11.218.218 0 00-.036.112c-.003.04.006.08.025.116zM16.295 9.222l.988 1.876a.51.51 0 00.196.203c.084.049.18.075.279.075h.477c.087 0 .17-.033.232-.091s.096-.138.096-.22v-1.87a.304.304 0 00-.096-.22.34.34 0 00-.232-.091h-1.719a.251.251 0 00-.21.111.218.218 0 00-.036.112.213.213 0 00.025.115z"/></symbol><symbol viewBox="0 0 24 24" id="construction--flat--crosswalk-plain" xmlns="http://www.w3.org/2000/svg"><path d="M11.064 6.285c-.33 0-.668.036-1.004.108-.093.019-.426.074-.849.144-.799.133-1.893.314-2.415.426-1.368.302-2.141 1.207-2.13 2.482v2.337c-.025.857.586 1.489 1.519 1.545.046.003.091.004.135.004.345 0 .652-.087.902-.245a8.392 8.392 0 00-.247 1.048l-.327 1.944-.589.687c-.558.652-1.266 1.479-1.355 1.578a1.691 1.691 0 00-.451 1.154c-.008.614.248 1.01.464 1.231.334.342.8.518 1.386.524l.066.001c.497 0 .952-.169 1.316-.489.089-.081.412-.403.794-.783a95.32 95.32 0 011.366-1.346 5.112 5.112 0 001.04-1.335l.464-.862 1.348.922.41 2.738c.178.959.888 1.534 1.86 1.534.069 0 .142-.003.216-.009 1.104-.085 1.801-.807 1.777-1.84a.87.87 0 00-.002-.051l-.25-3.364c-.044-.794-.415-1.516-1.071-2.07l-1.932-1.622.161-.319c.523.393 1.173.603 1.902.605h2.469c.912-.019 1.542-.572 1.628-1.409.087-.853-.452-1.53-1.343-1.686l-2.249-.36a98.525 98.525 0 00-.729-1.184 3.178 3.178 0 00-1.429-1.205l-1.003-.441a4.592 4.592 0 00-1.848-.392z"/><path d="M8.136 10.456l.334-.017-.462.842.128-.825zM13.643 2.376c-.001 0-.001 0 0 0-.745 0-1.417.278-1.943.804a2.69 2.69 0 00-.806 1.942 2.693 2.693 0 00.803 1.944 2.696 2.696 0 001.942.807c.747 0 1.419-.278 1.945-.804a2.7 2.7 0 00.807-1.944c0-.745-.278-1.417-.805-1.944a2.698 2.698 0 00-1.943-.805z"/><path fill-rule="evenodd" fill="#FFC01B" d="M18.036 11.964H15.57c-.659-.002-1.191-.226-1.595-.674a5.276 5.276 0 01-.479-.583.073.073 0 00-.066-.024.068.068 0 00-.057.038l-1.097 2.171c-.014.027-.008.052.016.072l2.5 2.099c.449.379.689.839.719 1.38l.25 3.364c.012.502-.273.775-.854.82-.581.045-.918-.181-1.01-.676l-.459-3.065a.244.244 0 00-.11-.169l-2.459-1.682c-.018-.013-.039-.016-.062-.012s-.039.016-.049.035l-.953 1.769a4.13 4.13 0 01-.838 1.074c-.343.316-1.976 1.96-2.141 2.113a.972.972 0 01-.712.239c-.58-.006-.866-.258-.86-.756 0-.179.064-.339.192-.481.124-.136 2.02-2.356 2.068-2.409a.356.356 0 00.091-.184l.357-2.122a7.453 7.453 0 01.828-2.366l1.366-2.489c.013-.022.011-.044-.006-.064a.073.073 0 00-.068-.027c-.057.005-2.544.13-2.643.139-.113.01-.177.065-.191.162l-.341 2.201c-.045.339-.266.496-.661.473-.396-.024-.589-.206-.579-.547V9.437c-.008-.799.438-1.297 1.337-1.496.785-.167 3.011-.516 3.264-.57a3.57 3.57 0 012.241.224l1.001.44c.429.189.759.466.99.829.229.357.852 1.389.895 1.455a.28.28 0 00.202.127l2.552.408c.381.066.554.266.52.599-.034.332-.245.503-.633.511zM13.639 6.873a1.69 1.69 0 01-1.236-.513c-.341-.342-.511-.754-.511-1.237s.171-.895.513-1.236a1.683 1.683 0 011.236-.511c.483 0 .895.171 1.236.512.341.341.512.753.512 1.236s-.171.895-.513 1.237a1.677 1.677 0 01-1.237.512z"/></symbol><symbol viewBox="0 0 24 24" id="construction--flat--driveway" xmlns="http://www.w3.org/2000/svg"><path d="M8.169 9.386h7.885v6.223H8.169z"/><path fill="#FFF" d="M13.126 15.054h-2.029v-3.387a.65.65 0 01.65-.65h.728a.65.65 0 01.65.65v3.387z"/><path d="M20.179 7.654l-1.637-1.638V1.888c0-.715-.444-1.159-1.159-1.159h-1.317c-.314 0-.598.117-.819.339-.223.223-.34.506-.34.82v.49L12.932.402a1.175 1.175 0 00-1.639 0L4.045 7.654c-.352.354-.442.802-.251 1.264.188.454.579.715 1.071.715h.815v5.436c0 .012.005.021.005.033-.01.024-.026.047-.026.073v8.486c0 .18.262.326.585.326h11.698c.323 0 .585-.146.585-.326v-8.486l-.001-.003c.002-.036.017-.064.017-.102V9.633h.817c.492 0 .883-.261 1.071-.715.191-.462.101-.91-.252-1.264z"/><path fill="#FFF" d="M13.259 14.847h-2.295v-3.733c0-.049.012-.077.046-.112s.062-.046.113-.046H13.1c.111 0 .139.017.139.016a.337.337 0 01.021.143v3.732zM11.098 16.191h2.029v2.687h-2.029zM11.098 20.221h2.029v2.687h-2.029z"/><path fill-rule="evenodd" fill="#FFC01B" d="M19.495 8.547c.035-.084.03-.108-.035-.174l-7.247-7.251c-.07-.07-.155-.069-.224-.001L4.741 8.373c-.064.064-.069.09-.034.175.034.083.055.097.146.097h1.815v6.436c0 .097.017.137.021.144.001.002.035.016.138.016h2.965c.097 0 .136-.018.144-.021-.001-.002.016-.042.016-.139v-3.954c0-.313.117-.597.339-.818.222-.223.506-.34.82-.34h1.977c.715 0 1.159.443 1.159 1.158v3.954c0 .097.018.137.021.144h.001c.005 0 .044.016.138.016h2.965c.097 0 .137-.018.144-.021-.002-.002.016-.042.016-.139V8.644h1.817c.09 0 .111-.013.146-.097zM17.53 4.098V1.9c0-.097-.018-.137-.021-.144h-.001c-.005 0-.044-.016-.138-.016h-1.317a.137.137 0 00-.112.046.142.142 0 00-.047.114v.495c0 .05.012.078.046.112l1.59 1.591z"/></symbol><symbol fill="none" viewBox="0 0 24 24" id="construction--flat--flat-driveway" xmlns="http://www.w3.org/2000/svg"><mask id="ada" fill="#fff"><path d="M8.097 6.816A1 1 0 019.08 6h5.84a1 1 0 01.983.816l1.875 10A1 1 0 0116.795 18h-9.59a1 1 0 01-.983-1.184l1.875-10z"/></mask><path d="M8.097 6.816A1 1 0 019.08 6h5.84a1 1 0 01.983.816l1.875 10A1 1 0 0116.795 18h-9.59a1 1 0 01-.983-1.184l1.875-10z" fill="#FFC01B" stroke="#000" stroke-width="2" mask="url(#ada)"/><path d="M13 18h-2l.5-12h1l.5 12z" fill="#212B36"/><path fill="#FFC01B" d="M11 11h2v1h-2zM11 13h2v1h-2zM11 9h2v1h-2zM11 15h2v1h-2zM11 7h2v1h-2z"/></symbol><symbol viewBox="0 0 24 24" id="marking--discrete--arrow--left" xmlns="http://www.w3.org/2000/svg"><path d="M12.155 2.234h-.005a.99.99 0 00-.503.136L4.166 4.914a.998.998 0 00-.428 1.608l.546.619a590.645 590.645 0 004.743 5.341.999.999 0 001.737-.565c.054-.512.043-1.022.033-1.515l-.003-.566c.077.012.136.023.167.034 2.418.814 4.179 2.362 5.24 4.604.731 1.547.794 3.222.76 4.655a42.5 42.5 0 00-.006 1.341 1 1 0 001 .992h.644c.643 0 1.274 0 1.902-.012a1 1 0 00.981-.998l.002-.521c.004-.747.008-1.594-.029-2.436-.106-2.416-.823-4.63-2.13-6.578C17.539 8.254 15.109 6.48 11.9 5.5l.28-.445c.247-.398.478-.769.72-1.135l.068-.107a.999.999 0 00-.813-1.579z"/><path fill="#FFC01B" d="M18.495 11.475c-1.68-2.504-3.979-4.16-7.03-5.062l-1.114-.329.981-1.561c.249-.401.485-.78.732-1.154l.086-.135a.753.753 0 01-.175.08L4.488 5.861l.546.619a597.38 597.38 0 004.736 5.333c.049-.464.037-.944.026-1.434l-.008-1.731 1.056.187c.193.027.324.05.445.092 2.678.902 4.634 2.625 5.816 5.121.82 1.736.893 3.556.856 5.107-.011.429-.009.86-.005 1.309h.004c.86-.002 1.695.003 2.524-.012.002-.882.019-1.898-.026-2.91-.099-2.233-.759-4.274-1.963-6.067z"/></symbol><symbol viewBox="0 0 24 24" id="marking--discrete--arrow--right" xmlns="http://www.w3.org/2000/svg"><path d="M12.338 2.385a1 1 0 00-.844 1.537l.025.039.065.103c.247.373.478.744.721 1.137l.283.45c-3.209.98-5.64 2.754-7.426 5.418-1.307 1.948-2.024 4.162-2.13 6.579-.038.841-.033 1.687-.029 2.434l.002.521a1 1 0 00.981.998c.628.012 1.259.012 1.902.012h.64c.549 0 .999-.443 1.003-.992.004-.46.005-.902-.006-1.341-.034-1.433.03-3.107.761-4.655 1.061-2.24 2.821-3.788 5.231-4.6.038-.013.104-.025.176-.037l-.003.537c-.011.522-.022 1.032.032 1.544a1.002 1.002 0 001.737.565c1.644-1.821 3.291-3.692 4.744-5.342l.546-.619a1 1 0 00-.428-1.609L12.84 2.519a1.01 1.01 0 00-.502-.134z"/><path fill="#FFC01B" d="M5.993 11.627c1.68-2.504 3.979-4.16 7.03-5.062l1.114-.329-.981-1.561c-.249-.401-.485-.78-.732-1.154l-.086-.135c.06.04.135.067.175.08L20 6.013l-.546.619a597.38 597.38 0 01-4.736 5.333c-.049-.464-.037-.944-.026-1.434l.008-1.732-1.056.187c-.193.027-.324.05-.445.092-2.678.902-4.634 2.625-5.816 5.121-.82 1.736-.893 3.556-.856 5.107.011.429.009.86.005 1.309h-.004c-.86-.002-1.695.003-2.524-.012-.002-.882-.019-1.898.026-2.91.099-2.232.759-4.273 1.963-6.066z"/></symbol><symbol viewBox="0 0 24 24" id="marking--discrete--arrow--split-left-or-straight" xmlns="http://www.w3.org/2000/svg"><path d="M17.194 2a1 1 0 00-.867.502L12.74 8.755a.998.998 0 001.2 1.44c.255-.09.514-.189.778-.29l.204-.077v6.428a11.45 11.45 0 00-4.433-2.158l.253-1.183a1.002 1.002 0 00-1.286-1.16l-6.536 2.12a1 1 0 00-.365 1.69l5.089 4.637a1.002 1.002 0 00.979.213 1 1 0 00.672-.743l.21-.98c1.616.42 3.039 1.433 4.029 2.874a1 1 0 00.825.434h4.109a1 1 0 001-1V9.808l.263.101c.231.091.468.183.7.267a1 1 0 001.209-1.438l-3.577-6.236c-.18-.31-.51-.502-.869-.502z"/><path fill="#FFC01B" d="M17.194 3l-3.586 6.253c.246-.087.497-.183.751-.28l.484-.184a.794.794 0 01.735.095.81.81 0 01.343.661v9.071c-1.494-1.776-3.537-3.087-5.908-3.6a.734.734 0 01-.558-.871l.307-1.438-6.534 2.119 5.089 4.637.268-1.25a.734.734 0 01.864-.562c2.054.445 3.771 1.691 4.91 3.349h4.109V9.523c0-.264.128-.511.344-.662a.798.798 0 01.735-.094l.543.209c.23.09.458.179.682.261L17.194 3z"/></symbol><symbol viewBox="0 0 24 24" id="marking--discrete--arrow--split-right-or-straight" xmlns="http://www.w3.org/2000/svg"><path d="M6.806 2c-.359 0-.689.192-.868.502L2.361 8.739a1 1 0 001.209 1.438c.231-.085.468-.177.707-.271l.256-.098V21a1 1 0 001 1h4.109a.998.998 0 00.824-.434c.99-1.441 2.413-2.454 4.029-2.874l.21.98a1.001 1.001 0 001.651.53l5.089-4.637a1.001 1.001 0 00-.365-1.69l-6.534-2.119a1.001 1.001 0 00-1.286 1.16l.253 1.183a11.423 11.423 0 00-4.433 2.158V9.828l.206.078c.261.1.52.199.775.289a1.004 1.004 0 001.101-.303 1 1 0 00.099-1.137L7.673 2.502A1 1 0 006.806 2z"/><path fill="#FFC01B" d="M6.824 3.009l3.586 6.253c-.246-.087-.497-.183-.751-.28l-.484-.185a.805.805 0 00-1.078.757v9.071c1.494-1.776 3.537-3.087 5.908-3.6a.734.734 0 00.558-.871l-.307-1.438 6.534 2.119-5.089 4.637-.268-1.25a.734.734 0 00-.864-.562c-2.054.445-3.771 1.691-4.91 3.349H5.551V9.532a.807.807 0 00-.344-.662.798.798 0 00-.735-.094l-.543.209c-.23.09-.458.179-.682.261l3.577-6.237z"/></symbol><symbol viewBox="0 0 24 24" id="marking--discrete--arrow--straight" xmlns="http://www.w3.org/2000/svg"><path d="M12.005 2.272a1 1 0 00-.871.509l-3.596 6.38a1 1 0 001.209 1.432c.246-.088.496-.185.75-.284l.232-.09v10.509a1 1 0 001 1h2.553a1 1 0 001-1v-10.53l.262.103c.232.093.469.187.702.273a1 1 0 001.218-1.429l-3.587-6.363a1 1 0 00-.872-.51z"/><path fill="#FFC01B" d="M13.281 20.728v-10.8c0-.269.129-.521.345-.675a.788.788 0 01.737-.096l.544.213c.231.092.46.183.684.266l-3.587-6.363-3.596 6.38a27 27 0 00.754-.286l.485-.188a.784.784 0 01.737.097.828.828 0 01.343.675v10.778h2.554z"/></symbol><symbol viewBox="0 0 24 24" id="marking--discrete--crosswalk-zebra" xmlns="http://www.w3.org/2000/svg"><path d="M17.5 18.5h-1.326a1.68 1.68 0 00.157-.741l-.188-2.953a2.777 2.777 0 00-.834-1.845l-1.299-1.268.076.039c.34.167.721.256 1.1.257h1.841a1.485 1.485 0 00.284-2.941l-1.545-.288c-.162-.309-.389-.742-.499-.94a2.784 2.784 0 00-.335-.482c.232-.12.444-.275.631-.462.24-.239.427-.519.557-.832a2.552 2.552 0 00-.236-2.406A2.552 2.552 0 0013.752 2.5a2.553 2.553 0 00-1.812.75 2.556 2.556 0 00-.587 2.722c-.12.016-.239.039-.356.068-.073.017-.313.063-.615.121-.599.116-1.42.274-1.818.373a2.34 2.34 0 00-1.273.836c-.316.41-.487.92-.483 1.437v2.025c-.007.359.13.719.385.997s.602.445.978.471l.034.002.067.001c.126 0 .25-.016.37-.048a8.424 8.424 0 00-.113.615l-.242 1.672-.421.571c-.413.561-.939 1.276-1.011 1.368-.23.295-.356.662-.355 1.034-.004.355.116.698.33.985H5.5v3h13v-3h-1zm-6 0H9.53l.451-.52a80.6 80.6 0 011.018-1.167c.328-.353.598-.753.8-1.191l.204-.441.644.512.302 2.343c.026.166.079.319.144.464H11.5z"/><path fill="#FFC01B" d="M9.5 19.5h2v1h-2zM6.5 19.5h2v1h-2zM12.5 19.5h2v1h-2zM15.5 19.5h2v1h-2zM12.881 6.363a1.561 1.561 0 001.976-.194 1.565 1.565 0 00.196-1.975 1.563 1.563 0 00-2.407-.238 1.569 1.569 0 00-.341 1.703c.119.288.319.532.576.704zM14.609 13.674l-1.863-1.818a.053.053 0 01-.012-.062l.818-1.881a.052.052 0 01.017-.022.06.06 0 01.026-.011.055.055 0 01.05.021c.107.176.227.345.357.505a1.513 1.513 0 001.189.584h1.838a.485.485 0 00.377-.776.478.478 0 00-.292-.185l-1.904-.355a.217.217 0 01-.151-.11c-.032-.058-.496-.951-.667-1.261a1.756 1.756 0 00-.738-.718l-.746-.381a2.398 2.398 0 00-1.67-.194c-.189.047-1.848.349-2.433.493A1.331 1.331 0 007.808 8.8v2.033a.463.463 0 00.924.063l.254-1.906a.162.162 0 01.143-.141c.074-.008 1.928-.116 1.97-.12.01-.001.02.001.029.005a.057.057 0 01.032.046.052.052 0 01-.005.028l-1.018 2.156a7.247 7.247 0 00-.617 2.05l-.266 1.838a.333.333 0 01-.068.159c-.036.046-1.449 1.968-1.541 2.086a.672.672 0 00.04.878c.12.123.284.193.456.195a.701.701 0 00.53-.207c.123-.132 1.341-1.556 1.596-1.83.256-.275.467-.589.625-.93l.71-1.532a.04.04 0 01.015-.019.057.057 0 01.022-.011.049.049 0 01.024 0 .055.055 0 01.022.01l1.833 1.458a.223.223 0 01.082.146l.342 2.655a.697.697 0 00.753.589.696.696 0 00.636-.713l-.187-2.914a1.797 1.797 0 00-.535-1.198z"/><circle fill="#FFC01B" cx="13.765" cy="5.059" r="1.569"/></symbol><symbol viewBox="0 0 24 24" id="marking--discrete--give-way-row" xmlns="http://www.w3.org/2000/svg"><path d="M20.921 6.103h-10.23a.999.999 0 00-.899 1.438l5.112 10.515a1 1 0 001.798 0l5.086-10.461a.996.996 0 00.129-.491.997.997 0 00-.996-1.001z"/><path fill="#FFC01B" d="M20.917 7.103H10.693l5.112 10.516z"/><path d="M13.145 6.103H2.916a.999.999 0 00-.899 1.438l5.112 10.515a1 1 0 001.798 0l5.086-10.461a.997.997 0 00-.868-1.492z"/><path fill="#FFC01B" d="M13.142 7.103H2.917l5.112 10.516z"/></symbol><symbol viewBox="0 0 24 24" id="marking--discrete--give-way-single" xmlns="http://www.w3.org/2000/svg"><path d="M17.472 5.617H6.467a1 1 0 00-.89 1.455l5.5 10.774a1 1 0 001.782 0l5.473-10.722a1 1 0 00-.86-1.507z"/><path fill="#FFC01B" d="M17.469 6.617h-11l5.5 10.775z"/></symbol><symbol viewBox="0 0 24 24" id="marking--discrete--other-marking" xmlns="http://www.w3.org/2000/svg"><path d="M17.554 5.655a4.677 4.677 0 00-1.389-1.586 5.616 5.616 0 00-1.967-.879 9.286 9.286 0 00-2.205-.257 6.717 6.717 0 00-3.109.735 8.114 8.114 0 00-2.394 1.86 1 1 0 00.076 1.399l2.256 2.064a1 1 0 001.309.035c.309-.253.609-.465.891-.629.172-.101.401-.152.684-.152.167 0 .306.033.434.104.003.02.007.05.007.095 0 .012 0 .039-.051.104a4.945 4.945 0 01-.545.571c-.263.239-.542.49-.836.753-.344.305-.66.654-.934 1.033a4.787 4.787 0 00-.685 1.382c-.173.549-.209 1.167-.105 1.831a.986.986 0 00.762.804 3.595 3.595 0 00-.5.404c-.692.681-1.043 1.555-1.043 2.596 0 1.036.347 1.915 1.032 2.61.689.7 1.567 1.054 2.609 1.054s1.919-.355 2.608-1.054c.684-.695 1.031-1.573 1.031-2.61 0-1.042-.351-1.915-1.043-2.596a3.594 3.594 0 00-.537-.434.983.983 0 00.413-.262 1 1 0 00.249-.777c-.027-.242-.003-.436.073-.591a2.45 2.45 0 01.455-.642c.238-.245.501-.486.781-.716.345-.282.677-.6.986-.945.33-.368.612-.788.838-1.248.251-.512.378-1.116.378-1.796-.003-.85-.18-1.611-.529-2.26z"/><path fill="#FFC01B" d="M9.977 13.974c-.08-.512-.057-.972.072-1.38.127-.408.308-.771.539-1.092.232-.32.496-.612.793-.876l.84-.757c.264-.239.483-.472.66-.695.176-.225.264-.464.264-.721 0-.432-.148-.739-.444-.924a1.847 1.847 0 00-.996-.275c-.464 0-.86.096-1.188.288a7.946 7.946 0 00-1.021.72L7.241 6.198a7.1 7.1 0 012.101-1.632 5.703 5.703 0 012.651-.624c.688 0 1.344.076 1.968.229s1.164.392 1.62.72c.456.328.82.744 1.093 1.248.271.504.407 1.101.407 1.788 0 .527-.092.98-.275 1.355a4.473 4.473 0 01-.685 1.021 7.803 7.803 0 01-.876.84c-.312.256-.6.521-.863.792-.265.272-.477.572-.637.9s-.216.708-.168 1.14h-3.6zM9.25 17.934c0-.768.248-1.396.744-1.884s1.128-.732 1.896-.732 1.399.244 1.896.732.744 1.116.744 1.884-.248 1.404-.744 1.908-1.128.756-1.896.756c-.769 0-1.4-.252-1.896-.756s-.744-1.14-.744-1.908z"/></symbol><symbol viewBox="0 0 24 24" id="marking--discrete--stop-line" xmlns="http://www.w3.org/2000/svg"><path d="M20.073 10.732l-.033-.044-.038-.04a2.311 2.311 0 00-1.863-.735c-1.046.016-1.986.764-2.824 1.772V5.237c.013-.704-.349-1.323-.993-1.68a1.989 1.989 0 00-.972-.261 1.96 1.96 0 00-.84.193 1.89 1.89 0 00-.891-1.029 1.992 1.992 0 00-.971-.26c-.333 0-.659.087-.971.26-.433.24-.738.599-.888 1.028a1.952 1.952 0 00-.842-.194c-.334 0-.661.088-.974.261-.644.359-1.005.979-.991 1.702v.708a1.75 1.75 0 00-.544-.088c-.298 0-.589.077-.866.229a1.683 1.683 0 00-.906 1.511v8.057c0 1.694.637 3.158 1.894 4.35 1.242 1.178 2.759 1.776 4.509 1.776 3.727 0 6.319-1.845 7.493-5.336.574-1.705 1.82-3.323 2.352-4.014l.162-.212a1.22 1.22 0 00-.003-1.506z"/><path fill-rule="evenodd" fill="#FFC01B" d="M18.173 10.913c.44-.029.808.112 1.103.423.076.101.076.202 0 .302-.391.522-1.963 2.432-2.662 4.507-1.139 3.385-3.536 4.655-6.545 4.655-1.492 0-2.765-.501-3.82-1.501s-1.582-2.209-1.582-3.625V7.617c0-.282.129-.493.386-.634a.757.757 0 01.772 0c.257.141.385.352.385.634v4.395c0 .244.129.366.386.366s.386-.122.386-.366V5.237c-.007-.358.152-.627.477-.807.325-.181.65-.181.975 0s.484.45.477.807v6.409c0 .244.129.366.386.366a.383.383 0 00.273-.107.345.345 0 00.113-.259V4.138c-.005-.356.154-.624.478-.804a.944.944 0 01.973 0c.324.18.484.447.478.804v7.507c0 .101.038.187.113.259a.383.383 0 00.273.107c.257 0 .386-.122.386-.366V5.237c-.006-.357.153-.625.478-.806a.946.946 0 01.974 0c.325.18.484.449.478.806v8.808c-.001.123.061.201.186.234s.22-.003.287-.109c.919-1.468 2.191-3.257 3.386-3.257z"/></symbol><symbol viewBox="0 0 24 24" id="marking--discrete--symbol--bicycle" xmlns="http://www.w3.org/2000/svg"><path d="M13.422 4.532H10.58a1.362 1.362 0 00-1.143.621 1.349 1.349 0 00-.21.656c-.001.03-.002.06-.001.09a2.256 2.256 0 00-.144-.005H5.976a1.356 1.356 0 00-1.143.622 1.335 1.335 0 00-.061 1.332l.158.305c.174.335.439.615.767.811.271.161.575.258.889.286l.201.322-.374.538a4.999 4.999 0 00-2.152-.025 4.895 4.895 0 00-2.573 1.419 4.657 4.657 0 00-1.262 2.624c-.13.989.059 1.976.547 2.853a4.798 4.798 0 002.137 2.001 5.05 5.05 0 002.917.438 4.932 4.932 0 002.651-1.274 4.713 4.713 0 001.181-1.736h2.15a1.704 1.704 0 001.41-.733l.431-.623c.032.465.136.925.31 1.368a4.745 4.745 0 001.806 2.224 4.972 4.972 0 002.762.829c.713 0 1.424-.152 2.064-.439a4.92 4.92 0 001.684-1.247 4.644 4.644 0 001.073-3.908 4.694 4.694 0 00-.831-1.907 4.88 4.88 0 00-1.577-1.376 5.03 5.03 0 00-3.31-.531L14.88 5.334a1.702 1.702 0 00-.629-.592 1.745 1.745 0 00-.829-.21z"/><path d="M11.228 7.938v-.049c.047.003.095.005.143.005h1.096l.027.044h-1.266z"/><path fill-rule="evenodd" fill="#FFC01B" d="M22.563 14.064a3.66 3.66 0 00-.654-1.499 3.836 3.836 0 00-1.252-1.091 4.013 4.013 0 00-3.288-.252l-3.341-5.36a.698.698 0 00-.258-.242.73.73 0 00-.349-.088H10.58a.365.365 0 00-.301.161.332.332 0 00-.016.332l.158.305c.088.17.224.313.391.412.168.1.361.153.558.153h1.65l1.274 2.044H9.221l-.424-.682h1.077c.06 0 .12-.015.172-.043a.343.343 0 00.182-.283.328.328 0 00-.037-.168l-.158-.305a1.04 1.04 0 00-.391-.412 1.091 1.091 0 00-.558-.153H5.976c-.06 0-.12.015-.172.043a.363.363 0 00-.129.12.332.332 0 00-.016.331l.158.305c.088.17.224.313.391.412.168.1.361.153.558.153h.379L7.983 9.6l-1.168 1.686a4.03 4.03 0 00-2.353-.221 3.93 3.93 0 00-2.052 1.13 3.633 3.633 0 00-.566 4.301 3.833 3.833 0 001.695 1.586 4.028 4.028 0 002.336.35 3.95 3.95 0 002.115-1.015 3.704 3.704 0 001.115-2.006h2.899a.729.729 0 00.334-.081.695.695 0 00.255-.223l2.919-4.213.643 1.032a3.725 3.725 0 00-1.204 1.905 3.61 3.61 0 00.136 2.226 3.77 3.77 0 001.428 1.756 3.994 3.994 0 002.213.662c.57 0 1.133-.12 1.649-.352.516-.232.973-.57 1.339-.991s.631-.913.777-1.444c.149-.53.172-1.084.07-1.624z"/><path fill-rule="evenodd" d="M6.929 16.508a2.518 2.518 0 01-1.217.568 2.568 2.568 0 01-1.345-.131 2.462 2.462 0 01-1.073-.792 2.31 2.31 0 01-.227-2.494 2.43 2.43 0 01.914-.96 2.56 2.56 0 012.029-.249l-1.318 1.9a.665.665 0 00.225.962c.11.063.236.097.364.097h2.373a2.376 2.376 0 01-.725 1.099z"/><path fill-rule="evenodd" d="M6.604 14.047l.583-.841c.213.247.372.533.468.841H6.604zM9.107 14.047a3.702 3.702 0 00-1.115-2.003l.797-1.151 1.967 3.154H9.107zM12.038 13.455L10.071 10.3h4.152zM20.937 15.808a2.437 2.437 0 01-1.201 1.094c-.519.221-1.101.264-1.649.121s-1.028-.462-1.36-.905a2.312 2.312 0 01.177-2.995l1.22 1.956a.684.684 0 00.186.197.737.737 0 00.526.127.725.725 0 00.465-.269.645.645 0 00.131-.506.658.658 0 00-.093-.25l-1.22-1.956a2.528 2.528 0 012.172.453c.441.343.746.822.864 1.357s.041 1.09-.218 1.576z"/></symbol><symbol viewBox="0 0 24 24" id="marking--discrete--text" xmlns="http://www.w3.org/2000/svg"><path d="M21.874 16.684c-.076-.136-.204-.475-.212-1.208v-3.521c-.022-1.182-.448-2.121-1.265-2.808-.773-.65-1.801-.979-3.058-.979-1.229 0-2.273.308-3.103.915-.912.669-1.394 1.597-1.394 2.685a1 1 0 00.671.944 3.011 3.011 0 00-.511.767l-2.689-7.268a.999.999 0 00-.938-.653H6.942c-.419 0-.794.262-.939.655L2.061 16.949A.999.999 0 003 18.294h2.768a.999.999 0 00.955-.705l.402-1.301h2.077l.409 1.304a1 1 0 00.954.701h2.783a1 1 0 00.821-.429c.012-.017.018-.036.028-.054a3.86 3.86 0 002.162.63c.578 0 1.106-.114 1.571-.336a1 1 0 00.584.188H21a1 1 0 001-1v-.122a.997.997 0 00-.126-.486z"/><path d="M18.708 9.355a4.638 4.638 0 010 0zM16.385 11.386c.111-.328.387-.492.83-.492-.443 0-.719.164-.83.492zM9.376 6.558l3.326 8.989-3.326-8.989zM5.768 17.294l.62-2.005zM13.146 16.749l.202.545zM21 17.294v-.125c-.216-.39-.33-.95-.338-1.682v-3.532c-.012-.649-.185-1.194-.52-1.636.335.442.508.987.52 1.636v3.532c.008.732.122 1.293.338 1.683v.124z"/><path fill="#FFC01B" d="M9.964 15.289H6.416l-.62 2.005H3.028L6.97 6.558h2.434l3.972 10.736h-2.783z"/><path d="M7.036 13.29h2.309L8.187 9.567z"/><path fill="#FFC01B" d="M18.541 17.294c-.089-.162-.167-.4-.236-.714-.458.573-1.097.862-1.919.862-.753 0-1.392-.226-1.919-.682-.526-.456-.79-1.027-.79-1.715 0-.865.32-1.519.961-1.961.638-.442 1.568-.664 2.788-.664h.767v-.423c0-.736-.317-1.104-.951-1.104-.59 0-.886.292-.886.874H13.87c0-.771.328-1.397.984-1.878.658-.481 1.496-.722 2.512-.722 1.02 0 1.824.248 2.414.745.59.496.892 1.177.909 2.042v3.532c.008.732.121 1.292.338 1.682v.125h-2.486z"/><path d="M16.983 15.672c.312 0 .567-.066.772-.199.203-.133.349-.283.438-.45v-1.276h-.722c-.868 0-1.299.388-1.299 1.165 0 .226.075.409.228.55.154.14.347.21.583.21z"/></symbol><symbol viewBox="0 0 24 24" id="object--banner" xmlns="http://www.w3.org/2000/svg"><path d="M6.857 4.143c-.42 0-.814.164-1.111.461-.297.296-.46.691-.46 1.11v12.571c0 .42.163.814.46 1.111a1.56 1.56 0 001.111.461c.42 0 .814-.164 1.111-.461.296-.297.46-.691.46-1.111V5.714c0-.42-.163-.814-.46-1.111a1.561 1.561 0 00-1.111-.46z"/><path fill-rule="evenodd" fill="#DEA4C1" d="M7.427 5.714v12.571a.57.57 0 11-1.142 0V5.714a.57.57 0 111.142 0z"/><path d="M10.17 4.433c-.631 0-1.207.044-1.76.133l-.027.005-.026.005a1.73 1.73 0 00-.964.587 1.734 1.734 0 00-.394 1.058 1.464 1.464 0 00.538 1.173l.032.025v4.499a1.734 1.734 0 00-.57 1.242 1.461 1.461 0 001.755 1.472c.439-.07.902-.103 1.414-.103.93 0 1.862.11 2.848.227 1.001.118 2.036.241 3.084.241.455 0 .876-.022 1.287-.069.256-.035.48-.122.673-.256a1.493 1.493 0 00.636-1.196 1.496 1.496 0 00-.152-.68l-.022-.044-.026-.042a78.762 78.762 0 01-1.62-2.761 95.36 95.36 0 001.639-3.015 1.38 1.38 0 00.195-.686 1.384 1.384 0 00-1.567-1.399c-.314.033-.662.051-1.041.051-.93 0-1.862-.11-2.849-.227-1.001-.118-2.036-.24-3.083-.24z"/><path fill-rule="evenodd" fill="#DEA4C1" d="M7.998 6.245a.725.725 0 01.571-.692c2.903-.47 5.805.61 8.708.285a.382.382 0 01.379.18.393.393 0 01-.007.42 95.077 95.077 0 01-1.877 3.435.152.152 0 00-.019.072c0 .025.006.05.019.072a80.579 80.579 0 001.877 3.219.492.492 0 01-.007.444.48.48 0 01-.365.254c-2.903.326-5.805-.755-8.708-.285a.465.465 0 01-.571-.465.725.725 0 01.571-.692V6.71a.465.465 0 01-.571-.465z"/></symbol><symbol viewBox="0 0 24 24" id="object--bench" xmlns="http://www.w3.org/2000/svg"><path d="M20.904 13.51l-.342-1.127c-.159-.522-.517-.944-.97-1.232.384-.401.624-.931.624-1.517 0-.676-.318-1.277-.811-1.69a2.203 2.203 0 00.811-1.69C20.216 5.011 19.163 4 17.868 4H6.132C4.837 4 3.784 5.011 3.784 6.254c0 .676.318 1.277.811 1.69a2.203 2.203 0 00-.811 1.69c0 .586.24 1.116.624 1.517-.453.288-.811.71-.97 1.232l-.342 1.127a2.162 2.162 0 00.376 1.983c.367.47.897.764 1.487.858v1.17c0 1.243 1.053 2.254 2.347 2.254s2.347-1.011 2.347-2.254v-1.127h4.695v1.352c0 1.243 1.053 2.254 2.347 2.254s2.347-1.011 2.347-2.254v-1.395a2.334 2.334 0 001.487-.858 2.164 2.164 0 00.375-1.983z"/><path fill="#50D3FB" d="M19.778 13.825l-.342-1.127a1.168 1.168 0 00-1.127-.811H5.691c-.522 0-.981.331-1.127.811l-.342 1.127c-.219.721.344 1.442 1.127 1.442h.782v2.254c0 .622.525 1.127 1.174 1.127s1.174-.505 1.174-1.127v-2.254h7.042v2.479c0 .622.525 1.127 1.174 1.127.648 0 1.174-.504 1.174-1.127v-2.479h.782c.782.001 1.346-.721 1.127-1.442zM4.958 6.254c0-.622.525-1.127 1.174-1.127h11.737c.648 0 1.174.504 1.174 1.127 0 .622-.525 1.127-1.174 1.127H6.132c-.649-.001-1.174-.505-1.174-1.127zM4.958 9.634c0-.622.525-1.127 1.174-1.127h11.737c.648 0 1.174.504 1.174 1.127 0 .622-.525 1.127-1.174 1.127H6.132c-.649 0-1.174-.505-1.174-1.127z"/></symbol><symbol viewBox="0 0 24 24" id="object--bike-rack" xmlns="http://www.w3.org/2000/svg"><path fill-rule="evenodd" d="M22.808 15.42a5.062 5.062 0 00-1.664-1.381 5.538 5.538 0 00-3.273-.571L15.168 9.34a5.126 5.126 0 002.537 1.287 5.246 5.246 0 002.928-.278c.926-.369 1.717-.995 2.274-1.797s.854-1.746.854-2.711a4.792 4.792 0 00-1.484-3.451A5.167 5.167 0 0018.694.961c-1.002 0-1.982.286-2.815.822s-1.483 1.298-1.867 2.19a4.707 4.707 0 00-.288 2.82 4.79 4.79 0 00.871 1.911c-.087-.065-.171-.135-.27-.186a2.144 2.144 0 00-.985-.238h-2.813c-.281 0-.559.067-.804.192a1.638 1.638 0 00-.608.534 1.482 1.482 0 00-.229.559H5.97c-.281 0-.559.067-.804.192a1.624 1.624 0 00-.607.533 1.45 1.45 0 00-.074 1.511l.157.287c.198.362.5.666.875.879.263.149.553.248.854.294l.026.04-.147.201a5.588 5.588 0 00-2.05.021 5.272 5.272 0 00-2.721 1.427 4.568 4.568 0 00-1.325 2.621 4.403 4.403 0 00.573 2.845c.509.873 1.288 1.567 2.252 2.008a5.569 5.569 0 003.091.441 5.318 5.318 0 002.804-1.283 4.732 4.732 0 001.16-1.551h1.903c.328 0 .654-.075.944-.217.269-.132.504-.32.683-.547.052.199.117.397.197.591a4.812 4.812 0 001.901 2.227 5.46 5.46 0 002.926.836c.755 0 1.509-.153 2.187-.443a5.181 5.181 0 001.778-1.253 4.65 4.65 0 001.035-1.833 4.41 4.41 0 00.091-2.067 4.584 4.584 0 00-.871-1.905z"/><path fill-rule="evenodd" fill="#50D3FB" d="M22.386 17.544a3.376 3.376 0 00-.647-1.413 3.748 3.748 0 00-1.239-1.028 4.165 4.165 0 00-3.254-.237L13.94 9.813a.665.665 0 00-.256-.228.744.744 0 00-.345-.083h-2.813c-.06 0-.118.014-.17.041s-.096.065-.127.112-.049.1-.052.154a.293.293 0 00.037.158l.157.287c.087.16.221.295.387.389.166.094.357.144.552.144h1.633l1.261 1.926H9.182l-.42-.642h1.066c.06 0 .118-.014.171-.041a.336.336 0 00.127-.112.293.293 0 00.015-.312l-.157-.287a.995.995 0 00-.387-.388 1.122 1.122 0 00-.552-.144H5.969a.368.368 0 00-.17.041.336.336 0 00-.127.112.293.293 0 00-.015.312l.157.287c.087.16.221.295.387.389.166.094.357.144.552.144h.375l.829 1.266L6.8 14.925a4.175 4.175 0 00-2.329-.208 3.94 3.94 0 00-2.031 1.065 3.418 3.418 0 00-.984 1.945c-.1.726.048 1.463.425 2.109a3.722 3.722 0 001.678 1.495c.715.327 1.523.442 2.312.329s1.521-.447 2.094-.957a3.456 3.456 0 001.104-1.891h2.869a.754.754 0 00.331-.076.68.68 0 00.252-.21l2.889-3.971.637.972a3.493 3.493 0 00-1.192 1.796 3.244 3.244 0 00.135 2.098 3.59 3.59 0 001.414 1.655 4.098 4.098 0 002.19.624c.564 0 1.121-.113 1.632-.331a3.843 3.843 0 001.325-.934c.362-.397.624-.861.769-1.361a3.234 3.234 0 00.066-1.53z"/><path fill-rule="evenodd" d="M6.913 19.847a2.542 2.542 0 01-1.204.535c-.448.073-.909.03-1.332-.124a2.436 2.436 0 01-1.062-.746 2.087 2.087 0 01-.225-2.351c.204-.373.517-.686.904-.904a2.609 2.609 0 011.288-.334c.244 0 .487.034.72.099l-1.303 1.792a.597.597 0 00-.035.659c.06.102.149.188.258.248.109.06.233.091.36.091h2.349c-.13.399-.379.758-.718 1.035z"/><path fill-rule="evenodd" d="M6.591 17.528l.577-.793c.211.233.369.503.463.793h-1.04zM9.068 17.527a3.442 3.442 0 00-1.104-1.888l.789-1.085 1.947 2.973H9.068zM11.969 16.969l-1.947-2.973h4.11zM20.777 19.187a2.378 2.378 0 01-1.189 1.031 2.657 2.657 0 01-1.632.114c-.542-.135-1.017-.436-1.346-.853s-.49-.926-.459-1.44.255-1.002.633-1.383l1.207 1.844c.047.072.11.135.184.185a.76.76 0 00.777.034.69.69 0 00.202-.168c.055-.068.094-.145.117-.227s.027-.167.013-.25a.622.622 0 00-.092-.236l-1.208-1.844c.198-.048.402-.072.607-.073.562-.001 1.107.176 1.543.499s.739.775.855 1.279c.119.505.044 1.03-.212 1.488z"/><path fill-rule="evenodd" fill="#50D3FB" d="M17.68 7.305v1.22c0 .065-.027.127-.074.173s-.112.071-.179.071h-1.014a.26.26 0 01-.179-.071.242.242 0 01-.074-.173V3.157c0-.065.027-.127.074-.173a.258.258 0 01.179-.071h3.041c.605 0 1.185.231 1.613.643.428.412.668.97.668 1.553 0 .582-.24 1.141-.668 1.553a2.326 2.326 0 01-1.613.643H17.68z"/><path fill-rule="evenodd" d="M19.454 4.377H17.68v1.464h1.774a.777.777 0 00.538-.214.716.716 0 000-1.036.777.777 0 00-.538-.214z"/></symbol><symbol viewBox="0 0 24 24" id="object--catch-basin" xmlns="http://www.w3.org/2000/svg"><path d="M12 3c-4.963 0-9 4.037-9 9s4.037 9 9 9 9-4.037 9-9-4.037-9-9-9z"/><path fill="#D8E0E4" d="M13.125 4.214V5.25h-2.25V4.214c-3.815.548-6.75 3.82-6.75 7.786s2.935 7.238 6.75 7.786V18.75h2.25v1.036c3.815-.547 6.75-3.819 6.75-7.786s-2.935-7.238-6.75-7.786z"/><path d="M6.375 7.5h4.5v2.25h-4.5zM5.25 10.875h5.625v2.25H5.25zM6.375 14.25h4.5v2.25h-4.5zM13.125 7.5h4.5v2.25h-4.5zM13.125 10.875h5.625v2.25h-5.625zM13.125 14.25h4.5v2.25h-4.5z"/></symbol><symbol viewBox="0 0 24 24" id="object--cctv-camera" xmlns="http://www.w3.org/2000/svg"><path d="M20.509 9.702a.977.977 0 00-.951-.377l-3.426.536a1.42 1.42 0 00-.231.058l.399-1.163c.145-.421.142-.799-.006-1.124-.106-.232-.341-.545-.863-.724L7.175 4.077a1.372 1.372 0 00-1.104.088c-.342.179-.59.469-.715.838l-1.902 5.543c-.291.855.043 1.563.871 1.847l4.003 1.372-.613 1.787-2.377-.815a1.264 1.264 0 00-.959.06 1.256 1.256 0 00-.636.721l-.407 1.189a1.257 1.257 0 00.781 1.596l4.754 1.63a1.256 1.256 0 001.595-.782l.407-1.188 1.02-2.975.688.236c.832.288 1.528-.07 1.821-.925l.13-.377c.042.065.091.128.147.188l2.374 2.525h.001a.976.976 0 00.98.285c.355-.088.616-.331.735-.681l1.903-5.547c.12-.35.062-.701-.163-.99z"/><path fill-rule="evenodd" fill="#D8E0E4" d="M10.126 12.393l-1.63 4.754-3.565-1.222-.407 1.188 4.753 1.63.408-1.188 1.63-4.754z"/><path fill-rule="evenodd" fill="#D8E0E4" d="M15.15 8.148a.598.598 0 00-.125-.053l-8.257-2.83c-.165.039-.198.069-.223.144l-1.902 5.543a.486.486 0 00-.036.2l.001-.001c.006 0 .045.026.123.052l8.257 2.833a.41.41 0 00.144.028c-.001-.004.039-.048.082-.174l1.899-5.542a.464.464 0 00.037-.2zM16.329 11.103l-.727 2.141 2.098 2.241 1.666-4.858z"/></symbol><symbol viewBox="0 0 24 24" id="object--fire-hydrant" xmlns="http://www.w3.org/2000/svg"><path d="M17.699 9.66h-.878v-.734c0-.031-.015-.057-.018-.087h.008a1.92 1.92 0 001.918-1.918 1.92 1.92 0 00-1.918-1.918h-.401A4.777 4.777 0 0012 2.083a4.777 4.777 0 00-4.41 2.92h-.401a1.92 1.92 0 00-1.918 1.918 1.92 1.92 0 001.918 1.918h.008c-.003.03-.018.056-.018.087v.734h-.878c-1.186 0-2.15.965-2.15 2.15v1.661c0 1.186.965 2.15 2.15 2.15h.878v2.459a1.921 1.921 0 00-1.909 1.918 1.92 1.92 0 001.918 1.918h9.622a1.92 1.92 0 001.918-1.918 1.92 1.92 0 00-1.908-1.918v-2.459h.878c1.186 0 2.15-.965 2.15-2.15V11.81a2.151 2.151 0 00-2.149-2.15z"/><path fill="#D8E0E4" d="M16.811 19.081h-.99V8.926H8.179V19.08h-.99a.918.918 0 100 1.836h9.622a.917.917 0 100-1.835z"/><path d="M12 15.315a2.748 2.748 0 01-2.745-2.745c0-1.514 1.231-2.745 2.745-2.745s2.745 1.231 2.745 2.745A2.748 2.748 0 0112 15.315z"/><path fill="#D8E0E4" d="M12 10.825c-.962 0-1.745.783-1.745 1.745s.783 1.745 1.745 1.745c.962 0 1.745-.782 1.745-1.745s-.783-1.745-1.745-1.745zM17.699 10.66h-.887v3.962h.887c.633 0 1.15-.518 1.15-1.15V11.81c0-.633-.518-1.15-1.15-1.15zM7.189 14.622V10.66h-.888c-.633 0-1.15.518-1.15 1.15v1.661c0 .633.518 1.15 1.15 1.15h.888zM7.189 7.839h9.622a.917.917 0 100-1.836H15.69c-.4-1.672-1.895-2.92-3.689-2.92S8.71 4.33 8.311 6.003H7.189a.918.918 0 100 1.836z"/></symbol><symbol viewBox="0 0 24 24" id="object--junction-box" xmlns="http://www.w3.org/2000/svg"><path d="M18.462 10.309a1.665 1.665 0 00-.643-.701 1.743 1.743 0 00-.897-.248H14.83l1.573-3.984c.148-.376.151-.79.008-1.168a1.67 1.67 0 00-.752-.864 1.744 1.744 0 00-2.101.317l-7.735 8.204a1.628 1.628 0 00.358 2.528c.269.162.58.248.897.249H9.17l-1.573 3.984a1.615 1.615 0 00-.008 1.167c.138.365.405.672.752.865a1.745 1.745 0 002.102-.317l7.735-8.204c.228-.242.375-.541.427-.865.052-.33.003-.663-.143-.963z"/><path fill-rule="evenodd" fill="#D8E0E4" d="M17.562 10.745a.614.614 0 01.055.367.635.635 0 01-.167.336l-7.734 8.203a.74.74 0 01-.888.13.67.67 0 01-.303-.345.613.613 0 01.003-.446l2.112-5.351H7.078a.743.743 0 01-.381-.105.661.661 0 01-.259-.281.614.614 0 01.113-.703l7.734-8.203a.74.74 0 01.888-.129c.141.078.248.2.303.345a.613.613 0 01-.003.446l-2.113 5.352h3.562c.135 0 .268.036.381.105a.651.651 0 01.259.279z"/></symbol><symbol viewBox="0 0 24 24" id="object--mailbox" xmlns="http://www.w3.org/2000/svg"><path d="M17.143 8.786H7.5l-.225.022C5.005 8.56 3 10.377 3 12.643v6.429h17.348l.652-.009v-6.42a3.861 3.861 0 00-3.857-3.857z"/><path fill="#50D3FB" d="M4.286 17.786h5.143v-5.143c0-1.418-1.154-2.571-2.571-2.571s-2.571 1.154-2.571 2.571l-.001 5.143zM19.714 17.786v-5.143a2.574 2.574 0 00-2.571-2.571H9.711a3.826 3.826 0 011.003 2.571v5.143h9z"/><path d="M17.119 12.269h-3.535V5.2h5.302c.975 0 1.767.793 1.767 1.767s-.793 1.767-1.767 1.767h-1.767v3.535z"/><path fill="#50D3FB" d="M19.801 6.946a.644.644 0 00-.643-.643h-4.5v5.143h1.286V7.588h3.214a.644.644 0 00.643-.642z"/></symbol><symbol viewBox="0 0 24 24" id="object--manhole" xmlns="http://www.w3.org/2000/svg"><path d="M21.194 10.171a9.344 9.344 0 00-2.565-4.801 9.355 9.355 0 00-4.8-2.565 9.424 9.424 0 00-5.417.533 9.335 9.335 0 00-4.207 3.454A9.337 9.337 0 002.625 12c0 2.505.975 4.859 2.745 6.629A9.317 9.317 0 0012 21.375c1.86 0 3.661-.546 5.209-1.58a9.36 9.36 0 003.452-4.207 9.337 9.337 0 00.533-5.417z"/><path fill-rule="evenodd" fill="#D8E0E4" d="M11.999 20a8.003 8.003 0 007.391-4.938 8.007 8.007 0 00-1.734-8.718A8 8 0 006.342 17.657 8.002 8.002 0 0011.999 20z"/><path fill-rule="evenodd" d="M11.765 5.715a.204.204 0 01.101-.38l.133-.002a6.668 6.668 0 11-.133 13.332.21.21 0 01-.194-.152.207.207 0 01.092-.229A7.324 7.324 0 0015.332 12a7.32 7.32 0 00-3.567-6.285z"/></symbol><symbol viewBox="0 0 24 24" id="object--parking-meter" xmlns="http://www.w3.org/2000/svg"><path d="M15.568 1.987H8.432c-.812 0-1.548.504-1.829 1.254L4.875 7.842a1.874 1.874 0 00-.06 1.122l1.821 8.904c.183.888.987 1.532 1.913 1.532h.973v2.613h4.957V19.4h.973c.926 0 1.73-.644 1.912-1.531l1.821-8.904a1.874 1.874 0 00-.059-1.122l-1.728-4.601a1.96 1.96 0 00-1.83-1.255z"/><path fill="#50D3FB" d="M18.189 8.194l-1.728-4.601a.95.95 0 00-.893-.606H8.432c-.4 0-.757.242-.893.606L5.811 8.194a.87.87 0 00-.021.544l1.826 8.929c.087.426.478.733.933.733h1.973v2.613h2.957V18.4h1.973c.455 0 .845-.307.933-.732l1.826-8.929a.88.88 0 00-.022-.545z"/><path d="M12 12.147c-1.298 0-2.354 1.057-2.354 2.354s1.056 2.354 2.354 2.354 2.354-1.056 2.354-2.354-1.056-2.354-2.354-2.354zM13.848 4.276h-3.711a2.474 2.474 0 00-2.471 2.471v1.289a2.474 2.474 0 002.471 2.471h3.711a2.474 2.474 0 002.471-2.471V6.747a2.474 2.474 0 00-2.471-2.471z"/><path fill="#50D3FB" d="M8.666 6.747c0-.809.662-1.471 1.471-1.471h3.711c.809 0 1.471.662 1.471 1.471v1.289c0 .085-.011.166-.025.247h-2.228l.808-1.315a.5.5 0 00-.852-.524l-1.129 1.839H8.691a1.426 1.426 0 01-.025-.247V6.747z"/></symbol><symbol viewBox="0 0 24 24" id="object--phone-booth" xmlns="http://www.w3.org/2000/svg"><path fill="#50D3FB" d="M18.207 17.276H5.793V6.621a3 3 0 013-3h6.414a3 3 0 013 3v10.655z"/><path d="M18.207 17.897H5.793a.621.621 0 01-.621-.621V7.345A4.35 4.35 0 019.517 3h4.966a4.35 4.35 0 014.345 4.345v9.931a.621.621 0 01-.621.621z"/><path fill="#50D3FB" d="M6.414 16.655h11.172v-9.31a3.106 3.106 0 00-3.103-3.103H9.517a3.106 3.106 0 00-3.103 3.103v9.31z"/><path fill-rule="evenodd" d="M14.672 13.36c-.042.131-.132.195-.27.192-.533-.011-2.012-.205-3.656-1.849-1.644-1.644-1.838-3.124-1.849-3.656-.003-.138.061-.228.192-.27l1.262-.412c.166-.053.283 0 .352.16l.504 1.167a.26.26 0 01-.058.312l-.591.591a.129.129 0 00-.032.147c.179.51.463.953.852 1.33.376.388.82.672 1.33.852a.13.13 0 00.148-.032l.591-.591a.261.261 0 01.312-.058l1.167.504c.16.069.213.186.16.351l-.414 1.262z"/><path d="M15.103 20.089H12.62v-2.873h-1.241v2.873H8.897a.621.621 0 100 1.242h6.207a.621.621 0 10-.001-1.242z"/></symbol><symbol viewBox="0 0 24 24" id="object--sign--advertisement" xmlns="http://www.w3.org/2000/svg"><path d="M9.338 16.152h-.2a.663.663 0 00.2 0"/><path d="M12 2c-.544 0-1.056.212-1.441.597l-7.962 7.962c-.385.385-.597.897-.597 1.442s.212 1.056.597 1.441l7.962 7.961c.385.385.897.597 1.441.597s1.056-.212 1.441-.597l7.961-7.961c.386-.386.598-.898.598-1.442 0-.544-.212-1.056-.597-1.441l-7.962-7.962A2.025 2.025 0 0012 2z"/><path fill-rule="evenodd" fill="#DEA4C1" d="M9.138 16.152a.663.663 0 00.2 0h-.2z"/><path fill-rule="evenodd" fill="#DEA4C1" d="M12.735 20.696l7.961-7.961a1.043 1.043 0 000-1.469l-7.962-7.962a1.036 1.036 0 00-1.468 0l-7.962 7.962a1.038 1.038 0 000 1.469l7.962 7.961a1.038 1.038 0 001.469 0z"/><path fill-rule="evenodd" d="M15.636 13.25H8.364a.36.36 0 01-.257-.11.378.378 0 01-.107-.265v-.467c0-.126.03-.249.089-.359l.913-1.727a.772.772 0 00.089-.359v-.838c0-.199.077-.39.213-.53a.714.714 0 01.514-.22h2.545v-.75h-.818a.272.272 0 01-.193-.082.287.287 0 01-.08-.199v-.563c0-.075.029-.146.08-.199a.274.274 0 01.193-.082h2.364c.072 0 .142.03.193.082.051.053.08.124.08.199v.562a.287.287 0 01-.08.199.268.268 0 01-.193.082h-.818v.75h1.091c.193 0 .378.079.514.22a.763.763 0 01.213.53v.838c0 .125.03.249.089.359l.913 1.727a.78.78 0 01.089.36v.467c0 .099-.038.195-.107.265s-.16.11-.257.11zM15.636 15.5H8.364a.36.36 0 01-.257-.11.378.378 0 01-.107-.265V14c0-.099.038-.195.107-.265a.36.36 0 01.257-.11h7.273a.36.36 0 01.257.11c.068.07.106.166.106.265v1.125c0 .099-.038.195-.107.265s-.16.11-.257.11z"/><path fill-rule="evenodd" fill="#DEA4C1" d="M14.182 9.312a.193.193 0 00-.053-.133.186.186 0 00-.129-.054h-2.545a.183.183 0 00-.129.055.19.19 0 00-.053.133v.375c0 .05.019.097.053.133s.08.055.129.055H14c.048 0 .094-.02.129-.055a.19.19 0 00.053-.133v-.376z"/></symbol><symbol viewBox="0 0 24 24" id="object--sign--information" xmlns="http://www.w3.org/2000/svg"><path d="M9.338 16.152h-.2a.663.663 0 00.2 0"/><path d="M12 2c-.544 0-1.056.212-1.441.597l-7.962 7.962c-.385.385-.597.897-.597 1.442s.212 1.056.597 1.441l7.962 7.961c.385.385.897.597 1.441.597s1.056-.212 1.441-.597l7.961-7.961c.386-.386.598-.898.598-1.442 0-.544-.212-1.056-.597-1.441l-7.962-7.962A2.025 2.025 0 0012 2z"/><path fill-rule="evenodd" fill="#F35700" d="M9.138 16.152a.663.663 0 00.2 0h-.2z"/><path fill-rule="evenodd" fill="#F35700" d="M12.735 20.696l7.961-7.961a1.043 1.043 0 000-1.469l-7.962-7.962a1.036 1.036 0 00-1.468 0l-7.962 7.962a1.038 1.038 0 000 1.469l7.962 7.961a1.038 1.038 0 001.469 0z"/><circle fill-rule="evenodd" cx="12" cy="12" r="5"/><path fill-rule="evenodd" fill="#F35700" d="M12.608 11.743l-.58 2.19a.436.436 0 00.259.516.208.208 0 01.131.193v.067a.208.208 0 01-.208.208h-.623a.626.626 0 01-.609-.784l.58-2.19a.437.437 0 00-.259-.516.209.209 0 01-.131-.194v-.067c0-.115.093-.208.208-.208H12a.626.626 0 01.608.785zM12.312 10.333a.683.683 0 01-.729-.625.683.683 0 01.729-.625.683.683 0 01.729.625.682.682 0 01-.729.625z"/></symbol><symbol viewBox="0 0 24 24" id="object--sign--store" xmlns="http://www.w3.org/2000/svg"><path d="M9.321 16.152h-.2a.663.663 0 00.2 0"/><path d="M11.983 2c-.544 0-1.056.212-1.441.597L2.58 10.559c-.385.385-.597.897-.597 1.441s.212 1.056.597 1.441l7.962 7.961c.385.386.897.598 1.441.598s1.056-.212 1.441-.597l7.961-7.961c.385-.385.597-.897.597-1.441s-.212-1.056-.597-1.441l-7.962-7.962A2.018 2.018 0 0011.983 2z"/><path fill-rule="evenodd" fill="#DEA4C1" d="M9.12 16.152a.663.663 0 00.2 0h-.2z"/><path fill-rule="evenodd" fill="#DEA4C1" d="M12.717 20.696l7.961-7.961a1.038 1.038 0 000-1.468l-7.962-7.962a1.036 1.036 0 00-1.467-.001l-7.962 7.962a1.038 1.038 0 000 1.468l7.962 7.961a1.034 1.034 0 001.468.001z"/><path fill-rule="evenodd" d="M9.058 11.833h.308a.149.149 0 01.109.049.173.173 0 01.045.118v2c0 .044.008.087.023.128a.327.327 0 00.167.18.297.297 0 00.118.025h4.309c.082 0 .16-.035.218-.098a.347.347 0 00.09-.236v-2c0-.044.016-.087.045-.118a.15.15 0 01.109-.049h.308a.15.15 0 01.109.049.173.173 0 01.045.118v3.333c0 .088-.016.174-.047.255a.66.66 0 01-.334.361.548.548 0 01-.235.052H9.52c-.163 0-.32-.07-.435-.195s-.18-.295-.18-.471V12c0-.044.016-.087.045-.118a.147.147 0 01.108-.049z"/><path fill-rule="evenodd" d="M9.904 14a.075.075 0 01-.054-.024.09.09 0 01-.023-.059v-.5c0-.022.008-.043.023-.059a.071.071 0 01.054-.024h4.157c.02 0 .04.009.054.024a.09.09 0 01.023.059v.5c0 .022-.008.043-.023.059s-.033.024-.054.024H9.904zM15.871 10.915c-.1.185-.244.338-.418.44a1.021 1.021 0 01-1.123-.05 1.155 1.155 0 01-.383-.477 1.15 1.15 0 01-.401.49c-.174.119-.375.182-.581.182s-.407-.063-.581-.182a1.15 1.15 0 01-.401-.49 1.15 1.15 0 01-.401.49 1.027 1.027 0 01-1.163 0 1.15 1.15 0 01-.401-.49 1.153 1.153 0 01-.383.477 1.021 1.021 0 01-1.123.05 1.135 1.135 0 01-.418-.44 1.029 1.029 0 01-.033-.862l.658-1.649a.657.657 0 01.229-.294A.592.592 0 019.29 8h5.386c.121 0 .24.038.341.11a.662.662 0 01.229.294l.658 1.649a1.022 1.022 0 01-.033.862z"/></symbol><symbol viewBox="0 0 24 24" id="object--street-light" xmlns="http://www.w3.org/2000/svg"><path d="M16.688 3h-2.551c-4.974 0-9.02 3.988-9.02 8.891v7.824c0 .71.576 1.286 1.286 1.286h1.21c.71 0 1.286-.576 1.286-1.286v-7.824c0-1.641.806-3.169 2.101-4.133a1.9 1.9 0 001.454.671h3.63c1.043 0 1.891-.833 1.891-1.857V4.286A1.288 1.288 0 0016.688 3z"/><path d="M14.76 12.643a.643.643 0 01-.643-.643V9.429a.643.643 0 011.286 0V12a.643.643 0 01-.643.643zM18.24 11.623a.645.645 0 01-.455-.188l-1.818-1.818a.643.643 0 01.909-.909l1.818 1.818a.643.643 0 01-.454 1.097zM11.279 11.623a.643.643 0 01-.455-1.097l1.818-1.818a.643.643 0 01.909.909l-1.818 1.818a.636.636 0 01-.454.188z"/><path fill="#D8E0E4" d="M14.137 4.286c-4.265 0-7.734 3.412-7.734 7.605v7.824h1.21v-7.824c0-2.765 1.765-5.123 4.235-6.044v.724c0 .316.271.571.605.571h3.63c.334 0 .605-.256.605-.571V4.286h-2.551z"/></symbol><symbol viewBox="0 0 24 24" id="object--support--pole" xmlns="http://www.w3.org/2000/svg"><path d="M12 3a2.252 2.252 0 00-2.25 2.25v9.86a3.394 3.394 0 00-1.017 1.671h-.249c-1.163 0-2.109.946-2.109 2.109S7.321 21 8.484 21h7.032c1.163 0 2.109-.946 2.109-2.109s-.946-2.109-2.109-2.109h-.249a3.394 3.394 0 00-1.017-1.671V5.25A2.252 2.252 0 0012 3z"/><path fill-rule="evenodd" fill="#D8E0E4" d="M15.516 17.906h-1.283a2.248 2.248 0 00-1.108-2.23V5.25a1.125 1.125 0 00-2.25 0v10.426a2.248 2.248 0 00-1.108 2.23H8.484a.984.984 0 100 1.968h7.032a.984.984 0 100-1.968z"/></symbol><symbol viewBox="0 0 24 24" id="object--support--traffic-sign-frame" xmlns="http://www.w3.org/2000/svg"><path d="M22.501 5.859H1.499a1 1 0 00-1 1v12.855a1 1 0 001 1h1.75a1 1 0 001-1V9.799h15.502v9.915a1 1 0 001 1h1.75a1 1 0 001-1V6.859a1 1 0 00-1-1z"/><path fill="#F35700" d="M22.501 19.714V6.859H1.499v12.855h1.75V8.799h17.502v10.915z"/><path d="M18 13.287H6a.5.5 0 01-.5-.5v-9a.5.5 0 01.5-.5h12a.5.5 0 01.5.5v9a.5.5 0 01-.5.5z"/><path fill="#F35700" d="M6.5 4.286h11v8h-11z"/></symbol><symbol viewBox="0 0 24 24" id="object--support--utility-pole" xmlns="http://www.w3.org/2000/svg"><path d="M11.545 3a1.828 1.828 0 00-1.826 1.826v.523l-1.405.404A1.935 1.935 0 006.985 8.06a1.846 1.846 0 002.311 1.332l.423-.122v.11l-2.146.619a1.935 1.935 0 00-1.33 2.306 1.846 1.846 0 002.311 1.332l1.164-.336v5.872c0 1.007.819 1.826 1.826 1.826s1.826-.819 1.826-1.826v-6.925l3.056-.881a1.935 1.935 0 001.33-2.306 1.846 1.846 0 00-2.311-1.332l-2.075.598v-.11l1.404-.405a1.935 1.935 0 001.33-2.306 1.844 1.844 0 00-2.31-1.332l-.495.143A1.83 1.83 0 0011.545 3z"/><path fill-rule="evenodd" fill="#D8E0E4" d="M10.719 4.826a.826.826 0 011.652 0v.799l1.7-.49a.846.846 0 011.064.613.926.926 0 01-.636 1.104l-2.127.614v2.191l3.352-.967a.846.846 0 011.064.613.926.926 0 01-.636 1.104l-3.779 1.09v7.677a.826.826 0 01-1.652 0v-7.201l-2.441.704a.846.846 0 01-1.064-.613.922.922 0 01.634-1.104l2.869-.827V7.941l-1.7.49a.846.846 0 01-1.064-.613.926.926 0 01.636-1.104l2.127-.614V4.826z"/></symbol><symbol viewBox="0 0 24 24" id="object--traffic-cone" xmlns="http://www.w3.org/2000/svg"><path d="M17.714 7.57H6.286C5.025 7.57 4 8.574 4 9.808v8.954C4 19.996 5.025 21 6.286 21h11.429C18.975 21 20 19.996 20 18.762V9.808c0-1.234-1.025-2.238-2.286-2.238z"/><path fill="#F35700" d="M5.143 9.808c0-.618.512-1.119 1.143-1.119h11.429c.631 0 1.143.501 1.143 1.119v8.954c0 .618-.512 1.119-1.143 1.119H6.286a1.131 1.131 0 01-1.143-1.119V9.808z"/><path d="M12 3c-.971 0-1.814.577-2.147 1.471l-3.387 9.09a1.6 1.6 0 00.378 1.693C8.217 16.612 10.048 17.36 12 17.36s3.783-.748 5.156-2.106a1.599 1.599 0 00.378-1.693l-3.387-9.09C13.814 3.577 12.971 3 12 3z"/><path fill="#F35700" d="M10.926 4.855c.365-.981 1.782-.981 2.147 0l3.387 9.09a.49.49 0 01-.117.522c-2.392 2.365-6.296 2.365-8.688 0a.492.492 0 01-.117-.522l3.388-9.09z"/></symbol><symbol viewBox="0 0 24 24" id="object--traffic-light--cyclists" xmlns="http://www.w3.org/2000/svg"><path d="M12 3c-.822 0-1.615.226-2.315.656H9.5c-.471 0-.929.197-1.257.541-.208.22-.355.484-.432.772H6.609A1.362 1.362 0 005.25 6.34v.206c0 .422.159.82.447 1.123L7.5 9.563h-.891a1.362 1.362 0 00-1.359 1.371v.206c0 .422.159.82.447 1.123L7.5 14.156h-.891a1.362 1.362 0 00-1.359 1.371v.206c0 .422.159.82.447 1.123l2.053 2.155v.206c0 .465.175.906.493 1.24A1.74 1.74 0 009.5 21h5c.471 0 .929-.197 1.257-.541.318-.334.493-.774.493-1.24v-.207l2.052-2.155c.288-.302.447-.701.448-1.123v-.207c0-.356-.135-.693-.379-.95a1.358 1.358 0 00-.98-.421H16.5l1.803-1.893c.288-.302.447-.701.448-1.123v-.207c0-.356-.135-.693-.379-.95a1.358 1.358 0 00-.98-.421H16.5l1.802-1.892c.288-.302.447-.701.448-1.123V6.34c0-.356-.135-.693-.379-.95a1.358 1.358 0 00-.98-.421h-1.202a1.787 1.787 0 00-.432-.771 1.746 1.746 0 00-1.257-.541h-.185A4.393 4.393 0 0012 3z"/><path fill-rule="evenodd" fill="#F35700" d="M17.391 15.281c.062 0 .122.026.166.072s.069.109.069.174v.206a.51.51 0 01-.137.348l-2.18 2.289a.674.674 0 00-.183.464v.385c0 .174-.066.341-.183.464s-.276.192-.442.192h-5c-.166 0-.325-.069-.442-.192s-.183-.29-.183-.464v-.385a.674.674 0 00-.183-.464l-2.18-2.289a.502.502 0 01-.137-.347v-.206c0-.065.025-.128.069-.174a.23.23 0 01.166-.072h2.266v-1.041a.674.674 0 00-.183-.464l-2.18-2.289a.503.503 0 01-.137-.348v-.206c0-.065.025-.128.069-.174a.23.23 0 01.166-.072h2.266V9.647a.674.674 0 00-.183-.464l-2.18-2.289a.492.492 0 01-.14-.348V6.34c0-.065.025-.128.069-.174a.228.228 0 01.165-.072h2.266v-.656c0-.174.066-.341.183-.464a.607.607 0 01.442-.193h.528A3.312 3.312 0 0112 4.125c.706 0 1.395.229 1.973.656h.527a.61.61 0 01.442.192c.117.123.183.29.183.464v.656h2.266a.23.23 0 01.166.072.253.253 0 01.069.174v.206a.51.51 0 01-.137.348l-2.18 2.289a.674.674 0 00-.183.464v1.041h2.266a.23.23 0 01.166.072.253.253 0 01.069.174v.206a.51.51 0 01-.137.348l-2.18 2.289a.674.674 0 00-.183.464v1.041h2.264z"/><path fill-rule="evenodd" d="M12 15.422a1.495 1.495 0 00-1.385.926 1.496 1.496 0 00.326 1.635A1.5 1.5 0 1012 15.422zM12 10.828a1.495 1.495 0 00-1.385.926 1.496 1.496 0 00.326 1.635A1.5 1.5 0 1012 10.828zM12 6.234a1.495 1.495 0 00-1.385.926 1.504 1.504 0 00.326 1.635 1.5 1.5 0 001.633.325A1.5 1.5 0 0012 6.234z"/></symbol><symbol viewBox="0 0 24 24" id="object--traffic-light--general-horizontal" xmlns="http://www.w3.org/2000/svg"><path d="M12 3c-.822 0-1.615.226-2.315.656H9.5c-.471 0-.929.197-1.257.541-.208.22-.355.484-.432.772H6.609A1.362 1.362 0 005.25 6.34v.206c0 .422.159.82.447 1.123L7.5 9.563h-.891a1.362 1.362 0 00-1.359 1.371v.206c0 .422.159.82.447 1.123L7.5 14.156h-.891a1.362 1.362 0 00-1.359 1.371v.206c0 .422.159.82.447 1.123l2.053 2.155v.206c0 .465.175.906.493 1.24A1.74 1.74 0 009.5 21h5c.471 0 .929-.197 1.257-.541.318-.334.493-.774.493-1.24v-.207l2.052-2.155c.288-.302.447-.701.448-1.123v-.207c0-.356-.135-.693-.379-.95a1.358 1.358 0 00-.98-.421H16.5l1.803-1.893c.288-.302.447-.701.448-1.123v-.207c0-.356-.135-.693-.379-.95a1.358 1.358 0 00-.98-.421H16.5l1.802-1.892c.288-.302.447-.701.448-1.123V6.34c0-.356-.135-.693-.379-.95a1.358 1.358 0 00-.98-.421h-1.202a1.787 1.787 0 00-.432-.771 1.746 1.746 0 00-1.257-.541h-.185A4.393 4.393 0 0012 3z"/><path fill-rule="evenodd" fill="#F35700" d="M17.391 15.281c.062 0 .122.026.166.072s.069.109.069.174v.206a.51.51 0 01-.137.348l-2.18 2.289a.674.674 0 00-.183.464v.385c0 .174-.066.341-.183.464s-.276.192-.442.192h-5c-.166 0-.325-.069-.442-.192s-.183-.29-.183-.464v-.385a.674.674 0 00-.183-.464l-2.18-2.289a.502.502 0 01-.137-.347v-.206c0-.065.025-.128.069-.174a.23.23 0 01.166-.072h2.266v-1.041a.674.674 0 00-.183-.464l-2.18-2.289a.503.503 0 01-.137-.348v-.206c0-.065.025-.128.069-.174a.23.23 0 01.166-.072h2.266V9.647a.674.674 0 00-.183-.464l-2.18-2.289a.492.492 0 01-.14-.348V6.34c0-.065.025-.128.069-.174a.228.228 0 01.165-.072h2.266v-.656c0-.174.066-.341.183-.464a.607.607 0 01.442-.193h.528A3.312 3.312 0 0112 4.125c.706 0 1.395.229 1.973.656h.527a.61.61 0 01.442.192c.117.123.183.29.183.464v.656h2.266a.23.23 0 01.166.072.253.253 0 01.069.174v.206a.51.51 0 01-.137.348l-2.18 2.289a.674.674 0 00-.183.464v1.041h2.266a.23.23 0 01.166.072.253.253 0 01.069.174v.206a.51.51 0 01-.137.348l-2.18 2.289a.674.674 0 00-.183.464v1.041h2.264z"/><path fill-rule="evenodd" d="M12 15.422a1.495 1.495 0 00-1.385.926 1.496 1.496 0 00.326 1.635A1.5 1.5 0 1012 15.422zM12 10.828a1.495 1.495 0 00-1.385.926 1.496 1.496 0 00.326 1.635A1.5 1.5 0 1012 10.828zM12 6.234a1.495 1.495 0 00-1.385.926 1.504 1.504 0 00.326 1.635 1.5 1.5 0 001.633.325A1.5 1.5 0 0012 6.234z"/></symbol><symbol viewBox="0 0 24 24" id="object--traffic-light--general-single" xmlns="http://www.w3.org/2000/svg"><path d="M12 3c-.822 0-1.615.226-2.315.656H9.5c-.471 0-.929.197-1.257.541-.208.22-.355.484-.432.772H6.609A1.362 1.362 0 005.25 6.34v.206c0 .422.159.82.447 1.123L7.5 9.563h-.891a1.362 1.362 0 00-1.359 1.371v.206c0 .422.159.82.447 1.123L7.5 14.156h-.891a1.362 1.362 0 00-1.359 1.371v.206c0 .422.159.82.447 1.123l2.053 2.155v.206c0 .465.175.906.493 1.24A1.74 1.74 0 009.5 21h5c.471 0 .929-.197 1.257-.541.318-.334.493-.774.493-1.24v-.207l2.052-2.155c.288-.302.447-.701.448-1.123v-.207c0-.356-.135-.693-.379-.95a1.358 1.358 0 00-.98-.421H16.5l1.803-1.893c.288-.302.447-.701.448-1.123v-.207c0-.356-.135-.693-.379-.95a1.358 1.358 0 00-.98-.421H16.5l1.802-1.892c.288-.302.447-.701.448-1.123V6.34c0-.356-.135-.693-.379-.95a1.358 1.358 0 00-.98-.421h-1.202a1.787 1.787 0 00-.432-.771 1.746 1.746 0 00-1.257-.541h-.185A4.393 4.393 0 0012 3z"/><path fill-rule="evenodd" fill="#F35700" d="M17.391 15.281c.062 0 .122.026.166.072s.069.109.069.174v.206a.51.51 0 01-.137.348l-2.18 2.289a.674.674 0 00-.183.464v.385c0 .174-.066.341-.183.464s-.276.192-.442.192h-5c-.166 0-.325-.069-.442-.192s-.183-.29-.183-.464v-.385a.674.674 0 00-.183-.464l-2.18-2.289a.502.502 0 01-.137-.347v-.206c0-.065.025-.128.069-.174a.23.23 0 01.166-.072h2.266v-1.041a.674.674 0 00-.183-.464l-2.18-2.289a.503.503 0 01-.137-.348v-.206c0-.065.025-.128.069-.174a.23.23 0 01.166-.072h2.266V9.647a.674.674 0 00-.183-.464l-2.18-2.289a.492.492 0 01-.14-.348V6.34c0-.065.025-.128.069-.174a.228.228 0 01.165-.072h2.266v-.656c0-.174.066-.341.183-.464a.607.607 0 01.442-.193h.528A3.312 3.312 0 0112 4.125c.706 0 1.395.229 1.973.656h.527a.61.61 0 01.442.192c.117.123.183.29.183.464v.656h2.266a.23.23 0 01.166.072.253.253 0 01.069.174v.206a.51.51 0 01-.137.348l-2.18 2.289a.674.674 0 00-.183.464v1.041h2.266a.23.23 0 01.166.072.253.253 0 01.069.174v.206a.51.51 0 01-.137.348l-2.18 2.289a.674.674 0 00-.183.464v1.041h2.264z"/><path fill-rule="evenodd" d="M12 15.422a1.495 1.495 0 00-1.385.926 1.496 1.496 0 00.326 1.635A1.5 1.5 0 1012 15.422zM12 10.828a1.495 1.495 0 00-1.385.926 1.496 1.496 0 00.326 1.635A1.5 1.5 0 1012 10.828zM12 6.234a1.495 1.495 0 00-1.385.926 1.504 1.504 0 00.326 1.635 1.5 1.5 0 001.633.325A1.5 1.5 0 0012 6.234z"/></symbol><symbol viewBox="0 0 24 24" id="object--traffic-light--general-upright" xmlns="http://www.w3.org/2000/svg"><path d="M12 3c-.822 0-1.615.226-2.315.656H9.5c-.471 0-.929.197-1.257.541-.208.22-.355.484-.432.772H6.609A1.362 1.362 0 005.25 6.34v.206c0 .422.159.82.447 1.123L7.5 9.563h-.891a1.362 1.362 0 00-1.359 1.371v.206c0 .422.159.82.447 1.123L7.5 14.156h-.891a1.362 1.362 0 00-1.359 1.371v.206c0 .422.159.82.447 1.123l2.053 2.155v.206c0 .465.175.906.493 1.24A1.74 1.74 0 009.5 21h5c.471 0 .929-.197 1.257-.541.318-.334.493-.774.493-1.24v-.207l2.052-2.155c.288-.302.447-.701.448-1.123v-.207c0-.356-.135-.693-.379-.95a1.358 1.358 0 00-.98-.421H16.5l1.803-1.893c.288-.302.447-.701.448-1.123v-.207c0-.356-.135-.693-.379-.95a1.358 1.358 0 00-.98-.421H16.5l1.802-1.892c.288-.302.447-.701.448-1.123V6.34c0-.356-.135-.693-.379-.95a1.358 1.358 0 00-.98-.421h-1.202a1.787 1.787 0 00-.432-.771 1.746 1.746 0 00-1.257-.541h-.185A4.393 4.393 0 0012 3z"/><path fill-rule="evenodd" fill="#F35700" d="M17.391 15.281c.062 0 .122.026.166.072s.069.109.069.174v.206a.51.51 0 01-.137.348l-2.18 2.289a.674.674 0 00-.183.464v.385c0 .174-.066.341-.183.464s-.276.192-.442.192h-5c-.166 0-.325-.069-.442-.192s-.183-.29-.183-.464v-.385a.674.674 0 00-.183-.464l-2.18-2.289a.502.502 0 01-.137-.347v-.206c0-.065.025-.128.069-.174a.23.23 0 01.166-.072h2.266v-1.041a.674.674 0 00-.183-.464l-2.18-2.289a.503.503 0 01-.137-.348v-.206c0-.065.025-.128.069-.174a.23.23 0 01.166-.072h2.266V9.647a.674.674 0 00-.183-.464l-2.18-2.289a.492.492 0 01-.14-.348V6.34c0-.065.025-.128.069-.174a.228.228 0 01.165-.072h2.266v-.656c0-.174.066-.341.183-.464a.607.607 0 01.442-.193h.528A3.312 3.312 0 0112 4.125c.706 0 1.395.229 1.973.656h.527a.61.61 0 01.442.192c.117.123.183.29.183.464v.656h2.266a.23.23 0 01.166.072.253.253 0 01.069.174v.206a.51.51 0 01-.137.348l-2.18 2.289a.674.674 0 00-.183.464v1.041h2.266a.23.23 0 01.166.072.253.253 0 01.069.174v.206a.51.51 0 01-.137.348l-2.18 2.289a.674.674 0 00-.183.464v1.041h2.264z"/><path fill-rule="evenodd" d="M12 15.422a1.495 1.495 0 00-1.385.926 1.496 1.496 0 00.326 1.635A1.5 1.5 0 1012 15.422zM12 10.828a1.495 1.495 0 00-1.385.926 1.496 1.496 0 00.326 1.635A1.5 1.5 0 1012 10.828zM12 6.234a1.495 1.495 0 00-1.385.926 1.504 1.504 0 00.326 1.635 1.5 1.5 0 001.633.325A1.5 1.5 0 0012 6.234z"/></symbol><symbol viewBox="0 0 24 24" id="object--traffic-light--other" xmlns="http://www.w3.org/2000/svg"><path d="M12 3c-.822 0-1.615.226-2.315.656H9.5c-.471 0-.929.197-1.257.541-.208.22-.355.484-.432.772H6.609A1.362 1.362 0 005.25 6.34v.206c0 .422.159.82.447 1.123L7.5 9.563h-.891a1.362 1.362 0 00-1.359 1.371v.206c0 .422.159.82.447 1.123L7.5 14.156h-.891a1.362 1.362 0 00-1.359 1.371v.206c0 .422.159.82.447 1.123l2.053 2.155v.206c0 .465.175.906.493 1.24A1.74 1.74 0 009.5 21h5c.471 0 .929-.197 1.257-.541.318-.334.493-.774.493-1.24v-.207l2.052-2.155c.288-.302.447-.701.448-1.123v-.207c0-.356-.135-.693-.379-.95a1.358 1.358 0 00-.98-.421H16.5l1.803-1.893c.288-.302.447-.701.448-1.123v-.207c0-.356-.135-.693-.379-.95a1.358 1.358 0 00-.98-.421H16.5l1.802-1.892c.288-.302.447-.701.448-1.123V6.34c0-.356-.135-.693-.379-.95a1.358 1.358 0 00-.98-.421h-1.202a1.787 1.787 0 00-.432-.771 1.746 1.746 0 00-1.257-.541h-.185A4.393 4.393 0 0012 3z"/><path fill-rule="evenodd" fill="#F35700" d="M17.391 15.281c.062 0 .122.026.166.072s.069.109.069.174v.206a.51.51 0 01-.137.348l-2.18 2.289a.674.674 0 00-.183.464v.385c0 .174-.066.341-.183.464s-.276.192-.442.192h-5c-.166 0-.325-.069-.442-.192s-.183-.29-.183-.464v-.385a.674.674 0 00-.183-.464l-2.18-2.289a.502.502 0 01-.137-.347v-.206c0-.065.025-.128.069-.174a.23.23 0 01.166-.072h2.266v-1.041a.674.674 0 00-.183-.464l-2.18-2.289a.503.503 0 01-.137-.348v-.206c0-.065.025-.128.069-.174a.23.23 0 01.166-.072h2.266V9.647a.674.674 0 00-.183-.464l-2.18-2.289a.492.492 0 01-.14-.348V6.34c0-.065.025-.128.069-.174a.228.228 0 01.165-.072h2.266v-.656c0-.174.066-.341.183-.464a.607.607 0 01.442-.193h.528A3.312 3.312 0 0112 4.125c.706 0 1.395.229 1.973.656h.527a.61.61 0 01.442.192c.117.123.183.29.183.464v.656h2.266a.23.23 0 01.166.072.253.253 0 01.069.174v.206a.51.51 0 01-.137.348l-2.18 2.289a.674.674 0 00-.183.464v1.041h2.266a.23.23 0 01.166.072.253.253 0 01.069.174v.206a.51.51 0 01-.137.348l-2.18 2.289a.674.674 0 00-.183.464v1.041h2.264z"/><path fill-rule="evenodd" d="M12 15.422a1.495 1.495 0 00-1.385.926 1.496 1.496 0 00.326 1.635A1.5 1.5 0 1012 15.422zM12 10.828a1.495 1.495 0 00-1.385.926 1.496 1.496 0 00.326 1.635A1.5 1.5 0 1012 10.828zM12 6.234a1.495 1.495 0 00-1.385.926 1.504 1.504 0 00.326 1.635 1.5 1.5 0 001.633.325A1.5 1.5 0 0012 6.234z"/></symbol><symbol viewBox="0 0 24 24" id="object--traffic-light--pedestrians" xmlns="http://www.w3.org/2000/svg"><path d="M12 3c-.822 0-1.615.226-2.315.656H9.5c-.471 0-.929.197-1.257.541-.208.22-.355.484-.432.772H6.609A1.362 1.362 0 005.25 6.34v.206c0 .422.159.82.447 1.123L7.5 9.563h-.891a1.362 1.362 0 00-1.359 1.371v.206c0 .422.159.82.447 1.123L7.5 14.156h-.891a1.362 1.362 0 00-1.359 1.371v.206c0 .422.159.82.447 1.123l2.053 2.155v.206c0 .465.175.906.493 1.24A1.74 1.74 0 009.5 21h5c.471 0 .929-.197 1.257-.541.318-.334.493-.774.493-1.24v-.207l2.052-2.155c.288-.302.447-.701.448-1.123v-.207c0-.356-.135-.693-.379-.95a1.358 1.358 0 00-.98-.421H16.5l1.803-1.893c.288-.302.447-.701.448-1.123v-.207c0-.356-.135-.693-.379-.95a1.358 1.358 0 00-.98-.421H16.5l1.802-1.892c.288-.302.447-.701.448-1.123V6.34c0-.356-.135-.693-.379-.95a1.358 1.358 0 00-.98-.421h-1.202a1.787 1.787 0 00-.432-.771 1.746 1.746 0 00-1.257-.541h-.185A4.393 4.393 0 0012 3z"/><path fill-rule="evenodd" fill="#F35700" d="M17.391 15.281c.062 0 .122.026.166.072s.069.109.069.174v.206a.51.51 0 01-.137.348l-2.18 2.289a.674.674 0 00-.183.464v.385c0 .174-.066.341-.183.464s-.276.192-.442.192h-5c-.166 0-.325-.069-.442-.192s-.183-.29-.183-.464v-.385a.674.674 0 00-.183-.464l-2.18-2.289a.502.502 0 01-.137-.347v-.206c0-.065.025-.128.069-.174a.23.23 0 01.166-.072h2.266v-1.041a.674.674 0 00-.183-.464l-2.18-2.289a.503.503 0 01-.137-.348v-.206c0-.065.025-.128.069-.174a.23.23 0 01.166-.072h2.266V9.647a.674.674 0 00-.183-.464l-2.18-2.289a.492.492 0 01-.14-.348V6.34c0-.065.025-.128.069-.174a.228.228 0 01.165-.072h2.266v-.656c0-.174.066-.341.183-.464a.607.607 0 01.442-.193h.528A3.312 3.312 0 0112 4.125c.706 0 1.395.229 1.973.656h.527a.61.61 0 01.442.192c.117.123.183.29.183.464v.656h2.266a.23.23 0 01.166.072.253.253 0 01.069.174v.206a.51.51 0 01-.137.348l-2.18 2.289a.674.674 0 00-.183.464v1.041h2.266a.23.23 0 01.166.072.253.253 0 01.069.174v.206a.51.51 0 01-.137.348l-2.18 2.289a.674.674 0 00-.183.464v1.041h2.264z"/><path fill-rule="evenodd" d="M12 15.422a1.495 1.495 0 00-1.385.926 1.496 1.496 0 00.326 1.635A1.5 1.5 0 1012 15.422zM12 10.828a1.495 1.495 0 00-1.385.926 1.496 1.496 0 00.326 1.635A1.5 1.5 0 1012 10.828zM12 6.234a1.495 1.495 0 00-1.385.926 1.504 1.504 0 00.326 1.635 1.5 1.5 0 001.633.325A1.5 1.5 0 0012 6.234z"/></symbol><symbol viewBox="0 0 24 24" id="object--trash-can" xmlns="http://www.w3.org/2000/svg"><path d="M13.014 4h-2.027c-1.226 0-2.038.248-2.718.831a2.765 2.765 0 00-.922 1.479H6.274c-.435 0-.85.151-1.171.426-.362.31-.57.754-.57 1.218v.578c0 .464.208.908.57 1.218.133.114.283.207.443.277l.002.042.594 8.129c.039.522.293.994.715 1.332.378.303.861.47 1.361.47h7.563a2.18 2.18 0 001.361-.469c.422-.338.675-.811.714-1.33l.594-8.128.002-.045c.161-.07.31-.163.444-.277.362-.31.57-.754.57-1.218v-.578c0-.464-.208-.908-.57-1.218a1.794 1.794 0 00-1.171-.426h-1.073a2.771 2.771 0 00-.922-1.48C15.053 4.249 14.24 4 13.014 4z"/><path fill-rule="evenodd" fill="#50D3FB" d="M17.05 9.688c.046 0 .092.008.134.023a.341.341 0 01.112.067.29.29 0 01.072.1.259.259 0 01.02.116l-.594 8.126a.828.828 0 01-.319.578 1.112 1.112 0 01-.694.235H8.219c-.258 0-.506-.083-.694-.234a.828.828 0 01-.319-.578l-.593-8.126a.258.258 0 01.091-.216.378.378 0 01.246-.091h10.1zM17.727 9.11H6.274a.734.734 0 01-.476-.169.537.537 0 01-.198-.408v-.578c0-.153.071-.3.197-.409a.736.736 0 01.476-.169h2.021c0-.846.207-1.341.669-1.737.461-.396 1.036-.574 2.023-.574h2.028c.987 0 1.562.178 2.023.574.461.396.668.89.668 1.737h2.021c.179 0 .35.061.476.169a.54.54 0 01.198.409v.578c0 .153-.071.3-.197.409a.731.731 0 01-.476.168z"/><path fill-rule="evenodd" d="M14.024 6.509a1.336 1.336 0 00-.47-.237 1.519 1.519 0 00-.542-.05h-2.024a1.498 1.498 0 00-.542.05c-.174.049-.335.13-.47.237a1.087 1.087 0 00-.275.403.962.962 0 00-.058.465h4.716a.974.974 0 00-.058-.465 1.116 1.116 0 00-.277-.403z"/></symbol><symbol viewBox="0 0 24 24" id="object--water-valve" xmlns="http://www.w3.org/2000/svg"><path d="M18.686 11.748h-2.701V10.72a.643.643 0 00-.643-.643h-2.699v-1.5h2.63a.643.643 0 000-1.286h-2.63v-.696a.643.643 0 00-1.286 0v.695h-2.63a.643.643 0 000 1.286h2.63v1.5H8.658a.643.643 0 00-.643.643v1.028H5.314A2.318 2.318 0 003 14.062a2.317 2.317 0 002.314 2.315h2.701v1.028c0 .355.288.643.643.643h6.685a.643.643 0 00.643-.643v-1.028h2.701a2.317 2.317 0 002.314-2.315 2.318 2.318 0 00-2.315-2.314z"/><path fill="#D8E0E4" d="M14.699 16.762v-1.028c0-.355.288-.643.643-.643h3.344a1.03 1.03 0 000-2.058h-3.344a.643.643 0 01-.643-.643v-1.028H9.301v1.028a.643.643 0 01-.643.643H5.314a1.028 1.028 0 000 2.058h3.344c.355 0 .643.288.643.643v1.028h5.398z"/></symbol></svg>