<svg xmlns="http://www.w3.org/2000/svg" width="700" height="560"><defs><clipPath id="a"><path d="M-130.5 657.362c3.043 0 5.5 2.457 5.5 5.5s-2.457 5.5-5.5 5.5-5.5-2.457-5.5-5.5 2.457-5.5 5.5-5.5z" style="text-indent:0;text-align:start;line-height:normal;text-transform:none;block-progression:tb;-inkscape-font-specification:Sans" color="#000" fill="#f0f" overflow="visible" enable-background="accumulate" font-family="Sans"/></clipPath></defs><g transform="translate(-25)"><path d="M334.5 3l-6.5 3v1l6.5 3h1l6.5-3v-1l-6.5-3h-1zm-5.406 6.5l-1.094.5v1l6.5 3h1l6.5-3v-1l-1.094-.5-5.406 2.5h-1l-5.406-2.5zm0 4l-1.094.5v1l6.5 3h1l6.5-3v-1l-1.094-.5-5.406 2.5h-1l-5.406-2.5z" color="#000" fill="#fff" overflow="visible" enable-background="accumulate"/><rect width="700" height="320" x="25" color="#000" overflow="visible" enable-background="accumulate" fill="none"/><g transform="translate(505 -653.362)" fill="#1a1a1a" color="#000"><path d="M-130.5 655.362c-4.142 0-7.5 3.358-7.5 7.5 0 4.142 3.358 7.5 7.5 7.5 4.142 0 7.5-3.358 7.5-7.5 0-4.142-3.358-7.5-7.5-7.5zm0 1c3.584 0 6.5 2.916 6.5 6.5s-2.916 6.5-6.5 6.5-6.5-2.916-6.5-6.5 2.916-6.5 6.5-6.5z" overflow="visible" enable-background="accumulate"/><g clip-path="url(#a)"><rect width="1" height="6" x="-131" y="657.362" overflow="visible" enable-background="accumulate"/><g><path d="M-125 662.862c0 3.038-2.462 5.5-5.5 5.5v-5.5z" opacity=".2" overflow="visible" enable-background="accumulate"/><path d="M-126 667.362l-4.5-4.5v6.5z" opacity=".1" overflow="visible" enable-background="accumulate"/><path d="M-136 662.862c0 3.038 2.462 5.5 5.5 5.5v-5.5z" opacity=".4" overflow="visible" enable-background="accumulate"/><path d="M-136 662.862c0-3.038 2.462-5.5 5.5-5.5v5.5z" opacity=".6" overflow="visible" enable-background="accumulate"/><path d="M-130.5 662.862l-4 4.5-2.688-4.5z" opacity=".1" overflow="visible" enable-background="accumulate"/><path d="M-135 658.362l4.5 4.5v-6.5z" opacity=".1" overflow="visible" enable-background="accumulate"/></g></g></g><path d="M388 10v-2l10-4h2v2l-4 10h-2v-6z" color="#000" fill="#fff" overflow="visible" enable-background="accumulate"/><path d="M388 30v-2l10-4h2v2l-4 10h-2v-6z" color="#000" fill="#fff" overflow="visible" enable-background="accumulate"/><path d="M388 50v-2l10-4h2v2l-4 10h-2v-6z" opacity=".5" color="#000" overflow="visible" enable-background="accumulate"/><path d="M114 2l-5 4.5 5 4.5v-3h3l1 1v3l-1 1h-5l-1 1v1l1 1h5l2-1 1-1 1-2v-3l-1-2-1-1-2-1h-3zm22 0v3h-3l-2 1-1 1-1 2v3l1 2 1 1 2 1h5l1-1v-1l-1-1h-5l-1-1v-3l1-1h3v3l5-4.5zm-57 1l-1 1v1.594l-6.406 6.406h-1.594l-1 1v2l1 1h2l1-1v-1.594l6.406-6.406h1.594l1-1v-2l-1-1zm96 0l-6 6 1 1h3v6l1 1h2l1-1v-6h3l1-1zm-118 1c-2.761 0-5 2.239-5 5s5 7 5 7 5-4.239 5-7-2.239-5-5-5zm23 0c.552 0 1 .448 1 1s-.448 1-1 1c-.252 0-.481-.097-.656-.25l-.094-.094c-.153-.176-.25-.405-.25-.656 0-.552.448-1 1-1zm10 0l-1 1v2l1 1v4l-1 1v2l1 1h2l1-1h4l1 1h2l1-1v-2l-1-1v-4l1-1v-2l-1-1h-2l-1 1h-4l-1-1zm69.5 0l-4.938 8.563-3.563-3.563h-1l-1 1v1l5 5h2l6-10v-1l-1-1zm30.5 0l-1 1v1l4 4-4 4v1l1 1h1l4-4 4 4h1l1-1v-1l-4-4 4-4v-1l-1-1h-1l-4 4-4-4zm21 0l-1 1v1l1 1h8l1-1v-1l-1-1zm-120 1c.552 0 1 .448 1 1s-.448 1-1 1-1-.448-1-1 .448-1 1-1zm8 0c.552 0 1 .448 1 1s-.448 1-1 1-1-.448-1-1 .448-1 1-1zm-41.844 2c1.105 0 2 .895 2 2s-.895 2-2 2-2-.895-2-2 .895-2 2-2zm35.844 0h4l1 1v4l-1 1h-4l-1-1v-4zm118 1v7l1 1h6l1-1v-7zm2 2h1v4h-1v-1zm3 0h1v4h-1zm-145 3c.252 0 .481.097.656.25l.094.094c.153.176.25.405.25.656 0 .552-.448 1-1 1s-1-.448-1-1 .448-1 1-1zm20 0c.552 0 1 .448 1 1s-.448 1-1 1-1-.448-1-1 .448-1 1-1zm8 0c.552 0 1 .448 1 1s-.448 1-1 1-1-.448-1-1 .448-1 1-1z" color="#000" fill="#222" overflow="visible" enable-background="accumulate"/><g transform="translate(-511 -44)" opacity=".5" color="#000" overflow="visible" enable-background="accumulate"><path d="M927.5 88c-2.485 0-4.5 2.015-4.5 4.5 0 .723.197 1.394.5 2l-3.5 3.5v2h2l3.5-3.5c.606.303 1.277.5 2 .5 2.485 0 4.5-2.015 4.5-4.5s-2.015-4.5-4.5-4.5zm0 2c1.381 0 2.5 1.119 2.5 2.5s-1.119 2.5-2.5 2.5-2.5-1.119-2.5-2.5 1.119-2.5 2.5-2.5z" color="#000" overflow="visible" enable-background="accumulate"/></g><path d="M274 3l-1 1v4h-4l-1 1v1l1 1h4v4l1 1h1l1-1v-4h4l1-1v-1l-1-1h-4v-4l-1-1h-1z" color="#000" fill="#222" overflow="visible" enable-background="accumulate"/><path d="M290 8h11l1 1v1l-1 1h-11l-1-1v-1z" color="#000" fill="#fff" overflow="visible" enable-background="accumulate"/><path d="M313.5 3c-3.038 0-5.5 2.462-5.5 5.5s2.462 5.5 5.5 5.5c1.006 0 1.939-.278 2.75-.75l3.75 3.75h1l1-1v-1l-3.75-3.75c.472-.811.75-1.744.75-2.75 0-3.038-2.462-5.5-5.5-5.5zm-.5 2h1l2 1 1 2v1l-1 2-2 1h-1l-2-1-1-2v-1l1-2 2-1z" color="#000" fill="#222" overflow="visible" enable-background="accumulate"/><path d="M354.5 3c-1.5 0-2.5 2-2.5 3v2c0 1 1 2.154 1 2.154v.846l-1.692.385c-1.454.33-2.026 1.236-2.154 2.769l-.154 1.846h12l-.154-1.846c-.128-1.533-.7-2.439-2.154-2.769l-1.692-.385v-.846s1-1.154 1-2.154v-2c0-1-1-3-2.5-3z" color="#000" fill="#1a1a1a" overflow="visible" enable-background="accumulate"/><g transform="translate(505 -613.362)" opacity=".5" color="#000"><path d="M-130.5 655.362c-4.142 0-7.5 3.358-7.5 7.5 0 4.142 3.358 7.5 7.5 7.5 4.142 0 7.5-3.358 7.5-7.5 0-4.142-3.358-7.5-7.5-7.5zm0 1c3.584 0 6.5 2.916 6.5 6.5s-2.916 6.5-6.5 6.5-6.5-2.916-6.5-6.5 2.916-6.5 6.5-6.5z" overflow="visible" enable-background="accumulate"/><g clip-path="url(#a)"><rect width="1" height="6" x="-131" y="657.362" overflow="visible" enable-background="accumulate"/><g><path d="M-125 662.862c0 3.038-2.462 5.5-5.5 5.5v-5.5z" opacity=".2" overflow="visible" enable-background="accumulate"/><path d="M-126 667.362l-4.5-4.5v6.5z" opacity=".1" overflow="visible" enable-background="accumulate"/><path d="M-136 662.862c0 3.038 2.462 5.5 5.5 5.5v-5.5z" opacity=".4" overflow="visible" enable-background="accumulate"/><path d="M-136 662.862c0-3.038 2.462-5.5 5.5-5.5v5.5z" opacity=".6" overflow="visible" enable-background="accumulate"/><path d="M-130.5 662.862l-4 4.5-2.688-4.5z" opacity=".1" overflow="visible" enable-background="accumulate"/><path d="M-135 658.362l4.5 4.5v-6.5z" opacity=".1" overflow="visible" enable-background="accumulate"/></g></g></g><path d="M416.5 4c-2.485 0-4.5 2.015-4.5 4.5 0 .723.197 1.394.5 2l-3.5 3.5v2h2l3.5-3.5c.606.303 1.277.5 2 .5 2.485 0 4.5-2.015 4.5-4.5s-2.015-4.5-4.5-4.5zm0 2c1.381 0 2.5 1.119 2.5 2.5s-1.119 2.5-2.5 2.5-2.5-1.119-2.5-2.5 1.119-2.5 2.5-2.5z" color="#000" fill="#1c1c1c" overflow="visible" enable-background="accumulate"/><path d="M274 43l-1 1v4h-4l-1 1v1l1 1h4v4l1 1h1l1-1v-4h4l1-1v-1l-1-1h-4v-4l-1-1h-1z" color="#000" overflow="visible" enable-background="accumulate" opacity=".5"/><path d="M290 48h11l1 1v1l-1 1h-11l-1-1v-1z" color="#000" overflow="visible" enable-background="accumulate" opacity=".5"/><path d="M313.5 43c-3.038 0-5.5 2.462-5.5 5.5s2.462 5.5 5.5 5.5c1.006 0 1.939-.278 2.75-.75l3.75 3.75h1l1-1v-1l-3.75-3.75c.472-.811.75-1.744.75-2.75 0-3.038-2.462-5.5-5.5-5.5zm-.5 2h1l2 1 1 2v1l-1 2-2 1h-1l-2-1-1-2v-1l1-2 2-1z" opacity=".5" color="#000" overflow="visible" enable-background="accumulate"/><path d="M354.5 43c-1.5 0-2.5 2-2.5 3v2c0 1 1 2.154 1 2.154v.846l-1.692.385c-1.454.33-2.026 1.236-2.154 2.769l-.154 1.846h12l-.154-1.846c-.128-1.533-.7-2.439-2.154-2.769l-1.692-.385v-.846s1-1.154 1-2.154v-2c0-1-1-3-2.5-3z" opacity=".5" color="#000" overflow="visible" enable-background="accumulate"/><g transform="translate(505 -633.362)" fill="#fff" color="#000"><path d="M-130.5 655.362c-4.142 0-7.5 3.358-7.5 7.5 0 4.142 3.358 7.5 7.5 7.5 4.142 0 7.5-3.358 7.5-7.5 0-4.142-3.358-7.5-7.5-7.5zm0 1c3.584 0 6.5 2.916 6.5 6.5s-2.916 6.5-6.5 6.5-6.5-2.916-6.5-6.5 2.916-6.5 6.5-6.5z" overflow="visible" enable-background="accumulate"/><g clip-path="url(#a)"><rect width="1" height="6" x="-131" y="657.362" overflow="visible" enable-background="accumulate"/><g><path d="M-125 662.862c0 3.038-2.462 5.5-5.5 5.5v-5.5z" opacity=".2" overflow="visible" enable-background="accumulate"/><path d="M-126 667.362l-4.5-4.5v6.5z" opacity=".1" overflow="visible" enable-background="accumulate"/><path d="M-136 662.862c0 3.038 2.462 5.5 5.5 5.5v-5.5z" opacity=".4" overflow="visible" enable-background="accumulate"/><path d="M-136 662.862c0-3.038 2.462-5.5 5.5-5.5v5.5z" opacity=".6" overflow="visible" enable-background="accumulate"/><path d="M-130.5 662.862l-4 4.5-2.688-4.5z" opacity=".1" overflow="visible" enable-background="accumulate"/><path d="M-135 658.362l4.5 4.5v-6.5z" opacity=".1" overflow="visible" enable-background="accumulate"/></g></g></g><path d="M416.5 24c-2.485 0-4.5 2.015-4.5 4.5 0 .723.197 1.394.5 2l-3.5 3.5v2h2l3.5-3.5c.606.303 1.277.5 2 .5 2.485 0 4.5-2.015 4.5-4.5s-2.015-4.5-4.5-4.5zm0 2c1.381 0 2.5 1.119 2.5 2.5s-1.119 2.5-2.5 2.5-2.5-1.119-2.5-2.5 1.119-2.5 2.5-2.5z" color="#000" fill="#fff" overflow="visible" enable-background="accumulate"/><path d="M31 144l-1 1v1l1 1h8l1-1v-1l-1-1zm0 4v7l1 1h6l1-1v-7zm2 2h1v4h-1v-1zm3 0h1v4h-1z" color="#000" fill="#222" overflow="visible" enable-background="accumulate"/><path d="M89 145.013c-1 0-2 1-2 2v2h3l2 1-2 1h-3v2c0 1 1 2 2 2h1c2 0 2.487-.974 3-2l1-2 9-5s0-1-2-1l-7.031 3.906-.969-1.906c-.494-.988-1-2-3-2zm0 1h2l1 2h-4v-1c0-1.013 1-1 1-1zm8.094 4.719l-2 1 5.906 3.281c2 0 2-1 2-1zm-9.094 1.281h4l-1 2h-2s-1 0-1-1z" color="#000" fill="#222" overflow="visible" enable-background="accumulate"/><path d="M55 141c-1.105 0-2 .895-2 2s.895 2 2 2 2-.895 2-2-.895-2-2-2z" color="#000" fill="#222" overflow="visible" enable-background="accumulate"/><path d="M191 144c-1.105 0-2 .895-2 2s.895 2 2 2 2-.895 2-2-.895-2-2-2z" color="#000" fill="#222" overflow="visible" enable-background="accumulate"/><path d="M133 145l-4 5 4 5h2v-1l-3.5-4 3.5-4v-1h-2z" color="#000" fill="#222" overflow="visible" enable-background="accumulate"/><path d="M139 145l-4 5 4 5h2v-1l-3.5-4 3.5-4v-1h-2z" color="#000" fill="#222" overflow="visible" enable-background="accumulate"/><path d="M47.844 146c-.777.067-1.494.587-1.75 1.375-.341 1.051.231 2.19 1.281 2.531 1.051.341 2.19-.231 2.531-1.281.341-1.051-.231-2.19-1.281-2.531-.263-.085-.522-.116-.781-.094z" color="#000" fill="#222" overflow="visible" enable-background="accumulate"/><path d="M61.781 146c-.132.015-.275.051-.406.094-1.051.341-1.623 1.481-1.281 2.531.341 1.051 1.481 1.623 2.531 1.281 1.051-.341 1.623-1.481 1.281-2.531-.299-.919-1.201-1.479-2.125-1.375z" color="#000" fill="#222" overflow="visible" enable-background="accumulate"/><path d="M67 148c-1.105 0-2 .895-2 2s.895 2 2 2 2-.895 2-2-.895-2-2-2z" color="#000" fill="#222" overflow="visible" enable-background="accumulate"/><path d="M75 148c-1.105 0-2 .895-2 2s.895 2 2 2 2-.895 2-2-.895-2-2-2z" color="#000" fill="#222" overflow="visible" enable-background="accumulate"/><path d="M83 148c-1.105 0-2 .895-2 2s.895 2 2 2 2-.895 2-2-.895-2-2-2z" color="#000" fill="#222" overflow="visible" enable-background="accumulate"/><path d="M115 148c-1.105 0-2 .895-2 2s.895 2 2 2 2-.895 2-2-.895-2-2-2z" color="#000" fill="#222" overflow="visible" enable-background="accumulate"/><path d="M155 141l-3 3 1 1h1v2h2v-2h1l1-1-3-3z" color="#000" fill="#7092ff" overflow="visible" enable-background="accumulate"/><path d="M149 147l-3 3 3 3 1-1v-1h2v-2h-2v-1l-1-1z" color="#000" fill="#7092ff" overflow="visible" enable-background="accumulate"/><path d="M161 147l-1 1v1h-2v2h2v1l1 1 3-3-3-3z" color="#000" fill="#7092ff" overflow="visible" enable-background="accumulate"/><path d="M155 148c-1.105 0-2 .895-2 2s.895 2 2 2 2-.895 2-2-.895-2-2-2z" color="#000" fill="#222" overflow="visible" enable-background="accumulate"/><path d="M154 153v2h-1l-1 1 3 3 3-3-1-1h-1v-2h-2z" color="#000" fill="#7092ff" overflow="visible" enable-background="accumulate"/><path d="M215 148c-1.105 0-2 .895-2 2s.895 2 2 2 2-.895 2-2-.895-2-2-2z" color="#000" fill="#222" overflow="visible" enable-background="accumulate"/><path d="M191 152c-1.105 0-2 .895-2 2s.895 2 2 2 2-.895 2-2-.895-2-2-2z" color="#000" fill="#222" overflow="visible" enable-background="accumulate"/><path d="M199 152c-1.105 0-2 .895-2 2s.895 2 2 2 2-.895 2-2-.895-2-2-2z" color="#000" fill="#222" overflow="visible" enable-background="accumulate"/><path d="M51.063 154c-.642-.022-1.282.254-1.688.813-.649.894-.456 2.163.438 2.813.894.649 2.163.456 2.813-.438.649-.894.456-2.163-.438-2.813-.335-.243-.74-.362-1.125-.375z" color="#000" fill="#222" overflow="visible" enable-background="accumulate"/><path d="M58.938 154c-.385.013-.79.132-1.125.375-.894.649-1.087 1.919-.438 2.813.649.894 1.919 1.087 2.813.438.894-.649 1.087-1.919.438-2.813-.406-.559-1.046-.834-1.688-.813z" color="#000" fill="#222" overflow="visible" enable-background="accumulate"/><path d="M52.031 142.607c-1.329.531-2.444 1.419-3.313 2.531l.219.031c.521.169.942.49 1.281.875.583-.697 1.321-1.238 2.156-1.625-.228-.422-.375-.897-.375-1.406 0-.14.012-.271.031-.406zm5.938 0c.019.135.031.266.031.406 0 .509-.147.984-.375 1.406.835.387 1.573.928 2.156 1.625.339-.385.761-.706 1.281-.875l.219-.063c-.866-1.103-1.991-1.972-3.313-2.5zm-10.938 8.219c.133 1.354.618 2.615 1.344 3.688l.188-.281c.299-.411.69-.723 1.125-.938-.439-.721-.728-1.561-.844-2.438-.564.165-1.185.163-1.781-.031h-.031zm15.906 0c-.597.194-1.218.196-1.781.031-.115.877-.404 1.717-.844 2.438.438.204.821.519 1.125.938l.188.281c.725-1.072 1.211-2.334 1.344-3.688h-.031zm-8.938 5.344c-.03.558-.214 1.114-.563 1.594l-.094.094c.54.116 1.082.188 1.656.188.574 0 1.116-.072 1.656-.188l-.094-.094c-.349-.48-.532-1.035-.563-1.594-.329.053-.655.094-1 .094s-.671-.04-1-.094z" style="text-indent:0;text-align:start;line-height:normal;text-transform:none;block-progression:tb;-inkscape-font-specification:Sans" color="#000" fill="#7092ff" overflow="visible" enable-background="accumulate" font-family="Sans"/><path d="M109 146.013l-4 4 4 4 1-1v-2h2.188c-.114-.316-.188-.644-.188-1 0-.345.08-.691.188-1h-2.188v-2l-1-1zm12 0l-1 1v2h-2.188c.107.309.188.655.188 1 0 .356-.074.684-.188 1h2.188v2l1 1 4-4-4-4z" color="#000" fill="#7092ff" overflow="visible" enable-background="accumulate"/><path d="M174 143l-1 1v4h-4l-1 1v2l1 1h4v4l1 1h2l1-1v-4h4l1-1v-2l-1-1h-4v-4l-1-1z" color="#000" fill="#222" overflow="visible" enable-background="accumulate"/><path d="M231 45l-1 1v1l3 3-3 3v1l1 1h1l3-3 3 3h1l1-1v-1l-3-3 3-3v-1l-1-1h-1l-3 3-3-3z" color="#000" fill="#ccc" overflow="visible" enable-background="accumulate"/><path d="M215 140l-1 1v1.063c-3.944.494-7 3.859-7 7.938 0 4.418 3.582 8 8 8s8-3.582 8-8c0-2.467-1.119-4.659-2.875-6.125l-1.406 1.406c1.395 1.099 2.281 2.805 2.281 4.719 0 3.314-2.686 6-6 6s-6-2.686-6-6c0-2.976 2.159-5.433 5-5.906v.906l1 1 3-3-3-3z" color="#000" fill="#7092ff" overflow="visible" enable-background="accumulate"/><path d="M233 142c-1.333 0-2.219.781-2.719 1.281-.5.5-.615.719-1.281.719h-1v2h1c1.333 0 2.219-.781 2.719-1.281.5-.5.615-.719 1.281-.719.167 0 .206.009.406.25.201.241.438.688.688 1.188.25.5.513 1.053.938 1.563.424.509 1.135 1 1.969 1 1.333 0 2.219-.781 2.719-1.281.5-.5.615-.719 1.281-.719h1v-2h-1c-1.333 0-2.219.781-2.719 1.281-.5.5-.615.719-1.281.719-.167 0-.206-.009-.406-.25-.201-.241-.438-.688-.688-1.188-.25-.5-.513-1.053-.938-1.563-.424-.509-1.135-1-1.969-1z" style="text-indent:0;text-align:start;line-height:normal;text-transform:none;block-progression:tb;-inkscape-font-specification:Sans" color="#000" fill="#222" overflow="visible" enable-background="accumulate" font-family="Sans"/><path d="M228 156v2h14v-2h-14z" style="text-indent:0;text-align:start;line-height:normal;text-transform:none;block-progression:tb;-inkscape-font-specification:Sans" color="#000" fill="#222" overflow="visible" enable-background="accumulate" font-family="Sans"/><path d="M450 10l8 7 1-1v-12l-1-1z" color="#000" fill="#1a1a1a" overflow="visible" enable-background="accumulate"/><path d="M49 205l-1 1v9l1 1h12l1-1v-9l-1-1zm1 3l5 2.813 5-2.813v1.5l-5 3-5-3z" color="#000" fill="#a9a9a9" overflow="visible" enable-background="accumulate"/><path d="M71 203l-1 1v12l1 1h8l1-1v-12l-1-1h-8zm1 2h6v5h-6v-5zm0 7h6v1h-6v-1zm0 2h6v1h-6v-1z" color="#000" fill="#a9a9a9" overflow="visible" enable-background="accumulate"/><path d="M90 204l-1 1v8l-2 2 1 1h14l1-1-2-2v-8l-1-1h-10zm1 2h8v5h-8v-5z" color="#000" fill="#a9a9a9" overflow="visible" enable-background="accumulate"/><path d="M115 202l-5 4 1 1h2v2h4v-2h2l1-1zm-2 9v2h-2l-1 1 5 4 5-4-1-1h-2v-2z" color="#000" fill="#a9a9a9" overflow="visible" enable-background="accumulate"/><path d="M127.5 205l-1 1 5 10h1.219l2.281-3.938 2.281 3.938h1.219l5-10-1-1h-1l-3.5 7.5-1.5-2.5 2-4-.5-1h-1.5l-1.5 3.5-1.5-3.5h-1.5l-.5 1 2 4-1.5 2.5-3.5-7.5z" color="#000" fill="#a9a9a9" overflow="visible" enable-background="accumulate"/><path d="M35 202c-4.418 0-8 3.582-8 8s3.582 8 8 8 8-3.582 8-8-3.582-8-8-8zm0 2c3.314 0 6 2.686 6 6s-2.686 6-6 6-6-2.686-6-6 2.686-6 6-6z" color="#000" fill="#a9a9a9" overflow="visible" enable-background="accumulate"/><path d="M11 207a1 1 0 1 1-2 0 1 1 0 1 1 2 0z" transform="matrix(2 0 0 2 15 -207)" color="#000" fill="#a9a9a9" overflow="visible" enable-background="accumulate"/><path d="M33 211l1-1h2l1 1v3h-4z" color="#000" fill="#a9a9a9" overflow="visible" enable-background="accumulate"/><path d="M150 204l-1 1v11l1 1h8l3-3v-9l-1-1h-10zm5 2c.552 0 1 .448 1 1s-.448 1-1 1-1-.448-1-1 .448-1 1-1zm-4 4h8v1h-8v-1zm0 2h8v1h-8v-1zm0 2h5v1h-5v-1z" color="#000" fill="#a9a9a9" overflow="visible" enable-background="accumulate"/><path d="M171.063 208.406c-1.795.759-3.063 2.523-3.063 4.594 0 2.761 2.239 5 5 5 1.995 0 3.698-1.185 4.5-2.875l-.656-1.125h-1.031c-.416 1.158-1.511 2-2.813 2-1.657 0-3-1.343-3-3 0-.884.391-1.67 1-2.219v-1.781c0-.206.022-.399.063-.594z" color="#000" fill="#a9a9a9" overflow="visible" enable-background="accumulate"/><path d="M174 202c-1.105 0-2 .895-2 2s.895 2 2 2 2-.895 2-2-.895-2-2-2zm0 5c-1.108 0-2 .892-2 2v2c0 1.108.892 2 2 2h3.5l1.688 2.906c.269.463.848.641 1.313.375h.031c.464-.266.613-.881.344-1.344l-2.031-3.469-.063-.063-.156-.156c-.077-.067-.158-.117-.25-.156-.105-.045-.198-.088-.313-.094h-2.0629999999999997v-2c0-1.108-.892-2-2-2z" color="#000" fill="#a9a9a9" overflow="visible" enable-background="accumulate"/><rect width="38" height="38" rx="0" ry="0" x="28.5" y="83.5" color="#000" fill="#e06d5f" fill-opacity=".157" stroke="#e06d5f" overflow="visible" enable-background="accumulate"/><rect width="38" height="38" rx="0" ry="0" x="88.5" y="83.5" color="#000" fill="#77d3de" fill-opacity=".192" stroke="#77d3de" overflow="visible" enable-background="accumulate"/><rect width="38" height="38" rx="0" ry="0" x="148.5" y="83.5" color="#000" fill="#8cd05f" fill-opacity=".157" stroke="#8cd05f" overflow="visible" enable-background="accumulate"/><rect width="38" height="38" rx="0" ry="0" x="208.5" y="83.5" color="#000" fill="#aaa" fill-opacity=".157" stroke="#aaa" overflow="visible" enable-background="accumulate"/><g color="#000" transform="translate(326 239.638)"><path d="M106.031-129.344a3.469 3.469 0 1 1-6.938 0 3.469 3.469 0 1 1 6.938 0z" transform="matrix(1.009 0 0 1.009 -400.986 12.371)" opacity=".2" overflow="visible" enable-background="accumulate"/><path d="M106.031-129.344a3.469 3.469 0 1 1-6.938 0 3.469 3.469 0 1 1 6.938 0z" transform="matrix(.721 0 0 .721 -371.419 -24.917)" fill="#fff" overflow="visible" enable-background="accumulate"/></g><g color="#000" transform="translate(326 200.638)"><path d="M106.031-129.344a3.469 3.469 0 1 1-6.938 0 3.469 3.469 0 1 1 6.938 0z" transform="matrix(1.009 0 0 1.009 -400.986 13.371)" opacity=".2" overflow="visible" enable-background="accumulate"/><path d="M106.031-129.344a3.469 3.469 0 1 1-6.938 0 3.469 3.469 0 1 1 6.938 0z" transform="matrix(.721 0 0 .721 -371.419 -23.917)" fill="#fff" overflow="visible" enable-background="accumulate"/></g><g color="#000" transform="translate(365 239.638)"><path d="M106.031-129.344a3.469 3.469 0 1 1-6.938 0 3.469 3.469 0 1 1 6.938 0z" transform="matrix(1.009 0 0 1.009 -401.986 12.371)" opacity=".2" overflow="visible" enable-background="accumulate"/><path d="M106.031-129.344a3.469 3.469 0 1 1-6.938 0 3.469 3.469 0 1 1 6.938 0z" transform="matrix(.721 0 0 .721 -372.419 -24.917)" fill="#fff" overflow="visible" enable-background="accumulate"/></g><g color="#000" transform="translate(365 200.638)"><path d="M106.031-129.344a3.469 3.469 0 1 1-6.938 0 3.469 3.469 0 1 1 6.938 0z" transform="matrix(1.009 0 0 1.009 -401.986 13.371)" opacity=".2" overflow="visible" enable-background="accumulate"/><path d="M106.031-129.344a3.469 3.469 0 1 1-6.938 0 3.469 3.469 0 1 1 6.938 0z" transform="matrix(.721 0 0 .721 -372.419 -23.917)" fill="#fff" overflow="visible" enable-background="accumulate"/></g><g color="#000" transform="translate(386 239.638)"><path d="M106.031-129.344a3.469 3.469 0 1 1-6.938 0 3.469 3.469 0 1 1 6.938 0z" transform="matrix(1.009 0 0 1.009 -400.986 12.371)" opacity=".2" overflow="visible" enable-background="accumulate"/><path d="M106.031-129.344a3.469 3.469 0 1 1-6.938 0 3.469 3.469 0 1 1 6.938 0z" transform="matrix(.721 0 0 .721 -371.419 -24.917)" fill="#fff" overflow="visible" enable-background="accumulate"/></g><g color="#000" transform="translate(386 200.638)"><path d="M106.031-129.344a3.469 3.469 0 1 1-6.938 0 3.469 3.469 0 1 1 6.938 0z" transform="matrix(1.009 0 0 1.009 -400.986 13.371)" opacity=".2" overflow="visible" enable-background="accumulate"/><path d="M106.031-129.344a3.469 3.469 0 1 1-6.938 0 3.469 3.469 0 1 1 6.938 0z" transform="matrix(.721 0 0 .721 -371.419 -23.917)" fill="#fff" overflow="visible" enable-background="accumulate"/></g><g color="#000" transform="translate(425 239.638)"><path d="M106.031-129.344a3.469 3.469 0 1 1-6.938 0 3.469 3.469 0 1 1 6.938 0z" transform="matrix(1.009 0 0 1.009 -401.986 12.371)" opacity=".2" overflow="visible" enable-background="accumulate"/><path d="M106.031-129.344a3.469 3.469 0 1 1-6.938 0 3.469 3.469 0 1 1 6.938 0z" transform="matrix(.721 0 0 .721 -372.419 -24.917)" fill="#fff" overflow="visible" enable-background="accumulate"/></g><g color="#000" transform="translate(425 200.638)"><path d="M106.031-129.344a3.469 3.469 0 1 1-6.938 0 3.469 3.469 0 1 1 6.938 0z" transform="matrix(1.009 0 0 1.009 -401.986 13.371)" opacity=".2" overflow="visible" enable-background="accumulate"/><path d="M106.031-129.344a3.469 3.469 0 1 1-6.938 0 3.469 3.469 0 1 1 6.938 0z" transform="matrix(.721 0 0 .721 -372.419 -23.917)" fill="#fff" overflow="visible" enable-background="accumulate"/></g><g color="#000" transform="translate(446 239.638)"><path d="M106.031-129.344a3.469 3.469 0 1 1-6.938 0 3.469 3.469 0 1 1 6.938 0z" transform="matrix(1.009 0 0 1.009 -400.986 12.371)" opacity=".2" overflow="visible" enable-background="accumulate"/><path d="M106.031-129.344a3.469 3.469 0 1 1-6.938 0 3.469 3.469 0 1 1 6.938 0z" transform="matrix(.721 0 0 .721 -371.419 -24.917)" fill="#fff" overflow="visible" enable-background="accumulate"/></g><g color="#000" transform="translate(446 200.638)"><path d="M106.031-129.344a3.469 3.469 0 1 1-6.938 0 3.469 3.469 0 1 1 6.938 0z" transform="matrix(1.009 0 0 1.009 -400.986 13.371)" opacity=".2" overflow="visible" enable-background="accumulate"/><path d="M106.031-129.344a3.469 3.469 0 1 1-6.938 0 3.469 3.469 0 1 1 6.938 0z" transform="matrix(.721 0 0 .721 -371.419 -23.917)" fill="#fff" overflow="visible" enable-background="accumulate"/></g><g color="#000" transform="translate(485 239.638)"><path d="M106.031-129.344a3.469 3.469 0 1 1-6.938 0 3.469 3.469 0 1 1 6.938 0z" transform="matrix(1.009 0 0 1.009 -401.986 12.371)" opacity=".2" overflow="visible" enable-background="accumulate"/><path d="M106.031-129.344a3.469 3.469 0 1 1-6.938 0 3.469 3.469 0 1 1 6.938 0z" transform="matrix(.721 0 0 .721 -372.419 -24.917)" fill="#fff" overflow="visible" enable-background="accumulate"/></g><g color="#000" transform="translate(485 200.638)"><path d="M106.031-129.344a3.469 3.469 0 1 1-6.938 0 3.469 3.469 0 1 1 6.938 0z" transform="matrix(1.009 0 0 1.009 -401.986 13.371)" opacity=".2" overflow="visible" enable-background="accumulate"/><path d="M106.031-129.344a3.469 3.469 0 1 1-6.938 0 3.469 3.469 0 1 1 6.938 0z" transform="matrix(.721 0 0 .721 -372.419 -23.917)" fill="#fff" overflow="visible" enable-background="accumulate"/></g><g color="#000" transform="translate(506 239.638)"><path d="M106.031-129.344a3.469 3.469 0 1 1-6.938 0 3.469 3.469 0 1 1 6.938 0z" transform="matrix(1.009 0 0 1.009 -400.986 12.371)" opacity=".2" overflow="visible" enable-background="accumulate"/><path d="M106.031-129.344a3.469 3.469 0 1 1-6.938 0 3.469 3.469 0 1 1 6.938 0z" transform="matrix(.721 0 0 .721 -371.419 -24.917)" fill="#fff" overflow="visible" enable-background="accumulate"/></g><g color="#000" transform="translate(506 200.638)"><path d="M106.031-129.344a3.469 3.469 0 1 1-6.938 0 3.469 3.469 0 1 1 6.938 0z" transform="matrix(1.009 0 0 1.009 -400.986 13.371)" opacity=".2" overflow="visible" enable-background="accumulate"/><path d="M106.031-129.344a3.469 3.469 0 1 1-6.938 0 3.469 3.469 0 1 1 6.938 0z" transform="matrix(.721 0 0 .721 -371.419 -23.917)" fill="#fff" overflow="visible" enable-background="accumulate"/></g><g color="#000" transform="translate(545 239.638)"><path d="M106.031-129.344a3.469 3.469 0 1 1-6.938 0 3.469 3.469 0 1 1 6.938 0z" transform="matrix(1.009 0 0 1.009 -401.986 12.371)" opacity=".2" overflow="visible" enable-background="accumulate"/><path d="M106.031-129.344a3.469 3.469 0 1 1-6.938 0 3.469 3.469 0 1 1 6.938 0z" transform="matrix(.721 0 0 .721 -372.419 -24.917)" fill="#fff" overflow="visible" enable-background="accumulate"/></g><g color="#000" transform="translate(545 200.638)"><path d="M106.031-129.344a3.469 3.469 0 1 1-6.938 0 3.469 3.469 0 1 1 6.938 0z" transform="matrix(1.009 0 0 1.009 -401.986 13.371)" opacity=".2" overflow="visible" enable-background="accumulate"/><path d="M106.031-129.344a3.469 3.469 0 1 1-6.938 0 3.469 3.469 0 1 1 6.938 0z" transform="matrix(.721 0 0 .721 -372.419 -23.917)" fill="#fff" overflow="visible" enable-background="accumulate"/></g><path d="M479 10l-8 7-1-1v-12l1-1z" color="#000" fill="#1a1a1a" overflow="visible" enable-background="accumulate"/><rect width="38" height="38" rx="0" ry="0" x="268.5" y="83.5" opacity=".15" color="#000" fill-opacity=".157" stroke="#000" overflow="visible" enable-background="accumulate"/><g color="#000" transform="translate(566 239.638)"><path d="M106.031-129.344a3.469 3.469 0 1 1-6.938 0 3.469 3.469 0 1 1 6.938 0z" transform="matrix(1.009 0 0 1.009 -400.986 12.371)" opacity=".2" overflow="visible" enable-background="accumulate"/><path d="M106.031-129.344a3.469 3.469 0 1 1-6.938 0 3.469 3.469 0 1 1 6.938 0z" transform="matrix(.721 0 0 .721 -371.419 -24.917)" fill="#fff" overflow="visible" enable-background="accumulate"/></g><g color="#000" transform="translate(566 200.638)"><path d="M106.031-129.344a3.469 3.469 0 1 1-6.938 0 3.469 3.469 0 1 1 6.938 0z" transform="matrix(1.009 0 0 1.009 -400.986 13.371)" opacity=".2" overflow="visible" enable-background="accumulate"/><path d="M106.031-129.344a3.469 3.469 0 1 1-6.938 0 3.469 3.469 0 1 1 6.938 0z" transform="matrix(.721 0 0 .721 -371.419 -23.917)" fill="#fff" overflow="visible" enable-background="accumulate"/></g><g color="#000" transform="translate(605 239.638)"><path d="M106.031-129.344a3.469 3.469 0 1 1-6.938 0 3.469 3.469 0 1 1 6.938 0z" transform="matrix(1.009 0 0 1.009 -401.986 12.371)" opacity=".2" overflow="visible" enable-background="accumulate"/><path d="M106.031-129.344a3.469 3.469 0 1 1-6.938 0 3.469 3.469 0 1 1 6.938 0z" transform="matrix(.721 0 0 .721 -372.419 -24.917)" fill="#fff" overflow="visible" enable-background="accumulate"/></g><g color="#000" transform="translate(605 200.638)"><path d="M106.031-129.344a3.469 3.469 0 1 1-6.938 0 3.469 3.469 0 1 1 6.938 0z" transform="matrix(1.009 0 0 1.009 -401.986 13.371)" opacity=".2" overflow="visible" enable-background="accumulate"/><path d="M106.031-129.344a3.469 3.469 0 1 1-6.938 0 3.469 3.469 0 1 1 6.938 0z" transform="matrix(.721 0 0 .721 -372.419 -23.917)" fill="#fff" overflow="visible" enable-background="accumulate"/></g><g transform="matrix(.391 0 0 .391 867.188 238.609)"><rect width="256" height="256" x="-2156" y="-47.638" color="#000" overflow="visible" enable-background="accumulate" fill="none"/><path d="M-2146-35.638l20 52.48-20 52.48 20 52.56-20 52.48 12.32 4.72 66.64-66.72 12 1.84 14.56-14.56c-8.574-9.933-15.053-21.791-18.56-34.88l6.88-5.52c-1.171-5.436-1.84-11.101-1.84-16.88 0-28.872 15.393-54.25 38.4-68.32l-25.36-9.68-52.56 20-52.48-20zm171.76 11.04c-36.76 0-66.56 29.8-66.56 66.56 0 36.76 29.8 66.56 66.56 66.56 36.76 0 66.56-29.8 66.56-66.56 0-36.76-29.8-66.56-66.56-66.56zm51.36 128.4c-13.877 11.568-31.694 18.56-51.12 18.56-5.779 0-11.444-.669-16.88-1.84l-5.52 6.8c-12.43-3.33-23.824-9.188-33.44-17.12l-15.04 15.04 1.84 11.12-55.84 55.92 5.36 2.08 52.56-20 52.48 20 52.48-20 20-52.48-6.88-18.08z" color="#000" fill="#7092ff" overflow="visible" enable-background="accumulate"/></g><g transform="translate(-810 -19)" color="#000"><rect width="100" height="100" x="935" y="239" opacity=".15" overflow="visible" enable-background="accumulate" fill="none"/><path d="M1035 259.47c-3.679 1.607-7.634 2.692-11.783 3.18 4.235-2.499 7.489-6.457 9.021-11.174-3.965 2.315-8.355 3.996-13.029 4.901-3.742-3.925-9.074-6.378-14.975-6.378-11.33 0-20.517 9.043-20.517 20.196 0 1.583.18 3.125.532 4.603-17.051-.842-32.169-8.883-42.287-21.103-1.766 2.983-2.778 6.452-2.778 10.154 0 7.007 3.622 13.189 9.127 16.811-3.363-.108-6.527-1.014-9.292-2.526l-.002.252c0 9.785 7.072 17.949 16.458 19.804-1.722.461-3.534.709-5.405.709-1.322 0-2.607-.126-3.86-.362 2.61 8.024 10.187 13.863 19.165 14.026-7.022 5.418-15.867 8.646-25.48 8.646-1.656 0-3.289-.095-4.894-.283 9.079 5.73 19.863 9.075 31.45 9.075 37.737 0 58.374-30.775 58.374-57.465 0-.876-.037-1.747-.063-2.613 4.01-2.848 7.487-6.405 10.238-10.455" fill="#7092ff" overflow="visible" enable-background="accumulate"/></g><path d="M489 2l-1 1v13l1 1h11l1-1v-10h-4v6l-2.5-1.5-2.5 1.5v-6h-2v-2h11v-2h-12z" color="#000" fill="#1a1a1a" overflow="visible" enable-background="accumulate"/><path d="M489 22l-1 1v13l1 1h11l1-1v-10h-4v6l-2.5-1.5-2.5 1.5v-6h-2v-2h11v-2h-12z" color="#000" fill="#fff" overflow="visible" enable-background="accumulate"/><rect width="100" height="100" x="225" y="220" opacity=".15" color="#000" overflow="visible" enable-background="accumulate" fill="none"/><path d="M330 230v74.656l22.5 10.344 22.5-10 22.5 10 22.5-10.344v-74.656l-22.5 10-22.5-10-22.5 10-22.5-10zm57.406 23.594l5.594 5.594 5.594-5.594 2.462 3.163-5.244 5.244 5.594 5.594-3.163 2.462-5.244-5.244-5.594 5.594-3.087-2.975 5.869-5.431-5.594-5.594zm-25.188 12.313c3.029.265 6.04 1.325 8.375 3.312l-2.906 2.781c-1.698-1.267-3.776-1.938-5.875-2.125l.406-3.969zm-4.844.375c.234 1.256 1.333 2.866 1.281 3.812-1.98 1.001-3.282 2.996-4.406 4.75l-3.149-2.517c1.595-2.426 3.509-4.892 6.274-6.046zm33.469 6.281l3.688 1.594c-.855 2.634-2.059 5.2-3.875 7.312l-2.781-2.906c1.38-1.775 2.315-3.858 2.969-6zm-17.219.094c1.53 2.213 2.46 4.763 3.844 7.062l-3.594 1.781c-1.262-2.168-2.153-4.558-3.594-6.625l3.344-2.219zm-24.75 3.813l3.438 2.031c-.946 2.154-1.828 4.383-2.531 6.594l-3.668-1.661c.791-2.367 1.69-4.708 2.762-6.964zm36.25 4.625l1.6 3.681c-2.719 1.523-6.257 2.083-9.131.663l2.169-3.411c1.769.543 3.845.007 5.363-.933z" color="#000" fill="#7092ff" overflow="visible" enable-background="accumulate"/><rect width="100" height="100" x="325" y="220" opacity=".15" color="#000" overflow="visible" enable-background="accumulate" fill="none"/><path d="M492.531 229c-8.284 0-15 6.716-15 15 0 8.284 15 21 15 21s15-12.716 15-21-6.716-15-15-15zm.469 9c3.314 0 6 2.686 6 6s-2.686 6-6 6c-3.313 0-6-2.686-6-6s2.687-6 6-6z" color="#000" fill="#7092ff" overflow="visible" enable-background="accumulate"/><path d="M508.5 266c-4.142 0-7.5 3.358-7.5 7.5 0 .756.136 1.468.344 2.156l-18.688 18.688c-.688-.208-1.401-.344-2.156-.344-4.142 0-7.5 3.358-7.5 7.5 0 4.142 3.358 7.5 7.5 7.5 4.142 0 7.5-3.358 7.5-7.5 0-.756-.136-1.468-.344-2.156l18.688-18.688c.688.208 1.401.344 2.156.344 4.142 0 7.5-3.358 7.5-7.5 0-4.142-3.358-7.5-7.5-7.5zm0 4.5c1.657 0 3 1.343 3 3s-1.343 3-3 3-3-1.343-3-3 1.343-3 3-3zm-28 28c1.657 0 3 1.343 3 3s-1.343 3-3 3-3-1.343-3-3 1.343-3 3-3z" color="#000" fill="#7092ff" overflow="visible" enable-background="accumulate"/><path d="M441.5 251c-4.142 0-7.5 3.358-7.5 7.5 0 2.873 1.628 5.365 4 6.625v13.75c-2.372 1.26-4 3.752-4 6.625 0 4.142 3.358 7.5 7.5 7.5 2.873 0 5.365-1.628 6.625-4h13.75c1.26 2.372 3.752 4 6.625 4 4.142 0 7.5-3.358 7.5-7.5 0-2.873-1.628-5.365-4-6.625v-13.75c2.372-1.26 4-3.752 4-6.625 0-4.142-3.358-7.5-7.5-7.5-2.908 0-5.412 1.675-6.656 4.094l-.188-.094h-13.531c-1.26-2.372-3.752-4-6.625-4zm0 4.5c1.657 0 3 1.343 3 3s-1.343 3-3 3-3-1.343-3-3 1.343-3 3-3zm27 0c1.657 0 3 1.343 3 3s-1.343 3-3 3-3-1.343-3-3 1.343-3 3-3zm-20.375 6.5h13.75c.703 1.323 1.802 2.422 3.125 3.125v13.75c-1.323.703-2.422 1.802-3.125 3.125h-13.75c-.703-1.323-1.802-2.422-3.125-3.125v-13.75c1.323-.703 2.422-1.802 3.125-3.125zm-6.625 20.5c1.657 0 3 1.343 3 3s-1.343 3-3 3-3-1.343-3-3 1.343-3 3-3zm27 0c1.657 0 3 1.343 3 3s-1.343 3-3 3-3-1.343-3-3 1.343-3 3-3z" color="#000" fill="#7092ff" overflow="visible" enable-background="accumulate"/><rect width="100" height="100" x="425" y="220" opacity=".15" color="#000" overflow="visible" enable-background="accumulate" fill="none"/><rect width="100" height="100" x="525" y="220" opacity=".15" color="#000" overflow="visible" enable-background="accumulate" fill="none"/><rect width="100" height="100" x="525" y="220" opacity=".15" color="#000" overflow="visible" enable-background="accumulate" fill="none"/><g color="#000" fill="#e06d5f" font-family="Sans"><path d="M650 237h-5l-3 3v5l58 58h5l3-3v-5z" style="text-indent:0;text-align:start;line-height:normal;text-transform:none;block-progression:tb;-inkscape-font-specification:Sans" overflow="visible" enable-background="accumulate"/><path d="M700 237h5l3 3v5l-58 58h-5l-3-3v-5z" style="text-indent:0;text-align:start;line-height:normal;text-transform:none;block-progression:tb;-inkscape-font-specification:Sans" overflow="visible" enable-background="accumulate"/></g><path d="M575 228l-2 2v5.063c-18.34 1.051-33 16.343-33 34.938 0 19.271 15.729 35 35 35s35-15.729 35-35c0-11.666-5.767-22.037-14.594-28.406l-7.188 7.188c7.082 4.398 11.781 12.218 11.781 21.219 0 13.866-11.134 25-25 25s-25-11.134-25-25c0-13.19 10.083-23.892 23-24.906v4.906l2 2h3l12-12-12-12h-3z" style="text-indent:0;text-align:start;line-height:normal;text-transform:none;block-progression:tb;-inkscape-font-specification:Sans" color="#000" fill="#7092ff" overflow="visible" enable-background="accumulate" font-family="Sans"/><rect width="200" height="80" x="25" y="320" color="#000" fill="#fff" overflow="visible" enable-background="accumulate"/><path d="M195 351c-8.284 0-15 6.716-15 15 0 8.284 15 21 15 21s15-12.716 15-21-6.716-15-15-15z" color="#000" fill="#7092ff" overflow="visible" enable-background="accumulate"/><path d="M187 358c-.471 0-1 .5-1 1v7c0 2.216 1 5 5 5 .359 0 .686-.017 1-.062v-2.938h-4s.5-2 3-2c.5 0 .697.074 1 .188v-2.188c0-.917.365-1.683 1-2 1-.5 1.404-.298 2 0l1 .5v-3.5c0-.5-.529-1-1-1-1 0-2 1-4 1s-3-1-4-1zm1.75 3.5c.69 0 1.25.56 1.25 1.25s-.56 1.25-1.25 1.25-1.25-.56-1.25-1.25.56-1.25 1.25-1.25zm5.25 1.5c-.471 0-1 .5-1 1v7c0 2.216 1 5 5 5s5-2.784 5-5v-7c0-.5-.529-1-1-1-1 0-2 1-4 1s-3-1-4-1zm1.75 3.5c.69 0 1.25.56 1.25 1.25s-.56 1.25-1.25 1.25-1.25-.56-1.25-1.25.56-1.25 1.25-1.25zm4.5 0c.69 0 1.25.56 1.25 1.25s-.56 1.25-1.25 1.25-1.25-.56-1.25-1.25.56-1.25 1.25-1.25zm-5.25 5.5h6s-.5 2-3 2-3-2-3-2z" color="#000" fill="#fff" overflow="visible" enable-background="accumulate"/><path d="M55 351c-8.284 0-15 6.716-15 15 0 8.284 15 21 15 21s15-12.716 15-21-6.716-15-15-15z" color="#000" fill="#7092ff" overflow="visible" enable-background="accumulate"/><path d="M49 356c-.554 0-1 .446-1 1v16c0 .5.5 1 1 1h9c.5 0 1-.5 1-1v-5h.5c.5 0 .5.5.5.5v2c0 1 .5 1.5 1.5 1.5s1.5-.5 1.5-1.5v-5.5l-2-3v-3h-1l-1-1v-1c0-.554-.446-1-1-1zm1 2h7v4h-7zm9 3h1v1.5l2 3v5c0 .5-.5.5-.5.5s-.5 0-.5-.5v-2.5c0-.5-.5-1-1-1h-1z" color="#000" fill="#fff" overflow="visible" enable-background="accumulate"/><path d="M125 351c-8.284 0-15 6.716-15 15 0 8.284 15 21 15 21s15-12.716 15-21-6.716-15-15-15z" color="#000" fill="#7092ff" overflow="visible" enable-background="accumulate"/><path d="M123 358c-3 0-6 1.5-6 4v2h17v-2c0-2.5-3-4-6-4zm.5 1c.277 0 .5.223.5.5s-.223.5-.5.5-.5-.223-.5-.5.223-.5.5-.5zm4 0c.277 0 .5.223.5.5s-.223.5-.5.5-.5-.223-.5-.5.223-.5.5-.5zm-6 2c.277 0 .5.223.5.5s-.223.5-.5.5-.5-.223-.5-.5.223-.5.5-.5zm4 0c.277 0 .5.223.5.5s-.223.5-.5.5-.5-.223-.5-.5.223-.5.5-.5zm4 0c.277 0 .5.223.5.5s-.223.5-.5.5-.5-.223-.5-.5.223-.5.5-.5zm-12.5 4c-.5 0-1 .5-1 1s.5 1 1 1h17c.5 0 1-.5 1-1s-.5-1-1-1zm0 3v1c0 1 1 2 2 2h13c1 0 2-1 2-2v-1z" color="#000" fill="#fff" overflow="visible" enable-background="accumulate"/><path d="M160 331c-8.284 0-15 6.716-15 15 0 8.284 15 21 15 21s15-12.716 15-21-6.716-15-15-15z" color="#000" fill="#7092ff" overflow="visible" enable-background="accumulate"/><path d="M90 331c-8.284 0-15 6.716-15 15 0 8.284 15 21 15 21s15-12.716 15-21-6.716-15-15-15z" color="#000" fill="#7092ff" overflow="visible" enable-background="accumulate"/><path d="M84 338c-.554 0-1 .446-1 1v9c0 .554.446 1 1 1h11c.554 0 1-.446 1-1v-1h.5c.5 0 .5-.5.5-.5v-.5h1c1 0 2-1 2-2v-3c0-.5-.5-1-1-1h-3v-1c0-.554-.446-1-1-1zm12 3h2.5c.5 0 .5.5.5.5v2.5c0 .5-.5 1-1 1h-2zm-15 9l1 1 1 1h13l1-1 1-1z" color="#000" fill="#fff" overflow="visible" enable-background="accumulate"/><path d="M159 338c-.554 0-1 .446-1 1v4h-4c-.554 0-1 .446-1 1v3c0 .554.446 1 1 1h4v4c0 .554.446 1 1 1h3c.554 0 1-.446 1-1v-4h4c.554 0 1-.446 1-1v-3c0-.554-.446-1-1-1h-4v-4c0-.554-.446-1-1-1z" color="#000" fill="#fff" overflow="visible" enable-background="accumulate"/><g transform="translate(375 15)" color="#000"><rect width="200" height="80" x="-350" y="465" fill="#fff" overflow="visible" enable-background="accumulate"/><g transform="translate(-1110 437.638)" fill="#7092ff"><path d="M853.5 50.362l-1.5 1-.469 2h-3.281c-.554 0-.866.463-1 1l-.25 1c-.134.537.446 1 1 1h24c.554 0 1.134-.463 1-1l-.25-1c-.134-.537-.446-1-1-1h-2.781l-.469-2-1.5-1-1 1 .469 2h-12.438l.469-2-1-1zm-2 4c.276 0 .5.224.5.5s-.224.5-.5.5-.5-.224-.5-.5.224-.5.5-.5zm17 0c.276 0 .5.224.5.5s-.224.5-.5.5-.5-.224-.5-.5.224-.5.5-.5zm-17.938 3l-.469 2h-2.844c-.554 0-.866.463-1 1l-.25 1c-.134.537.446 1 1 1h26c.554 0 1.134-.463 1-1l-.25-1c-.134-.537-.446-1-1-1h-2.344l-.469-2h-2.5l.469 2h-15.312l.469-2h-2.5zm-.063 3c.276 0 .5.224.5.5s-.224.5-.5.5-.5-.224-.5-.5.224-.5.5-.5zm19 0c.276 0 .5.224.5.5s-.224.5-.5.5-.5-.224-.5-.5.224-.5.5-.5zm-20.344 3l-.469 2h-2.438c-.554 0-.866.463-1 1l-.25 1c-.134.537.446 1 1 1h28c.554 0 1.134-.463 1-1l-.25-1c-.134-.537-.446-1-1-1h-1.938l-.469-2h-2.5l.469 2h-18.125l.469-2h-2.5zm.344 3c.276 0 .5.224.5.5s-.224.5-.5.5-.5-.224-.5-.5.224-.5.5-.5zm21 0c.276 0 .5.224.5.5s-.224.5-.5.5-.5-.224-.5-.5.224-.5.5-.5zm-22.781 3l-.719 3 1.5 1 1-1 .719-3h-2.5zm22.562 0l.719 3 1 1 1.5-1-.719-3h-2.5z" fill="#a9a9a9" overflow="visible" enable-background="accumulate"/><g transform="translate(110)" fill="#7092ff"><rect width="40" height="3" x="730" y="77.362" fill="#a9a9a9" overflow="visible" enable-background="accumulate"/><rect width="5" height="1" x="764" y="78.362" fill="#fff" overflow="visible" enable-background="accumulate"/><rect width="5" height="1" x="753" y="78.362" fill="#fff" overflow="visible" enable-background="accumulate"/><rect width="5" height="1" x="742" y="78.362" fill="#fff" overflow="visible" enable-background="accumulate"/><rect width="5" height="1" x="731" y="78.362" fill="#fff" overflow="visible" enable-background="accumulate"/></g><path d="M32 66.5a1.5 1.5 0 1 1-3 0 1.5 1.5 0 1 1 3 0z" transform="matrix(1.667 0 0 1.667 828.667 -31.971)" fill="#a9a9a9" overflow="visible" enable-background="accumulate"/><path d="M32 66.5a1.5 1.5 0 1 1-3 0 1.5 1.5 0 1 1 3 0z" transform="translate(849 12.362)" fill="#fff" overflow="visible" enable-background="accumulate"/><path d="M32 66.5a1.5 1.5 0 1 1-3 0 1.5 1.5 0 1 1 3 0z" transform="matrix(1.667 0 0 1.667 789.667 -31.971)" fill="#a9a9a9" overflow="visible" enable-background="accumulate"/><path d="M32 66.5a1.5 1.5 0 1 1-3 0 1.5 1.5 0 1 1 3 0z" transform="translate(810 12.362)" fill="#fff" overflow="visible" enable-background="accumulate"/></g><g transform="translate(-510 437.638)" fill="#7092ff"><path d="M192.5 52.362l-2.875 6h-1.625l-1 1v2h1.406l-.406 1v6l1 1h5l2 1h8l2-1h5l1-1v-6l-.406-1h1.406v-2l-1-1h-1.625l-2.875-6zm1 3h13l1.5 4-1 1h-14l-1-1zm-2.5 8h3l1 2v1h-4l-1-1v-1zm15 0h3l1 1v1l-1 1h-4v-1zm-17 7v2l1 1h3l1-1v-2zm17 0v2l1 1h3l1-1v-2z" fill="#a9a9a9" overflow="visible" enable-background="accumulate"/><rect width="38" height="1" x="181" y="78.362" fill="#7092ff" overflow="visible" enable-background="accumulate"/><g fill="#7092ff"><path d="M180.5 77.362c-1.381 0-2.5 1.119-2.5 2.5s1.119 2.5 2.5 2.5h39c1.381 0 2.5-1.119 2.5-2.5s-1.119-2.5-2.5-2.5z" fill="#a9a9a9" overflow="visible" enable-background="accumulate"/><path d="M182.5 78.362c.31.416.5.941.5 1.5s-.19 1.084-.5 1.5h35c-.31-.416-.5-.941-.5-1.5s.19-1.084.5-1.5h-35z" fill="#fff" overflow="visible" enable-background="accumulate"/><path d="M32 66.5a1.5 1.5 0 1 1-3 0 1.5 1.5 0 1 1 3 0z" transform="translate(551 1) translate(-401 12.362)" fill="#fff" overflow="visible" enable-background="accumulate"/><path d="M32 66.5a1.5 1.5 0 1 1-3 0 1.5 1.5 0 1 1 3 0z" transform="translate(551 1) translate(-362 12.362)" fill="#fff" overflow="visible" enable-background="accumulate"/></g></g></g><rect width="200" height="80" x="25" y="400" color="#000" fill="#fff" overflow="visible" enable-background="accumulate"/><path d="M67.184 443.572a14.904 5.947 0 1 1-29.809 0 14.904 5.947 0 1 1 29.809 0z" transform="matrix(1.817 .184 -.74 1.889 360.325 -422.915)" color="#000" fill="#7092ff" overflow="visible" enable-background="accumulate"/><path d="M78 436l-35 10v-6l35-10z" color="#000" fill="#a9a9a9" overflow="visible" enable-background="accumulate"/><path d="M79 430.5v6l29 14.5v-6l-29-14.5z" color="#000" fill="#a9a9a9" overflow="visible" enable-background="accumulate"/><path d="M198.5 428c-1.229 0-2.228.893-2.438 2.063-.184-.043-.366-.063-.563-.063-1.381 0-2.5 1.119-2.5 2.5 0 .639.23 1.214.625 1.656-.945.357-1.625 1.274-1.625 2.344 0 1.381 1 2.5 2.5 2.5h.5l2 3.5v1.438c-1.479-.432-2.886-.88-4-1.438-5-2.5-9.434-6.983-15-7.5-6.041-.561-11.667 3.333-17.5 5-5.833 1.667-16.939 1.959-17.5 8l30 15 35-10c.326-3.505-3.708-6.987-8-8.219v-2.281l2-3.5h.719c1.281.014 2.281-1.195 2.281-2.5 0-1.07-.68-1.987-1.625-2.344.395-.442.625-1.017.625-1.656 0-1.381-1.119-2.5-2.5-2.5-.197 0-.379.019-.563.063-.209-1.169-1.208-2.063-2.438-2.063zm-1.5 11h3l-1 2h-1z" color="#000" fill="#8cd05f" overflow="visible" enable-background="accumulate"/><g color="#000" fill="#c1c1c1" stroke="#fff" stroke-width="2"><path d="M43 446l30 15v-6l-30-15z" overflow="visible" enable-background="accumulate"/><path d="M108 451l-35 10v-6l35-10z" overflow="visible" enable-background="accumulate"/></g><path d="M43 446l30 15v-6l-30-15z" color="#000" fill="#a9a9a9" overflow="visible" enable-background="accumulate"/><path d="M108 451l-35 10v-6l35-10z" color="#000" fill="#a9a9a9" overflow="visible" enable-background="accumulate"/><rect width="699.86" height="560" x="-724.86" transform="scale(-1 1)" color="#000" overflow="visible" enable-background="accumulate" fill="none"/><path d="M132 417s2.636 3.529 5.438 3.969c-4.477-.153-5.438-1.969-5.438-1.969s-.96 1.816-5.438 1.969c2.802-.439 5.438-3.969 5.438-3.969z" color="#000" fill="#fff" overflow="visible" enable-background="accumulate"/><path d="M118 419s2.636 3.529 5.438 3.969c-4.477-.153-5.438-1.969-5.438-1.969s-.96 1.816-5.438 1.969c2.802-.439 5.438-3.969 5.438-3.969z" color="#000" fill="#fff" overflow="visible" enable-background="accumulate"/><path d="M128 424s2.636 3.529 5.438 3.969c-4.477-.153-5.438-1.969-5.438-1.969s-.96 1.816-5.438 1.969c2.802-.439 5.438-3.969 5.438-3.969z" color="#000" fill="#fff" overflow="visible" enable-background="accumulate"/><g transform="translate(-235 452.638)" color="#000"><rect width="40" height="3" x="400" y="77.362" fill="#60d4de" overflow="visible" enable-background="accumulate"/><path d="M406.762 73.362s-.536-1.846-.345-2.75c.221-1.047 1.655-2.75 1.655-2.75s1.433-1.703 1.655-2.75c.191-.904-.345-2.75-.345-2.75s-.536-1.846-.345-2.75c.221-1.047 1.655-2.75 1.655-2.75s1.433-1.703 1.655-2.75c.191-.904-.345-2.75-.345-2.75h16.5s1.433 1.703 1.655 2.75c.191.904-.345 2.75-.345 2.75s-.536 1.846-.345 2.75c.221 1.047 1.655 2.75 1.655 2.75s1.433 1.703 1.655 2.75c.191.904-.345 2.75-.345 2.75s-.536 1.846-.345 2.75c.221 1.047 1.655 2.75 1.655 2.75z" fill="#60d4de" overflow="visible" enable-background="accumulate"/><path d="M808 51a2 2 0 1 1-4 0 2 2 0 1 1 4 0z" transform="matrix(.483 .129 -.194 .724 27.632 -76.389)" opacity=".5" fill="#60d4de" overflow="visible" enable-background="accumulate"/><path d="M808 51a2 2 0 1 1-4 0 2 2 0 1 1 4 0z" transform="matrix(.65 .375 -.5 .866 -89.512 -292.055)" opacity=".5" fill="#60d4de" overflow="visible" enable-background="accumulate"/><path d="M808 51a2 2 0 1 1-4 0 2 2 0 1 1 4 0z" transform="matrix(-.483 .129 .194 .724 811.757 -82.44)" opacity=".5" fill="#60d4de" overflow="visible" enable-background="accumulate"/><path d="M808 51a2 2 0 1 1-4 0 2 2 0 1 1 4 0z" transform="matrix(-.65 .375 .5 .866 933.61 -277.055)" opacity=".5" fill="#60d4de" overflow="visible" enable-background="accumulate"/><path d="M32 66.5a1.5 1.5 0 1 1-3 0 1.5 1.5 0 1 1 3 0z" transform="matrix(1.667 0 0 1.667 388.667 -31.971)" fill="#60d4de" overflow="visible" enable-background="accumulate"/><path d="M32 66.5a1.5 1.5 0 1 1-3 0 1.5 1.5 0 1 1 3 0z" transform="translate(409 12.362)" fill="#fff" overflow="visible" enable-background="accumulate"/><path d="M32 66.5a1.5 1.5 0 1 1-3 0 1.5 1.5 0 1 1 3 0z" transform="matrix(1.667 0 0 1.667 349.667 -31.971)" fill="#60d4de" overflow="visible" enable-background="accumulate"/><path d="M32 66.5a1.5 1.5 0 1 1-3 0 1.5 1.5 0 1 1 3 0z" transform="translate(370 12.362)" fill="#fff" overflow="visible" enable-background="accumulate"/></g><path d="M450 30l8 7 1-1v-12l-1-1z" color="#000" fill="#7092ff" overflow="visible" enable-background="accumulate"/><path d="M479 30l-8 7-1-1v-12l1-1z" color="#000" fill="#7092ff" overflow="visible" enable-background="accumulate"/><path d="M31 164l-1 1v1l1 1h8l1-1v-1l-1-1zm0 4v7l1 1h6l1-1v-7zm2 2h1v4h-1v-1zm3 0h1v4h-1z" opacity=".25" color="#000" overflow="visible" enable-background="accumulate"/><path d="M89 165.013c-1 0-2 1-2 2v2h3l2 1-2 1h-3v2c0 1 1 2 2 2h1c2 0 2.487-.974 3-2l1-2 9-5s0-1-2-1l-7.031 3.906-.969-1.906c-.494-.988-1-2-3-2zm0 1h2l1 2h-4v-1c0-1.013 1-1 1-1zm8.094 4.719l-2 1 5.906 3.281c2 0 2-1 2-1zm-9.094 1.281h4l-1 2h-2s-1 0-1-1z" opacity=".25" color="#000" overflow="visible" enable-background="accumulate"/><path d="M69.813 169.013c.114.316.188.644.188 1s-.074.684-.188 1h2.375c-.114-.316-.188-.644-.188-1s.074-.684.188-1h-2.375zm8 0c.114.316.188.644.188 1s-.074.684-.188 1h2.375c-.114-.316-.188-.644-.188-1s.074-.684.188-1h-2.375z" opacity=".25" color="#000" overflow="visible" enable-background="accumulate"/><path d="M67 168c-1.105 0-2 .895-2 2s.895 2 2 2 2-.895 2-2-.895-2-2-2zm8 0c-1.105 0-2 .895-2 2s.895 2 2 2 2-.895 2-2-.895-2-2-2zm8 0c-1.105 0-2 .895-2 2s.895 2 2 2 2-.895 2-2-.895-2-2-2z" opacity=".25" color="#000" overflow="visible" enable-background="accumulate"/><path d="M155 168c-1.105 0-2 .895-2 2s.895 2 2 2 2-.895 2-2-.895-2-2-2z" opacity=".25" color="#000" overflow="visible" filter="url(#filter8013-4)" enable-background="accumulate"/><path d="M52.031 162.607c-1.329.531-2.444 1.419-3.313 2.531l.219.031c.521.169.942.49 1.281.875.583-.697 1.321-1.238 2.156-1.625-.228-.422-.375-.897-.375-1.406 0-.14.012-.271.031-.406zm5.938 0c.019.135.031.266.031.406 0 .509-.147.984-.375 1.406.835.387 1.573.928 2.156 1.625.339-.385.761-.706 1.281-.875l.219-.063c-.866-1.103-1.991-1.972-3.313-2.5zm-10.938 8.219c.133 1.354.618 2.615 1.344 3.688l.188-.281c.299-.411.69-.723 1.125-.938-.439-.721-.728-1.561-.844-2.438-.564.165-1.185.163-1.781-.031h-.031zm15.906 0c-.597.194-1.218.196-1.781.031-.115.877-.404 1.717-.844 2.438.438.204.821.519 1.125.938l.188.281c.725-1.072 1.211-2.334 1.344-3.688h-.031zm-8.938 5.344c-.03.558-.214 1.114-.563 1.594l-.094.094c.54.116 1.082.188 1.656.188.574 0 1.116-.072 1.656-.188l-.094-.094c-.349-.48-.532-1.035-.563-1.594-.329.053-.655.094-1 .094s-.671-.04-1-.094z" style="text-indent:0;text-align:start;line-height:normal;text-transform:none;block-progression:tb;-inkscape-font-specification:Sans" opacity=".25" color="#000" overflow="visible" enable-background="accumulate" font-family="Sans"/><path d="M55 161c-1.105 0-2 .895-2 2s.895 2 2 2 2-.895 2-2-.895-2-2-2zm-7.156 5c-.777.067-1.494.587-1.75 1.375-.341 1.051.231 2.19 1.281 2.531 1.051.341 2.19-.231 2.531-1.281.341-1.051-.231-2.19-1.281-2.531-.263-.085-.522-.116-.781-.094zm13.938 0c-.132.015-.275.051-.406.094-1.051.341-1.623 1.481-1.281 2.531.341 1.051 1.481 1.623 2.531 1.281 1.051-.341 1.623-1.481 1.281-2.531-.299-.919-1.201-1.479-2.125-1.375zm-10.719 8c-.642-.022-1.282.254-1.688.813-.649.894-.456 2.163.438 2.813.894.649 2.163.456 2.813-.438.649-.894.456-2.163-.438-2.813-.335-.243-.74-.362-1.125-.375zm7.875 0c-.385.013-.79.132-1.125.375-.894.649-1.087 1.919-.438 2.813.649.894 1.919 1.087 2.813.438.894-.649 1.087-1.919.438-2.813-.406-.559-1.046-.834-1.688-.813z" opacity=".25" color="#000" overflow="visible" enable-background="accumulate"/><path d="M109 166.013l-4 4 4 4 1-1v-2h2.188c-.114-.316-.188-.644-.188-1 0-.345.08-.691.188-1h-2.188v-2l-1-1zm12 0l-1 1v2h-2.188c.107.309.188.655.188 1 0 .356-.074.684-.188 1h2.188v2l1 1 4-4-4-4z" opacity=".25" color="#000" overflow="visible" enable-background="accumulate"/><path d="M226 732.362a1 1 0 1 1-2 0 1 1 0 1 1 2 0z" transform="matrix(2 0 0 2 -335 -1294.725)" opacity=".25" color="#000" overflow="visible" enable-background="accumulate"/><path d="M133 165l-4 5 4 5h2v-1l-3.5-4 3.5-4v-1h-2zm6 0l-4 5 4 5h2v-1l-3.5-4 3.5-4v-1h-2z" opacity=".25" color="#000" overflow="visible" enable-background="accumulate"/><path d="M174 163l-1 1v4h-4l-1 1v2l1 1h4v4l1 1h2l1-1v-4h4l1-1v-2l-1-1h-4v-4l-1-1z" opacity=".25" color="#000" overflow="visible" enable-background="accumulate"/><path d="M191 164c-1.105 0-2 .895-2 2s.895 2 2 2 2-.895 2-2-.895-2-2-2zm0 8c-1.105 0-2 .895-2 2s.895 2 2 2 2-.895 2-2-.895-2-2-2zm8 0c-1.105 0-2 .895-2 2s.895 2 2 2 2-.895 2-2-.895-2-2-2z" opacity=".25" color="#000" overflow="visible" enable-background="accumulate"/><path d="M215 160l-1 1v1.063c-3.944.494-7 3.859-7 7.938 0 4.418 3.582 8 8 8s8-3.582 8-8c0-2.467-1.119-4.659-2.875-6.125l-1.406 1.406c1.395 1.099 2.281 2.805 2.281 4.719 0 3.314-2.686 6-6 6s-6-2.686-6-6c0-2.976 2.159-5.433 5-5.906v.906l1 1 3-3-3-3z" opacity=".25" color="#000" overflow="visible" enable-background="accumulate"/><path d="M233 162c-1.333 0-2.219.781-2.719 1.281-.5.5-.615.719-1.281.719h-1v2h1c1.333 0 2.219-.781 2.719-1.281.5-.5.615-.719 1.281-.719.167 0 .206.009.406.25.201.241.438.688.688 1.188.25.5.513 1.053.938 1.563.424.509 1.135 1 1.969 1 1.333 0 2.219-.781 2.719-1.281.5-.5.615-.719 1.281-.719h1v-2h-1c-1.333 0-2.219.781-2.719 1.281-.5.5-.615.719-1.281.719-.167 0-.206-.009-.406-.25-.201-.241-.438-.688-.688-1.188-.25-.5-.513-1.053-.938-1.563-.424-.509-1.135-1-1.969-1z" style="text-indent:0;text-align:start;line-height:normal;text-transform:none;block-progression:tb;-inkscape-font-specification:Sans" opacity=".25" color="#000" overflow="visible" enable-background="accumulate" font-family="Sans"/><path d="M228 176v2h14v-2h-14z" style="text-indent:0;text-align:start;line-height:normal;text-transform:none;block-progression:tb;-inkscape-font-specification:Sans" opacity=".25" color="#000" overflow="visible" enable-background="accumulate" font-family="Sans"/><path d="M536.5 4v1l1 1-4.5 4.5v1.5h1.5l4.5-4.5 1 1h1v-4.5h-1zm-6.5 1l-1 1v9l1 1h9l1-1v-5l-2 2v2h-7v-7h2l2-2z" color="#000" fill="#7092ff" overflow="visible" enable-background="accumulate"/><path d="M536.5 24v1l1 1-4.5 4.5v1.5h1.5l4.5-4.5 1 1h1v-4.5h-1zm-6.5 1l-1 1v9l1 1h9l1-1v-5l-2 2v2h-7v-7h2l2-2z" color="#000" fill="#597be7" overflow="visible" enable-background="accumulate"/><path d="M114 22l-5 4.5 5 4.5v-3h3l1 1v3l-1 1h-5l-1 1v1l1 1h5l2-1 1-1 1-2v-3l-1-2-1-1-2-1h-3zm22 0v3h-3l-2 1-1 1-1 2v3l1 2 1 1 2 1h5l1-1v-1l-1-1h-5l-1-1v-3l1-1h3v3l5-4.5zm-57 1l-1 1v1.594l-6.406 6.406h-1.594l-1 1v2l1 1h2l1-1v-1.594l6.406-6.406h1.594l1-1v-2l-1-1zm96 0l-6 6 1 1h3v6l1 1h2l1-1v-6h3l1-1zm-118 1c-2.761 0-5 2.239-5 5s5 7 5 7 5-4.239 5-7-2.239-5-5-5zm23 0c.552 0 1 .448 1 1s-.448 1-1 1c-.252 0-.481-.097-.656-.25l-.094-.094c-.153-.176-.25-.405-.25-.656 0-.552.448-1 1-1zm10 0l-1 1v2l1 1v4l-1 1v2l1 1h2l1-1h4l1 1h2l1-1v-2l-1-1v-4l1-1v-2l-1-1h-2l-1 1h-4l-1-1zm69.5 0l-4.938 8.563-3.563-3.563h-1l-1 1v1l5 5h2l6-10v-1l-1-1zm30.5 0l-1 1v1l4 4-4 4v1l1 1h1l4-4 4 4h1l1-1v-1l-4-4 4-4v-1l-1-1h-1l-4 4-4-4zm21 0l-1 1v1l1 1h8l1-1v-1l-1-1zm-120 1c.552 0 1 .448 1 1s-.448 1-1 1-1-.448-1-1 .448-1 1-1zm8 0c.552 0 1 .448 1 1s-.448 1-1 1-1-.448-1-1 .448-1 1-1zm-41.844 2c1.105 0 2 .895 2 2s-.895 2-2 2-2-.895-2-2 .895-2 2-2zm35.844 0h4l1 1v4l-1 1h-4l-1-1v-4zm118 1v7l1 1h6l1-1v-7zm2 2h1v4h-1v-1zm3 0h1v4h-1zm-145 3c.252 0 .481.097.656.25l.094.094c.153.176.25.405.25.656 0 .552-.448 1-1 1s-1-.448-1-1 .448-1 1-1zm20 0c.552 0 1 .448 1 1s-.448 1-1 1-1-.448-1-1 .448-1 1-1zm8 0c.552 0 1 .448 1 1s-.448 1-1 1-1-.448-1-1 .448-1 1-1z" color="#000" fill="#fff" overflow="visible" enable-background="accumulate"/><path d="M274 23l-1 1v4h-4l-1 1v1l1 1h4v4l1 1h1l1-1v-4h4l1-1v-1l-1-1h-4v-4l-1-1h-1z" color="#000" fill="#fff" overflow="visible" enable-background="accumulate"/><path d="M290 28h11l1 1v1l-1 1h-11l-1-1v-1z" color="#000" fill="#fff" overflow="visible" enable-background="accumulate"/><path d="M313.5 23c-3.038 0-5.5 2.462-5.5 5.5s2.462 5.5 5.5 5.5c1.006 0 1.939-.278 2.75-.75l3.75 3.75h1l1-1v-1l-3.75-3.75c.472-.811.75-1.744.75-2.75 0-3.038-2.462-5.5-5.5-5.5zm-.5 2h1l2 1 1 2v1l-1 2-2 1h-1l-2-1-1-2v-1l1-2 2-1z" color="#000" fill="#fff" overflow="visible" enable-background="accumulate"/><path d="M354.5 23c-1.5 0-2.5 2-2.5 3v2c0 1 1 2.154 1 2.154v.846l-1.692.385c-1.454.33-2.026 1.236-2.154 2.769l-.154 1.846h12l-.154-1.846c-.128-1.533-.7-2.439-2.154-2.769l-1.692-.385v-.846s1-1.154 1-2.154v-2c0-1-1-3-2.5-3z" color="#000" fill="#fff" overflow="visible" enable-background="accumulate"/><path d="M334.5 23l-6.5 3v1l6.5 3h1l6.5-3v-1l-6.5-3h-1zm-5.406 6.5l-1.094.5v1l6.5 3h1l6.5-3v-1l-1.094-.5-5.406 2.5h-1l-5.406-2.5zm0 4l-1.094.5v1l6.5 3h1l6.5-3v-1l-1.094-.5-5.406 2.5h-1l-5.406-2.5z" color="#000" fill="#fff" overflow="visible" filter="url(#filter8013-4)" enable-background="accumulate"/><rect width="2" height="2" x="169" y="153" transform="translate(25)" color="#000" fill="#7092ff" overflow="visible" enable-background="accumulate"/><rect width="2" height="2" x="190" y="149" color="#000" fill="#7092ff" overflow="visible" enable-background="accumulate"/><rect width="2" height="2" x="45" y="149" transform="translate(25)" color="#000" fill="#7092ff" overflow="visible" enable-background="accumulate"/><rect width="2" height="2" x="78" y="149" color="#000" fill="#7092ff" overflow="visible" enable-background="accumulate"/><path d="M190 169h2v2h-2z" opacity=".25" color="#000" overflow="visible" enable-background="accumulate"/><path d="M194 173h2v2h-2z" opacity=".25" color="#000" overflow="visible" enable-background="accumulate"/><path d="M231 5l-1 1v1l3 3-3 3v1l1 1h1l3-3 3 3h1l1-1v-1l-3-3 3-3v-1l-1-1h-1l-3 3-3-3h-1z" opacity=".5" color="#000" overflow="visible" enable-background="accumulate"/><path d="M114 42l-5 4.5 5 4.5v-3h3l1 1v3l-1 1h-5l-1 1v1l1 1h5l2-1 1-1 1-2v-3l-1-2-1-1-2-1h-3zm22 0v3h-3l-2 1-1 1-1 2v3l1 2 1 1 2 1h5l1-1v-1l-1-1h-5l-1-1v-3l1-1h3v3l5-4.5zm-57 1l-1 1v1.594l-6.406 6.406h-1.594l-1 1v2l1 1h2l1-1v-1.594l6.406-6.406h1.594l1-1v-2l-1-1zm96 0l-6 6 1 1h3v6l1 1h2l1-1v-6h3l1-1zm-118 1c-2.761 0-5 2.239-5 5s5 7 5 7 5-4.239 5-7-2.239-5-5-5zm23 0c.552 0 1 .448 1 1s-.448 1-1 1c-.252 0-.481-.097-.656-.25l-.094-.094c-.153-.176-.25-.405-.25-.656 0-.552.448-1 1-1zm10 0l-1 1v2l1 1v4l-1 1v2l1 1h2l1-1h4l1 1h2l1-1v-2l-1-1v-4l1-1v-2l-1-1h-2l-1 1h-4l-1-1zm69.5 0l-4.938 8.563-3.563-3.563h-1l-1 1v1l5 5h2l6-10v-1l-1-1zm30.5 0l-1 1v1l4 4-4 4v1l1 1h1l4-4 4 4h1l1-1v-1l-4-4 4-4v-1l-1-1h-1l-4 4-4-4zm21 0l-1 1v1l1 1h8l1-1v-1l-1-1zm-120 1c.552 0 1 .448 1 1s-.448 1-1 1-1-.448-1-1 .448-1 1-1zm8 0c.552 0 1 .448 1 1s-.448 1-1 1-1-.448-1-1 .448-1 1-1zm-41.844 2c1.105 0 2 .895 2 2s-.895 2-2 2-2-.895-2-2 .895-2 2-2zm35.844 0h4l1 1v4l-1 1h-4l-1-1v-4zm118 1v7l1 1h6l1-1v-7zm2 2h1v4h-1v-1zm3 0h1v4h-1zm-145 3c.252 0 .481.097.656.25l.094.094c.153.176.25.405.25.656 0 .552-.448 1-1 1s-1-.448-1-1 .448-1 1-1zm20 0c.552 0 1 .448 1 1s-.448 1-1 1-1-.448-1-1 .448-1 1-1zm8 0c.552 0 1 .448 1 1s-.448 1-1 1-1-.448-1-1 .448-1 1-1z" opacity=".5" color="#000" overflow="visible" enable-background="accumulate"/><path d="M215 168c-1.105 0-2 .895-2 2s.895 2 2 2 2-.895 2-2-.895-2-2-2z" opacity=".25" color="#000" overflow="visible" enable-background="accumulate"/><path d="M155 161l-3 3 1 1h1v2h2v-2h1l1-1-3-3z" color="#000" fill="#bfbfbf" overflow="visible" enable-background="accumulate"/><path d="M149 167l-3 3 3 3 1-1v-1h2v-2h-2v-1l-1-1z" color="#000" fill="#bfbfbf" overflow="visible" enable-background="accumulate"/><path d="M161 167l-1 1v1h-2v2h2v1l1 1 3-3-3-3z" color="#000" fill="#bfbfbf" overflow="visible" enable-background="accumulate"/><path d="M155 168c-1.105 0-2 .895-2 2s.895 2 2 2 2-.895 2-2-.895-2-2-2z" color="#000" fill="#bfbfbf" overflow="visible" enable-background="accumulate"/><path d="M154 173v2h-1l-1 1 3 3 3-3-1-1h-1v-2h-2z" color="#000" fill="#bfbfbf" overflow="visible" enable-background="accumulate"/><path d="M234 147.5v3.5h-1l-1 1 3 3 3-3-1-1h-1v-1.5c-1.7-.85-2-2-2-2z" color="#000" fill="#7092ff" overflow="visible" enable-background="accumulate"/><path d="M232 172l1-1h1v-3.5s.3 1.15 2 2v1.5h1l1 1-3 3z" opacity=".25" color="#000" overflow="visible" enable-background="accumulate"/><path d="M240 230c-2.77 0-5 2.23-5 5v75c0 2.77 2.23 5 5 5h40l.219-40h-10.219v-10h10v-3c0-3.656.351-6.223 1-8 .888-2.392 2.779-4.53 5-6 2.255-1.504 4.968-3 9-3 5 0 8.389 1.745 10.92 4.063l-3.272 7.272c-1.914-.342-4.939-1.335-6.647-1.335-2.802 0-3.579.032-4.741 1.228-1.162 1.196-1.259 1.491-1.259 4.772v4h13v10h-13v40h20c2.77 0 5-2.23 5-5v-75c0-2.77-2.23-5-5-5z" color="#000" fill="#7092ff" overflow="visible" enable-background="accumulate"/><rect width="100" height="100" x="625" y="220" opacity=".15" color="#000" overflow="visible" enable-background="accumulate" fill="none"/><path d="M253.786 5.071l-1 1v1l1 1h1l1-1v-1l-1-1h-1zm0 4l-1 1v5l1 1h1l1-1v-5l-1-1h-1z" style="text-indent:0;text-align:start;line-height:100%;text-transform:none;block-progression:tb" font-size="16.713" font-weight="bold" letter-spacing="0" color="#000" fill="#222" enable-background="accumulate" font-family="Helvetica Neue"/><path d="M253.786 45.071l-1 1v1l1 1h1l1-1v-1l-1-1h-1zm0 4l-1 1v5l1 1h1l1-1v-5l-1-1h-1z" style="text-indent:0;text-align:start;line-height:100%;text-transform:none;block-progression:tb" font-size="16.713" font-weight="bold" letter-spacing="0" opacity=".5" color="#000" enable-background="accumulate" font-family="Helvetica Neue"/><path d="M253.786 25.071l-1 1v1l1 1h1l1-1v-1l-1-1h-1zm0 4l-1 1v5l1 1h1l1-1v-5l-1-1h-1z" style="text-indent:0;text-align:start;line-height:100%;text-transform:none;block-progression:tb" font-size="16.713" font-weight="bold" letter-spacing="0" color="#000" fill="#fff" enable-background="accumulate" font-family="Helvetica Neue"/><path d="M431 3v1l2 2.406v1.594h4v-1.594l2-2.406v-1h-1l-2 2h-2l-2-2h-1zm1 6l-1 1h-3l-1 1 1 1h3v1l-2 1-1 1v1h1l2-1 2 2h4l2-2 2 1h1v-1l-1-1-2-1v-1h3l1-1-1-1h-3l-1-1h-6z" color="#000" fill="#7092ff" overflow="visible" enable-background="accumulate"/><path d="M431 23v1l2 2.406v1.594h4v-1.594l2-2.406v-1h-1l-2 2h-2l-2-2h-1zm1 6l-1 1h-3l-1 1 1 1h3v1l-2 1-1 1v1h1l2-1 2 2h4l2-2 2 1h1v-1l-1-1-2-1v-1h3l1-1-1-1h-3l-1-1h-6z" color="#000" fill="#fff" overflow="visible" enable-background="accumulate"/><path d="M431 43v1l2 2.406v1.594h4v-1.594l2-2.406v-1h-1l-2 2h-2l-2-2h-1zm1 6l-1 1h-3l-1 1 1 1h3v1l-2 1-1 1v1h1l2-1 2 2h4l2-2 2 1h1v-1l-1-1-2-1v-1h3l1-1-1-1h-3l-1-1h-6z" opacity=".5" color="#000" overflow="visible" enable-background="accumulate"/><path d="M507 27h2l3 3 4.774-6h2.227v2l-5 6-1 1h-2l-1-1-3-3z" color="#000" fill="#7092ff" overflow="visible" enable-background="accumulate"/><path d="M507 7h2l3 3 4.774-6h2.227v2l-5 6-1 1h-2l-1-1-3-3z" color="#000" fill="#7f7f7f" overflow="visible" enable-background="accumulate"/><g color="#000" fill="#1a1a1a"><path d="M569 5l-1 1v2l1 1h2l1-1v-2l-1-1h-2zm10 0l-1 1v2l1 1h2l1-1v-2l-1-1h-2zm-9 1c.552 0 1 .448 1 1s-.448 1-1 1-1-.448-1-1 .448-1 1-1zm10 0c.552 0 1 .448 1 1s-.448 1-1 1-1-.448-1-1 .448-1 1-1zm-6 6l-1 1v2l1 1h2l1-1v-2l-1-1h-2zm1 1c.552 0 1 .448 1 1s-.448 1-1 1-1-.448-1-1 .448-1 1-1z" overflow="visible" enable-background="accumulate"/><path d="M578.063 9.219l-1.5 2.5.875.531 1.5-2.5-.875-.531z" style="text-indent:0;text-align:start;line-height:normal;text-transform:none;block-progression:tb;-inkscape-font-specification:Sans" opacity=".5" overflow="visible" enable-background="accumulate" font-family="Sans"/><path d="M571.938 9.219l-.875.531 1.5 2.5.875-.531-1.5-2.5z" style="text-indent:0;text-align:start;line-height:normal;text-transform:none;block-progression:tb;-inkscape-font-specification:Sans" opacity=".5" overflow="visible" enable-background="accumulate" font-family="Sans"/></g><g color="#000" fill="#1a1a1a"><path d="M589 2.987l-1 1v2l1 1v6l-1 1v2l1 1h2l1-1h6l1 1h2l1-1v-2l-1-1v-6l1-1v-2l-1-1h-2l-1 1h-6l-1-1zm1 1c.552 0 1 .448 1 1s-.448 1-1 1-1-.448-1-1 .448-1 1-1zm10 0c.552 0 1 .448 1 1s-.448 1-1 1-1-.448-1-1 .448-1 1-1zm-8 2h6l1 1v6l-1 1h-6l-1-1v-6zm-2 8c.552 0 1 .448 1 1s-.448 1-1 1-1-.448-1-1 .448-1 1-1zm10 0c.552 0 1 .448 1 1s-.448 1-1 1-1-.448-1-1 .448-1 1-1z" overflow="visible" enable-background="accumulate"/><path d="M594 7.987l-1 1v2l1 1h2l1-1v-2l-1-1h-2zm1 1c.552 0 1 .448 1 1s-.448 1-1 1-1-.448-1-1 .448-1 1-1z" opacity=".5" overflow="visible" enable-background="accumulate"/></g><g color="#000" fill="#1a1a1a"><path d="M549 3.987l-1 1v3l1 1 1 1h3l1-1 1-1v-3l-1-1-1-1h-3zm2 1h1l1 1v1l-1 1h-1l-1-1v-1z" overflow="visible" enable-background="accumulate"/><path d="M559 4.987l-1 1v2l1 1h2l1-1v-2l-1-1h-2zm1 1c.552 0 1 .448 1 1s-.448 1-1 1-1-.448-1-1 .448-1 1-1z" opacity=".5" overflow="visible" enable-background="accumulate"/><path d="M557 10.987l-1 1v2l1 1h2l1-1v-2l-1-1h-2zm1 1c.552 0 1 .448 1 1s-.448 1-1 1-1-.448-1-1 .448-1 1-1z" opacity=".5" overflow="visible" enable-background="accumulate"/><path d="M551 12.987l-1 1v2l1 1h2l1-1v-2l-1-1h-2zm1 1c.552 0 1 .448 1 1s-.448 1-1 1-1-.448-1-1 .448-1 1-1z" opacity=".5" overflow="visible" enable-background="accumulate"/><path d="M555.344 9.625l-.688.719 1 1 .688-.719-1-1z" style="text-indent:0;text-align:start;line-height:normal;text-transform:none;block-progression:tb;-inkscape-font-specification:Sans" opacity=".5" overflow="visible" enable-background="accumulate" font-family="Sans"/><path d="M556 6v1h1v-1h-1z" style="text-indent:0;text-align:start;line-height:normal;text-transform:none;block-progression:tb;-inkscape-font-specification:Sans" opacity=".5" overflow="visible" enable-background="accumulate" font-family="Sans"/><path d="M551 11v1h1v-1h-1z" style="text-indent:0;text-align:start;line-height:normal;text-transform:none;block-progression:tb;-inkscape-font-specification:Sans" opacity=".5" overflow="visible" enable-background="accumulate" font-family="Sans"/></g><g fill="#fff" color="#000"><path d="M569 25l-1 1v2l1 1h2l1-1v-2l-1-1h-2zm10 0l-1 1v2l1 1h2l1-1v-2l-1-1h-2zm-9 1c.552 0 1 .448 1 1s-.448 1-1 1-1-.448-1-1 .448-1 1-1zm10 0c.552 0 1 .448 1 1s-.448 1-1 1-1-.448-1-1 .448-1 1-1zm-6 6l-1 1v2l1 1h2l1-1v-2l-1-1h-2zm1 1c.552 0 1 .448 1 1s-.448 1-1 1-1-.448-1-1 .448-1 1-1z" overflow="visible" enable-background="accumulate"/><path d="M578.063 29.219l-1.5 2.5.875.531 1.5-2.5-.875-.531z" style="text-indent:0;text-align:start;line-height:normal;text-transform:none;block-progression:tb;-inkscape-font-specification:Sans" opacity=".5" overflow="visible" enable-background="accumulate" font-family="Sans"/><path d="M571.938 29.219l-.875.531 1.5 2.5.875-.531-1.5-2.5z" style="text-indent:0;text-align:start;line-height:normal;text-transform:none;block-progression:tb;-inkscape-font-specification:Sans" opacity=".5" overflow="visible" enable-background="accumulate" font-family="Sans"/></g><g fill="#fff" color="#000"><path d="M589 22.987l-1 1v2l1 1v6l-1 1v2l1 1h2l1-1h6l1 1h2l1-1v-2l-1-1v-6l1-1v-2l-1-1h-2l-1 1h-6l-1-1zm1 1c.552 0 1 .448 1 1s-.448 1-1 1-1-.448-1-1 .448-1 1-1zm10 0c.552 0 1 .448 1 1s-.448 1-1 1-1-.448-1-1 .448-1 1-1zm-8 2h6l1 1v6l-1 1h-6l-1-1v-6zm-2 8c.552 0 1 .448 1 1s-.448 1-1 1-1-.448-1-1 .448-1 1-1zm10 0c.552 0 1 .448 1 1s-.448 1-1 1-1-.448-1-1 .448-1 1-1z" overflow="visible" enable-background="accumulate"/><path d="M594 27.987l-1 1v2l1 1h2l1-1v-2l-1-1h-2zm1 1c.552 0 1 .448 1 1s-.448 1-1 1-1-.448-1-1 .448-1 1-1z" opacity=".5" overflow="visible" enable-background="accumulate"/></g><g fill="#fff" color="#000"><path d="M549 23.987l-1 1v3l1 1 1 1h3l1-1 1-1v-3l-1-1-1-1h-3zm2 1h1l1 1v1l-1 1h-1l-1-1v-1z" overflow="visible" enable-background="accumulate"/><path d="M559 24.987l-1 1v2l1 1h2l1-1v-2l-1-1h-2zm1 1c.552 0 1 .448 1 1s-.448 1-1 1-1-.448-1-1 .448-1 1-1z" opacity=".5" overflow="visible" enable-background="accumulate"/><path d="M557 30.987l-1 1v2l1 1h2l1-1v-2l-1-1h-2zm1 1c.552 0 1 .448 1 1s-.448 1-1 1-1-.448-1-1 .448-1 1-1z" opacity=".5" overflow="visible" enable-background="accumulate"/><path d="M551 32.987l-1 1v2l1 1h2l1-1v-2l-1-1h-2zm1 1c.552 0 1 .448 1 1s-.448 1-1 1-1-.448-1-1 .448-1 1-1z" opacity=".5" overflow="visible" enable-background="accumulate"/><path d="M555.344 29.625l-.688.719 1 1 .688-.719-1-1z" style="text-indent:0;text-align:start;line-height:normal;text-transform:none;block-progression:tb;-inkscape-font-specification:Sans" opacity=".5" overflow="visible" enable-background="accumulate" font-family="Sans"/><path d="M556 26v1h1v-1h-1z" style="text-indent:0;text-align:start;line-height:normal;text-transform:none;block-progression:tb;-inkscape-font-specification:Sans" opacity=".5" overflow="visible" enable-background="accumulate" font-family="Sans"/><path d="M551 31v1h1v-1h-1z" style="text-indent:0;text-align:start;line-height:normal;text-transform:none;block-progression:tb;-inkscape-font-specification:Sans" opacity=".5" overflow="visible" enable-background="accumulate" font-family="Sans"/></g><g opacity=".5" color="#000" fill="#1a1a1a"><path d="M569 45l-1 1v2l1 1h2l1-1v-2l-1-1h-2zm10 0l-1 1v2l1 1h2l1-1v-2l-1-1h-2zm-9 1c.552 0 1 .448 1 1s-.448 1-1 1-1-.448-1-1 .448-1 1-1zm10 0c.552 0 1 .448 1 1s-.448 1-1 1-1-.448-1-1 .448-1 1-1zm-6 6l-1 1v2l1 1h2l1-1v-2l-1-1h-2zm1 1c.552 0 1 .448 1 1s-.448 1-1 1-1-.448-1-1 .448-1 1-1z" overflow="visible" enable-background="accumulate"/><path d="M578.063 49.219l-1.5 2.5.875.531 1.5-2.5-.875-.531z" style="text-indent:0;text-align:start;line-height:normal;text-transform:none;block-progression:tb;-inkscape-font-specification:Sans" opacity=".5" overflow="visible" enable-background="accumulate" font-family="Sans"/><path d="M571.938 49.219l-.875.531 1.5 2.5.875-.531-1.5-2.5z" style="text-indent:0;text-align:start;line-height:normal;text-transform:none;block-progression:tb;-inkscape-font-specification:Sans" opacity=".5" overflow="visible" enable-background="accumulate" font-family="Sans"/></g><g opacity=".5" color="#000" fill="#1a1a1a"><path d="M589 42.987l-1 1v2l1 1v6l-1 1v2l1 1h2l1-1h6l1 1h2l1-1v-2l-1-1v-6l1-1v-2l-1-1h-2l-1 1h-6l-1-1zm1 1c.552 0 1 .448 1 1s-.448 1-1 1-1-.448-1-1 .448-1 1-1zm10 0c.552 0 1 .448 1 1s-.448 1-1 1-1-.448-1-1 .448-1 1-1zm-8 2h6l1 1v6l-1 1h-6l-1-1v-6zm-2 8c.552 0 1 .448 1 1s-.448 1-1 1-1-.448-1-1 .448-1 1-1zm10 0c.552 0 1 .448 1 1s-.448 1-1 1-1-.448-1-1 .448-1 1-1z" overflow="visible" enable-background="accumulate"/><path d="M594 47.987l-1 1v2l1 1h2l1-1v-2l-1-1h-2zm1 1c.552 0 1 .448 1 1s-.448 1-1 1-1-.448-1-1 .448-1 1-1z" opacity=".5" overflow="visible" enable-background="accumulate"/></g><g opacity=".5" color="#000" fill="#1a1a1a"><path d="M549 43.987l-1 1v3l1 1 1 1h3l1-1 1-1v-3l-1-1-1-1h-3zm2 1h1l1 1v1l-1 1h-1l-1-1v-1z" overflow="visible" enable-background="accumulate"/><path d="M559 44.987l-1 1v2l1 1h2l1-1v-2l-1-1h-2zm1 1c.552 0 1 .448 1 1s-.448 1-1 1-1-.448-1-1 .448-1 1-1z" opacity=".5" overflow="visible" enable-background="accumulate"/><path d="M557 50.987l-1 1v2l1 1h2l1-1v-2l-1-1h-2zm1 1c.552 0 1 .448 1 1s-.448 1-1 1-1-.448-1-1 .448-1 1-1z" opacity=".5" overflow="visible" enable-background="accumulate"/><path d="M551 52.987l-1 1v2l1 1h2l1-1v-2l-1-1h-2zm1 1c.552 0 1 .448 1 1s-.448 1-1 1-1-.448-1-1 .448-1 1-1z" opacity=".5" overflow="visible" enable-background="accumulate"/><path d="M555.344 49.625l-.688.719 1 1 .688-.719-1-1z" style="text-indent:0;text-align:start;line-height:normal;text-transform:none;block-progression:tb;-inkscape-font-specification:Sans" opacity=".5" overflow="visible" enable-background="accumulate" font-family="Sans"/><path d="M556 46v1h1v-1h-1z" style="text-indent:0;text-align:start;line-height:normal;text-transform:none;block-progression:tb;-inkscape-font-specification:Sans" opacity=".5" overflow="visible" enable-background="accumulate" font-family="Sans"/><path d="M551 51v1h1v-1h-1z" style="text-indent:0;text-align:start;line-height:normal;text-transform:none;block-progression:tb;-inkscape-font-specification:Sans" opacity=".5" overflow="visible" enable-background="accumulate" font-family="Sans"/></g><path d="M231 25l-1 1v1l3 3-3 3v1l1 1h1l3-3 3 3h1l1-1v-1l-3-3 3-3v-1l-1-1h-1l-3 3-3-3h-1z" opacity=".5" color="#000" fill="#fff" overflow="visible" enable-background="accumulate"/></g></svg>