<?xml version="1.0" encoding="UTF-8"?><!DOCTYPE svg PUBLIC "-//W3C//DTD SVG 1.1//EN" "http://www.w3.org/Graphics/SVG/1.1/DTD/svg11.dtd"><svg xmlns="http://www.w3.org/2000/svg" xmlns:xlink="http://www.w3.org/1999/xlink"><symbol viewBox="0 0 15 15" id="temaki-antenna" xmlns="http://www.w3.org/2000/svg"><path d="M7.5 4a1 1 0 0 1 1 1v9s0 1-1 1-1-1-1-1V5a1 1 0 0 1 1-1zM4.705 2.529c-.227.033-.124-.008-.309.117-1.195 1.196-1.195 3.512 0 4.708a.5.5 0 0 0 .707-.708c-.804-.804-.804-2.488 0-3.292a.5.5 0 0 0 0-.708l-.165-.109-.233-.008zm5.25 0c-.227.033-.124-.008-.309.117a.502.502 0 0 0 0 .708c.805.804.805 2.488 0 3.292a.5.5 0 0 0 .707.708c1.196-1.196 1.196-3.512 0-4.708l-.165-.109-.233-.008zM12.16.526c-.442.027-.276-.053-.535.143a.5.5 0 0 0 .044.705c2.034 1.801 2.034 5.451 0 7.252a.5.5 0 1 0 .662.748c2.485-2.199 2.485-6.549 0-8.748l-.171-.1zm-9.32 0l-.171.1c-2.485 2.199-2.485 6.549 0 8.748a.499.499 0 1 0 .662-.748c-2.034-1.801-2.034-5.451 0-7.252a.499.499 0 0 0 .043-.705C3.116.473 3.282.553 2.84.526z"/></symbol><symbol viewBox="0 0 15 15" id="temaki-beach" xmlns="http://www.w3.org/2000/svg"><path d="M15 3v10H.045c2.15-.048 4.793-2.076 4.793-2.076s-.502.117-1.288-.336c-.15-.13-.29-.27-.44-.39a.751.751 0 0 0-1 0l-.47.41a1.775 1.775 0 0 1-1.13.41.5.5 0 0 1-.51-.49v-.01a.5.5 0 0 1 .5-.5c.259-.022.499-.144.67-.34a2.142 2.142 0 0 1 1-.6 1.893 1.893 0 0 1 1.76.37l.39.35a.77.77 0 0 0 1.089.011l.011-.011c.14-.12.27-.25.42-.37.716-.386 1.01-.308 1.01-.308l1.278-1.429-.188-.113c-.16-.13-.31-.28-.47-.41a.751.751 0 0 0-1 0c-.16.13-.31.28-.47.41a1.9 1.9 0 0 1-2.45 0c-.15-.13-.29-.27-.44-.39a.751.751 0 0 0-1 0l-.47.41-.528.309-.602.111s-.49.018-.5-.5c-.01-.518.224-.5.5-.5.259-.022.499-.144.67-.34a2.142 2.142 0 0 1 1-.6 1.893 1.893 0 0 1 1.76.37l.33.34a.77.77 0 0 0 1.089.011l.011-.011c.14-.12.27-.25.42-.37a1.91 1.91 0 0 1 2.46.07l.39.34.159.096C10.426 4.835 12.351 3.275 15 3z"/></symbol><symbol viewBox="0 0 15 15" id="temaki-bench" xmlns="http://www.w3.org/2000/svg"><path d="M13.5 3v3h1v2.75h.5v1.5h-.5V13h-1v-2.75h-1v1.25h-1v-1.25h-8v1.25h-1v-1.25h-1V13h-1v-2.75H0v-1.5h.5V6h1V3h12zm0 4v1h-1v.75h1V7zm-2 1h-8v.75h8V8zm-10-1v1.75h1V8h-1V7z"/></symbol><symbol viewBox="0 0 15 15" id="temaki-binoculars" xmlns="http://www.w3.org/2000/svg"><path d="M11 2.5C12 4 12 4 12.5 5.344c.5 1 .5 4.156.5 5.156 0 .5-4 .5-4 0V9.344c0-.5-.5-.844-.5-1.344v-.5h-2V8c0 .5-.5.844-.5 1.344V10.5c0 .5-4 .5-4 0 0-1 0-4.156.5-5.156C3 4 3 4 4 2.5c0-.5 2-.5 2 0v1h3v-1c0-.5 2-.5 2 0zm-8.5 9c-.552 0-1 .56-1 1.25S1.948 14 2.5 14h3c.552 0 1-.56 1-1.25s-.448-1.25-1-1.25h-3zm7 0c-.552 0-1 .56-1 1.25S8.948 14 9.5 14h3c.552 0 1-.56 1-1.25s-.448-1.25-1-1.25h-3zM4.5 1a.5.5 0 0 0 0 1h1a.5.5 0 0 0 0-1h-1zm5 0a.5.5 0 0 0 0 1h1a.5.5 0 0 0 0-1h-1z"/></symbol><symbol viewBox="0 0 15 15" id="temaki-bowling" xmlns="http://www.w3.org/2000/svg"><path d="M1.5 14c-.164-.855-.629-2.597-.5-4.5.156-2.313 1.403-3.699 1.5-4 .172-.531.171-.828 0-1.5-.219-.859-1-3.5.75-3.5S4.204 3.093 4 4c-.141.625-.141 1.062 0 1.5.105.327 1.234 1.891 1.5 4 .253 2.01-.28 3.526-.5 4.5-.22.975-3.312.982-3.5 0zm9-6a.5.5 0 1 1 0 1 .5.5 0 0 1 0-1zm2 .5a.5.5 0 1 1 0 1 .5.5 0 0 1 0-1zM11 10a.5.5 0 1 1 0 1 .5.5 0 0 1 0-1zm-.5-3.5a4 4 0 1 0 0 8 4 4 0 0 0 0-8z"/></symbol><symbol viewBox="0 0 15 15" id="temaki-buffer_stop" xmlns="http://www.w3.org/2000/svg"><path d="M2 2a1 1 0 0 1 1 1v.555L12.384 12H13a1 1 0 0 1 0 2H2a1 1 0 0 1 0-2h.5l2.374-4L3 6.208c-.044.524-.572.706-1 .792a1 1 0 0 1-1-1V3a1 1 0 0 1 1-1zm4.389 7.295L4.75 12h4.644L6.389 9.295z"/></symbol><symbol viewBox="0 0 15 15" id="temaki-bulb" xmlns="http://www.w3.org/2000/svg"><path d="M8.5 11.5h-2c-.5 0-.5-2-1.5-3-1.076-1.076-2-2.484-2-4 0-3 2.5-4 4.5-4s4.5 1 4.5 4c0 1.524-.923 2.923-2 4-1 1-1 3-1.5 3zm-2 2.5h.25c0 .276.336.5.75.5s.75-.224.75-.5h.25a.5.5 0 0 0 0-1h-2a.5.5 0 0 0 0 1zm2-2.25h-2a.5.5 0 0 0 0 1h2a.5.5 0 0 0 0-1z"/></symbol><symbol viewBox="0 0 15 15" id="temaki-chimney" xmlns="http://www.w3.org/2000/svg"><path d="M10.5 0c1.933 0 3.5.896 3.5 2 0 1.105-1.567 2-3.5 2-1.003-.058-.476.014-1.576-.25C8.737 4.757 7.558 4.891 6.75 5H6c0 .552-.672 1-1.5 1S3 5.552 3 5s.672-1 1.5-1l.158.021L4.5 3.5C4.5 2.672 5.507 2 6.75 2H7c0-1.104 1.567-2 3.5-2zM2 7v7c0 .5 2.5.5 2.5 0V7c0-.479-2.5-.521-2.5 0z"/></symbol><symbol viewBox="0 0 15 15" id="temaki-clock" xmlns="http://www.w3.org/2000/svg"><path d="M10.89 4.512c.437.073.28-.024.517.197a.502.502 0 0 1-.116.698l-1.75 1.25-1.75 1.25a.5.5 0 0 1-.548.022l-.703-.422-1.797-1.078a.5.5 0 1 1 .514-.858l.703.422 1.516.91 1.483-1.06 1.75-1.25.181-.081zM7.5 1.5a6 6 0 1 1 0 12 6 6 0 0 1 0-12zm0-1.5a7.5 7.5 0 1 0 0 15 7.5 7.5 0 0 0 0-15z"/></symbol><symbol viewBox="0 0 15 15" id="temaki-crane" xmlns="http://www.w3.org/2000/svg"><path d="M14.5 1v2h-1v4a.5.5 0 0 1-1 0V3H7.844l.841 9.25H10v1.5H2v-1.5h1.315L4.156 3H2.5V1h12zm-7.503 9.25H5.003l-.182 2h2.358l-.182-2zm-.318-3.5H5.321l-.182 2H6.86l-.181-2zM6.338 3h-.676l-.204 2.25h1.084L6.338 3z"/></symbol><symbol viewBox="0 0 15 15" id="temaki-diamond" xmlns="http://www.w3.org/2000/svg"><path d="M7.5.5l7 7-7 7-7-7 7-7zm0 2.284L2.784 7.5 7.5 12.216 12.216 7.5 7.5 2.784z"/></symbol><symbol viewBox="0 0 15 15" id="temaki-dice" xmlns="http://www.w3.org/2000/svg"><path d="M8 12a1 1 0 1 1 0-2 1 1 0 0 1 0 2zm-2-2a1 1 0 1 0 0-2 1 1 0 0 0 0 2zM4 8a1 1 0 1 0 0-2 1 1 0 0 0 0 2zm4 0a1 1 0 1 0 0-2 1 1 0 0 0 0 2zm-4 4a1 1 0 1 0 0-2 1 1 0 0 0 0 2zm6-7v8H2V5h8zm0-1.5H2A1.5 1.5 0 0 0 .5 5v8A1.5 1.5 0 0 0 2 14.5h8a1.5 1.5 0 0 0 1.5-1.5V5A1.5 1.5 0 0 0 10 3.5zm3-2.25H5a.75.75 0 0 0 0 1.5h7.25V10a.75.75 0 0 0 1.5 0V2a.75.75 0 0 0-.75-.75z"/></symbol><symbol viewBox="0 0 15 15" id="temaki-elevator" xmlns="http://www.w3.org/2000/svg"><path d="M7.5 15L3 8h9l-4.5 7zm0-15L12 7H3l4.5-7z"/></symbol><symbol viewBox="0 0 15 15" id="temaki-fire_hydrant" xmlns="http://www.w3.org/2000/svg"><path d="M7.5.5c.388 0 .703.32.703.714v-.036c1.179.229 1.669.971 2.062 2.036h.188c.233 0 .422.256.422.572 0 .315-.189.571-.422.571H9.75v2h1.688c.31 0 .562.256.562.572v1.714a.567.567 0 0 1-.562.571H9.75v3.857h.562a.71.71 0 0 1 .704.715.71.71 0 0 1-.704.714H4.687a.709.709 0 0 1-.703-.714.71.71 0 0 1 .704-.715h.562V9.214H3.562A.567.567 0 0 1 3 8.643V6.928c0-.315.252-.571.562-.571H5.25v-2h-.703c-.233 0-.422-.256-.422-.571 0-.316.189-.572.422-.572h.151c.382-1.294.932-1.6 2.099-2.036v.036C6.797.82 7.112.5 7.5.5z"/></symbol><symbol viewBox="0 0 15 15" id="temaki-fountain" xmlns="http://www.w3.org/2000/svg"><path d="M3.75 1.5c-2.25 0-3 2-3 4.5 0 2 1 2 1 0 0-2.5 1-3.5 2-3.5C5.5 2.5 6.5 5.75 6.5 7c0 0-.25-.25-1-.25-1.25 0-2 1-2 2.75 0 1.25.75 1.25.75 0S5 7.75 5.5 7.75 6.75 8 7 10c.283 1.98.715 1.984.966 0C8.25 8 8.75 7.75 9.5 7.75c.5 0 1 .5 1 1.25 0 1.5.75 1.5.75 0 0-1.75-1-2.25-1.75-2.25S8.5 7 8.5 7c.25-1.75 1-4 2.5-4s2.25 2 2.25 3.75 1 1.75 1 0C14.25 3.5 12.75 2 11 2 8.75 2 7.75 4.5 7.5 6c-.25-2-1.25-4.5-3.75-4.5zM14 11.508a.5.5 0 1 1 0 1 .995.995 0 0 0-.6.33 2.145 2.145 0 0 1-1 .6 1.893 1.893 0 0 1-1.76-.37l-.39-.35-.011-.012a.77.77 0 0 0-1.089.012c-.15.12-.27.26-.42.37a1.912 1.912 0 0 1-2.46-.07l-.39-.35a.75.75 0 0 0-1 0c-.19.15-.36.33-.55.47a1.9 1.9 0 0 1-2.33-.06l-.36-.26a.928.928 0 0 0-.64-.31.5.5 0 0 1 0-1h.06c.237-.014.474.042.68.16.278.172.543.366.79.58a.843.843 0 0 0 .8.25.944.944 0 0 0 .3-.16c.15-.12.29-.26.44-.39a1.898 1.898 0 0 1 2.44 0c.16.13.31.28.47.41a.751.751 0 0 0 1 0c.16-.13.31-.28.47-.41a1.9 1.9 0 0 1 2.45 0c.15.13.29.27.44.39a.751.751 0 0 0 1 0l.47-.41c.332-.281.755-.43 1.19-.42z"/></symbol><symbol viewBox="0 0 15 15" id="temaki-hinduism" xmlns="http://www.w3.org/2000/svg"><path d="M6.421 2.083s1.711 3.056 4.281.542c.354.542 1.07 1.625 1.07 1.625S8.087 6.802 6.421 2.083zM1.07 4.25c.309.66.707 1.47 1.07 2.167.54-1.084 2.141-1.084 2.141-1.084 1.07 0 1.855.425 1.855 1.113S5.351 7.5 4.281 7.5v1.625c1.403-.269 2.143.855 1.8 1.633C5.431 12.23 1.61 12.404 0 9.667 0 13.987 3.683 14 4.281 14c2.14 0 3.211-2.167 3.211-4.333.557.588 1.45.591 2.14 0 .968-.829 1.347-2.178 2.676-2.167 1.62.013 1.605 3.25.535 4.333-1.071 1.084-3.633.699-4.281-1.083 0 1.083 0 3.251 3.21 3.25 3.211-.002 3.862-3.666 2.676-6.5-.733-1.752-2.105-2.221-3.585-1.757-1.143.359-1.091.872-1.766 1.757-.353.429-.535 1.083-1.605 1.083-.372 0-.826-.297-1.071-.541 1.325-.959 1.13-2.803 0-3.792-1.485-1.3-4.109-1.034-5.351 0zm6.422-2.167L8.562 1l1.07 1.083-1.07 1.084z"/></symbol><symbol viewBox="0 0 15 15" id="temaki-junction" xmlns="http://www.w3.org/2000/svg"><path d="M13.774 2.367a.986.986 0 0 1-.141 1.407L8.5 7.974V13a1 1 0 0 1-2 0V7.974l-5.133-4.2a1 1 0 1 1 1.266-1.548L7.5 6.208l4.867-3.982c.479-.407 1.042-.29 1.407.141z"/></symbol><symbol viewBox="0 0 15 15" id="temaki-light_rail" xmlns="http://www.w3.org/2000/svg"><path d="M4.091 12.449h1.515l-.379.683h4.546l-.379-.683h1.515l1.136 2.051H10.53l-.378-.684H4.848l-.378.684H2.955l1.136-2.051zm5.631-3.092l-1.111.877v.439h2.222l.556-.439v-.877H9.722zm-6.111 0v.877l.556.439h2.222v-.439l-1.111-.877H3.611zm.556-4.387l-.556.439v1.755h7.778V5.409l-.556-.439H4.167zm1.111-2.193v.877h4.444v-.877H5.278zm0-.439h4.444L12.5 4.97v6.142l-1.111.877H3.611L2.5 11.112V4.97l2.778-2.632zM9.773.5v.46H7.955v.919h-.91V.96H5.227V.5z"/></symbol><symbol viewBox="0 0 15 15" id="temaki-milestone" xmlns="http://www.w3.org/2000/svg"><path d="M3 4.5c0-5 9-5 9 0v1H3zM3 6v8.5h9V6H3z"/></symbol><symbol viewBox="0 0 15 15" id="temaki-military" xmlns="http://www.w3.org/2000/svg"><path d="M4.719 15l.531-2.894L3 10.056l3.109-.423L7.5 7l1.391 2.633 3.109.423-2.25 2.05.531 2.894L7.5 13.633zM3 4l4.5 3L12 4V0H3"/></symbol><symbol viewBox="0 0 15 15" id="temaki-monorail" xmlns="http://www.w3.org/2000/svg"><path d="M4 12.014l-1-1.049V4.147L5.5 1h4L12 4.147v6.818l-1 1.049H9.5v1.573h-1v-1.048l-.5-.525H7l-.5.525v1.048h-1v-1.573H4zm7-3.671H9l-.5 1.049v.524h2l.5-.524V8.343zm-5 0H4v1.049l.5.524h2v-.524L6 8.343zm4.5-4.196h-6l-.5.524v2.098h7V4.671l-.5-.524zm-1-2.623h-4v1.049h4V1.524zM8 12.539H7v1.573H6v.524h3v-.524H8v-1.573z"/></symbol><symbol viewBox="0 0 15 15" id="temaki-pedestrian" xmlns="http://www.w3.org/2000/svg"><path d="M9.375 1.958c0 .806-.7 1.459-1.563 1.459-.862 0-1.562-.653-1.562-1.459C6.25 1.153 6.95.5 7.812.5c.863 0 1.563.653 1.563 1.458zM6.25 4h.938L12.5 7.792v.875h-.625L8.75 6.406v2.261L10 11l1.25 2.917-.625.583H10l-1.25-2.917-2.5-3.5V5.367L4.688 6.625l-1.25 2.042H2.5v-.584l.938-1.75L6.25 4zm.527 6.07L5.332 14.5h-.645l-.625-.583L5.82 8.995z"/></symbol><symbol viewBox="0 0 15 15" id="temaki-power" xmlns="http://www.w3.org/2000/svg"><path d="M6 0L4 8h3l-2 7 6-9H8l3-6H6z"/></symbol><symbol viewBox="0 0 15 15" id="temaki-radiation" xmlns="http://www.w3.org/2000/svg"><path d="M8.747 9.066l2.637 4.351a7.489 7.489 0 0 1-4.696 1.039 7.498 7.498 0 0 1-2.859-.914l2.492-4.435c.279.157.589.256.916.292a2.39 2.39 0 0 0 1.51-.333zM11.321.549L8.727 4.925a2.41 2.41 0 0 1 1.185 2.119l5.087.089A7.498 7.498 0 0 0 11.321.549zM3.765.5A7.491 7.491 0 0 0 0 7.04l5.088-.022a2.407 2.407 0 0 1 1.213-2.109L3.765.5zm5.254 6.522a1.454 1.454 0 1 0-2.908.002 1.454 1.454 0 0 0 2.908-.002z"/></symbol><symbol viewBox="0 0 15 15" id="temaki-railway_signals" xmlns="http://www.w3.org/2000/svg"><path d="M9.214 1.5A2.297 2.297 0 0 1 11.5 3.808v7.384A2.297 2.297 0 0 1 9.214 13.5l-3.428-.001C4.523 13.5 3.5 12.466 3.5 11.192V3.808A2.297 2.297 0 0 1 5.786 1.5h3.428zM7.5 8.5a1.5 1.5 0 1 0 0 3 1.5 1.5 0 0 0 0-3zm0-5a1.5 1.5 0 1 0 0 3 1.5 1.5 0 0 0 0-3z"/></symbol><symbol viewBox="0 0 15 15" id="temaki-ruins" xmlns="http://www.w3.org/2000/svg"><path d="M1 5.5c0-.521 3-.479 3 0V13c0 .5-3 .5-3 0V5.5zm5 0V13c0 .5 3 .5 3 0V5.5c0-.479-3-.521-3 0zm5.58 1C11 6 9 8 9.5 8.437l4.162 4.96c.547.096.931-.07 1.338-.397-.881-.864-.582-.752-.732-1.741.216-.836.001-.492.581-1.061C13.824 8.975 12 7 11.58 6.5zM6 1.5H1c-.5 0-.5 3 0 3h8c.466-.316.212-1.542 0-2-1.381 0-3-.448-3-1z"/></symbol><symbol viewBox="0 0 15 15" id="temaki-shinto" xmlns="http://www.w3.org/2000/svg"><path d="M0 0c0 1.071.701 1.756 1.071 2.126.371.37.903.227.903.506 0 0 .169.566.705.566h1.339c0 .308.268.535.268.535s-.268.151-.268.536H2.679c-.536 0-.536.268-.536.536v1.071c0 .257.247.536.536.536h1.339v1.071h-.804c0 .435.29.784.804 1.072v5.893c0 .705 1.607.766 1.607 0V6.412h3.75v8.036c0 .741 1.607.689 1.607 0V8.555c.514-.334.804-.635.804-1.072h-.804V6.412h1.339c.237 0 .536-.279.536-.536V4.805c0-.536-.294-.536-.536-.536h-1.339c.026-.283-.268-.536-.268-.536s.268-.227.268-.535h1.339c.536 0 .536-.536.536-.536 0-.253.625-.149 1.072-.536C14.376 1.739 15 1.071 15 0 8.571 1.071 5.357 1.071 0 0zm5.625 3.198h1.071v1.071H5.625c0-.308-.268-.536-.268-.536s.268-.202.268-.535zm2.679 0h1.071c0 .283.268.535.268.535s-.268.253-.268.536H8.304z"/></symbol><symbol viewBox="0 0 15 15" id="temaki-shower" xmlns="http://www.w3.org/2000/svg"><path d="M11.25 4v2h-.5V4h.5zm1.974-.112l-.448.224 1 2 .448-.224-1-2zm-4.448 0l-1 2 .448.224 1-2-.448-.224zM11 0c-.237 0-.633.014-1.138.056-.841.07-1.683.197-2.48.396a8.963 8.963 0 0 0-1.829.654C3.179 2.293 2 4.65 2 8v6a1 1 0 0 0 2 0V8c0-2.65.821-4.293 2.447-5.105a7.003 7.003 0 0 1 1.421-.503c1.172-.235.7-.17 1.405-.253-.442.326-.234.156-.627.508A.5.5 0 0 0 9 3.5h4a.5.5 0 0 0 .354-.853 4.714 4.714 0 0 0-.702-.563c-.866-.451-.518-.371-.97-.456.333-.332.217-.128.318-.628a1 1 0 0 0-1-1z"/></symbol><symbol viewBox="0 0 15 15" id="temaki-sikhism" xmlns="http://www.w3.org/2000/svg"><path d="M7.483 0L6.397 1.071c.068.468.085.831.136 1.239-1.327.407-2.308 1.605-2.308 3.047 0 1.454.999 2.65 2.342 3.047-.056.403-.093.782-.17 1.239l.543.536v.435c-.998-.665-2.06-1.405-2.715-2.043-2.203-2.142-1.621-5.892 1.086-7.5C3.145 1.607 1 3.545 1 6.429c0 3.214 3.225 4.285 3.225 5.357l1.086-1.072 1.391.77c-.665.407-1.391.837-1.391.837l.543.536 1.154-.636v.77c-.353.177-.611.521-.611.938 0 .591.486 1.071 1.086 1.071.6 0 1.086-.48 1.086-1.071 0-.417-.224-.761-.577-.938v-.77l1.12.636.543-.536s-.765-.474-1.357-.837l1.357-.77 1.087 1.072c0-1.072 3.258-2.143 3.258-5.357 0-2.884-2.172-4.822-4.345-5.358 2.716 1.608 3.296 5.358 1.087 7.5-.667.647-1.703 1.405-2.716 2.076v-.468l.543-.536c-.075-.444-.115-.83-.17-1.239 1.343-.397 2.343-1.593 2.343-3.047 0-1.453-1-2.649-2.343-3.047.055-.408.095-.795.17-1.239L7.483 0zm.781 3.348a2.152 2.152 0 0 1 1.391 2.009 2.15 2.15 0 0 1-1.391 2.009 20.434 20.434 0 0 1 0-4.018zm-1.63.034c.01-.004.025.004.034 0 .147 1.489.164 2.66.034 3.984a2.15 2.15 0 0 1-1.391-2.009c0-.887.544-1.65 1.323-1.975zm-1.866 9.475a.54.54 0 0 0-.543.536.54.54 0 0 0 .543.536c.3 0 .543-.24.543-.536a.54.54 0 0 0-.543-.536zm5.43 0a.54.54 0 0 0-.543.536.54.54 0 0 0 .543.536c.3 0 .544-.24.544-.536a.54.54 0 0 0-.544-.536z"/></symbol><symbol viewBox="0 0 15 15" id="temaki-silo" xmlns="http://www.w3.org/2000/svg"><path d="M5 3.5c0 .5 5 .5 5 0v10.625c0 1-5 1-5 0V3.5zm0-.875c0 .5 5 .5 5 0 0-3.5-5-3.5-5 0z"/></symbol><symbol viewBox="0 0 15 15" id="temaki-social_facility" xmlns="http://www.w3.org/2000/svg"><path d="M0 8.5L2 9l2.5 1s1-.5 1.5-.5h2l3-.5s.5.5 0 1c-.354.354-2.5 1-3 1s.5.5.5.5H10s2 0 3-.5 2-1 2-.5c0 .094-.326.322-.5.5-.746.764-2.5 2-2.5 2s-2 .5-4 .5c-.5 0-2-1-2.5-1S0 13 0 12.5v-4zM12.514.507c1.669.714 1.999 1.388 1.339 3.032a19.466 19.466 0 0 1-3.018 3.852.353.353 0 0 1-.498.012l-.012-.012A19.369 19.369 0 0 1 7.3 3.539C5.992.924 9.312-.822 10.576 1.793 11.078.791 11.47.757 12.514.507z"/></symbol><symbol viewBox="0 0 15 15" id="temaki-stop" xmlns="http://www.w3.org/2000/svg"><path d="M1 5l4-4h5l4 4v5l-4 4H5l-4-4V5z"/></symbol><symbol viewBox="0 0 15 15" id="temaki-storage_tank" xmlns="http://www.w3.org/2000/svg"><path d="M3 3.5c0 2 9 2 9 0v9c0 2-9 2-9 0v-9zm.25-1c0 2 8.5 2 8.5 0s-8.5-2-8.5 0z"/></symbol><symbol viewBox="0 0 15 15" id="temaki-subway" xmlns="http://www.w3.org/2000/svg"><path d="M4.389 12.212h1.335l-.333.596h4.004l-.334-.596h1.335L11.397 14h-1.335l-.333-.596H5.057L4.723 14H3.388l1.001-1.788zm5.406-2.698l-.8.766v.383h1.601l.401-.383v-.766H9.795zm-6.006 0v.766l.4.383h1.602v-.383l-.801-.766H3.789zm.4-4.214l-.4.383v1.533l1.201.766h4.805l1.202-.766V5.683l-.401-.383H4.189zm1.602-1.532v.766h3.204v-.766H5.791zm-.4-.766h4.004L11.798 5.3v5.746l-.801.766H3.789l-.801-.766V5.3l2.403-2.298zM6.992 1h3.204c1.975.329 3.604 1.201 3.604 3.604v8.009l-1.201-.401V4.604c0-1.602-1.202-2.403-2.403-2.403H4.59c-1.202 0-2.403.801-2.403 2.403v7.608l-1.201.401V4.604C.986 2.201 2.587 1 4.59 1z"/></symbol><symbol viewBox="0 0 15 15" id="temaki-taoism" xmlns="http://www.w3.org/2000/svg"><path d="M7.5 15c4.134 0 7.5-3.395 7.5-7.5S11.654 0 7.5 0A7.496 7.496 0 0 0 0 7.5C0 11.636 3.366 15 7.5 15zm0-1.071A6.42 6.42 0 0 1 1.071 7.5 6.42 6.42 0 0 1 7.5 1.071c3.214 0 4.286 5.871 0 6.429-4.286.558-3.123 6.429 0 6.429zm0-2.143a1.071 1.071 0 1 1 0-2.142 1.071 1.071 0 0 1 0 2.142zm0-6.429a1.071 1.071 0 1 0 0-2.142 1.071 1.071 0 0 0 0 2.142z"/></symbol><symbol viewBox="0 0 15 15" id="temaki-tools" xmlns="http://www.w3.org/2000/svg"><path d="M5.547 1.671c.254.315.442.657.562 1.026.121.369.158 1.114.158 1.114s-.094.737-.24 1.089c-.15.351-.365.67-.65.954C5.191 6.04 4.5 6.5 4 6.5v7c0 1.5-2 1.5-2 0v-7c-.5 0-.89-.501-1.068-.673a3.088 3.088 0 0 1-.691-1.04A3.182 3.182 0 0 1 0 3.604a3.156 3.156 0 0 1 .221-1.172c.148-.383.372-.725.672-1.026.288-.287.62-.509 1-.666A3.189 3.189 0 0 1 3.073.5L1.796 3.282l.9 1.295 1.554-.134zM15 .5h-1.5c0 .5-.5 1-1 1H10C8.5 1.5 7 3.553 7 5c1-.947 1.385-1 3-1v9.5c0 1.5 2 1.5 2 0V4h.5c.5 0 1 .5 1 1H15V.5z"/></symbol><symbol viewBox="0 0 15 15" id="temaki-tower" xmlns="http://www.w3.org/2000/svg"><path d="M6 5.5h3V14c0 1-3 1-3 0V5.5zM10.5 2L10 4H8V2h2.5zM7 2v2H5l-.5-2H7zm2.5-2h-4L5 1H3l1 4h7l1-4h-2l-.5-1z"/></symbol><symbol viewBox="0 0 15 15" id="temaki-traffic_signals" xmlns="http://www.w3.org/2000/svg"><path d="M9.214 0A2.297 2.297 0 0 1 11.5 2.308v10.384A2.297 2.297 0 0 1 9.214 15H5.786A2.297 2.297 0 0 1 3.5 12.692V2.308A2.297 2.297 0 0 1 5.786 0h3.428zM7.5 10.5a1.5 1.5 0 1 0 .001 3.001A1.5 1.5 0 0 0 7.5 10.5zm0-4.5a1.5 1.5 0 1 0 .001 3.001A1.5 1.5 0 0 0 7.5 6zm0-4.5a1.5 1.5 0 1 0 .001 3.001A1.5 1.5 0 0 0 7.5 1.5z"/></symbol><symbol viewBox="0 0 15 15" id="temaki-tram" xmlns="http://www.w3.org/2000/svg"><path d="M9.561 13.065L10.288 15H11.5l-.727-1.935zm-5.349 0L3.5 15h1.212l.712-1.935zm5.133-3.388l-.862.968v.484h1.724l.431-.484v-.968H9.345zm-4.741 0v.968l.431.484h1.724v-.484l-.862-.968H4.604zm.431-4.838l-.431.484v1.935h6.034V5.323l-.431-.484H5.035zm.862-2.42v.968h3.448v-.968H5.897zm0-.484h3.448L11.5 4.839v6.774l-.862.968H4.604l-.862-.968V4.839l2.155-2.904zM10.045 0v.484H8.106v.968h-.97V.484H5.197V0z"/></symbol><symbol viewBox="0 0 15 15" id="temaki-trolleybus" xmlns="http://www.w3.org/2000/svg"><path d="M4.538 2C3.385 2 2 2.595 2 4.197V11.6s0 .8.846.8v.8s0 .8.846.8.846-.8.846-.8v-.8h5.924v.8s0 .8.846.8.846-.8.846-.8v-.8s.846 0 .846-.8V4.197C13 2.56 11.954 2 10.8 2H4.538zm.212 1.2h5.5c.117 0 .212.089.212.2 0 .111-.095.2-.212.2h-5.5c-.117 0-.212-.089-.212-.2 0-.111.095-.2.212-.2zM3.692 4.4h7.616c.846 0 .846.773.846.773V7.6s0 .8-.846.8H3.692c-.846 0-.846-.8-.846-.8V5.2s0-.8.846-.8zm0 5.6c.468 0 .846.358.846.8 0 .442-.378.8-.846.8-.467 0-.846-.358-.846-.8 0-.442.379-.8.846-.8zm7.616 0c.467 0 .846.358.846.8 0 .442-.379.8-.846.8-.468 0-.846-.358-.846-.8 0-.442.378-.8.846-.8zM10 0v.5H8v1H7v-1H5V0z"/></symbol><symbol viewBox="0 0 15 15" id="temaki-vending_machine" xmlns="http://www.w3.org/2000/svg"><path d="M12 0a1 1 0 0 1 1 1v13a1 1 0 0 1-1 1H3a1 1 0 0 1-1-1V1a1 1 0 0 1 1-1h9zM9 11H6v1.5h3V11zm0-5H8v1h1V6zM5 6H4v1h1V6zm2 0H6v1h1V6zm4 0h-1v1h1V6zm0-2h-1v1h1V4zM7 4H6v1h1V4zM5 4H4v1h1V4zm4 0H8v1h1V4zm0-2H8v1h1V2zM5 2H4v1h1V2zm2 0H6v1h1V2zm4 0h-1v1h1V2z"/></symbol><symbol viewBox="0 0 15 15" id="temaki-vertex" xmlns="http://www.w3.org/2000/svg"><path d="M7.5 4.5a3 3 0 1 1 0 6 3 3 0 0 1 0-6z"/></symbol><symbol viewBox="0 0 15 15" id="temaki-wind_turbine" xmlns="http://www.w3.org/2000/svg"><path d="M8 6.25v8.25c0 .345-.155.5-.5.5s-.5-.155-.5-.5V8l1-1.75zM3.5.5c.18.271 3.25 4 3.25 4L5 8.75c-.159.392 0 1.231.25 1C5.664 9.368 8 5 8 5l4-1.2c.524-.145.882-.8.5-.8-.554 0-4.646.456-4.646.456L4.5.5c-.377-.346-1.197-.298-1 0z"/></symbol><symbol viewBox="0 0 15 15" id="temaki-windmill" xmlns="http://www.w3.org/2000/svg"><path d="M4.833 0l-1 1L6.5 3.667l.667-1.334L4.833 0zM3.667 1.167l-.5.5L6 4.5l.5-.5-2.833-2.833zm8 0L8.833 4l.5.5 2.834-2.833-.5-.5zm.666.666L9.667 4.5 11 5.167l2.333-2.334-1-1zM7.667 3.167L4.552 6.281l-.219-.114L2 8.5l1 1 1.271-1.271-.042.375-1.062 1.063.5.5.427-.427-.427 3.593C2 13.667 1 15 1 15h13.333s-1-1.333-2.666-1.667l-.334-2.833.167-.167-.208-.177-.052-.416.427.427.5-.5-1.063-1.063-.271-2.271-3.166-3.166zM7.167 7h1L8.5 9H6.833l.334-2z"/></symbol><symbol viewBox="0 0 15 15" id="temaki-window" xmlns="http://www.w3.org/2000/svg"><path d="M12.5 13.5v1h-10v-1h10zM11 2v4H8V2h3zM7 2v4H4V2h3zm0 5v4.5H4V7h3zm4 0v4.5H8V7h3zM2.5.5V13h10V.5h-10z"/></symbol><symbol viewBox="0 0 15 15" id="temaki-yield" xmlns="http://www.w3.org/2000/svg"><path d="M14.5 1.5L7.5 14 .5 1.5h14zM12.027 3H2.973L7.5 11.085 12.027 3z"/></symbol></svg>