<?xml version="1.0" encoding="utf-8"?><svg xmlns="http://www.w3.org/2000/svg" xmlns:xlink="http://www.w3.org/1999/xlink"><symbol viewBox="0 0 48 48" id="tnp-2009223" xmlns="http://www.w3.org/2000/svg"><g data-name="Layer 2"><path d="M3.981 36h12.04a.98.98 0 00.979-.98V17a.98.98 0 00-1.795-.543l-12.04 18.02A.98.98 0 003.982 36zM20 36h23.993A1.004 1.004 0 0045 34.98C44.58 16.6 32.843.764 20.033.001a.992.992 0 00-1.033 1v34A1 1 0 0020 36zM46 39H2a2 2 0 00-2 2 7 7 0 007 7h34a7 7 0 007-7 2 2 0 00-2-2z"/></g></symbol><symbol viewBox="0 0 20 48" id="tnp-2009234" xmlns="http://www.w3.org/2000/svg"><g data-name="Layer 2"><path d="M1 15h18a1 1 0 001-1 6 6 0 00-6-6V4a2 2 0 000-4H6a2 2 0 000 4v4a6 6 0 00-6 6 1 1 0 001 1z"/><rect y="18" width="20" height="4" rx="1" ry="1"/><rect y="25" width="20" height="4" rx="1" ry="1"/><path d="M19 32H1a1 1 0 00-1 1v13a2 2 0 002 2h16a2 2 0 002-2V33a1 1 0 00-1-1z"/></g></symbol><symbol viewBox="0 0 48 48" id="tnp-2009265" xmlns="http://www.w3.org/2000/svg"><path d="M46 26a2 2 0 00-2 2v3l-12-9v-4.52a2.493 2.493 0 00-4-1.973V10.63a3 3 0 00-.212-1.109L25.096.744a1.18 1.18 0 00-2.192 0L20.212 9.52A3 3 0 0020 10.63v4.877a2.493 2.493 0 00-4 1.973V22L4 31v-3a2 2 0 00-4 0v14a2 2 0 004 0v-2l16-4v5l-4.45 3.811a1.868 1.868 0 001.322 3.19l7.117-1 7.14 1a1.868 1.868 0 001.32-3.19L28 41.001v-5l16 4v2a2 2 0 104 0V28a2 2 0 00-2-2z" data-name="Layer 2"/></symbol><symbol viewBox="0 0 22 48" id="tnp-2009541" xmlns="http://www.w3.org/2000/svg"><g data-name="Layer 2"><path d="M0 42.954V46.5a1.5 1.5 0 003 0V45h16v1.5a1.5 1.5 0 003 0V8H0zM17 25a1 1 0 012 0v3a1 1 0 01-2 0zM16 0H6a6 6 0 00-6 6h22a6 6 0 00-6-6z"/></g></symbol></svg>