<?xml version="1.0" encoding="utf-8"?><svg xmlns="http://www.w3.org/2000/svg" xmlns:xlink="http://www.w3.org/1999/xlink"><symbol viewBox="0 0 48 48" id="tnp-2009223" xmlns="http://www.w3.org/2000/svg"><g data-name="Layer 2"><path d="M3.981 36h12.04a.98.98 0 00.979-.98V17a.98.98 0 00-1.795-.543l-12.04 18.02A.98.98 0 003.982 36zM20 36h23.993A1.004 1.004 0 0045 34.98C44.58 16.6 32.843.764 20.033.001a.992.992 0 00-1.033 1v34A1 1 0 0020 36zM46 39H2a2 2 0 00-2 2 7 7 0 007 7h34a7 7 0 007-7 2 2 0 00-2-2z"/></g></symbol><symbol viewBox="0 0 20 48" id="tnp-2009234" xmlns="http://www.w3.org/2000/svg"><g data-name="Layer 2"><path d="M1 15h18a1 1 0 001-1 6 6 0 00-6-6V4a2 2 0 000-4H6a2 2 0 000 4v4a6 6 0 00-6 6 1 1 0 001 1z"/><rect y="18" width="20" height="4" rx="1" ry="1"/><rect y="25" width="20" height="4" rx="1" ry="1"/><path d="M19 32H1a1 1 0 00-1 1v13a2 2 0 002 2h16a2 2 0 002-2V33a1 1 0 00-1-1z"/></g></symbol><symbol viewBox="0 0 48 48" id="tnp-2009265" xmlns="http://www.w3.org/2000/svg"><path d="M46 26a2 2 0 00-2 2v3l-12-9v-4.52a2.493 2.493 0 00-4-1.973V10.63a3 3 0 00-.212-1.109L25.096.744a1.18 1.18 0 00-2.192 0L20.212 9.52A3 3 0 0020 10.63v4.877a2.493 2.493 0 00-4 1.973V22L4 31v-3a2 2 0 00-4 0v14a2 2 0 004 0v-2l16-4v5l-4.45 3.811a1.868 1.868 0 001.322 3.19l7.117-1 7.14 1a1.868 1.868 0 001.32-3.19L28 41.001v-5l16 4v2a2 2 0 104 0V28a2 2 0 00-2-2z" data-name="Layer 2"/></symbol><symbol viewBox="0 0 22 48" id="tnp-2009541" xmlns="http://www.w3.org/2000/svg"><g data-name="Layer 2"><path d="M0 42.954V46.5a1.5 1.5 0 003 0V45h16v1.5a1.5 1.5 0 003 0V8H0zM17 25a1 1 0 012 0v3a1 1 0 01-2 0zM16 0H6a6 6 0 00-6 6h22a6 6 0 00-6-6z"/></g></symbol><symbol viewBox="0 0 100 100" id="tnp-4306" xmlns="http://www.w3.org/2000/svg"><path d="M91.993 13.647c-32.67-.267-39.726-8.789-53.633-8.789-16.549 0-26.263 4.551-30.43 7.116-3.086 1.66-2.37-1.537-2.37-2.65 0-1.12 1.836-2.207 1.836-2.207 3.828-2.48 13.672-7.448 30.963-7.448 13.932 0 21.002 8.555 53.79 8.789 0 0 2.5-.254 2.5 1.979s-.156 3.21-2.656 3.21zM94.649 96.459c0-2.232-2.5-1.979-2.5-1.979-32.787-.241-39.857-8.789-53.79-8.789-17.292 0-27.135 4.967-30.963 7.447 0 0-1.836 1.088-1.836 2.207 0 1.113-.716 4.311 2.37 2.637 4.167-2.552 13.88-7.103 30.43-7.115 13.907 0 20.963 8.535 53.633 8.802 2.5 0 2.656-.977 2.656-3.21z"/><path d="M94.649 21.056c0-2.233-2.5-1.979-2.5-1.979-32.787-.241-39.857-8.789-53.79-8.789-17.292 0-27.135 4.967-30.963 7.448 0 0-1.836 1.087-1.836 2.207v64.648c0 1.113-.716 4.31 2.37 2.649 4.167-2.571 13.88-7.115 30.43-7.115 13.907 0 20.963 8.521 53.633 8.789 2.5 0 2.656-.977 2.656-3.21V21.056z"/></symbol><symbol viewBox="0 0 59.987 100" id="tnp-4310" xmlns="http://www.w3.org/2000/svg"><path d="M38.268 14.401v4.597H10.886v-4.597h2.643V1.693C13.529.749 18.477 0 24.57 0s11.029.749 11.029 1.693v12.708h2.669zM51.966 31.458L38.711 22.2H10.677L.886 33.77 0 100h59.635l.352-40.944-8.021-27.598zm-8.554 29.486l-5.208-17.989c-.117-8.574 4.531-8.268 7.435-6.146 2.019 1.497 2.617 4.121 2.617 4.121l2.409 19.818c-3.23 6.628-7.253.196-7.253.196z"/></symbol></svg>