<?xml version="1.0" encoding="UTF-8"?>
<!DOCTYPE svg PUBLIC "-//W3C//DTD SVG 1.1//EN" "http://www.w3.org/Graphics/SVG/1.1/DTD/svg11.dtd">
<svg version="1.1" xmlns="http://www.w3.org/2000/svg" xmlns:xlink="http://www.w3.org/1999/xlink" x="0" y="0" width="60" height="60" viewBox="0 0 60 60">
  <g>
    <path d="M30.5,51.5 L19.5,40.5 L40.5,19.5 L51.5,30.5 z" fill="#58A9ED"/>
    <path d="M19.5,40.5 L8.5,29.5 L29.5,8.5 L40.5,19.5 z" fill="#8CD05F"/>
    <g>
      <path d="M20,41 L30.5,30.5 L41,20" fill="#FFFFFF"/>
      <path d="M20,41 L30.5,30.5 L41,20" fill-opacity="0" stroke="#444444" stroke-width="1" stroke-dasharray="2,1"/>
    </g>
    <path d="M23,40 C23,41.657 21.657,43 20,43 C18.343,43 17,41.657 17,40 C17,38.343 18.343,37 20,37 C21.657,37 23,38.343 23,40 z" fill="#444444"/>
    <path d="M22,40 C22,41.105 21.105,42 20,42 C18.895,42 18,41.105 18,40 C18,38.895 18.895,38 20,38 C21.105,38 22,38.895 22,40 z" fill="#FFFFFF"/>
    <path d="M43,20 C43,21.657 41.657,23 40,23 C38.343,23 37,21.657 37,20 C37,18.343 38.343,17 40,17 C41.657,17 43,18.343 43,20 z" fill="#444444"/>
    <path d="M42,20 C42,21.105 41.105,22 40,22 C38.895,22 38,21.105 38,20 C38,18.895 38.895,18 40,18 C41.105,18 42,18.895 42,20 z" fill="#FFFFFF"/>
    <path d="M33,30 C33,31.657 31.657,33 30,33 C28.343,33 27,31.657 27,30 C27,28.343 28.343,27 30,27 C31.657,27 33,28.343 33,30 z" fill="#444444"/>
    <path d="M32,30 C32,31.105 31.105,32 30,32 C28.895,32 28,31.105 28,30 C28,28.895 28.895,28 30,28 C31.105,28 32,28.895 32,30 z" fill="#FFFFFF"/>
  </g>
</svg>