<?xml version="1.0" encoding="UTF-8"?>
<!DOCTYPE svg PUBLIC "-//W3C//DTD SVG 1.1//EN" "http://www.w3.org/Graphics/SVG/1.1/DTD/svg11.dtd">
<svg version="1.1" xmlns="http://www.w3.org/2000/svg" xmlns:xlink="http://www.w3.org/1999/xlink" x="0" y="0" width="60" height="60" viewBox="0 0 60 60">
  <path d="M23.5,18 L22,19 L21.531,21 L18.25,21 C17.696,21 17.384,21.463 17.25,22 L17,23 C16.866,23.537 17.446,24 18,24 L42,24 C42.554,24 43.134,23.537 43,23 L42.75,22 C42.616,21.463 42.304,21 41.75,21 L38.969,21 L38.5,19 L37,18 L36,19 L36.469,21 L24.031,21 L24.5,19 L23.5,18 z M21.5,22 C21.776,22 22,22.224 22,22.5 C22,22.776 21.776,23 21.5,23 C21.224,23 21,22.776 21,22.5 C21,22.224 21.224,22 21.5,22 z M38.5,22 C38.776,22 39,22.224 39,22.5 C39,22.776 38.776,23 38.5,23 C38.224,23 38,22.776 38,22.5 C38,22.224 38.224,22 38.5,22 z M20.562,25 L20.094,27 L17.25,27 C16.696,27 16.384,27.463 16.25,28 L16,29 C15.866,29.537 16.446,30 17,30 L43,30 C43.554,30 44.134,29.537 44,29 L43.75,28 C43.616,27.463 43.304,27 42.75,27 L40.406,27 L39.938,25 L37.438,25 L37.906,27 L22.594,27 L23.062,25 L20.562,25 z M20.5,28 C20.776,28 21,28.224 21,28.5 C21,28.776 20.776,29 20.5,29 C20.224,29 20,28.776 20,28.5 C20,28.224 20.224,28 20.5,28 z M39.5,28 C39.776,28 40,28.224 40,28.5 C40,28.776 39.776,29 39.5,29 C39.224,29 39,28.776 39,28.5 C39,28.224 39.224,28 39.5,28 z M19.156,31 L18.688,33 L16.25,33 C15.696,33 15.384,33.463 15.25,34 L15,35 C14.866,35.537 15.446,36 16,36 L44,36 C44.554,36 45.134,35.537 45,35 L44.75,34 C44.616,33.463 44.304,33 43.75,33 L41.812,33 L41.344,31 L38.844,31 L39.312,33 L21.188,33 L21.656,31 L19.156,31 z M19.5,34 C19.776,34 20,34.224 20,34.5 C20,34.776 19.776,35 19.5,35 C19.224,35 19,34.776 19,34.5 C19,34.224 19.224,34 19.5,34 z M40.5,34 C40.776,34 41,34.224 41,34.5 C41,34.776 40.776,35 40.5,35 C40.224,35 40,34.776 40,34.5 C40,34.224 40.224,34 40.5,34 z M17.719,37 L17,40 L18.5,41 L19.5,40 L20.219,37 L17.719,37 z M40.281,37 L41,40 L42,41 L43.5,40 L42.781,37 L40.281,37 z" fill="#989898"/>
</svg>