<?xml version="1.0" encoding="UTF-8"?>
<!DOCTYPE svg PUBLIC "-//W3C//DTD SVG 1.1//EN" "http://www.w3.org/Graphics/SVG/1.1/DTD/svg11.dtd">
<svg version="1.1" xmlns="http://www.w3.org/2000/svg" xmlns:xlink="http://www.w3.org/1999/xlink" x="0" y="0" width="60" height="60" viewBox="0 0 60 60">
    <path d="M22.5,20 L19.625,26 L18,26 L17,27 L17,29 L18.406,29 L18,30 L18,35 L18,36 L18,36 C18,36 18.608,36.608 19,37 L20,37 L24,37 L26,38 L34,38 L36,37 L40,37 L41,37 L42,36 L42,36 L42,35 L42,30 L41.594,29 L43,29 L43,27 L42,26 L40.375,26 L37.5,20 z M23.5,23 L36.5,23 L38,27 L37,28 L23,28 L22,27 z M21,31 L24,31 L25,33 L25,34 L21,34 L20,33 L20,32 z M36,31 L39,31 L40,32 L40,33 L39,34 L35,34 L35,33 z M19,38 L19,40 L20,41 L23,41 L24,40 L24,38 z M36,38 L36,40 L37,41 L40,41 L41,40 L41,38 z" fill="#989898"/>
</svg>
