<?xml version="1.0" encoding="utf-8"?>
<!-- Generator: Adobe Illustrator 24.3.0, SVG Export Plug-In . SVG Version: 6.00 Build 0)  -->
<svg version="1.1" id="Layer_1" focusable="false" xmlns="http://www.w3.org/2000/svg" xmlns:xlink="http://www.w3.org/1999/xlink"
	 x="0px" y="0px" viewBox="0 0 640 512" style="enable-background:new 0 0 640 512;" xml:space="preserve">
<path d="M624,448h-80V113.4c0-27.3-21.5-49.4-48-49.4H384v64h96v384h144c8.8,0,16-7.2,16-16v-32C640,455.2,632.8,448,624,448z
	 M312.2,1l-192,49.7C106,54.4,96,67.7,96,82.9V448H16c-8.8,0-16,7.2-16,16v32c0,8.8,7.2,16,16,16h336V33.2
	C352,11.6,332.4-4.2,312.2,1z M265.1,312c-20.5,0-37.1-22.2-37.1-49.5s16.6-49.5,37.1-49.5s37.1,22.2,37.1,49.5
	C302.2,289.8,285.6,312,265.1,312z"/>
</svg>
