<svg aria-hidden="true" focusable="false" data-prefix="fas" data-icon="home" class="svg-inline--fa fa-home fa-w-18" role="img" xmlns="http://www.w3.org/2000/svg" viewBox="0 0 576 512">
<path fill="currentColor" d="M549.5,132.1l-244.9-102c-5.3-2-10.9-3.1-16.6-3.3c-5.7,0.2-11.3,1.3-16.6,3.3l-244.8,102C10.5,138.8,0,154.5,0,172v301.2
	c0,8,6.4,14.4,14.4,14.4H72c8,0,14.4-6.4,14.4-14.4V228.4c0-15.8,13.1-28.8,29.3-28.8h344.5c16.2,0,29.3,13,29.3,28.8v244.8
	c0,8,6.4,14.4,14.4,14.4h57.6c8,0,14.4-6.4,14.4-14.4V172C576,154.5,565.5,138.8,549.5,132.1z M419,346.7L404.8,290
	c-6.9-27.7-31.8-47.2-60.4-47.2H231.7c-28.6,0-53.5,19.4-60.4,47.2l-14.2,56.7c-16.6,6.4-27.5,22.4-27.5,40.1v28.8
	c0,10.5,5.9,19.4,14.4,24.4v26c0,11.9,9.7,21.6,21.6,21.6h28.8c11.9,0,21.6-9.7,21.6-21.6v-21.6h144V466c0,11.9,9.7,21.6,21.6,21.6
	h28.8c11.9,0,21.6-9.7,21.6-21.6v-26c8.5-5,14.4-13.8,14.4-24.4v-28.8C446.4,369,435.5,353.1,419,346.7L419,346.7z M213.2,300.4
	c2.1-8.5,9.7-14.5,18.5-14.4h112.7c8.8,0,16.4,6,18.5,14.4l10.8,43.2H202.4L213.2,300.4z M187.2,415.5c-13,0-21.6-8.6-21.6-21.5
	s8.6-21.5,21.6-21.5s32.4,19.4,32.4,32.3S200.2,415.5,187.2,415.5z M388.8,415.5c-13,0-32.4,2.2-32.4-10.8s19.4-32.3,32.4-32.3
	c13,0,21.6,8.6,21.6,21.5S401.8,415.5,388.8,415.5z"/>
</svg>
