<?xml version="1.0" encoding="utf-8"?>
<!-- Generator: Adobe Illustrator 24.3.0, SVG Export Plug-In . SVG Version: 6.00 Build 0)  -->
<svg version="1.1" id="Layer_1" focusable="false" xmlns="http://www.w3.org/2000/svg" xmlns:xlink="http://www.w3.org/1999/xlink"
	 x="0px" y="0px" viewBox="0 0 640 512" style="enable-background:new 0 0 640 512;" xml:space="preserve">
<path d="M624,448H512V50.8c0-28-21.5-50.8-48-50.8H176c-26.5,0-48,22.8-48,50.8V448H16c-8.8,0-16,7.2-16,16v32c0,8.8,7.2,16,16,16
	h608c8.8,0,16-7.2,16-16v-32C640,455.2,632.8,448,624,448z M397.5,332c-28.4,0-51.5-23.1-51.5-51.5s23.1-51.5,51.5-51.5
	s51.5,23.1,51.5,51.5C449,308.9,425.9,332,397.5,332z"/>
</svg>
