<?xml version="1.0" encoding="UTF-8"?>
<!DOCTYPE svg PUBLIC "-//W3C//DTD SVG 1.1//EN" "http://www.w3.org/Graphics/SVG/1.1/DTD/svg11.dtd">
<svg version="1.1" xmlns="http://www.w3.org/2000/svg" xmlns:xlink="http://www.w3.org/1999/xlink" x="0" y="0" width="60" height="60" viewBox="0 0 60 60">
    <path d="M25.666,26.974 C27.013,26.992 28.315,27.464 29.361,28.313 L29.88,28.772 L29.98,28.772 L30.599,28.213 C32.56,26.592 35.351,26.446 37.47,27.853 L41.984,18.985 L38.988,16.988 L38.988,9.898 C38.895,8.3 37.592,7.04 35.992,7.001 L34.993,7.001 C35.062,5.967 34.278,5.073 33.244,5.004 C33.161,4.999 33.078,4.999 32.996,5.004 L27.004,5.004 C25.969,4.936 25.075,5.719 25.007,6.754 C25.001,6.836 25.001,6.919 25.007,7.001 L24.008,7.001 C22.408,7.04 21.105,8.3 21.012,9.898 L21.012,16.988 L18.016,18.985 L22.51,28.033 C23.437,27.382 24.534,27.014 25.666,26.974 z M23.009,9.898 C23.03,9.379 23.467,8.977 23.985,8.998 C23.993,8.998 24,8.998 24.008,8.999 L35.992,8.999 C36.509,8.965 36.956,9.356 36.991,9.873 C36.993,9.915 36.993,9.956 36.991,9.997 L36.991,15.989 L30,11.995 L23.009,15.889 C23.009,15.889 23.009,9.898 23.009,9.898 z M42.982,30.969 L42.982,32.966 C42.458,33.005 41.97,33.249 41.624,33.645 C41.082,34.221 40.39,34.636 39.627,34.844 C38.399,35.206 37.071,34.929 36.092,34.105 L35.313,33.406 C34.705,32.801 33.724,32.801 33.116,33.406 C32.836,33.645 32.576,33.905 32.277,34.145 C30.813,35.314 28.719,35.255 27.324,34.005 L26.545,33.306 C25.973,32.806 25.119,32.806 24.547,33.306 C24.168,33.606 23.828,33.945 23.449,34.245 C22.042,35.286 20.107,35.237 18.755,34.125 L18.136,33.586 C17.847,33.255 17.451,33.035 17.018,32.966 L17.018,30.969 C17.534,30.905 18.057,31.003 18.515,31.249 C19.071,31.593 19.599,31.98 20.093,32.407 C20.503,32.854 21.121,33.044 21.711,32.906 C21.936,32.84 22.146,32.731 22.33,32.587 C22.65,32.347 22.91,32.068 23.229,31.808 C24.648,30.632 26.703,30.632 28.123,31.808 C28.442,32.068 28.742,32.367 29.061,32.627 C29.633,33.127 30.487,33.127 31.059,32.627 C31.378,32.367 31.678,32.068 31.997,31.808 C33.42,30.621 35.488,30.621 36.911,31.808 C37.21,32.068 37.49,32.347 37.789,32.587 C38.361,33.087 39.215,33.087 39.787,32.587 L40.725,31.768 C41.364,31.25 42.161,30.968 42.982,30.969 z" fill="#000000" id="ferry-line-stroke2"/>
    <path d="M49.5,39 C50.881,39 52,40.119 52,41.5 C52,42.881 50.881,44 49.5,44 C48.593,44.004 48.127,43.598 47.529,43 L12.471,43 C11.978,43.678 11.297,43.92 10.5,44 C9.119,44 8,42.881 8,41.5 C8,40.119 9.119,39 10.5,39 C11.407,38.996 11.873,39.402 12.471,40 L47.529,40 C48.022,39.322 48.703,39.08 49.5,39 z" fill="#000000" id="ferry-line-stroke1"/>
    <path d="M16,41 L16,42 L12.95,42 L13,41.5 L12.95,41 L16,41 z M27,41 L22,41 L22,42 L27,42 L27,41 z M38,41 L33,41 L33,42 L38,42 L38,41 z M47.05,41 L44,41 L44,42 L47.05,42 L47,41.5 L47.05,41 z" fill="#AAAAAA" id="ferry-line-dashes"/>
    <path d="M51,41.5 C51,42.328 50.328,43 49.5,43 C48.672,43 48,42.328 48,41.5 C48,40.672 48.672,40 49.5,40 C50.328,40 51,40.672 51,41.5 z" fill="#FFFFFF"/>
    <path d="M12,41.5 C12,42.328 11.328,43 10.5,43 C9.672,43 9,42.328 9,41.5 C9,40.672 9.672,40 10.5,40 C11.328,40 12,40.672 12,41.5 z" fill="#FFFFFF"/>
</svg>
