<?xml version="1.0" encoding="UTF-8"?>
<!DOCTYPE svg PUBLIC "-//W3C//DTD SVG 1.1//EN" "http://www.w3.org/Graphics/SVG/1.1/DTD/svg11.dtd">
<svg version="1.1" xmlns="http://www.w3.org/2000/svg" xmlns:xlink="http://www.w3.org/1999/xlink" x="0" y="0" width="60" height="60" viewBox="0 0 60 60">
    <path d="M29.5,6 C28.119,6 27,7.119 27,8.5 C27,9.881 28.119,11 29.5,11 C30.881,11 32,9.881 32,8.5 C32,7.119 30.881,6 29.5,6 z M43,9.156 L40,13 L35.719,18 L35,18 L33,18 L32,17.656 L32,13 C32,12.446 31.554,12 31,12 L28,12 C27.446,12 27,12.446 27,13 L27,17 L25,17 L21,17 L17,21 L16,27 L18,27 L19,25 L20,22 L21,20.656 L21,24.156 L19,28.5 L19,34 C19,35 19,36 20.5,36 C22,36 22,35 22,34 L22,28.5 L23.156,26 L25,26 L25,28.5 L27.5,34.5 C27.751,35.435 28.405,36 29.25,36 C30.059,36 30.346,35.124 30,34 L28,28.5 L28,26.188 L31,27 L35,27 L35,34 C35,34.5 35,36 36.5,36 C38,36 38,34.5 38,34 L38,27 L43,18 L45,18 L47,19 L48,18 L48,16 L44,13 L43,13 z M27,18 L30,18 L33,21 L33,25 L32,26 L31,25 L31,22 L27,19 z" fill="#000000" id="highway-bridleway-stroke2"/>
    <path d="M49.5,39 C50.881,39 52,40.119 52,41.5 C52,42.881 50.881,44 49.5,44 C48.593,44.004 48.127,43.598 47.529,43 L12.471,43 C11.978,43.678 11.297,43.92 10.5,44 C9.119,44 8,42.881 8,41.5 C8,40.119 9.119,39 10.5,39 C11.407,38.996 11.873,39.402 12.471,40 L47.529,40 C48.022,39.322 48.703,39.08 49.5,39 z" fill="#000000" id="highway-bridleway-stroke1"/>
    <path d="M16,41 L16,42 L12.95,42 L13,41.5 L12.95,41 L16,41 z M27,41 L22,41 L22,42 L27,42 L27,41 z M38,41 L33,41 L33,42 L38,42 L38,41 z M47.05,41 L44,41 L44,42 L47.05,42 L47,41.5 L47.05,41 z" fill="#AAAAAA" id="highway-bridleway-dashes"/>
    <path d="M51,41.5 C51,42.328 50.328,43 49.5,43 C48.672,43 48,42.328 48,41.5 C48,40.672 48.672,40 49.5,40 C50.328,40 51,40.672 51,41.5 z" fill="#FFFFFF"/>
    <path d="M12,41.5 C12,42.328 11.328,43 10.5,43 C9.672,43 9,42.328 9,41.5 C9,40.672 9.672,40 10.5,40 C11.328,40 12,40.672 12,41.5 z" fill="#FFFFFF"/>
</svg>
