<?xml version="1.0" encoding="UTF-8"?>
<!DOCTYPE svg PUBLIC "-//W3C//DTD SVG 1.1//EN" "http://www.w3.org/Graphics/SVG/1.1/DTD/svg11.dtd">
<svg version="1.1" xmlns="http://www.w3.org/2000/svg" xmlns:xlink="http://www.w3.org/1999/xlink" x="0" y="0" width="50" height="50" viewBox="5 0 50 50">
  <path d="M22.5,15 L19.625,21 L18,21 L17,22 L17,24 L18.406,24 L18,25 L18,30 L18,31 L18,31 C18,31 18.608,31.608 19,32 L20,32 L24,32 L26,33 L34,33 L36,32 L40,32 L41,32 L42,31 L42,31 L42,30 L42,25 L41.594,24 L43,24 L43,22 L42,21 L40.375,21 L37.5,15 z M23.5,18 L36.5,18 L38,22 L37,23 L23,23 L22,22 z M21,26 L24,26 L25,28 L25,29 L21,29 L20,28 L20,27 z M36,26 L39,26 L40,27 L40,28 L39,29 L35,29 L35,28 z M19,33 L19,35 L20,36 L23,36 L24,35 L24,33 z M36,33 L36,35 L37,36 L40,36 L41,35 L41,33 z" fill="#989898"/>
  <path d="M42,12 L46,13.5 L46,31.375 L53,34 L53,21.625 L50,20.5 L50,16.5 L51,16.875 L53,17.625 L53,16.5 L53,7 z" fill="#B5B5B5"/>
  <path d="M44,32.625 L44,34.125 L49,36 L53,36 z" fill="#B5B5B5"/>
  <path d="M16,32.625 L16,34.125 L11,36 L7,36 z" fill="#B5B5B5"/>
  <path d="M18,12 L14,13.5 L14,31.375 L7,34 L7,21.625 L10,20.5 L10,16.5 L9,16.875 L7,17.625 L7,16.5 L7,7 z" fill="#B5B5B5"/>
</svg>
