<?xml version="1.0" encoding="UTF-8"?>
<!DOCTYPE svg PUBLIC "-//W3C//DTD SVG 1.1//EN" "http://www.w3.org/Graphics/SVG/1.1/DTD/svg11.dtd">
<svg version="1.1" xmlns="http://www.w3.org/2000/svg" xmlns:xlink="http://www.w3.org/1999/xlink" x="0" y="0" width="60" height="60" viewBox="0 0 60 60">
  <path d="M23.594,14 L23.594,16 L24.438,16 L25,19 L22.5,19 L17,29 L17,30 L18,31 L29,31 L36.563,21.531 L40.5,30 L41,30 L42,30 L42,29 L36,16 L39,16 L39,15 L38,14 L34,14 L34,16 L35.406,19 L27.063,19 L26.5,16 L28.594,16 L28.594,15 L27.594,14 L23.594,14 z M23.5,21 L25.5,21 L27.5,29 L19,29 L23.5,21 z M27.5,21 L34.5,21 L29,27.5 L27.5,21 z M18.5,23 C14.91,23 12,25.91 12,29.5 C12,33.09 14.91,36 18.5,36 C21.203,36 23.52,34.347 24.5,32 L22.25,32 C21.444,33.216 20.068,34 18.5,34 C16.015,34 14,31.985 14,29.5 C14,27.176 15.77,25.301 18.031,25.062 L19.156,23.031 C18.938,23.009 18.724,23 18.5,23 z M40.344,23 L41.281,25.094 C43.392,25.466 45,27.283 45,29.5 C45,31.985 42.985,34 40.5,34 C38.015,34 36,31.985 36,29.5 C36,28.126 36.623,26.919 37.594,26.094 L36.719,24.219 C35.076,25.398 34,27.324 34,29.5 C34,33.09 36.91,36 40.5,36 C44.09,36 47,33.09 47,29.5 C47,25.91 44.09,23 40.5,23 C40.447,23 40.397,22.999 40.344,23 z M22.687,24.531 L21.687,26.312 C22.154,26.779 22.492,27.366 22.719,28 L24.812,28 C24.488,26.628 23.728,25.413 22.687,24.531 z" fill="currentColor" id="highway-cycleway-stroke2"/>
  <path d="M49.5,39 C50.881,39 52,40.119 52,41.5 C52,42.881 50.881,44 49.5,44 C48.593,44.004 48.127,43.598 47.529,43 L12.471,43 C11.978,43.678 11.297,43.92 10.5,44 C9.119,44 8,42.881 8,41.5 C8,40.119 9.119,39 10.5,39 C11.407,38.996 11.873,39.402 12.471,40 L47.529,40 C48.022,39.322 48.703,39.08 49.5,39 z" fill="currentColor" id="highway-cycleway-stroke1"/>
  <path d="M16,41 L16,42 L12.95,42 L13,41.5 L12.95,41 L16,41 z M27,41 L22,41 L22,42 L27,42 L27,41 z M38,41 L33,41 L33,42 L38,42 L38,41 z M47.05,41 L44,41 L44,42 L47.05,42 L47,41.5 L47.05,41 z" fill="inherit" id="highway-cycleway-dashes"/>
  <path d="M51,41.5 C51,42.328 50.328,43 49.5,43 C48.672,43 48,42.328 48,41.5 C48,40.672 48.672,40 49.5,40 C50.328,40 51,40.672 51,41.5 z" fill="#FFFFFF"/>
  <path d="M12,41.5 C12,42.328 11.328,43 10.5,43 C9.672,43 9,42.328 9,41.5 C9,40.672 9.672,40 10.5,40 C11.328,40 12,40.672 12,41.5 z" fill="#FFFFFF"/>
</svg>