<?xml version="1.0" encoding="UTF-8"?>
<!DOCTYPE svg PUBLIC "-//W3C//DTD SVG 1.1//EN" "http://www.w3.org/Graphics/SVG/1.1/DTD/svg11.dtd">
<svg version="1.1" xmlns="http://www.w3.org/2000/svg" xmlns:xlink="http://www.w3.org/1999/xlink" x="0" y="0" width="60" height="60" viewBox="0 0 60 60">
    <g>
      <path d="M49.5,39 C50.881,39 52,40.119 52,41.5 C52,42.881 50.881,44 49.5,44 C48.57,44.002 48.113,43.584 47.5,42.971 L47.5,43 L12.5,43 L12.5,42.971 C11.996,43.663 11.316,43.918 10.5,44 C9.119,44 8,42.881 8,41.5 C8,40.119 9.119,39 10.5,39 C11.43,38.998 11.887,39.416 12.5,40.029 L12.5,40 L47.5,40 L47.5,40.029 C48.004,39.336 48.684,39.082 49.5,39 z" fill="#444444" id="highway-bus_guideway-casing1"/>
      <path d="M47.05,41 L47,41.5 L47.05,42 L12.95,42 L13,41.5 L12.95,41 L47.05,41 z" fill="#000000" id="highway-bus_guideway-stroke1"/>
      <path d="M51,41.5 C51,42.328 50.328,43 49.5,43 C48.672,43 48,42.328 48,41.5 C48,40.672 48.672,40 49.5,40 C50.328,40 51,40.672 51,41.5 z" fill="#FFFFFF"/>
      <path d="M12,41.5 C12,42.328 11.328,43 10.5,43 C9.672,43 9,42.328 9,41.5 C9,40.672 9.672,40 10.5,40 C11.328,40 12,40.672 12,41.5 z" fill="#FFFFFF"/>
    </g>
    <path d="M24,11 C21.727,11 19,12.239 19,15.577 L19,24.665 L19,31 C19,31 19,32.667 20.667,32.667 L20.667,34.333 C20.667,34.333 20.667,36 22.333,36 C24,36 24,34.333 24,34.333 L24,32.667 L35.667,32.667 L35.667,34.333 C35.667,34.333 35.667,36 37.333,36 C39,36 39,34.333 39,34.333 L39,32.667 C39,32.667 40.667,32.667 40.667,31 L40.667,15.577 C40.667,12.168 38.607,11 36.334,11 L24,11 z M24.417,13.5 L35.25,13.5 C35.481,13.5 35.667,13.686 35.667,13.917 C35.667,14.148 35.481,14.333 35.25,14.333 L24.417,14.333 C24.186,14.333 24,14.148 24,13.917 C24,13.686 24.186,13.5 24.417,13.5 z M22.333,16 L37.333,16 C39,16 39,17.611 39,17.611 L39,22.667 C39,22.667 39,24.333 37.333,24.333 L22.333,24.333 C20.667,24.333 20.667,22.667 20.667,22.667 L20.667,17.667 C20.667,17.667 20.667,16 22.333,16 z M22.333,27.667 C23.254,27.667 24,28.413 24,29.333 C24,30.254 23.254,31 22.333,31 C21.413,31 20.667,30.254 20.667,29.333 C20.667,28.413 21.413,27.667 22.333,27.667 z M37.333,27.667 C38.254,27.667 39,28.413 39,29.333 C39,30.254 38.254,31 37.333,31 C36.413,31 35.667,30.254 35.667,29.333 C35.667,28.413 36.413,27.667 37.333,27.667 z" fill="#989898"/>
    <path d="M44,33 L44,34.5 L49,36.375 L53,36.375 z" fill="#989898"/>
    <path d="M16,33 L16,34.5 L11,36.375 L7,36.375 z" fill="#989898"/>
</svg>
