<?xml version="1.0" encoding="UTF-8"?>
<!DOCTYPE svg PUBLIC "-//W3C//DTD SVG 1.1//EN" "http://www.w3.org/Graphics/SVG/1.1/DTD/svg11.dtd">
<svg version="1.1" xmlns="http://www.w3.org/2000/svg" xmlns:xlink="http://www.w3.org/1999/xlink" x="0" y="0" width="60" height="60" viewBox="0 0 60 60">
  <g>
    <path d="M49.5,39 C50.881,39 52,40.119 52,41.5 C52,42.881 50.881,44 49.5,44 C48.57,44.002 48.113,43.584 47.5,42.971 L47.5,43 L12.5,43 L12.5,42.971 C11.996,43.663 11.316,43.918 10.5,44 C9.119,44 8,42.881 8,41.5 C8,40.119 9.119,39 10.5,39 C11.43,38.998 11.887,39.417 12.5,40.029 L12.5,40 L47.5,40 L47.5,40.029 C48.004,39.336 48.684,39.082 49.5,39 z" fill="inherit" id="highway-road-casing1"/>
    <path d="M47.05,41 L47,41.5 L47.05,42 L12.95,42 L13,41.5 L12.95,41 L47.05,41 z" fill="currentColor" id="highway-road-stroke1"/>
    <path d="M51,41.5 C51,42.328 50.328,43 49.5,43 C48.672,43 48,42.328 48,41.5 C48,40.672 48.672,40 49.5,40 C50.328,40 51,40.672 51,41.5 z" fill="#FFFFFF"/>
    <path d="M12,41.5 C12,42.328 11.328,43 10.5,43 C9.672,43 9,42.328 9,41.5 C9,40.672 9.672,40 10.5,40 C11.328,40 12,40.672 12,41.5 z" fill="#FFFFFF"/>
  </g>
  <path d="M22.375,36 L25.375,25 L28.375,14 L32.375,14 L35.375,25 L38.375,36 z" fill="#989898"/>
</svg>