<?xml version="1.0" encoding="UTF-8"?>
<!DOCTYPE svg PUBLIC "-//W3C//DTD SVG 1.1//EN" "http://www.w3.org/Graphics/SVG/1.1/DTD/svg11.dtd">
<svg version="1.1" xmlns="http://www.w3.org/2000/svg" xmlns:xlink="http://www.w3.org/1999/xlink" x="0" y="0" width="60" height="60" viewBox="0 0 60 60">
    <g>
      <path d="M49.5,39 C50.881,39 52,40.119 52,41.5 C52,42.881 50.881,44 49.5,44 C48.57,44.002 48.113,43.584 47.5,42.971 L47.5,43 L12.5,43 L12.5,42.971 C11.996,43.663 11.316,43.918 10.5,44 C9.119,44 8,42.881 8,41.5 C8,40.119 9.119,39 10.5,39 C11.43,38.998 11.887,39.417 12.5,40.029 L12.5,40 L47.5,40 L47.5,40.029 C48.004,39.336 48.684,39.082 49.5,39 z" fill="#666666" id="highway-track-casing1"/>
      <path d="M47.05,41 L47,41.5 L47.05,42 L12.95,42 L13,41.5 L12.95,41 L47.05,41 z" fill="#000000" id="highway-track-stroke1"/>
      <path d="M13.5,40 L13.5,41 L16,41 L16,40 z M18,40 L18,41 L21,41 L21,40 z M23,40 L23,41 L26,41 L26,40 z M28,40 L28,41 L31,41 L31,40 z M33,40 L33,41 L36,41 L36,40 z M38,40 L38,41 L41,41 L41,40 z M43,40 L43,41 L46,41 L46,40 z M13.5,42 L13.5,43 L16,43 L16,42 z M18,42 L18,43 L21,43 L21,42 z M23,42 L23,43 L26,43 L26,42 z M28,42 L28,43 L31,43 L31,42 z M33,42 L33,43 L36,43 L36,42 z M38,42 L38,43 L41,43 L41,42 z M43,42 L43,43 L46,43 L46,42 z" fill="#000000" id="highway-track-stroke2" opacity="0.503"/>
      <path d="M51,41.5 C51,42.328 50.328,43 49.5,43 C48.672,43 48,42.328 48,41.5 C48,40.672 48.672,40 49.5,40 C50.328,40 51,40.672 51,41.5 z" fill="#FFFFFF"/>
      <path d="M12,41.5 C12,42.328 11.328,43 10.5,43 C9.672,43 9,42.328 9,41.5 C9,40.672 9.672,40 10.5,40 C11.328,40 12,40.672 12,41.5 z" fill="#FFFFFF"/>
    </g>
    <path d="M27,14 L21,36 L27.5,36 L29,14 L27,14 z M31,14 L32.5,36 L39,36 L33,14 L31,14 z" fill="#989898"/>
    <path d="M43,29 L43,32.25 L44,32.625 L44,29 L43,29 z M41,30 L41,32.5 L42,32.875 L42,30 L41,30 z M47,30 L47,33.75 L47.656,34 L48,34 L48,30 L47,30 z M45,31 L45,34 L46,34.375 L46,31 L45,31 z M49,32 L49,35.5 L50,35.875 L50,32 L49,32 z" fill="#989898"/>
    <path d="M17,29 L17,32.25 L16,32.625 L16,29 L17,29 z M19,30 L19,32.5 L18,32.875 L18,30 L19,30 z M13,30 L13,33.75 L12.344,34 L12,34 L12,30 L13,30 z M15,31 L15,34 L14,34.375 L14,31 L15,31 z M11,32 L11,35.5 L10,35.875 L10,32 L11,32 z" fill="#989898"/>
</svg>
