<?xml version="1.0" encoding="UTF-8"?>
<!DOCTYPE svg PUBLIC "-//W3C//DTD SVG 1.1//EN" "http://www.w3.org/Graphics/SVG/1.1/DTD/svg11.dtd">
<svg version="1.1" xmlns="http://www.w3.org/2000/svg" xmlns:xlink="http://www.w3.org/1999/xlink" x="0" y="0" width="60" height="60" viewBox="0 0 60 60">
    <g>
      <path d="M49.5,39 C50.881,39 52,40.119 52,41.5 C52,42.881 50.881,44 49.5,44 C48.57,44.002 48.113,43.584 47.5,42.971 L47.5,43 L12.5,43 L12.5,42.971 C11.996,43.663 11.316,43.918 10.5,44 C9.119,44 8,42.881 8,41.5 C8,40.119 9.119,39 10.5,39 C11.43,38.998 11.887,39.416 12.5,40.029 L12.5,40 L47.5,40 L47.5,40.029 C48.004,39.336 48.684,39.082 49.5,39 z" fill="#444444" id="highway-service-casing1"/>
      <path d="M47.05,41 L47,41.5 L47.05,42 L12.95,42 L13,41.5 L12.95,41 L47.05,41 z" fill="#000000" id="highway-service-stroke1"/>
      <path d="M51,41.5 C51,42.328 50.328,43 49.5,43 C48.672,43 48,42.328 48,41.5 C48,40.672 48.672,40 49.5,40 C50.328,40 51,40.672 51,41.5 z" fill="#FFFFFF"/>
      <path d="M12,41.5 C12,42.328 11.328,43 10.5,43 C9.672,43 9,42.328 9,41.5 C9,40.672 9.672,40 10.5,40 C11.328,40 12,40.672 12,41.5 z" fill="#FFFFFF"/>
    </g>
    <path d="M22.5,15 L19.625,21 L18,21 L17,22 L17,24 L18.406,24 L18,25 L18,30 L18,31 L18,31 C18,31 18.608,31.608 19,32 L20,32 L24,32 L26,33 L34,33 L36,32 L40,32 L41,32 L42,31 L42,31 L42,30 L42,25 L41.594,24 L43,24 L43,22 L42,21 L40.375,21 L37.5,15 z M23.5,18 L36.5,18 L38,22 L37,23 L23,23 L22,22 z M21,26 L24,26 L25,28 L25,29 L21,29 L20,28 L20,27 z M36,26 L39,26 L40,27 L40,28 L39,29 L35,29 L35,28 z M19,33 L19,35 L20,36 L23,36 L24,35 L24,33 z M36,33 L36,35 L37,36 L40,36 L41,35 L41,33 z" fill="#989898"/>
    <path d="M44,32.625 L44,34.125 L49,36 L53,36 z" fill="#989898"/>
    <path d="M16,32.625 L16,34.125 L11,36 L7,36 z" fill="#989898"/>
</svg>
