<?xml version="1.0" encoding="UTF-8"?>
<!DOCTYPE svg PUBLIC "-//W3C//DTD SVG 1.1//EN" "http://www.w3.org/Graphics/SVG/1.1/DTD/svg11.dtd">
<svg version="1.1" xmlns="http://www.w3.org/2000/svg" xmlns:xlink="http://www.w3.org/1999/xlink" x="0" y="0" width="60" height="60" viewBox="0 0 60 60">
  <g>
    <path d="M10.5,39 C9.119,39 8,40.119 8,41.5 C8,42.881 9.119,44 10.5,44 L49.5,44 C50.881,44 52,42.881 52,41.5 C52,40.119 50.881,39 49.5,39 z" fill="inherit" id="highway-unclassified-casing1"/>
    <path d="M12.5,40 C12.81,40.416 13,40.941 13,41.5 C13,42.059 12.81,42.584 12.5,43 L47.5,43 C47.19,42.584 47,42.059 47,41.5 C47,40.941 47.19,40.416 47.5,40 L12.5,40 z" fill="currentColor" id="highway-unclassified-stroke1"/>
    <path d="M12,41.5 C12,42.328 11.328,43 10.5,43 C9.672,43 9,42.328 9,41.5 C9,40.672 9.672,40 10.5,40 C11.328,40 12,40.672 12,41.5 z" fill="#FFFFFF"/>
    <path d="M51,41.5 C51,42.328 50.328,43 49.5,43 C48.672,43 48,42.328 48,41.5 C48,40.672 48.672,40 49.5,40 C50.328,40 51,40.672 51,41.5 z" fill="#FFFFFF"/>
  </g>
  <path d="M22.5,15 L19.625,21 L18,21 L17,22 L17,24 L18.406,24 L18,25 L18,30 L18,31 L18,31 C18,31 18.608,31.608 19,32 L20,32 L24,32 L26,33 L34,33 L36,32 L40,32 L41,32 L42,31 L42,31 L42,30 L42,25 L41.594,24 L43,24 L43,22 L42,21 L40.375,21 L37.5,15 z M23.5,18 L36.5,18 L38,22 L37,23 L23,23 L22,22 z M21,26 L24,26 L25,28 L25,29 L21,29 L20,28 L20,27 z M36,26 L39,26 L40,27 L40,28 L39,29 L35,29 L35,28 z M19,33 L19,35 L20,36 L23,36 L24,35 L24,33 z M36,33 L36,35 L37,36 L40,36 L41,35 L41,33 z" fill="#989898"/>
</svg>