<?xml version="1.0" encoding="UTF-8"?>
<!DOCTYPE svg PUBLIC "-//W3C//DTD SVG 1.1//EN" "http://www.w3.org/Graphics/SVG/1.1/DTD/svg11.dtd">
<svg version="1.1" xmlns="http://www.w3.org/2000/svg" xmlns:xlink="http://www.w3.org/1999/xlink" x="0" y="0" width="60" height="60" viewBox="0 0 60 60">
  <g>
    <path d="M10.5,39 C9.119,39 8,40.119 8,41.5 C8,42.881 9.119,44 10.5,44 L49.5,44 C50.881,44 52,42.881 52,41.5 C52,40.119 50.881,39 49.5,39 z" fill="inherit" id="highway-primary-casing1"/>
    <path d="M12.5,40 C12.81,40.416 13,40.941 13,41.5 C13,42.059 12.81,42.584 12.5,43 L47.5,43 C47.19,42.584 47,42.059 47,41.5 C47,40.941 47.19,40.416 47.5,40 L12.5,40 z" fill="currentColor" id="highway-primary-stroke1"/>
    <path d="M12,41.5 C12,42.328 11.328,43 10.5,43 C9.672,43 9,42.328 9,41.5 C9,40.672 9.672,40 10.5,40 C11.328,40 12,40.672 12,41.5 z" fill="#FFFFFF"/>
    <path d="M51,41.5 C51,42.328 50.328,43 49.5,43 C48.672,43 48,42.328 48,41.5 C48,40.672 48.672,40 49.5,40 C50.328,40 51,40.672 51,41.5 z" fill="#FFFFFF"/>
  </g>
  <path d="M17,14 L13,36 L20,36 L20.281,34 L22.219,34 L22,36 L29,36 L29.5,14 L24.5,14 L24.156,17 L22.594,17 L23,14 L17,14 z M30.5,14 L31,36 L38,36 L37.781,34 L39.719,34 L40,36 L47,36 L42.5,14 L37,14 L37.406,17 L35.844,17 L35.5,14 L30.5,14 z M22.469,18 L24.031,18 L23.719,21 L22.031,21 L22.469,18 z M35.969,18 L37.531,18 L37.969,21 L36.281,21 L35.969,18 z M21.906,22 L23.594,22 L23.25,25 L21.5,25 L21.906,22 z M36.406,22 L38.094,22 L38.5,25 L36.75,25 L36.406,22 z M21.375,26 L23.125,26 L22.781,29 L20.969,29 L21.375,26 z M36.875,26 L38.625,26 L39.031,29 L37.219,29 L36.875,26 z M20.812,30 L22.688,30 L22.344,33 L20.406,33 L20.812,30 z M37.312,30 L39.188,30 L39.594,33 L37.656,33 L37.312,30 z" fill="#444444"/>
  <path d="M19,33 L19.5,29 L16.5,29 L16,33 z M42,20 L41.25,16 L38.375,16 L39.125,20 z M36,33 L35.5,29 L32.5,29 L33,33 z M25.25,20 L25.562,16 L28.438,16 L28.125,20 z" fill="currentColor" id="highway-primary-stroke2"/>
</svg>