<?xml version="1.0" encoding="UTF-8"?>
<!DOCTYPE svg PUBLIC "-//W3C//DTD SVG 1.1//EN" "http://www.w3.org/Graphics/SVG/1.1/DTD/svg11.dtd">
<svg version="1.1" xmlns="http://www.w3.org/2000/svg" xmlns:xlink="http://www.w3.org/1999/xlink" x="0" y="0" width="60" height="60" viewBox="0 0 60 60">
  <defs>
    <linearGradient id="Gradient_1" gradientUnits="userSpaceOnUse" x1="-780.5" y1="157.987" x2="-782" y2="152.362" gradientTransform="matrix(1, 0, 0, 1, 820, -132.362)">
      <stop offset="0" stop-color="#444444"/>
      <stop offset="1" stop-color="#B5B5B5"/>
    </linearGradient>
  </defs>
  <g>
    <path d="M26,14 L11,36 L22,36 L22.844,34 L24.812,34 L24,36 L35,36 L36.156,28.375 C34.72,27.032 33,25.193 33,24 L33,22 L36.906,23.5 L38.344,14 L33,14 L31.781,17 L30.062,17 L31.344,14 L26,14 z M29.656,18 L31.375,18 L30.125,21 L28.375,21 L29.656,18 z M27.937,22 L29.719,22 L28.5,25 L26.687,25 L27.937,22 z M26.25,26 L28.094,26 L26.875,29 L24.969,29 L26.25,26 z M24.562,30 L26.469,30 L25.219,33 L23.281,33 L24.562,30 z" fill="#B5B5B5"/>
    <path d="M31.5,33 L32.75,29 L29.75,29 L28.5,33 z M23.5,21 L25.5,17.5 L28.5,17.5 L26.5,21 z" fill="currentColor" id="highway-primary-link-stroke3"/>
    <path d="M41,36 L41,32 C41,27.548 33,26.172 33,22 C33,19 33.375,14 33.375,14 L38.375,14 C38.375,14 38,17.996 38,20 C38,22 46.595,24.072 48,28 L50,36 z" fill="url(#Gradient_1)"/>
  </g>
  <g>
    <g>
      <path d="M10.5,39 C9.119,39 8,40.119 8,41.5 C8,42.881 9.119,44 10.5,44 L49.5,44 C50.881,44 52,42.881 52,41.5 C52,40.119 50.881,39 49.5,39 L10.5,39 z M12.5,40 L47.5,40 C47.19,40.416 47,40.941 47,41.5 C47,42.059 47.19,42.584 47.5,43 L12.5,43 C12.81,42.584 13,42.059 13,41.5 C13,40.941 12.81,40.416 12.5,40 z" fill="inherit" id="highway-primary-link-casing2" opacity="0.5"/>
      <path d="M12.5,40 C12.81,40.416 13,40.941 13,41.5 C13,42.059 12.81,42.584 12.5,43 L47.5,43 C47.19,42.584 47,42.059 47,41.5 C47,40.941 47.19,40.416 47.5,40 L12.5,40 z" fill="currentColor" id="highway-primary-link-stroke2" opacity="0.5"/>
      <path d="M12,41.5 C12,42.328 11.328,43 10.5,43 C9.672,43 9,42.328 9,41.5 C9,40.672 9.672,40 10.5,40 C11.328,40 12,40.672 12,41.5 z" fill="#FFFFFF"/>
      <path d="M51,41.5 C51,42.328 50.328,43 49.5,43 C48.672,43 48,42.328 48,41.5 C48,40.672 48.672,40 49.5,40 C50.328,40 51,40.672 51,41.5 z" fill="#FFFFFF"/>
    </g>
    <path d="M27,39 C25.631,39 24.5,40.131 24.5,41.5 C24.5,42.869 25.631,44 27,44 C28.485,44.542 30.651,46.959 32.344,49.781 L35.344,54.781 C35.347,54.785 35.372,54.777 35.375,54.781 C35.815,55.509 36.597,56 37.5,56 C38.869,56 40,54.869 40,53.5 C40,53.034 39.852,52.594 39.625,52.219 L39.656,52.188 L36.656,47.188 C34.575,43.719 31.766,41.094 28.812,39.813 C28.354,39.32 27.717,39 27,39 z" fill="inherit" id="highway-primary-link-casing1"/>
    <path d="M29.469,41.312 C29.474,41.376 29.5,41.436 29.5,41.5 C29.5,42.434 28.97,43.253 28.199,43.681 C29.981,44.753 32.223,47.633 33.219,49.25 L35.187,52.531 C35.57,51.636 36.473,51 37.5,51 C37.596,51 37.688,51.02 37.781,51.031 L35.781,47.719 C34.066,44.86 31.632,42.315 29.469,41.312 z M37.5,53 C37.212,53 37,53.212 37,53.5 C37,53.597 37.02,53.676 37.062,53.75 L37.906,53.25 C37.82,53.112 37.684,53 37.5,53 z" fill="currentColor" id="highway-primary-link-stroke1"/>
    <path d="M39,53.5 C39,54.328 38.328,55 37.5,55 C36.672,55 36,54.328 36,53.5 C36,52.672 36.672,52 37.5,52 C38.328,52 39,52.672 39,53.5 z" fill="#FFFFFF"/>
    <path d="M28.5,41.5 C28.5,42.328 27.828,43 27,43 C26.172,43 25.5,42.328 25.5,41.5 C25.5,40.672 26.172,40 27,40 C27.828,40 28.5,40.672 28.5,41.5 z" fill="#FFFFFF"/>
  </g>
</svg>