<?xml version="1.0" encoding="UTF-8"?>
<!DOCTYPE svg PUBLIC "-//W3C//DTD SVG 1.1//EN" "http://www.w3.org/Graphics/SVG/1.1/DTD/svg11.dtd">
<svg version="1.1" xmlns="http://www.w3.org/2000/svg" xmlns:xlink="http://www.w3.org/1999/xlink" x="0" y="0" width="60" height="60" viewBox="0 0 60 60">
  <g>
    <g>
      <g>
        <path d="M21,21 L39,21 L39,39 L21,39 z" fill="#FFFFFF"/>
        <path d="M21,21 L39,21 L39,39 L21,39 z" fill-opacity="0" stroke="#AAAAAA" stroke-width="1" stroke-dasharray="2,1"/>
      </g>
    </g>
    <path d="M42,20.5 C42,22.433 40.433,24 38.5,24 C36.567,24 35,22.433 35,20.5 C35,18.567 36.567,17 38.5,17 C40.433,17 42,18.567 42,20.5 z" fill="#000000" opacity="0.2"/>
    <path d="M41,20.5 C41,21.881 39.881,23 38.5,23 C37.119,23 36,21.881 36,20.5 C36,19.119 37.119,18 38.5,18 C39.881,18 41,19.119 41,20.5 z" fill="#FFFFFF"/>
    <path d="M24,38.5 C24,40.433 22.433,42 20.5,42 C18.567,42 17,40.433 17,38.5 C17,36.567 18.567,35 20.5,35 C22.433,35 24,36.567 24,38.5 z" fill="#000000" opacity="0.2"/>
    <path d="M23,38.5 C23,39.881 21.881,41 20.5,41 C19.119,41 18,39.881 18,38.5 C18,37.119 19.119,36 20.5,36 C21.881,36 23,37.119 23,38.5 z" fill="#FFFFFF"/>
    <path d="M24,20.5 C24,22.433 22.433,24 20.5,24 C18.567,24 17,22.433 17,20.5 C17,18.567 18.567,17 20.5,17 C22.433,17 24,18.567 24,20.5 z" fill="#000000" opacity="0.2"/>
    <path d="M23,20.5 C23,21.881 21.881,23 20.5,23 C19.119,23 18,21.881 18,20.5 C18,19.119 19.119,18 20.5,18 C21.881,18 23,19.119 23,20.5 z" fill="#FFFFFF"/>
    <path d="M42,38.5 C42,40.433 40.433,42 38.5,42 C36.567,42 35,40.433 35,38.5 C35,36.567 36.567,35 38.5,35 C40.433,35 42,36.567 42,38.5 z" fill="#000000" opacity="0.2"/>
    <path d="M41,38.5 C41,39.881 39.881,41 38.5,41 C37.119,41 36,39.881 36,38.5 C36,37.119 37.119,36 38.5,36 C39.881,36 41,37.119 41,38.5 z" fill="#FFFFFF"/>
  </g>
</svg>