<?xml version="1.0" encoding="UTF-8"?>
<!DOCTYPE svg PUBLIC "-//W3C//DTD SVG 1.1//EN" "http://www.w3.org/Graphics/SVG/1.1/DTD/svg11.dtd">
<svg version="1.1" xmlns="http://www.w3.org/2000/svg" xmlns:xlink="http://www.w3.org/1999/xlink" x="0" y="0" width="60" height="60" viewBox="0 0 60 60">
    <g>
      <path d="M16.5,15 C15.119,15 14,17.239 14,20 C14,22.761 15.119,25 16.5,25 L27,25 L27,15 L16.5,15 z M31,15 L31,25 L45.5,25 L45.5,15 L31,15 z" fill="#B5B5B5"/>
      <path d="M48,20 C48,22.761 46.881,25 45.5,25 C44.119,25 43,22.761 43,20 C43,17.239 44.119,15 45.5,15 C46.881,15 48,17.239 48,20 z" fill="#989898"/>
      <path d="M28,12 L28,26 L26,36 L28,36 L29.594,28 L34.406,28 L36,36 L38,36 L36,26 L35,26 L30,26 L30,12 L28,12 z M34,12 L34,14 L36,14 L36,12 L34,12 z M22,15 C21,15 19.5,17.239 19.5,20 C19.5,22.761 21,25 22,25 L24,25 C22.619,25 21,22.761 21,20 C21,17.239 22.619,15 24,15 L22,15 z M37,15 C36,15 34.5,17.239 34.5,20 C34.5,22.761 36,25 37,25 L39,25 C37.619,25 36,22.761 36,20 C36,17.239 37.619,15 39,15 L37,15 z M45.5,15 C44.119,15 43,17.239 43,20 C43,22.761 44.119,25 45.5,25 C46.881,25 48,22.761 48,20 C48,17.239 46.881,15 45.5,15 z" fill="#989898"/>
    </g>
    <path d="M49.5,39 C50.881,39 52,40.119 52,41.5 C52,42.881 50.881,44 49.5,44 C48.076,43.93 47.556,43.207 47.05,42 L12.95,42 C12.591,43.231 11.753,43.874 10.5,44 C9.119,44 8,42.881 8,41.5 C8,40.119 9.119,39 10.5,39 C11.924,39.069 12.443,39.793 12.95,41 L47.05,41 C47.409,39.768 48.247,39.126 49.5,39 z" fill="#000000" id="pipeline-line-stroke"/>
    <path d="M51,41.5 C51,42.328 50.328,43 49.5,43 C48.672,43 48,42.328 48,41.5 C48,40.672 48.672,40 49.5,40 C50.328,40 51,40.672 51,41.5 z" fill="#FFFFFF"/>
    <path d="M12,41.5 C12,42.328 11.328,43 10.5,43 C9.672,43 9,42.328 9,41.5 C9,40.672 9.672,40 10.5,40 C11.328,40 12,40.672 12,41.5 z" fill="#FFFFFF"/>
</svg>
