<?xml version="1.0" encoding="UTF-8"?>
<!DOCTYPE svg PUBLIC "-//W3C//DTD SVG 1.1//EN" "http://www.w3.org/Graphics/SVG/1.1/DTD/svg11.dtd">
<svg version="1.1" xmlns="http://www.w3.org/2000/svg" xmlns:xlink="http://www.w3.org/1999/xlink" x="0" y="0" width="50" height="50" viewBox="5 0 50 50">
  <g>
    <path d="M16.5,15 C15.119,15 14,17.239 14,20 C14,22.761 15.119,25 16.5,25 L27,25 L27,15 L16.5,15 z M31,15 L31,25 L45.5,25 L45.5,15 L31,15 z" fill="#B5B5B5"/>
    <path d="M48,20 C48,22.761 46.881,25 45.5,25 C44.119,25 43,22.761 43,20 C43,17.239 44.119,15 45.5,15 C46.881,15 48,17.239 48,20 z" fill="#989898"/>
    <path d="M28,12 L28,26 L26,36 L28,36 L29.594,28 L34.406,28 L36,36 L38,36 L36,26 L35,26 L30,26 L30,12 L28,12 z M34,12 L34,14 L36,14 L36,12 L34,12 z M22,15 C21,15 19.5,17.239 19.5,20 C19.5,22.761 21,25 22,25 L24,25 C22.619,25 21,22.761 21,20 C21,17.239 22.619,15 24,15 L22,15 z M37,15 C36,15 34.5,17.239 34.5,20 C34.5,22.761 36,25 37,25 L39,25 C37.619,25 36,22.761 36,20 C36,17.239 37.619,15 39,15 L37,15 z M45.5,15 C44.119,15 43,17.239 43,20 C43,22.761 44.119,25 45.5,25 C46.881,25 48,22.761 48,20 C48,17.239 46.881,15 45.5,15 z" fill="#989898"/>
  </g>
</svg>
