<?xml version="1.0" encoding="UTF-8"?>
<!DOCTYPE svg PUBLIC "-//W3C//DTD SVG 1.1//EN" "http://www.w3.org/Graphics/SVG/1.1/DTD/svg11.dtd">
<svg version="1.1" xmlns="http://www.w3.org/2000/svg" xmlns:xlink="http://www.w3.org/1999/xlink" x="0" y="0" width="60" height="60" viewBox="0 0 60 60">
  <path d="M49.5,39 C50.881,39 52,40.119 52,41.5 C52,42.881 50.881,44 49.5,44 C48.593,44.004 48.127,43.598 47.529,43 L12.471,43 C11.978,43.678 11.297,43.92 10.5,44 C9.119,44 8,42.881 8,41.5 C8,40.119 9.119,39 10.5,39 C11.407,38.996 11.873,39.402 12.471,40 L47.529,40 C48.021,39.322 48.703,39.08 49.5,39 z" fill="currentColor" id="railway-subway-stroke"/>
  <path d="M16,41 L16,42 L12.949,42 L13,41.5 L12.949,41 L16,41 z M27,41 L22,41 L22,42 L27,42 L27,41 z M38,41 L33,41 L33,42 L38,42 L38,41 z M47.05,41 L44,41 L44,42 L47.05,42 L47,41.5 L47.05,41 z" fill="inherit" id="railway-subway-dashes"/>
  <path d="M51,41.5 C51,42.328 50.328,43 49.5,43 C48.672,43 48,42.328 48,41.5 C48,40.672 48.672,40 49.5,40 C50.328,40 51,40.672 51,41.5 z" fill="#FFFFFF"/>
  <path d="M12,41.5 C12,42.328 11.328,43 10.5,43 C9.672,43 9,42.328 9,41.5 C9,40.672 9.672,40 10.5,40 C11.328,40 12,40.672 12,41.5 z" fill="#FFFFFF"/>
  <g>
    <path d="M22.5,32 L25.833,32 L25,33.488 L35,33.488 L34.167,32 L37.5,32 L40,36.464 L36.667,36.464 L35.833,34.976 L24.167,34.976 L23.333,36.464 L20,36.464 L22.5,32 z" fill="#989898"/>
    <path d="M25,9 L19,14.739 L19,29.087 L21,31 L39,31 L41,29.087 L41,14.739 L35,9 L25,9 z M26,10.913 L34,10.913 L34,12.826 L26,12.826 L26,10.913 z M22,14.739 L24,14.739 L36,14.739 L38,14.739 L39,15.696 L39,19.522 L36,21.435 L24,21.435 L21,19.522 L21,15.696 L22,14.739 z M21,25.261 L24,25.261 L26,27.174 L26,28.13 L22,28.13 L21,27.174 L21,25.261 z M36,25.261 L39,25.261 L39,27.174 L38,28.13 L34,28.13 L34,27.174 L36,25.261 z" fill="#989898"/>
    <path d="M23,4 C18,4 14,7 14,13 L14,33 L17,32 L17,13 C17,9 20,7 23,7 L29,7 L31,7 L37,7 C40,7 43,9 43,13 L43,32 L46,33 L46,13 C46,7 41.932,4.822 37,4 L31,4 L29,4 z" fill="#B5B5B5"/>
  </g>
</svg>