<?xml version="1.0" encoding="UTF-8"?>
<!DOCTYPE svg PUBLIC "-//W3C//DTD SVG 1.1//EN" "http://www.w3.org/Graphics/SVG/1.1/DTD/svg11.dtd">
<svg version="1.1" xmlns="http://www.w3.org/2000/svg" xmlns:xlink="http://www.w3.org/1999/xlink" x="0" y="0" width="60" height="60" viewBox="0 0 60 60">
    <path d="M49.667,39 C51.047,39 52.167,40.119 52.167,41.5 C52.167,42.881 51.047,44 49.667,44 C48.76,44.004 48.294,43.598 47.696,43 L12.637,43 C12.145,43.678 11.464,43.92 10.667,44 C9.286,44 8.167,42.881 8.167,41.5 C8.167,40.119 9.286,39 10.667,39 C11.573,38.996 12.039,39.402 12.637,40 L47.696,40 C48.188,39.322 48.869,39.08 49.667,39 z" fill="#000000" id="railway-monorail-stroke"/>
    <path d="M16.167,41 L16.167,42 L13.116,42 L13.167,41.5 L13.116,41 L16.167,41 z M27.167,41 L22.167,41 L22.167,42 L27.167,42 L27.167,41 z M38.167,41 L33.167,41 L33.167,42 L38.167,42 L38.167,41 z M47.217,41 L44.167,41 L44.167,42 L47.217,42 L47.167,41.5 L47.217,41 z" fill="#AAAAAA" id="railway-monorail-dashes"/>
    <path d="M51,41.5 C51,42.328 50.328,43 49.5,43 C48.672,43 48,42.328 48,41.5 C48,40.672 48.672,40 49.5,40 C50.328,40 51,40.672 51,41.5 z" fill="#FFFFFF"/>
    <path d="M12,41.5 C12,42.328 11.328,43 10.5,43 C9.672,43 9,42.328 9,41.5 C9,40.672 9.672,40 10.5,40 C11.328,40 12,40.672 12,41.5 z" fill="#FFFFFF"/>
    <path d="M23,31 L21,29 L21,16 L26,10 L34,10 L39,16 L39,29 L37,31 L34,31 L34,34 L32,34 L32,32 L31,31 L29,31 L28,32 L28,34 L26,34 L26,31 L23,31 z M37,24 L33,24 L32,26 L32,27 L36,27 L37,26 L37,24 z M27,24 L23,24 L23,26 L24,27 L28,27 L28,26 L27,24 z M36,16 L24,16 L23,17 L23,21 L37,21 L37,17 L36,16 z M34,11 L26,11 L26,13 L34,13 L34,11 z" fill="#989898"/>
    <path d="M31,32 L31,35 L33,35 L33,36 L27,36 L27,35 L29,35 L29,32 L31,32 z" fill="#B5B5B5"/>
</svg>
