<?xml version="1.0" encoding="UTF-8"?>
<!DOCTYPE svg PUBLIC "-//W3C//DTD SVG 1.1//EN" "http://www.w3.org/Graphics/SVG/1.1/DTD/svg11.dtd">
<svg version="1.1" xmlns="http://www.w3.org/2000/svg" xmlns:xlink="http://www.w3.org/1999/xlink" x="0" y="0" width="60" height="60" viewBox="0 0 60 60">
    <path d="M49.5,39 C50.881,39 52,40.119 52,41.5 C52,42.881 50.881,44 49.5,44 C48.593,44.004 48.127,43.598 47.529,43 L12.471,43 C11.978,43.678 11.297,43.92 10.5,44 C9.119,44 8,42.881 8,41.5 C8,40.119 9.119,39 10.5,39 C11.407,38.996 11.873,39.402 12.471,40 L47.529,40 C48.022,39.322 48.703,39.08 49.5,39 z" fill="#000000" id="railway-light-rail-stroke"/>
    <path d="M16,41 L16,42 L12.95,42 L13,41.5 L12.95,41 L16,41 z M27,41 L22,41 L22,42 L27,42 L27,41 z M38,41 L33,41 L33,42 L38,42 L38,41 z M47.05,41 L44,41 L44,42 L47.05,42 L47,41.5 L47.05,41 z" fill="#AAAAAA" id="railway-light-rail-dashes"/>
    <path d="M51,41.5 C51,42.328 50.328,43 49.5,43 C48.672,43 48,42.328 48,41.5 C48,40.672 48.672,40 49.5,40 C50.328,40 51,40.672 51,41.5 z" fill="#FFFFFF"/>
    <path d="M12,41.5 C12,42.328 11.328,43 10.5,43 C9.672,43 9,42.328 9,41.5 C9,40.672 9.672,40 10.5,40 C11.328,40 12,40.672 12,41.5 z" fill="#FFFFFF"/>
    <g>
      <path d="M22.5,32 L25.833,32 L25,33.488 L35,33.488 L34.167,32 L37.5,32 L40,36.464 L36.667,36.464 L35.833,34.976 L24.167,34.976 L23.333,36.464 L20,36.464 L22.5,32 z" fill="#989898"/>
      <path d="M25.111,10 L19,15.727 L19,29.091 L21.444,31 L38.555,31 L41,29.091 L41,15.727 L34.889,10 L25.111,10 z M25.111,10.955 L34.889,10.955 L34.889,12.864 L25.111,12.864 L25.111,10.955 z M22.667,15.727 L25.111,15.727 L34.889,15.727 L37.333,15.727 L38.555,16.682 L38.555,20.5 L34.889,20.5 L25.111,20.5 L21.444,20.5 L21.444,16.682 L22.667,15.727 z M21.444,25.273 L25.111,25.273 L27.555,27.182 L27.555,28.136 L22.667,28.136 L21.444,27.182 L21.444,25.273 z M34.889,25.273 L38.555,25.273 L38.555,27.182 L37.333,28.136 L32.444,28.136 L32.444,27.182 L34.889,25.273 z" fill="#989898"/>
      <path d="M25,6 L25,7 L29,7 L29,9 L31,9 L31,7 L35,7 L35,6 z" fill="#989898"/>
    </g>
</svg>
