<?xml version="1.0" encoding="UTF-8"?>
<!DOCTYPE svg PUBLIC "-//W3C//DTD SVG 1.1//EN" "http://www.w3.org/Graphics/SVG/1.1/DTD/svg11.dtd">
<svg version="1.1" xmlns="http://www.w3.org/2000/svg" xmlns:xlink="http://www.w3.org/1999/xlink" x="0" y="0" width="50" height="50" viewBox="5 0 50 50">
  <g id="railway-disused-base">
    <path d="M17.001,35 L18.501,36 L19.501,35 L20.22,32 L17.72,32 z" fill="#989898"/>
    <path d="M40.282,32 L41.001,35 L42.001,36 L43.501,35 L42.782,32 z" fill="#989898"/>
    <path d="M21.187,28 L21.659,26 L19.158,26 L18.689,28 L16.251,28 C15.697,28 15.385,28.463 15.251,29 L15.001,30 C14.867,30.537 15.447,31 16.001,31 L27.791,31 C27.478,29.969 27.016,28.919 26.334,28 L21.187,28 z M19.501,30 C19.225,30 19.001,29.776 19.001,29.5 C19.001,29.224 19.225,29 19.501,29 C19.777,29 20.001,29.224 20.001,29.5 C20.001,29.776 19.777,30 19.501,30 z" fill="#989898"/>
    <path d="M17.001,25 L43.001,25 C43.555,25 44.135,24.537 44.001,24 L43.751,23 C43.617,22.463 43.305,22 42.751,22 L40.407,22 L39.938,20 L37.438,20 L37.907,22 L22.594,22 L23.066,20 L20.564,20 L20.095,22 L17.251,22 C16.697,22 16.385,22.463 16.251,23 L16.001,24 C15.867,24.537 16.447,25 17.001,25 z M39.501,23 C39.777,23 40.001,23.224 40.001,23.5 C40.001,23.776 39.777,24 39.501,24 C39.225,24 39.001,23.776 39.001,23.5 C39.001,23.224 39.225,23 39.501,23 z M20.501,23 C20.777,23 21.001,23.224 21.001,23.5 C21.001,23.776 20.777,24 20.501,24 C20.225,24 20.001,23.776 20.001,23.5 C20.001,23.224 20.225,23 20.501,23 z" fill="#989898"/>
    <path d="M18.001,19 L42.001,19 C42.555,19 43.135,18.537 43.001,18 L42.751,17 C42.617,16.463 42.305,16 41.751,16 L38.97,16 L38.501,14 L37.001,13 L36.001,14 L36.47,16 L24.032,16 L24.501,14 L23.501,13 L22.001,14 L21.532,16 L18.251,16 C17.697,16 17.385,16.463 17.251,17 L17.001,18 C16.867,18.537 17.447,19 18.001,19 z M38.501,17 C38.777,17 39.001,17.224 39.001,17.5 C39.001,17.776 38.777,18 38.501,18 C38.225,18 38.001,17.776 38.001,17.5 C38.001,17.224 38.225,17 38.501,17 z M21.501,17 C21.777,17 22.001,17.224 22.001,17.5 C22.001,17.776 21.777,18 21.501,18 C21.225,18 21.001,17.776 21.001,17.5 C21.001,17.224 21.225,17 21.501,17 z" fill="#989898"/>
    <path d="M45,30 L44.75,29 C44.616,28.463 44.304,28 43.75,28 L41.812,28 L41.343,26 L38.843,26 L39.312,28 L35.068,28 L34.753,28.285 C33.666,29.267 33.078,30.226 32.743,31 L44.001,31 C44.554,31 45.134,30.537 45,30 z M40.501,30 C40.225,30 40.001,29.776 40.001,29.5 C40.001,29.224 40.225,29 40.501,29 C40.777,29 41.001,29.224 41.001,29.5 C41.001,29.776 40.777,30 40.501,30 z" fill="#989898"/>
  </g>
  <g id="railway-disused-weed">
    <path d="M24.407,31.625 C27.445,34.703 26.785,36.01 26.785,36.01 C26.785,36.01 26.996,36.049 28.454,36.049 C28.573,32.92 26.161,32.188 24.407,31.625 z" fill="#555555"/>
    <path d="M30.979,36.031 C31.025,34.017 30.715,32.403 30.23,31.109 C29.739,29.8 29.068,28.827 28.397,28.109 C27.121,26.744 25.851,26.309 25.851,26.309 C26.476,26.836 26.979,27.453 27.401,28.109 C28.013,29.061 28.436,30.099 28.722,31.109 C29.454,33.69 29.325,36.044 29.325,36.044 C29.325,36.044 29.897,36.031 30.979,36.031 z" fill="#555555"/>
    <path d="M33.557,28 C31.753,28.807 31.117,30.824 31.117,30.824 L31.164,31 L31.601,32.64 C31.601,32.64 31.6,31.976 31.974,31 C32.295,30.16 32.901,29.088 34.027,28 C34.11,27.92 34.188,27.84 34.277,27.76 C34.017,27.816 33.779,27.9 33.557,28 z" fill="#555555"/>
    <path d="M32.019,36.038 L33.599,36.029 C33.599,36.029 33.369,33.661 35.595,31.703 C33.861,32.201 32.21,33.783 32.019,36.038 z" fill="#555555"/>
  </g>
</svg>
