<?xml version="1.0" encoding="UTF-8"?>
<!DOCTYPE svg PUBLIC "-//W3C//DTD SVG 1.1//EN" "http://www.w3.org/Graphics/SVG/1.1/DTD/svg11.dtd">
<svg version="1.1" xmlns="http://www.w3.org/2000/svg" xmlns:xlink="http://www.w3.org/1999/xlink" x="0" y="0" width="60" height="60" viewBox="0 0 60 60">
    <path d="M49.5,39 C50.881,39 52,40.119 52,41.5 C52,42.881 50.881,44 49.5,44 C48.593,44.004 48.127,43.598 47.529,43 L12.471,43 C11.978,43.678 11.297,43.92 10.5,44 C9.119,44 8,42.881 8,41.5 C8,40.119 9.119,39 10.5,39 C11.407,38.996 11.873,39.402 12.471,40 L47.529,40 C48.022,39.322 48.703,39.08 49.5,39 z" fill="#000000" id="railway-tram-stroke"/>
    <path d="M16,41 L16,42 L12.95,42 L13,41.5 L12.95,41 L16,41 z M27,41 L22,41 L22,42 L27,42 L27,41 z M38,41 L33,41 L33,42 L38,42 L38,41 z M47.05,41 L44,41 L44,42 L47.05,42 L47,41.5 L47.05,41 z" fill="#AAAAAA" id="railway-tram-dashes"/>
    <path d="M51,41.5 C51,42.328 50.328,43 49.5,43 C48.672,43 48,42.328 48,41.5 C48,40.672 48.672,40 49.5,40 C50.328,40 51,40.672 51,41.5 z" fill="#FFFFFF"/>
    <path d="M12,41.5 C12,42.328 11.328,43 10.5,43 C9.672,43 9,42.328 9,41.5 C9,40.672 9.672,40 10.5,40 C11.328,40 12,40.672 12,41.5 z" fill="#FFFFFF"/>
    <g>
      <path d="M34,33 L35.5,37 L38,37 L36.5,33 z" fill="#989898"/>
      <path d="M25.469,33 L24,37 L21.5,37 L22.969,33 z" fill="#989898"/>
      <path d="M26.444,10 L22,16 L22,30 L23.778,32 L36.222,32 L38,30 L38,16 L33.556,10 L26.444,10 z M26.444,11 L33.556,11 L33.556,13 L26.444,13 L26.444,11 z M24.667,16 L26.444,16 L33.556,16 L35.333,16 L36.222,17 L36.222,21 L33.556,21 L26.444,21 L23.778,21 L23.778,17 L24.667,16 z M23.778,26 L26.444,26 L28.222,28 L28.222,29 L24.667,29 L23.778,28 L23.778,26 z M33.556,26 L36.222,26 L36.222,28 L35.333,29 L31.778,29 L31.778,28 L33.556,26 z" fill="#989898"/>
      <path d="M25,6 L25,7 L29,7 L29,9 L31,9 L31,7 L35,7 L35,6 z" fill="#989898"/>
    </g>
</svg>
