<?xml version="1.0" encoding="UTF-8"?>
<!DOCTYPE svg PUBLIC "-//W3C//DTD SVG 1.1//EN" "http://www.w3.org/Graphics/SVG/1.1/DTD/svg11.dtd">
<svg version="1.1" xmlns="http://www.w3.org/2000/svg" xmlns:xlink="http://www.w3.org/1999/xlink" x="0" y="0" width="50" height="50" viewBox="5 0 50 50">
  <path d="M23.5,13 L22,14 L21.531,16 L18.25,16 C17.696,16 17.384,16.463 17.25,17 L17,18 C16.866,18.537 17.446,19 18,19 L42,19 C42.554,19 43.134,18.537 43,18 L42.75,17 C42.616,16.463 42.304,16 41.75,16 L38.969,16 L38.5,14 L37,13 L36,14 L36.469,16 L24.031,16 L24.5,14 L23.5,13 z M21.5,17 C21.776,17 22,17.224 22,17.5 C22,17.776 21.776,18 21.5,18 C21.224,18 21,17.776 21,17.5 C21,17.224 21.224,17 21.5,17 z M38.5,17 C38.776,17 39,17.224 39,17.5 C39,17.776 38.776,18 38.5,18 C38.224,18 38,17.776 38,17.5 C38,17.224 38.224,17 38.5,17 z M20.562,20 L20.094,22 L17.25,22 C16.696,22 16.384,22.463 16.25,23 L16,24 C15.866,24.537 16.446,25 17,25 L43,25 C43.554,25 44.134,24.537 44,24 L43.75,23 C43.616,22.463 43.304,22 42.75,22 L40.406,22 L39.938,20 L37.438,20 L37.906,22 L22.594,22 L23.062,20 L20.562,20 z M20.5,23 C20.776,23 21,23.224 21,23.5 C21,23.776 20.776,24 20.5,24 C20.224,24 20,23.776 20,23.5 C20,23.224 20.224,23 20.5,23 z M39.5,23 C39.776,23 40,23.224 40,23.5 C40,23.776 39.776,24 39.5,24 C39.224,24 39,23.776 39,23.5 C39,23.224 39.224,23 39.5,23 z M19.156,26 L18.688,28 L16.25,28 C15.696,28 15.384,28.463 15.25,29 L15,30 C14.866,30.537 15.446,31 16,31 L44,31 C44.554,31 45.134,30.537 45,30 L44.75,29 C44.616,28.463 44.304,28 43.75,28 L41.812,28 L41.344,26 L38.844,26 L39.312,28 L21.188,28 L21.656,26 L19.156,26 z M19.5,29 C19.776,29 20,29.224 20,29.5 C20,29.776 19.776,30 19.5,30 C19.224,30 19,29.776 19,29.5 C19,29.224 19.224,29 19.5,29 z M40.5,29 C40.776,29 41,29.224 41,29.5 C41,29.776 40.776,30 40.5,30 C40.224,30 40,29.776 40,29.5 C40,29.224 40.224,29 40.5,29 z M17.719,32 L17,35 L18.5,36 L19.5,35 L20.219,32 L17.719,32 z M40.281,32 L41,35 L42,36 L43.5,35 L42.781,32 L40.281,32 z" fill="#989898"/>
</svg>
