<?xml version="1.0" encoding="UTF-8"?>
<!DOCTYPE svg PUBLIC "-//W3C//DTD SVG 1.1//EN" "http://www.w3.org/Graphics/SVG/1.1/DTD/svg11.dtd">
<svg version="1.1" xmlns="http://www.w3.org/2000/svg" xmlns:xlink="http://www.w3.org/1999/xlink" x="0" y="0" width="50" height="50" viewBox="5 0 50 50">
  <g id="railway-abandoned-base">
    <path d="M36.044,23.685 L34.595,23.803 L35.324,25 L42.751,25 C43.305,25 43.885,24.537 43.751,24 L43.501,23 C43.367,22.463 43.055,22 42.501,22 L40.157,22 L39.688,20 L37.188,20 L37.657,22 L34.831,22 L35.01,22.248 L36.044,23.685 z M39.25,23 C39.526,23 39.75,23.224 39.75,23.5 C39.75,23.776 39.526,24 39.25,24 C38.974,24 38.75,23.776 38.75,23.5 C38.75,23.224 38.974,23 39.25,23 z" fill="#989898"/>
    <path d="M33.846,19 L41.75,19 C42.304,19 42.884,18.537 42.75,18 L42.5,17 C42.366,16.463 42.054,16 41.5,16 L38.719,16 L38.25,14 L36.75,13 L35.75,14 L36.219,16 L32.206,16 L33.519,18.403 L33.846,19 z M38.25,17 C38.526,17 38.75,17.224 38.75,17.5 C38.75,17.776 38.526,18 38.25,18 C37.974,18 37.75,17.776 37.75,17.5 C37.75,17.224 37.974,17 38.25,17 z" fill="#989898"/>
    <path d="M27.666,16 L23.781,16 L24.25,14 L23.25,13 L21.75,14 L21.281,16 L18,16 C17.446,16 17.134,16.463 17,17 L16.75,18 C16.616,18.537 17.196,19 17.75,19 L26.027,19 L26.374,18.365 L27.666,16 z M21.25,18 C20.974,18 20.75,17.776 20.75,17.5 C20.75,17.224 20.974,17 21.25,17 C21.526,17 21.75,17.224 21.75,17.5 C21.75,17.776 21.526,18 21.25,18 z" fill="#989898"/>
    <path d="M20.936,28 L21.408,26 L18.907,26 L18.438,28 L16,28 C15.446,28 15.134,28.463 15,29 L14.75,30 C14.616,30.537 15.196,31 15.75,31 L22.661,31 L24.251,28 L20.936,28 z M19.25,30 C18.974,30 18.75,29.776 18.75,29.5 C18.75,29.224 18.974,29 19.25,29 C19.526,29 19.75,29.224 19.75,29.5 C19.75,29.776 19.526,30 19.25,30 z" fill="#989898"/>
    <path d="M40.031,32 L40.75,35 L41.75,36 L43.25,35 L42.531,32 z" fill="#989898"/>
    <path d="M23.848,23.647 L24.884,22.209 L25.034,22 L22.343,22 L22.815,20 L20.313,20 L19.844,22 L17,22 C16.446,22 16.134,22.463 16,23 L15.75,24 C15.616,24.537 16.196,25 16.75,25 L24.548,25 L25.297,23.765 L23.848,23.647 z M20.25,24 C19.974,24 19.75,23.776 19.75,23.5 C19.75,23.224 19.974,23 20.25,23 C20.526,23 20.75,23.224 20.75,23.5 C20.75,23.776 20.526,24 20.25,24 z" fill="#989898"/>
    <path d="M44.749,30 L44.499,29 C44.365,28.463 44.053,28 43.499,28 L41.561,28 L41.092,26 L38.592,26 L39.061,28 L35.625,28 L37.213,31 L43.749,31 C44.303,31 44.883,30.537 44.749,30 z M40.25,30 C39.974,30 39.75,29.776 39.75,29.5 C39.75,29.224 39.974,29 40.25,29 C40.526,29 40.75,29.224 40.75,29.5 C40.75,29.776 40.526,30 40.25,30 z" fill="#989898"/>
    <path d="M16.75,35 L18.25,36 L19.25,35 L19.969,32 L17.469,32 z" fill="#989898"/>
  </g>
  <path d="M30.803,31.655 L36.446,31.686 L36.083,31 L34.495,28 L33.678,26.457 L34.976,26.351 L34.154,25 L32.898,22.936 L34.198,22.83 L33.6,22 L31.438,19 L31.429,18.988 L32.642,18.881 L31.066,16 L29.959,13.973 L29.933,14.095 L29.933,13.937 L28.806,16 L27.253,18.844 L28.465,18.95 L28.429,19 L26.267,22 L25.696,22.792 L26.993,22.897 L25.716,25 L24.919,26.313 L26.217,26.42 L25.38,28 L23.792,31 L23.448,31.649 L25.721,31.618 L25.718,31.627 L29.188,31.646 L29.188,32.147 L29.188,32.649 L29.188,36.023 L30.813,36.023 L30.805,32.658 L30.804,32.156 z" fill="#555555" id="railway-abandoned-tree"/>
</svg>
