<?xml version="1.0" encoding="UTF-8"?>
<!DOCTYPE svg PUBLIC "-//W3C//DTD SVG 1.1//EN" "http://www.w3.org/Graphics/SVG/1.1/DTD/svg11.dtd">
<svg version="1.1" xmlns="http://www.w3.org/2000/svg" xmlns:xlink="http://www.w3.org/1999/xlink" x="0" y="0" width="60" height="60" viewBox="0 0 60 60">
  <g>
    <path d="M26.906,20 C26.96,20.323 27,20.662 27,21 C27,21.338 26.96,21.677 26.906,22 L35.094,22 C35.027,21.675 35,21.345 35,21 C35,20.655 35.027,20.325 35.094,20 L26.906,20 z M25.875,24.437 C25.485,24.988 25.018,25.483 24.469,25.875 L31.844,33.219 C32.211,32.675 32.703,32.175 33.25,31.812 L25.875,24.437 z M20,26.906 L20,35.094 C20.325,35.027 20.655,35 21,35 C21.345,35 21.675,35.027 22,35.094 L22,26.906 C21.677,26.96 21.338,27 21,27 C20.662,27 20.323,26.96 20,26.906 z" fill="#CCCCCC"/>
    <g>
      <path d="M40,17 C42.209,17 44,18.791 44,21 C44,23.209 42.209,25 40,25 C37.791,25 36,23.209 36,21 C36,18.791 37.791,17 40,17 z" fill="#70372F"/>
      <path d="M40,18 C41.657,18 43,19.343 43,21 C43,22.657 41.657,24 40,24 C38.343,24 37,22.657 37,21 C37,19.343 38.343,18 40,18 z" fill="#E06D5F"/>
      <path d="M40,20 C40.552,20 41,20.448 41,21 C41,21.552 40.552,22 40,22 C39.448,22 39,21.552 39,21 C39,20.448 39.448,20 40,20 z" fill="#FFFFFF"/>
    </g>
    <g>
      <path d="M25,40 C25,42.209 23.209,44 21,44 C18.791,44 17,42.209 17,40 C17,37.791 18.791,36 21,36 C23.209,36 25,37.791 25,40 z" fill="#2C5476"/>
      <path d="M24,40 C24,41.657 22.657,43 21,43 C19.343,43 18,41.657 18,40 C18,38.343 19.343,37 21,37 C22.657,37 24,38.343 24,40 z" fill="#58A9ED"/>
      <path d="M22,40 C22,40.552 21.552,41 21,41 C20.448,41 20,40.552 20,40 C20,39.448 20.448,39 21,39 C21.552,39 22,39.448 22,40 z" fill="#FFFFFF"/>
    </g>
    <g>
      <path d="M40,36 C40,38.209 38.209,40 36,40 C33.791,40 32,38.209 32,36 C32,33.791 33.791,32 36,32 C38.209,32 40,33.791 40,36 z" fill="#46682F"/>
      <path d="M39,36 C39,37.657 37.657,39 36,39 C34.343,39 33,37.657 33,36 C33,34.343 34.343,33 36,33 C37.657,33 39,34.343 39,36 z" fill="#8CD05F"/>
      <path d="M37,36 C37,36.552 36.552,37 36,37 C35.448,37 35,36.552 35,36 C35,35.448 35.448,35 36,35 C36.552,35 37,35.448 37,36 z" fill="#FFFFFF"/>
    </g>
    <g>
      <path d="M26,21 C26,23.761 23.761,26 21,26 C18.239,26 16,23.761 16,21 C16,18.239 18.239,16 21,16 C23.761,16 26,18.239 26,21 z" fill="#444444"/>
      <path d="M25,21 C25,23.209 23.209,25 21,25 C18.791,25 17,23.209 17,21 C17,18.791 18.791,17 21,17 C23.209,17 25,18.791 25,21 z" fill="#CCCCCC"/>
      <path d="M23,21 C23,22.105 22.105,23 21,23 C19.895,23 19,22.105 19,21 C19,19.895 19.895,19 21,19 C22.105,19 23,19.895 23,21 z" fill="#FFFFFF"/>
    </g>
  </g>
</svg>