<?xml version="1.0" encoding="UTF-8"?>
<!DOCTYPE svg PUBLIC "-//W3C//DTD SVG 1.1//EN" "http://www.w3.org/Graphics/SVG/1.1/DTD/svg11.dtd">
<svg version="1.1" xmlns="http://www.w3.org/2000/svg" xmlns:xlink="http://www.w3.org/1999/xlink" x="0" y="0" width="60" height="60" viewBox="0 0 60 60">
  <path d="M30,14 C21.163,14 14,21.163 14,30 C14,38.837 21.163,46 30,46 C38.837,46 46,38.837 46,30 C46,21.163 38.837,14 30,14 z M32,18 L42,27 L38.969,29.719 L32,36 L32,30 L28,30 L26,32 L26,40.219 C23.336,39.177 21.183,37.152 20,34.562 L20,30 L21,28 L24,25 L26,24 L32,24 L32,19.781 L32,18 z" fill="#58A9ED"/>
</svg>