<?xml version="1.0" encoding="UTF-8"?>
<!DOCTYPE svg PUBLIC "-//W3C//DTD SVG 1.1//EN" "http://www.w3.org/Graphics/SVG/1.1/DTD/svg11.dtd">
<svg version="1.1" xmlns="http://www.w3.org/2000/svg" xmlns:xlink="http://www.w3.org/1999/xlink" x="0" y="0" width="60" height="60" viewBox="0 0 60 60">
  <path d="M30,14.5 C21.44,14.5 14.5,21.44 14.5,30 C14.5,38.56 21.44,45.5 30,45.5 C38.56,45.5 45.5,38.56 45.5,30 C45.5,21.44 38.56,14.5 30,14.5 z M30,18.5 C36.351,18.5 41.5,23.649 41.5,30 C41.5,32.454 40.716,34.726 39.406,36.594 L23.406,20.594 C25.274,19.284 27.546,18.5 30,18.5 z M20.594,23.406 L36.594,39.406 C34.726,40.716 32.454,41.5 30,41.5 C23.649,41.5 18.5,36.351 18.5,30 C18.5,27.546 19.284,25.274 20.594,23.406 z" fill="#E06D5F"/>
</svg>