<?xml version="1.0" encoding="UTF-8"?>
<!DOCTYPE svg PUBLIC "-//W3C//DTD SVG 1.1//EN" "http://www.w3.org/Graphics/SVG/1.1/DTD/svg11.dtd">
<svg version="1.1" xmlns="http://www.w3.org/2000/svg" xmlns:xlink="http://www.w3.org/1999/xlink" x="0" y="0" width="60" height="60" viewBox="0 0 60 60">
  <g>
    <path d="M36.969,32.469 L34.031,36.531 L23.031,28.531 L25.969,24.469 z" fill="#46682F"/>
    <path d="M34.125,32.406 L36.875,36.594 L48.875,28.594 L46.125,24.406 z" fill="#70372F"/>
    <path d="M11.125,32.419 L13.875,36.575 L25.875,28.575 L23.125,24.419 z" fill="#2C5476"/>
    <path d="M36.375,33.281 L34.625,35.719 L23.625,27.719 L25.375,25.281 z" fill="#8CD05F"/>
    <path d="M34.656,33.25 L36.344,35.75 L48.344,27.75 L46.656,25.25 z" fill="#E06D5F"/>
    <path d="M11.656,33.263 L13.344,35.763 L25.344,27.763 L23.656,25.263 z" fill="#58A9ED"/>
    <path d="M50,26.5 C50,27.881 48.881,29 47.5,29 C46.119,29 45,27.881 45,26.5 C45,25.119 46.119,24 47.5,24 C48.881,24 50,25.119 50,26.5 z" fill="#70372F"/>
    <path d="M15,34.5 C15,35.881 13.881,37 12.5,37 C11.119,37 10,35.881 10,34.5 C10,33.119 11.119,32 12.5,32 C13.881,32 15,33.119 15,34.5 z" fill="#2C5476"/>
    <path d="M27,26.5 C27,27.881 25.881,29 24.5,29 C23.119,29 22,27.881 22,26.5 C22,25.119 23.119,24 24.5,24 C25.881,24 27,25.119 27,26.5 z" fill="#395E53"/>
    <path d="M38,34.5 C38,35.881 36.881,37 35.5,37 C34.119,37 33,35.881 33,34.5 C33,33.119 34.119,32 35.5,32 C36.881,32 38,33.119 38,34.5 z" fill="#5B502F"/>
    <path d="M49,26.5 C49,27.328 48.328,28 47.5,28 C46.672,28 46,27.328 46,26.5 C46,25.672 46.672,25 47.5,25 C48.328,25 49,25.672 49,26.5 z" fill="#FFFFFF"/>
    <path d="M37,34.5 C37,35.328 36.328,36 35.5,36 C34.672,36 34,35.328 34,34.5 C34,33.672 34.672,33 35.5,33 C36.328,33 37,33.672 37,34.5 z" fill="#FFFFFF"/>
    <path d="M26,26.5 C26,27.328 25.328,28 24.5,28 C23.672,28 23,27.328 23,26.5 C23,25.672 23.672,25 24.5,25 C25.328,25 26,25.672 26,26.5 z" fill="#FFFFFF"/>
    <path d="M14,34.5 C14,35.328 13.328,36 12.5,36 C11.672,36 11,35.328 11,34.5 C11,33.672 11.672,33 12.5,33 C13.328,33 14,33.672 14,34.5 z" fill="#FFFFFF"/>
  </g>
</svg>