<?xml version="1.0" encoding="UTF-8"?>
<!DOCTYPE svg PUBLIC "-//W3C//DTD SVG 1.1//EN" "http://www.w3.org/Graphics/SVG/1.1/DTD/svg11.dtd">
<svg version="1.1" xmlns="http://www.w3.org/2000/svg" xmlns:xlink="http://www.w3.org/1999/xlink" x="0" y="0" width="60" height="60" viewBox="0 0 60 60">
  <g>
    <path d="M36.969,45.469 L34.031,49.531 L23.031,41.531 L25.969,37.469 z" fill="#46682F"/>
    <path d="M34.125,45.406 L36.875,49.594 L48.875,41.594 L46.125,37.406 z" fill="#70372F"/>
    <path d="M11.125,45.419 L13.875,49.575 L25.875,41.575 L23.125,37.419 z" fill="#2C5476"/>
    <path d="M36.375,46.281 L34.625,48.719 L23.625,40.719 L25.375,38.281 z" fill="#8CD05F"/>
    <path d="M34.656,46.25 L36.344,48.75 L48.344,40.75 L46.656,38.25 z" fill="#E06D5F"/>
    <path d="M11.656,46.263 L13.344,48.763 L25.344,40.763 L23.656,38.263 z" fill="#58A9ED"/>
    <path d="M50,39.5 C50,40.881 48.881,42 47.5,42 C46.119,42 45,40.881 45,39.5 C45,38.119 46.119,37 47.5,37 C48.881,37 50,38.119 50,39.5 z" fill="#70372F"/>
    <path d="M15,47.5 C15,48.881 13.881,50 12.5,50 C11.119,50 10,48.881 10,47.5 C10,46.119 11.119,45 12.5,45 C13.881,45 15,46.119 15,47.5 z" fill="#2C5476"/>
    <path d="M27,39.5 C27,40.881 25.881,42 24.5,42 C23.119,42 22,40.881 22,39.5 C22,38.119 23.119,37 24.5,37 C25.881,37 27,38.119 27,39.5 z" fill="#395E53"/>
    <path d="M38,47.5 C38,48.881 36.881,50 35.5,50 C34.119,50 33,48.881 33,47.5 C33,46.119 34.119,45 35.5,45 C36.881,45 38,46.119 38,47.5 z" fill="#5B502F"/>
    <path d="M49,39.5 C49,40.328 48.328,41 47.5,41 C46.672,41 46,40.328 46,39.5 C46,38.672 46.672,38 47.5,38 C48.328,38 49,38.672 49,39.5 z" fill="#FFFFFF"/>
    <path d="M37,47.5 C37,48.328 36.328,49 35.5,49 C34.672,49 34,48.328 34,47.5 C34,46.672 34.672,46 35.5,46 C36.328,46 37,46.672 37,47.5 z" fill="#FFFFFF"/>
    <path d="M26,39.5 C26,40.328 25.328,41 24.5,41 C23.672,41 23,40.328 23,39.5 C23,38.672 23.672,38 24.5,38 C25.328,38 26,38.672 26,39.5 z" fill="#FFFFFF"/>
    <path d="M14,47.5 C14,48.328 13.328,49 12.5,49 C11.672,49 11,48.328 11,47.5 C11,46.672 11.672,46 12.5,46 C13.328,46 14,46.672 14,47.5 z" fill="#FFFFFF"/>
  </g>
  <path d="M24.167,8 C21.894,8 19.167,9.239 19.167,12.577 L19.167,21.665 L19.167,28 C19.167,28 19.167,29.667 20.833,29.667 L20.833,31.333 C20.833,31.333 20.833,33 22.5,33 C24.167,33 24.167,31.333 24.167,31.333 L24.167,29.667 L35.833,29.667 L35.833,31.333 C35.833,31.333 35.833,33 37.5,33 C39.167,33 39.167,31.333 39.167,31.333 L39.167,29.667 C39.167,29.667 40.833,29.667 40.833,28 L40.833,12.577 C40.833,9.168 38.773,8 36.501,8 L24.167,8 z M24.583,10.5 L35.417,10.5 C35.647,10.5 35.833,10.686 35.833,10.917 C35.833,11.148 35.647,11.333 35.417,11.333 L24.583,11.333 C24.352,11.333 24.167,11.148 24.167,10.917 C24.167,10.686 24.352,10.5 24.583,10.5 z M22.5,13 L37.5,13 C39.167,13 39.167,14.611 39.167,14.611 L39.167,19.667 C39.167,19.667 39.167,21.333 37.5,21.333 L22.5,21.333 C20.833,21.333 20.833,19.667 20.833,19.667 L20.833,14.667 C20.833,14.667 20.833,13 22.5,13 z M22.5,24.667 C23.42,24.667 24.167,25.413 24.167,26.333 C24.167,27.254 23.42,28 22.5,28 C21.579,28 20.833,27.254 20.833,26.333 C20.833,25.413 21.579,24.667 22.5,24.667 z M37.5,24.667 C38.42,24.667 39.167,25.413 39.167,26.333 C39.167,27.254 38.42,28 37.5,28 C36.579,28 35.833,27.254 35.833,26.333 C35.833,25.413 36.579,24.667 37.5,24.667 z" fill="#989898"/>
</svg>