<?xml version="1.0" encoding="UTF-8"?>
<!DOCTYPE svg PUBLIC "-//W3C//DTD SVG 1.1//EN" "http://www.w3.org/Graphics/SVG/1.1/DTD/svg11.dtd">
<svg version="1.1" xmlns="http://www.w3.org/2000/svg" xmlns:xlink="http://www.w3.org/1999/xlink" x="0" y="0" width="60" height="60" viewBox="0 0 60 60">
  <g>
    <path d="M36.969,45.469 L34.031,49.531 L23.031,41.531 L25.969,37.469 z" fill="#46682F"/>
    <path d="M34.125,45.406 L36.875,49.594 L48.875,41.594 L46.125,37.406 z" fill="#70372F"/>
    <path d="M11.125,45.419 L13.875,49.575 L25.875,41.575 L23.125,37.419 z" fill="#2C5476"/>
    <path d="M36.375,46.281 L34.625,48.719 L23.625,40.719 L25.375,38.281 z" fill="#8CD05F"/>
    <path d="M34.656,46.25 L36.344,48.75 L48.344,40.75 L46.656,38.25 z" fill="#E06D5F"/>
    <path d="M11.656,46.263 L13.344,48.763 L25.344,40.763 L23.656,38.263 z" fill="#58A9ED"/>
    <path d="M50,39.5 C50,40.881 48.881,42 47.5,42 C46.119,42 45,40.881 45,39.5 C45,38.119 46.119,37 47.5,37 C48.881,37 50,38.119 50,39.5 z" fill="#70372F"/>
    <path d="M15,47.5 C15,48.881 13.881,50 12.5,50 C11.119,50 10,48.881 10,47.5 C10,46.119 11.119,45 12.5,45 C13.881,45 15,46.119 15,47.5 z" fill="#2C5476"/>
    <path d="M27,39.5 C27,40.881 25.881,42 24.5,42 C23.119,42 22,40.881 22,39.5 C22,38.119 23.119,37 24.5,37 C25.881,37 27,38.119 27,39.5 z" fill="#395E53"/>
    <path d="M38,47.5 C38,48.881 36.881,50 35.5,50 C34.119,50 33,48.881 33,47.5 C33,46.119 34.119,45 35.5,45 C36.881,45 38,46.119 38,47.5 z" fill="#5B502F"/>
    <path d="M49,39.5 C49,40.328 48.328,41 47.5,41 C46.672,41 46,40.328 46,39.5 C46,38.672 46.672,38 47.5,38 C48.328,38 49,38.672 49,39.5 z" fill="#FFFFFF"/>
    <path d="M37,47.5 C37,48.328 36.328,49 35.5,49 C34.672,49 34,48.328 34,47.5 C34,46.672 34.672,46 35.5,46 C36.328,46 37,46.672 37,47.5 z" fill="#FFFFFF"/>
    <path d="M26,39.5 C26,40.328 25.328,41 24.5,41 C23.672,41 23,40.328 23,39.5 C23,38.672 23.672,38 24.5,38 C25.328,38 26,38.672 26,39.5 z" fill="#FFFFFF"/>
    <path d="M14,47.5 C14,48.328 13.328,49 12.5,49 C11.672,49 11,48.328 11,47.5 C11,46.672 11.672,46 12.5,46 C13.328,46 14,46.672 14,47.5 z" fill="#FFFFFF"/>
  </g>
  <g>
    <path d="M36.969,31.469 L34.031,35.531 L23.031,27.531 L25.969,23.469 z" fill="#46682F"/>
    <path d="M34.125,31.406 L36.875,35.594 L48.875,27.594 L46.125,23.406 z" fill="#70372F"/>
    <path d="M11.125,31.419 L13.875,35.575 L25.875,27.575 L23.125,23.419 z" fill="#2C5476"/>
    <path d="M36.375,32.281 L34.625,34.719 L23.625,26.719 L25.375,24.281 z" fill="#8CD05F"/>
    <path d="M34.656,32.25 L36.344,34.75 L48.344,26.75 L46.656,24.25 z" fill="#E06D5F"/>
    <path d="M11.656,32.263 L13.344,34.763 L25.344,26.763 L23.656,24.263 z" fill="#58A9ED"/>
    <path d="M50,25.5 C50,26.881 48.881,28 47.5,28 C46.119,28 45,26.881 45,25.5 C45,24.119 46.119,23 47.5,23 C48.881,23 50,24.119 50,25.5 z" fill="#70372F"/>
    <path d="M15,33.5 C15,34.881 13.881,36 12.5,36 C11.119,36 10,34.881 10,33.5 C10,32.119 11.119,31 12.5,31 C13.881,31 15,32.119 15,33.5 z" fill="#2C5476"/>
    <path d="M27,25.5 C27,26.881 25.881,28 24.5,28 C23.119,28 22,26.881 22,25.5 C22,24.119 23.119,23 24.5,23 C25.881,23 27,24.119 27,25.5 z" fill="#395E53"/>
    <path d="M38,33.5 C38,34.881 36.881,36 35.5,36 C34.119,36 33,34.881 33,33.5 C33,32.119 34.119,31 35.5,31 C36.881,31 38,32.119 38,33.5 z" fill="#5B502F"/>
    <path d="M49,25.5 C49,26.328 48.328,27 47.5,27 C46.672,27 46,26.328 46,25.5 C46,24.672 46.672,24 47.5,24 C48.328,24 49,24.672 49,25.5 z" fill="#FFFFFF"/>
    <path d="M37,33.5 C37,34.328 36.328,35 35.5,35 C34.672,35 34,34.328 34,33.5 C34,32.672 34.672,32 35.5,32 C36.328,32 37,32.672 37,33.5 z" fill="#FFFFFF"/>
    <path d="M26,25.5 C26,26.328 25.328,27 24.5,27 C23.672,27 23,26.328 23,25.5 C23,24.672 23.672,24 24.5,24 C25.328,24 26,24.672 26,25.5 z" fill="#FFFFFF"/>
    <path d="M14,33.5 C14,34.328 13.328,35 12.5,35 C11.672,35 11,34.328 11,33.5 C11,32.672 11.672,32 12.5,32 C13.328,32 14,32.672 14,33.5 z" fill="#FFFFFF"/>
  </g>
  <g>
    <path d="M36.969,17.469 L34.031,21.531 L23.031,13.531 L25.969,9.469 z" fill="#46682F"/>
    <path d="M34.125,17.406 L36.875,21.594 L48.875,13.594 L46.125,9.406 z" fill="#70372F"/>
    <path d="M11.125,17.419 L13.875,21.575 L25.875,13.575 L23.125,9.419 z" fill="#2C5476"/>
    <path d="M36.375,18.281 L34.625,20.719 L23.625,12.719 L25.375,10.281 z" fill="#8CD05F"/>
    <path d="M34.656,18.25 L36.344,20.75 L48.344,12.75 L46.656,10.25 z" fill="#E06D5F"/>
    <path d="M11.656,18.263 L13.344,20.763 L25.344,12.763 L23.656,10.263 z" fill="#58A9ED"/>
    <path d="M50,11.5 C50,12.881 48.881,14 47.5,14 C46.119,14 45,12.881 45,11.5 C45,10.119 46.119,9 47.5,9 C48.881,9 50,10.119 50,11.5 z" fill="#70372F"/>
    <path d="M15,19.5 C15,20.881 13.881,22 12.5,22 C11.119,22 10,20.881 10,19.5 C10,18.119 11.119,17 12.5,17 C13.881,17 15,18.119 15,19.5 z" fill="#2C5476"/>
    <path d="M27,11.5 C27,12.881 25.881,14 24.5,14 C23.119,14 22,12.881 22,11.5 C22,10.119 23.119,9 24.5,9 C25.881,9 27,10.119 27,11.5 z" fill="#395E53"/>
    <path d="M38,19.5 C38,20.881 36.881,22 35.5,22 C34.119,22 33,20.881 33,19.5 C33,18.119 34.119,17 35.5,17 C36.881,17 38,18.119 38,19.5 z" fill="#5B502F"/>
    <path d="M49,11.5 C49,12.328 48.328,13 47.5,13 C46.672,13 46,12.328 46,11.5 C46,10.672 46.672,10 47.5,10 C48.328,10 49,10.672 49,11.5 z" fill="#FFFFFF"/>
    <path d="M37,19.5 C37,20.328 36.328,21 35.5,21 C34.672,21 34,20.328 34,19.5 C34,18.672 34.672,18 35.5,18 C36.328,18 37,18.672 37,19.5 z" fill="#FFFFFF"/>
    <path d="M26,11.5 C26,12.328 25.328,13 24.5,13 C23.672,13 23,12.328 23,11.5 C23,10.672 23.672,10 24.5,10 C25.328,10 26,10.672 26,11.5 z" fill="#FFFFFF"/>
    <path d="M14,19.5 C14,20.328 13.328,21 12.5,21 C11.672,21 11,20.328 11,19.5 C11,18.672 11.672,18 12.5,18 C13.328,18 14,18.672 14,19.5 z" fill="#FFFFFF"/>
  </g>
</svg>