<?xml version="1.0" encoding="UTF-8"?>
<!DOCTYPE svg PUBLIC "-//W3C//DTD SVG 1.1//EN" "http://www.w3.org/Graphics/SVG/1.1/DTD/svg11.dtd">
<svg version="1.1" xmlns="http://www.w3.org/2000/svg" xmlns:xlink="http://www.w3.org/1999/xlink" x="0" y="0" width="60" height="60" viewBox="0 0 60 60">
  <g>
    <path d="M36.969,45.469 L34.031,49.531 L23.031,41.531 L25.969,37.469 z" fill="#46682F"/>
    <path d="M34.125,45.406 L36.875,49.594 L48.875,41.594 L46.125,37.406 z" fill="#70372F"/>
    <path d="M11.125,45.419 L13.875,49.575 L25.875,41.575 L23.125,37.419 z" fill="#2C5476"/>
    <path d="M36.375,46.281 L34.625,48.719 L23.625,40.719 L25.375,38.281 z" fill="#8CD05F"/>
    <path d="M34.656,46.25 L36.344,48.75 L48.344,40.75 L46.656,38.25 z" fill="#E06D5F"/>
    <path d="M11.656,46.263 L13.344,48.763 L25.344,40.763 L23.656,38.263 z" fill="#58A9ED"/>
    <path d="M50,39.5 C50,40.881 48.881,42 47.5,42 C46.119,42 45,40.881 45,39.5 C45,38.119 46.119,37 47.5,37 C48.881,37 50,38.119 50,39.5 z" fill="#70372F"/>
    <path d="M15,47.5 C15,48.881 13.881,50 12.5,50 C11.119,50 10,48.881 10,47.5 C10,46.119 11.119,45 12.5,45 C13.881,45 15,46.119 15,47.5 z" fill="#2C5476"/>
    <path d="M27,39.5 C27,40.881 25.881,42 24.5,42 C23.119,42 22,40.881 22,39.5 C22,38.119 23.119,37 24.5,37 C25.881,37 27,38.119 27,39.5 z" fill="#395E53"/>
    <path d="M38,47.5 C38,48.881 36.881,50 35.5,50 C34.119,50 33,48.881 33,47.5 C33,46.119 34.119,45 35.5,45 C36.881,45 38,46.119 38,47.5 z" fill="#5B502F"/>
    <path d="M49,39.5 C49,40.328 48.328,41 47.5,41 C46.672,41 46,40.328 46,39.5 C46,38.672 46.672,38 47.5,38 C48.328,38 49,38.672 49,39.5 z" fill="#FFFFFF"/>
    <path d="M37,47.5 C37,48.328 36.328,49 35.5,49 C34.672,49 34,48.328 34,47.5 C34,46.672 34.672,46 35.5,46 C36.328,46 37,46.672 37,47.5 z" fill="#FFFFFF"/>
    <path d="M26,39.5 C26,40.328 25.328,41 24.5,41 C23.672,41 23,40.328 23,39.5 C23,38.672 23.672,38 24.5,38 C25.328,38 26,38.672 26,39.5 z" fill="#FFFFFF"/>
    <path d="M14,47.5 C14,48.328 13.328,49 12.5,49 C11.672,49 11,48.328 11,47.5 C11,46.672 11.672,46 12.5,46 C13.328,46 14,46.672 14,47.5 z" fill="#FFFFFF"/>
  </g>
  <path d="M22.589,11 L22.589,13 L23.433,13 L23.995,16 L21.495,16 L15.995,26 L15.995,27 L16.995,28 L27.995,28 L35.558,18.531 L39.495,27 L39.995,27 L40.995,27 L40.995,26 L34.995,13 L37.995,13 L37.995,12 L36.995,11 L32.995,11 L32.995,13 L34.401,16 L26.058,16 L25.495,13 L27.589,13 L27.589,12 L26.589,11 L22.589,11 z M22.495,18 L24.495,18 L26.495,26 L17.995,26 L22.495,18 z M26.495,18 L33.495,18 L27.995,24.5 L26.495,18 z M17.495,20 C13.905,20 10.995,22.91 10.995,26.5 C10.995,30.09 13.905,33 17.495,33 C20.198,33 22.515,31.347 23.495,29 L21.245,29 C20.439,30.216 19.063,31 17.495,31 C15.01,31 12.995,28.985 12.995,26.5 C12.995,24.176 14.765,22.301 17.026,22.062 L18.151,20.031 C17.933,20.009 17.72,20 17.495,20 z M39.339,20 L40.276,22.094 C42.387,22.466 43.995,24.283 43.995,26.5 C43.995,28.985 41.98,31 39.495,31 C37.01,31 34.995,28.985 34.995,26.5 C34.995,25.126 35.618,23.919 36.589,23.094 L35.714,21.219 C34.072,22.398 32.995,24.324 32.995,26.5 C32.995,30.09 35.905,33 39.495,33 C43.085,33 45.995,30.09 45.995,26.5 C45.995,22.91 43.085,20 39.495,20 C39.442,20 39.392,19.999 39.339,20 z M21.683,21.531 L20.683,23.312 C21.149,23.779 21.488,24.366 21.714,25 L23.808,25 C23.483,23.628 22.723,22.413 21.683,21.531 z" fill="currentColor" id="route-bicycle-stroke"/>
</svg>