<?xml version="1.0" encoding="UTF-8"?>
<!DOCTYPE svg PUBLIC "-//W3C//DTD SVG 1.1//EN" "http://www.w3.org/Graphics/SVG/1.1/DTD/svg11.dtd">
<svg version="1.1" xmlns="http://www.w3.org/2000/svg" xmlns:xlink="http://www.w3.org/1999/xlink" x="0" y="0" width="60" height="60" viewBox="0 0 60 60">
  <g>
    <path d="M36.969,45.469 L34.031,49.531 L23.031,41.531 L25.969,37.469 z" fill="#46682F"/>
    <path d="M34.125,45.406 L36.875,49.594 L48.875,41.594 L46.125,37.406 z" fill="#70372F"/>
    <path d="M11.125,45.419 L13.875,49.575 L25.875,41.575 L23.125,37.419 z" fill="#2C5476"/>
    <path d="M36.375,46.281 L34.625,48.719 L23.625,40.719 L25.375,38.281 z" fill="#8CD05F"/>
    <path d="M34.656,46.25 L36.344,48.75 L48.344,40.75 L46.656,38.25 z" fill="#E06D5F"/>
    <path d="M11.656,46.263 L13.344,48.763 L25.344,40.763 L23.656,38.263 z" fill="#58A9ED"/>
    <path d="M50,39.5 C50,40.881 48.881,42 47.5,42 C46.119,42 45,40.881 45,39.5 C45,38.119 46.119,37 47.5,37 C48.881,37 50,38.119 50,39.5 z" fill="#70372F"/>
    <path d="M15,47.5 C15,48.881 13.881,50 12.5,50 C11.119,50 10,48.881 10,47.5 C10,46.119 11.119,45 12.5,45 C13.881,45 15,46.119 15,47.5 z" fill="#2C5476"/>
    <path d="M27,39.5 C27,40.881 25.881,42 24.5,42 C23.119,42 22,40.881 22,39.5 C22,38.119 23.119,37 24.5,37 C25.881,37 27,38.119 27,39.5 z" fill="#395E53"/>
    <path d="M38,47.5 C38,48.881 36.881,50 35.5,50 C34.119,50 33,48.881 33,47.5 C33,46.119 34.119,45 35.5,45 C36.881,45 38,46.119 38,47.5 z" fill="#5B502F"/>
    <path d="M49,39.5 C49,40.328 48.328,41 47.5,41 C46.672,41 46,40.328 46,39.5 C46,38.672 46.672,38 47.5,38 C48.328,38 49,38.672 49,39.5 z" fill="#FFFFFF"/>
    <path d="M37,47.5 C37,48.328 36.328,49 35.5,49 C34.672,49 34,48.328 34,47.5 C34,46.672 34.672,46 35.5,46 C36.328,46 37,46.672 37,47.5 z" fill="#FFFFFF"/>
    <path d="M26,39.5 C26,40.328 25.328,41 24.5,41 C23.672,41 23,40.328 23,39.5 C23,38.672 23.672,38 24.5,38 C25.328,38 26,38.672 26,39.5 z" fill="#FFFFFF"/>
    <path d="M14,47.5 C14,48.328 13.328,49 12.5,49 C11.672,49 11,48.328 11,47.5 C11,46.672 11.672,46 12.5,46 C13.328,46 14,46.672 14,47.5 z" fill="#FFFFFF"/>
  </g>
  <path d="M41.884,18.834 C41.884,20.169 40.802,21.251 39.467,21.251 C38.132,21.251 37.05,20.169 37.05,18.834 C37.05,17.499 38.132,16.417 39.467,16.417 C40.802,16.417 41.884,17.499 41.884,18.834 z M39.822,30.742 C39.721,30.549 39.486,30.47 39.29,30.564 C38.187,31.24 36.839,31.388 35.616,30.967 L25.416,25.859 L29.799,23.668 L29.799,18.834 L32.216,20.043 L32.216,24.876 L34.633,26.085 L37.05,24.876 L34.633,23.668 L34.633,16.417 L29.799,14 L27.382,15.209 L27.382,22.46 L22.999,24.651 L18.697,22.508 C18.497,22.41 18.255,22.493 18.157,22.693 C18.059,22.893 18.142,23.135 18.343,23.233 L35.262,31.692 C35.77,31.91 36.32,32.014 36.873,31.999 C37.839,31.982 38.789,31.739 39.644,31.29 C39.843,31.19 39.925,30.949 39.826,30.749 C39.824,30.747 39.823,30.744 39.822,30.742 z" fill="currentColor" id="route-piste-stroke"/>
</svg>