<?xml version="1.0" encoding="UTF-8"?>
<!DOCTYPE svg PUBLIC "-//W3C//DTD SVG 1.1//EN" "http://www.w3.org/Graphics/SVG/1.1/DTD/svg11.dtd">
<svg version="1.1" xmlns="http://www.w3.org/2000/svg" xmlns:xlink="http://www.w3.org/1999/xlink" x="0" y="0" width="60" height="60" viewBox="0 0 60 60">
  <g>
    <path d="M35.969,47.469 L33.031,51.531 L22.031,43.531 L24.969,39.469 z" fill="#46682F"/>
    <path d="M33.125,47.406 L35.875,51.594 L47.875,43.594 L45.125,39.406 z" fill="#70372F"/>
    <path d="M10.125,47.419 L12.875,51.575 L24.875,43.575 L22.125,39.419 z" fill="#2C5476"/>
    <path d="M35.375,48.281 L33.625,50.719 L22.625,42.719 L24.375,40.281 z" fill="#8CD05F"/>
    <path d="M33.656,48.25 L35.344,50.75 L47.344,42.75 L45.656,40.25 z" fill="#E06D5F"/>
    <path d="M10.656,48.263 L12.344,50.763 L24.344,42.763 L22.656,40.263 z" fill="#58A9ED"/>
    <path d="M49,41.5 C49,42.881 47.881,44 46.5,44 C45.119,44 44,42.881 44,41.5 C44,40.119 45.119,39 46.5,39 C47.881,39 49,40.119 49,41.5 z" fill="#70372F"/>
    <path d="M14,49.5 C14,50.881 12.881,52 11.5,52 C10.119,52 9,50.881 9,49.5 C9,48.119 10.119,47 11.5,47 C12.881,47 14,48.119 14,49.5 z" fill="#2C5476"/>
    <path d="M26,41.5 C26,42.881 24.881,44 23.5,44 C22.119,44 21,42.881 21,41.5 C21,40.119 22.119,39 23.5,39 C24.881,39 26,40.119 26,41.5 z" fill="#395E53"/>
    <path d="M37,49.5 C37,50.881 35.881,52 34.5,52 C33.119,52 32,50.881 32,49.5 C32,48.119 33.119,47 34.5,47 C35.881,47 37,48.119 37,49.5 z" fill="#5B502F"/>
    <path d="M48,41.5 C48,42.328 47.328,43 46.5,43 C45.672,43 45,42.328 45,41.5 C45,40.672 45.672,40 46.5,40 C47.328,40 48,40.672 48,41.5 z" fill="#FFFFFF"/>
    <path d="M36,49.5 C36,50.328 35.328,51 34.5,51 C33.672,51 33,50.328 33,49.5 C33,48.672 33.672,48 34.5,48 C35.328,48 36,48.672 36,49.5 z" fill="#FFFFFF"/>
    <path d="M25,41.5 C25,42.328 24.328,43 23.5,43 C22.672,43 22,42.328 22,41.5 C22,40.672 22.672,40 23.5,40 C24.328,40 25,40.672 25,41.5 z" fill="#FFFFFF"/>
    <path d="M13,49.5 C13,50.328 12.328,51 11.5,51 C10.672,51 10,50.328 10,49.5 C10,48.672 10.672,48 11.5,48 C12.328,48 13,48.672 13,49.5 z" fill="#FFFFFF"/>
  </g>
  <g>
    <path d="M34.031,34 L35,36 L36,37 L37.5,36 L36.531,34 z" fill="#989898"/>
    <path d="M23.5,34 L22.531,36 L21.531,37 L20.031,36 L21,34 z" fill="#989898"/>
    <path d="M25,11 L20,17 L20,31 L22,33 L36,33 L38,31 L38,17 L33,11 L25,11 z M25,12 L33,12 L33,14 L25,14 L25,12 z M23,17 L25,17 L33,17 L35,17 L36,18 L36,22 L33,22 L25,22 L22,22 L22,18 L23,17 z M22,27 L25,27 L27,29 L27,30 L23,30 L22,29 L22,27 z M33,27 L36,27 L36,29 L35,30 L31,30 L31,29 L33,27 z" fill="#989898"/>
    <path d="M24,7 L24,8 L28,8 L28,10 L30,10 L30,8 L34,8 L34,7 z" fill="#B5B5B5"/>
  </g>
</svg>