<?xml version="1.0" encoding="UTF-8"?>
<!DOCTYPE svg PUBLIC "-//W3C//DTD SVG 1.1//EN" "http://www.w3.org/Graphics/SVG/1.1/DTD/svg11.dtd">
<svg version="1.1" xmlns="http://www.w3.org/2000/svg" xmlns:xlink="http://www.w3.org/1999/xlink" x="0" y="0" width="60" height="60" viewBox="0 0 60 60">
  <g>
    <path d="M36.969,45.469 L34.031,49.531 L23.031,41.531 L25.969,37.469 z" fill="#46682F"/>
    <path d="M34.125,45.406 L36.875,49.594 L48.875,41.594 L46.125,37.406 z" fill="#70372F"/>
    <path d="M11.125,45.419 L13.875,49.575 L25.875,41.575 L23.125,37.419 z" fill="#2C5476"/>
    <path d="M36.375,46.281 L34.625,48.719 L23.625,40.719 L25.375,38.281 z" fill="#8CD05F"/>
    <path d="M34.656,46.25 L36.344,48.75 L48.344,40.75 L46.656,38.25 z" fill="#E06D5F"/>
    <path d="M11.656,46.263 L13.344,48.763 L25.344,40.763 L23.656,38.263 z" fill="#58A9ED"/>
    <path d="M50,39.5 C50,40.881 48.881,42 47.5,42 C46.119,42 45,40.881 45,39.5 C45,38.119 46.119,37 47.5,37 C48.881,37 50,38.119 50,39.5 z" fill="#70372F"/>
    <path d="M15,47.5 C15,48.881 13.881,50 12.5,50 C11.119,50 10,48.881 10,47.5 C10,46.119 11.119,45 12.5,45 C13.881,45 15,46.119 15,47.5 z" fill="#2C5476"/>
    <path d="M27,39.5 C27,40.881 25.881,42 24.5,42 C23.119,42 22,40.881 22,39.5 C22,38.119 23.119,37 24.5,37 C25.881,37 27,38.119 27,39.5 z" fill="#395E53"/>
    <path d="M38,47.5 C38,48.881 36.881,50 35.5,50 C34.119,50 33,48.881 33,47.5 C33,46.119 34.119,45 35.5,45 C36.881,45 38,46.119 38,47.5 z" fill="#5B502F"/>
    <path d="M49,39.5 C49,40.328 48.328,41 47.5,41 C46.672,41 46,40.328 46,39.5 C46,38.672 46.672,38 47.5,38 C48.328,38 49,38.672 49,39.5 z" fill="#FFFFFF"/>
    <path d="M37,47.5 C37,48.328 36.328,49 35.5,49 C34.672,49 34,48.328 34,47.5 C34,46.672 34.672,46 35.5,46 C36.328,46 37,46.672 37,47.5 z" fill="#FFFFFF"/>
    <path d="M26,39.5 C26,40.328 25.328,41 24.5,41 C23.672,41 23,40.328 23,39.5 C23,38.672 23.672,38 24.5,38 C25.328,38 26,38.672 26,39.5 z" fill="#FFFFFF"/>
    <path d="M14,47.5 C14,48.328 13.328,49 12.5,49 C11.672,49 11,48.328 11,47.5 C11,46.672 11.672,46 12.5,46 C13.328,46 14,46.672 14,47.5 z" fill="#FFFFFF"/>
  </g>
  <path d="M18.007,23.759 C17.793,24.559 17.187,25.092 16.653,24.949 C16.12,24.806 15.861,24.041 16.075,23.241 C16.29,22.441 16.896,21.908 17.43,22.051 C17.963,22.194 18.222,22.959 18.007,23.759 z M19.84,13.75 C20.393,12.793 20.259,11.682 19.541,11.268 C18.824,10.854 17.795,11.293 17.242,12.25 C16.69,13.207 16.824,14.318 17.541,14.732 C18.259,15.146 19.288,14.707 19.84,13.75 z M41.464,17.708 C41.249,16.908 41.508,16.143 42.041,16 C42.575,15.857 43.181,16.39 43.396,17.19 C43.61,17.99 43.351,18.755 42.818,18.898 C42.284,19.041 41.678,18.508 41.464,17.708 z M44.34,28.75 C43.788,27.793 43.922,26.682 44.639,26.268 C45.357,25.854 46.386,26.293 46.938,27.25 C47.491,28.207 47.357,29.318 46.639,29.732 C45.922,30.146 44.893,29.707 44.34,28.75 z" fill="currentColor" id="route-water-stroke2" opacity="0.5"/>
  <path d="M16.803,32 C16.803,32 16.267,30.154 16.458,29.25 C16.679,28.203 18.113,26.5 18.113,26.5 C18.113,26.5 19.546,24.797 19.767,23.75 C19.959,22.846 19.422,21 19.422,21 C19.422,21 18.886,19.154 19.077,18.25 C19.298,17.203 20.732,15.5 20.732,15.5 C20.732,15.5 22.165,13.797 22.386,12.75 C22.578,11.846 22.041,10 22.041,10 L38.541,10 C38.541,10 39.975,11.703 40.196,12.75 C40.387,13.654 39.851,15.5 39.851,15.5 C39.851,15.5 39.314,17.346 39.506,18.25 C39.727,19.297 41.16,21 41.16,21 C41.16,21 42.594,22.703 42.815,23.75 C43.006,24.654 42.47,26.5 42.47,26.5 C42.47,26.5 41.933,28.346 42.125,29.25 C42.346,30.297 43.779,32 43.779,32 z" fill="currentColor" id="route-water-stroke1"/>
</svg>