<?xml version="1.0" encoding="UTF-8"?>
<!DOCTYPE svg PUBLIC "-//W3C//DTD SVG 1.1//EN" "http://www.w3.org/Graphics/SVG/1.1/DTD/svg11.dtd">
<svg version="1.1" xmlns="http://www.w3.org/2000/svg" xmlns:xlink="http://www.w3.org/1999/xlink" x="0" y="0" width="60" height="60" viewBox="0 0 60 60">
    <g>
      <path d="M36.969,45.469 L34.031,49.531 L23.031,41.531 L25.969,37.469 z" fill="#46682F"/>
      <path d="M34.125,45.406 L36.875,49.594 L48.875,41.594 L46.125,37.406 z" fill="#70372F"/>
      <path d="M11.125,45.419 L13.875,49.575 L25.875,41.575 L23.125,37.419 z" fill="#2C5476"/>
      <path d="M36.375,46.281 L34.625,48.719 L23.625,40.719 L25.375,38.281 z" fill="#8CD05F"/>
      <path d="M34.656,46.25 L36.344,48.75 L48.344,40.75 L46.656,38.25 z" fill="#E06D5F"/>
      <path d="M11.656,46.263 L13.344,48.763 L25.344,40.763 L23.656,38.263 z" fill="#58A9ED"/>
      <path d="M50,39.5 C50,40.881 48.881,42 47.5,42 C46.119,42 45,40.881 45,39.5 C45,38.119 46.119,37 47.5,37 C48.881,37 50,38.119 50,39.5 z" fill="#70372F"/>
      <path d="M15,47.5 C15,48.881 13.881,50 12.5,50 C11.119,50 10,48.881 10,47.5 C10,46.119 11.119,45 12.5,45 C13.881,45 15,46.119 15,47.5 z" fill="#2C5476"/>
      <path d="M27,39.5 C27,40.881 25.881,42 24.5,42 C23.119,42 22,40.881 22,39.5 C22,38.119 23.119,37 24.5,37 C25.881,37 27,38.119 27,39.5 z" fill="#395E53"/>
      <path d="M38,47.5 C38,48.881 36.881,50 35.5,50 C34.119,50 33,48.881 33,47.5 C33,46.119 34.119,45 35.5,45 C36.881,45 38,46.119 38,47.5 z" fill="#5B502F"/>
      <path d="M49,39.5 C49,40.328 48.328,41 47.5,41 C46.672,41 46,40.328 46,39.5 C46,38.672 46.672,38 47.5,38 C48.328,38 49,38.672 49,39.5 z" fill="#FFFFFF"/>
      <path d="M37,47.5 C37,48.328 36.328,49 35.5,49 C34.672,49 34,48.328 34,47.5 C34,46.672 34.672,46 35.5,46 C36.328,46 37,46.672 37,47.5 z" fill="#FFFFFF"/>
      <path d="M26,39.5 C26,40.328 25.328,41 24.5,41 C23.672,41 23,40.328 23,39.5 C23,38.672 23.672,38 24.5,38 C25.328,38 26,38.672 26,39.5 z" fill="#FFFFFF"/>
      <path d="M14,47.5 C14,48.328 13.328,49 12.5,49 C11.672,49 11,48.328 11,47.5 C11,46.672 11.672,46 12.5,46 C13.328,46 14,46.672 14,47.5 z" fill="#FFFFFF"/>
    </g>
    <path d="M23.5,11 L22,12 L21.531,14 L18.25,14 C17.696,14 17.384,14.463 17.25,15 L17,16 C16.866,16.537 17.446,17 18,17 L42,17 C42.554,17 43.134,16.537 43,16 L42.75,15 C42.616,14.463 42.304,14 41.75,14 L38.969,14 L38.5,12 L37,11 L36,12 L36.469,14 L24.031,14 L24.5,12 L23.5,11 z M21.5,15 C21.776,15 22,15.224 22,15.5 C22,15.776 21.776,16 21.5,16 C21.224,16 21,15.776 21,15.5 C21,15.224 21.224,15 21.5,15 z M38.5,15 C38.776,15 39,15.224 39,15.5 C39,15.776 38.776,16 38.5,16 C38.224,16 38,15.776 38,15.5 C38,15.224 38.224,15 38.5,15 z M20.562,18 L20.094,20 L17.25,20 C16.696,20 16.384,20.463 16.25,21 L16,22 C15.866,22.537 16.446,23 17,23 L43,23 C43.554,23 44.134,22.537 44,22 L43.75,21 C43.616,20.463 43.304,20 42.75,20 L40.406,20 L39.938,18 L37.438,18 L37.906,20 L22.594,20 L23.062,18 L20.562,18 z M20.5,21 C20.776,21 21,21.224 21,21.5 C21,21.776 20.776,22 20.5,22 C20.224,22 20,21.776 20,21.5 C20,21.224 20.224,21 20.5,21 z M39.5,21 C39.776,21 40,21.224 40,21.5 C40,21.776 39.776,22 39.5,22 C39.224,22 39,21.776 39,21.5 C39,21.224 39.224,21 39.5,21 z M19.156,24 L18.688,26 L16.25,26 C15.696,26 15.384,26.463 15.25,27 L15,28 C14.866,28.537 15.446,29 16,29 L44,29 C44.554,29 45.134,28.537 45,28 L44.75,27 C44.616,26.463 44.304,26 43.75,26 L41.812,26 L41.344,24 L38.844,24 L39.312,26 L21.188,26 L21.656,24 L19.156,24 z M19.5,27 C19.776,27 20,27.224 20,27.5 C20,27.776 19.776,28 19.5,28 C19.224,28 19,27.776 19,27.5 C19,27.224 19.224,27 19.5,27 z M40.5,27 C40.776,27 41,27.224 41,27.5 C41,27.776 40.776,28 40.5,28 C40.224,28 40,27.776 40,27.5 C40,27.224 40.224,27 40.5,27 z M17.719,30 L17,33 L18.5,34 L19.5,33 L20.219,30 L17.719,30 z M40.281,30 L41,33 L42,34 L43.5,33 L42.781,30 L40.281,30 z" fill="#989898"/>
</svg>
