<?xml version="1.0" encoding="UTF-8"?>
<!DOCTYPE svg PUBLIC "-//W3C//DTD SVG 1.1//EN" "http://www.w3.org/Graphics/SVG/1.1/DTD/svg11.dtd">
<svg version="1.1" xmlns="http://www.w3.org/2000/svg" xmlns:xlink="http://www.w3.org/1999/xlink" x="0" y="0" width="60" height="60" viewBox="0 0 60 60">
  <g>
    <path d="M36.969,45.469 L34.031,49.531 L23.031,41.531 L25.969,37.469 z" fill="#46682F"/>
    <path d="M34.125,45.406 L36.875,49.594 L48.875,41.594 L46.125,37.406 z" fill="#70372F"/>
    <path d="M11.125,45.419 L13.875,49.575 L25.875,41.575 L23.125,37.419 z" fill="#2C5476"/>
    <path d="M36.375,46.281 L34.625,48.719 L23.625,40.719 L25.375,38.281 z" fill="#8CD05F"/>
    <path d="M34.656,46.25 L36.344,48.75 L48.344,40.75 L46.656,38.25 z" fill="#E06D5F"/>
    <path d="M11.656,46.263 L13.344,48.763 L25.344,40.763 L23.656,38.263 z" fill="#58A9ED"/>
    <path d="M50,39.5 C50,40.881 48.881,42 47.5,42 C46.119,42 45,40.881 45,39.5 C45,38.119 46.119,37 47.5,37 C48.881,37 50,38.119 50,39.5 z" fill="#70372F"/>
    <path d="M15,47.5 C15,48.881 13.881,50 12.5,50 C11.119,50 10,48.881 10,47.5 C10,46.119 11.119,45 12.5,45 C13.881,45 15,46.119 15,47.5 z" fill="#2C5476"/>
    <path d="M27,39.5 C27,40.881 25.881,42 24.5,42 C23.119,42 22,40.881 22,39.5 C22,38.119 23.119,37 24.5,37 C25.881,37 27,38.119 27,39.5 z" fill="#395E53"/>
    <path d="M38,47.5 C38,48.881 36.881,50 35.5,50 C34.119,50 33,48.881 33,47.5 C33,46.119 34.119,45 35.5,45 C36.881,45 38,46.119 38,47.5 z" fill="#5B502F"/>
    <path d="M49,39.5 C49,40.328 48.328,41 47.5,41 C46.672,41 46,40.328 46,39.5 C46,38.672 46.672,38 47.5,38 C48.328,38 49,38.672 49,39.5 z" fill="#FFFFFF"/>
    <path d="M37,47.5 C37,48.328 36.328,49 35.5,49 C34.672,49 34,48.328 34,47.5 C34,46.672 34.672,46 35.5,46 C36.328,46 37,46.672 37,47.5 z" fill="#FFFFFF"/>
    <path d="M26,39.5 C26,40.328 25.328,41 24.5,41 C23.672,41 23,40.328 23,39.5 C23,38.672 23.672,38 24.5,38 C25.328,38 26,38.672 26,39.5 z" fill="#FFFFFF"/>
    <path d="M14,47.5 C14,48.328 13.328,49 12.5,49 C11.672,49 11,48.328 11,47.5 C11,46.672 11.672,46 12.5,46 C13.328,46 14,46.672 14,47.5 z" fill="#FFFFFF"/>
  </g>
  <g>
    <path d="M15.5,13 C14.119,13 13,15.239 13,18 C13,20.761 14.119,23 15.5,23 L26,23 L26,13 L15.5,13 z M30,13 L30,23 L44.5,23 L44.5,13 L30,13 z" fill="#B5B5B5"/>
    <path d="M47,18 C47,20.761 45.881,23 44.5,23 C43.119,23 42,20.761 42,18 C42,15.239 43.119,13 44.5,13 C45.881,13 47,15.239 47,18 z" fill="#989898"/>
    <path d="M27,10 L27,24 L25,34 L27,34 L28.594,26 L33.406,26 L35,34 L37,34 L35,24 L34,24 L29,24 L29,10 L27,10 z M33,10 L33,12 L35,12 L35,10 L33,10 z M21,13 C20,13 18.5,15.239 18.5,18 C18.5,20.761 20,23 21,23 L23,23 C21.619,23 20,20.761 20,18 C20,15.239 21.619,13 23,13 L21,13 z M36,13 C35,13 33.5,15.239 33.5,18 C33.5,20.761 35,23 36,23 L38,23 C36.619,23 35,20.761 35,18 C35,15.239 36.619,13 38,13 L36,13 z M44.5,13 C43.119,13 42,15.239 42,18 C42,20.761 43.119,23 44.5,23 C45.881,23 47,20.761 47,18 C47,15.239 45.881,13 44.5,13 z" fill="#989898"/>
  </g>
</svg>