<?xml version="1.0" encoding="UTF-8"?>
<!DOCTYPE svg PUBLIC "-//W3C//DTD SVG 1.1//EN" "http://www.w3.org/Graphics/SVG/1.1/DTD/svg11.dtd">
<svg version="1.1" xmlns="http://www.w3.org/2000/svg" xmlns:xlink="http://www.w3.org/1999/xlink" x="0" y="0" width="60" height="60" viewBox="0 0 60 60">
  <g>
    <path d="M36.969,45.469 L34.031,49.531 L23.031,41.531 L25.969,37.469 z" fill="#46682F"/>
    <path d="M34.125,45.406 L36.875,49.594 L48.875,41.594 L46.125,37.406 z" fill="#70372F"/>
    <path d="M11.125,45.419 L13.875,49.575 L25.875,41.575 L23.125,37.419 z" fill="#2C5476"/>
    <path d="M36.375,46.281 L34.625,48.719 L23.625,40.719 L25.375,38.281 z" fill="#8CD05F"/>
    <path d="M34.656,46.25 L36.344,48.75 L48.344,40.75 L46.656,38.25 z" fill="#E06D5F"/>
    <path d="M11.656,46.263 L13.344,48.763 L25.344,40.763 L23.656,38.263 z" fill="#58A9ED"/>
    <path d="M50,39.5 C50,40.881 48.881,42 47.5,42 C46.119,42 45,40.881 45,39.5 C45,38.119 46.119,37 47.5,37 C48.881,37 50,38.119 50,39.5 z" fill="#70372F"/>
    <path d="M15,47.5 C15,48.881 13.881,50 12.5,50 C11.119,50 10,48.881 10,47.5 C10,46.119 11.119,45 12.5,45 C13.881,45 15,46.119 15,47.5 z" fill="#2C5476"/>
    <path d="M27,39.5 C27,40.881 25.881,42 24.5,42 C23.119,42 22,40.881 22,39.5 C22,38.119 23.119,37 24.5,37 C25.881,37 27,38.119 27,39.5 z" fill="#395E53"/>
    <path d="M38,47.5 C38,48.881 36.881,50 35.5,50 C34.119,50 33,48.881 33,47.5 C33,46.119 34.119,45 35.5,45 C36.881,45 38,46.119 38,47.5 z" fill="#5B502F"/>
    <path d="M49,39.5 C49,40.328 48.328,41 47.5,41 C46.672,41 46,40.328 46,39.5 C46,38.672 46.672,38 47.5,38 C48.328,38 49,38.672 49,39.5 z" fill="#FFFFFF"/>
    <path d="M37,47.5 C37,48.328 36.328,49 35.5,49 C34.672,49 34,48.328 34,47.5 C34,46.672 34.672,46 35.5,46 C36.328,46 37,46.672 37,47.5 z" fill="#FFFFFF"/>
    <path d="M26,39.5 C26,40.328 25.328,41 24.5,41 C23.672,41 23,40.328 23,39.5 C23,38.672 23.672,38 24.5,38 C25.328,38 26,38.672 26,39.5 z" fill="#FFFFFF"/>
    <path d="M14,47.5 C14,48.328 13.328,49 12.5,49 C11.672,49 11,48.328 11,47.5 C11,46.672 11.672,46 12.5,46 C13.328,46 14,46.672 14,47.5 z" fill="#FFFFFF"/>
  </g>
  <path d="M27.5,5 C26.119,5 25,6.119 25,7.5 C25,8.881 26.119,10 27.5,10 C28.881,10 30,8.881 30,7.5 C30,6.119 28.881,5 27.5,5 z M41,8.156 L38,12 L33.719,17 L33,17 L31,17 L30,16.656 L30,12 C30,11.446 29.554,11 29,11 L26,11 C25.446,11 25,11.446 25,12 L25,16 L23,16 L19,16 L15,20 L14,26 L16,26 L17,24 L18,21 L19,19.656 L19,23.156 L17,27.5 L17,33 C17,34 17,35 18.5,35 C20,35 20,34 20,33 L20,27.5 L21.156,25 L23,25 L23,27.5 L25.5,33.5 C25.751,34.435 26.405,35 27.25,35 C28.059,35 28.346,34.124 28,33 L26,27.5 L26,25.188 L29,26 L33,26 L33,33 C33,33.5 33,35 34.5,35 C36,35 36,33.5 36,33 L36,26 L41,17 L43,17 L45,18 L46,17 L46,15 L42,12 L41,12 z M25,17 L28,17 L31,20 L31,24 L30,25 L29,24 L29,21 L25,18 z" fill="currentColor" id="route-horse-stroke"/>
</svg>