<?xml version="1.0" encoding="UTF-8"?>
<!DOCTYPE svg PUBLIC "-//W3C//DTD SVG 1.1//EN" "http://www.w3.org/Graphics/SVG/1.1/DTD/svg11.dtd">
<svg version="1.1" xmlns="http://www.w3.org/2000/svg" xmlns:xlink="http://www.w3.org/1999/xlink" x="0" y="0" width="60" height="60" viewBox="0 0 60 60">
    <g>
      <path d="M36.969,45.469 L34.031,49.531 L23.031,41.531 L25.969,37.469 z" fill="#46682F"/>
      <path d="M34.125,45.406 L36.875,49.594 L48.875,41.594 L46.125,37.406 z" fill="#70372F"/>
      <path d="M11.125,45.419 L13.875,49.575 L25.875,41.575 L23.125,37.419 z" fill="#2C5476"/>
      <path d="M36.375,46.281 L34.625,48.719 L23.625,40.719 L25.375,38.281 z" fill="#8CD05F"/>
      <path d="M34.656,46.25 L36.344,48.75 L48.344,40.75 L46.656,38.25 z" fill="#E06D5F"/>
      <path d="M11.656,46.263 L13.344,48.763 L25.344,40.763 L23.656,38.263 z" fill="#58A9ED"/>
      <path d="M50,39.5 C50,40.881 48.881,42 47.5,42 C46.119,42 45,40.881 45,39.5 C45,38.119 46.119,37 47.5,37 C48.881,37 50,38.119 50,39.5 z" fill="#70372F"/>
      <path d="M15,47.5 C15,48.881 13.881,50 12.5,50 C11.119,50 10,48.881 10,47.5 C10,46.119 11.119,45 12.5,45 C13.881,45 15,46.119 15,47.5 z" fill="#2C5476"/>
      <path d="M27,39.5 C27,40.881 25.881,42 24.5,42 C23.119,42 22,40.881 22,39.5 C22,38.119 23.119,37 24.5,37 C25.881,37 27,38.119 27,39.5 z" fill="#395E53"/>
      <path d="M38,47.5 C38,48.881 36.881,50 35.5,50 C34.119,50 33,48.881 33,47.5 C33,46.119 34.119,45 35.5,45 C36.881,45 38,46.119 38,47.5 z" fill="#5B502F"/>
      <path d="M49,39.5 C49,40.328 48.328,41 47.5,41 C46.672,41 46,40.328 46,39.5 C46,38.672 46.672,38 47.5,38 C48.328,38 49,38.672 49,39.5 z" fill="#FFFFFF"/>
      <path d="M37,47.5 C37,48.328 36.328,49 35.5,49 C34.672,49 34,48.328 34,47.5 C34,46.672 34.672,46 35.5,46 C36.328,46 37,46.672 37,47.5 z" fill="#FFFFFF"/>
      <path d="M26,39.5 C26,40.328 25.328,41 24.5,41 C23.672,41 23,40.328 23,39.5 C23,38.672 23.672,38 24.5,38 C25.328,38 26,38.672 26,39.5 z" fill="#FFFFFF"/>
      <path d="M14,47.5 C14,48.328 13.328,49 12.5,49 C11.672,49 11,48.328 11,47.5 C11,46.672 11.672,46 12.5,46 C13.328,46 14,46.672 14,47.5 z" fill="#FFFFFF"/>
    </g>
    <path d="M25.666,26.974 C27.013,26.992 28.315,27.464 29.361,28.313 L29.88,28.772 L29.98,28.772 L30.599,28.213 C32.56,26.592 35.351,26.446 37.47,27.853 L41.984,18.985 L38.988,16.988 L38.988,9.898 C38.895,8.3 37.592,7.04 35.992,7.001 L34.993,7.001 C35.062,5.967 34.278,5.073 33.244,5.004 C33.161,4.999 33.078,4.999 32.996,5.004 L27.004,5.004 C25.969,4.936 25.075,5.719 25.007,6.754 C25.001,6.836 25.001,6.919 25.007,7.001 L24.008,7.001 C22.408,7.04 21.105,8.3 21.012,9.898 L21.012,16.988 L18.016,18.985 L22.51,28.033 C23.438,27.382 24.534,27.014 25.666,26.974 z M23.009,9.898 C23.03,9.379 23.467,8.977 23.985,8.998 C23.993,8.998 24.001,8.998 24.008,8.999 L35.992,8.999 C36.509,8.965 36.956,9.356 36.991,9.873 C36.993,9.915 36.993,9.956 36.991,9.997 L36.991,15.989 L30,11.995 L23.009,15.889 C23.009,15.889 23.009,9.898 23.009,9.898 z M42.982,30.969 L42.982,32.966 C42.458,33.005 41.97,33.249 41.624,33.645 C41.082,34.221 40.39,34.636 39.627,34.844 C38.399,35.206 37.071,34.929 36.092,34.105 L35.313,33.406 C34.705,32.801 33.724,32.801 33.116,33.406 C32.836,33.645 32.577,33.905 32.277,34.145 C30.813,35.314 28.719,35.255 27.324,34.005 L26.545,33.306 C25.973,32.806 25.119,32.806 24.547,33.306 C24.168,33.606 23.828,33.945 23.449,34.245 C22.042,35.286 20.107,35.237 18.755,34.125 L18.136,33.586 C17.847,33.255 17.451,33.035 17.018,32.966 L17.018,30.969 C17.534,30.905 18.057,31.003 18.516,31.249 C19.071,31.593 19.599,31.98 20.093,32.407 C20.503,32.854 21.121,33.044 21.711,32.906 C21.936,32.84 22.146,32.731 22.33,32.587 C22.65,32.347 22.91,32.068 23.229,31.808 C24.648,30.632 26.703,30.632 28.123,31.808 C28.442,32.068 28.742,32.367 29.061,32.627 C29.633,33.127 30.487,33.127 31.059,32.627 C31.378,32.367 31.678,32.068 31.997,31.808 C33.42,30.621 35.488,30.621 36.911,31.808 C37.21,32.068 37.49,32.347 37.789,32.587 C38.362,33.087 39.215,33.087 39.787,32.587 L40.726,31.768 C41.364,31.25 42.161,30.968 42.982,30.969 z" fill="#000000" id="route-ferry-stroke"/>
</svg>
