<?xml version="1.0" encoding="UTF-8"?>
<!DOCTYPE svg PUBLIC "-//W3C//DTD SVG 1.1//EN" "http://www.w3.org/Graphics/SVG/1.1/DTD/svg11.dtd">
<svg version="1.1" xmlns="http://www.w3.org/2000/svg" xmlns:xlink="http://www.w3.org/1999/xlink" x="0" y="0" width="60" height="60" viewBox="0 0 60 60">
  <path d="M49.5,39 C50.881,39 52,40.119 52,41.5 C52,42.881 50.881,44 49.5,44 C48.259,43.944 47.613,43.339 47.154,42.25 L12.846,42.25 C12.509,43.364 11.607,43.888 10.5,44 C9.119,44 8,42.881 8,41.5 C8,40.119 9.119,39 10.5,39 C11.741,39.056 12.387,39.661 12.846,40.75 L47.154,40.75 C47.491,39.636 48.393,39.111 49.5,39 z" fill="currentColor" id="waterway-stream-stroke1"/>
  <path d="M22.762,36 C22.762,36 22.226,34.154 22.417,33.25 C22.638,32.203 24.071,30.5 24.071,30.5 C24.071,30.5 25.505,28.797 25.726,27.75 C25.917,26.846 25.381,25 25.381,25 C25.381,25 24.845,23.154 25.036,22.25 C25.257,21.203 26.691,19.5 26.691,19.5 C26.691,19.5 28.124,17.797 28.345,16.75 C28.536,15.846 28,14 28,14 L32.5,14 C32.5,14 33.933,15.703 34.155,16.75 C34.346,17.654 33.81,19.5 33.81,19.5 C33.81,19.5 33.273,21.346 33.464,22.25 C33.686,23.297 35.119,25 35.119,25 C35.119,25 36.553,26.703 36.774,27.75 C36.965,28.654 36.429,30.5 36.429,30.5 C36.429,30.5 35.892,32.346 36.083,33.25 C36.305,34.297 37.738,36 37.738,36 z" fill="currentColor" id="waterway-stream-stroke2"/>
  <path d="M23.966,27.759 C23.752,28.559 23.145,29.092 22.612,28.949 C22.078,28.806 21.82,28.041 22.034,27.241 C22.248,26.441 22.855,25.908 23.388,26.051 C23.922,26.194 24.18,26.959 23.966,27.759 z M25.799,17.75 C26.351,16.793 26.217,15.682 25.5,15.268 C24.783,14.854 23.753,15.293 23.201,16.25 C22.649,17.207 22.783,18.318 23.5,18.732 C24.217,19.146 25.247,18.707 25.799,17.75 z M35.422,21.708 C35.208,20.908 35.467,20.143 36,20 C36.534,19.857 37.14,20.39 37.354,21.19 C37.569,21.99 37.31,22.755 36.777,22.898 C36.243,23.041 35.637,22.508 35.422,21.708 z M38.299,32.75 C37.747,31.793 37.881,30.682 38.598,30.268 C39.316,29.854 40.345,30.293 40.897,31.25 C41.449,32.207 41.316,33.318 40.598,33.732 C39.881,34.146 38.851,33.707 38.299,32.75 z" fill="currentColor" id="waterway-stream-stroke3" opacity="0.5"/>
  <path d="M51,41.5 C51,42.328 50.328,43 49.5,43 C48.672,43 48,42.328 48,41.5 C48,40.672 48.672,40 49.5,40 C50.328,40 51,40.672 51,41.5 z" fill="#FFFFFF"/>
  <path d="M12,41.5 C12,42.328 11.328,43 10.5,43 C9.672,43 9,42.328 9,41.5 C9,40.672 9.672,40 10.5,40 C11.328,40 12,40.672 12,41.5 z" fill="#FFFFFF"/>
</svg>