<?xml version="1.0" encoding="UTF-8"?>
<!DOCTYPE svg PUBLIC "-//W3C//DTD SVG 1.1//EN" "http://www.w3.org/Graphics/SVG/1.1/DTD/svg11.dtd">
<svg version="1.1" xmlns="http://www.w3.org/2000/svg" xmlns:xlink="http://www.w3.org/1999/xlink" x="0" y="0" width="60" height="60" viewBox="0 0 60 60">
  <path d="M49.5,39 C50.881,39 52,40.119 52,41.5 C52,42.881 50.881,44 49.5,44 C48.259,43.944 47.613,43.339 47.154,42.25 L12.846,42.25 C12.509,43.364 11.607,43.888 10.5,44 C9.119,44 8,42.881 8,41.5 C8,40.119 9.119,39 10.5,39 C11.741,39.056 12.387,39.661 12.846,40.75 L47.154,40.75 C47.491,39.636 48.393,39.111 49.5,39 z" fill="currentColor" id="waterway-ditch-stroke1"/>
  <path d="M24.762,36 L29,14 L31.5,14 L35.738,36 z" fill="currentColor" id="waterway-ditch-stroke2"/>
  <path d="M26,14 L21.75,36 L23.75,36 L28,14 L26,14 z M32.5,14 L36.75,36 L38.75,36 L34.5,14 L32.5,14 z" fill="#B5B5B5"/>
  <path d="M51,41.5 C51,42.328 50.328,43 49.5,43 C48.672,43 48,42.328 48,41.5 C48,40.672 48.672,40 49.5,40 C50.328,40 51,40.672 51,41.5 z" fill="#FFFFFF"/>
  <path d="M12,41.5 C12,42.328 11.328,43 10.5,43 C9.672,43 9,42.328 9,41.5 C9,40.672 9.672,40 10.5,40 C11.328,40 12,40.672 12,41.5 z" fill="#FFFFFF"/>
</svg>