<?xml version="1.0" encoding="UTF-8"?>
<!DOCTYPE svg PUBLIC "-//W3C//DTD SVG 1.1//EN" "http://www.w3.org/Graphics/SVG/1.1/DTD/svg11.dtd">
<svg version="1.1" xmlns="http://www.w3.org/2000/svg" xmlns:xlink="http://www.w3.org/1999/xlink" x="0" y="0" width="60" height="60" viewBox="0 0 60 60">
    <path d="M49.5,39 C50.881,39 52,40.119 52,41.5 C52,42.881 50.881,44 49.5,44 C48.259,43.944 47.613,43.339 47.154,42.25 L12.846,42.25 C12.509,43.364 11.607,43.888 10.5,44 C9.119,44 8,42.881 8,41.5 C8,40.119 9.119,39 10.5,39 C11.741,39.056 12.387,39.661 12.846,40.75 L47.154,40.75 C47.491,39.636 48.393,39.111 49.5,39 z" fill="#000000" id="waterway-canal-stroke1"/>
    <path d="M22,14 C22,14 22.535,15.846 22.344,16.75 C22.122,17.797 20.688,19.5 20.688,19.5 C20.688,19.5 19.253,21.203 19.031,22.25 C18.84,23.154 19.375,25 19.375,25 C19.375,25 19.91,26.846 19.719,27.75 C19.497,28.797 18.063,30.5 18.063,30.5 C18.063,30.5 16.628,32.203 16.406,33.25 C16.215,34.154 16.75,36 16.75,36 L43.75,36 C43.75,36 42.315,34.297 42.094,33.25 C41.903,32.346 42.438,30.5 42.438,30.5 C42.438,30.5 42.972,28.654 42.781,27.75 C42.56,26.703 41.125,25 41.125,25 C41.125,25 39.69,23.297 39.469,22.25 C39.278,21.346 39.813,19.5 39.813,19.5 C39.813,19.5 40.347,17.654 40.156,16.75 C39.935,15.703 38.5,14 38.5,14 z M28,16 L32,16 L34,18 L36,30 L32,32 L28,32 L24,30 L26,18 z M32.2,24 L33,28 L27,28 L27.8,24 z M31.6,21 L32,23 L28,23 L28.4,21 z M31,18 L31.4,20 L28.6,20 L29,18 z" fill="#000000" id="waterway-canal-stroke2"/>
    <path d="M24,30 L36,30 L32,32 L28,32 z" fill="#000000" id="waterway-canal-stroke3" opacity="0.601"/>
    <path d="M51,41.5 C51,42.328 50.328,43 49.5,43 C48.672,43 48,42.328 48,41.5 C48,40.672 48.672,40 49.5,40 C50.328,40 51,40.672 51,41.5 z" fill="#FFFFFF"/>
    <path d="M12,41.5 C12,42.328 11.328,43 10.5,43 C9.672,43 9,42.328 9,41.5 C9,40.672 9.672,40 10.5,40 C11.328,40 12,40.672 12,41.5 z" fill="#FFFFFF"/>
</svg>
