<?xml version="1.0" encoding="UTF-8"?>
<!DOCTYPE svg PUBLIC "-//W3C//DTD SVG 1.1//EN" "http://www.w3.org/Graphics/SVG/1.1/DTD/svg11.dtd">
<svg version="1.1" xmlns="http://www.w3.org/2000/svg" xmlns:xlink="http://www.w3.org/1999/xlink" x="0" y="0" width="50" height="50" viewBox="5 0 50 50">
  <path d="M22,14 C22,14 22.535,15.846 22.344,16.75 C22.122,17.797 20.688,19.5 20.688,19.5 C20.688,19.5 19.253,21.203 19.031,22.25 C18.84,23.154 19.375,25 19.375,25 C19.375,25 19.91,26.846 19.719,27.75 C19.497,28.797 18.063,30.5 18.063,30.5 C18.063,30.5 16.628,32.203 16.406,33.25 C16.215,34.154 16.75,36 16.75,36 L43.75,36 C43.75,36 42.315,34.297 42.094,33.25 C41.903,32.346 42.438,30.5 42.438,30.5 C42.438,30.5 42.972,28.654 42.781,27.75 C42.56,26.703 41.125,25 41.125,25 C41.125,25 39.69,23.297 39.469,22.25 C39.278,21.346 39.813,19.5 39.813,19.5 C39.813,19.5 40.347,17.654 40.156,16.75 C39.935,15.703 38.5,14 38.5,14 z M28,16 L32,16 L34,18 L36,30 L32,32 L28,32 L24,30 L26,18 z M32.2,24 L33,28 L27,28 L27.8,24 z M31.6,21 L32,23 L28,23 L28.4,21 z M31,18 L31.4,20 L28.6,20 L29,18 z" fill="currentColor" id="waterway-canal-stroke2"/>
</svg>
