<?xml version="1.0" encoding="UTF-8"?>
<!DOCTYPE svg PUBLIC "-//W3C//DTD SVG 1.1//EN" "http://www.w3.org/Graphics/SVG/1.1/DTD/svg11.dtd">
<svg version="1.1" xmlns="http://www.w3.org/2000/svg" xmlns:xlink="http://www.w3.org/1999/xlink" x="0" y="0" width="50" height="50" viewBox="5 0 50 50">
  <path d="M16.762,36 C16.762,36 16.226,34.154 16.417,33.25 C16.638,32.203 18.071,30.5 18.071,30.5 C18.071,30.5 19.505,28.797 19.726,27.75 C19.917,26.846 19.381,25 19.381,25 C19.381,25 18.845,23.154 19.036,22.25 C19.257,21.203 20.691,19.5 20.691,19.5 C20.691,19.5 22.124,17.797 22.345,16.75 C22.536,15.846 22,14 22,14 L38.5,14 C38.5,14 39.933,15.703 40.155,16.75 C40.346,17.654 39.81,19.5 39.81,19.5 C39.81,19.5 39.273,21.346 39.464,22.25 C39.686,23.297 41.119,25 41.119,25 C41.119,25 42.553,26.703 42.774,27.75 C42.965,28.654 42.429,30.5 42.429,30.5 C42.429,30.5 41.892,32.346 42.083,33.25 C42.305,34.297 43.738,36 43.738,36 z" fill="currentColor" id="waterway-river-stroke2"/>
  <path d="M17.966,27.759 C17.752,28.559 17.145,29.092 16.612,28.949 C16.078,28.806 15.82,28.041 16.034,27.241 C16.248,26.441 16.855,25.908 17.388,26.051 C17.922,26.194 18.18,26.959 17.966,27.759 z M19.799,17.75 C20.351,16.793 20.217,15.682 19.5,15.268 C18.783,14.854 17.753,15.293 17.201,16.25 C16.649,17.207 16.783,18.318 17.5,18.732 C18.217,19.146 19.247,18.707 19.799,17.75 z M41.422,21.708 C41.208,20.908 41.467,20.143 42,20 C42.534,19.857 43.14,20.39 43.354,21.19 C43.569,21.99 43.31,22.755 42.777,22.898 C42.243,23.041 41.637,22.508 41.422,21.708 z M44.299,32.75 C43.747,31.793 43.881,30.682 44.598,30.268 C45.316,29.854 46.345,30.293 46.897,31.25 C47.449,32.207 47.316,33.318 46.598,33.732 C45.881,34.146 44.851,33.707 44.299,32.75 z" fill="currentColor" id="waterway-river-stroke3" opacity="0.5"/>
</svg>
