<?xml version="1.0" encoding="UTF-8" standalone="no"?>
<svg width="180px" height="180px" viewBox="0 0 180 180" version="1.1" xmlns="http://www.w3.org/2000/svg" xmlns:xlink="http://www.w3.org/1999/xlink" xmlns:sketch="http://www.bohemiancoding.com/sketch/ns">
    <!-- Generator: Sketch 3.4.4 (17249) - http://www.bohemiancoding.com/sketch -->
    <title>arrow-up</title>
    <desc>Created with Sketch.</desc>
    <defs></defs>
    <g id="Page-1" stroke="none" stroke-width="1" fill="none" fill-rule="evenodd" sketch:type="MSPage">
        <g id="arrow-up" sketch:type="MSArtboardGroup" fill="#F5DEB3">
            <g sketch:type="MSLayerGroup">
                <path d="M88.8843817,45.7378806 C88.2998853,45.9497916 87.7515692,46.2899299 87.2830853,46.7584138 L31.3633947,102.678104 C29.6460614,104.395438 29.6518363,107.170498 31.3670031,108.885664 L40.6867453,118.205407 C42.4003967,119.919058 45.1811313,119.922189 46.8943052,118.209015 L90.8009276,74.3023926 L134.45055,117.952015 C136.167883,119.669349 138.942943,119.663574 140.65811,117.948407 L149.977852,108.628665 C151.691504,106.915013 151.694635,104.134279 149.981461,102.421105 L94.0617701,46.5014141 C92.6573109,45.0969549 90.5454231,44.8449445 88.8843817,45.7378806 L88.8843817,45.7378806 Z" id="Arrow" sketch:type="MSShapeGroup"></path>
                <path d="M90,170.138812 C134.259444,170.138812 170.138812,134.259444 170.138812,90 C170.138812,45.7405562 134.259444,9.86118785 90,9.86118785 C45.7405562,9.86118785 9.86118785,45.7405562 9.86118785,90 C9.86118785,134.259444 45.7405562,170.138812 90,170.138812 L90,170.138812 L90,170.138812 Z M0,90 C0,40.2943725 40.2943725,0 90,0 C139.705627,0 180,40.2943725 180,90 C180,139.705627 139.705627,180 90,180 C40.2943725,180 0,139.705627 0,90 Z" id="Circle" sketch:type="MSShapeGroup"></path>
            </g>
        </g>
    </g>
</svg>