<?xml version="1.0" encoding="UTF-8"?>
<!DOCTYPE svg PUBLIC "-//W3C//DTD SVG 1.1//EN" "http://www.w3.org/Graphics/SVG/1.1/DTD/svg11.dtd">
<svg version="1.1" xmlns="http://www.w3.org/2000/svg" xmlns:xlink="http://www.w3.org/1999/xlink" x="0" y="0" width="32" height="32" viewBox="0 0 32 32">
    <path d="M0,16 C0,7.211 7.211,-0 16,0 C24.789,0 32,7.211 32,16 C32,24.789 24.789,32 16,32 C7.211,32 -0,24.789 0,16 z" fill="#000000" id="turn-no-u-shape1" opacity="0.5"/>
    <path d="M4,16 C4,9.373 9.373,4 16,4 C22.627,4 28,9.373 28,16 C28,22.627 22.627,28 16,28 C9.373,28 4,22.627 4,16 z" fill="#E06D5F" id="turn-no-u-shape2"/>
    <path d="M9.138,20.5 L14.138,15.5 L16.138,13.5 L20.138,9.5 L21.138,9.5 L22.138,10.5 L22.138,11.5 L18.138,15.5 L16.138,17.5 L11.138,22.5 L10.138,22.5 L9.138,21.5 L9.138,20.5 z M10.013,14 L11.013,12 L12.013,11 L14.013,10 L18.2,10 L15.419,12.781 L15.2,13 L14.013,13 L13.013,14 L13.013,15.188 L10.419,17.781 L10.013,17 L10.013,14 z M14.044,21 L16.825,18.219 L17.013,18 L18.607,16.438 L22.013,19.5 L17.013,24 L17.013,21 L14.044,21 z" fill="#000000" id="turn-no-u-shape3" opacity="0.5"/>
</svg>
