<?xml version="1.0" encoding="UTF-8"?>
<!DOCTYPE svg PUBLIC "-//W3C//DTD SVG 1.1//EN" "http://www.w3.org/Graphics/SVG/1.1/DTD/svg11.dtd">
<svg version="1.1" xmlns="http://www.w3.org/2000/svg" xmlns:xlink="http://www.w3.org/1999/xlink" x="0" y="0" width="44" height="24" viewBox="0 0 44 24">
    <path d="M44,12 C44,10 42.85,8.71 42,8 L33.581,0.969 C32.069,-0.311 29.578,-0.21 28.175,1.188 L27.175,2.188 C26.432,2.922 25.996,3.956 25.987,5 L21.612,5 C19.425,2.013 15.941,0 11.987,0 C5.407,0 -0,5.42 0,12 C-0,18.58 5.407,24 11.987,24 C15.956,24 19.458,22.007 21.643,19 L25.987,19 C25.987,20.055 26.425,21.102 27.175,21.844 L28.175,22.844 C29.578,24.241 32.069,24.342 33.581,23.062 L42,16 C42.921,15.228 44,14 44,12 z" fill="#000000" id="turn-yes-shape1" opacity="0.5"/>
    <path d="M40,12 L30.987,4 L29.987,5 L29.987,9 L19.393,9 C18.201,6.08 15.336,4 11.987,4 C7.569,4 4,7.582 4,12 C4,16.418 7.569,20 11.987,20 C15.351,20 18.242,17.94 19.425,15 L29.987,15 L29.987,19 L30.987,20 z" fill="#8CD05F" id="turn-yes-shape2"/>
    <path d="M14.997,12.015 C14.997,13.672 13.654,15.015 11.997,15.015 C10.34,15.015 8.997,13.672 8.997,12.015 C8.997,10.358 10.34,9.015 11.997,9.015 C13.654,9.015 14.997,10.358 14.997,12.015 z" fill="#000000" id="turn-yes-shape3" opacity="0.5"/>
</svg>
