<?xml version="1.0" encoding="utf-8"?>
<!-- Generator: Adobe Illustrator 23.0.3, SVG Export Plug-In . SVG Version: 6.00 Build 0)  -->
<svg version="1.1" id="Your_design" xmlns="http://www.w3.org/2000/svg" xmlns:xlink="http://www.w3.org/1999/xlink" x="0px"
	 y="0px" viewBox="0 0 1000 1000" style="enable-background:new 0 0 1000 1000;" xml:space="preserve">
<style type="text/css">
	.st0{fill:#67C2DB;}
	.st1{fill:#262222;}
	.st2{fill:#FFFFFF;stroke:#262222;stroke-width:15;stroke-linecap:round;stroke-miterlimit:10;}
	.st3{fill:#D8322A;}
</style>
<circle class="st0" cx="500" cy="500" r="500"/>
<g>
	<path class="st1" d="M538.9,402.6L439.2,3.7c-7.9,1-15.8,2.1-23.5,3.4l100.3,401.2L538.9,402.6z"/>
</g>
<line class="st2" x1="370.4" y1="490.4" x2="105.5" y2="462.2"/>
<line class="st2" x1="381.3" y1="535" x2="191.9" y2="516.2"/>
<line class="st2" x1="408.5" y1="579.5" x2="295.6" y2="568.3"/>
<ellipse class="st1" cx="594" cy="820.7" rx="83.4" ry="53.4"/>
<path class="st3" d="M529.8,379.1c-67.1,11.2-112.3,74.5-101.1,141.6c15.2,91,159,205.1,159,205.1s98.9-154.6,83.7-245.7
	C660.2,413.1,596.8,367.9,529.8,379.1z M557.3,543.8c-23.9,4-46.6-12.2-50.6-36.1s12.2-46.6,36.1-50.6c23.9-4,46.6,12.2,50.6,36.1
	C597.4,517.1,581.2,539.8,557.3,543.8z"/>
</svg>
