<?xml version="1.0" encoding="utf-8" ?>
<svg baseProfile="full" height="16" version="1.1" width="16" xmlns="http://www.w3.org/2000/svg" xmlns:ev="http://www.w3.org/2001/xml-events" xmlns:xlink="http://www.w3.org/1999/xlink"><defs /><path d="m 599.91406,401.00781 c -0.057,0.01 -0.11187,0.0298 -0.16211,0.0586 l -3.5,2 c -0.44348,0.2549 -0.26347,0.93243 0.24805,0.93359 h 7 c 0.51152,-10e-4 0.69153,-0.67869 0.24805,-0.93359 l -3.5,-2 c -0.10111,-0.0578 -0.21923,-0.0786 -0.33399,-0.0586 z M 597,405 v 8 h 6 v -8 z m -0.5,9 c -0.277,0 -0.5,0.21397 -0.5,0.48047 v 0.0391 c 0,0.2665 0.223,0.48047 0.5,0.48047 h 7 c 0.277,0 0.5,-0.21397 0.5,-0.48047 v -0.0391 C 604,414.21397 603.777,414 603.5,414 Z" fill="#000" transform="translate(8.0,8.0) translate(-600.0,-408.0)" /><path d="m 599.91406,401.00781 c -0.057,0.01 -0.11187,0.0298 -0.16211,0.0586 l -3.5,2 c -0.44348,0.2549 -0.26347,0.93243 0.24805,0.93359 h 7 c 0.51152,-10e-4 0.69153,-0.67869 0.24805,-0.93359 l -3.5,-2 c -0.10111,-0.0578 -0.21923,-0.0786 -0.33399,-0.0586 z M 597,405 v 8 h 6 v -8 z m -0.5,9 c -0.277,0 -0.5,0.21397 -0.5,0.48047 v 0.0391 c 0,0.2665 0.223,0.48047 0.5,0.48047 h 7 c 0.277,0 0.5,-0.21397 0.5,-0.48047 v -0.0391 C 604,414.21397 603.777,414 603.5,414 Z" fill="#000" transform="translate(8.0,8.0) translate(-600.0,-408.0)" /></svg>