<?xml version="1.0" encoding="utf-8" ?>
<svg baseProfile="full" height="16" version="1.1" width="16" xmlns="http://www.w3.org/2000/svg" xmlns:ev="http://www.w3.org/2001/xml-events" xmlns:xlink="http://www.w3.org/1999/xlink"><defs /><path d="m 389.5,402 c -0.27614,0 -0.5,0.22386 -0.5,0.5 0,0.27614 0.22386,0.5 0.5,0.5 h 0.5 v 1.17578 C 389.71309,404.06094 389.37683,404 389,404 c -0.66667,0 -1.2199,0.36598 -1.54102,0.84766 C 387.13787,405.32933 387,405.91667 387,406.5 v 2.5 c 0,1.66667 0.92969,2.50977 1.67969,3.13477 0.64671,0.53892 1.16,0.91684 1.28906,1.86523 H 389.5 c -0.27614,0 -0.5,0.22386 -0.5,0.5 0,0.27614 0.22386,0.5 0.5,0.5 h 4 c 0.27614,0 0.5,-0.22386 0.5,-0.5 0,-0.27614 -0.22386,-0.5 -0.5,-0.5 h -0.46875 c 0.12906,-0.94839 0.64235,-1.32632 1.28906,-1.86523 C 395.07031,411.50977 396,410.66667 396,409 v -2.5 c 0,-0.58333 -0.13787,-1.17067 -0.45898,-1.65234 C 395.2199,404.36598 394.66667,404 394,404 c -0.37683,0 -0.71309,0.0609 -1,0.17578 V 403 h 0.5 c 0.27614,0 0.5,-0.22386 0.5,-0.5 0,-0.27614 -0.22386,-0.5 -0.5,-0.5 h -1 -2 z m -0.5,3 c 0.41667,0 0.68089,0.10539 0.82422,0.21289 C 389.96755,405.32039 390,405.41667 390,405.5 v 1 c 0,0.0833 -0.0571,0.22505 -0.16602,0.33398 C 389.72505,406.94292 389.58333,407 389.5,407 c -0.52339,0 -1.04938,0.11243 -1.5,0.36719 V 406.5 c 0,-0.41667 0.11213,-0.82933 0.29102,-1.09766 C 388.4699,405.13402 388.66667,405 389,405 Z m 5,0 c 0.33333,0 0.5301,0.13402 0.70898,0.40234 C 394.88787,405.67067 395,406.08333 395,406.5 v 0.86719 C 394.54938,407.11243 394.02339,407 393.5,407 c -0.0833,0 -0.22505,-0.0571 -0.33398,-0.16602 C 393.05708,406.72505 393,406.58333 393,406.5 v -1 c 0,-0.0833 0.0324,-0.17961 0.17578,-0.28711 C 393.31911,405.10539 393.58333,405 394,405 Z" fill="#000" transform="translate(8.0,8.0) translate(-392.0,-408.0)" /><path d="m 389.5,402 c -0.27614,0 -0.5,0.22386 -0.5,0.5 0,0.27614 0.22386,0.5 0.5,0.5 h 0.5 v 1.17578 C 389.71309,404.06094 389.37683,404 389,404 c -0.66667,0 -1.2199,0.36598 -1.54102,0.84766 C 387.13787,405.32933 387,405.91667 387,406.5 v 2.5 c 0,1.66667 0.92969,2.50977 1.67969,3.13477 0.64671,0.53892 1.16,0.91684 1.28906,1.86523 H 389.5 c -0.27614,0 -0.5,0.22386 -0.5,0.5 0,0.27614 0.22386,0.5 0.5,0.5 h 4 c 0.27614,0 0.5,-0.22386 0.5,-0.5 0,-0.27614 -0.22386,-0.5 -0.5,-0.5 h -0.46875 c 0.12906,-0.94839 0.64235,-1.32632 1.28906,-1.86523 C 395.07031,411.50977 396,410.66667 396,409 v -2.5 c 0,-0.58333 -0.13787,-1.17067 -0.45898,-1.65234 C 395.2199,404.36598 394.66667,404 394,404 c -0.37683,0 -0.71309,0.0609 -1,0.17578 V 403 h 0.5 c 0.27614,0 0.5,-0.22386 0.5,-0.5 0,-0.27614 -0.22386,-0.5 -0.5,-0.5 h -1 -2 z m -0.5,3 c 0.41667,0 0.68089,0.10539 0.82422,0.21289 C 389.96755,405.32039 390,405.41667 390,405.5 v 1 c 0,0.0833 -0.0571,0.22505 -0.16602,0.33398 C 389.72505,406.94292 389.58333,407 389.5,407 c -0.52339,0 -1.04938,0.11243 -1.5,0.36719 V 406.5 c 0,-0.41667 0.11213,-0.82933 0.29102,-1.09766 C 388.4699,405.13402 388.66667,405 389,405 Z m 5,0 c 0.33333,0 0.5301,0.13402 0.70898,0.40234 C 394.88787,405.67067 395,406.08333 395,406.5 v 0.86719 C 394.54938,407.11243 394.02339,407 393.5,407 c -0.0833,0 -0.22505,-0.0571 -0.33398,-0.16602 C 393.05708,406.72505 393,406.58333 393,406.5 v -1 c 0,-0.0833 0.0324,-0.17961 0.17578,-0.28711 C 393.31911,405.10539 393.58333,405 394,405 Z" fill="#000" transform="translate(8.0,8.0) translate(-392.0,-408.0)" /></svg>