<?xml version="1.0" encoding="utf-8" ?>
<svg baseProfile="full" height="16" version="1.1" width="16" xmlns="http://www.w3.org/2000/svg" xmlns:ev="http://www.w3.org/2001/xml-events" xmlns:xlink="http://www.w3.org/1999/xlink"><defs /><path d="m 599.9375,433 c -0.24032,0.0303 -0.43938,0.25779 -0.4375,0.5 0,0.83333 -0.36577,1.37865 -1.125,1.8125 C 597.61577,435.74635 596.44444,436 595,436 h -0.5 c -0.277,0 -0.5,0.223 -0.5,0.5 0,0.277 0.223,0.5 0.5,0.5 h 0.84375 l -1.5625,5 H 593.5 c -0.26834,0 -0.5,0.223 -0.5,0.5 v 1 c 0,0.277 0.23166,0.5 0.5,0.5 h 1 c 0.26834,0 0.5,-0.223 0.5,-0.5 v -1 c 0,-0.17312 -0.09,-0.31657 -0.21875,-0.40625 L 596.375,437 h 1.03125 l -0.75,5 H 596.5 c -0.26834,0 -0.5,0.223 -0.5,0.5 v 1 c 0,0.277 0.23166,0.5 0.5,0.5 h 1 c 0.26834,0 0.5,-0.223 0.5,-0.5 v -1 c 0,-0.22714 -0.1435,-0.40741 -0.34375,-0.46875 L 598.4375,437 H 599 v 8 h -4.5 c -0.277,0 -0.5,0.223 -0.5,0.5 0,0.277 0.223,0.5 0.5,0.5 h 4.5 2 4.5 c 0.277,0 0.5,-0.223 0.5,-0.5 0,-0.277 -0.223,-0.5 -0.5,-0.5 H 601 v -8 h 0.5625 l 0.78125,5.03125 C 602.1435,442.09259 602,442.27286 602,442.5 v 1 c 0,0.277 0.23166,0.5 0.5,0.5 h 1 c 0.26834,0 0.5,-0.223 0.5,-0.5 v -1 c 0,-0.277 -0.23166,-0.5 -0.5,-0.5 h -0.15625 l -0.75,-5 h 1.03125 l 1.59375,5.09375 C 605.08995,442.18343 605,442.32688 605,442.5 v 1 c 0,0.277 0.23166,0.5 0.5,0.5 h 1 c 0.26834,0 0.5,-0.223 0.5,-0.5 v -1 c 0,-0.277 -0.23166,-0.5 -0.5,-0.5 h -0.28125 l -1.5625,-5 H 605.5 c 0.277,0 0.5,-0.223 0.5,-0.5 0,-0.277 -0.223,-0.5 -0.5,-0.5 H 605 c -1.44444,0 -2.61577,-0.25365 -3.375,-0.6875 -0.75923,-0.43385 -1.125,-0.97917 -1.125,-1.8125 0.002,-0.28398 -0.28073,-0.53548 -0.5625,-0.5 z" fill="#000" transform="translate(8.0,8.0) translate(-600.0,-440.0)" /><path d="m 599.9375,433 c -0.24032,0.0303 -0.43938,0.25779 -0.4375,0.5 0,0.83333 -0.36577,1.37865 -1.125,1.8125 C 597.61577,435.74635 596.44444,436 595,436 h -0.5 c -0.277,0 -0.5,0.223 -0.5,0.5 0,0.277 0.223,0.5 0.5,0.5 h 0.84375 l -1.5625,5 H 593.5 c -0.26834,0 -0.5,0.223 -0.5,0.5 v 1 c 0,0.277 0.23166,0.5 0.5,0.5 h 1 c 0.26834,0 0.5,-0.223 0.5,-0.5 v -1 c 0,-0.17312 -0.09,-0.31657 -0.21875,-0.40625 L 596.375,437 h 1.03125 l -0.75,5 H 596.5 c -0.26834,0 -0.5,0.223 -0.5,0.5 v 1 c 0,0.277 0.23166,0.5 0.5,0.5 h 1 c 0.26834,0 0.5,-0.223 0.5,-0.5 v -1 c 0,-0.22714 -0.1435,-0.40741 -0.34375,-0.46875 L 598.4375,437 H 599 v 8 h -4.5 c -0.277,0 -0.5,0.223 -0.5,0.5 0,0.277 0.223,0.5 0.5,0.5 h 4.5 2 4.5 c 0.277,0 0.5,-0.223 0.5,-0.5 0,-0.277 -0.223,-0.5 -0.5,-0.5 H 601 v -8 h 0.5625 l 0.78125,5.03125 C 602.1435,442.09259 602,442.27286 602,442.5 v 1 c 0,0.277 0.23166,0.5 0.5,0.5 h 1 c 0.26834,0 0.5,-0.223 0.5,-0.5 v -1 c 0,-0.277 -0.23166,-0.5 -0.5,-0.5 h -0.15625 l -0.75,-5 h 1.03125 l 1.59375,5.09375 C 605.08995,442.18343 605,442.32688 605,442.5 v 1 c 0,0.277 0.23166,0.5 0.5,0.5 h 1 c 0.26834,0 0.5,-0.223 0.5,-0.5 v -1 c 0,-0.277 -0.23166,-0.5 -0.5,-0.5 h -0.28125 l -1.5625,-5 H 605.5 c 0.277,0 0.5,-0.223 0.5,-0.5 0,-0.277 -0.223,-0.5 -0.5,-0.5 H 605 c -1.44444,0 -2.61577,-0.25365 -3.375,-0.6875 -0.75923,-0.43385 -1.125,-0.97917 -1.125,-1.8125 0.002,-0.28398 -0.28073,-0.53548 -0.5625,-0.5 z" fill="#000" transform="translate(8.0,8.0) translate(-600.0,-440.0)" /></svg>