<?xml version="1.0" encoding="utf-8" ?>
<svg baseProfile="full" height="16" version="1.1" width="16" xmlns="http://www.w3.org/2000/svg" xmlns:ev="http://www.w3.org/2001/xml-events" xmlns:xlink="http://www.w3.org/1999/xlink"><defs /><path d="m 584,401 c -1.10457,0 -2,0.89543 -2,2 0.002,0.71257 0.38289,1.37028 1,1.72656 V 406 h -1.5 c -0.277,0 -0.5,0.223 -0.5,0.5 0,0.277 0.223,0.5 0.5,0.5 h 1.5 v 5 c -2.5,0 -4,-0.5 -4,-3 h 0.5 c 0.44533,-1.7e-4 0.66831,-0.53852 0.35352,-0.85352 0,0 -0.069,-0.0629 -0.23633,-0.34179 -0.16733,-0.27888 -0.40312,-0.74452 -0.64258,-1.46289 -0.0681,-0.20422 -0.25932,-0.34191 -0.47461,-0.3418 -0.21529,-1.1e-4 -0.40648,0.13758 -0.47461,0.3418 -0.23946,0.71837 -0.47525,1.18401 -0.64258,1.46289 -0.16732,0.27887 -0.23633,0.34179 -0.23633,0.34179 -0.31479,0.315 -0.0918,0.85335 0.35352,0.85352 h 0.5 c 0,4 3,5 6,5 3,0 6,-1 6,-5 h 0.5 c 0.44533,-1.7e-4 0.66831,-0.53852 0.35352,-0.85352 0,0 -0.069,-0.0629 -0.23633,-0.34179 -0.16733,-0.27888 -0.40312,-0.74452 -0.64258,-1.46289 -0.0681,-0.20422 -0.25932,-0.34191 -0.47461,-0.3418 -0.21529,-1.1e-4 -0.40648,0.13758 -0.47461,0.3418 -0.23946,0.71837 -0.47525,1.18401 -0.64258,1.46289 -0.16732,0.27887 -0.23633,0.34179 -0.23633,0.34179 -0.31479,0.315 -0.0918,0.85335 0.35352,0.85352 h 0.5 c 0,2.5 -1.5,3 -4,3 v -5 h 1.5 c 0.277,0 0.5,-0.223 0.5,-0.5 0,-0.277 -0.223,-0.5 -0.5,-0.5 H 585 v -1.27344 c 0.61711,-0.35628 0.99804,-1.01399 1,-1.72656 0,-1.10457 -0.89543,-2 -2,-2 z m 0,1 c 0.55228,0 1,0.44772 1,1 0,0.55228 -0.44772,1 -1,1 -0.55228,0 -1,-0.44772 -1,-1 0,-0.55228 0.44772,-1 1,-1 z" fill="#000" transform="translate(8.0,8.0) translate(-584.0,-408.0)" /><path d="m 584,401 c -1.10457,0 -2,0.89543 -2,2 0.002,0.71257 0.38289,1.37028 1,1.72656 V 406 h -1.5 c -0.277,0 -0.5,0.223 -0.5,0.5 0,0.277 0.223,0.5 0.5,0.5 h 1.5 v 5 c -2.5,0 -4,-0.5 -4,-3 h 0.5 c 0.44533,-1.7e-4 0.66831,-0.53852 0.35352,-0.85352 0,0 -0.069,-0.0629 -0.23633,-0.34179 -0.16733,-0.27888 -0.40312,-0.74452 -0.64258,-1.46289 -0.0681,-0.20422 -0.25932,-0.34191 -0.47461,-0.3418 -0.21529,-1.1e-4 -0.40648,0.13758 -0.47461,0.3418 -0.23946,0.71837 -0.47525,1.18401 -0.64258,1.46289 -0.16732,0.27887 -0.23633,0.34179 -0.23633,0.34179 -0.31479,0.315 -0.0918,0.85335 0.35352,0.85352 h 0.5 c 0,4 3,5 6,5 3,0 6,-1 6,-5 h 0.5 c 0.44533,-1.7e-4 0.66831,-0.53852 0.35352,-0.85352 0,0 -0.069,-0.0629 -0.23633,-0.34179 -0.16733,-0.27888 -0.40312,-0.74452 -0.64258,-1.46289 -0.0681,-0.20422 -0.25932,-0.34191 -0.47461,-0.3418 -0.21529,-1.1e-4 -0.40648,0.13758 -0.47461,0.3418 -0.23946,0.71837 -0.47525,1.18401 -0.64258,1.46289 -0.16732,0.27887 -0.23633,0.34179 -0.23633,0.34179 -0.31479,0.315 -0.0918,0.85335 0.35352,0.85352 h 0.5 c 0,2.5 -1.5,3 -4,3 v -5 h 1.5 c 0.277,0 0.5,-0.223 0.5,-0.5 0,-0.277 -0.223,-0.5 -0.5,-0.5 H 585 v -1.27344 c 0.61711,-0.35628 0.99804,-1.01399 1,-1.72656 0,-1.10457 -0.89543,-2 -2,-2 z m 0,1 c 0.55228,0 1,0.44772 1,1 0,0.55228 -0.44772,1 -1,1 -0.55228,0 -1,-0.44772 -1,-1 0,-0.55228 0.44772,-1 1,-1 z" fill="#000" transform="translate(8.0,8.0) translate(-584.0,-408.0)" /></svg>