<?xml version="1.0" encoding="utf-8" ?>
<svg baseProfile="full" height="16" version="1.1" width="16" xmlns="http://www.w3.org/2000/svg" xmlns:ev="http://www.w3.org/2001/xml-events" xmlns:xlink="http://www.w3.org/1999/xlink"><defs /><path d="m 723.47656,241 c -0.25652,0.0115 -0.47669,0.2226 -0.47656,0.5 v 3 2.5 c -0.277,0 -0.5,0.223 -0.5,0.5 0,0.277 0.223,0.5 0.5,0.5 v 2 c -0.277,0 -0.5,0.223 -0.5,0.5 0,0.277 0.223,0.5 0.5,0.5 v 3.5 c 0,0.277 0.223,0.5 0.5,0.5 h 5.5 v -2.5 c 0,-0.277 0.223,-0.5 0.5,-0.5 h 1 c 0.277,0 0.5,0.223 0.5,0.5 v 2.5 h 1.5 c 0.277,0 0.5,-0.223 0.5,-0.5 V 251 c 0.277,0 0.5,-0.223 0.5,-0.5 0,-0.277 -0.223,-0.5 -0.5,-0.5 v -2 c 0.277,0 0.5,-0.223 0.5,-0.5 0,-0.277 -0.223,-0.5 -0.5,-0.5 v -2.48242 c 0.002,-0.0399 -0.002,-0.0799 -0.01,-0.11914 -0.023,-0.12338 -0.0914,-0.23601 -0.21093,-0.3125 -0.0196,-0.0125 -0.0402,-0.0249 -0.0625,-0.0352 -0.0135,-0.006 -0.0269,-0.0123 -0.041,-0.0176 -0.006,-0.002 -0.0112,-0.006 -0.0176,-0.008 l -9,-3 c -0.0607,-0.0202 -0.12244,-0.028 -0.18164,-0.0254 z m 2.02344,4 h 1 c 0.277,0 0.5,0.223 0.5,0.5 v 1 c 0,0.277 -0.223,0.5 -0.5,0.5 h -1 c -0.277,0 -0.5,-0.223 -0.5,-0.5 v -1 c 0,-0.277 0.223,-0.5 0.5,-0.5 z m 4,0 h 1 c 0.277,0 0.5,0.223 0.5,0.5 v 1 c 0,0.277 -0.223,0.5 -0.5,0.5 h -1 c -0.277,0 -0.5,-0.223 -0.5,-0.5 v -1 c 0,-0.277 0.223,-0.5 0.5,-0.5 z m -4,3 h 1 c 0.277,0 0.5,0.223 0.5,0.5 v 1 c 0,0.277 -0.223,0.5 -0.5,0.5 h -1 c -0.277,0 -0.5,-0.223 -0.5,-0.5 v -1 c 0,-0.277 0.223,-0.5 0.5,-0.5 z m 4,0 h 1 c 0.277,0 0.5,0.223 0.5,0.5 v 1 c 0,0.277 -0.223,0.5 -0.5,0.5 h -1 c -0.277,0 -0.5,-0.223 -0.5,-0.5 v -1 c 0,-0.277 0.223,-0.5 0.5,-0.5 z m -4,3 h 1 c 0.277,0 0.5,0.223 0.5,0.5 v 1 c 0,0.277 -0.223,0.5 -0.5,0.5 h -1 c -0.277,0 -0.5,-0.223 -0.5,-0.5 v -1 c 0,-0.277 0.223,-0.5 0.5,-0.5 z" fill="#000" transform="translate(8.0,8.0) translate(-728.0,-248.0)" /><path d="m 723.47656,241 c -0.25652,0.0115 -0.47669,0.2226 -0.47656,0.5 v 3 2.5 c -0.277,0 -0.5,0.223 -0.5,0.5 0,0.277 0.223,0.5 0.5,0.5 v 2 c -0.277,0 -0.5,0.223 -0.5,0.5 0,0.277 0.223,0.5 0.5,0.5 v 3.5 c 0,0.277 0.223,0.5 0.5,0.5 h 5.5 v -2.5 c 0,-0.277 0.223,-0.5 0.5,-0.5 h 1 c 0.277,0 0.5,0.223 0.5,0.5 v 2.5 h 1.5 c 0.277,0 0.5,-0.223 0.5,-0.5 V 251 c 0.277,0 0.5,-0.223 0.5,-0.5 0,-0.277 -0.223,-0.5 -0.5,-0.5 v -2 c 0.277,0 0.5,-0.223 0.5,-0.5 0,-0.277 -0.223,-0.5 -0.5,-0.5 v -2.48242 c 0.002,-0.0399 -0.002,-0.0799 -0.01,-0.11914 -0.023,-0.12338 -0.0914,-0.23601 -0.21093,-0.3125 -0.0196,-0.0125 -0.0402,-0.0249 -0.0625,-0.0352 -0.0135,-0.006 -0.0269,-0.0123 -0.041,-0.0176 -0.006,-0.002 -0.0112,-0.006 -0.0176,-0.008 l -9,-3 c -0.0607,-0.0202 -0.12244,-0.028 -0.18164,-0.0254 z m 2.02344,4 h 1 c 0.277,0 0.5,0.223 0.5,0.5 v 1 c 0,0.277 -0.223,0.5 -0.5,0.5 h -1 c -0.277,0 -0.5,-0.223 -0.5,-0.5 v -1 c 0,-0.277 0.223,-0.5 0.5,-0.5 z m 4,0 h 1 c 0.277,0 0.5,0.223 0.5,0.5 v 1 c 0,0.277 -0.223,0.5 -0.5,0.5 h -1 c -0.277,0 -0.5,-0.223 -0.5,-0.5 v -1 c 0,-0.277 0.223,-0.5 0.5,-0.5 z m -4,3 h 1 c 0.277,0 0.5,0.223 0.5,0.5 v 1 c 0,0.277 -0.223,0.5 -0.5,0.5 h -1 c -0.277,0 -0.5,-0.223 -0.5,-0.5 v -1 c 0,-0.277 0.223,-0.5 0.5,-0.5 z m 4,0 h 1 c 0.277,0 0.5,0.223 0.5,0.5 v 1 c 0,0.277 -0.223,0.5 -0.5,0.5 h -1 c -0.277,0 -0.5,-0.223 -0.5,-0.5 v -1 c 0,-0.277 0.223,-0.5 0.5,-0.5 z m -4,3 h 1 c 0.277,0 0.5,0.223 0.5,0.5 v 1 c 0,0.277 -0.223,0.5 -0.5,0.5 h -1 c -0.277,0 -0.5,-0.223 -0.5,-0.5 v -1 c 0,-0.277 0.223,-0.5 0.5,-0.5 z" fill="#000" transform="translate(8.0,8.0) translate(-728.0,-248.0)" /></svg>