<?xml version="1.0" encoding="utf-8" ?>
<svg baseProfile="full" height="16" version="1.1" width="16" xmlns="http://www.w3.org/2000/svg" xmlns:ev="http://www.w3.org/2001/xml-events" xmlns:xlink="http://www.w3.org/1999/xlink"><defs /><path d="m 691.51562,242 c -0.26958,-0.009 -0.51566,0.20593 -0.51562,0.5 v 4 6 c 0,0.277 0.223,0.5 0.5,0.5 h 5.5 v -2.5 c 0,-0.277 0.223,-0.5 0.5,-0.5 h 1 c 0.277,0 0.5,0.223 0.5,0.5 v 2.5 h 1.5 c 0.277,0 0.5,-0.223 0.5,-0.5 v -5.97656 c 5.8e-4,-0.0103 3e-5,-0.0209 0,-0.0312 -9e-5,-0.0313 -0.004,-0.0629 -0.01,-0.0937 -0.0231,-0.12191 -0.0905,-0.23446 -0.21093,-0.3125 -0.0242,-0.0163 -0.0492,-0.031 -0.0762,-0.043 l -0.0117,-0.006 -8.98829,-3.99414 c -0.062,-0.0276 -0.12527,-0.041 -0.1875,-0.043 z m 1.98438,6 h 1 c 0.277,0 0.5,0.223 0.5,0.5 v 2 c 0,0.277 -0.223,0.5 -0.5,0.5 h -1 c -0.277,0 -0.5,-0.223 -0.5,-0.5 v -2 c 0,-0.277 0.223,-0.5 0.5,-0.5 z" fill="#000" transform="translate(8.0,8.0) translate(-696.0,-248.0)" /><path d="m 691.51562,242 c -0.26958,-0.009 -0.51566,0.20593 -0.51562,0.5 v 4 6 c 0,0.277 0.223,0.5 0.5,0.5 h 5.5 v -2.5 c 0,-0.277 0.223,-0.5 0.5,-0.5 h 1 c 0.277,0 0.5,0.223 0.5,0.5 v 2.5 h 1.5 c 0.277,0 0.5,-0.223 0.5,-0.5 v -5.97656 c 5.8e-4,-0.0103 3e-5,-0.0209 0,-0.0312 -9e-5,-0.0313 -0.004,-0.0629 -0.01,-0.0937 -0.0231,-0.12191 -0.0905,-0.23446 -0.21093,-0.3125 -0.0242,-0.0163 -0.0492,-0.031 -0.0762,-0.043 l -0.0117,-0.006 -8.98829,-3.99414 c -0.062,-0.0276 -0.12527,-0.041 -0.1875,-0.043 z m 1.98438,6 h 1 c 0.277,0 0.5,0.223 0.5,0.5 v 2 c 0,0.277 -0.223,0.5 -0.5,0.5 h -1 c -0.277,0 -0.5,-0.223 -0.5,-0.5 v -2 c 0,-0.277 0.223,-0.5 0.5,-0.5 z" fill="#000" transform="translate(8.0,8.0) translate(-696.0,-248.0)" /></svg>