<?xml version="1.0" encoding="utf-8" ?>
<svg baseProfile="full" height="16" version="1.1" width="16" xmlns="http://www.w3.org/2000/svg" xmlns:ev="http://www.w3.org/2001/xml-events" xmlns:xlink="http://www.w3.org/1999/xlink"><defs /><path d="m 760,209 c -0.0579,-1.5e-4 -0.1154,0.01 -0.16992,0.0293 l -5.5,2 c -0.5283,0.18961 -0.39137,0.97182 0.16992,0.9707 h 0.5 v 9.5 c 0,0.277 0.223,0.5 0.5,0.5 h 5.5 v -1.5 c 0,-0.277 0.223,-0.5 0.5,-0.5 h 1 c 0.277,0 0.5,0.223 0.5,0.5 v 1.5 h 1.5 c 0.277,0 0.5,-0.223 0.5,-0.5 V 212 h 0.5 c 0.56129,0.001 0.69822,-0.78109 0.16992,-0.9707 l -5.5,-2 C 760.1154,209.00977 760.05791,208.99985 760,209 Z m -2.52539,3 c 0.009,-4.3e-4 0.0167,0 0.0254,0 h 1 c 0.277,0 0.5,0.223 0.5,0.5 0,0.277 -0.223,0.5 -0.5,0.5 h -1 c -0.277,0 -0.5,-0.223 -0.5,-0.5 0,-0.26834 0.2097,-0.48666 0.47461,-0.5 z m 4,0 c 0.009,-4.3e-4 0.0167,0 0.0254,0 h 1 c 0.277,0 0.5,0.223 0.5,0.5 0,0.277 -0.223,0.5 -0.5,0.5 h -1 c -0.277,0 -0.5,-0.223 -0.5,-0.5 0,-0.26834 0.2097,-0.48666 0.47461,-0.5 z m -4,2 c 0.009,-4.3e-4 0.0167,0 0.0254,0 h 1 c 0.277,0 0.5,0.223 0.5,0.5 0,0.277 -0.223,0.5 -0.5,0.5 h -1 c -0.277,0 -0.5,-0.223 -0.5,-0.5 0,-0.26834 0.2097,-0.48666 0.47461,-0.5 z m 4,0 c 0.009,-4.3e-4 0.0167,0 0.0254,0 h 1 c 0.277,0 0.5,0.223 0.5,0.5 0,0.277 -0.223,0.5 -0.5,0.5 h -1 c -0.277,0 -0.5,-0.223 -0.5,-0.5 0,-0.26834 0.2097,-0.48666 0.47461,-0.5 z m -4,2 c 0.009,-4.3e-4 0.0167,0 0.0254,0 h 1 c 0.277,0 0.5,0.223 0.5,0.5 0,0.277 -0.223,0.5 -0.5,0.5 h -1 c -0.277,0 -0.5,-0.223 -0.5,-0.5 0,-0.26834 0.2097,-0.48666 0.47461,-0.5 z m 4,0 c 0.009,-4.3e-4 0.0167,0 0.0254,0 h 1 c 0.277,0 0.5,0.223 0.5,0.5 0,0.277 -0.223,0.5 -0.5,0.5 h -1 c -0.277,0 -0.5,-0.223 -0.5,-0.5 0,-0.26834 0.2097,-0.48666 0.47461,-0.5 z m -4,2 c 0.009,-4.3e-4 0.0167,0 0.0254,0 h 1 c 0.277,0 0.5,0.223 0.5,0.5 0,0.277 -0.223,0.5 -0.5,0.5 h -1 c -0.277,0 -0.5,-0.223 -0.5,-0.5 0,-0.26834 0.2097,-0.48666 0.47461,-0.5 z m 4,0 c 0.009,-4.3e-4 0.0167,0 0.0254,0 h 1 c 0.277,0 0.5,0.223 0.5,0.5 0,0.277 -0.223,0.5 -0.5,0.5 h -1 c -0.277,0 -0.5,-0.223 -0.5,-0.5 0,-0.26834 0.2097,-0.48666 0.47461,-0.5 z m -4,2 c 0.009,-4.3e-4 0.0167,0 0.0254,0 h 1 c 0.277,0 0.5,0.223 0.5,0.5 0,0.277 -0.223,0.5 -0.5,0.5 h -1 c -0.277,0 -0.5,-0.223 -0.5,-0.5 0,-0.26834 0.2097,-0.48666 0.47461,-0.5 z" fill="#000" transform="translate(8.0,8.0) translate(-760.0,-216.0)" /><path d="m 760,209 c -0.0579,-1.5e-4 -0.1154,0.01 -0.16992,0.0293 l -5.5,2 c -0.5283,0.18961 -0.39137,0.97182 0.16992,0.9707 h 0.5 v 9.5 c 0,0.277 0.223,0.5 0.5,0.5 h 5.5 v -1.5 c 0,-0.277 0.223,-0.5 0.5,-0.5 h 1 c 0.277,0 0.5,0.223 0.5,0.5 v 1.5 h 1.5 c 0.277,0 0.5,-0.223 0.5,-0.5 V 212 h 0.5 c 0.56129,0.001 0.69822,-0.78109 0.16992,-0.9707 l -5.5,-2 C 760.1154,209.00977 760.05791,208.99985 760,209 Z m -2.52539,3 c 0.009,-4.3e-4 0.0167,0 0.0254,0 h 1 c 0.277,0 0.5,0.223 0.5,0.5 0,0.277 -0.223,0.5 -0.5,0.5 h -1 c -0.277,0 -0.5,-0.223 -0.5,-0.5 0,-0.26834 0.2097,-0.48666 0.47461,-0.5 z m 4,0 c 0.009,-4.3e-4 0.0167,0 0.0254,0 h 1 c 0.277,0 0.5,0.223 0.5,0.5 0,0.277 -0.223,0.5 -0.5,0.5 h -1 c -0.277,0 -0.5,-0.223 -0.5,-0.5 0,-0.26834 0.2097,-0.48666 0.47461,-0.5 z m -4,2 c 0.009,-4.3e-4 0.0167,0 0.0254,0 h 1 c 0.277,0 0.5,0.223 0.5,0.5 0,0.277 -0.223,0.5 -0.5,0.5 h -1 c -0.277,0 -0.5,-0.223 -0.5,-0.5 0,-0.26834 0.2097,-0.48666 0.47461,-0.5 z m 4,0 c 0.009,-4.3e-4 0.0167,0 0.0254,0 h 1 c 0.277,0 0.5,0.223 0.5,0.5 0,0.277 -0.223,0.5 -0.5,0.5 h -1 c -0.277,0 -0.5,-0.223 -0.5,-0.5 0,-0.26834 0.2097,-0.48666 0.47461,-0.5 z m -4,2 c 0.009,-4.3e-4 0.0167,0 0.0254,0 h 1 c 0.277,0 0.5,0.223 0.5,0.5 0,0.277 -0.223,0.5 -0.5,0.5 h -1 c -0.277,0 -0.5,-0.223 -0.5,-0.5 0,-0.26834 0.2097,-0.48666 0.47461,-0.5 z m 4,0 c 0.009,-4.3e-4 0.0167,0 0.0254,0 h 1 c 0.277,0 0.5,0.223 0.5,0.5 0,0.277 -0.223,0.5 -0.5,0.5 h -1 c -0.277,0 -0.5,-0.223 -0.5,-0.5 0,-0.26834 0.2097,-0.48666 0.47461,-0.5 z m -4,2 c 0.009,-4.3e-4 0.0167,0 0.0254,0 h 1 c 0.277,0 0.5,0.223 0.5,0.5 0,0.277 -0.223,0.5 -0.5,0.5 h -1 c -0.277,0 -0.5,-0.223 -0.5,-0.5 0,-0.26834 0.2097,-0.48666 0.47461,-0.5 z m 4,0 c 0.009,-4.3e-4 0.0167,0 0.0254,0 h 1 c 0.277,0 0.5,0.223 0.5,0.5 0,0.277 -0.223,0.5 -0.5,0.5 h -1 c -0.277,0 -0.5,-0.223 -0.5,-0.5 0,-0.26834 0.2097,-0.48666 0.47461,-0.5 z m -4,2 c 0.009,-4.3e-4 0.0167,0 0.0254,0 h 1 c 0.277,0 0.5,0.223 0.5,0.5 0,0.277 -0.223,0.5 -0.5,0.5 h -1 c -0.277,0 -0.5,-0.223 -0.5,-0.5 0,-0.26834 0.2097,-0.48666 0.47461,-0.5 z" fill="#000" transform="translate(8.0,8.0) translate(-760.0,-216.0)" /></svg>