<?xml version="1.0" encoding="utf-8" ?>
<svg baseProfile="full" height="16" version="1.1" width="16" xmlns="http://www.w3.org/2000/svg" xmlns:ev="http://www.w3.org/2001/xml-events" xmlns:xlink="http://www.w3.org/1999/xlink"><defs /><path d="m 711.91602,209.00586 c -0.0548,0.009 -0.10757,0.0279 -0.15625,0.0547 l -5.5,3 c -0.45636,0.2479 -0.27911,0.94105 0.24023,0.93945 h 0.5 v 4 h 10 v -4 h 0.5 c 0.51934,0.002 0.69659,-0.69155 0.24023,-0.93945 l -5.5,-3 c -0.0988,-0.0543 -0.21307,-0.0735 -0.32421,-0.0547 z M 709.5,213 h 1 c 0.277,0 0.5,0.223 0.5,0.5 v 2 c 0,0.277 -0.223,0.5 -0.5,0.5 h -1 c -0.277,0 -0.5,-0.223 -0.5,-0.5 v -2 c 0,-0.277 0.223,-0.5 0.5,-0.5 z m 4,0 h 1 c 0.277,0 0.5,0.223 0.5,0.5 v 2 c 0,0.277 -0.223,0.5 -0.5,0.5 h -1 c -0.277,0 -0.5,-0.223 -0.5,-0.5 v -2 c 0,-0.277 0.223,-0.5 0.5,-0.5 z m -6.5,5 v 4.5 c 0,0.277 0.223,0.5 0.5,0.5 h 5.5 v -2.5 c 0,-0.277 0.223,-0.5 0.5,-0.5 h 1 c 0.277,0 0.5,0.223 0.5,0.5 v 2.5 h 1.5 c 0.277,0 0.5,-0.223 0.5,-0.5 V 218 Z m 2.5,1 h 1 c 0.277,0 0.5,0.223 0.5,0.5 v 2 c 0,0.277 -0.223,0.5 -0.5,0.5 h -1 c -0.277,0 -0.5,-0.223 -0.5,-0.5 v -2 c 0,-0.277 0.223,-0.5 0.5,-0.5 z" fill="#000" transform="translate(8.0,8.0) translate(-712.0,-216.0)" /><path d="m 711.91602,209.00586 c -0.0548,0.009 -0.10757,0.0279 -0.15625,0.0547 l -5.5,3 c -0.45636,0.2479 -0.27911,0.94105 0.24023,0.93945 h 0.5 v 4 h 10 v -4 h 0.5 c 0.51934,0.002 0.69659,-0.69155 0.24023,-0.93945 l -5.5,-3 c -0.0988,-0.0543 -0.21307,-0.0735 -0.32421,-0.0547 z M 709.5,213 h 1 c 0.277,0 0.5,0.223 0.5,0.5 v 2 c 0,0.277 -0.223,0.5 -0.5,0.5 h -1 c -0.277,0 -0.5,-0.223 -0.5,-0.5 v -2 c 0,-0.277 0.223,-0.5 0.5,-0.5 z m 4,0 h 1 c 0.277,0 0.5,0.223 0.5,0.5 v 2 c 0,0.277 -0.223,0.5 -0.5,0.5 h -1 c -0.277,0 -0.5,-0.223 -0.5,-0.5 v -2 c 0,-0.277 0.223,-0.5 0.5,-0.5 z m -6.5,5 v 4.5 c 0,0.277 0.223,0.5 0.5,0.5 h 5.5 v -2.5 c 0,-0.277 0.223,-0.5 0.5,-0.5 h 1 c 0.277,0 0.5,0.223 0.5,0.5 v 2.5 h 1.5 c 0.277,0 0.5,-0.223 0.5,-0.5 V 218 Z m 2.5,1 h 1 c 0.277,0 0.5,0.223 0.5,0.5 v 2 c 0,0.277 -0.223,0.5 -0.5,0.5 h -1 c -0.277,0 -0.5,-0.223 -0.5,-0.5 v -2 c 0,-0.277 0.223,-0.5 0.5,-0.5 z" fill="#000" transform="translate(8.0,8.0) translate(-712.0,-216.0)" /></svg>