<?xml version="1.0" encoding="utf-8" ?>
<svg baseProfile="full" height="16" version="1.1" width="16" xmlns="http://www.w3.org/2000/svg" xmlns:ev="http://www.w3.org/2001/xml-events" xmlns:xlink="http://www.w3.org/1999/xlink"><defs /><path d="m 696.00195,210 c -0.0349,-1.3e-4 -0.0707,0.002 -0.10547,0.01 -0.0692,0.0148 -0.13439,0.0441 -0.1914,0.0859 l -5.5,4 c -0.39164,0.28515 -0.18953,0.90487 0.29492,0.9043 h 0.5 v 1 4.5 c 0,0.277 0.223,0.5 0.5,0.5 h 5.5 v -2.5 c 0,-0.277 0.223,-0.5 0.5,-0.5 h 1 c 0.277,0 0.5,0.223 0.5,0.5 v 2.5 h 1.5 c 0.277,0 0.5,-0.223 0.5,-0.5 v -4.5 -1 h 0.5 c 0.48445,5.7e-4 0.68656,-0.61915 0.29492,-0.9043 l -5.5,-4 c -0.0859,-0.0629 -0.18821,-0.0953 -0.29297,-0.0957 z M 693.5,216 h 1 c 0.277,0 0.5,0.223 0.5,0.5 v 2 c 0,0.277 -0.223,0.5 -0.5,0.5 h -1 c -0.277,0 -0.5,-0.223 -0.5,-0.5 v -2 c 0,-0.277 0.223,-0.5 0.5,-0.5 z" fill="#000" transform="translate(8.0,8.0) translate(-696.0,-216.0)" /><path d="m 696.00195,210 c -0.0349,-1.3e-4 -0.0707,0.002 -0.10547,0.01 -0.0692,0.0148 -0.13439,0.0441 -0.1914,0.0859 l -5.5,4 c -0.39164,0.28515 -0.18953,0.90487 0.29492,0.9043 h 0.5 v 1 4.5 c 0,0.277 0.223,0.5 0.5,0.5 h 5.5 v -2.5 c 0,-0.277 0.223,-0.5 0.5,-0.5 h 1 c 0.277,0 0.5,0.223 0.5,0.5 v 2.5 h 1.5 c 0.277,0 0.5,-0.223 0.5,-0.5 v -4.5 -1 h 0.5 c 0.48445,5.7e-4 0.68656,-0.61915 0.29492,-0.9043 l -5.5,-4 c -0.0859,-0.0629 -0.18821,-0.0953 -0.29297,-0.0957 z M 693.5,216 h 1 c 0.277,0 0.5,0.223 0.5,0.5 v 2 c 0,0.277 -0.223,0.5 -0.5,0.5 h -1 c -0.277,0 -0.5,-0.223 -0.5,-0.5 v -2 c 0,-0.277 0.223,-0.5 0.5,-0.5 z" fill="#000" transform="translate(8.0,8.0) translate(-696.0,-216.0)" /></svg>