<?xml version="1.0" encoding="utf-8" ?>
<svg baseProfile="full" height="16" version="1.1" width="16" xmlns="http://www.w3.org/2000/svg" xmlns:ev="http://www.w3.org/2001/xml-events" xmlns:xlink="http://www.w3.org/1999/xlink"><defs /><path d="m 134,435 c 0,1 0,2 2,2 0,-1 0,-2 -2,-2 z m 0.53125,2.61719 C 133.125,437.59375 132,438.625 132,440.5 c 0,2.5 2,5.5 4,4.5 2,1 4,-2 4,-4.5 0,-2.5 -2,-3.5 -4,-2.5 -0.5,-0.25 -1,-0.375 -1.46875,-0.38281 z" fill="#000" transform="translate(8.0,8.0) translate(-136.0,-440.0)" /><path d="m 134,435 c 0,1 0,2 2,2 0,-1 0,-2 -2,-2 z m 0.53125,2.61719 C 133.125,437.59375 132,438.625 132,440.5 c 0,2.5 2,5.5 4,4.5 2,1 4,-2 4,-4.5 0,-2.5 -2,-3.5 -4,-2.5 -0.5,-0.25 -1,-0.375 -1.46875,-0.38281 z" fill="#000" transform="translate(8.0,8.0) translate(-136.0,-440.0)" /></svg>