<?xml version="1.0" encoding="utf-8" ?>
<svg baseProfile="full" height="16" version="1.1" width="16" xmlns="http://www.w3.org/2000/svg" xmlns:ev="http://www.w3.org/2001/xml-events" xmlns:xlink="http://www.w3.org/1999/xlink"><defs /><path d="m 215,113 v 1.29297 l -3.85352,3.85351 C 211.05611,118.23686 211,118.3615 211,118.5 v 1.5 0.5 5.5 h 9 v -5.5 -0.5 -1.5 c 0,-0.0213 -0.001,-0.0419 -0.004,-0.0625 0,0 0,-0.002 0,-0.002 a 0.5,0.5 0 0 0 0,-0.002 c -0.003,-0.0214 -0.008,-0.0421 -0.0137,-0.0625 -0.008,-0.03 -0.0201,-0.0584 -0.0332,-0.0859 a 0.5,0.5 0 0 0 -0.0332,-0.0625 0.5,0.5 0 0 0 -0.002,-0.002 c 0,0 -0.002,-0.002 -0.002,-0.002 a 0.5,0.5 0 0 0 -0.0586,-0.0723 l -1.02149,-1.02148 0.70703,-0.70703 -2.12109,-2.12109 -0.35352,0.35351 -0.35351,0.35352 L 216,114.29297 V 113 Z m 0.5,2.20703 0.50391,0.50391 2.12109,2.12109 0.16797,0.16797 h -5.58594 z M 212.5,121 h 6 c 0.277,0 0.5,0.223 0.5,0.5 v 1 c 0,0.277 -0.223,0.5 -0.5,0.5 h -6 c -0.277,0 -0.5,-0.223 -0.5,-0.5 v -1 c 0,-0.277 0.223,-0.5 0.5,-0.5 z" fill="#000" transform="translate(8.0,8.0) translate(-216.0,-120.0)" /><path d="m 215,113 v 1.29297 l -3.85352,3.85351 C 211.05611,118.23686 211,118.3615 211,118.5 v 1.5 0.5 5.5 h 9 v -5.5 -0.5 -1.5 c 0,-0.0213 -0.001,-0.0419 -0.004,-0.0625 0,0 0,-0.002 0,-0.002 a 0.5,0.5 0 0 0 0,-0.002 c -0.003,-0.0214 -0.008,-0.0421 -0.0137,-0.0625 -0.008,-0.03 -0.0201,-0.0584 -0.0332,-0.0859 a 0.5,0.5 0 0 0 -0.0332,-0.0625 0.5,0.5 0 0 0 -0.002,-0.002 c 0,0 -0.002,-0.002 -0.002,-0.002 a 0.5,0.5 0 0 0 -0.0586,-0.0723 l -1.02149,-1.02148 0.70703,-0.70703 -2.12109,-2.12109 -0.35352,0.35351 -0.35351,0.35352 L 216,114.29297 V 113 Z m 0.5,2.20703 0.50391,0.50391 2.12109,2.12109 0.16797,0.16797 h -5.58594 z M 212.5,121 h 6 c 0.277,0 0.5,0.223 0.5,0.5 v 1 c 0,0.277 -0.223,0.5 -0.5,0.5 h -6 c -0.277,0 -0.5,-0.223 -0.5,-0.5 v -1 c 0,-0.277 0.223,-0.5 0.5,-0.5 z" fill="#000" transform="translate(8.0,8.0) translate(-216.0,-120.0)" /></svg>