<?xml version="1.0" encoding="utf-8" ?>
<svg baseProfile="full" height="16" version="1.1" width="16" xmlns="http://www.w3.org/2000/svg" xmlns:ev="http://www.w3.org/2001/xml-events" xmlns:xlink="http://www.w3.org/1999/xlink"><defs /><path d="m 516,306 c -1.108,0 -2,0.892 -2,2 v 7 c 0,1.108 0.892,2 2,2 h 7 c 1.108,0 2,-0.892 2,-2 v -7 c 0,-1.108 -0.892,-2 -2,-2 z m 3.36719,2.00195 a 3.5,3.5 0 0 1 1.03906,0.11719 A 3.5,3.5 0 0 1 523,311.5 a 1.5,1.5 0 0 1 -0.75,1.29883 1.5,1.5 0 0 1 -1.5,0 1.5,1.5 0 0 1 -0.25,-0.1836 1.5,1.5 0 0 1 -1,0.38477 1.5,1.5 0 0 1 -1.5,-1.5 1.5,1.5 0 0 1 1.5,-1.5 1.5,1.5 0 0 1 1.5,1.5 0.5,0.5 0 0 0 0,0.0234 0.5,0.5 0 0 0 0.25,0.41015 0.5,0.5 0 0 0 0.5,0 0.5,0.5 0 0 0 0.25,-0.43359 2.5,2.5 0 0 0 -1.85352,-2.41406 2.5,2.5 0 0 0 -2.8125,1.16406 2.5,2.5 0 0 0 0.39844,3.01758 2.5,2.5 0 0 0 3.01758,0.39844 l 0.5,0.86523 a 3.5,3.5 0 0 1 -4.22461,-0.55664 3.5,3.5 0 0 1 -0.55664,-4.22461 3.5,3.5 0 0 1 2.86523,-1.74609 3.5,3.5 0 0 1 0.0332,-0.002 z M 519.5,311 a 0.5,0.5 0 0 0 -0.5,0.5 0.5,0.5 0 0 0 0.5,0.5 0.5,0.5 0 0 0 0.5,-0.5 0.5,0.5 0 0 0 -0.5,-0.5 z" fill="#000" transform="translate(8.0,8.0) translate(-520.0,-312.0)" /><path d="m 516,306 c -1.108,0 -2,0.892 -2,2 v 7 c 0,1.108 0.892,2 2,2 h 7 c 1.108,0 2,-0.892 2,-2 v -7 c 0,-1.108 -0.892,-2 -2,-2 z m 3.36719,2.00195 a 3.5,3.5 0 0 1 1.03906,0.11719 A 3.5,3.5 0 0 1 523,311.5 a 1.5,1.5 0 0 1 -0.75,1.29883 1.5,1.5 0 0 1 -1.5,0 1.5,1.5 0 0 1 -0.25,-0.1836 1.5,1.5 0 0 1 -1,0.38477 1.5,1.5 0 0 1 -1.5,-1.5 1.5,1.5 0 0 1 1.5,-1.5 1.5,1.5 0 0 1 1.5,1.5 0.5,0.5 0 0 0 0,0.0234 0.5,0.5 0 0 0 0.25,0.41015 0.5,0.5 0 0 0 0.5,0 0.5,0.5 0 0 0 0.25,-0.43359 2.5,2.5 0 0 0 -1.85352,-2.41406 2.5,2.5 0 0 0 -2.8125,1.16406 2.5,2.5 0 0 0 0.39844,3.01758 2.5,2.5 0 0 0 3.01758,0.39844 l 0.5,0.86523 a 3.5,3.5 0 0 1 -4.22461,-0.55664 3.5,3.5 0 0 1 -0.55664,-4.22461 3.5,3.5 0 0 1 2.86523,-1.74609 3.5,3.5 0 0 1 0.0332,-0.002 z M 519.5,311 a 0.5,0.5 0 0 0 -0.5,0.5 0.5,0.5 0 0 0 0.5,0.5 0.5,0.5 0 0 0 0.5,-0.5 0.5,0.5 0 0 0 -0.5,-0.5 z" fill="#000" transform="translate(8.0,8.0) translate(-520.0,-312.0)" /></svg>