<?xml version="1.0" encoding="utf-8" ?>
<svg baseProfile="full" height="16" version="1.1" width="16" xmlns="http://www.w3.org/2000/svg" xmlns:ev="http://www.w3.org/2001/xml-events" xmlns:xlink="http://www.w3.org/1999/xlink"><defs /><path d="m 115.5,50 c -0.277,0 -0.5,0.223 -0.5,0.5 v 2 c 0,0.277 0.223,0.5 0.5,0.5 h 0.5 v -2 h 8 v 2 h 0.5 c 0.277,0 0.5,-0.223 0.5,-0.5 v -2 c 0,-0.277 -0.223,-0.5 -0.5,-0.5 z m 1.5,2 v 9 h 6 v -9 z m 2.94922,1 a 2,2 0 0 1 0.002,0 2,2 0 0 1 0.0488,0 2,2 0 0 1 2,2 2,2 0 0 1 -2,2 2,2 0 0 1 -2,-2 2,2 0 0 1 1.94922,-2 z M 118,59 c 0.554,0 1,0.446 1,1 h -1 z m 4,0 v 1 h -1 c 0,-0.554 0.446,-1 1,-1 z" fill="#000" transform="translate(8.0,8.0) translate(-120.0,-56.0)" /><path d="m 115.5,50 c -0.277,0 -0.5,0.223 -0.5,0.5 v 2 c 0,0.277 0.223,0.5 0.5,0.5 h 0.5 v -2 h 8 v 2 h 0.5 c 0.277,0 0.5,-0.223 0.5,-0.5 v -2 c 0,-0.277 -0.223,-0.5 -0.5,-0.5 z m 1.5,2 v 9 h 6 v -9 z m 2.94922,1 a 2,2 0 0 1 0.002,0 2,2 0 0 1 0.0488,0 2,2 0 0 1 2,2 2,2 0 0 1 -2,2 2,2 0 0 1 -2,-2 2,2 0 0 1 1.94922,-2 z M 118,59 c 0.554,0 1,0.446 1,1 h -1 z m 4,0 v 1 h -1 c 0,-0.554 0.446,-1 1,-1 z" fill="#000" transform="translate(8.0,8.0) translate(-120.0,-56.0)" /></svg>