<?xml version="1.0" encoding="utf-8" ?>
<svg baseProfile="full" height="16" version="1.1" width="16" xmlns="http://www.w3.org/2000/svg" xmlns:ev="http://www.w3.org/2001/xml-events" xmlns:xlink="http://www.w3.org/1999/xlink"><defs /><path d="m 611,403 v 11 h 10 v -11 z m 2.5,1.5 c 0.55228,0 1,0.44772 1,1 0,0.36497 -0.208,0.66914 -0.5,0.84375 V 408 c 0,0.55821 0.44179,1 1,1 h 2 c 0.55821,0 1,-0.44179 1,-1 v -1.65625 c -0.292,-0.17461 -0.5,-0.47878 -0.5,-0.84375 0,-0.55228 0.44772,-1 1,-1 0.55228,0 1,0.44772 1,1 0,0.36497 -0.208,0.66914 -0.5,0.84375 V 408 c 0,1.09865 -0.90135,2 -2,2 h -2 c -1.09865,0 -2,-0.90135 -2,-2 v -1.65625 c -0.292,-0.17461 -0.5,-0.47878 -0.5,-0.84375 0,-0.55228 0.44772,-1 1,-1 z" fill="#000" transform="translate(8.0,8.0) translate(-616.0,-408.0)" /><path d="m 611,403 v 11 h 10 v -11 z m 2.5,1.5 c 0.55228,0 1,0.44772 1,1 0,0.36497 -0.208,0.66914 -0.5,0.84375 V 408 c 0,0.55821 0.44179,1 1,1 h 2 c 0.55821,0 1,-0.44179 1,-1 v -1.65625 c -0.292,-0.17461 -0.5,-0.47878 -0.5,-0.84375 0,-0.55228 0.44772,-1 1,-1 0.55228,0 1,0.44772 1,1 0,0.36497 -0.208,0.66914 -0.5,0.84375 V 408 c 0,1.09865 -0.90135,2 -2,2 h -2 c -1.09865,0 -2,-0.90135 -2,-2 v -1.65625 c -0.292,-0.17461 -0.5,-0.47878 -0.5,-0.84375 0,-0.55228 0.44772,-1 1,-1 z" fill="#000" transform="translate(8.0,8.0) translate(-616.0,-408.0)" /></svg>