<?xml version="1.0" encoding="utf-8" ?>
<svg baseProfile="full" height="16" version="1.1" width="16" xmlns="http://www.w3.org/2000/svg" xmlns:ev="http://www.w3.org/2001/xml-events" xmlns:xlink="http://www.w3.org/1999/xlink"><defs /><path d="M 647 402 C 645.90135 402 645 402.90135 645 404 L 645 405 L 643.5 405 C 643.223 405 643 405.223 643 405.5 L 643 413.5 C 643 413.777 643.223 414 643.5 414 L 652.5 414 C 652.777 414 653 413.777 653 413.5 L 653 405.5 C 653 405.223 652.777 405 652.5 405 L 651 405 L 651 404 C 651 402.90135 650.09865 402 649 402 L 647 402 z M 647 403 L 649 403 C 649.55821 403 650 403.44179 650 404 L 650 405 L 646 405 L 646 404 C 646 403.44179 646.44179 403 647 403 z M 649.51953 406.99219 A 0.50083746 0.50083746 0 0 1 649.90039 407.80078 L 646.90039 411.80078 A 0.50083746 0.50083746 0 1 1 646.09961 411.19922 L 649.09961 407.19922 A 0.50083746 0.50083746 0 0 1 649.46875 406.99414 A 0.50083746 0.50083746 0 0 1 649.51953 406.99219 z M 645.5 407 C 646.32293 407 647 407.67707 647 408.5 C 647 409.32293 646.32293 410 645.5 410 C 644.67707 410 644 409.32293 644 408.5 C 644 407.67707 644.67707 407 645.5 407 z M 645.5 408 C 645.21836 408 645 408.21836 645 408.5 C 645 408.78164 645.21836 409 645.5 409 C 645.78164 409 646 408.78164 646 408.5 C 646 408.21836 645.78164 408 645.5 408 z M 650.5 409 C 651.32293 409 652 409.67707 652 410.5 C 652 411.32293 651.32293 412 650.5 412 C 649.67707 412 649 411.32293 649 410.5 C 649 409.67707 649.67707 409 650.5 409 z M 650.5 410 C 650.21836 410 650 410.21836 650 410.5 C 650 410.78164 650.21836 411 650.5 411 C 650.78164 411 651 410.78164 651 410.5 C 651 410.21836 650.78164 410 650.5 410 z " fill="#000" transform="translate(8.0,8.0) translate(-648.0,-408.0)" /><path d="M 647 402 C 645.90135 402 645 402.90135 645 404 L 645 405 L 643.5 405 C 643.223 405 643 405.223 643 405.5 L 643 413.5 C 643 413.777 643.223 414 643.5 414 L 652.5 414 C 652.777 414 653 413.777 653 413.5 L 653 405.5 C 653 405.223 652.777 405 652.5 405 L 651 405 L 651 404 C 651 402.90135 650.09865 402 649 402 L 647 402 z M 647 403 L 649 403 C 649.55821 403 650 403.44179 650 404 L 650 405 L 646 405 L 646 404 C 646 403.44179 646.44179 403 647 403 z M 649.51953 406.99219 A 0.50083746 0.50083746 0 0 1 649.90039 407.80078 L 646.90039 411.80078 A 0.50083746 0.50083746 0 1 1 646.09961 411.19922 L 649.09961 407.19922 A 0.50083746 0.50083746 0 0 1 649.46875 406.99414 A 0.50083746 0.50083746 0 0 1 649.51953 406.99219 z M 645.5 407 C 646.32293 407 647 407.67707 647 408.5 C 647 409.32293 646.32293 410 645.5 410 C 644.67707 410 644 409.32293 644 408.5 C 644 407.67707 644.67707 407 645.5 407 z M 645.5 408 C 645.21836 408 645 408.21836 645 408.5 C 645 408.78164 645.21836 409 645.5 409 C 645.78164 409 646 408.78164 646 408.5 C 646 408.21836 645.78164 408 645.5 408 z M 650.5 409 C 651.32293 409 652 409.67707 652 410.5 C 652 411.32293 651.32293 412 650.5 412 C 649.67707 412 649 411.32293 649 410.5 C 649 409.67707 649.67707 409 650.5 409 z M 650.5 410 C 650.21836 410 650 410.21836 650 410.5 C 650 410.78164 650.21836 411 650.5 411 C 650.78164 411 651 410.78164 651 410.5 C 651 410.21836 650.78164 410 650.5 410 z " fill="#000" transform="translate(8.0,8.0) translate(-648.0,-408.0)" /></svg>