<?xml version="1.0" encoding="utf-8" ?>
<svg baseProfile="full" height="16" version="1.1" width="16" xmlns="http://www.w3.org/2000/svg" xmlns:ev="http://www.w3.org/2001/xml-events" xmlns:xlink="http://www.w3.org/1999/xlink"><defs /><path d="m 552,81 -0.21875,1.03125 c -2.03219,0.11129 -3.63871,1.71781 -3.75,3.75 L 547,86 l 1.03125,0.1875 c 0.0909,1.93147 1.52537,3.48506 3.40625,3.75 L 552,95 l 0.5625,-5.0625 c 1.88088,-0.26494 3.31535,-1.81853 3.40625,-3.75 L 557,86 555.96875,85.78125 c -0.11129,-2.03219 -1.71781,-3.63871 -3.75,-3.75 z m -0.40625,2.03125 -0.4375,2.125 -2.125,0.4375 c 0.18379,-1.32369 1.23881,-2.37871 2.5625,-2.5625 z m 0.8125,0 c 1.32369,0.18379 2.37871,1.23881 2.5625,2.5625 l -2.125,-0.4375 z m -3.375,3.375 2.0625,0.40625 0.21875,2.09375 c -1.18676,-0.28438 -2.11087,-1.27295 -2.28125,-2.5 z m 5.9375,0 c -0.17038,1.22705 -1.09449,2.21562 -2.28125,2.5 l 0.21875,-2.09375 z" fill="#000" transform="translate(8.0,8.0) translate(-552.0,-88.0)" /><path d="m 552,81 -0.21875,1.03125 c -2.03219,0.11129 -3.63871,1.71781 -3.75,3.75 L 547,86 l 1.03125,0.1875 c 0.0909,1.93147 1.52537,3.48506 3.40625,3.75 L 552,95 l 0.5625,-5.0625 c 1.88088,-0.26494 3.31535,-1.81853 3.40625,-3.75 L 557,86 555.96875,85.78125 c -0.11129,-2.03219 -1.71781,-3.63871 -3.75,-3.75 z m -0.40625,2.03125 -0.4375,2.125 -2.125,0.4375 c 0.18379,-1.32369 1.23881,-2.37871 2.5625,-2.5625 z m 0.8125,0 c 1.32369,0.18379 2.37871,1.23881 2.5625,2.5625 l -2.125,-0.4375 z m -3.375,3.375 2.0625,0.40625 0.21875,2.09375 c -1.18676,-0.28438 -2.11087,-1.27295 -2.28125,-2.5 z m 5.9375,0 c -0.17038,1.22705 -1.09449,2.21562 -2.28125,2.5 l 0.21875,-2.09375 z" fill="#000" transform="translate(8.0,8.0) translate(-552.0,-88.0)" /></svg>