<?xml version="1.0" encoding="utf-8" ?>
<svg baseProfile="full" height="16" version="1.1" width="16" xmlns="http://www.w3.org/2000/svg" xmlns:ev="http://www.w3.org/2001/xml-events" xmlns:xlink="http://www.w3.org/1999/xlink"><defs /><path d="M 359.57812,81.640625 C 358.39317,82.091847 357.98682,83.298595 358,84.5 c 7e-5,0.535824 0.28596,1.030917 0.75,1.298828 0.4641,0.267949 1.0359,0.267949 1.5,0 0.46403,-0.267911 0.74992,-0.763004 0.75,-1.298828 0,-0.818561 -0.36781,-1.344673 -0.70703,-1.796875 0.004,0.464275 -0.17551,0.807863 -0.41602,1.009766 -0.63673,-0.526641 -0.71293,-1.200797 -0.29883,-2.072266 z M 355,87 a 4.500001,4.500001 0 0 0 0.9043,2.705078 l -0.87891,2.636719 a 0.50028276,0.50028276 0 0 0 0.94922,0.316406 l 0.7168,-2.150391 A 4.500001,4.500001 0 0 0 357.25,90.896484 4.500001,4.500001 0 0 0 359,91.466797 V 92.5 a 0.50005,0.50005 0 1 0 1,0 v -1.03125 a 4.500001,4.500001 0 0 0 1.75,-0.572266 4.500001,4.500001 0 0 0 0.56055,-0.382812 l 0.71484,2.144531 a 0.50028276,0.50028276 0 0 0 0.94922,-0.316406 l -0.88086,-2.642578 A 4.500001,4.500001 0 0 0 364,87 Z" fill="#000" transform="translate(8.0,8.0) translate(-360.0,-88.0)" /><path d="M 359.57812,81.640625 C 358.39317,82.091847 357.98682,83.298595 358,84.5 c 7e-5,0.535824 0.28596,1.030917 0.75,1.298828 0.4641,0.267949 1.0359,0.267949 1.5,0 0.46403,-0.267911 0.74992,-0.763004 0.75,-1.298828 0,-0.818561 -0.36781,-1.344673 -0.70703,-1.796875 0.004,0.464275 -0.17551,0.807863 -0.41602,1.009766 -0.63673,-0.526641 -0.71293,-1.200797 -0.29883,-2.072266 z M 355,87 a 4.500001,4.500001 0 0 0 0.9043,2.705078 l -0.87891,2.636719 a 0.50028276,0.50028276 0 0 0 0.94922,0.316406 l 0.7168,-2.150391 A 4.500001,4.500001 0 0 0 357.25,90.896484 4.500001,4.500001 0 0 0 359,91.466797 V 92.5 a 0.50005,0.50005 0 1 0 1,0 v -1.03125 a 4.500001,4.500001 0 0 0 1.75,-0.572266 4.500001,4.500001 0 0 0 0.56055,-0.382812 l 0.71484,2.144531 a 0.50028276,0.50028276 0 0 0 0.94922,-0.316406 l -0.88086,-2.642578 A 4.500001,4.500001 0 0 0 364,87 Z" fill="#000" transform="translate(8.0,8.0) translate(-360.0,-88.0)" /></svg>