<?xml version="1.0" encoding="utf-8" ?>
<svg baseProfile="full" height="16" version="1.1" width="16" xmlns="http://www.w3.org/2000/svg" xmlns:ev="http://www.w3.org/2001/xml-events" xmlns:xlink="http://www.w3.org/1999/xlink"><defs /><path d="m 631.5,370.5 c -0.27614,0 -0.5,0.22386 -0.5,0.5 v 0.11914 c -1.91796,0.55594 -3.4358,1.60623 -3.97461,3.22266 -0.10798,0.32389 0.13319,0.65836 0.47461,0.6582 h 3.5 v 5 c 0,0.27614 0.22386,0.5 0.5,0.5 0.27614,0 0.5,-0.22386 0.5,-0.5 v -5 h 3.5 c 0.34142,1.6e-4 0.58259,-0.33431 0.47461,-0.6582 -0.53881,-1.61643 -2.05665,-2.66672 -3.97461,-3.22266 V 371 c 0,-0.27614 -0.22386,-0.5 -0.5,-0.5 z m -4.5,10.75 c -0.1326,2e-5 -0.25976,0.0527 -0.35352,0.14648 C 626.20541,381.83756 625.83333,382 625.5,382 c -0.27614,0 -0.5,0.22386 -0.5,0.5 0,0.27614 0.22386,0.5 0.5,0.5 0.53939,0 1.02735,-0.34422 1.5,-0.72461 0.4696,0.37848 0.95642,0.72461 1.5,0.72461 0.53939,0 1.02735,-0.34422 1.5,-0.72461 0.47265,0.38039 0.96061,0.72461 1.5,0.72461 0.53939,0 1.02735,-0.34422 1.5,-0.72461 0.4696,0.37848 0.95642,0.72461 1.5,0.72461 0.53939,0 1.02735,-0.34422 1.5,-0.72461 0.47265,0.38039 0.96061,0.72461 1.5,0.72461 0.27614,0 0.5,-0.22386 0.5,-0.5 0,-0.27614 -0.22386,-0.5 -0.5,-0.5 -0.33333,0 -0.70541,-0.16244 -1.14648,-0.60352 -0.19527,-0.19519 -0.51177,-0.19519 -0.70704,0 C 635.20541,381.83756 634.83333,382 634.5,382 c -0.32815,0 -0.71411,-0.17114 -1.14648,-0.60352 -0.19527,-0.19519 -0.51177,-0.19519 -0.70704,0 C 632.20541,381.83756 631.83333,382 631.5,382 c -0.33333,0 -0.70541,-0.16244 -1.14648,-0.60352 -0.19527,-0.19519 -0.51177,-0.19519 -0.70704,0 C 629.20541,381.83756 628.83333,382 628.5,382 c -0.32815,0 -0.71411,-0.17114 -1.14648,-0.60352 -0.0938,-0.0938 -0.22092,-0.14646 -0.35352,-0.14648 z" fill="#000" transform="translate(8.0,8.0) translate(-632.0,-376.0)" /><path d="m 631.5,370.5 c -0.27614,0 -0.5,0.22386 -0.5,0.5 v 0.11914 c -1.91796,0.55594 -3.4358,1.60623 -3.97461,3.22266 -0.10798,0.32389 0.13319,0.65836 0.47461,0.6582 h 3.5 v 5 c 0,0.27614 0.22386,0.5 0.5,0.5 0.27614,0 0.5,-0.22386 0.5,-0.5 v -5 h 3.5 c 0.34142,1.6e-4 0.58259,-0.33431 0.47461,-0.6582 -0.53881,-1.61643 -2.05665,-2.66672 -3.97461,-3.22266 V 371 c 0,-0.27614 -0.22386,-0.5 -0.5,-0.5 z m -4.5,10.75 c -0.1326,2e-5 -0.25976,0.0527 -0.35352,0.14648 C 626.20541,381.83756 625.83333,382 625.5,382 c -0.27614,0 -0.5,0.22386 -0.5,0.5 0,0.27614 0.22386,0.5 0.5,0.5 0.53939,0 1.02735,-0.34422 1.5,-0.72461 0.4696,0.37848 0.95642,0.72461 1.5,0.72461 0.53939,0 1.02735,-0.34422 1.5,-0.72461 0.47265,0.38039 0.96061,0.72461 1.5,0.72461 0.53939,0 1.02735,-0.34422 1.5,-0.72461 0.4696,0.37848 0.95642,0.72461 1.5,0.72461 0.53939,0 1.02735,-0.34422 1.5,-0.72461 0.47265,0.38039 0.96061,0.72461 1.5,0.72461 0.27614,0 0.5,-0.22386 0.5,-0.5 0,-0.27614 -0.22386,-0.5 -0.5,-0.5 -0.33333,0 -0.70541,-0.16244 -1.14648,-0.60352 -0.19527,-0.19519 -0.51177,-0.19519 -0.70704,0 C 635.20541,381.83756 634.83333,382 634.5,382 c -0.32815,0 -0.71411,-0.17114 -1.14648,-0.60352 -0.19527,-0.19519 -0.51177,-0.19519 -0.70704,0 C 632.20541,381.83756 631.83333,382 631.5,382 c -0.33333,0 -0.70541,-0.16244 -1.14648,-0.60352 -0.19527,-0.19519 -0.51177,-0.19519 -0.70704,0 C 629.20541,381.83756 628.83333,382 628.5,382 c -0.32815,0 -0.71411,-0.17114 -1.14648,-0.60352 -0.0938,-0.0938 -0.22092,-0.14646 -0.35352,-0.14648 z" fill="#000" transform="translate(8.0,8.0) translate(-632.0,-376.0)" /></svg>