<?xml version="1.0" encoding="utf-8" ?>
<svg baseProfile="full" height="16" version="1.1" width="16" xmlns="http://www.w3.org/2000/svg" xmlns:ev="http://www.w3.org/2001/xml-events" xmlns:xlink="http://www.w3.org/1999/xlink"><defs /><path d="m 104,594.00195 a 0.50005,0.50005 0 0 0 -0.20898,0.0449 l -6.5,3 a 0.5,0.5 0 0 0 -0.24414,0.6621 0.5,0.5 0 0 0 0.6621,0.24414 L 104,595.05078 l 6.29102,2.90234 a 0.5,0.5 0 0 0 0.6621,-0.24414 0.5,0.5 0 0 0 -0.24414,-0.6621 l -6.5,-3 A 0.50005,0.50005 0 0 0 104,594.00195 Z M 97.47852,600 C 97.21329,600 97,600.223 97,600.5 v 5 c 0,0.277 0.21329,0.5 0.47852,0.5 h 0.043 C 97.78671,606 98,605.777 98,605.5 V 605 h 12 v 0.5 c 0,0.277 0.223,0.5 0.5,0.5 0.277,0 0.5,-0.223 0.5,-0.5 v -3 c 0,-0.277 -0.223,-0.5 -0.5,-0.5 -0.277,0 -0.5,0.223 -0.5,0.5 V 604 H 98 v -3.5 c 0,-0.277 -0.21329,-0.5 -0.47852,-0.5 z m 5.92187,0.99414 C 103.17471,601.01462 103,601.25763 103,601.5 v 1 c 0,0.277 0.223,0.5 0.5,0.5 h 5 c 0.277,0 0.5,-0.223 0.5,-0.5 0,-0.277 -0.22838,-0.4457 -0.5,-0.5 l -5,-1 c -0.034,-0.007 -0.0674,-0.009 -0.0996,-0.006 z M 100,601 c -0.554,0 -1,0.446 -1,1 0,0.554 0.446,1 1,1 h 1 c 0.554,0 1,-0.446 1,-1 0,-0.554 -0.446,-1 -1,-1 z" fill="#000" transform="translate(8.0,8.0) translate(-104.0,-600.0)" /><path d="m 104,594.00195 a 0.50005,0.50005 0 0 0 -0.20898,0.0449 l -6.5,3 a 0.5,0.5 0 0 0 -0.24414,0.6621 0.5,0.5 0 0 0 0.6621,0.24414 L 104,595.05078 l 6.29102,2.90234 a 0.5,0.5 0 0 0 0.6621,-0.24414 0.5,0.5 0 0 0 -0.24414,-0.6621 l -6.5,-3 A 0.50005,0.50005 0 0 0 104,594.00195 Z M 97.47852,600 C 97.21329,600 97,600.223 97,600.5 v 5 c 0,0.277 0.21329,0.5 0.47852,0.5 h 0.043 C 97.78671,606 98,605.777 98,605.5 V 605 h 12 v 0.5 c 0,0.277 0.223,0.5 0.5,0.5 0.277,0 0.5,-0.223 0.5,-0.5 v -3 c 0,-0.277 -0.223,-0.5 -0.5,-0.5 -0.277,0 -0.5,0.223 -0.5,0.5 V 604 H 98 v -3.5 c 0,-0.277 -0.21329,-0.5 -0.47852,-0.5 z m 5.92187,0.99414 C 103.17471,601.01462 103,601.25763 103,601.5 v 1 c 0,0.277 0.223,0.5 0.5,0.5 h 5 c 0.277,0 0.5,-0.223 0.5,-0.5 0,-0.277 -0.22838,-0.4457 -0.5,-0.5 l -5,-1 c -0.034,-0.007 -0.0674,-0.009 -0.0996,-0.006 z M 100,601 c -0.554,0 -1,0.446 -1,1 0,0.554 0.446,1 1,1 h 1 c 0.554,0 1,-0.446 1,-1 0,-0.554 -0.446,-1 -1,-1 z" fill="#000" transform="translate(8.0,8.0) translate(-104.0,-600.0)" /></svg>