<?xml version="1.0" encoding="utf-8" ?>
<svg baseProfile="full" height="16" version="1.1" width="16" xmlns="http://www.w3.org/2000/svg" xmlns:ev="http://www.w3.org/2001/xml-events" xmlns:xlink="http://www.w3.org/1999/xlink"><defs /><path d="M 1.5,594 A 0.5,0.5 0 0 0 1,594.5 0.5,0.5 0 0 0 1.5,595 h 13 A 0.5,0.5 0 0 0 15,594.5 0.5,0.5 0 0 0 14.5,594 Z m 0,2 A 0.5,0.5 0 0 0 1,596.5 v 4 2 A 0.5,0.5 0 0 0 1.5,603 0.5,0.5 0 0 0 2,602.5 V 601 h 12 v 1.5 a 0.5,0.5 0 0 0 0.5,0.5 0.5,0.5 0 0 0 0.5,-0.5 v -4 A 0.5,0.5 0 0 0 14.5,598 0.5,0.5 0 0 0 14,598.5 V 600 H 2 v -3.5 A 0.5,0.5 0 0 0 1.5,596 Z m 2.5,1 a 1,1 0 0 0 -1,1 1,1 0 0 0 1,1 h 1 a 1,1 0 0 0 1,-1 1,1 0 0 0 -1,-1 z m 3.451172,0.002 A 0.50005,0.50005 0 0 0 7,597.5 v 1 a 0.50005,0.50005 0 0 0 0.5,0.5 h 5 a 0.50005,0.50005 0 0 0 0.09766,-0.99023 l -5,-1 a 0.50005,0.50005 0 0 0 -0.146484,-0.008 z M 1.5,604 A 0.5,0.5 0 0 0 1,604.5 0.5,0.5 0 0 0 1.5,605 h 13 A 0.5,0.5 0 0 0 15,604.5 0.5,0.5 0 0 0 14.5,604 Z" fill="#000" transform="translate(8.0,8.0) translate(-8.0,-600.0)" /><path d="M 1.5,594 A 0.5,0.5 0 0 0 1,594.5 0.5,0.5 0 0 0 1.5,595 h 13 A 0.5,0.5 0 0 0 15,594.5 0.5,0.5 0 0 0 14.5,594 Z m 0,2 A 0.5,0.5 0 0 0 1,596.5 v 4 2 A 0.5,0.5 0 0 0 1.5,603 0.5,0.5 0 0 0 2,602.5 V 601 h 12 v 1.5 a 0.5,0.5 0 0 0 0.5,0.5 0.5,0.5 0 0 0 0.5,-0.5 v -4 A 0.5,0.5 0 0 0 14.5,598 0.5,0.5 0 0 0 14,598.5 V 600 H 2 v -3.5 A 0.5,0.5 0 0 0 1.5,596 Z m 2.5,1 a 1,1 0 0 0 -1,1 1,1 0 0 0 1,1 h 1 a 1,1 0 0 0 1,-1 1,1 0 0 0 -1,-1 z m 3.451172,0.002 A 0.50005,0.50005 0 0 0 7,597.5 v 1 a 0.50005,0.50005 0 0 0 0.5,0.5 h 5 a 0.50005,0.50005 0 0 0 0.09766,-0.99023 l -5,-1 a 0.50005,0.50005 0 0 0 -0.146484,-0.008 z M 1.5,604 A 0.5,0.5 0 0 0 1,604.5 0.5,0.5 0 0 0 1.5,605 h 13 A 0.5,0.5 0 0 0 15,604.5 0.5,0.5 0 0 0 14.5,604 Z" fill="#000" transform="translate(8.0,8.0) translate(-8.0,-600.0)" /></svg>