<?xml version="1.0" encoding="utf-8" ?>
<svg baseProfile="full" height="16" version="1.1" width="16" xmlns="http://www.w3.org/2000/svg" xmlns:ev="http://www.w3.org/2001/xml-events" xmlns:xlink="http://www.w3.org/1999/xlink"><defs /><path d="m 52,82 v 11 h 7 v -2 h 0.90625 0.0937 v -0.0312 c 0.54727,0.0521 1.06536,-0.1396 1.40625,-0.5 C 61.76971,90.08444 62,89.55159 62,89 v -3 c 0,-1.09865 -0.84338,-2 -2,-2 h -1 v -2 z m 1.5,1 h 1 3 c 0.277,0 0.5,0.223 0.5,0.5 0,0.277 -0.223,0.5 -0.5,0.5 H 56 c -0.55228,0 -1,0.44772 -1,1 v 2.5 C 55,87.777 54.777,88 54.5,88 54.223,88 54,87.777 54,87.5 V 86.5625 C 54.003,86.5409 54,86.5224 54,86.5 54,86.25931 53.82033,86.07885 53.59375,86.03125 53.56115,86.01055 53.5346,86 53.5,86 53.223,86 53,85.777 53,85.5 v -2 C 53,83.223 53.223,83 53.5,83 Z m 5.5,2 h 1 c 0.55821,0 1,0.44179 1,1 v 3 c 0,0.27684 -0.13025,0.58857 -0.3125,0.78125 C 60.50525,89.97393 60.32194,90.03803 60.09375,90 h -0.0625 -0.0312 -1 z" fill="#000" transform="translate(8.0,8.0) translate(-56.0,-88.0)" /><path d="m 52,82 v 11 h 7 v -2 h 0.90625 0.0937 v -0.0312 c 0.54727,0.0521 1.06536,-0.1396 1.40625,-0.5 C 61.76971,90.08444 62,89.55159 62,89 v -3 c 0,-1.09865 -0.84338,-2 -2,-2 h -1 v -2 z m 1.5,1 h 1 3 c 0.277,0 0.5,0.223 0.5,0.5 0,0.277 -0.223,0.5 -0.5,0.5 H 56 c -0.55228,0 -1,0.44772 -1,1 v 2.5 C 55,87.777 54.777,88 54.5,88 54.223,88 54,87.777 54,87.5 V 86.5625 C 54.003,86.5409 54,86.5224 54,86.5 54,86.25931 53.82033,86.07885 53.59375,86.03125 53.56115,86.01055 53.5346,86 53.5,86 53.223,86 53,85.777 53,85.5 v -2 C 53,83.223 53.223,83 53.5,83 Z m 5.5,2 h 1 c 0.55821,0 1,0.44179 1,1 v 3 c 0,0.27684 -0.13025,0.58857 -0.3125,0.78125 C 60.50525,89.97393 60.32194,90.03803 60.09375,90 h -0.0625 -0.0312 -1 z" fill="#000" transform="translate(8.0,8.0) translate(-56.0,-88.0)" /></svg>