<?xml version="1.0" encoding="utf-8" ?>
<svg baseProfile="full" height="16" version="1.1" width="16" xmlns="http://www.w3.org/2000/svg" xmlns:ev="http://www.w3.org/2001/xml-events" xmlns:xlink="http://www.w3.org/1999/xlink"><defs /><path d="m 411.5,466 a 1,1 0 0 0 -1,1 1,1 0 0 0 1,1 1,1 0 0 0 1,-1 1,1 0 0 0 -1,-1 z m -1.5,3 c -0.18961,1.7e-4 -0.36282,0.10757 -0.44727,0.27734 l -1.5,3 c -0.12275,0.24704 -0.0222,0.54681 0.22461,0.66993 0.24704,0.12275 0.54681,0.0222 0.66993,-0.22461 L 410,470.61719 V 472.5 c -1.6e-4,0.34142 0.33431,0.58259 0.6582,0.47461 l 3,-1 c 0.24758,-0.083 0.38964,-0.34243 0.32618,-0.5957 l -0.5,-2 C 413.42884,469.15652 413.22922,469.00036 413,469 h -2.5 z m -7.5,5 c -0.277,0 -0.5,0.223 -0.5,0.5 v 1 c 0,0.277 0.223,0.5 0.5,0.5 h 0.5 v 1.5 c 0,0.277 0.223,0.5 0.5,0.5 0.277,0 0.5,-0.223 0.5,-0.5 V 476 h 8 v 1.5 c 0,0.277 0.223,0.5 0.5,0.5 0.277,0 0.5,-0.223 0.5,-0.5 V 476 h 0.5 c 0.277,0 0.5,-0.223 0.5,-0.5 v -1 c 0,-0.277 -0.223,-0.5 -0.5,-0.5 z" fill="#000" transform="translate(8.0,8.0) translate(-408.0,-472.0)" /><path d="m 411.5,466 a 1,1 0 0 0 -1,1 1,1 0 0 0 1,1 1,1 0 0 0 1,-1 1,1 0 0 0 -1,-1 z m -1.5,3 c -0.18961,1.7e-4 -0.36282,0.10757 -0.44727,0.27734 l -1.5,3 c -0.12275,0.24704 -0.0222,0.54681 0.22461,0.66993 0.24704,0.12275 0.54681,0.0222 0.66993,-0.22461 L 410,470.61719 V 472.5 c -1.6e-4,0.34142 0.33431,0.58259 0.6582,0.47461 l 3,-1 c 0.24758,-0.083 0.38964,-0.34243 0.32618,-0.5957 l -0.5,-2 C 413.42884,469.15652 413.22922,469.00036 413,469 h -2.5 z m -7.5,5 c -0.277,0 -0.5,0.223 -0.5,0.5 v 1 c 0,0.277 0.223,0.5 0.5,0.5 h 0.5 v 1.5 c 0,0.277 0.223,0.5 0.5,0.5 0.277,0 0.5,-0.223 0.5,-0.5 V 476 h 8 v 1.5 c 0,0.277 0.223,0.5 0.5,0.5 0.277,0 0.5,-0.223 0.5,-0.5 V 476 h 0.5 c 0.277,0 0.5,-0.223 0.5,-0.5 v -1 c 0,-0.277 -0.223,-0.5 -0.5,-0.5 z" fill="#000" transform="translate(8.0,8.0) translate(-408.0,-472.0)" /></svg>