<?xml version="1.0" encoding="utf-8" ?>
<svg baseProfile="full" height="16" version="1.1" width="16" xmlns="http://www.w3.org/2000/svg" xmlns:ev="http://www.w3.org/2001/xml-events" xmlns:xlink="http://www.w3.org/1999/xlink"><defs /><path d="m 291.5,469 c -0.277,0 -0.5,0.223 -0.5,0.5 v 0.5 h -0.5 c -0.277,0 -0.5,0.223 -0.5,0.5 v 1 c 0,0.277 0.223,0.5 0.5,0.5 h 0.5 v 1.5 c 0,0.277 0.223,0.5 0.5,0.5 0.277,0 0.5,-0.223 0.5,-0.5 V 472 h 8 v 1.5 c 0,0.277 0.223,0.5 0.5,0.5 0.277,0 0.5,-0.223 0.5,-0.5 V 472 h 0.5 c 0.277,0 0.5,-0.223 0.5,-0.5 v -1 c 0,-0.277 -0.223,-0.5 -0.5,-0.5 H 301 v -0.5 c 0,-0.277 -0.223,-0.5 -0.5,-0.5 -0.277,0 -0.5,0.223 -0.5,0.5 v 0.5 h -8 v -0.5 c 0,-0.277 -0.223,-0.5 -0.5,-0.5 z" fill="#000" transform="translate(8.0,8.0) translate(-296.0,-472.0)" /><path d="m 291.5,469 c -0.277,0 -0.5,0.223 -0.5,0.5 v 0.5 h -0.5 c -0.277,0 -0.5,0.223 -0.5,0.5 v 1 c 0,0.277 0.223,0.5 0.5,0.5 h 0.5 v 1.5 c 0,0.277 0.223,0.5 0.5,0.5 0.277,0 0.5,-0.223 0.5,-0.5 V 472 h 8 v 1.5 c 0,0.277 0.223,0.5 0.5,0.5 0.277,0 0.5,-0.223 0.5,-0.5 V 472 h 0.5 c 0.277,0 0.5,-0.223 0.5,-0.5 v -1 c 0,-0.277 -0.223,-0.5 -0.5,-0.5 H 301 v -0.5 c 0,-0.277 -0.223,-0.5 -0.5,-0.5 -0.277,0 -0.5,0.223 -0.5,0.5 v 0.5 h -8 v -0.5 c 0,-0.277 -0.223,-0.5 -0.5,-0.5 z" fill="#000" transform="translate(8.0,8.0) translate(-296.0,-472.0)" /></svg>