<?xml version="1.0" encoding="utf-8" ?>
<svg baseProfile="full" height="16" version="1.1" width="16" xmlns="http://www.w3.org/2000/svg" xmlns:ev="http://www.w3.org/2001/xml-events" xmlns:xlink="http://www.w3.org/1999/xlink"><defs /><path d="m 341,148 a 0.50005,0.50005 0 0 0 -0.46484,0.31445 l -1,2.5 a 0.50005,0.50005 0 0 0 0.36718,0.67578 l 1.14844,0.23047 a 0.50005,0.50005 0 0 0 0.0332,0.0566 l 2,3 a 0.50005,0.50005 0 0 0 0.83985,-0.0117 L 346.27734,151 H 347 a 0.50005,0.50005 0 1 0 0,-1 h -0.91211 a 0.50005,0.50005 0 0 0 -0.11328,-0.006 0.50005,0.50005 0 0 0 -0.0488,0.006 H 345 a 0.50005,0.50005 0 1 0 0,1 h 0.0977 l -0.28321,0.45313 -4.12699,-0.82618 L 341.33789,149 H 342.5 a 0.50005,0.50005 0 1 0 0,-1 z m 1.43164,3.99609 1.81641,0.36329 -0.76172,1.21875 z M 339.5,152 c -1.37479,0 -2.5,1.12521 -2.5,2.5 0,1.37479 1.12521,2.5 2.5,2.5 1.37479,0 2.5,-1.12521 2.5,-2.5 0,-1.37479 -1.12521,-2.5 -2.5,-2.5 z m 8,0 c -1.37479,0 -2.5,1.12521 -2.5,2.5 0,1.37479 1.12521,2.5 2.5,2.5 1.37479,0 2.5,-1.12521 2.5,-2.5 0,-1.37479 -1.12521,-2.5 -2.5,-2.5 z m -8,1 c 0.83435,0 1.5,0.66565 1.5,1.5 0,0.83435 -0.66565,1.5 -1.5,1.5 -0.83435,0 -1.5,-0.66565 -1.5,-1.5 0,-0.83435 0.66565,-1.5 1.5,-1.5 z m 8,0 c 0.83435,0 1.5,0.66565 1.5,1.5 0,0.83435 -0.66565,1.5 -1.5,1.5 -0.83435,0 -1.5,-0.66565 -1.5,-1.5 0,-0.83435 0.66565,-1.5 1.5,-1.5 z" fill="#000" transform="translate(8.0,10.0) translate(-344.0,-152.0)" /><path d="m 179,182 -1,1 h 2 l 1,1 -1,1 h -2 l 1,1 h 2 l 1,-1 h 6 a 1,1 0 0 0 1,-1 1,1 0 0 0 -1,-1 h -6 l -1,-1 z" fill="#000" transform="translate(9.0,3.0) translate(-184.0,-184.0)" /><path d="m 341,148 a 0.50005,0.50005 0 0 0 -0.46484,0.31445 l -1,2.5 a 0.50005,0.50005 0 0 0 0.36718,0.67578 l 1.14844,0.23047 a 0.50005,0.50005 0 0 0 0.0332,0.0566 l 2,3 a 0.50005,0.50005 0 0 0 0.83985,-0.0117 L 346.27734,151 H 347 a 0.50005,0.50005 0 1 0 0,-1 h -0.91211 a 0.50005,0.50005 0 0 0 -0.11328,-0.006 0.50005,0.50005 0 0 0 -0.0488,0.006 H 345 a 0.50005,0.50005 0 1 0 0,1 h 0.0977 l -0.28321,0.45313 -4.12699,-0.82618 L 341.33789,149 H 342.5 a 0.50005,0.50005 0 1 0 0,-1 z m 1.43164,3.99609 1.81641,0.36329 -0.76172,1.21875 z M 339.5,152 c -1.37479,0 -2.5,1.12521 -2.5,2.5 0,1.37479 1.12521,2.5 2.5,2.5 1.37479,0 2.5,-1.12521 2.5,-2.5 0,-1.37479 -1.12521,-2.5 -2.5,-2.5 z m 8,0 c -1.37479,0 -2.5,1.12521 -2.5,2.5 0,1.37479 1.12521,2.5 2.5,2.5 1.37479,0 2.5,-1.12521 2.5,-2.5 0,-1.37479 -1.12521,-2.5 -2.5,-2.5 z m -8,1 c 0.83435,0 1.5,0.66565 1.5,1.5 0,0.83435 -0.66565,1.5 -1.5,1.5 -0.83435,0 -1.5,-0.66565 -1.5,-1.5 0,-0.83435 0.66565,-1.5 1.5,-1.5 z m 8,0 c 0.83435,0 1.5,0.66565 1.5,1.5 0,0.83435 -0.66565,1.5 -1.5,1.5 -0.83435,0 -1.5,-0.66565 -1.5,-1.5 0,-0.83435 0.66565,-1.5 1.5,-1.5 z" fill="#000" transform="translate(8.0,10.0) translate(-344.0,-152.0)" /><path d="m 179,182 -1,1 h 2 l 1,1 -1,1 h -2 l 1,1 h 2 l 1,-1 h 6 a 1,1 0 0 0 1,-1 1,1 0 0 0 -1,-1 h -6 l -1,-1 z" fill="#000" transform="translate(9.0,3.0) translate(-184.0,-184.0)" /></svg>