<?xml version="1.0" encoding="utf-8" ?>
<svg baseProfile="full" height="16" version="1.1" width="16" xmlns="http://www.w3.org/2000/svg" xmlns:ev="http://www.w3.org/2001/xml-events" xmlns:xlink="http://www.w3.org/1999/xlink"><defs /><path d="m 645.49999,434.99999 a 1.5,1.5 0 0 0 -1.35743,0.86523 l -2.70507,4.57227 0.01,-0.006 a 3.0000021,3.0000021 0 0 0 -0.44747,1.56856 3.0000021,3.0000021 0 0 0 3,3 3.0000021,3.0000021 0 0 0 3,-3 0.49999994,0.49999994 0 0 1 0.5,-0.5 0.49999994,0.49999994 0 0 1 0.5,0.5 3.0000021,3.0000021 0 0 0 3,3 3.0000021,3.0000021 0 0 0 3,-3 3.0000021,3.0000021 0 0 0 -0.44336,-1.5664 l 0.006,0.004 -2.70508,-4.57226 a 1.5,1.5 0 0 0 -1.35756,-0.86533 1.5,1.5 0 0 0 -1.5,1.50001 0.49999994,0.49999994 0 0 1 -0.5,0.49999 0.49999994,0.49999994 0 0 1 -0.5,-0.49999 1.5,1.5 0 0 0 -1.5,-1.50001 z m -1.5,5 a 1.9999999,1.9999999 0 0 1 2,1.99999 1.9999999,1.9999999 0 0 1 -2,2 1.9999999,1.9999999 0 0 1 -2,-2 1.9999999,1.9999999 0 0 1 2,-1.99999 z m 7,0 a 1.9999999,1.9999998 0 0 1 1.99999,1.99999 1.9999999,1.9999998 0 0 1 -1.99999,2 1.9999999,1.9999998 0 0 1 -2,-2 1.9999999,1.9999998 0 0 1 2,-1.99999 z" fill="#000" transform="translate(8.0,8.0) translate(-648.0,-440.0)" /><path d="m 645.49999,434.99999 a 1.5,1.5 0 0 0 -1.35743,0.86523 l -2.70507,4.57227 0.01,-0.006 a 3.0000021,3.0000021 0 0 0 -0.44747,1.56856 3.0000021,3.0000021 0 0 0 3,3 3.0000021,3.0000021 0 0 0 3,-3 0.49999994,0.49999994 0 0 1 0.5,-0.5 0.49999994,0.49999994 0 0 1 0.5,0.5 3.0000021,3.0000021 0 0 0 3,3 3.0000021,3.0000021 0 0 0 3,-3 3.0000021,3.0000021 0 0 0 -0.44336,-1.5664 l 0.006,0.004 -2.70508,-4.57226 a 1.5,1.5 0 0 0 -1.35756,-0.86533 1.5,1.5 0 0 0 -1.5,1.50001 0.49999994,0.49999994 0 0 1 -0.5,0.49999 0.49999994,0.49999994 0 0 1 -0.5,-0.49999 1.5,1.5 0 0 0 -1.5,-1.50001 z m -1.5,5 a 1.9999999,1.9999999 0 0 1 2,1.99999 1.9999999,1.9999999 0 0 1 -2,2 1.9999999,1.9999999 0 0 1 -2,-2 1.9999999,1.9999999 0 0 1 2,-1.99999 z m 7,0 a 1.9999999,1.9999998 0 0 1 1.99999,1.99999 1.9999999,1.9999998 0 0 1 -1.99999,2 1.9999999,1.9999998 0 0 1 -2,-2 1.9999999,1.9999998 0 0 1 2,-1.99999 z" fill="#000" transform="translate(8.0,8.0) translate(-648.0,-440.0)" /></svg>