<?xml version="1.0" encoding="utf-8" ?>
<svg baseProfile="full" height="16" version="1.1" width="16" xmlns="http://www.w3.org/2000/svg" xmlns:ev="http://www.w3.org/2001/xml-events" xmlns:xlink="http://www.w3.org/1999/xlink"><defs /><path d="m 661.5,434 a 1.5,1.5 0 0 0 -1.02734,0.4082 h -0.002 l -0.0156,0.0156 -2.51563,2.39844 A 3.0000021,3.0000021 0 0 0 657,439 a 3.0000021,3.0000021 0 0 0 3,3 3.0000021,3.0000021 0 0 0 3,-3 0.49999994,0.49999994 0 0 1 0.5,-0.5 0.49999994,0.49999994 0 0 1 0.5,0.5 3.0000021,3.0000021 0 0 0 3,3 3.0000021,3.0000021 0 0 0 3,-3 3.0000021,3.0000021 0 0 0 -0.86328,-2.10547 h -0.002 l -2.60547,-2.48633 -0.002,0.002 A 1.5,1.5 0 0 0 665.5,434 a 1.5,1.5 0 0 0 -1.5,1.5 0.49999994,0.49999994 0 0 1 -0.5,0.5 0.49999994,0.49999994 0 0 1 -0.5,-0.5 1.5,1.5 0 0 0 -1.5,-1.5 z m -1.5,3 a 1.9999999,1.9999999 0 0 1 2,2 1.9999999,1.9999999 0 0 1 -2,2 1.9999999,1.9999999 0 0 1 -2,-2 1.9999999,1.9999999 0 0 1 2,-2 z m 7,0 a 1.9999999,1.9999998 0 0 1 2,2 1.9999999,1.9999998 0 0 1 -2,2 1.9999999,1.9999998 0 0 1 -2,-2 1.9999999,1.9999998 0 0 1 2,-2 z m -3.50391,3.92188 A 4,4 0 0 1 662,442.45898 V 445 h 3 v -2.54102 a 4,4 0 0 1 -1.50391,-1.5371 z" fill="#000" transform="translate(8.0,8.0) translate(-664.0,-440.0)" /><path d="m 661.5,434 a 1.5,1.5 0 0 0 -1.02734,0.4082 h -0.002 l -0.0156,0.0156 -2.51563,2.39844 A 3.0000021,3.0000021 0 0 0 657,439 a 3.0000021,3.0000021 0 0 0 3,3 3.0000021,3.0000021 0 0 0 3,-3 0.49999994,0.49999994 0 0 1 0.5,-0.5 0.49999994,0.49999994 0 0 1 0.5,0.5 3.0000021,3.0000021 0 0 0 3,3 3.0000021,3.0000021 0 0 0 3,-3 3.0000021,3.0000021 0 0 0 -0.86328,-2.10547 h -0.002 l -2.60547,-2.48633 -0.002,0.002 A 1.5,1.5 0 0 0 665.5,434 a 1.5,1.5 0 0 0 -1.5,1.5 0.49999994,0.49999994 0 0 1 -0.5,0.5 0.49999994,0.49999994 0 0 1 -0.5,-0.5 1.5,1.5 0 0 0 -1.5,-1.5 z m -1.5,3 a 1.9999999,1.9999999 0 0 1 2,2 1.9999999,1.9999999 0 0 1 -2,2 1.9999999,1.9999999 0 0 1 -2,-2 1.9999999,1.9999999 0 0 1 2,-2 z m 7,0 a 1.9999999,1.9999998 0 0 1 2,2 1.9999999,1.9999998 0 0 1 -2,2 1.9999999,1.9999998 0 0 1 -2,-2 1.9999999,1.9999998 0 0 1 2,-2 z m -3.50391,3.92188 A 4,4 0 0 1 662,442.45898 V 445 h 3 v -2.54102 a 4,4 0 0 1 -1.50391,-1.5371 z" fill="#000" transform="translate(8.0,8.0) translate(-664.0,-440.0)" /></svg>