<?xml version="1.0" encoding="utf-8" ?>
<svg baseProfile="full" height="16" version="1.1" width="16" xmlns="http://www.w3.org/2000/svg" xmlns:ev="http://www.w3.org/2001/xml-events" xmlns:xlink="http://www.w3.org/1999/xlink"><defs /><path d="m 228,499 c -1.108,0 -2,0.892 -2,2 v 1 1.5 c 0,0.277 0.223,0.5 0.5,0.5 h 4 c 0.277,0 0.5,-0.223 0.5,-0.5 v -1.5 -1 c 0,-1.108 -0.892,-2 -2,-2 z m 7,0 c -1.108,0 -2,0.892 -2,2 v 1 1.5 c 0,0.277 0.223,0.5 0.5,0.5 h 4 c 0.277,0 0.5,-0.223 0.5,-0.5 v -1.5 -1 c 0,-1.108 -0.892,-2 -2,-2 z m -9,6 c -0.277,0 -0.5,0.21376 -0.5,0.47852 v 0.043 c 0,0.26476 0.223,0.47852 0.5,0.47852 h 2 v 1 h -2.5 c -0.277,0 -0.5,0.21376 -0.5,0.47852 v 0.043 c 0,0.26476 0.223,0.47852 0.5,0.47852 h 13 c 0.277,0 0.5,-0.21376 0.5,-0.47852 v -0.043 C 239,507.21376 238.777,507 238.5,507 H 236 v -1 h 2 c 0.277,0 0.5,-0.21376 0.5,-0.47852 v -0.043 C 238.5,505.21376 238.277,505 238,505 h -5 c -0.277,0 -0.5,0.21376 -0.5,0.47852 v 0.043 c 0,0.26476 0.223,0.47852 0.5,0.47852 h 2 v 1 h -6 v -1 h 2 c 0.277,0 0.5,-0.21376 0.5,-0.47852 v -0.043 C 231.5,505.21376 231.277,505 231,505 Z" fill="#000" transform="translate(8.0,8.0) translate(-232.0,-504.0)" /><path d="m 228,499 c -1.108,0 -2,0.892 -2,2 v 1 1.5 c 0,0.277 0.223,0.5 0.5,0.5 h 4 c 0.277,0 0.5,-0.223 0.5,-0.5 v -1.5 -1 c 0,-1.108 -0.892,-2 -2,-2 z m 7,0 c -1.108,0 -2,0.892 -2,2 v 1 1.5 c 0,0.277 0.223,0.5 0.5,0.5 h 4 c 0.277,0 0.5,-0.223 0.5,-0.5 v -1.5 -1 c 0,-1.108 -0.892,-2 -2,-2 z m -9,6 c -0.277,0 -0.5,0.21376 -0.5,0.47852 v 0.043 c 0,0.26476 0.223,0.47852 0.5,0.47852 h 2 v 1 h -2.5 c -0.277,0 -0.5,0.21376 -0.5,0.47852 v 0.043 c 0,0.26476 0.223,0.47852 0.5,0.47852 h 13 c 0.277,0 0.5,-0.21376 0.5,-0.47852 v -0.043 C 239,507.21376 238.777,507 238.5,507 H 236 v -1 h 2 c 0.277,0 0.5,-0.21376 0.5,-0.47852 v -0.043 C 238.5,505.21376 238.277,505 238,505 h -5 c -0.277,0 -0.5,0.21376 -0.5,0.47852 v 0.043 c 0,0.26476 0.223,0.47852 0.5,0.47852 h 2 v 1 h -6 v -1 h 2 c 0.277,0 0.5,-0.21376 0.5,-0.47852 v -0.043 C 231.5,505.21376 231.277,505 231,505 Z" fill="#000" transform="translate(8.0,8.0) translate(-232.0,-504.0)" /></svg>