<?xml version="1.0" encoding="utf-8" ?>
<svg baseProfile="full" height="16" version="1.1" width="16" xmlns="http://www.w3.org/2000/svg" xmlns:ev="http://www.w3.org/2001/xml-events" xmlns:xlink="http://www.w3.org/1999/xlink"><defs /><path d="M 677.48438,532 C 677.21603,532 677,532.223 677,532.5 v 5 c 0,0.277 0.21603,0.5 0.48438,0.5 h 5.03124 C 682.78397,538 683,537.777 683,537.5 v -5 c 0,-0.277 -0.21603,-0.5 -0.48438,-0.5 z M 673.5,539 c -0.277,0 -0.5,0.21603 -0.5,0.48438 v 0.0312 c 0,0.26835 0.223,0.48438 0.5,0.48438 h 13 c 0.277,0 0.5,-0.21603 0.5,-0.48438 v -0.0312 C 687,539.21603 686.777,539 686.5,539 Z" fill="#000" transform="translate(8.0,8.0) translate(-680.0,-536.0)" /><path d="M 677.48438,532 C 677.21603,532 677,532.223 677,532.5 v 5 c 0,0.277 0.21603,0.5 0.48438,0.5 h 5.03124 C 682.78397,538 683,537.777 683,537.5 v -5 c 0,-0.277 -0.21603,-0.5 -0.48438,-0.5 z M 673.5,539 c -0.277,0 -0.5,0.21603 -0.5,0.48438 v 0.0312 c 0,0.26835 0.223,0.48438 0.5,0.48438 h 13 c 0.277,0 0.5,-0.21603 0.5,-0.48438 v -0.0312 C 687,539.21603 686.777,539 686.5,539 Z" fill="#000" transform="translate(8.0,8.0) translate(-680.0,-536.0)" /></svg>