<?xml version="1.0" encoding="utf-8" ?>
<svg baseProfile="full" height="16" version="1.1" width="16" xmlns="http://www.w3.org/2000/svg" xmlns:ev="http://www.w3.org/2001/xml-events" xmlns:xlink="http://www.w3.org/1999/xlink"><defs /><path d="m 722.5,434 c -0.277,0 -0.5,0.223 -0.5,0.5 0,0.277 0.223,0.5 0.5,0.5 h 10 c 0.277,0 0.5,-0.223 0.5,-0.5 0,-0.277 -0.223,-0.5 -0.5,-0.5 z m 7.6465,1.99414 c -0.064,-0.009 -0.1323,-0.004 -0.1992,0.0137 l -0.9649,0.25781 c -0.2675,0.0717 -0.4252,0.34572 -0.3535,0.61329 l 1.8105,6.75976 c 0.072,0.26756 0.3458,0.42716 0.6133,0.35547 l 0.9649,-0.25976 c 0.2675,-0.0717 0.4252,-0.34572 0.3535,-0.61329 l -1.8105,-6.75976 c -0.054,-0.20067 -0.2211,-0.34054 -0.4141,-0.36719 z M 723.5,436 c -0.277,0 -0.5,0.223 -0.5,0.5 v 7 c 0,0.277 0.223,0.5 0.5,0.5 h 1 c 0.277,0 0.5,-0.223 0.5,-0.5 v -7 c 0,-0.277 -0.223,-0.5 -0.5,-0.5 z m 3,0 c -0.277,0 -0.5,0.223 -0.5,0.5 v 7 c 0,0.277 0.223,0.5 0.5,0.5 h 1 c 0.277,0 0.5,-0.223 0.5,-0.5 v -7 c 0,-0.277 -0.223,-0.5 -0.5,-0.5 z m -4,9 c -0.277,0 -0.5,0.223 -0.5,0.5 0,0.277 0.223,0.5 0.5,0.5 h 10 c 0.277,0 0.5,-0.223 0.5,-0.5 0,-0.277 -0.223,-0.5 -0.5,-0.5 z" fill="#000" transform="translate(8.0,8.0) translate(-728.0,-440.0)" /><path d="m 722.5,434 c -0.277,0 -0.5,0.223 -0.5,0.5 0,0.277 0.223,0.5 0.5,0.5 h 10 c 0.277,0 0.5,-0.223 0.5,-0.5 0,-0.277 -0.223,-0.5 -0.5,-0.5 z m 7.6465,1.99414 c -0.064,-0.009 -0.1323,-0.004 -0.1992,0.0137 l -0.9649,0.25781 c -0.2675,0.0717 -0.4252,0.34572 -0.3535,0.61329 l 1.8105,6.75976 c 0.072,0.26756 0.3458,0.42716 0.6133,0.35547 l 0.9649,-0.25976 c 0.2675,-0.0717 0.4252,-0.34572 0.3535,-0.61329 l -1.8105,-6.75976 c -0.054,-0.20067 -0.2211,-0.34054 -0.4141,-0.36719 z M 723.5,436 c -0.277,0 -0.5,0.223 -0.5,0.5 v 7 c 0,0.277 0.223,0.5 0.5,0.5 h 1 c 0.277,0 0.5,-0.223 0.5,-0.5 v -7 c 0,-0.277 -0.223,-0.5 -0.5,-0.5 z m 3,0 c -0.277,0 -0.5,0.223 -0.5,0.5 v 7 c 0,0.277 0.223,0.5 0.5,0.5 h 1 c 0.277,0 0.5,-0.223 0.5,-0.5 v -7 c 0,-0.277 -0.223,-0.5 -0.5,-0.5 z m -4,9 c -0.277,0 -0.5,0.223 -0.5,0.5 0,0.277 0.223,0.5 0.5,0.5 h 10 c 0.277,0 0.5,-0.223 0.5,-0.5 0,-0.277 -0.223,-0.5 -0.5,-0.5 z" fill="#000" transform="translate(8.0,8.0) translate(-728.0,-440.0)" /></svg>