<?xml version="1.0" encoding="utf-8" ?>
<svg baseProfile="full" height="16" version="1.1" width="16" xmlns="http://www.w3.org/2000/svg" xmlns:ev="http://www.w3.org/2001/xml-events" xmlns:xlink="http://www.w3.org/1999/xlink"><defs /><path d="m 502,49 c -0.277,0 -0.5,0.223 -0.5,0.5 0,0.277 0.223,0.5 0.5,0.5 h 1 v 4.83203 l -2.90039,3.86719 a 0.50005,0.50005 0 0 0 0.49805,0.79101 L 503.04883,59 h 0.45117 1.45117 l 2.45117,0.49023 a 0.50005,0.50005 0 0 0 0.49805,-0.79101 L 505,54.83203 V 50 h 1 c 0.277,0 0.5,-0.223 0.5,-0.5 0,-0.277 -0.223,-0.5 -0.5,-0.5 h -1 -1 z m 1,7.50195 V 58 a 0.50005,0.50005 0 0 0 -0.0977,0.01 l -1.2168,0.24391 z m 2,0 1.31445,1.75196 -1.21679,-0.24414 A 0.50005,0.50005 0 0 0 505,58 Z M 503.5,60 c -1.5,1.5 0.5,3 0.5,3 0,0 2,-1.5 0.5,-3 -0.5,0.5 -0.5,0.5 -1,0 z" fill="#000" transform="translate(8.0,8.0) translate(-504.0,-56.0)" /><path d="m 502,49 c -0.277,0 -0.5,0.223 -0.5,0.5 0,0.277 0.223,0.5 0.5,0.5 h 1 v 4.83203 l -2.90039,3.86719 a 0.50005,0.50005 0 0 0 0.49805,0.79101 L 503.04883,59 h 0.45117 1.45117 l 2.45117,0.49023 a 0.50005,0.50005 0 0 0 0.49805,-0.79101 L 505,54.83203 V 50 h 1 c 0.277,0 0.5,-0.223 0.5,-0.5 0,-0.277 -0.223,-0.5 -0.5,-0.5 h -1 -1 z m 1,7.50195 V 58 a 0.50005,0.50005 0 0 0 -0.0977,0.01 l -1.2168,0.24391 z m 2,0 1.31445,1.75196 -1.21679,-0.24414 A 0.50005,0.50005 0 0 0 505,58 Z M 503.5,60 c -1.5,1.5 0.5,3 0.5,3 0,0 2,-1.5 0.5,-3 -0.5,0.5 -0.5,0.5 -1,0 z" fill="#000" transform="translate(8.0,8.0) translate(-504.0,-56.0)" /></svg>