<?xml version="1.0" encoding="utf-8" ?>
<svg baseProfile="full" height="16" version="1.1" width="16" xmlns="http://www.w3.org/2000/svg" xmlns:ev="http://www.w3.org/2001/xml-events" xmlns:xlink="http://www.w3.org/1999/xlink"><defs /><path d="m 132,81 v 2 c 0,2.728461 -1.64974,2.157604 -1.94922,4.287109 C 130.02002,87.35207 130,87.4231 130,87.5 v 0.5 2 4.5 c 0,0.277 0.223,0.5 0.5,0.5 h 5 c 0.277,0 0.5,-0.223 0.5,-0.5 V 90 88 87.5 c 0,-0.0769 -0.02,-0.14793 -0.0508,-0.212891 C 135.64974,85.157604 134,85.728461 134,83 v -2 z m 6,5 c -0.004,0.999576 -0.5,3 0,4 0.5,1 1,1 1,2 v 2.5 c -0.5,0 -1,0 -1,0.5 h 3 c 0,-0.5 -0.5,-0.5 -1,-0.5 V 92 c 0,-1 0.5,-1 1,-2 0.5,-1 8.9e-4,-3.000068 0,-4 z m -7,3 h 4 v 2 h -4 z" fill="#000" transform="translate(8.0,8.0) translate(-136.0,-88.0)" /><path d="m 132,81 v 2 c 0,2.728461 -1.64974,2.157604 -1.94922,4.287109 C 130.02002,87.35207 130,87.4231 130,87.5 v 0.5 2 4.5 c 0,0.277 0.223,0.5 0.5,0.5 h 5 c 0.277,0 0.5,-0.223 0.5,-0.5 V 90 88 87.5 c 0,-0.0769 -0.02,-0.14793 -0.0508,-0.212891 C 135.64974,85.157604 134,85.728461 134,83 v -2 z m 6,5 c -0.004,0.999576 -0.5,3 0,4 0.5,1 1,1 1,2 v 2.5 c -0.5,0 -1,0 -1,0.5 h 3 c 0,-0.5 -0.5,-0.5 -1,-0.5 V 92 c 0,-1 0.5,-1 1,-2 0.5,-1 8.9e-4,-3.000068 0,-4 z m -7,3 h 4 v 2 h -4 z" fill="#000" transform="translate(8.0,8.0) translate(-136.0,-88.0)" /></svg>