<?xml version="1.0" encoding="utf-8" ?>
<svg baseProfile="full" height="16" version="1.1" width="16" xmlns="http://www.w3.org/2000/svg" xmlns:ev="http://www.w3.org/2001/xml-events" xmlns:xlink="http://www.w3.org/1999/xlink"><defs /><path d="m 119,81 v 2 c 0,2.72846 -1.64974,2.1576 -1.94922,4.28711 C 117.02002,87.35207 117,87.4231 117,87.5 v 0.5 2 4.5 c 0,0.277 0.223,0.5 0.5,0.5 h 5 c 0.277,0 0.5,-0.223 0.5,-0.5 V 90 88 87.5 c 0,-0.0769 -0.02,-0.14793 -0.0508,-0.21289 C 122.64974,85.1576 121,85.72846 121,83 v -2 z m -1,8 h 4 v 2 h -4 z" fill="#000" transform="translate(8.0,8.0) translate(-120.0,-88.0)" /><path d="m 119,81 v 2 c 0,2.72846 -1.64974,2.1576 -1.94922,4.28711 C 117.02002,87.35207 117,87.4231 117,87.5 v 0.5 2 4.5 c 0,0.277 0.223,0.5 0.5,0.5 h 5 c 0.277,0 0.5,-0.223 0.5,-0.5 V 90 88 87.5 c 0,-0.0769 -0.02,-0.14793 -0.0508,-0.21289 C 122.64974,85.1576 121,85.72846 121,83 v -2 z m -1,8 h 4 v 2 h -4 z" fill="#000" transform="translate(8.0,8.0) translate(-120.0,-88.0)" /></svg>