<?xml version="1.0" encoding="utf-8" ?>
<svg baseProfile="full" height="16" version="1.1" width="16" xmlns="http://www.w3.org/2000/svg" xmlns:ev="http://www.w3.org/2001/xml-events" xmlns:xlink="http://www.w3.org/1999/xlink"><defs /><path d="M 23.5,19 A 4.5,4.5 0 0 0 19,23.5 4.5,4.5 0 0 0 23.5,28 4.5,4.5 0 0 0 28,23.5 4.5,4.5 0 0 0 23.5,19 Z m 0,0.77344 A 0.72727275,0.72727275 0 0 1 24.22656,20.5 0.72727275,0.72727275 0 0 1 23.5,21.22656 0.72727275,0.72727275 0 0 1 22.77344,20.5 0.72727275,0.72727275 0 0 1 23.5,19.77344 Z m -2,1 A 0.72727275,0.72727275 0 0 1 22.22656,21.5 0.72727275,0.72727275 0 0 1 21.5,22.22656 0.72727275,0.72727275 0 0 1 20.77344,21.5 0.72727275,0.72727275 0 0 1 21.5,20.77344 Z m 2,1 A 0.72727275,0.72727275 0 0 1 24.22656,22.5 0.72727275,0.72727275 0 0 1 23.5,23.22656 0.72727275,0.72727275 0 0 1 22.77344,22.5 0.72727275,0.72727275 0 0 1 23.5,21.77344 Z" fill="#000" transform="translate(8.0,8.0) translate(-24.0,-24.0)" /><path d="M 23.5,19 A 4.5,4.5 0 0 0 19,23.5 4.5,4.5 0 0 0 23.5,28 4.5,4.5 0 0 0 28,23.5 4.5,4.5 0 0 0 23.5,19 Z m 0,0.77344 A 0.72727275,0.72727275 0 0 1 24.22656,20.5 0.72727275,0.72727275 0 0 1 23.5,21.22656 0.72727275,0.72727275 0 0 1 22.77344,20.5 0.72727275,0.72727275 0 0 1 23.5,19.77344 Z m -2,1 A 0.72727275,0.72727275 0 0 1 22.22656,21.5 0.72727275,0.72727275 0 0 1 21.5,22.22656 0.72727275,0.72727275 0 0 1 20.77344,21.5 0.72727275,0.72727275 0 0 1 21.5,20.77344 Z m 2,1 A 0.72727275,0.72727275 0 0 1 24.22656,22.5 0.72727275,0.72727275 0 0 1 23.5,23.22656 0.72727275,0.72727275 0 0 1 22.77344,22.5 0.72727275,0.72727275 0 0 1 23.5,21.77344 Z" fill="#000" transform="translate(8.0,8.0) translate(-24.0,-24.0)" /></svg>