<?xml version="1.0" encoding="utf-8" ?>
<svg baseProfile="full" height="16" version="1.1" width="16" xmlns="http://www.w3.org/2000/svg" xmlns:ev="http://www.w3.org/2001/xml-events" xmlns:xlink="http://www.w3.org/1999/xlink"><defs /><path d="m 663,498 c -1.108,0 -2,0.892 -2,2 v 1 h -2 c -0.554,0 -1,0.446 -1,1 v 6 c 0,0.554 0.446,1 1,1 h 10 c 0.554,0 1,-0.446 1,-1 v -6 c 0,-0.554 -0.446,-1 -1,-1 h -2 v -1 c 0,-1.108 -0.892,-2 -2,-2 z m 0,1 h 2 c 0.554,0 1,0.446 1,1 v 1 h -4 v -1 c 0,-0.554 0.446,-1 1,-1 z" fill="#000" transform="translate(8.0,8.0) translate(-664.0,-504.0)" /><path d="m 663,498 c -1.108,0 -2,0.892 -2,2 v 1 h -2 c -0.554,0 -1,0.446 -1,1 v 6 c 0,0.554 0.446,1 1,1 h 10 c 0.554,0 1,-0.446 1,-1 v -6 c 0,-0.554 -0.446,-1 -1,-1 h -2 v -1 c 0,-1.108 -0.892,-2 -2,-2 z m 0,1 h 2 c 0.554,0 1,0.446 1,1 v 1 h -4 v -1 c 0,-0.554 0.446,-1 1,-1 z" fill="#000" transform="translate(8.0,8.0) translate(-664.0,-504.0)" /></svg>