<?xml version="1.0" encoding="utf-8" ?>
<svg baseProfile="full" height="16" version="1.1" width="16" xmlns="http://www.w3.org/2000/svg" xmlns:ev="http://www.w3.org/2001/xml-events" xmlns:xlink="http://www.w3.org/1999/xlink"><defs /><path d="m 612.5,275 c -0.277,0 -0.5,0.223 -0.5,0.5 v 2 c 0,0.277 0.223,0.5 0.5,0.5 0.277,0 0.5,-0.223 0.5,-0.5 V 277 h 1 c 1.108,0 2,0.892 2,2 v 2 c 0,1.108 -0.892,2 -2,2 h -2.5 c -0.277,0 -0.5,0.223 -0.5,0.5 0,0.277 0.223,0.5 0.5,0.5 h 9 c 0.0773,6.8e-4 0.15377,-0.0256 0.21875,-0.0625 0.007,-0.004 0.0245,0.004 0.0312,0 0.0711,-0.0464 0.11252,-0.11253 0.15625,-0.1875 0.0499,-0.0778 0.0938,-0.15035 0.0938,-0.25 0.004,-0.0623 -0.009,-0.12862 -0.0312,-0.1875 -0.009,-0.0204 -0.0201,-0.0436 -0.0312,-0.0625 l -2.5,-4.5 c -0.60223,-1.04309 -1.02171,-1.73675 -1.625,-2.1875 C 616.20921,276.11175 615.47912,276 614.5,276 h -1.49995 v -0.5 c 0,-0.277 -0.223,-0.5 -0.5,-0.5 z" fill="#000" transform="translate(8.0,8.0) translate(-616.0,-280.0)" /><path d="m 612.5,275 c -0.277,0 -0.5,0.223 -0.5,0.5 v 2 c 0,0.277 0.223,0.5 0.5,0.5 0.277,0 0.5,-0.223 0.5,-0.5 V 277 h 1 c 1.108,0 2,0.892 2,2 v 2 c 0,1.108 -0.892,2 -2,2 h -2.5 c -0.277,0 -0.5,0.223 -0.5,0.5 0,0.277 0.223,0.5 0.5,0.5 h 9 c 0.0773,6.8e-4 0.15377,-0.0256 0.21875,-0.0625 0.007,-0.004 0.0245,0.004 0.0312,0 0.0711,-0.0464 0.11252,-0.11253 0.15625,-0.1875 0.0499,-0.0778 0.0938,-0.15035 0.0938,-0.25 0.004,-0.0623 -0.009,-0.12862 -0.0312,-0.1875 -0.009,-0.0204 -0.0201,-0.0436 -0.0312,-0.0625 l -2.5,-4.5 c -0.60223,-1.04309 -1.02171,-1.73675 -1.625,-2.1875 C 616.20921,276.11175 615.47912,276 614.5,276 h -1.49995 v -0.5 c 0,-0.277 -0.223,-0.5 -0.5,-0.5 z" fill="#000" transform="translate(8.0,8.0) translate(-616.0,-280.0)" /></svg>