<?xml version="1.0" encoding="utf-8" ?>
<svg baseProfile="full" height="16" version="1.1" width="16" xmlns="http://www.w3.org/2000/svg" xmlns:ev="http://www.w3.org/2001/xml-events" xmlns:xlink="http://www.w3.org/1999/xlink"><defs /><path d="m 747.5,306 a 0.50005,0.50005 0 0 0 -0.35352,0.14648 L 746.29297,307 H 742.5 a 0.5,0.5 0 0 0 -0.5,0.5 0.5,0.5 0 0 0 0.5,0.5 h 0.5 v 1.5 c 0,0.277 0.223,0.5 0.5,0.5 0.277,0 0.5,-0.223 0.5,-0.5 V 308 h 3 v 10.5 c 0,0.277 0.223,0.5 0.5,0.5 h 1 c 0.277,0 0.5,-0.223 0.5,-0.5 V 308 h 0.5 a 0.50005,0.50005 0 0 0 0.5,-0.5 v -1 a 0.50005,0.50005 0 0 0 -0.5,-0.5 z m -9,2 c -0.277,0 -0.5,0.223 -0.5,0.5 v 1 9 c 0,0.277 0.223,0.5 0.5,0.5 h 6 c 0.0173,0 0.0339,-2.5e-4 0.0508,-0.002 C 744.80352,318.9725 745,318.75969 745,318.5 v -7 c 0,-0.277 -0.223,-0.5 -0.5,-0.5 -0.277,0 -0.5,0.223 -0.5,0.5 v 0.5 h -2 v -2.5 c 0,-0.0346 -0.003,-0.069 -0.01,-0.10156 -0.007,-0.0326 -0.0167,-0.0638 -0.0293,-0.0937 -0.0126,-0.0299 -0.0289,-0.0574 -0.0469,-0.084 -0.0179,-0.0266 -0.0379,-0.0516 -0.0605,-0.0742 -0.0226,-0.0226 -0.0476,-0.0426 -0.0742,-0.0605 -0.0266,-0.0179 -0.0541,-0.0343 -0.084,-0.0469 -0.0299,-0.0126 -0.0611,-0.0227 -0.0937,-0.0293 -0.0326,-0.007 -0.0669,-0.01 -0.10156,-0.01 H 739 v -0.5 c 0,-0.277 -0.223,-0.5 -0.5,-0.5 z m 0.5,2 h 2 v 2 h -2 z m 0,3 h 2 v 2 h -2 z m 3,0 h 2 v 2 h -2 z m -3,3 h 2 v 2 h -2 z m 3,0 h 2 v 2 h -2 z" fill="#000" transform="translate(8.0,8.0) translate(-744.0,-312.0)" /><path d="m 747.5,306 a 0.50005,0.50005 0 0 0 -0.35352,0.14648 L 746.29297,307 H 742.5 a 0.5,0.5 0 0 0 -0.5,0.5 0.5,0.5 0 0 0 0.5,0.5 h 0.5 v 1.5 c 0,0.277 0.223,0.5 0.5,0.5 0.277,0 0.5,-0.223 0.5,-0.5 V 308 h 3 v 10.5 c 0,0.277 0.223,0.5 0.5,0.5 h 1 c 0.277,0 0.5,-0.223 0.5,-0.5 V 308 h 0.5 a 0.50005,0.50005 0 0 0 0.5,-0.5 v -1 a 0.50005,0.50005 0 0 0 -0.5,-0.5 z m -9,2 c -0.277,0 -0.5,0.223 -0.5,0.5 v 1 9 c 0,0.277 0.223,0.5 0.5,0.5 h 6 c 0.0173,0 0.0339,-2.5e-4 0.0508,-0.002 C 744.80352,318.9725 745,318.75969 745,318.5 v -7 c 0,-0.277 -0.223,-0.5 -0.5,-0.5 -0.277,0 -0.5,0.223 -0.5,0.5 v 0.5 h -2 v -2.5 c 0,-0.0346 -0.003,-0.069 -0.01,-0.10156 -0.007,-0.0326 -0.0167,-0.0638 -0.0293,-0.0937 -0.0126,-0.0299 -0.0289,-0.0574 -0.0469,-0.084 -0.0179,-0.0266 -0.0379,-0.0516 -0.0605,-0.0742 -0.0226,-0.0226 -0.0476,-0.0426 -0.0742,-0.0605 -0.0266,-0.0179 -0.0541,-0.0343 -0.084,-0.0469 -0.0299,-0.0126 -0.0611,-0.0227 -0.0937,-0.0293 -0.0326,-0.007 -0.0669,-0.01 -0.10156,-0.01 H 739 v -0.5 c 0,-0.277 -0.223,-0.5 -0.5,-0.5 z m 0.5,2 h 2 v 2 h -2 z m 0,3 h 2 v 2 h -2 z m 3,0 h 2 v 2 h -2 z m -3,3 h 2 v 2 h -2 z m 3,0 h 2 v 2 h -2 z" fill="#000" transform="translate(8.0,8.0) translate(-744.0,-312.0)" /></svg>