<?xml version="1.0" encoding="utf-8" ?>
<svg baseProfile="full" height="16" version="1.1" width="16" xmlns="http://www.w3.org/2000/svg" xmlns:ev="http://www.w3.org/2001/xml-events" xmlns:xlink="http://www.w3.org/1999/xlink"><defs /><path d="m 690.5,307 c -0.277,0 -0.5,0.223 -0.5,0.5 v 5 c 0,0.277 0.223,0.5 0.5,0.5 h 7.5 v -2.5 c 0,-0.277 0.223,-0.5 0.5,-0.5 h 1 c 0.277,0 0.5,0.223 0.5,0.5 v 2.5 h 1.5 c 0.277,0 0.5,-0.223 0.5,-0.5 v -5 c 0,-0.277 -0.223,-0.5 -0.5,-0.5 z m 2,2 h 3 c 0.277,0 0.5,0.223 0.5,0.5 v 1 c 0,0.277 -0.223,0.5 -0.5,0.5 h -3 c -0.277,0 -0.5,-0.223 -0.5,-0.5 v -1 c 0,-0.277 0.223,-0.5 0.5,-0.5 z m -2.5,5 v 1 1 h 2 v -1 h 3 v 1 h 2 v -1 h 3 v 1 h 2 v -2 h -5 -2 z" fill="#000" transform="translate(8.0,8.0) translate(-696.0,-312.0)" /><path d="m 690.5,307 c -0.277,0 -0.5,0.223 -0.5,0.5 v 5 c 0,0.277 0.223,0.5 0.5,0.5 h 7.5 v -2.5 c 0,-0.277 0.223,-0.5 0.5,-0.5 h 1 c 0.277,0 0.5,0.223 0.5,0.5 v 2.5 h 1.5 c 0.277,0 0.5,-0.223 0.5,-0.5 v -5 c 0,-0.277 -0.223,-0.5 -0.5,-0.5 z m 2,2 h 3 c 0.277,0 0.5,0.223 0.5,0.5 v 1 c 0,0.277 -0.223,0.5 -0.5,0.5 h -3 c -0.277,0 -0.5,-0.223 -0.5,-0.5 v -1 c 0,-0.277 0.223,-0.5 0.5,-0.5 z m -2.5,5 v 1 1 h 2 v -1 h 3 v 1 h 2 v -1 h 3 v 1 h 2 v -2 h -5 -2 z" fill="#000" transform="translate(8.0,8.0) translate(-696.0,-312.0)" /></svg>