<?xml version="1.0" encoding="utf-8" ?>
<svg baseProfile="full" height="16" version="1.1" width="16" xmlns="http://www.w3.org/2000/svg" xmlns:ev="http://www.w3.org/2001/xml-events" xmlns:xlink="http://www.w3.org/1999/xlink"><defs /><path d="m 551.52734,401 c -0.28674,-0.0157 -0.52774,0.21283 -0.52734,0.5 v 4 c -3.3e-4,0.35387 0.35693,0.59611 0.68555,0.46484 l 5,-2 c 0.42097,-0.16693 0.42097,-0.76275 0,-0.92968 l -5,-2 c -0.0505,-0.0203 -0.10391,-0.0321 -0.15821,-0.0352 z M 550.5,407 c -0.18961,1.7e-4 -0.36282,0.10757 -0.44727,0.27734 l -2,4 c -0.16517,0.33222 0.0763,0.72229 0.44727,0.72266 h 6 c 0.37101,-3.7e-4 0.61244,-0.39044 0.44727,-0.72266 l -2,-4 C 552.86282,407.10757 552.68961,407.00017 552.5,407 Z m -3,6 c -0.27613,3e-5 -0.49997,0.22387 -0.5,0.5 v 1 c 3e-5,0.27613 0.22387,0.49997 0.5,0.5 h 8 c 0.27613,-3e-5 0.49997,-0.22387 0.5,-0.5 v -1 c -3e-5,-0.27613 -0.22387,-0.49997 -0.5,-0.5 z" fill="#000" transform="translate(8.0,8.0) translate(-552.0,-408.0)" /><path d="m 551.52734,401 c -0.28674,-0.0157 -0.52774,0.21283 -0.52734,0.5 v 4 c -3.3e-4,0.35387 0.35693,0.59611 0.68555,0.46484 l 5,-2 c 0.42097,-0.16693 0.42097,-0.76275 0,-0.92968 l -5,-2 c -0.0505,-0.0203 -0.10391,-0.0321 -0.15821,-0.0352 z M 550.5,407 c -0.18961,1.7e-4 -0.36282,0.10757 -0.44727,0.27734 l -2,4 c -0.16517,0.33222 0.0763,0.72229 0.44727,0.72266 h 6 c 0.37101,-3.7e-4 0.61244,-0.39044 0.44727,-0.72266 l -2,-4 C 552.86282,407.10757 552.68961,407.00017 552.5,407 Z m -3,6 c -0.27613,3e-5 -0.49997,0.22387 -0.5,0.5 v 1 c 3e-5,0.27613 0.22387,0.49997 0.5,0.5 h 8 c 0.27613,-3e-5 0.49997,-0.22387 0.5,-0.5 v -1 c -3e-5,-0.27613 -0.22387,-0.49997 -0.5,-0.5 z" fill="#000" transform="translate(8.0,8.0) translate(-552.0,-408.0)" /></svg>