<?xml version="1.0" encoding="utf-8" ?>
<svg baseProfile="full" height="16" version="1.1" width="16" xmlns="http://www.w3.org/2000/svg" xmlns:ev="http://www.w3.org/2001/xml-events" xmlns:xlink="http://www.w3.org/1999/xlink"><defs /><path d="m 6,83 c -1.662,0 -3,1.338 -3,3 h 10 c 0,-1.662 -1.338,-3 -3,-3 z M 2.5,87 C 2.223,87 2,87.21376 2,87.47852 v 0.043 C 2,87.78624 2.223,88 2.5,88 H 4.46289 L 8,89.92969 11.53711,88 H 13.5 c 0.277,0 0.5,-0.21376 0.5,-0.47852 v -0.043 C 14,87.21376 13.777,87 13.5,87 Z M 3,89 c 0,1.662 1.338,3 3,3 h 4 c 1.662,0 3,-1.338 3,-3 h -1.20312 l -3.55665,1.93945 a 0.50005,0.50005 0 0 1 -0.48046,0 L 4.20313,89 Z" fill="#000" transform="translate(8.0,8.0) translate(-8.0,-88.0)" /><path d="m 6,83 c -1.662,0 -3,1.338 -3,3 h 10 c 0,-1.662 -1.338,-3 -3,-3 z M 2.5,87 C 2.223,87 2,87.21376 2,87.47852 v 0.043 C 2,87.78624 2.223,88 2.5,88 H 4.46289 L 8,89.92969 11.53711,88 H 13.5 c 0.277,0 0.5,-0.21376 0.5,-0.47852 v -0.043 C 14,87.21376 13.777,87 13.5,87 Z M 3,89 c 0,1.662 1.338,3 3,3 h 4 c 1.662,0 3,-1.338 3,-3 h -1.20312 l -3.55665,1.93945 a 0.50005,0.50005 0 0 1 -0.48046,0 L 4.20313,89 Z" fill="#000" transform="translate(8.0,8.0) translate(-8.0,-88.0)" /></svg>