<?xml version="1.0" encoding="utf-8" ?>
<svg baseProfile="full" height="16" version="1.1" width="16" xmlns="http://www.w3.org/2000/svg" xmlns:ev="http://www.w3.org/2001/xml-events" xmlns:xlink="http://www.w3.org/1999/xlink"><defs /><path d="m 5,530 c -0.554,0 -1,0.52311 -1,1.15625 v 5.6875 C 4,537.47689 4.446,538 5,538 h 2 v 3 H 5.5 c -0.277,0 -0.5,0.223 -0.5,0.5 0,0.277 0.223,0.5 0.5,0.5 h 4 C 9.777,542 10,541.777 10,541.5 10,541.223 9.777,541 9.5,541 H 8 v -3 h 2 c 0.554,0 1,-0.52311 1,-1.15625 v -5.6875 C 11,530.52311 10.554,530 10,530 Z m 1,1 h 3 c 0.554,0 1,0.5575 1,1.25 v 2.5 C 10,535.4425 9.554,536 9,536 H 6 c -0.554,0 -1,-0.5575 -1,-1.25 v -2.5 C 5,531.5575 5.446,531 6,531 Z m 0.5,1 C 6.223,532 6,532.223 6,532.5 v 1 c 0,0.277 0.223,0.5 0.5,0.5 h 2 c 0.277,0 0.5,-0.223 0.5,-0.5 v -1 C 9,532.223 8.777,532 8.5,532 Z" fill="#000" transform="translate(8.0,8.0) translate(-8.0,-536.0)" /><path d="m 5,530 c -0.554,0 -1,0.52311 -1,1.15625 v 5.6875 C 4,537.47689 4.446,538 5,538 h 2 v 3 H 5.5 c -0.277,0 -0.5,0.223 -0.5,0.5 0,0.277 0.223,0.5 0.5,0.5 h 4 C 9.777,542 10,541.777 10,541.5 10,541.223 9.777,541 9.5,541 H 8 v -3 h 2 c 0.554,0 1,-0.52311 1,-1.15625 v -5.6875 C 11,530.52311 10.554,530 10,530 Z m 1,1 h 3 c 0.554,0 1,0.5575 1,1.25 v 2.5 C 10,535.4425 9.554,536 9,536 H 6 c -0.554,0 -1,-0.5575 -1,-1.25 v -2.5 C 5,531.5575 5.446,531 6,531 Z m 0.5,1 C 6.223,532 6,532.223 6,532.5 v 1 c 0,0.277 0.223,0.5 0.5,0.5 h 2 c 0.277,0 0.5,-0.223 0.5,-0.5 v -1 C 9,532.223 8.777,532 8.5,532 Z" fill="#000" transform="translate(8.0,8.0) translate(-8.0,-536.0)" /></svg>