<?xml version="1.0" encoding="utf-8" ?>
<svg baseProfile="full" height="16" version="1.1" width="16" xmlns="http://www.w3.org/2000/svg" xmlns:ev="http://www.w3.org/2001/xml-events" xmlns:xlink="http://www.w3.org/1999/xlink"><defs /><path d="m 241.5,532 c -0.277,0 -0.5,0.223 -0.5,0.5 v 6 c 0,0.277 0.223,0.5 0.5,0.5 h 5 c 0.277,0 0.5,-0.223 0.5,-0.5 v -6 c 0,-0.277 -0.223,-0.5 -0.5,-0.5 z m 7,0 c -0.277,0 -0.5,0.223 -0.5,0.5 v 6 c 0,0.277 0.223,0.5 0.5,0.5 h 5 c 0.277,0 0.5,-0.223 0.5,-0.5 v -6 c 0,-0.277 -0.223,-0.5 -0.5,-0.5 z m -6.5,1 h 4 v 3 h -4 z m 7,0 h 4 v 3 h -4 z m -6.5,3.77344 A 0.72727275,0.72727275 0 0 1 243.22656,537.5 0.72727275,0.72727275 0 0 1 242.5,538.22656 0.72727275,0.72727275 0 0 1 241.77344,537.5 0.72727275,0.72727275 0 0 1 242.5,536.77344 Z m 3,0 A 0.72727275,0.72727275 0 0 1 246.22656,537.5 0.72727275,0.72727275 0 0 1 245.5,538.22656 0.72727275,0.72727275 0 0 1 244.77344,537.5 0.72727275,0.72727275 0 0 1 245.5,536.77344 Z m 4,0 A 0.72727275,0.72727275 0 0 1 250.22656,537.5 0.72727275,0.72727275 0 0 1 249.5,538.22656 0.72727275,0.72727275 0 0 1 248.77344,537.5 0.72727275,0.72727275 0 0 1 249.5,536.77344 Z m 3,0 A 0.72727275,0.72727275 0 0 1 253.22656,537.5 0.72727275,0.72727275 0 0 1 252.5,538.22656 0.72727275,0.72727275 0 0 1 251.77344,537.5 0.72727275,0.72727275 0 0 1 252.5,536.77344 Z" fill="#000" transform="translate(8.0,8.0) translate(-248.0,-536.0)" /><path d="m 241.5,532 c -0.277,0 -0.5,0.223 -0.5,0.5 v 6 c 0,0.277 0.223,0.5 0.5,0.5 h 5 c 0.277,0 0.5,-0.223 0.5,-0.5 v -6 c 0,-0.277 -0.223,-0.5 -0.5,-0.5 z m 7,0 c -0.277,0 -0.5,0.223 -0.5,0.5 v 6 c 0,0.277 0.223,0.5 0.5,0.5 h 5 c 0.277,0 0.5,-0.223 0.5,-0.5 v -6 c 0,-0.277 -0.223,-0.5 -0.5,-0.5 z m -6.5,1 h 4 v 3 h -4 z m 7,0 h 4 v 3 h -4 z m -6.5,3.77344 A 0.72727275,0.72727275 0 0 1 243.22656,537.5 0.72727275,0.72727275 0 0 1 242.5,538.22656 0.72727275,0.72727275 0 0 1 241.77344,537.5 0.72727275,0.72727275 0 0 1 242.5,536.77344 Z m 3,0 A 0.72727275,0.72727275 0 0 1 246.22656,537.5 0.72727275,0.72727275 0 0 1 245.5,538.22656 0.72727275,0.72727275 0 0 1 244.77344,537.5 0.72727275,0.72727275 0 0 1 245.5,536.77344 Z m 4,0 A 0.72727275,0.72727275 0 0 1 250.22656,537.5 0.72727275,0.72727275 0 0 1 249.5,538.22656 0.72727275,0.72727275 0 0 1 248.77344,537.5 0.72727275,0.72727275 0 0 1 249.5,536.77344 Z m 3,0 A 0.72727275,0.72727275 0 0 1 253.22656,537.5 0.72727275,0.72727275 0 0 1 252.5,538.22656 0.72727275,0.72727275 0 0 1 251.77344,537.5 0.72727275,0.72727275 0 0 1 252.5,536.77344 Z" fill="#000" transform="translate(8.0,8.0) translate(-248.0,-536.0)" /></svg>