<?xml version="1.0" encoding="utf-8" ?>
<svg baseProfile="full" height="16" version="1.1" width="16" xmlns="http://www.w3.org/2000/svg" xmlns:ev="http://www.w3.org/2001/xml-events" xmlns:xlink="http://www.w3.org/1999/xlink"><defs /><path d="m 103.5,211.875 c -1.625,0 -3.25,0.875 -3,2.625 -3,0 -3.5,4.5 -0.5,5.5 h 3 v -1.23242 l -2.77734,-1.85156 a 0.50005,0.50005 0 0 1 0.27343,-0.91993 0.50005,0.50005 0 0 1 0.28125,0.0879 L 103,217.56641 v -0.041 a 0.50028181,0.50028181 0 0 1 0,-0.0508 V 214 a 0.50005,0.50005 0 0 1 0.49219,-0.50781 A 0.50005,0.50005 0 0 1 104,214 v 2.80664 l 2.3418,-0.78125 a 0.50005,0.50005 0 0 1 0.13281,-0.0273 0.50005,0.50005 0 0 1 0.18359,0.97656 L 104,217.86133 v 0.56836 a 0.50005,0.50005 0 0 1 0,0.14844 V 220 h 3 c 3,-1 2.5,-5.5 -0.5,-5.5 0.25,-1.75 -1.375,-2.625 -3,-2.625 z" fill="#000" transform="translate(8.0,8.0) translate(-104.0,-216.0)" /><path d="m 103.5,211.875 c -1.625,0 -3.25,0.875 -3,2.625 -3,0 -3.5,4.5 -0.5,5.5 h 3 v -1.23242 l -2.77734,-1.85156 a 0.50005,0.50005 0 0 1 0.27343,-0.91993 0.50005,0.50005 0 0 1 0.28125,0.0879 L 103,217.56641 v -0.041 a 0.50028181,0.50028181 0 0 1 0,-0.0508 V 214 a 0.50005,0.50005 0 0 1 0.49219,-0.50781 A 0.50005,0.50005 0 0 1 104,214 v 2.80664 l 2.3418,-0.78125 a 0.50005,0.50005 0 0 1 0.13281,-0.0273 0.50005,0.50005 0 0 1 0.18359,0.97656 L 104,217.86133 v 0.56836 a 0.50005,0.50005 0 0 1 0,0.14844 V 220 h 3 c 3,-1 2.5,-5.5 -0.5,-5.5 0.25,-1.75 -1.375,-2.625 -3,-2.625 z" fill="#000" transform="translate(8.0,8.0) translate(-104.0,-216.0)" /></svg>