<?xml version="1.0" encoding="utf-8" ?>
<svg baseProfile="full" height="16" version="1.1" width="16" xmlns="http://www.w3.org/2000/svg" xmlns:ev="http://www.w3.org/2001/xml-events" xmlns:xlink="http://www.w3.org/1999/xlink"><defs /><path d="m 182.48633,497.99414 c -0.35684,0.008 -0.59037,0.37699 -0.44531,0.70313 0.25458,0.59403 0.56027,1.20019 0.88671,1.80859 -1.58669,2.80921 -3.84335,5.70273 -5.78125,7.64062 -0.35308,0.34033 -0.0562,0.93267 0.42774,0.85352 H 182 v -1.5 c 0,-0.82843 0.67157,-1.5 1.5,-1.5 0.82843,0 1.5,0.67157 1.5,1.5 v 1.5 h 4.42969 c 0.48175,0.0741 0.77404,-0.5145 0.42383,-0.85352 -1.9379,-1.93789 -4.19456,-4.83141 -5.78125,-7.64062 0.32644,-0.6084 0.63213,-1.21456 0.88671,-1.80859 0.14767,-0.33225 -0.0974,-0.70602 -0.46093,-0.70313 -0.20042,0.002 -0.3803,0.12343 -0.45703,0.30859 -0.16048,0.37445 -0.34643,0.75884 -0.54102,1.14454 -0.19459,-0.3857 -0.38054,-0.77009 -0.54102,-1.14454 -0.0789,-0.19045 -0.26655,-0.31298 -0.47265,-0.30859 z" fill="#000" transform="translate(8.0,8.0) translate(-184.0,-504.0)" /><path d="m 182.48633,497.99414 c -0.35684,0.008 -0.59037,0.37699 -0.44531,0.70313 0.25458,0.59403 0.56027,1.20019 0.88671,1.80859 -1.58669,2.80921 -3.84335,5.70273 -5.78125,7.64062 -0.35308,0.34033 -0.0562,0.93267 0.42774,0.85352 H 182 v -1.5 c 0,-0.82843 0.67157,-1.5 1.5,-1.5 0.82843,0 1.5,0.67157 1.5,1.5 v 1.5 h 4.42969 c 0.48175,0.0741 0.77404,-0.5145 0.42383,-0.85352 -1.9379,-1.93789 -4.19456,-4.83141 -5.78125,-7.64062 0.32644,-0.6084 0.63213,-1.21456 0.88671,-1.80859 0.14767,-0.33225 -0.0974,-0.70602 -0.46093,-0.70313 -0.20042,0.002 -0.3803,0.12343 -0.45703,0.30859 -0.16048,0.37445 -0.34643,0.75884 -0.54102,1.14454 -0.19459,-0.3857 -0.38054,-0.77009 -0.54102,-1.14454 -0.0789,-0.19045 -0.26655,-0.31298 -0.47265,-0.30859 z" fill="#000" transform="translate(8.0,8.0) translate(-184.0,-504.0)" /></svg>