<?xml version="1.0" encoding="utf-8" ?>
<svg baseProfile="full" height="16" version="1.1" width="16" xmlns="http://www.w3.org/2000/svg" xmlns:ev="http://www.w3.org/2001/xml-events" xmlns:xlink="http://www.w3.org/1999/xlink"><defs /><path d="m 678,436 a 3,3 0 0 0 -2.83008,2.01562 A 1,1 0 0 0 675,438 a 1,1 0 0 0 -1,1 1,1 0 0 0 1,1 1,1 0 0 0 0.16992,-0.0137 3,3 0 0 0 1.85547,1.84961 A 2.5,2.5 0 0 1 677,441.5 a 2.5,2.5 0 0 1 2.5,-2.5 2.5,2.5 0 0 1 2.39844,1.80078 L 687,439 l -0.5,-3 z m 1.5,4 a 1.5,1.5 0 0 0 -1.5,1.5 1.5,1.5 0 0 0 1.5,1.5 1.5,1.5 0 0 0 1.5,-1.5 1.5,1.5 0 0 0 -1.5,-1.5 z" fill="#000" transform="translate(8.0,8.0) translate(-680.0,-440.0)" /><path d="m 678,436 a 3,3 0 0 0 -2.83008,2.01562 A 1,1 0 0 0 675,438 a 1,1 0 0 0 -1,1 1,1 0 0 0 1,1 1,1 0 0 0 0.16992,-0.0137 3,3 0 0 0 1.85547,1.84961 A 2.5,2.5 0 0 1 677,441.5 a 2.5,2.5 0 0 1 2.5,-2.5 2.5,2.5 0 0 1 2.39844,1.80078 L 687,439 l -0.5,-3 z m 1.5,4 a 1.5,1.5 0 0 0 -1.5,1.5 1.5,1.5 0 0 0 1.5,1.5 1.5,1.5 0 0 0 1.5,-1.5 1.5,1.5 0 0 0 -1.5,-1.5 z" fill="#000" transform="translate(8.0,8.0) translate(-680.0,-440.0)" /></svg>