<?xml version="1.0" encoding="utf-8" ?>
<svg baseProfile="full" height="16" version="1.1" width="16" xmlns="http://www.w3.org/2000/svg" xmlns:ev="http://www.w3.org/2001/xml-events" xmlns:xlink="http://www.w3.org/1999/xlink"><defs /><path d="m 263,181 c -0.22713,-1.7e-4 -0.44755,0.077 -0.625,0.21875 L 260.14844,183 H 259 c -0.55226,6e-5 -0.99994,0.44774 -1,1 v 1 c 6e-5,0.55226 0.44774,0.99994 1,1 0,-1.108 0.892,-2 2,-2 1.108,0 2,0.892 2,2 h 2 c 0,-1.108 0.892,-2 2,-2 1.108,0 2,0.892 2,2 0.55226,-6e-5 0.99994,-0.44774 1,-1 v -1 c -6e-5,-0.55226 -0.44774,-0.99994 -1,-1 h -0.58594 l -1.70703,-1.70703 C 266.51952,181.10543 266.2652,181.00005 266,181 Z m -2,4 c -0.554,0 -1,0.446 -1,1 0,0.554 0.446,1 1,1 0.554,0 1,-0.446 1,-1 0,-0.554 -0.446,-1 -1,-1 z m 6,0 c -0.554,0 -1,0.446 -1,1 0,0.554 0.446,1 1,1 0.554,0 1,-0.446 1,-1 0,-0.554 -0.446,-1 -1,-1 z" fill="#000" transform="translate(8.0,11.0) translate(-264.0,-184.0)" /><path d="M 202,180.86523 A 1.1342664,1.1342664 0 0 0 200.86523,182 a 1.1342664,1.1342664 0 0 0 0.0156,0.16992 l -2.07031,1.03516 A 1.1342664,1.1342664 0 0 0 198,182.86523 1.1342664,1.1342664 0 0 0 196.86523,184 1.1342664,1.1342664 0 0 0 198,185.13477 a 1.1342664,1.1342664 0 0 0 0.80859,-0.33985 l 2.07227,1.03516 A 1.1342664,1.1342664 0 0 0 200.86523,186 1.1342664,1.1342664 0 0 0 202,187.13477 1.1342664,1.1342664 0 0 0 203.13477,186 1.1342664,1.1342664 0 0 0 202,184.86523 a 1.1342664,1.1342664 0 0 0 -0.80859,0.33985 l -2.07227,-1.03516 a 1.1342664,1.1342664 0 0 0 0.0156,-0.16992 1.1342664,1.1342664 0 0 0 -0.0156,-0.16992 l 2.07031,-1.03516 A 1.1342664,1.1342664 0 0 0 202,183.13477 1.1342664,1.1342664 0 0 0 203.13477,182 1.1342664,1.1342664 0 0 0 202,180.86523 Z" fill="#000" transform="translate(8.0,4.0) translate(-200.0,-184.0)" /><path d="m 263,181 c -0.22713,-1.7e-4 -0.44755,0.077 -0.625,0.21875 L 260.14844,183 H 259 c -0.55226,6e-5 -0.99994,0.44774 -1,1 v 1 c 6e-5,0.55226 0.44774,0.99994 1,1 0,-1.108 0.892,-2 2,-2 1.108,0 2,0.892 2,2 h 2 c 0,-1.108 0.892,-2 2,-2 1.108,0 2,0.892 2,2 0.55226,-6e-5 0.99994,-0.44774 1,-1 v -1 c -6e-5,-0.55226 -0.44774,-0.99994 -1,-1 h -0.58594 l -1.70703,-1.70703 C 266.51952,181.10543 266.2652,181.00005 266,181 Z m -2,4 c -0.554,0 -1,0.446 -1,1 0,0.554 0.446,1 1,1 0.554,0 1,-0.446 1,-1 0,-0.554 -0.446,-1 -1,-1 z m 6,0 c -0.554,0 -1,0.446 -1,1 0,0.554 0.446,1 1,1 0.554,0 1,-0.446 1,-1 0,-0.554 -0.446,-1 -1,-1 z" fill="#000" transform="translate(8.0,11.0) translate(-264.0,-184.0)" /><path d="M 202,180.86523 A 1.1342664,1.1342664 0 0 0 200.86523,182 a 1.1342664,1.1342664 0 0 0 0.0156,0.16992 l -2.07031,1.03516 A 1.1342664,1.1342664 0 0 0 198,182.86523 1.1342664,1.1342664 0 0 0 196.86523,184 1.1342664,1.1342664 0 0 0 198,185.13477 a 1.1342664,1.1342664 0 0 0 0.80859,-0.33985 l 2.07227,1.03516 A 1.1342664,1.1342664 0 0 0 200.86523,186 1.1342664,1.1342664 0 0 0 202,187.13477 1.1342664,1.1342664 0 0 0 203.13477,186 1.1342664,1.1342664 0 0 0 202,184.86523 a 1.1342664,1.1342664 0 0 0 -0.80859,0.33985 l -2.07227,-1.03516 a 1.1342664,1.1342664 0 0 0 0.0156,-0.16992 1.1342664,1.1342664 0 0 0 -0.0156,-0.16992 l 2.07031,-1.03516 A 1.1342664,1.1342664 0 0 0 202,183.13477 1.1342664,1.1342664 0 0 0 203.13477,182 1.1342664,1.1342664 0 0 0 202,180.86523 Z" fill="#000" transform="translate(8.0,4.0) translate(-200.0,-184.0)" /></svg>