<?xml version="1.0" encoding="utf-8" ?>
<svg baseProfile="full" height="16" version="1.1" width="16" xmlns="http://www.w3.org/2000/svg" xmlns:ev="http://www.w3.org/2001/xml-events" xmlns:xlink="http://www.w3.org/1999/xlink"><defs /><path d="m 535,341 c -0.22713,-1.7e-4 -0.44755,0.077 -0.625,0.21875 L 532.14844,343 H 531 c -0.55226,6e-5 -0.99994,0.44774 -1,1 v 1 c 6e-5,0.55226 0.44774,0.99994 1,1 0,-1.108 0.892,-2 2,-2 1.108,0 2,0.892 2,2 h 2 c 0,-1.108 0.892,-2 2,-2 1.108,0 2,0.892 2,2 0.55226,-6e-5 0.99994,-0.44774 1,-1 v -1 c -6e-5,-0.55226 -0.44774,-0.99994 -1,-1 h -0.58594 l -1.70703,-1.70703 C 538.51952,341.10543 538.2652,341.00005 538,341 Z m -2,4 c -0.554,0 -1,0.446 -1,1 0,0.554 0.446,1 1,1 0.554,0 1,-0.446 1,-1 0,-0.554 -0.446,-1 -1,-1 z m 6,0 c -0.554,0 -1,0.446 -1,1 0,0.554 0.446,1 1,1 0.554,0 1,-0.446 1,-1 0,-0.554 -0.446,-1 -1,-1 z m -6,3.04297 -0.35352,0.35351 C 532.20541,348.83756 531.83333,349 531.5,349 c -0.33333,0 -0.70541,-0.16244 -1.14648,-0.60352 l -0.70704,0.70704 C 530.20541,349.66244 530.83333,350 531.5,350 c 0.53939,0 1.02735,-0.34421 1.5,-0.72461 0.47265,0.3804 0.96061,0.72461 1.5,0.72461 0.53939,0 1.02735,-0.34421 1.5,-0.72461 0.47265,0.3804 0.96061,0.72461 1.5,0.72461 0.53939,0 1.02735,-0.34421 1.5,-0.72461 0.47265,0.3804 0.96061,0.72461 1.5,0.72461 0.66667,0 1.29459,-0.33756 1.85352,-0.89648 l -0.70704,-0.70704 C 541.20541,348.83756 540.83333,349 540.5,349 c -0.33333,0 -0.70541,-0.16244 -1.14648,-0.60352 L 539,348.04297 l -0.35352,0.35351 C 538.20541,348.83756 537.83333,349 537.5,349 c -0.33333,0 -0.70541,-0.16244 -1.14648,-0.60352 L 536,348.04297 l -0.35352,0.35351 C 535.20541,348.83756 534.83333,349 534.5,349 c -0.33333,0 -0.70541,-0.16244 -1.14648,-0.60352 z" fill="#000" transform="translate(8.0,8.0) translate(-536.0,-344.0)" /><path d="m 535,341 c -0.22713,-1.7e-4 -0.44755,0.077 -0.625,0.21875 L 532.14844,343 H 531 c -0.55226,6e-5 -0.99994,0.44774 -1,1 v 1 c 6e-5,0.55226 0.44774,0.99994 1,1 0,-1.108 0.892,-2 2,-2 1.108,0 2,0.892 2,2 h 2 c 0,-1.108 0.892,-2 2,-2 1.108,0 2,0.892 2,2 0.55226,-6e-5 0.99994,-0.44774 1,-1 v -1 c -6e-5,-0.55226 -0.44774,-0.99994 -1,-1 h -0.58594 l -1.70703,-1.70703 C 538.51952,341.10543 538.2652,341.00005 538,341 Z m -2,4 c -0.554,0 -1,0.446 -1,1 0,0.554 0.446,1 1,1 0.554,0 1,-0.446 1,-1 0,-0.554 -0.446,-1 -1,-1 z m 6,0 c -0.554,0 -1,0.446 -1,1 0,0.554 0.446,1 1,1 0.554,0 1,-0.446 1,-1 0,-0.554 -0.446,-1 -1,-1 z m -6,3.04297 -0.35352,0.35351 C 532.20541,348.83756 531.83333,349 531.5,349 c -0.33333,0 -0.70541,-0.16244 -1.14648,-0.60352 l -0.70704,0.70704 C 530.20541,349.66244 530.83333,350 531.5,350 c 0.53939,0 1.02735,-0.34421 1.5,-0.72461 0.47265,0.3804 0.96061,0.72461 1.5,0.72461 0.53939,0 1.02735,-0.34421 1.5,-0.72461 0.47265,0.3804 0.96061,0.72461 1.5,0.72461 0.53939,0 1.02735,-0.34421 1.5,-0.72461 0.47265,0.3804 0.96061,0.72461 1.5,0.72461 0.66667,0 1.29459,-0.33756 1.85352,-0.89648 l -0.70704,-0.70704 C 541.20541,348.83756 540.83333,349 540.5,349 c -0.33333,0 -0.70541,-0.16244 -1.14648,-0.60352 L 539,348.04297 l -0.35352,0.35351 C 538.20541,348.83756 537.83333,349 537.5,349 c -0.33333,0 -0.70541,-0.16244 -1.14648,-0.60352 L 536,348.04297 l -0.35352,0.35351 C 535.20541,348.83756 534.83333,349 534.5,349 c -0.33333,0 -0.70541,-0.16244 -1.14648,-0.60352 z" fill="#000" transform="translate(8.0,8.0) translate(-536.0,-344.0)" /></svg>