<?xml version="1.0" encoding="utf-8" ?>
<svg baseProfile="full" height="16" version="1.1" width="16" xmlns="http://www.w3.org/2000/svg" xmlns:ev="http://www.w3.org/2001/xml-events" xmlns:xlink="http://www.w3.org/1999/xlink"><defs /><path d="m 263,181 c -0.22713,-1.7e-4 -0.44755,0.077 -0.625,0.21875 L 260.14844,183 H 259 c -0.55226,6e-5 -0.99994,0.44774 -1,1 v 1 c 6e-5,0.55226 0.44774,0.99994 1,1 0,-1.108 0.892,-2 2,-2 1.108,0 2,0.892 2,2 h 2 c 0,-1.108 0.892,-2 2,-2 1.108,0 2,0.892 2,2 0.55226,-6e-5 0.99994,-0.44774 1,-1 v -1 c -6e-5,-0.55226 -0.44774,-0.99994 -1,-1 h -0.58594 l -1.70703,-1.70703 C 266.51952,181.10543 266.2652,181.00005 266,181 Z m -2,4 c -0.554,0 -1,0.446 -1,1 0,0.554 0.446,1 1,1 0.554,0 1,-0.446 1,-1 0,-0.554 -0.446,-1 -1,-1 z m 6,0 c -0.554,0 -1,0.446 -1,1 0,0.554 0.446,1 1,1 0.554,0 1,-0.446 1,-1 0,-0.554 -0.446,-1 -1,-1 z" fill="#000" transform="translate(8.0,12.0) translate(-264.0,-184.0)" /><path d="m 33.5,596 a 0.5,0.5 0 0 0 -0.5,0.5 v 6 a 0.5,0.5 0 0 0 0.5,0.5 0.5,0.5 0 0 0 0.5,-0.5 V 601 h 12 v 1.5 a 0.5,0.5 0 0 0 0.5,0.5 0.5,0.5 0 0 0 0.5,-0.5 v -4 A 0.5,0.5 0 0 0 46.5,598 0.5,0.5 0 0 0 46,598.5 V 600 H 34 v -3.5 A 0.5,0.5 0 0 0 33.5,596 Z m 2.5,1 a 1,1 0 0 0 -1,1 1,1 0 0 0 1,1 h 1 a 1,1 0 0 0 1,-1 1,1 0 0 0 -1,-1 z m 3.451172,0.002 A 0.50005,0.50005 0 0 0 39,597.5 v 1 a 0.50005,0.50005 0 0 0 0.5,0.5 h 5 a 0.50005,0.50005 0 0 0 0.09766,-0.99023 l -5,-1 a 0.50005,0.50005 0 0 0 -0.146484,-0.008 z" fill="#000" transform="translate(8.0,6.0) translate(-40.0,-600.0)" /><path d="m 263,181 c -0.22713,-1.7e-4 -0.44755,0.077 -0.625,0.21875 L 260.14844,183 H 259 c -0.55226,6e-5 -0.99994,0.44774 -1,1 v 1 c 6e-5,0.55226 0.44774,0.99994 1,1 0,-1.108 0.892,-2 2,-2 1.108,0 2,0.892 2,2 h 2 c 0,-1.108 0.892,-2 2,-2 1.108,0 2,0.892 2,2 0.55226,-6e-5 0.99994,-0.44774 1,-1 v -1 c -6e-5,-0.55226 -0.44774,-0.99994 -1,-1 h -0.58594 l -1.70703,-1.70703 C 266.51952,181.10543 266.2652,181.00005 266,181 Z m -2,4 c -0.554,0 -1,0.446 -1,1 0,0.554 0.446,1 1,1 0.554,0 1,-0.446 1,-1 0,-0.554 -0.446,-1 -1,-1 z m 6,0 c -0.554,0 -1,0.446 -1,1 0,0.554 0.446,1 1,1 0.554,0 1,-0.446 1,-1 0,-0.554 -0.446,-1 -1,-1 z" fill="#000" transform="translate(8.0,12.0) translate(-264.0,-184.0)" /><path d="m 33.5,596 a 0.5,0.5 0 0 0 -0.5,0.5 v 6 a 0.5,0.5 0 0 0 0.5,0.5 0.5,0.5 0 0 0 0.5,-0.5 V 601 h 12 v 1.5 a 0.5,0.5 0 0 0 0.5,0.5 0.5,0.5 0 0 0 0.5,-0.5 v -4 A 0.5,0.5 0 0 0 46.5,598 0.5,0.5 0 0 0 46,598.5 V 600 H 34 v -3.5 A 0.5,0.5 0 0 0 33.5,596 Z m 2.5,1 a 1,1 0 0 0 -1,1 1,1 0 0 0 1,1 h 1 a 1,1 0 0 0 1,-1 1,1 0 0 0 -1,-1 z m 3.451172,0.002 A 0.50005,0.50005 0 0 0 39,597.5 v 1 a 0.50005,0.50005 0 0 0 0.5,0.5 h 5 a 0.50005,0.50005 0 0 0 0.09766,-0.99023 l -5,-1 a 0.50005,0.50005 0 0 0 -0.146484,-0.008 z" fill="#000" transform="translate(8.0,6.0) translate(-40.0,-600.0)" /></svg>