<?xml version="1.0" encoding="utf-8" ?>
<svg baseProfile="full" height="16" version="1.1" width="16" xmlns="http://www.w3.org/2000/svg" xmlns:ev="http://www.w3.org/2001/xml-events" xmlns:xlink="http://www.w3.org/1999/xlink"><defs /><path d="m 263,181 c -0.22713,-1.7e-4 -0.44755,0.077 -0.625,0.21875 L 260.14844,183 H 259 c -0.55226,6e-5 -0.99994,0.44774 -1,1 v 1 c 6e-5,0.55226 0.44774,0.99994 1,1 0,-1.108 0.892,-2 2,-2 1.108,0 2,0.892 2,2 h 2 c 0,-1.108 0.892,-2 2,-2 1.108,0 2,0.892 2,2 0.55226,-6e-5 0.99994,-0.44774 1,-1 v -1 c -6e-5,-0.55226 -0.44774,-0.99994 -1,-1 h -0.58594 l -1.70703,-1.70703 C 266.51952,181.10543 266.2652,181.00005 266,181 Z m -2,4 c -0.554,0 -1,0.446 -1,1 0,0.554 0.446,1 1,1 0.554,0 1,-0.446 1,-1 0,-0.554 -0.446,-1 -1,-1 z m 6,0 c -0.554,0 -1,0.446 -1,1 0,0.554 0.446,1 1,1 0.554,0 1,-0.446 1,-1 0,-0.554 -0.446,-1 -1,-1 z" fill="#000" transform="translate(8.0,11.0) translate(-264.0,-184.0)" /><path d="m 295,149 v 0.5 c 0,0.277 -0.223,0.5 -0.5,0.5 H 293 c -0.554,0 -1,0.446 -1,1 h 7 c 0,-0.554 -0.446,-1 -1,-1 h -1.5 c -0.277,0 -0.5,-0.223 -0.5,-0.5 V 149 Z m -0.5,3 c 0,0 -0.46663,0.93322 -0.49805,1.44727 v 0.002 0.002 c -0.002,0.0162 -0.002,0.0322 -0.002,0.0488 0,0.277 0.223,0.5 0.5,0.5 0.277,0 0.5,-0.223 0.5,-0.5 0,-0.0156 -0.001,-0.0342 -0.002,-0.0508 v -0.002 C 294.96663,152.93322 294.5,152 294.5,152 Z m 4,0 c 0,0 -0.46663,0.93322 -0.49805,1.44727 v 0.002 0.002 c -0.002,0.0162 -0.002,0.0322 -0.002,0.0488 0,0.277 0.223,0.5 0.5,0.5 0.277,0 0.5,-0.223 0.5,-0.5 0,-0.0156 -0.001,-0.0342 -0.002,-0.0508 v -0.002 C 298.96663,152.93322 298.5,152 298.5,152 Z m -6,1 c 0,0 -0.46663,0.93322 -0.49805,1.44727 v 0.002 0.002 c -0.002,0.0162 -0.002,0.0322 -0.002,0.0488 0,0.277 0.223,0.5 0.5,0.5 0.277,0 0.5,-0.223 0.5,-0.5 0,-0.0156 -0.001,-0.0342 -0.002,-0.0508 v -0.002 C 292.96663,153.93322 292.5,153 292.5,153 Z m 4,0 c 0,0 -0.46663,0.93322 -0.49805,1.44727 v 0.002 0.002 c -0.002,0.0162 -0.002,0.0322 -0.002,0.0488 0,0.277 0.223,0.5 0.5,0.5 0.277,0 0.5,-0.223 0.5,-0.5 0,-0.0156 -0.001,-0.0323 -0.002,-0.0488 v -0.002 -0.002 C 296.96663,153.93322 296.5,153 296.5,153 Z" fill="#000" transform="translate(8.0,4.0) translate(-296.0,-152.0)" /><path d="m 263,181 c -0.22713,-1.7e-4 -0.44755,0.077 -0.625,0.21875 L 260.14844,183 H 259 c -0.55226,6e-5 -0.99994,0.44774 -1,1 v 1 c 6e-5,0.55226 0.44774,0.99994 1,1 0,-1.108 0.892,-2 2,-2 1.108,0 2,0.892 2,2 h 2 c 0,-1.108 0.892,-2 2,-2 1.108,0 2,0.892 2,2 0.55226,-6e-5 0.99994,-0.44774 1,-1 v -1 c -6e-5,-0.55226 -0.44774,-0.99994 -1,-1 h -0.58594 l -1.70703,-1.70703 C 266.51952,181.10543 266.2652,181.00005 266,181 Z m -2,4 c -0.554,0 -1,0.446 -1,1 0,0.554 0.446,1 1,1 0.554,0 1,-0.446 1,-1 0,-0.554 -0.446,-1 -1,-1 z m 6,0 c -0.554,0 -1,0.446 -1,1 0,0.554 0.446,1 1,1 0.554,0 1,-0.446 1,-1 0,-0.554 -0.446,-1 -1,-1 z" fill="#000" transform="translate(8.0,11.0) translate(-264.0,-184.0)" /><path d="m 295,149 v 0.5 c 0,0.277 -0.223,0.5 -0.5,0.5 H 293 c -0.554,0 -1,0.446 -1,1 h 7 c 0,-0.554 -0.446,-1 -1,-1 h -1.5 c -0.277,0 -0.5,-0.223 -0.5,-0.5 V 149 Z m -0.5,3 c 0,0 -0.46663,0.93322 -0.49805,1.44727 v 0.002 0.002 c -0.002,0.0162 -0.002,0.0322 -0.002,0.0488 0,0.277 0.223,0.5 0.5,0.5 0.277,0 0.5,-0.223 0.5,-0.5 0,-0.0156 -0.001,-0.0342 -0.002,-0.0508 v -0.002 C 294.96663,152.93322 294.5,152 294.5,152 Z m 4,0 c 0,0 -0.46663,0.93322 -0.49805,1.44727 v 0.002 0.002 c -0.002,0.0162 -0.002,0.0322 -0.002,0.0488 0,0.277 0.223,0.5 0.5,0.5 0.277,0 0.5,-0.223 0.5,-0.5 0,-0.0156 -0.001,-0.0342 -0.002,-0.0508 v -0.002 C 298.96663,152.93322 298.5,152 298.5,152 Z m -6,1 c 0,0 -0.46663,0.93322 -0.49805,1.44727 v 0.002 0.002 c -0.002,0.0162 -0.002,0.0322 -0.002,0.0488 0,0.277 0.223,0.5 0.5,0.5 0.277,0 0.5,-0.223 0.5,-0.5 0,-0.0156 -0.001,-0.0342 -0.002,-0.0508 v -0.002 C 292.96663,153.93322 292.5,153 292.5,153 Z m 4,0 c 0,0 -0.46663,0.93322 -0.49805,1.44727 v 0.002 0.002 c -0.002,0.0162 -0.002,0.0322 -0.002,0.0488 0,0.277 0.223,0.5 0.5,0.5 0.277,0 0.5,-0.223 0.5,-0.5 0,-0.0156 -0.001,-0.0323 -0.002,-0.0488 v -0.002 -0.002 C 296.96663,153.93322 296.5,153 296.5,153 Z" fill="#000" transform="translate(8.0,4.0) translate(-296.0,-152.0)" /></svg>