<?xml version="1.0" encoding="utf-8" ?>
<svg baseProfile="full" height="16" version="1.1" width="16" xmlns="http://www.w3.org/2000/svg" xmlns:ev="http://www.w3.org/2001/xml-events" xmlns:xlink="http://www.w3.org/1999/xlink"><defs /><path d="m 263,181 c -0.22713,-1.7e-4 -0.44755,0.077 -0.625,0.21875 L 260.14844,183 H 259 c -0.55226,6e-5 -0.99994,0.44774 -1,1 v 1 c 6e-5,0.55226 0.44774,0.99994 1,1 0,-1.108 0.892,-2 2,-2 1.108,0 2,0.892 2,2 h 2 c 0,-1.108 0.892,-2 2,-2 1.108,0 2,0.892 2,2 0.55226,-6e-5 0.99994,-0.44774 1,-1 v -1 c -6e-5,-0.55226 -0.44774,-0.99994 -1,-1 h -0.58594 l -1.70703,-1.70703 C 266.51952,181.10543 266.2652,181.00005 266,181 Z m -2,4 c -0.554,0 -1,0.446 -1,1 0,0.554 0.446,1 1,1 0.554,0 1,-0.446 1,-1 0,-0.554 -0.446,-1 -1,-1 z m 6,0 c -0.554,0 -1,0.446 -1,1 0,0.554 0.446,1 1,1 0.554,0 1,-0.446 1,-1 0,-0.554 -0.446,-1 -1,-1 z" fill="#000" transform="translate(8.0,11.0) translate(-264.0,-184.0)" /><path d="m 410,182 c -0.1326,2e-5 -0.25976,0.0527 -0.35352,0.14648 L 408.79297,183 H 402.5 v 1 l 1,1 1,-1 1,1 1,-1 1,1 h 1.29297 l 0.85351,0.85352 c 0.0938,0.0938 0.22092,0.14646 0.35352,0.14648 h 1 c 0.1326,-2e-5 0.25976,-0.0527 0.35352,-0.14648 l 0.5,-0.5 C 411.94732,185.25972 411.99998,185.1326 412,185 v -2 c -2e-5,-0.1326 -0.0527,-0.25976 -0.14648,-0.35352 l -0.5,-0.5 C 411.25976,182.05271 411.1326,182.00002 411,182 Z m 0.5,1 c 0.277,0 0.5,0.223 0.5,0.5 v 1 c 0,0.277 -0.223,0.5 -0.5,0.5 -0.277,0 -0.5,-0.223 -0.5,-0.5 v -1 c 0,-0.277 0.223,-0.5 0.5,-0.5 z" fill="#000" transform="translate(9.0,5.0) translate(-408.0,-184.0)" /><path d="m 263,181 c -0.22713,-1.7e-4 -0.44755,0.077 -0.625,0.21875 L 260.14844,183 H 259 c -0.55226,6e-5 -0.99994,0.44774 -1,1 v 1 c 6e-5,0.55226 0.44774,0.99994 1,1 0,-1.108 0.892,-2 2,-2 1.108,0 2,0.892 2,2 h 2 c 0,-1.108 0.892,-2 2,-2 1.108,0 2,0.892 2,2 0.55226,-6e-5 0.99994,-0.44774 1,-1 v -1 c -6e-5,-0.55226 -0.44774,-0.99994 -1,-1 h -0.58594 l -1.70703,-1.70703 C 266.51952,181.10543 266.2652,181.00005 266,181 Z m -2,4 c -0.554,0 -1,0.446 -1,1 0,0.554 0.446,1 1,1 0.554,0 1,-0.446 1,-1 0,-0.554 -0.446,-1 -1,-1 z m 6,0 c -0.554,0 -1,0.446 -1,1 0,0.554 0.446,1 1,1 0.554,0 1,-0.446 1,-1 0,-0.554 -0.446,-1 -1,-1 z" fill="#000" transform="translate(8.0,11.0) translate(-264.0,-184.0)" /><path d="m 410,182 c -0.1326,2e-5 -0.25976,0.0527 -0.35352,0.14648 L 408.79297,183 H 402.5 v 1 l 1,1 1,-1 1,1 1,-1 1,1 h 1.29297 l 0.85351,0.85352 c 0.0938,0.0938 0.22092,0.14646 0.35352,0.14648 h 1 c 0.1326,-2e-5 0.25976,-0.0527 0.35352,-0.14648 l 0.5,-0.5 C 411.94732,185.25972 411.99998,185.1326 412,185 v -2 c -2e-5,-0.1326 -0.0527,-0.25976 -0.14648,-0.35352 l -0.5,-0.5 C 411.25976,182.05271 411.1326,182.00002 411,182 Z m 0.5,1 c 0.277,0 0.5,0.223 0.5,0.5 v 1 c 0,0.277 -0.223,0.5 -0.5,0.5 -0.277,0 -0.5,-0.223 -0.5,-0.5 v -1 c 0,-0.277 0.223,-0.5 0.5,-0.5 z" fill="#000" transform="translate(9.0,5.0) translate(-408.0,-184.0)" /></svg>