<?xml version="1.0" encoding="utf-8" ?>
<svg baseProfile="full" height="16" version="1.1" width="16" xmlns="http://www.w3.org/2000/svg" xmlns:ev="http://www.w3.org/2001/xml-events" xmlns:xlink="http://www.w3.org/1999/xlink"><defs /><path d="m 290,179 c -0.55226,6e-5 -0.99994,0.44774 -1,1 v 6 c 6e-5,0.55226 0.44774,0.99994 1,1 h 1 c 0,-1.108 0.892,-2 2,-2 1.108,0 2,0.892 2,2 h 4 c 0.83333,0 1.5499,-0.38583 2.08203,-0.91797 0.30316,-0.30315 0.54704,-0.67168 0.71094,-1.08203 H 303 v -1 h -1 v -1 c -10e-6,-0.19742 -0.0585,-0.39043 -0.16797,-0.55469 l -2,-3 C 299.64656,179.16713 299.33434,179.00003 299,179 Z m 0.5,1 h 3 c 0.277,0 0.5,0.223 0.5,0.5 v 2 c 0,0.277 -0.223,0.5 -0.5,0.5 h -3 c -0.277,0 -0.5,-0.223 -0.5,-0.5 v -2 c 0,-0.277 0.223,-0.5 0.5,-0.5 z m 6,0 h 2 c 0.277,0 0.5,0.223 0.5,0.5 v 5 c 0,0.277 -0.223,0.5 -0.5,0.5 h -2 c -0.277,0 -0.5,-0.223 -0.5,-0.5 v -5 c 0,-0.277 0.223,-0.5 0.5,-0.5 z m -3.5,6 c -0.554,0 -1,0.446 -1,1 0,0.554 0.446,1 1,1 0.554,0 1,-0.446 1,-1 0,-0.554 -0.446,-1 -1,-1 z" fill="#000" transform="translate(8.0,8.0) translate(-296.0,-184.0)" /><path d="m 290,179 c -0.55226,6e-5 -0.99994,0.44774 -1,1 v 6 c 6e-5,0.55226 0.44774,0.99994 1,1 h 1 c 0,-1.108 0.892,-2 2,-2 1.108,0 2,0.892 2,2 h 4 c 0.83333,0 1.5499,-0.38583 2.08203,-0.91797 0.30316,-0.30315 0.54704,-0.67168 0.71094,-1.08203 H 303 v -1 h -1 v -1 c -10e-6,-0.19742 -0.0585,-0.39043 -0.16797,-0.55469 l -2,-3 C 299.64656,179.16713 299.33434,179.00003 299,179 Z m 0.5,1 h 3 c 0.277,0 0.5,0.223 0.5,0.5 v 2 c 0,0.277 -0.223,0.5 -0.5,0.5 h -3 c -0.277,0 -0.5,-0.223 -0.5,-0.5 v -2 c 0,-0.277 0.223,-0.5 0.5,-0.5 z m 6,0 h 2 c 0.277,0 0.5,0.223 0.5,0.5 v 5 c 0,0.277 -0.223,0.5 -0.5,0.5 h -2 c -0.277,0 -0.5,-0.223 -0.5,-0.5 v -5 c 0,-0.277 0.223,-0.5 0.5,-0.5 z m -3.5,6 c -0.554,0 -1,0.446 -1,1 0,0.554 0.446,1 1,1 0.554,0 1,-0.446 1,-1 0,-0.554 -0.446,-1 -1,-1 z" fill="#000" transform="translate(8.0,8.0) translate(-296.0,-184.0)" /></svg>