<?xml version="1.0" encoding="utf-8" ?>
<svg baseProfile="full" height="16" version="1.1" width="16" xmlns="http://www.w3.org/2000/svg" xmlns:ev="http://www.w3.org/2001/xml-events" xmlns:xlink="http://www.w3.org/1999/xlink"><defs /><path d="m 612,434 c -0.554,0 -1,0.446 -1,1 v 8 c 0,0.554 0.446,1 1,1 h 4 v -2 c 0,-1.108 0.892,-2 2,-2 v -5 c 0,-0.554 -0.446,-1 -1,-1 z m 2.5,2 2,3 -2,3 -2,-3 z m 3.5,5 c -0.554,0 -1,0.446 -1,1 v 3 c 0,0.554 0.446,1 1,1 h 3 c 0.554,0 1,-0.446 1,-1 v -3 c 0,-0.554 -0.446,-1 -1,-1 z m 0.5,0.77344 A 0.72727275,0.72727275 0 0 1 619.22656,442.5 0.72727275,0.72727275 0 0 1 618.5,443.22656 0.72727275,0.72727275 0 0 1 617.77344,442.5 0.72727275,0.72727275 0 0 1 618.5,441.77344 Z m 2,2 A 0.72727275,0.72727275 0 0 1 621.22656,444.5 0.72727275,0.72727275 0 0 1 620.5,445.22656 0.72727275,0.72727275 0 0 1 619.77344,444.5 0.72727275,0.72727275 0 0 1 620.5,443.77344 Z" fill="#000" transform="translate(8.0,8.0) translate(-616.0,-440.0)" /><path d="m 612,434 c -0.554,0 -1,0.446 -1,1 v 8 c 0,0.554 0.446,1 1,1 h 4 v -2 c 0,-1.108 0.892,-2 2,-2 v -5 c 0,-0.554 -0.446,-1 -1,-1 z m 2.5,2 2,3 -2,3 -2,-3 z m 3.5,5 c -0.554,0 -1,0.446 -1,1 v 3 c 0,0.554 0.446,1 1,1 h 3 c 0.554,0 1,-0.446 1,-1 v -3 c 0,-0.554 -0.446,-1 -1,-1 z m 0.5,0.77344 A 0.72727275,0.72727275 0 0 1 619.22656,442.5 0.72727275,0.72727275 0 0 1 618.5,443.22656 0.72727275,0.72727275 0 0 1 617.77344,442.5 0.72727275,0.72727275 0 0 1 618.5,441.77344 Z m 2,2 A 0.72727275,0.72727275 0 0 1 621.22656,444.5 0.72727275,0.72727275 0 0 1 620.5,445.22656 0.72727275,0.72727275 0 0 1 619.77344,444.5 0.72727275,0.72727275 0 0 1 620.5,443.77344 Z" fill="#000" transform="translate(8.0,8.0) translate(-616.0,-440.0)" /></svg>