<?xml version="1.0" encoding="utf-8" ?>
<svg baseProfile="full" height="16" version="1.1" width="16" xmlns="http://www.w3.org/2000/svg" xmlns:ev="http://www.w3.org/2001/xml-events" xmlns:xlink="http://www.w3.org/1999/xlink"><defs /><path d="m 186,20 h -5 l -2,2 -1,6 h 2 v -0.5 c 0,-1.933 1.567,-3.5 3.5,-3.5 1.933,0 3.5,1.567 3.5,3.5 V 28 h 2 l -1,-6 z" fill="#000" transform="translate(8.0,8.0) translate(-184.0,-24.0)" /><path d="m 186,20 h -5 l -2,2 -1,6 h 2 v -0.5 c 0,-1.933 1.567,-3.5 3.5,-3.5 1.933,0 3.5,1.567 3.5,3.5 V 28 h 2 l -1,-6 z" fill="#000" transform="translate(8.0,8.0) translate(-184.0,-24.0)" /></svg>