<?xml version="1.0" encoding="utf-8" ?>
<svg baseProfile="full" height="16" version="1.1" width="16" xmlns="http://www.w3.org/2000/svg" xmlns:ev="http://www.w3.org/2001/xml-events" xmlns:xlink="http://www.w3.org/1999/xlink"><defs /><path d="m 659,20 v 0.5 a 0.5,0.5 0 0 0 0.5,0.5 h 8 A 0.5,0.5 0 0 0 668,20.5 V 20 Z m 0.5,2 c -0.27613,2.8e-5 -0.49997,0.223869 -0.5,0.5 0,2.479357 2.02064,4.5 4.5,4.5 2.47936,0 4.5,-2.020643 4.5,-4.5 -3e-5,-0.276131 -0.22387,-0.499972 -0.5,-0.5 h -4 z m 4,3 a 1.5,1.5 0 0 1 1.29688,0.744141 C 664.39927,25.908342 663.96305,26 663.5,26 c -0.46214,0 -0.89796,-0.09032 -1.29492,-0.253906 A 1.5,1.5 0 0 1 663.5,25 Z" fill="#000" transform="translate(8.0,8.0) translate(-664.0,-24.0)" /><path d="m 659,20 v 0.5 a 0.5,0.5 0 0 0 0.5,0.5 h 8 A 0.5,0.5 0 0 0 668,20.5 V 20 Z m 0.5,2 c -0.27613,2.8e-5 -0.49997,0.223869 -0.5,0.5 0,2.479357 2.02064,4.5 4.5,4.5 2.47936,0 4.5,-2.020643 4.5,-4.5 -3e-5,-0.276131 -0.22387,-0.499972 -0.5,-0.5 h -4 z m 4,3 a 1.5,1.5 0 0 1 1.29688,0.744141 C 664.39927,25.908342 663.96305,26 663.5,26 c -0.46214,0 -0.89796,-0.09032 -1.29492,-0.253906 A 1.5,1.5 0 0 1 663.5,25 Z" fill="#000" transform="translate(8.0,8.0) translate(-664.0,-24.0)" /></svg>