<?xml version="1.0" encoding="utf-8" ?>
<svg baseProfile="full" height="16" version="1.1" width="16" xmlns="http://www.w3.org/2000/svg" xmlns:ev="http://www.w3.org/2001/xml-events" xmlns:xlink="http://www.w3.org/1999/xlink"><defs /><path d="m 676,28 h 0.5 a 0.5,0.5 0 0 0 0.5,-0.5 v -8 A 0.5,0.5 0 0 0 676.5,19 H 676 Z m 2,-0.5 c 3e-5,0.27613 0.22387,0.49997 0.5,0.5 2.47936,0 4.5,-2.02064 4.5,-4.5 0,-2.47936 -2.02064,-4.5 -4.5,-4.5 -0.27613,3e-5 -0.49997,0.22387 -0.5,0.5 v 4 z m 3,-4 a 1.5,1.5 0 0 1 0.74414,-1.29688 C 681.90834,22.60073 682,23.03695 682,23.5 c 0,0.46214 -0.0903,0.89796 -0.25391,1.29492 A 1.5,1.5 0 0 1 681,23.5 Z" fill="#000" transform="translate(8.0,8.0) translate(-680.0,-24.0)" /><path d="m 676,28 h 0.5 a 0.5,0.5 0 0 0 0.5,-0.5 v -8 A 0.5,0.5 0 0 0 676.5,19 H 676 Z m 2,-0.5 c 3e-5,0.27613 0.22387,0.49997 0.5,0.5 2.47936,0 4.5,-2.02064 4.5,-4.5 0,-2.47936 -2.02064,-4.5 -4.5,-4.5 -0.27613,3e-5 -0.49997,0.22387 -0.5,0.5 v 4 z m 3,-4 a 1.5,1.5 0 0 1 0.74414,-1.29688 C 681.90834,22.60073 682,23.03695 682,23.5 c 0,0.46214 -0.0903,0.89796 -0.25391,1.29492 A 1.5,1.5 0 0 1 681,23.5 Z" fill="#000" transform="translate(8.0,8.0) translate(-680.0,-24.0)" /></svg>