<?xml version="1.0" encoding="utf-8" ?>
<svg baseProfile="full" height="16" version="1.1" width="16" xmlns="http://www.w3.org/2000/svg" xmlns:ev="http://www.w3.org/2001/xml-events" xmlns:xlink="http://www.w3.org/1999/xlink"><defs /><path d="m 580,19 c -1.108,0 -2,0.892 -2,2 v 1 c 0,1.108 0.892,2 2,2 h 1.27344 A 2,2 0 0 0 582,24.716797 v 0.666015 l -3,1.5 V 26 h -1 v 4 h 1 v -1.005859 a 1,1 0 0 0 0.44727,-0.09961 l 4,-2 A 1.0001,1.0001 0 0 0 584,26 V 24.716797 A 2,2 0 0 0 584.72656,24 H 585 h 2 v -2 -1 -0.5 l 1.5,-1.5 h -3.5 -1 z m 8.91406,1 L 588,20.914062 V 23 h 1.5 c 0.277,0 0.5,-0.223 0.5,-0.5 v -2 c 0,-0.277 -0.223,-0.5 -0.5,-0.5 z" fill="#000" transform="translate(8.0,8.0) translate(-584.0,-24.0)" /><path d="m 580,19 c -1.108,0 -2,0.892 -2,2 v 1 c 0,1.108 0.892,2 2,2 h 1.27344 A 2,2 0 0 0 582,24.716797 v 0.666015 l -3,1.5 V 26 h -1 v 4 h 1 v -1.005859 a 1,1 0 0 0 0.44727,-0.09961 l 4,-2 A 1.0001,1.0001 0 0 0 584,26 V 24.716797 A 2,2 0 0 0 584.72656,24 H 585 h 2 v -2 -1 -0.5 l 1.5,-1.5 h -3.5 -1 z m 8.91406,1 L 588,20.914062 V 23 h 1.5 c 0.277,0 0.5,-0.223 0.5,-0.5 v -2 c 0,-0.277 -0.223,-0.5 -0.5,-0.5 z" fill="#000" transform="translate(8.0,8.0) translate(-584.0,-24.0)" /></svg>