<?xml version="1.0" encoding="utf-8" ?>
<svg baseProfile="full" height="16" version="1.1" width="16" xmlns="http://www.w3.org/2000/svg" xmlns:ev="http://www.w3.org/2001/xml-events" xmlns:xlink="http://www.w3.org/1999/xlink"><defs /><path d="m 258.5,499 a 0.5,0.5 0 0 0 -0.5,0.5 v 1.5 a 0.5,0.5 0 0 0 -0.5,0.5 0.5,0.5 0 0 0 0.5,0.5 v 6.5 a 0.5,0.5 0 0 0 0.5,0.5 0.5,0.5 0 0 0 0.5,-0.5 V 502 h 0.58594 c 0.0303,0.0857 0.0689,0.16972 0.11523,0.25 0.26755,0.46341 0.76373,0.75 1.29883,0.75 h 1 c 0.5351,0 1.03128,-0.28659 1.29883,-0.75 0.0464,-0.0803 0.0849,-0.16428 0.11523,-0.25 h 1.17188 c 0.0303,0.0857 0.0689,0.16972 0.11523,0.25 0.26755,0.46341 0.76373,0.75 1.29883,0.75 h 1 c 0.5351,0 1.03128,-0.28659 1.29883,-0.75 0.0464,-0.0803 0.0849,-0.16428 0.11523,-0.25 H 269 v 6.5 a 0.5,0.5 0 0 0 0.5,0.5 0.5,0.5 0 0 0 0.5,-0.5 V 502 a 0.5,0.5 0 0 0 0.5,-0.5 0.5,0.5 0 0 0 -0.5,-0.5 v -1.5 a 0.5,0.5 0 0 0 -0.5,-0.5 0.5,0.5 0 0 0 -0.5,0.5 v 1.5 h -0.58594 c -0.0303,-0.0857 -0.0689,-0.16972 -0.11523,-0.25 -0.2623,-0.45432 -0.74455,-0.73706 -1.26758,-0.74805 A 0.5,0.5 0 0 0 267,500 h -1 c -0.5351,0 -1.03128,0.28659 -1.29883,0.75 -0.0464,0.0803 -0.0849,0.16428 -0.11523,0.25 h -1.17188 c -0.0303,-0.0857 -0.0689,-0.16972 -0.11523,-0.25 -0.2623,-0.45432 -0.74455,-0.73706 -1.26758,-0.74805 A 0.5,0.5 0 0 0 262,500 h -1 c -0.5351,0 -1.03128,0.28659 -1.29883,0.75 -0.0464,0.0803 -0.0849,0.16428 -0.11523,0.25 H 259 v -1.5 a 0.5,0.5 0 0 0 -0.5,-0.5 z m 2.5,2 h 1 c 0.0897,0 0.1772,0.0253 0.25195,0.0684 A 0.5,0.5 0 0 0 262,501.5 a 0.5,0.5 0 0 0 0.25195,0.43164 c 0,0 -0.002,0.002 -0.002,0.002 -0.0747,0.0431 -0.16028,0.0664 -0.25,0.0664 h -1 c -0.0897,0 -0.1772,-0.0253 -0.25195,-0.0684 A 0.5,0.5 0 0 0 261,501.5 0.5,0.5 0 0 0 260.75,501.06641 C 260.82476,501.02333 260.91028,501 261,501 Z m 5,0 h 1 c 0.0897,0 0.1772,0.0253 0.25195,0.0684 A 0.5,0.5 0 0 0 267,501.5 a 0.5,0.5 0 0 0 0.25195,0.43164 c 0,0 -0.002,0.002 -0.002,0.002 -0.0747,0.0431 -0.16028,0.0664 -0.25,0.0664 h -1 c -0.0897,0 -0.1772,-0.0253 -0.25195,-0.0684 A 0.5,0.5 0 0 0 266,501.5 0.5,0.5 0 0 0 265.75,501.06641 C 265.82476,501.02333 265.91028,501 266,501 Z" fill="#000" transform="translate(8.0,8.0) translate(-264.0,-504.0)" /><path d="m 258.5,499 a 0.5,0.5 0 0 0 -0.5,0.5 v 1.5 a 0.5,0.5 0 0 0 -0.5,0.5 0.5,0.5 0 0 0 0.5,0.5 v 6.5 a 0.5,0.5 0 0 0 0.5,0.5 0.5,0.5 0 0 0 0.5,-0.5 V 502 h 0.58594 c 0.0303,0.0857 0.0689,0.16972 0.11523,0.25 0.26755,0.46341 0.76373,0.75 1.29883,0.75 h 1 c 0.5351,0 1.03128,-0.28659 1.29883,-0.75 0.0464,-0.0803 0.0849,-0.16428 0.11523,-0.25 h 1.17188 c 0.0303,0.0857 0.0689,0.16972 0.11523,0.25 0.26755,0.46341 0.76373,0.75 1.29883,0.75 h 1 c 0.5351,0 1.03128,-0.28659 1.29883,-0.75 0.0464,-0.0803 0.0849,-0.16428 0.11523,-0.25 H 269 v 6.5 a 0.5,0.5 0 0 0 0.5,0.5 0.5,0.5 0 0 0 0.5,-0.5 V 502 a 0.5,0.5 0 0 0 0.5,-0.5 0.5,0.5 0 0 0 -0.5,-0.5 v -1.5 a 0.5,0.5 0 0 0 -0.5,-0.5 0.5,0.5 0 0 0 -0.5,0.5 v 1.5 h -0.58594 c -0.0303,-0.0857 -0.0689,-0.16972 -0.11523,-0.25 -0.2623,-0.45432 -0.74455,-0.73706 -1.26758,-0.74805 A 0.5,0.5 0 0 0 267,500 h -1 c -0.5351,0 -1.03128,0.28659 -1.29883,0.75 -0.0464,0.0803 -0.0849,0.16428 -0.11523,0.25 h -1.17188 c -0.0303,-0.0857 -0.0689,-0.16972 -0.11523,-0.25 -0.2623,-0.45432 -0.74455,-0.73706 -1.26758,-0.74805 A 0.5,0.5 0 0 0 262,500 h -1 c -0.5351,0 -1.03128,0.28659 -1.29883,0.75 -0.0464,0.0803 -0.0849,0.16428 -0.11523,0.25 H 259 v -1.5 a 0.5,0.5 0 0 0 -0.5,-0.5 z m 2.5,2 h 1 c 0.0897,0 0.1772,0.0253 0.25195,0.0684 A 0.5,0.5 0 0 0 262,501.5 a 0.5,0.5 0 0 0 0.25195,0.43164 c 0,0 -0.002,0.002 -0.002,0.002 -0.0747,0.0431 -0.16028,0.0664 -0.25,0.0664 h -1 c -0.0897,0 -0.1772,-0.0253 -0.25195,-0.0684 A 0.5,0.5 0 0 0 261,501.5 0.5,0.5 0 0 0 260.75,501.06641 C 260.82476,501.02333 260.91028,501 261,501 Z m 5,0 h 1 c 0.0897,0 0.1772,0.0253 0.25195,0.0684 A 0.5,0.5 0 0 0 267,501.5 a 0.5,0.5 0 0 0 0.25195,0.43164 c 0,0 -0.002,0.002 -0.002,0.002 -0.0747,0.0431 -0.16028,0.0664 -0.25,0.0664 h -1 c -0.0897,0 -0.1772,-0.0253 -0.25195,-0.0684 A 0.5,0.5 0 0 0 266,501.5 0.5,0.5 0 0 0 265.75,501.06641 C 265.82476,501.02333 265.91028,501 266,501 Z" fill="#000" transform="translate(8.0,8.0) translate(-264.0,-504.0)" /></svg>