<?xml version="1.0" encoding="utf-8" ?>
<svg baseProfile="full" height="16" version="1.1" width="16" xmlns="http://www.w3.org/2000/svg" xmlns:ev="http://www.w3.org/2001/xml-events" xmlns:xlink="http://www.w3.org/1999/xlink"><defs /><path d="m 339,530 c -0.554,0 -1,0.446 -1,1 v 10 c 0,0.554 0.446,1 1,1 h 5 c 0.554,0 1,-0.446 1,-1 v -4 c 0.55821,0 1,0.44179 1,1 v 1.5 c 0,0.5351 0.28659,1.03128 0.75,1.29883 0.46341,0.26755 1.03659,0.26755 1.5,0 C 348.71341,540.53128 349,540.0351 349,539.5 V 535 h 1 c 0.554,0 1,-0.446 1,-1 v -1 -1 h -1 v -1.5 a 0.5,0.5 0 0 0 -0.5,-0.5 0.5,0.5 0 0 0 -0.5,0.5 v 1.5 h -1 v -1.5 a 0.5,0.5 0 0 0 -0.5,-0.5 0.5,0.5 0 0 0 -0.5,0.5 v 1.5 h -1 v 1 1 c 0,0.554 0.446,1 1,1 h 1 v 4.5 c 0,0.17943 -0.0946,0.34388 -0.25,0.43359 -0.15539,0.0897 -0.34461,0.0897 -0.5,0 C 347.09461,539.84388 347,539.67943 347,539.5 V 538 c 0,-1.09865 -0.90135,-2 -2,-2 v -5 c 0,-0.554 -0.446,-1 -1,-1 z m 0,2 h 5 v 3 h -5 z" fill="#000" transform="translate(8.0,8.0) translate(-344.0,-536.0)" /><path d="m 339,530 c -0.554,0 -1,0.446 -1,1 v 10 c 0,0.554 0.446,1 1,1 h 5 c 0.554,0 1,-0.446 1,-1 v -4 c 0.55821,0 1,0.44179 1,1 v 1.5 c 0,0.5351 0.28659,1.03128 0.75,1.29883 0.46341,0.26755 1.03659,0.26755 1.5,0 C 348.71341,540.53128 349,540.0351 349,539.5 V 535 h 1 c 0.554,0 1,-0.446 1,-1 v -1 -1 h -1 v -1.5 a 0.5,0.5 0 0 0 -0.5,-0.5 0.5,0.5 0 0 0 -0.5,0.5 v 1.5 h -1 v -1.5 a 0.5,0.5 0 0 0 -0.5,-0.5 0.5,0.5 0 0 0 -0.5,0.5 v 1.5 h -1 v 1 1 c 0,0.554 0.446,1 1,1 h 1 v 4.5 c 0,0.17943 -0.0946,0.34388 -0.25,0.43359 -0.15539,0.0897 -0.34461,0.0897 -0.5,0 C 347.09461,539.84388 347,539.67943 347,539.5 V 538 c 0,-1.09865 -0.90135,-2 -2,-2 v -5 c 0,-0.554 -0.446,-1 -1,-1 z m 0,2 h 5 v 3 h -5 z" fill="#000" transform="translate(8.0,8.0) translate(-344.0,-536.0)" /></svg>