<?xml version="1.0" encoding="utf-8" ?>
<svg baseProfile="full" height="16" version="1.1" width="16" xmlns="http://www.w3.org/2000/svg" xmlns:ev="http://www.w3.org/2001/xml-events" xmlns:xlink="http://www.w3.org/1999/xlink"><defs /><path d="m 166,209 1,2 -1,2 2,-1 2,1 -1,-2 1,-2 -2,1 z m 2,4 c -0.5,1.25 -1.75,2.25 -3,3 h 2 c -0.5,1.25 -1.75,2.25 -3,3 h 2 c -0.5,1.25 -1.75,2.25 -3,3 h 4 v 1 h 2 v -1 h 4 c -1.25,-0.75 -2.5,-1.75 -3,-3 h 2 c -1.25,-0.75 -2.5,-1.75 -3,-3 h 2 c -1.25,-0.75 -2.5,-1.75 -3,-3 z" fill="#000" transform="translate(8.0,8.0) translate(-168.0,-216.0)" /><path d="m 166,209 1,2 -1,2 2,-1 2,1 -1,-2 1,-2 -2,1 z m 2,4 c -0.5,1.25 -1.75,2.25 -3,3 h 2 c -0.5,1.25 -1.75,2.25 -3,3 h 2 c -0.5,1.25 -1.75,2.25 -3,3 h 4 v 1 h 2 v -1 h 4 c -1.25,-0.75 -2.5,-1.75 -3,-3 h 2 c -1.25,-0.75 -2.5,-1.75 -3,-3 h 2 c -1.25,-0.75 -2.5,-1.75 -3,-3 z" fill="#000" transform="translate(8.0,8.0) translate(-168.0,-216.0)" /></svg>