<?xml version="1.0" encoding="utf-8" ?>
<svg baseProfile="full" height="16" version="1.1" width="16" xmlns="http://www.w3.org/2000/svg" xmlns:ev="http://www.w3.org/2001/xml-events" xmlns:xlink="http://www.w3.org/1999/xlink"><defs /><path d="m 705,114 v 0.5 c 0,0.277 0.223,0.5 0.5,0.5 h 12 c 0.277,0 0.5,-0.223 0.5,-0.5 V 114 Z m 1,2 v 9 h -0.54688 C 705.20209,125 705,125.20209 705,125.45312 v 0.0938 V 126 h 5 v -0.5 -0.0469 C 710,125.20209 709.7979,125 709.54688,125 H 709 v -4.5 a 2.5,2.5 0 0 1 2.5,-2.5 2.5,2.5 0 0 1 2.5,2.5 v 4.5 h -0.54688 C 713.20209,125 713,125.20209 713,125.45312 v 0.0938 V 126 h 5 v -0.5 -0.0469 C 718,125.20209 717.7979,125 717.54688,125 H 717 v -9 h -1 v 0.44922 c 0,0.277 -0.223,0.5 -0.5,0.5 -0.277,0 -0.5,-0.223 -0.5,-0.5 V 116 h -1 v 0.44922 c 0,0.277 -0.223,0.5 -0.5,0.5 -0.277,0 -0.5,-0.223 -0.5,-0.5 V 116 h -1 v 0.44922 c 0,0.277 -0.223,0.5 -0.5,0.5 -0.277,0 -0.5,-0.223 -0.5,-0.5 V 116 h -1 v 0.44922 c 0,0.277 -0.223,0.5 -0.5,0.5 -0.277,0 -0.5,-0.223 -0.5,-0.5 V 116 h -1 v 0.44922 c 0,0.277 -0.223,0.5 -0.5,0.5 -0.277,0 -0.5,-0.223 -0.5,-0.5 V 116 Z m 1.5,6.05078 c 0.277,0 0.5,0.223 0.5,0.5 v 0.89844 c 0,0.277 -0.223,0.5 -0.5,0.5 -0.277,0 -0.5,-0.223 -0.5,-0.5 v -0.89844 c 0,-0.277 0.223,-0.5 0.5,-0.5 z m 8,0 c 0.277,0 0.5,0.223 0.5,0.5 v 0.89844 c 0,0.277 -0.223,0.5 -0.5,0.5 -0.277,0 -0.5,-0.223 -0.5,-0.5 v -0.89844 c 0,-0.277 0.223,-0.5 0.5,-0.5 z" fill="#000" transform="translate(8.0,8.0) translate(-712.0,-120.0)" /><path d="m 705,114 v 0.5 c 0,0.277 0.223,0.5 0.5,0.5 h 12 c 0.277,0 0.5,-0.223 0.5,-0.5 V 114 Z m 1,2 v 9 h -0.54688 C 705.20209,125 705,125.20209 705,125.45312 v 0.0938 V 126 h 5 v -0.5 -0.0469 C 710,125.20209 709.7979,125 709.54688,125 H 709 v -4.5 a 2.5,2.5 0 0 1 2.5,-2.5 2.5,2.5 0 0 1 2.5,2.5 v 4.5 h -0.54688 C 713.20209,125 713,125.20209 713,125.45312 v 0.0938 V 126 h 5 v -0.5 -0.0469 C 718,125.20209 717.7979,125 717.54688,125 H 717 v -9 h -1 v 0.44922 c 0,0.277 -0.223,0.5 -0.5,0.5 -0.277,0 -0.5,-0.223 -0.5,-0.5 V 116 h -1 v 0.44922 c 0,0.277 -0.223,0.5 -0.5,0.5 -0.277,0 -0.5,-0.223 -0.5,-0.5 V 116 h -1 v 0.44922 c 0,0.277 -0.223,0.5 -0.5,0.5 -0.277,0 -0.5,-0.223 -0.5,-0.5 V 116 h -1 v 0.44922 c 0,0.277 -0.223,0.5 -0.5,0.5 -0.277,0 -0.5,-0.223 -0.5,-0.5 V 116 h -1 v 0.44922 c 0,0.277 -0.223,0.5 -0.5,0.5 -0.277,0 -0.5,-0.223 -0.5,-0.5 V 116 Z m 1.5,6.05078 c 0.277,0 0.5,0.223 0.5,0.5 v 0.89844 c 0,0.277 -0.223,0.5 -0.5,0.5 -0.277,0 -0.5,-0.223 -0.5,-0.5 v -0.89844 c 0,-0.277 0.223,-0.5 0.5,-0.5 z m 8,0 c 0.277,0 0.5,0.223 0.5,0.5 v 0.89844 c 0,0.277 -0.223,0.5 -0.5,0.5 -0.277,0 -0.5,-0.223 -0.5,-0.5 v -0.89844 c 0,-0.277 0.223,-0.5 0.5,-0.5 z" fill="#000" transform="translate(8.0,8.0) translate(-712.0,-120.0)" /></svg>