<?xml version="1.0" encoding="utf-8" ?>
<svg baseProfile="full" height="16" version="1.1" width="16" xmlns="http://www.w3.org/2000/svg" xmlns:ev="http://www.w3.org/2001/xml-events" xmlns:xlink="http://www.w3.org/1999/xlink"><defs /><path d="m 546,275 c -0.554,0 -1,0.446 -1,1 v 5 c 0,0.554 0.446,1 1,1 h 1 v 2.5 c 0,0.277 0.21376,0.5 0.47852,0.5 h 0.043 C 547.78624,285 548,284.777 548,284.5 V 282 h 7 v 2.5 c 0,0.277 0.21376,0.5 0.47852,0.5 h 0.043 C 555.78624,285 556,284.777 556,284.5 V 282 h 1 c 0.554,0 1,-0.446 1,-1 v -5 c 0,-0.554 -0.446,-1 -1,-1 z m 0,1 h 11 v 5 h -2 v -2 l -2,-2 -2,2 v 2 h -1 v -4 h -2 v 4 h -2 z" fill="#000" transform="translate(8.0,8.0) translate(-552.0,-280.0)" /><path d="m 546,275 c -0.554,0 -1,0.446 -1,1 v 5 c 0,0.554 0.446,1 1,1 h 1 v 2.5 c 0,0.277 0.21376,0.5 0.47852,0.5 h 0.043 C 547.78624,285 548,284.777 548,284.5 V 282 h 7 v 2.5 c 0,0.277 0.21376,0.5 0.47852,0.5 h 0.043 C 555.78624,285 556,284.777 556,284.5 V 282 h 1 c 0.554,0 1,-0.446 1,-1 v -5 c 0,-0.554 -0.446,-1 -1,-1 z m 0,1 h 11 v 5 h -2 v -2 l -2,-2 -2,2 v 2 h -1 v -4 h -2 v 4 h -2 z" fill="#000" transform="translate(8.0,8.0) translate(-552.0,-280.0)" /></svg>