<?xml version="1.0" encoding="utf-8" ?>
<svg baseProfile="full" height="16" version="1.1" width="16" xmlns="http://www.w3.org/2000/svg" xmlns:ev="http://www.w3.org/2001/xml-events" xmlns:xlink="http://www.w3.org/1999/xlink"><defs /><path d="m 583.90625,147 c -0.5236,0.0245 -0.97767,0.52328 -0.95312,1.04687 0.0245,0.5236 0.52327,0.97767 1.04687,0.95313 1.6687,0 3,1.3313 3,3 0,1.6687 -1.3313,3 -3,3 -1.6687,0 -3,-1.3313 -3,-3 2,0 2,0 2,0 l -3,-3 -3,3 c 0,0 0,0 2,0 0,2.74958 2.25042,5 5,5 2.74958,0 5,-2.25042 5,-5 0,-2.74958 -2.25042,-5 -5,-5 -0.0312,-0.001 -0.0625,-0.001 -0.0937,0 z" fill="#000" transform="translate(8.0,8.0) translate(-584.0,-152.0)" /><path d="m 583.90625,147 c -0.5236,0.0245 -0.97767,0.52328 -0.95312,1.04687 0.0245,0.5236 0.52327,0.97767 1.04687,0.95313 1.6687,0 3,1.3313 3,3 0,1.6687 -1.3313,3 -3,3 -1.6687,0 -3,-1.3313 -3,-3 2,0 2,0 2,0 l -3,-3 -3,3 c 0,0 0,0 2,0 0,2.74958 2.25042,5 5,5 2.74958,0 5,-2.25042 5,-5 0,-2.74958 -2.25042,-5 -5,-5 -0.0312,-0.001 -0.0625,-0.001 -0.0937,0 z" fill="#000" transform="translate(8.0,8.0) translate(-584.0,-152.0)" /></svg>