<?xml version="1.0" encoding="utf-8" ?>
<svg baseProfile="full" height="16" version="1.1" width="16" xmlns="http://www.w3.org/2000/svg" xmlns:ev="http://www.w3.org/2001/xml-events" xmlns:xlink="http://www.w3.org/1999/xlink"><defs /><path d="M 108.65625,80.65625 105.3125,84 h 1.375 l 2.65625,-2.65625 z M 99,85 l 4,4 v 4 h -1 c -0.554,0 -1,0.446 -1,1 h 5 c 0,-0.554 -0.446,-1 -1,-1 h -1 v -4 l 4,-4 H 107 105.6875 105 103 Z" fill="#000" transform="translate(8.0,8.0) translate(-104.0,-88.0)" /><path d="M 108.65625,80.65625 105.3125,84 h 1.375 l 2.65625,-2.65625 z M 99,85 l 4,4 v 4 h -1 c -0.554,0 -1,0.446 -1,1 h 5 c 0,-0.554 -0.446,-1 -1,-1 h -1 v -4 l 4,-4 H 107 105.6875 105 103 Z" fill="#000" transform="translate(8.0,8.0) translate(-104.0,-88.0)" /></svg>