<?xml version="1.0" encoding="utf-8" ?>
<svg baseProfile="full" height="16" version="1.1" width="16" xmlns="http://www.w3.org/2000/svg" xmlns:ev="http://www.w3.org/2001/xml-events" xmlns:xlink="http://www.w3.org/1999/xlink"><defs /><path d="m 410.50195,81.992188 a 0.50005,0.50005 0 0 0 -0.2832,0.08789 0.50005,0.50005 0 0 0 -0.0156,0.01172 0.50005,0.50005 0 0 0 -0.0351,0.0293 0.50005,0.50005 0 0 0 -0.008,0.0039 0.50005,0.50005 0 0 0 -0.0293,0.03125 0.50005,0.50005 0 0 0 -0.002,0.002 0.50005,0.50005 0 0 0 -0.006,0.0078 0.50005,0.50005 0 0 0 -0.0137,0.01563 0.50005,0.50005 0 0 0 -0.0117,0.01563 0.50005,0.50005 0 0 0 -0.0254,0.03711 0.50005,0.50005 0 0 0 -0.002,0.0039 0.50005,0.50005 0 0 0 -0.0137,0.02734 0.50005,0.50005 0 0 0 -0.01,0.01758 0.50005,0.50005 0 0 0 -0.0117,0.02734 0.50005,0.50005 0 0 0 -0.0215,0.06641 0.50005,0.50005 0 0 0 -0.006,0.0293 0.50005,0.50005 0 0 0 -0.008,0.07031 l -0.81445,6.923829 C 408.85236,89.152184 408.44425,89 408,89 c -1.09865,0 -2,0.901353 -2,2 0,0.893632 0.60026,1.64671 1.41406,1.900391 l -0.25195,0.232421 a 0.50005,0.50005 0 1 0 0.67578,0.734376 l 1.49414,-1.375 a 0.50005,0.50005 0 0 0 0.0586,-0.0625 c 0.35062,-0.341151 0.57233,-0.80863 0.59961,-1.326172 a 0.50005,0.50005 0 0 0 0.006,-0.04492 L 410.23828,89 h 0.52344 l 0.24219,2.058594 a 0.50005,0.50005 0 0 0 0.008,0.05664 C 411.07308,92.160059 411.94068,93 413,93 c 1.09865,0 2,-0.901353 2,-2 0,-1.098647 -0.90135,-2 -2,-2 -0.44425,0 -0.85236,0.152184 -1.18555,0.400391 L 411,82.474609 a 0.50005,0.50005 0 0 0 -0.49805,-0.482421 z M 404.5,82 a 0.50005,0.50005 0 0 0 -0.11523,0.01172 c -1.27247,0.05976 -2.2974,1.076763 -2.3711,2.345703 a 0.50005,0.50005 0 0 0 0,0.002 A 0.50005,0.50005 0 0 0 402,84.582031 v 1.837891 a 0.50005,0.50005 0 0 0 0,0.162109 v 1.837891 a 0.50005,0.50005 0 0 0 0,0.162109 V 92.5 a 0.50005,0.50005 0 1 0 1,0 V 89 h 2.5 a 0.50005,0.50005 0 1 0 0,-1 H 403 v -1 h 2.5 a 0.50005,0.50005 0 1 0 0,-1 H 403 v -1 h 2.5 a 0.50005,0.50005 0 1 0 0,-1 h -2.41016 c 0.20465,-0.583803 0.75248,-1 1.41016,-1 h 1 a 0.50005,0.50005 0 1 0 0,-1 h -0.96484 A 0.50005,0.50005 0 0 0 404.5,82 Z m 3.5,8 c 0.55474,0 0.9926,0.436951 0.99805,0.990234 a 0.50005,0.50005 0 0 0 0,0.01953 C 408.9926,91.563049 408.55474,92 408,92 c -0.55821,0 -1,-0.441793 -1,-1 0,-0.558207 0.44179,-1 1,-1 z m 5,0 c 0.55821,0 1,0.441793 1,1 0,0.558207 -0.44179,1 -1,1 -0.55474,0 -0.9926,-0.438904 -0.99805,-0.992188 A 0.50005,0.50005 0 0 0 412,90.994141 C 412.00316,90.438774 412.44379,90 413,90 Z" fill="#000" transform="translate(8.0,8.0) translate(-408.0,-88.0)" /><path d="m 410.50195,81.992188 a 0.50005,0.50005 0 0 0 -0.2832,0.08789 0.50005,0.50005 0 0 0 -0.0156,0.01172 0.50005,0.50005 0 0 0 -0.0351,0.0293 0.50005,0.50005 0 0 0 -0.008,0.0039 0.50005,0.50005 0 0 0 -0.0293,0.03125 0.50005,0.50005 0 0 0 -0.002,0.002 0.50005,0.50005 0 0 0 -0.006,0.0078 0.50005,0.50005 0 0 0 -0.0137,0.01563 0.50005,0.50005 0 0 0 -0.0117,0.01563 0.50005,0.50005 0 0 0 -0.0254,0.03711 0.50005,0.50005 0 0 0 -0.002,0.0039 0.50005,0.50005 0 0 0 -0.0137,0.02734 0.50005,0.50005 0 0 0 -0.01,0.01758 0.50005,0.50005 0 0 0 -0.0117,0.02734 0.50005,0.50005 0 0 0 -0.0215,0.06641 0.50005,0.50005 0 0 0 -0.006,0.0293 0.50005,0.50005 0 0 0 -0.008,0.07031 l -0.81445,6.923829 C 408.85236,89.152184 408.44425,89 408,89 c -1.09865,0 -2,0.901353 -2,2 0,0.893632 0.60026,1.64671 1.41406,1.900391 l -0.25195,0.232421 a 0.50005,0.50005 0 1 0 0.67578,0.734376 l 1.49414,-1.375 a 0.50005,0.50005 0 0 0 0.0586,-0.0625 c 0.35062,-0.341151 0.57233,-0.80863 0.59961,-1.326172 a 0.50005,0.50005 0 0 0 0.006,-0.04492 L 410.23828,89 h 0.52344 l 0.24219,2.058594 a 0.50005,0.50005 0 0 0 0.008,0.05664 C 411.07308,92.160059 411.94068,93 413,93 c 1.09865,0 2,-0.901353 2,-2 0,-1.098647 -0.90135,-2 -2,-2 -0.44425,0 -0.85236,0.152184 -1.18555,0.400391 L 411,82.474609 a 0.50005,0.50005 0 0 0 -0.49805,-0.482421 z M 404.5,82 a 0.50005,0.50005 0 0 0 -0.11523,0.01172 c -1.27247,0.05976 -2.2974,1.076763 -2.3711,2.345703 a 0.50005,0.50005 0 0 0 0,0.002 A 0.50005,0.50005 0 0 0 402,84.582031 v 1.837891 a 0.50005,0.50005 0 0 0 0,0.162109 v 1.837891 a 0.50005,0.50005 0 0 0 0,0.162109 V 92.5 a 0.50005,0.50005 0 1 0 1,0 V 89 h 2.5 a 0.50005,0.50005 0 1 0 0,-1 H 403 v -1 h 2.5 a 0.50005,0.50005 0 1 0 0,-1 H 403 v -1 h 2.5 a 0.50005,0.50005 0 1 0 0,-1 h -2.41016 c 0.20465,-0.583803 0.75248,-1 1.41016,-1 h 1 a 0.50005,0.50005 0 1 0 0,-1 h -0.96484 A 0.50005,0.50005 0 0 0 404.5,82 Z m 3.5,8 c 0.55474,0 0.9926,0.436951 0.99805,0.990234 a 0.50005,0.50005 0 0 0 0,0.01953 C 408.9926,91.563049 408.55474,92 408,92 c -0.55821,0 -1,-0.441793 -1,-1 0,-0.558207 0.44179,-1 1,-1 z m 5,0 c 0.55821,0 1,0.441793 1,1 0,0.558207 -0.44179,1 -1,1 -0.55474,0 -0.9926,-0.438904 -0.99805,-0.992188 A 0.50005,0.50005 0 0 0 412,90.994141 C 412.00316,90.438774 412.44379,90 413,90 Z" fill="#000" transform="translate(8.0,8.0) translate(-408.0,-88.0)" /></svg>