<?xml version="1.0" encoding="utf-8" ?>
<svg baseProfile="full" height="16" version="1.1" width="16" xmlns="http://www.w3.org/2000/svg" xmlns:ev="http://www.w3.org/2001/xml-events" xmlns:xlink="http://www.w3.org/1999/xlink"><defs /><path d="m 377.5,337 c -0.0138,0.002 -0.0275,0.005 -0.041,0.008 -0.0378,0.003 -0.0752,0.0101 -0.11132,0.0215 -0.0221,0.007 -0.0436,0.0155 -0.0645,0.0254 -0.0426,0.0204 -0.082,0.0467 -0.11718,0.0781 -0.007,0.004 -0.0131,0.009 -0.0195,0.0137 l -6,6 -1,1 c -0.0938,0.0938 -0.14646,0.22092 -0.14648,0.35352 v 2 c 3e-5,0.27613 0.22387,0.49997 0.5,0.5 h 0.19141 l -0.63868,1.27734 c -0.0346,0.0692 -0.0526,0.14536 -0.0527,0.22266 v 2 c 0,0.27614 0.22386,0.5 0.5,0.5 0.27614,0 0.5,-0.22386 0.5,-0.5 v -1.88281 L 371.80859,347 h 2.38282 L 375,348.61719 V 350.5 c 0,0.27614 0.22386,0.5 0.5,0.5 0.27614,0 0.5,-0.22386 0.5,-0.5 v -2 c -1.3e-4,-0.0773 -0.0182,-0.15351 -0.0527,-0.22266 L 375.30859,347 H 375.5 c 0.27613,-3e-5 0.49997,-0.22387 0.5,-0.5 v -2 c -2e-5,-0.1326 -0.0527,-0.25976 -0.14648,-0.35352 l -0.7461,-0.74609 2.29883,-4.59766 1.61914,4.85547 c 0.005,0.0113 0.0113,0.0224 0.0176,0.0332 0.0121,0.03 0.0272,0.0588 0.0449,0.0859 0.01,0.0142 0.0201,0.0279 0.0312,0.041 0.0206,0.0243 0.0435,0.0465 0.0684,0.0664 0.0119,0.0103 0.0243,0.0201 0.0371,0.0293 0.0301,0.0197 0.0621,0.036 0.0957,0.0488 0.0134,0.006 0.0271,0.011 0.041,0.0156 0.045,0.0136 0.0917,0.0209 0.13867,0.0215 0.001,10e-6 0.003,10e-6 0.004,0 0.20203,0.002 0.38155,0.12167 0.45898,0.30859 0.0779,0.18817 0.0346,0.40091 -0.10937,0.54493 -0.14402,0.14401 -0.35676,0.18731 -0.54493,0.10937 C 379.12043,344.88495 379,344.70367 379,344.5 c 0,-0.27614 -0.22386,-0.5 -0.5,-0.5 -0.27614,0 -0.5,0.22386 -0.5,0.5 0,0.60526 0.3666,1.1551 0.92578,1.38672 0.55919,0.23162 1.20679,0.10181 1.63477,-0.32617 0.42798,-0.42798 0.55779,-1.07558 0.32617,-1.63477 -0.18216,-0.43976 -0.56181,-0.76005 -1.00977,-0.87695 l -1.90234,-5.70703 c -0.003,-0.005 -0.005,-0.009 -0.008,-0.0137 -0.0143,-0.0415 -0.034,-0.0809 -0.0586,-0.11718 -10e-4,-10e-4 -0.003,-0.003 -0.004,-0.004 -0.0153,-0.0215 -0.0323,-0.0417 -0.0508,-0.0605 -0.007,-0.005 -0.0142,-0.009 -0.0215,-0.0137 -0.0324,-0.0293 -0.0685,-0.0543 -0.10742,-0.0742 -0.0139,-0.009 -0.0283,-0.0163 -0.043,-0.0234 -0.0469,-0.0184 -0.0963,-0.0296 -0.14648,-0.0332 -0.006,5.5e-4 -0.0117,0.001 -0.0176,0.002 -0.006,-10e-4 -0.0117,-0.003 -0.0176,-0.004 z m -1.82422,3.03125 L 374.19141,343 h -1.48438 z" fill="#000" transform="translate(8.0,8.0) translate(-376.0,-344.0)" /><path d="m 377.5,337 c -0.0138,0.002 -0.0275,0.005 -0.041,0.008 -0.0378,0.003 -0.0752,0.0101 -0.11132,0.0215 -0.0221,0.007 -0.0436,0.0155 -0.0645,0.0254 -0.0426,0.0204 -0.082,0.0467 -0.11718,0.0781 -0.007,0.004 -0.0131,0.009 -0.0195,0.0137 l -6,6 -1,1 c -0.0938,0.0938 -0.14646,0.22092 -0.14648,0.35352 v 2 c 3e-5,0.27613 0.22387,0.49997 0.5,0.5 h 0.19141 l -0.63868,1.27734 c -0.0346,0.0692 -0.0526,0.14536 -0.0527,0.22266 v 2 c 0,0.27614 0.22386,0.5 0.5,0.5 0.27614,0 0.5,-0.22386 0.5,-0.5 v -1.88281 L 371.80859,347 h 2.38282 L 375,348.61719 V 350.5 c 0,0.27614 0.22386,0.5 0.5,0.5 0.27614,0 0.5,-0.22386 0.5,-0.5 v -2 c -1.3e-4,-0.0773 -0.0182,-0.15351 -0.0527,-0.22266 L 375.30859,347 H 375.5 c 0.27613,-3e-5 0.49997,-0.22387 0.5,-0.5 v -2 c -2e-5,-0.1326 -0.0527,-0.25976 -0.14648,-0.35352 l -0.7461,-0.74609 2.29883,-4.59766 1.61914,4.85547 c 0.005,0.0113 0.0113,0.0224 0.0176,0.0332 0.0121,0.03 0.0272,0.0588 0.0449,0.0859 0.01,0.0142 0.0201,0.0279 0.0312,0.041 0.0206,0.0243 0.0435,0.0465 0.0684,0.0664 0.0119,0.0103 0.0243,0.0201 0.0371,0.0293 0.0301,0.0197 0.0621,0.036 0.0957,0.0488 0.0134,0.006 0.0271,0.011 0.041,0.0156 0.045,0.0136 0.0917,0.0209 0.13867,0.0215 0.001,10e-6 0.003,10e-6 0.004,0 0.20203,0.002 0.38155,0.12167 0.45898,0.30859 0.0779,0.18817 0.0346,0.40091 -0.10937,0.54493 -0.14402,0.14401 -0.35676,0.18731 -0.54493,0.10937 C 379.12043,344.88495 379,344.70367 379,344.5 c 0,-0.27614 -0.22386,-0.5 -0.5,-0.5 -0.27614,0 -0.5,0.22386 -0.5,0.5 0,0.60526 0.3666,1.1551 0.92578,1.38672 0.55919,0.23162 1.20679,0.10181 1.63477,-0.32617 0.42798,-0.42798 0.55779,-1.07558 0.32617,-1.63477 -0.18216,-0.43976 -0.56181,-0.76005 -1.00977,-0.87695 l -1.90234,-5.70703 c -0.003,-0.005 -0.005,-0.009 -0.008,-0.0137 -0.0143,-0.0415 -0.034,-0.0809 -0.0586,-0.11718 -10e-4,-10e-4 -0.003,-0.003 -0.004,-0.004 -0.0153,-0.0215 -0.0323,-0.0417 -0.0508,-0.0605 -0.007,-0.005 -0.0142,-0.009 -0.0215,-0.0137 -0.0324,-0.0293 -0.0685,-0.0543 -0.10742,-0.0742 -0.0139,-0.009 -0.0283,-0.0163 -0.043,-0.0234 -0.0469,-0.0184 -0.0963,-0.0296 -0.14648,-0.0332 -0.006,5.5e-4 -0.0117,0.001 -0.0176,0.002 -0.006,-10e-4 -0.0117,-0.003 -0.0176,-0.004 z m -1.82422,3.03125 L 374.19141,343 h -1.48438 z" fill="#000" transform="translate(8.0,8.0) translate(-376.0,-344.0)" /></svg>