<?xml version="1.0" encoding="utf-8" ?>
<svg baseProfile="full" height="16" version="1.1" width="16" xmlns="http://www.w3.org/2000/svg" xmlns:ev="http://www.w3.org/2001/xml-events" xmlns:xlink="http://www.w3.org/1999/xlink"><defs /><path d="m 354.5,338 a 0.50005,0.50005 0 0 0 -0.49023,0.40234 L 353.89062,339 H 353.5 a 0.5,0.5 0 0 0 -0.5,0.5 0.5,0.5 0 0 0 0.5,0.5 h 0.18945 l -0.67968,3.40234 a 0.50005,0.50005 0 0 0 -0.002,0.0254 0.5,0.5 0 0 0 -0.004,0.0332 A 0.50005,0.50005 0 0 0 353,343.5 v 5 a 0.5,0.5 0 0 0 0.004,0.0195 0.5,0.5 0 0 0 0.0312,0.16211 0.5,0.5 0 0 0 0.0117,0.0234 0.5,0.5 0 0 0 0.0996,0.14844 0.5,0.5 0 0 0 0.14844,0.0996 0.5,0.5 0 0 0 0.0234,0.0117 0.5,0.5 0 0 0 0.16211,0.0312 0.5,0.5 0 0 0 0.0195,0.004 0.5,0.5 0 0 0 0.0195,-0.004 0.5,0.5 0 0 0 0.16211,-0.0312 0.5,0.5 0 0 0 0.0234,-0.0117 0.5,0.5 0 0 0 0.14844,-0.0996 L 355,347.70703 V 348.5 a 0.5,0.5 0 0 0 0.5,0.5 0.5,0.5 0 0 0 0.5,-0.5 v -1.97852 a 0.5,0.5 0 0 0 0,-0.043 v -0.95704 a 0.5,0.5 0 0 0 0,-0.043 V 343.5 a 0.50005,0.50005 0 0 0 -0.01,-0.0977 L 355.31055,340 H 357 v 0.5 a 0.50005,0.50005 0 0 0 0.5,0.5 h 1.5 v 3.5 a 0.5,0.5 0 0 0 0.37109,0.48242 A 0.5,0.5 0 0 0 359.5,345 c 0.20367,0 0.38495,0.12043 0.46289,0.30859 0.0779,0.18817 0.0346,0.40091 -0.10937,0.54493 -0.14402,0.14401 -0.35676,0.18731 -0.54493,0.10937 C 359.12043,345.88495 359,345.70367 359,345.5 a 0.5,0.5 0 0 0 -0.5,-0.5 0.5,0.5 0 0 0 -0.5,0.5 c 0,0.60526 0.3666,1.1551 0.92578,1.38672 0.55919,0.23162 1.20679,0.10181 1.63477,-0.32617 0.42798,-0.42798 0.55779,-1.07558 0.32617,-1.63477 -0.16521,-0.39885 -0.49308,-0.69814 -0.88672,-0.83789 V 341 h 1.5 a 0.50005,0.50005 0 0 0 0.5,-0.5 V 340 h 1.68945 l -0.67968,3.40234 a 0.50005,0.50005 0 0 0 -0.002,0.0254 0.5,0.5 0 0 0 -0.004,0.0332 A 0.50005,0.50005 0 0 0 363,343.5 v 5 a 0.5,0.5 0 0 0 0.004,0.0195 0.5,0.5 0 0 0 0.0312,0.16211 0.5,0.5 0 0 0 0.0117,0.0234 0.5,0.5 0 0 0 0.0996,0.14844 0.5,0.5 0 0 0 0.14844,0.0996 0.5,0.5 0 0 0 0.0234,0.0117 0.5,0.5 0 0 0 0.16211,0.0312 0.5,0.5 0 0 0 0.0195,0.004 0.5,0.5 0 0 0 0.0195,-0.004 0.5,0.5 0 0 0 0.16211,-0.0312 0.5,0.5 0 0 0 0.0234,-0.0117 0.5,0.5 0 0 0 0.14844,-0.0996 L 365,347.70703 V 348.5 a 0.5,0.5 0 0 0 0.5,0.5 0.5,0.5 0 0 0 0.5,-0.5 v -1.97852 a 0.5,0.5 0 0 0 0,-0.043 v -0.95704 a 0.5,0.5 0 0 0 0,-0.043 V 343.5 a 0.50005,0.50005 0 0 0 -0.01,-0.0977 L 365.31055,340 H 365.5 a 0.5,0.5 0 0 0 0.5,-0.5 0.5,0.5 0 0 0 -0.5,-0.5 h -0.39062 l -0.11915,-0.59766 A 0.50005,0.50005 0 0 0 364.5,338 a 0.50005,0.50005 0 0 0 -0.49023,0.40234 L 363.89062,339 H 362 v -0.5 a 0.50005,0.50005 0 0 0 -0.5,-0.5 h -4 a 0.50005,0.50005 0 0 0 -0.5,0.5 v 0.5 h -1.89062 l -0.11915,-0.59766 A 0.50005,0.50005 0 0 0 354.5,338 Z m 0,3.04883 0.5,2.5 v 0.74414 l -0.95703,-0.95703 z m 10,0 0.5,2.5 v 0.74414 l -0.95703,-0.95703 z m -10.5,3.6582 1,1 v 0.58594 l -1,1 z m 10,0 1,1 v 0.58594 l -1,1 z" fill="#000" transform="translate(8.0,8.0) translate(-360.0,-344.0)" /><path d="m 354.5,338 a 0.50005,0.50005 0 0 0 -0.49023,0.40234 L 353.89062,339 H 353.5 a 0.5,0.5 0 0 0 -0.5,0.5 0.5,0.5 0 0 0 0.5,0.5 h 0.18945 l -0.67968,3.40234 a 0.50005,0.50005 0 0 0 -0.002,0.0254 0.5,0.5 0 0 0 -0.004,0.0332 A 0.50005,0.50005 0 0 0 353,343.5 v 5 a 0.5,0.5 0 0 0 0.004,0.0195 0.5,0.5 0 0 0 0.0312,0.16211 0.5,0.5 0 0 0 0.0117,0.0234 0.5,0.5 0 0 0 0.0996,0.14844 0.5,0.5 0 0 0 0.14844,0.0996 0.5,0.5 0 0 0 0.0234,0.0117 0.5,0.5 0 0 0 0.16211,0.0312 0.5,0.5 0 0 0 0.0195,0.004 0.5,0.5 0 0 0 0.0195,-0.004 0.5,0.5 0 0 0 0.16211,-0.0312 0.5,0.5 0 0 0 0.0234,-0.0117 0.5,0.5 0 0 0 0.14844,-0.0996 L 355,347.70703 V 348.5 a 0.5,0.5 0 0 0 0.5,0.5 0.5,0.5 0 0 0 0.5,-0.5 v -1.97852 a 0.5,0.5 0 0 0 0,-0.043 v -0.95704 a 0.5,0.5 0 0 0 0,-0.043 V 343.5 a 0.50005,0.50005 0 0 0 -0.01,-0.0977 L 355.31055,340 H 357 v 0.5 a 0.50005,0.50005 0 0 0 0.5,0.5 h 1.5 v 3.5 a 0.5,0.5 0 0 0 0.37109,0.48242 A 0.5,0.5 0 0 0 359.5,345 c 0.20367,0 0.38495,0.12043 0.46289,0.30859 0.0779,0.18817 0.0346,0.40091 -0.10937,0.54493 -0.14402,0.14401 -0.35676,0.18731 -0.54493,0.10937 C 359.12043,345.88495 359,345.70367 359,345.5 a 0.5,0.5 0 0 0 -0.5,-0.5 0.5,0.5 0 0 0 -0.5,0.5 c 0,0.60526 0.3666,1.1551 0.92578,1.38672 0.55919,0.23162 1.20679,0.10181 1.63477,-0.32617 0.42798,-0.42798 0.55779,-1.07558 0.32617,-1.63477 -0.16521,-0.39885 -0.49308,-0.69814 -0.88672,-0.83789 V 341 h 1.5 a 0.50005,0.50005 0 0 0 0.5,-0.5 V 340 h 1.68945 l -0.67968,3.40234 a 0.50005,0.50005 0 0 0 -0.002,0.0254 0.5,0.5 0 0 0 -0.004,0.0332 A 0.50005,0.50005 0 0 0 363,343.5 v 5 a 0.5,0.5 0 0 0 0.004,0.0195 0.5,0.5 0 0 0 0.0312,0.16211 0.5,0.5 0 0 0 0.0117,0.0234 0.5,0.5 0 0 0 0.0996,0.14844 0.5,0.5 0 0 0 0.14844,0.0996 0.5,0.5 0 0 0 0.0234,0.0117 0.5,0.5 0 0 0 0.16211,0.0312 0.5,0.5 0 0 0 0.0195,0.004 0.5,0.5 0 0 0 0.0195,-0.004 0.5,0.5 0 0 0 0.16211,-0.0312 0.5,0.5 0 0 0 0.0234,-0.0117 0.5,0.5 0 0 0 0.14844,-0.0996 L 365,347.70703 V 348.5 a 0.5,0.5 0 0 0 0.5,0.5 0.5,0.5 0 0 0 0.5,-0.5 v -1.97852 a 0.5,0.5 0 0 0 0,-0.043 v -0.95704 a 0.5,0.5 0 0 0 0,-0.043 V 343.5 a 0.50005,0.50005 0 0 0 -0.01,-0.0977 L 365.31055,340 H 365.5 a 0.5,0.5 0 0 0 0.5,-0.5 0.5,0.5 0 0 0 -0.5,-0.5 h -0.39062 l -0.11915,-0.59766 A 0.50005,0.50005 0 0 0 364.5,338 a 0.50005,0.50005 0 0 0 -0.49023,0.40234 L 363.89062,339 H 362 v -0.5 a 0.50005,0.50005 0 0 0 -0.5,-0.5 h -4 a 0.50005,0.50005 0 0 0 -0.5,0.5 v 0.5 h -1.89062 l -0.11915,-0.59766 A 0.50005,0.50005 0 0 0 354.5,338 Z m 0,3.04883 0.5,2.5 v 0.74414 l -0.95703,-0.95703 z m 10,0 0.5,2.5 v 0.74414 l -0.95703,-0.95703 z m -10.5,3.6582 1,1 v 0.58594 l -1,1 z m 10,0 1,1 v 0.58594 l -1,1 z" fill="#000" transform="translate(8.0,8.0) translate(-360.0,-344.0)" /></svg>