<?xml version="1.0" encoding="utf-8" ?>
<svg baseProfile="full" height="16" version="1.1" width="16" xmlns="http://www.w3.org/2000/svg" xmlns:ev="http://www.w3.org/2001/xml-events" xmlns:xlink="http://www.w3.org/1999/xlink"><defs /><path d="m 322.5,338 c -0.27613,3e-5 -0.49997,0.22387 -0.5,0.5 v 1 c 3e-5,0.27613 0.22387,0.49997 0.5,0.5 h 1.5 v 3.5 3 4 c 10e-4,0.007 0.002,0.0131 0.004,0.0195 10e-4,0.0554 0.0119,0.11018 0.0312,0.16211 0.004,0.008 0.008,0.0157 0.0117,0.0234 0.024,0.0551 0.0577,0.10534 0.0996,0.14844 0.0431,0.0419 0.0934,0.0756 0.14844,0.0996 0.008,0.004 0.0155,0.008 0.0234,0.0117 0.0519,0.0193 0.10672,0.0299 0.16211,0.0312 0.006,0.001 0.013,0.003 0.0195,0.004 0.007,-0.001 0.0131,-0.002 0.0195,-0.004 0.0554,-10e-4 0.11018,-0.0119 0.16211,-0.0312 0.008,-0.004 0.0157,-0.008 0.0234,-0.0117 0.0551,-0.024 0.10534,-0.0577 0.14844,-0.0996 L 326,349.70703 V 350.5 c 0,0.27614 0.22386,0.5 0.5,0.5 0.27614,0 0.5,-0.22386 0.5,-0.5 v -1.97852 c 6.2e-4,-0.0143 6.2e-4,-0.0286 0,-0.043 v -0.95704 c 6.2e-4,-0.0143 6.2e-4,-0.0286 0,-0.043 V 346.5 v -3 -0.97852 c 6.2e-4,-0.0143 6.2e-4,-0.0286 0,-0.043 v -0.95704 c 6.2e-4,-0.0143 6.2e-4,-0.0286 0,-0.043 V 340 h 1.5 2.5 v 4.5 c 3.1e-4,0.22624 0.15249,0.42409 0.37109,0.48242 0.042,0.0115 0.0854,0.0174 0.12891,0.0176 0.20367,0 0.38495,0.12043 0.46289,0.30859 0.0779,0.18817 0.0346,0.40091 -0.10937,0.54493 -0.14402,0.14401 -0.35676,0.18731 -0.54493,0.10937 C 331.12043,345.88495 331,345.70367 331,345.5 c 0,-0.27614 -0.22386,-0.5 -0.5,-0.5 -0.27614,0 -0.5,0.22386 -0.5,0.5 0,0.60526 0.3666,1.1551 0.92578,1.38672 0.55919,0.23162 1.20679,0.10181 1.63477,-0.32617 0.42798,-0.42798 0.55779,-1.07558 0.32617,-1.63477 -0.16521,-0.39885 -0.49308,-0.69814 -0.88672,-0.83789 V 340 h 1.5 c 0.27614,0 0.5,-0.22386 0.5,-0.5 0,-0.27614 -0.22386,-0.5 -0.5,-0.5 h -4.79297 l -0.85351,-0.85352 C 327.75976,338.05271 327.6326,338.00002 327.5,338 Z m 2.5,2.70703 1,1 v 0.58594 l -1,1 z m 1,3 v 2.58594 l -1,-1 v -0.58594 z m -1,3 1,1 v 0.58594 l -1,1 z" fill="#000" transform="translate(8.0,8.0) translate(-328.0,-344.0)" /><path d="m 322.5,338 c -0.27613,3e-5 -0.49997,0.22387 -0.5,0.5 v 1 c 3e-5,0.27613 0.22387,0.49997 0.5,0.5 h 1.5 v 3.5 3 4 c 10e-4,0.007 0.002,0.0131 0.004,0.0195 10e-4,0.0554 0.0119,0.11018 0.0312,0.16211 0.004,0.008 0.008,0.0157 0.0117,0.0234 0.024,0.0551 0.0577,0.10534 0.0996,0.14844 0.0431,0.0419 0.0934,0.0756 0.14844,0.0996 0.008,0.004 0.0155,0.008 0.0234,0.0117 0.0519,0.0193 0.10672,0.0299 0.16211,0.0312 0.006,0.001 0.013,0.003 0.0195,0.004 0.007,-0.001 0.0131,-0.002 0.0195,-0.004 0.0554,-10e-4 0.11018,-0.0119 0.16211,-0.0312 0.008,-0.004 0.0157,-0.008 0.0234,-0.0117 0.0551,-0.024 0.10534,-0.0577 0.14844,-0.0996 L 326,349.70703 V 350.5 c 0,0.27614 0.22386,0.5 0.5,0.5 0.27614,0 0.5,-0.22386 0.5,-0.5 v -1.97852 c 6.2e-4,-0.0143 6.2e-4,-0.0286 0,-0.043 v -0.95704 c 6.2e-4,-0.0143 6.2e-4,-0.0286 0,-0.043 V 346.5 v -3 -0.97852 c 6.2e-4,-0.0143 6.2e-4,-0.0286 0,-0.043 v -0.95704 c 6.2e-4,-0.0143 6.2e-4,-0.0286 0,-0.043 V 340 h 1.5 2.5 v 4.5 c 3.1e-4,0.22624 0.15249,0.42409 0.37109,0.48242 0.042,0.0115 0.0854,0.0174 0.12891,0.0176 0.20367,0 0.38495,0.12043 0.46289,0.30859 0.0779,0.18817 0.0346,0.40091 -0.10937,0.54493 -0.14402,0.14401 -0.35676,0.18731 -0.54493,0.10937 C 331.12043,345.88495 331,345.70367 331,345.5 c 0,-0.27614 -0.22386,-0.5 -0.5,-0.5 -0.27614,0 -0.5,0.22386 -0.5,0.5 0,0.60526 0.3666,1.1551 0.92578,1.38672 0.55919,0.23162 1.20679,0.10181 1.63477,-0.32617 0.42798,-0.42798 0.55779,-1.07558 0.32617,-1.63477 -0.16521,-0.39885 -0.49308,-0.69814 -0.88672,-0.83789 V 340 h 1.5 c 0.27614,0 0.5,-0.22386 0.5,-0.5 0,-0.27614 -0.22386,-0.5 -0.5,-0.5 h -4.79297 l -0.85351,-0.85352 C 327.75976,338.05271 327.6326,338.00002 327.5,338 Z m 2.5,2.70703 1,1 v 0.58594 l -1,1 z m 1,3 v 2.58594 l -1,-1 v -0.58594 z m -1,3 1,1 v 0.58594 l -1,1 z" fill="#000" transform="translate(8.0,8.0) translate(-328.0,-344.0)" /></svg>