<?xml version="1.0" encoding="utf-8" ?>
<svg baseProfile="full" height="16" version="1.1" width="16" xmlns="http://www.w3.org/2000/svg" xmlns:ev="http://www.w3.org/2001/xml-events" xmlns:xlink="http://www.w3.org/1999/xlink"><defs /><path d="m 385.5,338 a 0.5,0.5 0 0 0 -0.5,0.5 v 11 a 0.5,0.5 0 0 0 0.5,0.5 0.5,0.5 0 0 0 0.5,-0.5 V 340 h 3 v 0.5 a 0.50005,0.50005 0 0 0 0.5,0.5 h 1.5 v 2.5 a 0.5,0.5 0 0 0 0.37109,0.48242 A 0.5,0.5 0 0 0 391.5,344 c 0.20367,0 0.38495,0.12043 0.46289,0.30859 0.0779,0.18817 0.0346,0.40091 -0.10937,0.54493 -0.14402,0.14401 -0.35676,0.18731 -0.54493,0.10937 C 391.12043,344.88495 391,344.70367 391,344.5 a 0.5,0.5 0 0 0 -0.5,-0.5 0.5,0.5 0 0 0 -0.5,0.5 c 0,0.60526 0.3666,1.1551 0.92578,1.38672 0.55919,0.23162 1.20679,0.10181 1.63477,-0.32617 0.42798,-0.42798 0.55779,-1.07558 0.32617,-1.63477 -0.16521,-0.39885 -0.49308,-0.69814 -0.88672,-0.83789 V 341 h 1.5 a 0.50005,0.50005 0 0 0 0.5,-0.5 V 340 h 3 v 9.5 a 0.5,0.5 0 0 0 0.5,0.5 0.5,0.5 0 0 0 0.5,-0.5 v -11 a 0.5,0.5 0 0 0 -0.5,-0.5 0.5,0.5 0 0 0 -0.5,0.5 v 0.5 h -3 v -0.5 a 0.50005,0.50005 0 0 0 -0.5,-0.5 h -4 a 0.50005,0.50005 0 0 0 -0.5,0.5 v 0.5 h -3 v -0.5 a 0.5,0.5 0 0 0 -0.5,-0.5 z m 4.5,10.04297 -0.35352,0.35351 C 389.20541,348.83756 388.83333,349 388.5,349 c -0.33333,0 -0.70541,-0.16244 -1.14648,-0.60352 l -0.70704,0.70704 C 387.20541,349.66244 387.83333,350 388.5,350 c 0.53939,0 1.02735,-0.34422 1.5,-0.72461 0.47265,0.38039 0.96061,0.72461 1.5,0.72461 0.53939,0 1.02735,-0.34422 1.5,-0.72461 0.47265,0.38039 0.96061,0.72461 1.5,0.72461 0.66667,0 1.29459,-0.33756 1.85352,-0.89648 l -0.70704,-0.70704 C 395.20541,348.83756 394.83333,349 394.5,349 c -0.33333,0 -0.70541,-0.16244 -1.14648,-0.60352 L 393,348.04297 l -0.35352,0.35351 C 392.20541,348.83756 391.83333,349 391.5,349 c -0.33333,0 -0.70541,-0.16244 -1.14648,-0.60352 z" fill="#000" transform="translate(8.0,8.0) translate(-392.0,-344.0)" /><path d="m 385.5,338 a 0.5,0.5 0 0 0 -0.5,0.5 v 11 a 0.5,0.5 0 0 0 0.5,0.5 0.5,0.5 0 0 0 0.5,-0.5 V 340 h 3 v 0.5 a 0.50005,0.50005 0 0 0 0.5,0.5 h 1.5 v 2.5 a 0.5,0.5 0 0 0 0.37109,0.48242 A 0.5,0.5 0 0 0 391.5,344 c 0.20367,0 0.38495,0.12043 0.46289,0.30859 0.0779,0.18817 0.0346,0.40091 -0.10937,0.54493 -0.14402,0.14401 -0.35676,0.18731 -0.54493,0.10937 C 391.12043,344.88495 391,344.70367 391,344.5 a 0.5,0.5 0 0 0 -0.5,-0.5 0.5,0.5 0 0 0 -0.5,0.5 c 0,0.60526 0.3666,1.1551 0.92578,1.38672 0.55919,0.23162 1.20679,0.10181 1.63477,-0.32617 0.42798,-0.42798 0.55779,-1.07558 0.32617,-1.63477 -0.16521,-0.39885 -0.49308,-0.69814 -0.88672,-0.83789 V 341 h 1.5 a 0.50005,0.50005 0 0 0 0.5,-0.5 V 340 h 3 v 9.5 a 0.5,0.5 0 0 0 0.5,0.5 0.5,0.5 0 0 0 0.5,-0.5 v -11 a 0.5,0.5 0 0 0 -0.5,-0.5 0.5,0.5 0 0 0 -0.5,0.5 v 0.5 h -3 v -0.5 a 0.50005,0.50005 0 0 0 -0.5,-0.5 h -4 a 0.50005,0.50005 0 0 0 -0.5,0.5 v 0.5 h -3 v -0.5 a 0.5,0.5 0 0 0 -0.5,-0.5 z m 4.5,10.04297 -0.35352,0.35351 C 389.20541,348.83756 388.83333,349 388.5,349 c -0.33333,0 -0.70541,-0.16244 -1.14648,-0.60352 l -0.70704,0.70704 C 387.20541,349.66244 387.83333,350 388.5,350 c 0.53939,0 1.02735,-0.34422 1.5,-0.72461 0.47265,0.38039 0.96061,0.72461 1.5,0.72461 0.53939,0 1.02735,-0.34422 1.5,-0.72461 0.47265,0.38039 0.96061,0.72461 1.5,0.72461 0.66667,0 1.29459,-0.33756 1.85352,-0.89648 l -0.70704,-0.70704 C 395.20541,348.83756 394.83333,349 394.5,349 c -0.33333,0 -0.70541,-0.16244 -1.14648,-0.60352 L 393,348.04297 l -0.35352,0.35351 C 392.20541,348.83756 391.83333,349 391.5,349 c -0.33333,0 -0.70541,-0.16244 -1.14648,-0.60352 z" fill="#000" transform="translate(8.0,8.0) translate(-392.0,-344.0)" /></svg>