<?xml version="1.0" encoding="utf-8" ?>
<svg baseProfile="full" height="16" version="1.1" width="16" xmlns="http://www.w3.org/2000/svg" xmlns:ev="http://www.w3.org/2001/xml-events" xmlns:xlink="http://www.w3.org/1999/xlink"><defs /><path d="m 308.47266,22 c -0.17969,0.01014 -0.34006,0.116064 -0.41993,0.277344 -0.55962,1.119257 -0.45808,1.891979 -1.83007,2.80664 C 305.81126,25.358467 306.00544,25.999813 306.5,26 h 11 c 0.49456,-1.87e-4 0.68874,-0.641533 0.27734,-0.916016 -1.37199,-0.914661 -1.27045,-1.687383 -1.83007,-2.80664 -0.13896,-0.28007 -0.49797,-0.36537 -0.74805,-0.177735 -1.808,1.356 -4.59044,1.356 -6.39844,0 -0.0942,-0.07084 -0.21043,-0.106117 -0.32812,-0.09961 z" fill="#000" transform="translate(8.0,8.0) translate(-312.0,-24.0)" /><path d="m 308.47266,22 c -0.17969,0.01014 -0.34006,0.116064 -0.41993,0.277344 -0.55962,1.119257 -0.45808,1.891979 -1.83007,2.80664 C 305.81126,25.358467 306.00544,25.999813 306.5,26 h 11 c 0.49456,-1.87e-4 0.68874,-0.641533 0.27734,-0.916016 -1.37199,-0.914661 -1.27045,-1.687383 -1.83007,-2.80664 -0.13896,-0.28007 -0.49797,-0.36537 -0.74805,-0.177735 -1.808,1.356 -4.59044,1.356 -6.39844,0 -0.0942,-0.07084 -0.21043,-0.106117 -0.32812,-0.09961 z" fill="#000" transform="translate(8.0,8.0) translate(-312.0,-24.0)" /></svg>