<?xml version="1.0" encoding="utf-8" ?>
<svg baseProfile="full" height="16" version="1.1" width="16" xmlns="http://www.w3.org/2000/svg" xmlns:ev="http://www.w3.org/2001/xml-events" xmlns:xlink="http://www.w3.org/1999/xlink"><defs /><path d="m 131.5,52 c -0.831,0 -1.5,0.669 -1.5,1.5 0,1.66667 0,3.33333 0,5 0,0.831 0.669,1.5 1.5,1.5 h 9 c 0.831,0 1.5,-0.669 1.5,-1.5 0,-1.66667 0,-3.33333 0,-5 0,-0.831 -0.669,-1.5 -1.5,-1.5 z m 0,1 h 9 c 0.277,0 0.5,0.223 0.5,0.5 V 54 h -10 v -0.5 c 0,-0.277 0.223,-0.5 0.5,-0.5 z m -0.5,3 h 10 v 2.5 c 0,0.277 -0.223,0.5 -0.5,0.5 h -9 c -0.277,0 -0.5,-0.223 -0.5,-0.5 z m 4.5,1 c -0.277,0 -0.5,0.223 -0.5,0.5 0,0.277 0.223,0.5 0.5,0.5 h 1 c 0.277,0 0.5,-0.223 0.5,-0.5 0,-0.277 -0.223,-0.5 -0.5,-0.5 z m 3,0 c -0.277,0 -0.5,0.223 -0.5,0.5 0,0.277 0.223,0.5 0.5,0.5 h 1 c 0.277,0 0.5,-0.223 0.5,-0.5 0,-0.277 -0.223,-0.5 -0.5,-0.5 z" fill="#000" transform="translate(8.0,8.0) translate(-136.0,-56.0)" /><path d="m 131.5,52 c -0.831,0 -1.5,0.669 -1.5,1.5 0,1.66667 0,3.33333 0,5 0,0.831 0.669,1.5 1.5,1.5 h 9 c 0.831,0 1.5,-0.669 1.5,-1.5 0,-1.66667 0,-3.33333 0,-5 0,-0.831 -0.669,-1.5 -1.5,-1.5 z m 0,1 h 9 c 0.277,0 0.5,0.223 0.5,0.5 V 54 h -10 v -0.5 c 0,-0.277 0.223,-0.5 0.5,-0.5 z m -0.5,3 h 10 v 2.5 c 0,0.277 -0.223,0.5 -0.5,0.5 h -9 c -0.277,0 -0.5,-0.223 -0.5,-0.5 z m 4.5,1 c -0.277,0 -0.5,0.223 -0.5,0.5 0,0.277 0.223,0.5 0.5,0.5 h 1 c 0.277,0 0.5,-0.223 0.5,-0.5 0,-0.277 -0.223,-0.5 -0.5,-0.5 z m 3,0 c -0.277,0 -0.5,0.223 -0.5,0.5 0,0.277 0.223,0.5 0.5,0.5 h 1 c 0.277,0 0.5,-0.223 0.5,-0.5 0,-0.277 -0.223,-0.5 -0.5,-0.5 z" fill="#000" transform="translate(8.0,8.0) translate(-136.0,-56.0)" /></svg>