<?xml version="1.0" encoding="utf-8" ?>
<svg baseProfile="full" height="16" version="1.1" width="16" xmlns="http://www.w3.org/2000/svg" xmlns:ev="http://www.w3.org/2001/xml-events" xmlns:xlink="http://www.w3.org/1999/xlink"><defs /><path d="M 583.57617,82.01562 A 6,6 0 0 0 578,88 a 6,6 0 0 0 6,6 6,6 0 0 0 5.98047,-5.60156 A 4.75,4.75 0 0 1 585.75,91 4.75,4.75 0 0 1 581,86.25 a 4.75,4.75 0 0 1 2.60156,-4.23438 6,6 0 0 0 -0.0254,0 z" fill="#000" transform="translate(8.0,8.0) translate(-584.0,-88.0)" /><path d="M 583.57617,82.01562 A 6,6 0 0 0 578,88 a 6,6 0 0 0 6,6 6,6 0 0 0 5.98047,-5.60156 A 4.75,4.75 0 0 1 585.75,91 4.75,4.75 0 0 1 581,86.25 a 4.75,4.75 0 0 1 2.60156,-4.23438 6,6 0 0 0 -0.0254,0 z" fill="#000" transform="translate(8.0,8.0) translate(-584.0,-88.0)" /></svg>