<?xml version="1.0" encoding="utf-8" ?>
<svg baseProfile="full" height="16" version="1.1" width="16" xmlns="http://www.w3.org/2000/svg" xmlns:ev="http://www.w3.org/2001/xml-events" xmlns:xlink="http://www.w3.org/1999/xlink"><defs /><path d="m 487.5,275 c -0.277,0 -0.5,0.223 -0.5,0.5 v 1.5 h -1.5 c -0.277,0 -0.5,0.223 -0.5,0.5 v 1 c 0,0.277 0.223,0.5 0.5,0.5 h 1.5 v 5.5 c 0,0.277 0.223,0.5 0.5,0.5 h 1 c 0.277,0 0.5,-0.223 0.5,-0.5 V 279 h 1.5 c 0.277,0 0.5,-0.223 0.5,-0.5 v -1 c 0,-0.277 -0.223,-0.5 -0.5,-0.5 H 489 v -1.5 c 0,-0.277 -0.223,-0.5 -0.5,-0.5 z m 3,9 c -0.277,0 -0.5,0.20906 -0.5,0.46875 v 0.0625 c 0,0.25969 0.223,0.46875 0.5,0.46875 h 4 c 0.277,0 0.5,-0.20906 0.5,-0.46875 v -0.0625 C 495,284.20906 494.777,284 494.5,284 Z" fill="#000" transform="translate(8.0,8.0) translate(-488.0,-280.0)" /><path d="m 487.5,275 c -0.277,0 -0.5,0.223 -0.5,0.5 v 1.5 h -1.5 c -0.277,0 -0.5,0.223 -0.5,0.5 v 1 c 0,0.277 0.223,0.5 0.5,0.5 h 1.5 v 5.5 c 0,0.277 0.223,0.5 0.5,0.5 h 1 c 0.277,0 0.5,-0.223 0.5,-0.5 V 279 h 1.5 c 0.277,0 0.5,-0.223 0.5,-0.5 v -1 c 0,-0.277 -0.223,-0.5 -0.5,-0.5 H 489 v -1.5 c 0,-0.277 -0.223,-0.5 -0.5,-0.5 z m 3,9 c -0.277,0 -0.5,0.20906 -0.5,0.46875 v 0.0625 c 0,0.25969 0.223,0.46875 0.5,0.46875 h 4 c 0.277,0 0.5,-0.20906 0.5,-0.46875 v -0.0625 C 495,284.20906 494.777,284 494.5,284 Z" fill="#000" transform="translate(8.0,8.0) translate(-488.0,-280.0)" /></svg>