<?xml version="1.0" encoding="utf-8" ?>
<svg baseProfile="full" height="16" version="1.1" width="16" xmlns="http://www.w3.org/2000/svg" xmlns:ev="http://www.w3.org/2001/xml-events" xmlns:xlink="http://www.w3.org/1999/xlink"><defs /><path d="m 24,83 c -4.61058,0 -6.68153,3.40488 -5.40625,4.71875 0.0231,-0.0219 0.0394,-0.0393 0.0625,-0.0625 C 19.21518,87.09732 19.83333,86.75 20.5,86.75 c 0.52152,0 0.97787,0.36124 1.4375,0.71875 C 22.52808,87.01097 23.25388,86.75 24,86.75 c 0.74612,0 1.47192,0.26097 2.0625,0.71875 C 26.52213,87.11124 26.97848,86.75 27.5,86.75 c 0.66667,0 1.28482,0.34732 1.84375,0.90625 -0.0543,-0.0543 0.008,-0.0325 0.0625,0 0.006,0.004 0.025,-0.004 0.0312,0 C 30.61048,86.30672 28.55048,83 24,83 Z m -3.5,4.75 c -0.33333,0 -0.71518,0.15268 -1.15625,0.59375 -0.0505,0.0504 -0.1058,0.0788 -0.15625,0.125 L 21,93 h 6 l 1.8125,-4.53125 c -0.0443,-0.0338 -0.0857,-0.0545 -0.15625,-0.125 C 28.21518,87.90268 27.83333,87.75 27.5,87.75 c -0.33333,0 -0.71518,0.15268 -1.15625,0.59375 L 26,88.71875 25.65625,88.34375 C 25.2741,87.9616 24.63889,87.75 24,87.75 c -0.63889,0 -1.2741,0.2116 -1.65625,0.59375 L 22,88.71875 21.65625,88.34375 C 21.21518,87.90268 20.83333,87.75 20.5,87.75 Z" fill="#000" transform="translate(8.0,8.0) translate(-24.0,-88.0)" /><path d="m 24,83 c -4.61058,0 -6.68153,3.40488 -5.40625,4.71875 0.0231,-0.0219 0.0394,-0.0393 0.0625,-0.0625 C 19.21518,87.09732 19.83333,86.75 20.5,86.75 c 0.52152,0 0.97787,0.36124 1.4375,0.71875 C 22.52808,87.01097 23.25388,86.75 24,86.75 c 0.74612,0 1.47192,0.26097 2.0625,0.71875 C 26.52213,87.11124 26.97848,86.75 27.5,86.75 c 0.66667,0 1.28482,0.34732 1.84375,0.90625 -0.0543,-0.0543 0.008,-0.0325 0.0625,0 0.006,0.004 0.025,-0.004 0.0312,0 C 30.61048,86.30672 28.55048,83 24,83 Z m -3.5,4.75 c -0.33333,0 -0.71518,0.15268 -1.15625,0.59375 -0.0505,0.0504 -0.1058,0.0788 -0.15625,0.125 L 21,93 h 6 l 1.8125,-4.53125 c -0.0443,-0.0338 -0.0857,-0.0545 -0.15625,-0.125 C 28.21518,87.90268 27.83333,87.75 27.5,87.75 c -0.33333,0 -0.71518,0.15268 -1.15625,0.59375 L 26,88.71875 25.65625,88.34375 C 25.2741,87.9616 24.63889,87.75 24,87.75 c -0.63889,0 -1.2741,0.2116 -1.65625,0.59375 L 22,88.71875 21.65625,88.34375 C 21.21518,87.90268 20.83333,87.75 20.5,87.75 Z" fill="#000" transform="translate(8.0,8.0) translate(-24.0,-88.0)" /></svg>