<?xml version="1.0" encoding="utf-8" ?>
<svg baseProfile="full" height="16" version="1.1" width="16" xmlns="http://www.w3.org/2000/svg" xmlns:ev="http://www.w3.org/2001/xml-events" xmlns:xlink="http://www.w3.org/1999/xlink"><defs /><path d="m 498.5,434 c -0.277,0 -0.5,0.223 -0.5,0.5 0,0.277 0.223,0.5 0.5,0.5 h 10 c 0.277,0 0.5,-0.223 0.5,-0.5 0,-0.277 -0.223,-0.5 -0.5,-0.5 z m 0,2 c 0,0 -0.5,0.223 -0.5,0.5 v 8 c 0,0.277 0.223,0.5 0.5,0.5 h 0.5 0.5 1.5 c 0,-3 -1,-5 -1,-5 0,0 3,-1 3,-4 h -3.5 -0.5 z m 5.5,0 c 0,3 3,4 3,4 0,0 -1,2 -1,5 h 1.5 0.5 0.5 c 0.277,0 0.5,-0.223 0.5,-0.5 v -8 c 0,-0.277 -0.223,-0.5 -0.5,-0.5 h -0.5 -0.5 z" fill="#000" transform="translate(8.0,8.0) translate(-504.0,-440.0)" /><path d="m 498.5,434 c -0.277,0 -0.5,0.223 -0.5,0.5 0,0.277 0.223,0.5 0.5,0.5 h 10 c 0.277,0 0.5,-0.223 0.5,-0.5 0,-0.277 -0.223,-0.5 -0.5,-0.5 z m 0,2 c 0,0 -0.5,0.223 -0.5,0.5 v 8 c 0,0.277 0.223,0.5 0.5,0.5 h 0.5 0.5 1.5 c 0,-3 -1,-5 -1,-5 0,0 3,-1 3,-4 h -3.5 -0.5 z m 5.5,0 c 0,3 3,4 3,4 0,0 -1,2 -1,5 h 1.5 0.5 0.5 c 0.277,0 0.5,-0.223 0.5,-0.5 v -8 c 0,-0.277 -0.223,-0.5 -0.5,-0.5 h -0.5 -0.5 z" fill="#000" transform="translate(8.0,8.0) translate(-504.0,-440.0)" /></svg>