<?xml version="1.0" encoding="utf-8" ?>
<svg baseProfile="full" height="16" version="1.1" width="16" xmlns="http://www.w3.org/2000/svg" xmlns:ev="http://www.w3.org/2001/xml-events" xmlns:xlink="http://www.w3.org/1999/xlink"><defs /><path d="m 263.41406,240.91797 c -0.0333,-7e-4 -0.0675,0.002 -0.10156,0.008 l -0.49219,0.0898 h -0.002 l -0.48828,0.0898 c -0.27253,0.0496 -0.45385,0.3095 -0.4043,0.58203 l 0.0898,0.49023 a 1,1 0 0 0 0,0.002 l 0.0899,0.49023 0.39844,2.19336 -1.46875,-1.28711 -0.75196,-0.6582 c -0.20846,-0.18241 -0.52462,-0.16159 -0.70703,0.0469 l -0.6582,0.75391 c -0.18241,0.20846 -0.16159,0.52267 0.0469,0.70508 l 0.75391,0.6582 c 0.001,0.001 0.002,0.003 0.004,0.004 l 2.66015,2.32617 -3.54687,2.48242 -0.41016,0.28711 -0.4082,0.28516 c -0.22693,0.15885 -0.2819,0.47034 -0.12305,0.69726 l 0.28711,0.41016 0.28516,0.4082 c 0.15885,0.22693 0.47034,0.2819 0.69726,0.12305 l 0.41016,-0.28711 0.4082,-0.28516 c 0.003,-0.002 0.005,-0.004 0.008,-0.006 l 3.30469,-2.3125 0.63086,3.4668 c 3.3e-4,0.002 -3.5e-4,0.004 0,0.006 l 0.0606,0.33398 0.0293,0.15821 a 1,1 0 0 0 0,0.002 l 0.0899,0.48828 c 0.0495,0.27253 0.3095,0.4519 0.58203,0.40235 l 0.49219,-0.0879 a 1,1 0 0 0 0.0234,-0.006 l 0.4668,-0.084 c 0.27253,-0.0496 0.45385,-0.3095 0.4043,-0.58203 l -0.0898,-0.49219 -0.48829,-2.68359 1.45508,1.27344 c 0.005,0.004 0.009,0.009 0.0137,0.0137 l 0.37696,0.32812 0.37695,0.33008 c 0.20846,0.18241 0.52267,0.16159 0.70508,-0.0469 l 0.6582,-0.75196 c 0.18241,-0.20846 0.16159,-0.52462 -0.0469,-0.70703 l -0.75196,-0.6582 c -0.006,-0.005 -0.0118,-0.009 -0.0176,-0.0137 l -2.64843,-2.31641 3.54687,-2.48242 0.81836,-0.57227 c 0.22693,-0.15885 0.2819,-0.47034 0.12305,-0.69726 l -0.57227,-0.81836 c -0.15885,-0.22693 -0.47034,-0.2819 -0.69726,-0.12305 l -0.81836,0.57227 c -0.001,0.001 -0.002,0.003 -0.004,0.004 l -3.30859,2.31446 -0.63086,-3.47266 -0.17969,-0.98438 c -0.0434,-0.23846 -0.24758,-0.40526 -0.48047,-0.41015 z" fill="#000" transform="translate(8.0,8.0) translate(-264.0,-248.0)" /><path d="m 263.41406,240.91797 c -0.0333,-7e-4 -0.0675,0.002 -0.10156,0.008 l -0.49219,0.0898 h -0.002 l -0.48828,0.0898 c -0.27253,0.0496 -0.45385,0.3095 -0.4043,0.58203 l 0.0898,0.49023 a 1,1 0 0 0 0,0.002 l 0.0899,0.49023 0.39844,2.19336 -1.46875,-1.28711 -0.75196,-0.6582 c -0.20846,-0.18241 -0.52462,-0.16159 -0.70703,0.0469 l -0.6582,0.75391 c -0.18241,0.20846 -0.16159,0.52267 0.0469,0.70508 l 0.75391,0.6582 c 0.001,0.001 0.002,0.003 0.004,0.004 l 2.66015,2.32617 -3.54687,2.48242 -0.41016,0.28711 -0.4082,0.28516 c -0.22693,0.15885 -0.2819,0.47034 -0.12305,0.69726 l 0.28711,0.41016 0.28516,0.4082 c 0.15885,0.22693 0.47034,0.2819 0.69726,0.12305 l 0.41016,-0.28711 0.4082,-0.28516 c 0.003,-0.002 0.005,-0.004 0.008,-0.006 l 3.30469,-2.3125 0.63086,3.4668 c 3.3e-4,0.002 -3.5e-4,0.004 0,0.006 l 0.0606,0.33398 0.0293,0.15821 a 1,1 0 0 0 0,0.002 l 0.0899,0.48828 c 0.0495,0.27253 0.3095,0.4519 0.58203,0.40235 l 0.49219,-0.0879 a 1,1 0 0 0 0.0234,-0.006 l 0.4668,-0.084 c 0.27253,-0.0496 0.45385,-0.3095 0.4043,-0.58203 l -0.0898,-0.49219 -0.48829,-2.68359 1.45508,1.27344 c 0.005,0.004 0.009,0.009 0.0137,0.0137 l 0.37696,0.32812 0.37695,0.33008 c 0.20846,0.18241 0.52267,0.16159 0.70508,-0.0469 l 0.6582,-0.75196 c 0.18241,-0.20846 0.16159,-0.52462 -0.0469,-0.70703 l -0.75196,-0.6582 c -0.006,-0.005 -0.0118,-0.009 -0.0176,-0.0137 l -2.64843,-2.31641 3.54687,-2.48242 0.81836,-0.57227 c 0.22693,-0.15885 0.2819,-0.47034 0.12305,-0.69726 l -0.57227,-0.81836 c -0.15885,-0.22693 -0.47034,-0.2819 -0.69726,-0.12305 l -0.81836,0.57227 c -0.001,0.001 -0.002,0.003 -0.004,0.004 l -3.30859,2.31446 -0.63086,-3.47266 -0.17969,-0.98438 c -0.0434,-0.23846 -0.24758,-0.40526 -0.48047,-0.41015 z" fill="#000" transform="translate(8.0,8.0) translate(-264.0,-248.0)" /></svg>