<?xml version="1.0" encoding="utf-8" ?>
<svg baseProfile="full" height="16" version="1.1" width="16" xmlns="http://www.w3.org/2000/svg" xmlns:ev="http://www.w3.org/2001/xml-events" xmlns:xlink="http://www.w3.org/1999/xlink"><defs /><path d="m 532,497.5 a 2.5,2.5 0 0 0 -2.5,2.5 2.5,2.5 0 0 0 0.7344,1.76758 l 4.2656,4.26758 4.2422,-4.24219 a 2.5,2.5 0 0 0 0.023,-0.0254 v 0 A 2.5,2.5 0 0 0 539.5,500 2.5,2.5 0 0 0 537,497.5 2.5,2.5 0 0 0 534.5,500 2.5,2.5 0 0 0 532,497.5 Z m 8,7 -2.5,4 2.5,-0.5 v 2.5 l 2.5,-4 -2.5,0.5 z" fill="#000" transform="translate(8.0,8.0) translate(-536.0,-504.0)" /><path d="m 532,497.5 a 2.5,2.5 0 0 0 -2.5,2.5 2.5,2.5 0 0 0 0.7344,1.76758 l 4.2656,4.26758 4.2422,-4.24219 a 2.5,2.5 0 0 0 0.023,-0.0254 v 0 A 2.5,2.5 0 0 0 539.5,500 2.5,2.5 0 0 0 537,497.5 2.5,2.5 0 0 0 534.5,500 2.5,2.5 0 0 0 532,497.5 Z m 8,7 -2.5,4 2.5,-0.5 v 2.5 l 2.5,-4 -2.5,0.5 z" fill="#000" transform="translate(8.0,8.0) translate(-536.0,-504.0)" /></svg>