<?xml version="1.0" encoding="utf-8" ?>
<svg baseProfile="full" height="16" version="1.1" width="16" xmlns="http://www.w3.org/2000/svg" xmlns:ev="http://www.w3.org/2001/xml-events" xmlns:xlink="http://www.w3.org/1999/xlink"><defs /><path d="m 663,50 -2,4 v 1 h -1 a 0.50005,0.50005 0 0 0 -0.47852,0.355469 L 658.12891,60 H 657.5 a 0.50005,0.50005 0 1 0 0,1 h 0.88477 a 0.50005,0.50005 0 0 0 0.22265,0 H 659.5 a 0.50005,0.50005 0 1 0 0,-1 h -0.32812 l 0.30078,-1 a 0.50005,0.50005 0 0 0 0.0273,0 h 9 a 0.50005,0.50005 0 0 0 0.0273,-0.002 L 668.82812,60 H 668.5 a 0.50005,0.50005 0 1 0 0,1 h 0.89453 a 0.50005,0.50005 0 0 0 0.2207,0 H 670.5 a 0.50005,0.50005 0 1 0 0,-1 h -0.62891 l -1.39257,-4.644531 A 0.50005,0.50005 0 0 0 668,55 h -1 v -1 l -2,-4 z m 1,3.5 A 1.5,1.5 0 0 1 665.5,55 1.5,1.5 0 0 1 664,56.5 1.5,1.5 0 0 1 662.5,55 1.5,1.5 0 0 1 664,53.5 Z M 660.37109,56 H 661 v 2 h -1.22852 z M 667,56 h 0.62891 l 0.59961,2 H 667 Z m -4,4 a 0.50005,0.50005 0 1 0 0,1 h 2 a 0.50005,0.50005 0 1 0 0,-1 z" fill="#000" transform="translate(8.0,8.0) translate(-664.0,-56.0)" /><path d="m 663,50 -2,4 v 1 h -1 a 0.50005,0.50005 0 0 0 -0.47852,0.355469 L 658.12891,60 H 657.5 a 0.50005,0.50005 0 1 0 0,1 h 0.88477 a 0.50005,0.50005 0 0 0 0.22265,0 H 659.5 a 0.50005,0.50005 0 1 0 0,-1 h -0.32812 l 0.30078,-1 a 0.50005,0.50005 0 0 0 0.0273,0 h 9 a 0.50005,0.50005 0 0 0 0.0273,-0.002 L 668.82812,60 H 668.5 a 0.50005,0.50005 0 1 0 0,1 h 0.89453 a 0.50005,0.50005 0 0 0 0.2207,0 H 670.5 a 0.50005,0.50005 0 1 0 0,-1 h -0.62891 l -1.39257,-4.644531 A 0.50005,0.50005 0 0 0 668,55 h -1 v -1 l -2,-4 z m 1,3.5 A 1.5,1.5 0 0 1 665.5,55 1.5,1.5 0 0 1 664,56.5 1.5,1.5 0 0 1 662.5,55 1.5,1.5 0 0 1 664,53.5 Z M 660.37109,56 H 661 v 2 h -1.22852 z M 667,56 h 0.62891 l 0.59961,2 H 667 Z m -4,4 a 0.50005,0.50005 0 1 0 0,1 h 2 a 0.50005,0.50005 0 1 0 0,-1 z" fill="#000" transform="translate(8.0,8.0) translate(-664.0,-56.0)" /></svg>