<?xml version="1.0" encoding="utf-8" ?>
<svg baseProfile="full" height="16" version="1.1" width="16" xmlns="http://www.w3.org/2000/svg" xmlns:ev="http://www.w3.org/2001/xml-events" xmlns:xlink="http://www.w3.org/1999/xlink"><defs /><path d="m 615.5,81.5 c -0.277,0 -0.5,0.223 -0.5,0.5 v 0.02539 c -1.14078,0.103676 -2.18207,0.556674 -3.01562,1.251953 l -0.0195,-0.01953 c -0.19586,-0.195868 -0.51116,-0.195868 -0.70703,0 -0.19587,0.19587 -0.19587,0.511163 0,0.707032 l 0.0195,0.01953 C 610.58206,84.817938 610.12907,85.859215 610.02539,87 H 610 c -0.277,0 -0.5,0.223 -0.5,0.5 0,0.277 0.223,0.5 0.5,0.5 h 0.0254 c 0.10368,1.140785 0.55667,2.182062 1.25195,3.015625 l -0.0195,0.01953 c -0.19587,0.195869 -0.19587,0.511162 0,0.707032 0.19587,0.195868 0.51117,0.195867 0.70703,0 l 0.0195,-0.01953 c 0.83356,0.695279 1.87484,1.148277 3.01562,1.251953 V 93 c 0,0.277 0.223,0.5 0.5,0.5 0.277,0 0.5,-0.223 0.5,-0.5 v -0.02539 c 1.14078,-0.103676 2.18207,-0.556674 3.01562,-1.251953 l 0.0195,0.01953 c 0.19586,0.195868 0.51116,0.195867 0.70703,0 0.19587,-0.19587 0.19587,-0.511163 0,-0.707032 l -0.0195,-0.01953 c 0.69529,-0.833563 1.14828,-1.87484 1.25196,-3.015625 h 0.0254 c 0.277,0 0.5,-0.223 0.5,-0.5 0,-0.277 -0.223,-0.5 -0.5,-0.5 h -0.0254 c -0.10368,-1.140785 -0.55667,-2.182062 -1.25195,-3.015625 l 0.0195,-0.01953 c 0.19587,-0.195869 0.19587,-0.511162 0,-0.707032 -0.19587,-0.195868 -0.51117,-0.195868 -0.70703,0 l -0.0195,0.01953 C 618.18206,82.582065 617.14078,82.129067 616,82.025391 V 82 c 0,-0.277 -0.223,-0.5 -0.5,-0.5 z m -0.5,1.550781 v 3.03711 a 1.5,1.5 0 0 0 -0.14453,0.06055 l -2.15235,-2.152344 c 0.6452,-0.515118 1.43061,-0.84883 2.29688,-0.945313 z m 1,0 c 0.86627,0.09648 1.65167,0.430195 2.29688,0.945313 l -2.15235,2.152344 A 1.5,1.5 0 0 0 616,86.087891 Z m -4.00391,1.652344 2.15235,2.152344 A 1.5,1.5 0 0 0 614.08789,87 h -3.03711 c 0.0965,-0.866267 0.4302,-1.651682 0.94531,-2.296875 z m 7.00782,0 c 0.51511,0.645193 0.84883,1.430608 0.94531,2.296875 h -3.03711 a 1.5,1.5 0 0 0 -0.0606,-0.144531 l 2.15235,-2.152344 z M 615.5,86.792969 A 0.70710599,0.7071057 0 0 1 616.20703,87.5 0.70710599,0.7071057 0 0 1 615.5,88.207031 0.70710599,0.7071057 0 0 1 614.79297,87.5 0.70710599,0.7071057 0 0 1 615.5,86.792969 Z M 611.05078,88 h 3.03711 a 1.5,1.5 0 0 0 0.0606,0.144531 l -2.15235,2.152344 C 611.48098,89.651682 611.14726,88.866267 611.05078,88 Z m 5.86133,0 h 3.03711 c -0.0965,0.866267 -0.4302,1.651682 -0.94531,2.296875 l -2.15235,-2.152344 A 1.5,1.5 0 0 0 616.91211,88 Z m -2.05664,0.851562 A 1.5,1.5 0 0 0 615,88.912112 v 3.03711 c -0.86627,-0.09648 -1.65167,-0.430195 -2.29688,-0.945313 l 2.15235,-2.152344 z m 1.28906,0 2.15235,2.152344 c -0.6452,0.515118 -1.43061,0.84883 -2.29688,0.945313 v -3.03711 a 1.5,1.5 0 0 0 0.14453,-0.06055 z" fill="#000" transform="translate(8.0,8.0) translate(-616.0,-88.0)" /><path d="m 615.5,81.5 c -0.277,0 -0.5,0.223 -0.5,0.5 v 0.02539 c -1.14078,0.103676 -2.18207,0.556674 -3.01562,1.251953 l -0.0195,-0.01953 c -0.19586,-0.195868 -0.51116,-0.195868 -0.70703,0 -0.19587,0.19587 -0.19587,0.511163 0,0.707032 l 0.0195,0.01953 C 610.58206,84.817938 610.12907,85.859215 610.02539,87 H 610 c -0.277,0 -0.5,0.223 -0.5,0.5 0,0.277 0.223,0.5 0.5,0.5 h 0.0254 c 0.10368,1.140785 0.55667,2.182062 1.25195,3.015625 l -0.0195,0.01953 c -0.19587,0.195869 -0.19587,0.511162 0,0.707032 0.19587,0.195868 0.51117,0.195867 0.70703,0 l 0.0195,-0.01953 c 0.83356,0.695279 1.87484,1.148277 3.01562,1.251953 V 93 c 0,0.277 0.223,0.5 0.5,0.5 0.277,0 0.5,-0.223 0.5,-0.5 v -0.02539 c 1.14078,-0.103676 2.18207,-0.556674 3.01562,-1.251953 l 0.0195,0.01953 c 0.19586,0.195868 0.51116,0.195867 0.70703,0 0.19587,-0.19587 0.19587,-0.511163 0,-0.707032 l -0.0195,-0.01953 c 0.69529,-0.833563 1.14828,-1.87484 1.25196,-3.015625 h 0.0254 c 0.277,0 0.5,-0.223 0.5,-0.5 0,-0.277 -0.223,-0.5 -0.5,-0.5 h -0.0254 c -0.10368,-1.140785 -0.55667,-2.182062 -1.25195,-3.015625 l 0.0195,-0.01953 c 0.19587,-0.195869 0.19587,-0.511162 0,-0.707032 -0.19587,-0.195868 -0.51117,-0.195868 -0.70703,0 l -0.0195,0.01953 C 618.18206,82.582065 617.14078,82.129067 616,82.025391 V 82 c 0,-0.277 -0.223,-0.5 -0.5,-0.5 z m -0.5,1.550781 v 3.03711 a 1.5,1.5 0 0 0 -0.14453,0.06055 l -2.15235,-2.152344 c 0.6452,-0.515118 1.43061,-0.84883 2.29688,-0.945313 z m 1,0 c 0.86627,0.09648 1.65167,0.430195 2.29688,0.945313 l -2.15235,2.152344 A 1.5,1.5 0 0 0 616,86.087891 Z m -4.00391,1.652344 2.15235,2.152344 A 1.5,1.5 0 0 0 614.08789,87 h -3.03711 c 0.0965,-0.866267 0.4302,-1.651682 0.94531,-2.296875 z m 7.00782,0 c 0.51511,0.645193 0.84883,1.430608 0.94531,2.296875 h -3.03711 a 1.5,1.5 0 0 0 -0.0606,-0.144531 l 2.15235,-2.152344 z M 615.5,86.792969 A 0.70710599,0.7071057 0 0 1 616.20703,87.5 0.70710599,0.7071057 0 0 1 615.5,88.207031 0.70710599,0.7071057 0 0 1 614.79297,87.5 0.70710599,0.7071057 0 0 1 615.5,86.792969 Z M 611.05078,88 h 3.03711 a 1.5,1.5 0 0 0 0.0606,0.144531 l -2.15235,2.152344 C 611.48098,89.651682 611.14726,88.866267 611.05078,88 Z m 5.86133,0 h 3.03711 c -0.0965,0.866267 -0.4302,1.651682 -0.94531,2.296875 l -2.15235,-2.152344 A 1.5,1.5 0 0 0 616.91211,88 Z m -2.05664,0.851562 A 1.5,1.5 0 0 0 615,88.912112 v 3.03711 c -0.86627,-0.09648 -1.65167,-0.430195 -2.29688,-0.945313 l 2.15235,-2.152344 z m 1.28906,0 2.15235,2.152344 c -0.6452,0.515118 -1.43061,0.84883 -2.29688,0.945313 v -3.03711 a 1.5,1.5 0 0 0 0.14453,-0.06055 z" fill="#000" transform="translate(8.0,8.0) translate(-616.0,-88.0)" /></svg>