<?xml version="1.0" encoding="utf-8" ?>
<svg baseProfile="full" height="16" version="1.1" width="16" xmlns="http://www.w3.org/2000/svg" xmlns:ev="http://www.w3.org/2001/xml-events" xmlns:xlink="http://www.w3.org/1999/xlink"><defs /><path d="m 594.47461,566 c -0.26617,0.0136 -0.47493,0.23349 -0.47461,0.5 v 2 c 3e-5,0.27613 0.22387,0.49997 0.5,0.5 h 5.47656 0.0488 5.47461 c 0.27613,-3e-5 0.49997,-0.22387 0.5,-0.5 v -2 c 2.7e-4,-0.34672 -0.34382,-0.58848 -0.66992,-0.4707 L 600,567.96875 594.66992,566.0293 c -0.0625,-0.0226 -0.12891,-0.0326 -0.19531,-0.0293 z" fill="#000" transform="translate(8.0,8.0) translate(-600.0,-568.0)" /><path d="m 594.47461,566 c -0.26617,0.0136 -0.47493,0.23349 -0.47461,0.5 v 2 c 3e-5,0.27613 0.22387,0.49997 0.5,0.5 h 5.47656 0.0488 5.47461 c 0.27613,-3e-5 0.49997,-0.22387 0.5,-0.5 v -2 c 2.7e-4,-0.34672 -0.34382,-0.58848 -0.66992,-0.4707 L 600,567.96875 594.66992,566.0293 c -0.0625,-0.0226 -0.12891,-0.0326 -0.19531,-0.0293 z" fill="#000" transform="translate(8.0,8.0) translate(-600.0,-568.0)" /></svg>