<?xml version="1.0" encoding="utf-8" ?>
<svg baseProfile="full" height="16" version="1.1" width="16" xmlns="http://www.w3.org/2000/svg" xmlns:ev="http://www.w3.org/2001/xml-events" xmlns:xlink="http://www.w3.org/1999/xlink"><defs /><path d="m 434.5,434 c -0.41667,0 -0.77495,0.19292 -1.04102,0.45898 C 433.19292,434.72505 433,435.08333 433,435.5 v 2 c 0.003,0.0344 0.01,0.0685 0.0195,0.10156 5.9e-4,0.005 0.001,0.009 0.002,0.0137 0.0163,0.065 0.0455,0.12616 0.0859,0.17969 0.004,0.007 0.008,0.0131 0.0117,0.0195 0.0416,0.0505 0.0927,0.0923 0.15039,0.12305 0.007,0.005 0.0142,0.009 0.0215,0.0137 0.0653,0.0312 0.13661,0.0479 0.20898,0.0488 h 3 c 0.33333,0 0.50724,0.13167 0.61523,0.34766 0.0808,0.1616 0.11198,0.38876 0.043,0.65234 H 436.5 c -0.27614,0 -0.5,0.22386 -0.5,0.5 0,0.27614 0.22386,0.5 0.5,0.5 h 0.19141 l -0.5,1 H 435.5 c -0.27614,0 -0.5,0.22386 -0.5,0.5 0,0.27614 0.22386,0.5 0.5,0.5 h 0.19141 l -0.5,1 H 434.5 c -0.27614,0 -0.5,0.22386 -0.5,0.5 0,0.27614 0.22386,0.5 0.5,0.5 h 0.19141 l -0.63868,1.27734 c -0.16517,0.33222 0.0763,0.72229 0.44727,0.72266 h 1 c 0.18961,-1.7e-4 0.36282,-0.10757 0.44727,-0.27734 0.16905,-0.33812 0.32155,-0.65518 0.46875,-0.96289 0.011,-0.0119 0.0214,-0.0242 0.0312,-0.0371 0.73509,-1.47019 1.26964,-2.21002 2.27539,-2.71289 1.00574,-0.50288 2.58451,-0.76284 5.32226,-1.01172 C 444.67931,440.94043 444.637,440.0004 444,440 h -5.06836 c 0.0345,-0.0378 0.0679,-0.0774 0.10352,-0.11328 1.01491,-1.025 2.61571,-1.51116 6.51367,-1.88867 0.63709,-0.0577 0.59085,-1.00285 -0.0488,-0.99805 H 442 v -1.5 c 0,-0.41667 -0.19292,-0.77495 -0.45898,-1.04102 C 441.27495,434.19292 440.91667,434 440.5,434 Z m 0,1 h 2.5 v 2 h -0.5 -2.5 v -1.5 c 0,-0.0833 0.0571,-0.22505 0.16602,-0.33398 C 434.27495,435.05708 434.41667,435 434.5,435 Z m 3.5,0 h 2.5 c 0.0833,0 0.22505,0.0571 0.33398,0.16602 C 440.94292,435.27495 441,435.41667 441,435.5 v 1.5 h -3 z m 2.92188,9.25586 c -0.10435,0.0166 -0.20076,0.0658 -0.2754,0.14062 C 440.20541,444.83756 439.83333,445 439.5,445 c -0.27614,0 -0.5,0.22386 -0.5,0.5 0,0.27614 0.22386,0.5 0.5,0.5 0.53939,0 1.02735,-0.34422 1.5,-0.72461 0.4696,0.37848 0.95642,0.72461 1.5,0.72461 0.53939,0 1.02735,-0.34422 1.5,-0.72461 0.47265,0.38039 0.96061,0.72461 1.5,0.72461 0.27614,0 0.5,-0.22386 0.5,-0.5 0,-0.27614 -0.22386,-0.5 -0.5,-0.5 -0.33333,0 -0.70541,-0.16244 -1.14648,-0.60352 -0.19527,-0.19519 -0.51177,-0.19519 -0.70704,0 C 443.20541,444.83756 442.83333,445 442.5,445 c -0.32815,0 -0.71411,-0.17114 -1.14648,-0.60352 -0.11309,-0.11325 -0.27355,-0.16552 -0.43164,-0.14062 z" fill="#000" transform="translate(8.0,8.0) translate(-440.0,-440.0)" /><path d="m 434.5,434 c -0.41667,0 -0.77495,0.19292 -1.04102,0.45898 C 433.19292,434.72505 433,435.08333 433,435.5 v 2 c 0.003,0.0344 0.01,0.0685 0.0195,0.10156 5.9e-4,0.005 0.001,0.009 0.002,0.0137 0.0163,0.065 0.0455,0.12616 0.0859,0.17969 0.004,0.007 0.008,0.0131 0.0117,0.0195 0.0416,0.0505 0.0927,0.0923 0.15039,0.12305 0.007,0.005 0.0142,0.009 0.0215,0.0137 0.0653,0.0312 0.13661,0.0479 0.20898,0.0488 h 3 c 0.33333,0 0.50724,0.13167 0.61523,0.34766 0.0808,0.1616 0.11198,0.38876 0.043,0.65234 H 436.5 c -0.27614,0 -0.5,0.22386 -0.5,0.5 0,0.27614 0.22386,0.5 0.5,0.5 h 0.19141 l -0.5,1 H 435.5 c -0.27614,0 -0.5,0.22386 -0.5,0.5 0,0.27614 0.22386,0.5 0.5,0.5 h 0.19141 l -0.5,1 H 434.5 c -0.27614,0 -0.5,0.22386 -0.5,0.5 0,0.27614 0.22386,0.5 0.5,0.5 h 0.19141 l -0.63868,1.27734 c -0.16517,0.33222 0.0763,0.72229 0.44727,0.72266 h 1 c 0.18961,-1.7e-4 0.36282,-0.10757 0.44727,-0.27734 0.16905,-0.33812 0.32155,-0.65518 0.46875,-0.96289 0.011,-0.0119 0.0214,-0.0242 0.0312,-0.0371 0.73509,-1.47019 1.26964,-2.21002 2.27539,-2.71289 1.00574,-0.50288 2.58451,-0.76284 5.32226,-1.01172 C 444.67931,440.94043 444.637,440.0004 444,440 h -5.06836 c 0.0345,-0.0378 0.0679,-0.0774 0.10352,-0.11328 1.01491,-1.025 2.61571,-1.51116 6.51367,-1.88867 0.63709,-0.0577 0.59085,-1.00285 -0.0488,-0.99805 H 442 v -1.5 c 0,-0.41667 -0.19292,-0.77495 -0.45898,-1.04102 C 441.27495,434.19292 440.91667,434 440.5,434 Z m 0,1 h 2.5 v 2 h -0.5 -2.5 v -1.5 c 0,-0.0833 0.0571,-0.22505 0.16602,-0.33398 C 434.27495,435.05708 434.41667,435 434.5,435 Z m 3.5,0 h 2.5 c 0.0833,0 0.22505,0.0571 0.33398,0.16602 C 440.94292,435.27495 441,435.41667 441,435.5 v 1.5 h -3 z m 2.92188,9.25586 c -0.10435,0.0166 -0.20076,0.0658 -0.2754,0.14062 C 440.20541,444.83756 439.83333,445 439.5,445 c -0.27614,0 -0.5,0.22386 -0.5,0.5 0,0.27614 0.22386,0.5 0.5,0.5 0.53939,0 1.02735,-0.34422 1.5,-0.72461 0.4696,0.37848 0.95642,0.72461 1.5,0.72461 0.53939,0 1.02735,-0.34422 1.5,-0.72461 0.47265,0.38039 0.96061,0.72461 1.5,0.72461 0.27614,0 0.5,-0.22386 0.5,-0.5 0,-0.27614 -0.22386,-0.5 -0.5,-0.5 -0.33333,0 -0.70541,-0.16244 -1.14648,-0.60352 -0.19527,-0.19519 -0.51177,-0.19519 -0.70704,0 C 443.20541,444.83756 442.83333,445 442.5,445 c -0.32815,0 -0.71411,-0.17114 -1.14648,-0.60352 -0.11309,-0.11325 -0.27355,-0.16552 -0.43164,-0.14062 z" fill="#000" transform="translate(8.0,8.0) translate(-440.0,-440.0)" /></svg>