<?xml version="1.0" encoding="utf-8" ?>
<svg baseProfile="full" height="16" version="1.1" width="16" xmlns="http://www.w3.org/2000/svg" xmlns:ev="http://www.w3.org/2001/xml-events" xmlns:xlink="http://www.w3.org/1999/xlink"><defs /><path d="m 466.5,402 c -0.41667,0 -0.77495,0.19292 -1.04102,0.45898 C 465.19292,402.72505 465,403.08333 465,403.5 v 2 c 0.003,0.0344 0.01,0.0685 0.0195,0.10156 6e-4,0.005 0.001,0.009 0.002,0.0137 0.0163,0.0651 0.0455,0.12616 0.0859,0.17969 0.004,0.007 0.008,0.0131 0.0117,0.0195 0.0416,0.0505 0.0927,0.0923 0.15039,0.12305 0.007,0.005 0.0142,0.009 0.0215,0.0137 0.0653,0.0312 0.13663,0.0479 0.20901,0.0488 h 3 c 0.33333,0 0.50724,0.13167 0.61523,0.34766 0.0808,0.1616 0.11198,0.38876 0.043,0.65234 H 468.5 c -0.27614,0 -0.5,0.22386 -0.5,0.5 0,0.27614 0.22386,0.5 0.5,0.5 h 0.19141 l -0.5,1 H 467.5 c -0.27614,0 -0.5,0.22386 -0.5,0.5 0,0.27614 0.22386,0.5 0.5,0.5 h 0.19141 l -0.5,1 H 466.5 c -0.27614,0 -0.5,0.22386 -0.5,0.5 0,0.27614 0.22386,0.5 0.5,0.5 h 0.19141 l -0.63868,1.27734 c -0.16517,0.33222 0.0763,0.72229 0.44727,0.72266 h 1 c 0.18961,-1.7e-4 0.36282,-0.10757 0.44727,-0.27734 1.51461,-3.02924 2.07297,-4.81095 3.08789,-5.83594 1.01491,-1.025 2.61571,-1.51116 6.51367,-1.88867 0.63709,-0.0577 0.59085,-1.00285 -0.0488,-0.99805 H 474 v -1.5 c 0,-0.41667 -0.19292,-0.77495 -0.45898,-1.04102 C 473.27495,402.19292 472.91667,402 472.5,402 Z m 0,1 h 2.5 v 2 h -0.5 -2.5 v -1.5 c 0,-0.0833 0.0571,-0.22505 0.16602,-0.33398 C 466.27495,403.05708 466.41667,403 466.5,403 Z m 3.5,0 h 2.5 c 0.0833,0 0.22505,0.0571 0.33398,0.16602 C 472.94292,403.27495 473,403.41667 473,403.5 v 1.5 h -3 z m 2.92202,9.25586 c -0.10435,0.0166 -0.20076,0.0658 -0.2754,0.14062 C 472.20541,412.83756 471.83333,413 471.5,413 c -0.27614,0 -0.5,0.22386 -0.5,0.5 0,0.27614 0.22386,0.5 0.5,0.5 0.53939,0 1.02735,-0.34422 1.5,-0.72461 0.4696,0.37848 0.95642,0.72461 1.5,0.72461 0.53939,0 1.02735,-0.34422 1.5,-0.72461 0.47265,0.38039 0.96061,0.72461 1.5,0.72461 0.27614,0 0.5,-0.22386 0.5,-0.5 0,-0.27614 -0.22386,-0.5 -0.5,-0.5 -0.33333,0 -0.70541,-0.16244 -1.14648,-0.60352 -0.19527,-0.19519 -0.51177,-0.19519 -0.70704,0 C 475.20541,412.83756 474.83333,413 474.5,413 c -0.32815,0 -0.71411,-0.17114 -1.14648,-0.60352 -0.11309,-0.11325 -0.27355,-0.16552 -0.43164,-0.14062 z" fill="#000" transform="translate(8.0,8.0) translate(-472.0,-408.0)" /><path d="m 466.5,402 c -0.41667,0 -0.77495,0.19292 -1.04102,0.45898 C 465.19292,402.72505 465,403.08333 465,403.5 v 2 c 0.003,0.0344 0.01,0.0685 0.0195,0.10156 6e-4,0.005 0.001,0.009 0.002,0.0137 0.0163,0.0651 0.0455,0.12616 0.0859,0.17969 0.004,0.007 0.008,0.0131 0.0117,0.0195 0.0416,0.0505 0.0927,0.0923 0.15039,0.12305 0.007,0.005 0.0142,0.009 0.0215,0.0137 0.0653,0.0312 0.13663,0.0479 0.20901,0.0488 h 3 c 0.33333,0 0.50724,0.13167 0.61523,0.34766 0.0808,0.1616 0.11198,0.38876 0.043,0.65234 H 468.5 c -0.27614,0 -0.5,0.22386 -0.5,0.5 0,0.27614 0.22386,0.5 0.5,0.5 h 0.19141 l -0.5,1 H 467.5 c -0.27614,0 -0.5,0.22386 -0.5,0.5 0,0.27614 0.22386,0.5 0.5,0.5 h 0.19141 l -0.5,1 H 466.5 c -0.27614,0 -0.5,0.22386 -0.5,0.5 0,0.27614 0.22386,0.5 0.5,0.5 h 0.19141 l -0.63868,1.27734 c -0.16517,0.33222 0.0763,0.72229 0.44727,0.72266 h 1 c 0.18961,-1.7e-4 0.36282,-0.10757 0.44727,-0.27734 1.51461,-3.02924 2.07297,-4.81095 3.08789,-5.83594 1.01491,-1.025 2.61571,-1.51116 6.51367,-1.88867 0.63709,-0.0577 0.59085,-1.00285 -0.0488,-0.99805 H 474 v -1.5 c 0,-0.41667 -0.19292,-0.77495 -0.45898,-1.04102 C 473.27495,402.19292 472.91667,402 472.5,402 Z m 0,1 h 2.5 v 2 h -0.5 -2.5 v -1.5 c 0,-0.0833 0.0571,-0.22505 0.16602,-0.33398 C 466.27495,403.05708 466.41667,403 466.5,403 Z m 3.5,0 h 2.5 c 0.0833,0 0.22505,0.0571 0.33398,0.16602 C 472.94292,403.27495 473,403.41667 473,403.5 v 1.5 h -3 z m 2.92202,9.25586 c -0.10435,0.0166 -0.20076,0.0658 -0.2754,0.14062 C 472.20541,412.83756 471.83333,413 471.5,413 c -0.27614,0 -0.5,0.22386 -0.5,0.5 0,0.27614 0.22386,0.5 0.5,0.5 0.53939,0 1.02735,-0.34422 1.5,-0.72461 0.4696,0.37848 0.95642,0.72461 1.5,0.72461 0.53939,0 1.02735,-0.34422 1.5,-0.72461 0.47265,0.38039 0.96061,0.72461 1.5,0.72461 0.27614,0 0.5,-0.22386 0.5,-0.5 0,-0.27614 -0.22386,-0.5 -0.5,-0.5 -0.33333,0 -0.70541,-0.16244 -1.14648,-0.60352 -0.19527,-0.19519 -0.51177,-0.19519 -0.70704,0 C 475.20541,412.83756 474.83333,413 474.5,413 c -0.32815,0 -0.71411,-0.17114 -1.14648,-0.60352 -0.11309,-0.11325 -0.27355,-0.16552 -0.43164,-0.14062 z" fill="#000" transform="translate(8.0,8.0) translate(-472.0,-408.0)" /></svg>