<?xml version="1.0" encoding="utf-8" ?>
<svg baseProfile="full" height="16" version="1.1" width="16" xmlns="http://www.w3.org/2000/svg" xmlns:ev="http://www.w3.org/2001/xml-events" xmlns:xlink="http://www.w3.org/1999/xlink"><defs /><path d="M 482.5 434 C 482.08333 434 481.72505 434.19292 481.45898 434.45898 C 481.19292 434.72505 481 435.08333 481 435.5 L 481 437.5 C 481.003 437.5344 481.01003 437.5685 481.01953 437.60156 C 481.02012 437.60656 481.02048 437.61053 481.02148 437.61523 C 481.03778 437.68023 481.06702 437.74139 481.10742 437.79492 C 481.11142 437.80192 481.11544 437.80805 481.11914 437.81445 C 481.16074 437.86495 481.21184 437.90675 481.26953 437.9375 C 481.27653 437.9425 481.28372 437.94647 481.29102 437.95117 C 481.35632 437.98237 481.42763 437.9991 481.5 438 L 484.5 438 C 484.83333 438 485.00724 438.13167 485.11523 438.34766 C 485.19603 438.50926 485.22718 438.73642 485.1582 439 L 484.5 439 C 484.22386 439 484 439.22386 484 439.5 C 484 439.77614 484.22386 440 484.5 440 L 484.69141 440 L 484.55273 440.27734 L 484.19141 441 L 483.5 441 C 483.22386 441 483 441.22386 483 441.5 C 483 441.77614 483.22386 442 483.5 442 L 483.69141 442 L 483.55273 442.27734 L 483.19141 443 L 482.5 443 C 482.22386 443 482 443.22386 482 443.5 C 482 443.77614 482.22386 444 482.5 444 L 482.69141 444 L 482.55273 444.27734 L 482.05273 445.27734 C 481.88756 445.60956 482.12903 445.99963 482.5 446 L 483.5 446 C 483.68961 445.99983 483.86282 445.89243 483.94727 445.72266 L 484.44727 444.72266 C 484.66745 444.28229 484.81361 444.16362 484.99805 444.08984 C 485.18248 444.01607 485.5 444 486 444 L 490.5 444 A 0.50005 0.50005 0 0 0 490.92773 443.25195 A 0.50005 0.50005 0 0 0 490.5 443 L 486 443 L 485.30859 443 L 485.44727 442.72266 C 485.66745 442.28229 485.81361 442.16362 485.99805 442.08984 C 486.18248 442.01607 486.5 442 487 442 L 491.5 442 C 491.88103 441.995 492.11675 441.58282 491.92773 441.25195 C 491.83985 441.09813 491.67714 441.00229 491.5 441 L 487 441 L 486.30859 441 L 486.44727 440.72266 C 486.66745 440.28229 486.81361 440.16362 486.99805 440.08984 C 487.18248 440.01607 487.5 440 488 440 L 492.5 440 C 492.88103 439.995 493.11675 439.58282 492.92773 439.25195 C 492.83985 439.09813 492.67714 439.00229 492.5 439 L 488 439 L 487.30859 439 L 487.44727 438.72266 C 487.66745 438.28229 487.81361 438.16362 487.99805 438.08984 C 488.18248 438.01607 488.5 438 489 438 L 489.5 438 L 493.5 438 C 494.1573 437.991 494.1573 437.0093 493.5 437 L 490 437 L 490 435.5 C 490 435.08333 489.80708 434.72505 489.54102 434.45898 C 489.27495 434.19292 488.91667 434 488.5 434 L 482.5 434 z M 482.5 435 L 485 435 L 485 437 L 484.5 437 L 482 437 L 482 435.5 C 482 435.4167 482.0571 435.27495 482.16602 435.16602 C 482.27495 435.05708 482.41667 435 482.5 435 z M 486 435 L 488.5 435 C 488.5833 435 488.72505 435.0571 488.83398 435.16602 C 488.94292 435.27495 489 435.41667 489 435.5 L 489 437 L 486 437 L 486 435 z " fill="#000" transform="translate(8.0,8.0) translate(-488.0,-440.0)" /><path d="M 482.5 434 C 482.08333 434 481.72505 434.19292 481.45898 434.45898 C 481.19292 434.72505 481 435.08333 481 435.5 L 481 437.5 C 481.003 437.5344 481.01003 437.5685 481.01953 437.60156 C 481.02012 437.60656 481.02048 437.61053 481.02148 437.61523 C 481.03778 437.68023 481.06702 437.74139 481.10742 437.79492 C 481.11142 437.80192 481.11544 437.80805 481.11914 437.81445 C 481.16074 437.86495 481.21184 437.90675 481.26953 437.9375 C 481.27653 437.9425 481.28372 437.94647 481.29102 437.95117 C 481.35632 437.98237 481.42763 437.9991 481.5 438 L 484.5 438 C 484.83333 438 485.00724 438.13167 485.11523 438.34766 C 485.19603 438.50926 485.22718 438.73642 485.1582 439 L 484.5 439 C 484.22386 439 484 439.22386 484 439.5 C 484 439.77614 484.22386 440 484.5 440 L 484.69141 440 L 484.55273 440.27734 L 484.19141 441 L 483.5 441 C 483.22386 441 483 441.22386 483 441.5 C 483 441.77614 483.22386 442 483.5 442 L 483.69141 442 L 483.55273 442.27734 L 483.19141 443 L 482.5 443 C 482.22386 443 482 443.22386 482 443.5 C 482 443.77614 482.22386 444 482.5 444 L 482.69141 444 L 482.55273 444.27734 L 482.05273 445.27734 C 481.88756 445.60956 482.12903 445.99963 482.5 446 L 483.5 446 C 483.68961 445.99983 483.86282 445.89243 483.94727 445.72266 L 484.44727 444.72266 C 484.66745 444.28229 484.81361 444.16362 484.99805 444.08984 C 485.18248 444.01607 485.5 444 486 444 L 490.5 444 A 0.50005 0.50005 0 0 0 490.92773 443.25195 A 0.50005 0.50005 0 0 0 490.5 443 L 486 443 L 485.30859 443 L 485.44727 442.72266 C 485.66745 442.28229 485.81361 442.16362 485.99805 442.08984 C 486.18248 442.01607 486.5 442 487 442 L 491.5 442 C 491.88103 441.995 492.11675 441.58282 491.92773 441.25195 C 491.83985 441.09813 491.67714 441.00229 491.5 441 L 487 441 L 486.30859 441 L 486.44727 440.72266 C 486.66745 440.28229 486.81361 440.16362 486.99805 440.08984 C 487.18248 440.01607 487.5 440 488 440 L 492.5 440 C 492.88103 439.995 493.11675 439.58282 492.92773 439.25195 C 492.83985 439.09813 492.67714 439.00229 492.5 439 L 488 439 L 487.30859 439 L 487.44727 438.72266 C 487.66745 438.28229 487.81361 438.16362 487.99805 438.08984 C 488.18248 438.01607 488.5 438 489 438 L 489.5 438 L 493.5 438 C 494.1573 437.991 494.1573 437.0093 493.5 437 L 490 437 L 490 435.5 C 490 435.08333 489.80708 434.72505 489.54102 434.45898 C 489.27495 434.19292 488.91667 434 488.5 434 L 482.5 434 z M 482.5 435 L 485 435 L 485 437 L 484.5 437 L 482 437 L 482 435.5 C 482 435.4167 482.0571 435.27495 482.16602 435.16602 C 482.27495 435.05708 482.41667 435 482.5 435 z M 486 435 L 488.5 435 C 488.5833 435 488.72505 435.0571 488.83398 435.16602 C 488.94292 435.27495 489 435.41667 489 435.5 L 489 437 L 486 437 L 486 435 z " fill="#000" transform="translate(8.0,8.0) translate(-488.0,-440.0)" /></svg>