<?xml version="1.0" encoding="utf-8" ?>
<svg baseProfile="full" height="16" version="1.1" width="16" xmlns="http://www.w3.org/2000/svg" xmlns:ev="http://www.w3.org/2001/xml-events" xmlns:xlink="http://www.w3.org/1999/xlink"><defs /><path d="M 602.46875,241 C 602.20906,241 602,241.223 602,241.5 v 0.5 h -0.53125 C 601.20906,242 601,242.223 601,242.5 v 1 c 0,0.277 0.20906,0.5 0.46875,0.5 H 602 v 0.5 c 0,0.277 0.20906,0.5 0.46875,0.5 h 1.0625 C 603.79094,245 604,244.777 604,244.5 V 244 h 0.53125 C 604.79094,244 605,243.777 605,243.5 v -1 c 0,-0.277 -0.20906,-0.5 -0.46875,-0.5 H 604 v -0.5 c 0,-0.277 -0.20906,-0.5 -0.46875,-0.5 z m -5.97656,2 c -0.27308,0.004 -0.4922,0.22689 -0.49219,0.5 v 1.16211 l -2.18555,0.87305 c -0.27144,0.10859 -0.39223,0.42589 -0.26172,0.6875 l 0.5,1 c 0.10053,0.20186 0.32373,0.31146 0.54493,0.26757 l 2.05859,-0.41211 c 0.4154,0.93422 0.84375,2.17898 0.84375,2.92188 0,0.80556 0.125,1.56667 0.125,2.125 0,0.27917 -0.0331,0.5007 -0.0898,0.64258 -0.0568,0.14188 -0.11217,0.21233 -0.25782,0.28515 -0.47137,0.23578 -0.30439,0.94617 0.22266,0.94727 h 1 c 0.27613,-3e-5 0.49997,-0.22387 0.5,-0.5 v -3.0625 c 1.28153,-0.0222 2.42268,-0.0798 3.64844,-0.46094 0.40274,-0.12523 0.58893,-0.0897 0.69922,-0.0391 0.11028,0.0506 0.20177,0.15478 0.31054,0.3418 0.10877,0.18701 0.20894,0.43687 0.38868,0.6914 0.0888,0.12574 0.31081,0.16162 0.4707,0.26172 0.0263,0.62834 0.10742,1.16643 0.10742,1.39258 0,0.13194 -0.0136,0.16597 -0.041,0.20703 -0.0274,0.0411 -0.10136,0.11807 -0.30664,0.2207 -0.47137,0.23578 -0.30439,0.94617 0.22266,0.94727 h 1 c 0.27613,-3e-5 0.49997,-0.22387 0.5,-0.5 v -2 -2 c 0,-0.57891 -0.1372,-1.16102 -0.45312,-1.64062 0.60117,-0.13977 0.71923,-0.41845 1.30664,-1.00586 0.32529,-0.31801 0.0914,-0.86992 -0.36329,-0.85743 -0.12976,0.004 -0.25303,0.0575 -0.34375,0.15039 C 605.26428,247.02867 605,247 604,247 c -2.88889,0 -5.24044,-1.01202 -6.08398,-2.27734 l -1,-1.5 c -0.0943,-0.14142 -0.25389,-0.22529 -0.42383,-0.22266 z" fill="#000" transform="translate(8.0,8.0) translate(-600.0,-248.0)" /><path d="M 602.46875,241 C 602.20906,241 602,241.223 602,241.5 v 0.5 h -0.53125 C 601.20906,242 601,242.223 601,242.5 v 1 c 0,0.277 0.20906,0.5 0.46875,0.5 H 602 v 0.5 c 0,0.277 0.20906,0.5 0.46875,0.5 h 1.0625 C 603.79094,245 604,244.777 604,244.5 V 244 h 0.53125 C 604.79094,244 605,243.777 605,243.5 v -1 c 0,-0.277 -0.20906,-0.5 -0.46875,-0.5 H 604 v -0.5 c 0,-0.277 -0.20906,-0.5 -0.46875,-0.5 z m -5.97656,2 c -0.27308,0.004 -0.4922,0.22689 -0.49219,0.5 v 1.16211 l -2.18555,0.87305 c -0.27144,0.10859 -0.39223,0.42589 -0.26172,0.6875 l 0.5,1 c 0.10053,0.20186 0.32373,0.31146 0.54493,0.26757 l 2.05859,-0.41211 c 0.4154,0.93422 0.84375,2.17898 0.84375,2.92188 0,0.80556 0.125,1.56667 0.125,2.125 0,0.27917 -0.0331,0.5007 -0.0898,0.64258 -0.0568,0.14188 -0.11217,0.21233 -0.25782,0.28515 -0.47137,0.23578 -0.30439,0.94617 0.22266,0.94727 h 1 c 0.27613,-3e-5 0.49997,-0.22387 0.5,-0.5 v -3.0625 c 1.28153,-0.0222 2.42268,-0.0798 3.64844,-0.46094 0.40274,-0.12523 0.58893,-0.0897 0.69922,-0.0391 0.11028,0.0506 0.20177,0.15478 0.31054,0.3418 0.10877,0.18701 0.20894,0.43687 0.38868,0.6914 0.0888,0.12574 0.31081,0.16162 0.4707,0.26172 0.0263,0.62834 0.10742,1.16643 0.10742,1.39258 0,0.13194 -0.0136,0.16597 -0.041,0.20703 -0.0274,0.0411 -0.10136,0.11807 -0.30664,0.2207 -0.47137,0.23578 -0.30439,0.94617 0.22266,0.94727 h 1 c 0.27613,-3e-5 0.49997,-0.22387 0.5,-0.5 v -2 -2 c 0,-0.57891 -0.1372,-1.16102 -0.45312,-1.64062 0.60117,-0.13977 0.71923,-0.41845 1.30664,-1.00586 0.32529,-0.31801 0.0914,-0.86992 -0.36329,-0.85743 -0.12976,0.004 -0.25303,0.0575 -0.34375,0.15039 C 605.26428,247.02867 605,247 604,247 c -2.88889,0 -5.24044,-1.01202 -6.08398,-2.27734 l -1,-1.5 c -0.0943,-0.14142 -0.25389,-0.22529 -0.42383,-0.22266 z" fill="#000" transform="translate(8.0,8.0) translate(-600.0,-248.0)" /></svg>