<?xml version="1.0" encoding="utf-8" ?>
<svg baseProfile="full" height="16" version="1.1" width="16" xmlns="http://www.w3.org/2000/svg" xmlns:ev="http://www.w3.org/2001/xml-events" xmlns:xlink="http://www.w3.org/1999/xlink"><defs /><path d="m 100.5,402 c -0.277,0 -0.5,0.223 -0.5,0.5 v 11 c 0,0.277 0.223,0.5 0.5,0.5 h 7 c 0.277,0 0.5,-0.223 0.5,-0.5 v -11 c 0,-0.277 -0.223,-0.5 -0.5,-0.5 z m 1.5,4.5 a 1,1 0 0 1 1,1 1,1 0 0 1 -0.5,0.86523 V 409.5 c 0,0.277 -0.223,0.5 -0.5,0.5 -0.277,0 -0.5,-0.223 -0.5,-0.5 v -1.13672 A 1,1 0 0 1 101,407.5 a 1,1 0 0 1 1,-1 z" fill="#000" transform="translate(8.0,8.0) translate(-104.0,-408.0)" /><path d="m 100.5,402 c -0.277,0 -0.5,0.223 -0.5,0.5 v 11 c 0,0.277 0.223,0.5 0.5,0.5 h 7 c 0.277,0 0.5,-0.223 0.5,-0.5 v -11 c 0,-0.277 -0.223,-0.5 -0.5,-0.5 z m 1.5,4.5 a 1,1 0 0 1 1,1 1,1 0 0 1 -0.5,0.86523 V 409.5 c 0,0.277 -0.223,0.5 -0.5,0.5 -0.277,0 -0.5,-0.223 -0.5,-0.5 v -1.13672 A 1,1 0 0 1 101,407.5 a 1,1 0 0 1 1,-1 z" fill="#000" transform="translate(8.0,8.0) translate(-104.0,-408.0)" /></svg>