<?xml version="1.0" encoding="utf-8" ?>
<svg baseProfile="full" height="16" version="1.1" width="16" xmlns="http://www.w3.org/2000/svg" xmlns:ev="http://www.w3.org/2001/xml-events" xmlns:xlink="http://www.w3.org/1999/xlink"><defs /><path d="m 609.49414,566 c -0.27384,0.003 -0.49413,0.22614 -0.49414,0.5 v 2 c 3e-5,0.27613 0.22387,0.49997 0.5,0.5 h 3.00586 2.99414 3.00586 2.99414 c 0.27613,-3e-5 0.49997,-0.22387 0.5,-0.5 v -2 c -8e-5,-0.39929 -0.44506,-0.63744 -0.77734,-0.41602 l -2.72266,1.81446 -2.68945,-1.79102 c -0.0239,-0.0185 -0.0494,-0.0349 -0.0762,-0.0488 l -0.008,-0.004 c -0.0121,-0.006 -0.0245,-0.0122 -0.0371,-0.0176 l -0.008,-0.004 c -0.0129,-0.004 -0.0259,-0.008 -0.0391,-0.0117 l -0.01,-0.004 -0.0156,-0.002 c -0.0244,-0.006 -0.0492,-0.011 -0.0742,-0.0137 h -0.008 c -0.0306,-0.002 -0.0613,-0.002 -0.0918,0.002 -0.0131,0.001 -0.0261,0.003 -0.0391,0.006 l -0.01,0.002 -0.008,0.002 c -0.0165,0.004 -0.0328,0.008 -0.0488,0.0137 -0.0126,0.004 -0.0249,0.009 -0.0371,0.0137 l -0.01,0.004 c -0.012,0.006 -0.0237,0.0125 -0.0352,0.0195 -0.0113,0.006 -0.0224,0.0126 -0.0332,0.0195 l -0.0137,0.01 -2.70898,1.80469 -2.72266,-1.81446 c -0.0838,-0.0559 -0.1825,-0.0851 -0.2832,-0.084 z" fill="#000" transform="translate(8.0,8.0) translate(-616.0,-568.0)" /><path d="m 609.49414,566 c -0.27384,0.003 -0.49413,0.22614 -0.49414,0.5 v 2 c 3e-5,0.27613 0.22387,0.49997 0.5,0.5 h 3.00586 2.99414 3.00586 2.99414 c 0.27613,-3e-5 0.49997,-0.22387 0.5,-0.5 v -2 c -8e-5,-0.39929 -0.44506,-0.63744 -0.77734,-0.41602 l -2.72266,1.81446 -2.68945,-1.79102 c -0.0239,-0.0185 -0.0494,-0.0349 -0.0762,-0.0488 l -0.008,-0.004 c -0.0121,-0.006 -0.0245,-0.0122 -0.0371,-0.0176 l -0.008,-0.004 c -0.0129,-0.004 -0.0259,-0.008 -0.0391,-0.0117 l -0.01,-0.004 -0.0156,-0.002 c -0.0244,-0.006 -0.0492,-0.011 -0.0742,-0.0137 h -0.008 c -0.0306,-0.002 -0.0613,-0.002 -0.0918,0.002 -0.0131,0.001 -0.0261,0.003 -0.0391,0.006 l -0.01,0.002 -0.008,0.002 c -0.0165,0.004 -0.0328,0.008 -0.0488,0.0137 -0.0126,0.004 -0.0249,0.009 -0.0371,0.0137 l -0.01,0.004 c -0.012,0.006 -0.0237,0.0125 -0.0352,0.0195 -0.0113,0.006 -0.0224,0.0126 -0.0332,0.0195 l -0.0137,0.01 -2.70898,1.80469 -2.72266,-1.81446 c -0.0838,-0.0559 -0.1825,-0.0851 -0.2832,-0.084 z" fill="#000" transform="translate(8.0,8.0) translate(-616.0,-568.0)" /></svg>