<?xml version="1.0" encoding="utf-8" ?>
<svg baseProfile="full" height="16" version="1.1" width="16" xmlns="http://www.w3.org/2000/svg" xmlns:ev="http://www.w3.org/2001/xml-events" xmlns:xlink="http://www.w3.org/1999/xlink"><defs /><path d="m 275.5,246 c -0.21529,-1.1e-4 -0.40648,0.13758 -0.47461,0.3418 l -1,3 c -0.10798,0.32389 0.13319,0.65836 0.47461,0.6582 h 4 c 0.34142,1.6e-4 0.58259,-0.33431 0.47461,-0.6582 l -1,-3 C 277.90648,246.13758 277.71529,245.99989 277.5,246 Z m 7,0 c -0.21529,-1.1e-4 -0.40648,0.13758 -0.47461,0.3418 l -1,3 c -0.10798,0.32389 0.13319,0.65836 0.47461,0.6582 h 4 c 0.34142,1.6e-4 0.58259,-0.33431 0.47461,-0.6582 l -1,-3 C 284.90648,246.13758 284.71529,245.99989 284.5,246 Z" fill="#000" transform="translate(8.0,8.0) translate(-280.0,-248.0)" /><path d="m 275.5,246 c -0.21529,-1.1e-4 -0.40648,0.13758 -0.47461,0.3418 l -1,3 c -0.10798,0.32389 0.13319,0.65836 0.47461,0.6582 h 4 c 0.34142,1.6e-4 0.58259,-0.33431 0.47461,-0.6582 l -1,-3 C 277.90648,246.13758 277.71529,245.99989 277.5,246 Z m 7,0 c -0.21529,-1.1e-4 -0.40648,0.13758 -0.47461,0.3418 l -1,3 c -0.10798,0.32389 0.13319,0.65836 0.47461,0.6582 h 4 c 0.34142,1.6e-4 0.58259,-0.33431 0.47461,-0.6582 l -1,-3 C 284.90648,246.13758 284.71529,245.99989 284.5,246 Z" fill="#000" transform="translate(8.0,8.0) translate(-280.0,-248.0)" /></svg>