<?xml version="1.0" encoding="utf-8" ?>
<svg baseProfile="full" height="16" version="1.1" width="16" xmlns="http://www.w3.org/2000/svg" xmlns:ev="http://www.w3.org/2001/xml-events" xmlns:xlink="http://www.w3.org/1999/xlink"><defs /><path d="m 231.5,370 c -0.277,0 -0.5,0.223 -0.5,0.5 0,0.277 0.223,0.5 0.5,0.5 h 0.5 v 1 c -2.20914,0 -4,1.79086 -4,4 h 2 c 0,-1.10457 0.89543,-2 2,-2 h 6 v -2 h -5 v -1 h 0.5 c 0.277,0 0.5,-0.223 0.5,-0.5 0,-0.277 -0.223,-0.5 -0.5,-0.5 z m -5.5,7 1,6 h 4 l 1,-6 z" fill="#000" transform="translate(8.0,8.0) translate(-232.0,-376.0)" /><path d="m 231.5,370 c -0.277,0 -0.5,0.223 -0.5,0.5 0,0.277 0.223,0.5 0.5,0.5 h 0.5 v 1 c -2.20914,0 -4,1.79086 -4,4 h 2 c 0,-1.10457 0.89543,-2 2,-2 h 6 v -2 h -5 v -1 h 0.5 c 0.277,0 0.5,-0.223 0.5,-0.5 0,-0.277 -0.223,-0.5 -0.5,-0.5 z m -5.5,7 1,6 h 4 l 1,-6 z" fill="#000" transform="translate(8.0,8.0) translate(-232.0,-376.0)" /></svg>