<?xml version="1.0" encoding="utf-8" ?>
<svg baseProfile="full" height="16" version="1.1" width="16" xmlns="http://www.w3.org/2000/svg" xmlns:ev="http://www.w3.org/2001/xml-events" xmlns:xlink="http://www.w3.org/1999/xlink"><defs /><path d="m 596,180 c -0.554,0 -1,0.446 -1,1 -0.554,0 -1,0.446 -1,1 v 3 c 0,0.554 0.446,1 1,1 0,0.554 0.446,1 1,1 0.554,0 1,-0.446 1,-1 v -5 c 0,-0.554 -0.446,-1 -1,-1 z m 8,0 c -0.554,0 -1,0.446 -1,1 v 5 c 0,0.554 0.446,1 1,1 0.554,0 1,-0.446 1,-1 0.554,0 1,-0.446 1,-1 v -3 c 0,-0.554 -0.446,-1 -1,-1 0,-0.554 -0.446,-1 -1,-1 z m -6.5,3 v 1 h 5 v -1 z" fill="#000" transform="translate(8.0,8.0) translate(-600.0,-184.0)" /><path d="m 596,180 c -0.554,0 -1,0.446 -1,1 -0.554,0 -1,0.446 -1,1 v 3 c 0,0.554 0.446,1 1,1 0,0.554 0.446,1 1,1 0.554,0 1,-0.446 1,-1 v -5 c 0,-0.554 -0.446,-1 -1,-1 z m 8,0 c -0.554,0 -1,0.446 -1,1 v 5 c 0,0.554 0.446,1 1,1 0.554,0 1,-0.446 1,-1 0.554,0 1,-0.446 1,-1 v -3 c 0,-0.554 -0.446,-1 -1,-1 0,-0.554 -0.446,-1 -1,-1 z m -6.5,3 v 1 h 5 v -1 z" fill="#000" transform="translate(8.0,8.0) translate(-600.0,-184.0)" /></svg>