<?xml version="1.0" encoding="utf-8" ?>
<svg baseProfile="full" height="16" version="1.1" width="16" xmlns="http://www.w3.org/2000/svg" xmlns:ev="http://www.w3.org/2001/xml-events" xmlns:xlink="http://www.w3.org/1999/xlink"><defs /><path d="m 168.4668,562.00195 c -0.15495,0.0101 -0.29641,0.0917 -0.38282,0.22071 l -4,6 c -0.22142,0.33228 0.0167,0.77726 0.41602,0.77734 h 3.39062 l -0.88085,4.40234 c -0.10619,0.53645 0.60234,0.82963 0.90625,0.375 l 4,-6 C 172.13744,567.44506 171.89929,567.00008 171.5,567 h -3.39063 l 0.88086,-4.40234 c 0.0635,-0.3223 -0.19564,-0.61728 -0.52343,-0.59571 z" fill="#000" transform="translate(8.0,8.0) translate(-168.0,-568.0)" /><path d="m 168.4668,562.00195 c -0.15495,0.0101 -0.29641,0.0917 -0.38282,0.22071 l -4,6 c -0.22142,0.33228 0.0167,0.77726 0.41602,0.77734 h 3.39062 l -0.88085,4.40234 c -0.10619,0.53645 0.60234,0.82963 0.90625,0.375 l 4,-6 C 172.13744,567.44506 171.89929,567.00008 171.5,567 h -3.39063 l 0.88086,-4.40234 c 0.0635,-0.3223 -0.19564,-0.61728 -0.52343,-0.59571 z" fill="#000" transform="translate(8.0,8.0) translate(-168.0,-568.0)" /></svg>