<?xml version="1.0" encoding="utf-8" ?>
<svg baseProfile="full" height="16" version="1.1" width="16" xmlns="http://www.w3.org/2000/svg" xmlns:ev="http://www.w3.org/2001/xml-events" xmlns:xlink="http://www.w3.org/1999/xlink"><defs /><path d="m 243.05078,402.05078 c -0.554,0 -1,0.446 -1,1 v 8.89844 c 0,0.554 0.446,1 1,1 H 252 c 0.554,0 1,-0.446 1,-1 v -8.89844 c 0,-0.554 -0.446,-1 -1,-1 z m 4.44141,0.94141 A 0.50005,0.50005 0 0 1 248,403.5 v 8 a 0.50005,0.50005 0 1 1 -1,0 v -8 a 0.50005,0.50005 0 0 1 0.49219,-0.50781 z M 244.5,404.5 246,407 h -1 v 2.5 a 0.50005,0.50005 0 1 1 -1,0 V 407 h -1 z m 5.99219,0.49219 A 0.50005,0.50005 0 0 1 251,405.5 v 2.5 h 1 l -1.5,2.5 -1.5,-2.5 h 1 v -2.5 a 0.50005,0.50005 0 0 1 0.49219,-0.50781 z" fill="#000" transform="translate(8.0,8.0) translate(-248.0,-408.0)" /><path d="m 243.05078,402.05078 c -0.554,0 -1,0.446 -1,1 v 8.89844 c 0,0.554 0.446,1 1,1 H 252 c 0.554,0 1,-0.446 1,-1 v -8.89844 c 0,-0.554 -0.446,-1 -1,-1 z m 4.44141,0.94141 A 0.50005,0.50005 0 0 1 248,403.5 v 8 a 0.50005,0.50005 0 1 1 -1,0 v -8 a 0.50005,0.50005 0 0 1 0.49219,-0.50781 z M 244.5,404.5 246,407 h -1 v 2.5 a 0.50005,0.50005 0 1 1 -1,0 V 407 h -1 z m 5.99219,0.49219 A 0.50005,0.50005 0 0 1 251,405.5 v 2.5 h 1 l -1.5,2.5 -1.5,-2.5 h 1 v -2.5 a 0.50005,0.50005 0 0 1 0.49219,-0.50781 z" fill="#000" transform="translate(8.0,8.0) translate(-248.0,-408.0)" /></svg>