<?xml version="1.0" encoding="utf-8" ?>
<svg baseProfile="full" height="16" version="1.1" width="16" xmlns="http://www.w3.org/2000/svg" xmlns:ev="http://www.w3.org/2001/xml-events" xmlns:xlink="http://www.w3.org/1999/xlink"><defs /><path d="m 86.5,627 c -0.676161,-0.01 -0.676161,1.00956 0,1 H 88 v 0.5 0.5 h 1 v -0.5 -0.5 h 1.5 c 0.676161,0.01 0.676161,-1.00956 0,-1 z m 0,3 c -0.276131,3e-5 -0.499972,0.22387 -0.5,0.5 v 0.5 h -0.5 c -0.276131,3e-5 -0.499972,0.22387 -0.5,0.5 v 4 c 2.8e-5,0.27613 0.223869,0.49997 0.5,0.5 h 1.792969 l 0.853515,0.85352 c 0.09376,0.0938 0.220917,0.14646 0.353516,0.14648 h 3 c 0.189613,-1.7e-4 0.362817,-0.10757 0.447266,-0.27734 L 92.808594,635 H 93.5 c 0.276131,-3e-5 0.499972,-0.22387 0.5,-0.5 v -3 c -2.8e-5,-0.27613 -0.223869,-0.49997 -0.5,-0.5 H 91 v -0.5 c -2.8e-5,-0.27613 -0.223869,-0.49997 -0.5,-0.5 z m -4.007812,0.99219 C 82.216044,630.9965 81.995681,631.22386 82,631.5 v 4 c -0.0096,0.67616 1.009563,0.67616 1,0 V 634 h 0.5 0.5 v -1 H 83.5 83 v -1.5 c 0.0044,-0.28227 -0.225547,-0.51223 -0.507812,-0.50781 z" fill="#000" transform="translate(8.0,8.0) translate(-88.0,-632.0)" /><path d="m 86.5,627 c -0.676161,-0.01 -0.676161,1.00956 0,1 H 88 v 0.5 0.5 h 1 v -0.5 -0.5 h 1.5 c 0.676161,0.01 0.676161,-1.00956 0,-1 z m 0,3 c -0.276131,3e-5 -0.499972,0.22387 -0.5,0.5 v 0.5 h -0.5 c -0.276131,3e-5 -0.499972,0.22387 -0.5,0.5 v 4 c 2.8e-5,0.27613 0.223869,0.49997 0.5,0.5 h 1.792969 l 0.853515,0.85352 c 0.09376,0.0938 0.220917,0.14646 0.353516,0.14648 h 3 c 0.189613,-1.7e-4 0.362817,-0.10757 0.447266,-0.27734 L 92.808594,635 H 93.5 c 0.276131,-3e-5 0.499972,-0.22387 0.5,-0.5 v -3 c -2.8e-5,-0.27613 -0.223869,-0.49997 -0.5,-0.5 H 91 v -0.5 c -2.8e-5,-0.27613 -0.223869,-0.49997 -0.5,-0.5 z m -4.007812,0.99219 C 82.216044,630.9965 81.995681,631.22386 82,631.5 v 4 c -0.0096,0.67616 1.009563,0.67616 1,0 V 634 h 0.5 0.5 v -1 H 83.5 83 v -1.5 c 0.0044,-0.28227 -0.225547,-0.51223 -0.507812,-0.50781 z" fill="#000" transform="translate(8.0,8.0) translate(-88.0,-632.0)" /></svg>