<?xml version="1.0" encoding="utf-8" ?>
<svg baseProfile="full" height="16" version="1.1" width="16" xmlns="http://www.w3.org/2000/svg" xmlns:ev="http://www.w3.org/2001/xml-events" xmlns:xlink="http://www.w3.org/1999/xlink"><defs /><path d="M 5.5,403 C 5.223,403 5,403.223 5,403.5 v 9 c 0,0.277 0.223,0.5 0.5,0.5 h 5 c 0.277,0 0.5,-0.223 0.5,-0.5 v -9 c 0,-0.277 -0.223,-0.5 -0.5,-0.5 z m 1,4 h 2 c 0.277,0 0.5,0.223 0.5,0.5 0,0.277 -0.223,0.5 -0.5,0.5 H 7 v 0.5 C 7,408.777 6.777,409 6.5,409 6.223,409 6,408.777 6,408.5 v -1 C 6,407.223 6.223,407 6.5,407 Z" fill="#000" transform="translate(8.0,8.0) translate(-8.0,-408.0)" /><path d="M 5.5,403 C 5.223,403 5,403.223 5,403.5 v 9 c 0,0.277 0.223,0.5 0.5,0.5 h 5 c 0.277,0 0.5,-0.223 0.5,-0.5 v -9 c 0,-0.277 -0.223,-0.5 -0.5,-0.5 z m 1,4 h 2 c 0.277,0 0.5,0.223 0.5,0.5 0,0.277 -0.223,0.5 -0.5,0.5 H 7 v 0.5 C 7,408.777 6.777,409 6.5,409 6.223,409 6,408.777 6,408.5 v -1 C 6,407.223 6.223,407 6.5,407 Z" fill="#000" transform="translate(8.0,8.0) translate(-8.0,-408.0)" /></svg>