<?xml version="1.0" encoding="utf-8" ?>
<svg baseProfile="full" height="16" version="1.1" width="16" xmlns="http://www.w3.org/2000/svg" xmlns:ev="http://www.w3.org/2001/xml-events" xmlns:xlink="http://www.w3.org/1999/xlink"><defs /><path d="m 83.5,52 c -0.09,0 -0.16936,0.0309 -0.24219,0.0723 a 0.50005,0.50005 0 0 1 0.0547,0.0371 l 4.6875,3.75 4.6875,-3.75 a 0.50024408,0.50024408 0 0 1 0.0547,-0.0391 C 92.66958,52.02932 92.58965,52 92.5,52 Z M 83,53.14062 V 59.5 c 0,0.277 0.223,0.5 0.5,0.5 h 9 c 0.277,0 0.5,-0.223 0.5,-0.5 v -6.35938 l -4.6875,3.75 a 0.50005,0.50005 0 0 1 -0.625,0 z" fill="#000" transform="translate(8.0,8.0) translate(-88.0,-56.0)" /><path d="m 83.5,52 c -0.09,0 -0.16936,0.0309 -0.24219,0.0723 a 0.50005,0.50005 0 0 1 0.0547,0.0371 l 4.6875,3.75 4.6875,-3.75 a 0.50024408,0.50024408 0 0 1 0.0547,-0.0391 C 92.66958,52.02932 92.58965,52 92.5,52 Z M 83,53.14062 V 59.5 c 0,0.277 0.223,0.5 0.5,0.5 h 9 c 0.277,0 0.5,-0.223 0.5,-0.5 v -6.35938 l -4.6875,3.75 a 0.50005,0.50005 0 0 1 -0.625,0 z" fill="#000" transform="translate(8.0,8.0) translate(-88.0,-56.0)" /></svg>