<?xml version="1.0" encoding="utf-8" ?>
<svg baseProfile="full" height="16" version="1.1" width="16" xmlns="http://www.w3.org/2000/svg" xmlns:ev="http://www.w3.org/2001/xml-events" xmlns:xlink="http://www.w3.org/1999/xlink"><defs /><path d="m 198.49414,560.99414 a 0.50005,0.50005 0 0 0 -0.34766,0.85938 L 199.29297,563 H 197.5 c -0.66667,0 -1.27495,0.31792 -1.72852,0.77148 C 195.31792,564.22505 195,564.83333 195,565.5 a 0.50005,0.50005 0 1 0 1,0 c 0,-0.33333 0.18208,-0.72505 0.47852,-1.02148 C 196.77495,564.18208 197.16667,564 197.5,564 h 1.79297 l -1.14649,1.14648 a 0.50005,0.50005 0 1 0 0.70704,0.70704 l 1.95703,-1.95704 a 0.50005,0.50005 0 0 0 0.002,-0.79296 0.50005,0.50005 0 0 0 -0.006,-0.004 l -1.95312,-1.95313 a 0.50005,0.50005 0 0 0 -0.35938,-0.15234 z m 6.00586,9 a 0.50005,0.50005 0 0 0 -0.49219,0.50781 c 0,0.33334 -0.18208,0.72505 -0.47851,1.02149 -0.29644,0.29643 -0.68815,0.47851 -1.02149,0.47851 h -1.79297 l 1.14649,-1.14648 a 0.50005,0.50005 0 0 0 -0.36328,-0.85742 0.50005,0.50005 0 0 0 -0.34375,0.15039 l -1.95703,1.95703 a 0.50005,0.50005 0 0 0 0.004,0.79687 l 1.95313,1.95313 a 0.50005,0.50005 0 1 0 0.70703,-0.70703 l -1.14649,-1.14649 h 1.79297 c 0.66667,0 1.27495,-0.31791 1.72852,-0.77148 0.45357,-0.45357 0.77148,-1.06185 0.77148,-1.72852 A 0.50005,0.50005 0 0 0 204.5,569.99414 Z" fill="#000" transform="translate(8.0,8.0) translate(-200.0,-568.0)" /><path d="M 215.49219,563.99219 A 0.50005,0.50005 0 0 0 215,564.5 v 0.59375 c -0.57903,0.20848 -1,0.75941 -1,1.40625 0,0.82251 0.67749,1.5 1.5,1.5 0.28205,0 0.5,0.21795 0.5,0.5 0,0.2709 -0.20295,0.47782 -0.46875,0.49414 a 0.50005,0.50005 0 0 0 -0.0391,-0.002 0.50005,0.50005 0 0 0 -0.0742,0.008 H 214.5 a 0.50005,0.50005 0 1 0 0,1 h 0.5 v 0.5 a 0.50005,0.50005 0 1 0 1,0 v -0.59375 c 0.57903,-0.20848 1,-0.75941 1,-1.40625 0,-0.82251 -0.67749,-1.5 -1.5,-1.5 -0.28205,0 -0.5,-0.21795 -0.5,-0.5 0,-0.2709 0.20295,-0.47782 0.46875,-0.49414 A 0.50005,0.50005 0 0 0 215.58203,566 H 216.5 a 0.50005,0.50005 0 1 0 0,-1 H 216 v -0.5 a 0.50005,0.50005 0 0 0 -0.50781,-0.50781 z" fill="#000" transform="translate(4.0,11.0) translate(-216.0,-568.0)" /><path d="m 231.5,564 c -0.78246,0 -1.42673,0.61498 -1.48828,1.38281 A 0.50005,0.50005 0 0 0 230,565.5 v 1.5 h -0.5 a 0.50005,0.50005 0 1 0 0,1 h 0.44531 c -0.067,0.28456 -0.19274,0.46978 -0.36133,0.72266 -0.25,0.375 -0.58398,0.91623 -0.58398,1.77734 a 0.50005,0.50005 0 0 0 0.5,0.5 h 3 a 0.50005,0.50005 0 1 0 0,-1 h -2.33008 c 0.0722,-0.22867 0.0983,-0.50099 0.2461,-0.72266 0.19683,-0.29525 0.4382,-0.70099 0.53515,-1.27734 H 231.5 a 0.50005,0.50005 0 1 0 0,-1 H 231 v -1.46484 a 0.50005,0.50005 0 0 0 0,-0.0352 c 0,-0.28206 0.21794,-0.5 0.5,-0.5 0.28206,0 0.5,0.21794 0.5,0.5 a 0.50005,0.50005 0 1 0 1,0 c 0,-0.8225 -0.6775,-1.5 -1.5,-1.5 z" fill="#000" transform="translate(13.0,6.0) translate(-232.0,-568.0)" /><path d="m 198.49414,560.99414 a 0.50005,0.50005 0 0 0 -0.34766,0.85938 L 199.29297,563 H 197.5 c -0.66667,0 -1.27495,0.31792 -1.72852,0.77148 C 195.31792,564.22505 195,564.83333 195,565.5 a 0.50005,0.50005 0 1 0 1,0 c 0,-0.33333 0.18208,-0.72505 0.47852,-1.02148 C 196.77495,564.18208 197.16667,564 197.5,564 h 1.79297 l -1.14649,1.14648 a 0.50005,0.50005 0 1 0 0.70704,0.70704 l 1.95703,-1.95704 a 0.50005,0.50005 0 0 0 0.002,-0.79296 0.50005,0.50005 0 0 0 -0.006,-0.004 l -1.95312,-1.95313 a 0.50005,0.50005 0 0 0 -0.35938,-0.15234 z m 6.00586,9 a 0.50005,0.50005 0 0 0 -0.49219,0.50781 c 0,0.33334 -0.18208,0.72505 -0.47851,1.02149 -0.29644,0.29643 -0.68815,0.47851 -1.02149,0.47851 h -1.79297 l 1.14649,-1.14648 a 0.50005,0.50005 0 0 0 -0.36328,-0.85742 0.50005,0.50005 0 0 0 -0.34375,0.15039 l -1.95703,1.95703 a 0.50005,0.50005 0 0 0 0.004,0.79687 l 1.95313,1.95313 a 0.50005,0.50005 0 1 0 0.70703,-0.70703 l -1.14649,-1.14649 h 1.79297 c 0.66667,0 1.27495,-0.31791 1.72852,-0.77148 0.45357,-0.45357 0.77148,-1.06185 0.77148,-1.72852 A 0.50005,0.50005 0 0 0 204.5,569.99414 Z" fill="#000" transform="translate(8.0,8.0) translate(-200.0,-568.0)" /><path d="M 215.49219,563.99219 A 0.50005,0.50005 0 0 0 215,564.5 v 0.59375 c -0.57903,0.20848 -1,0.75941 -1,1.40625 0,0.82251 0.67749,1.5 1.5,1.5 0.28205,0 0.5,0.21795 0.5,0.5 0,0.2709 -0.20295,0.47782 -0.46875,0.49414 a 0.50005,0.50005 0 0 0 -0.0391,-0.002 0.50005,0.50005 0 0 0 -0.0742,0.008 H 214.5 a 0.50005,0.50005 0 1 0 0,1 h 0.5 v 0.5 a 0.50005,0.50005 0 1 0 1,0 v -0.59375 c 0.57903,-0.20848 1,-0.75941 1,-1.40625 0,-0.82251 -0.67749,-1.5 -1.5,-1.5 -0.28205,0 -0.5,-0.21795 -0.5,-0.5 0,-0.2709 0.20295,-0.47782 0.46875,-0.49414 A 0.50005,0.50005 0 0 0 215.58203,566 H 216.5 a 0.50005,0.50005 0 1 0 0,-1 H 216 v -0.5 a 0.50005,0.50005 0 0 0 -0.50781,-0.50781 z" fill="#000" transform="translate(4.0,11.0) translate(-216.0,-568.0)" /><path d="m 231.5,564 c -0.78246,0 -1.42673,0.61498 -1.48828,1.38281 A 0.50005,0.50005 0 0 0 230,565.5 v 1.5 h -0.5 a 0.50005,0.50005 0 1 0 0,1 h 0.44531 c -0.067,0.28456 -0.19274,0.46978 -0.36133,0.72266 -0.25,0.375 -0.58398,0.91623 -0.58398,1.77734 a 0.50005,0.50005 0 0 0 0.5,0.5 h 3 a 0.50005,0.50005 0 1 0 0,-1 h -2.33008 c 0.0722,-0.22867 0.0983,-0.50099 0.2461,-0.72266 0.19683,-0.29525 0.4382,-0.70099 0.53515,-1.27734 H 231.5 a 0.50005,0.50005 0 1 0 0,-1 H 231 v -1.46484 a 0.50005,0.50005 0 0 0 0,-0.0352 c 0,-0.28206 0.21794,-0.5 0.5,-0.5 0.28206,0 0.5,0.21794 0.5,0.5 a 0.50005,0.50005 0 1 0 1,0 c 0,-0.8225 -0.6775,-1.5 -1.5,-1.5 z" fill="#000" transform="translate(13.0,6.0) translate(-232.0,-568.0)" /></svg>