<?xml version="1.0" encoding="utf-8" ?>
<svg baseProfile="full" height="16" version="1.1" width="16" xmlns="http://www.w3.org/2000/svg" xmlns:ev="http://www.w3.org/2001/xml-events" xmlns:xlink="http://www.w3.org/1999/xlink"><defs /><path d="m 85.5,403 c -0.277,0 -0.5,0.223 -0.5,0.5 v 9 c 0,0.277 0.223,0.5 0.5,0.5 h 5 c 0.277,0 0.5,-0.223 0.5,-0.5 V 410 h -2.5 c -0.831,0 -1.5,-0.64113 -1.5,-1.4375 v -0.125 C 87,407.64112 87.669,407 88.5,407 H 91 v -3.5 c 0,-0.277 -0.223,-0.5 -0.5,-0.5 z m 6.99414,2.99414 a 0.50005,0.50005 0 0 0 -0.34766,0.85938 L 93.29297,408 H 88.5 a 0.50005,0.50005 0 1 0 0,1 h 4.79297 l -1.14649,1.14648 a 0.50005,0.50005 0 1 0 0.70704,0.70704 l 1.95703,-1.95704 a 0.50005,0.50005 0 0 0 0.002,-0.79296 0.50005,0.50005 0 0 0 -0.006,-0.004 l -1.95312,-1.95313 a 0.50005,0.50005 0 0 0 -0.35938,-0.15234 z" fill="#000" transform="translate(8.0,8.0) translate(-88.0,-408.0)" /><path d="m 85.5,403 c -0.277,0 -0.5,0.223 -0.5,0.5 v 9 c 0,0.277 0.223,0.5 0.5,0.5 h 5 c 0.277,0 0.5,-0.223 0.5,-0.5 V 410 h -2.5 c -0.831,0 -1.5,-0.64113 -1.5,-1.4375 v -0.125 C 87,407.64112 87.669,407 88.5,407 H 91 v -3.5 c 0,-0.277 -0.223,-0.5 -0.5,-0.5 z m 6.99414,2.99414 a 0.50005,0.50005 0 0 0 -0.34766,0.85938 L 93.29297,408 H 88.5 a 0.50005,0.50005 0 1 0 0,1 h 4.79297 l -1.14649,1.14648 a 0.50005,0.50005 0 1 0 0.70704,0.70704 l 1.95703,-1.95704 a 0.50005,0.50005 0 0 0 0.002,-0.79296 0.50005,0.50005 0 0 0 -0.006,-0.004 l -1.95312,-1.95313 a 0.50005,0.50005 0 0 0 -0.35938,-0.15234 z" fill="#000" transform="translate(8.0,8.0) translate(-88.0,-408.0)" /></svg>