<?xml version="1.0" encoding="utf-8" ?>
<svg baseProfile="full" height="16" version="1.1" width="16" xmlns="http://www.w3.org/2000/svg" xmlns:ev="http://www.w3.org/2001/xml-events" xmlns:xlink="http://www.w3.org/1999/xlink"><defs /><path d="m 119,562 c -0.0693,0 -0.12764,0.006 -0.1875,0.0312 C 117.24696,562.13217 116,563.40897 116,565 l -1,7 h 2 v -7 c 0,-1.10457 0.89543,-2 2,-2 h 1.5 c 0.277,0 0.5,-0.223 0.5,-0.5 0,-0.277 -0.223,-0.5 -0.5,-0.5 z m 1,2 c -1.108,0 -2,0.892 -2,2 v 0.5 1.5 5.5 c 0,0.277 0.223,0.5 0.5,0.5 h 3 c 0.277,0 0.5,-0.223 0.5,-0.5 V 568 566.5 566 c 0,-1.108 -0.892,-2 -2,-2 z" fill="#000" transform="translate(8.0,8.0) translate(-120.0,-568.0)" /><path d="m 119,562 c -0.0693,0 -0.12764,0.006 -0.1875,0.0312 C 117.24696,562.13217 116,563.40897 116,565 l -1,7 h 2 v -7 c 0,-1.10457 0.89543,-2 2,-2 h 1.5 c 0.277,0 0.5,-0.223 0.5,-0.5 0,-0.277 -0.223,-0.5 -0.5,-0.5 z m 1,2 c -1.108,0 -2,0.892 -2,2 v 0.5 1.5 5.5 c 0,0.277 0.223,0.5 0.5,0.5 h 3 c 0.277,0 0.5,-0.223 0.5,-0.5 V 568 566.5 566 c 0,-1.108 -0.892,-2 -2,-2 z" fill="#000" transform="translate(8.0,8.0) translate(-120.0,-568.0)" /></svg>