<?xml version="1.0" encoding="utf-8" ?>
<svg baseProfile="full" height="16" version="1.1" width="16" xmlns="http://www.w3.org/2000/svg" xmlns:ev="http://www.w3.org/2001/xml-events" xmlns:xlink="http://www.w3.org/1999/xlink"><defs /><path d="m 136,369 c -1.662,0 -3,1.338 -3,3 h -0.5 c -0.277,0 -0.5,0.223 -0.5,0.5 0,0.277 0.223,0.5 0.5,0.5 h 0.5 v 1 h -1.5 c -0.277,0 -0.5,0.223 -0.5,0.5 v 0.5 h -0.5 c -0.277,0 -0.5,0.223 -0.5,0.5 v 1 c 0,0.277 0.223,0.5 0.5,0.5 h 0.5 v 0.5 c 0,0.277 0.223,0.5 0.5,0.5 h 1.5 v 4 h -1.5 c -0.277,0 -0.5,0.223 -0.5,0.5 0,0.277 0.223,0.5 0.5,0.5 h 9 c 0.277,0 0.5,-0.223 0.5,-0.5 0,-0.277 -0.223,-0.5 -0.5,-0.5 H 139 v -4 h 1.5 c 0.277,0 0.5,-0.223 0.5,-0.5 V 377 h 0.5 c 0.277,0 0.5,-0.223 0.5,-0.5 v -1 c 0,-0.277 -0.223,-0.5 -0.5,-0.5 H 141 v -0.5 c 0,-0.277 -0.223,-0.5 -0.5,-0.5 H 139 v -1 h 0.5 c 0.277,0 0.5,-0.223 0.5,-0.5 0,-0.277 -0.223,-0.5 -0.5,-0.5 H 139 c 0,-1.662 -1.338,-3 -3,-3 z m 0,5 c 1.10457,0 2,0.89543 2,2 0,1.10457 -0.89543,2 -2,2 -1.10457,0 -2,-0.89543 -2,-2 0,-1.10457 0.89543,-2 2,-2 z" fill="#000" transform="translate(8.0,8.0) translate(-136.0,-376.0)" /><path d="m 136,369 c -1.662,0 -3,1.338 -3,3 h -0.5 c -0.277,0 -0.5,0.223 -0.5,0.5 0,0.277 0.223,0.5 0.5,0.5 h 0.5 v 1 h -1.5 c -0.277,0 -0.5,0.223 -0.5,0.5 v 0.5 h -0.5 c -0.277,0 -0.5,0.223 -0.5,0.5 v 1 c 0,0.277 0.223,0.5 0.5,0.5 h 0.5 v 0.5 c 0,0.277 0.223,0.5 0.5,0.5 h 1.5 v 4 h -1.5 c -0.277,0 -0.5,0.223 -0.5,0.5 0,0.277 0.223,0.5 0.5,0.5 h 9 c 0.277,0 0.5,-0.223 0.5,-0.5 0,-0.277 -0.223,-0.5 -0.5,-0.5 H 139 v -4 h 1.5 c 0.277,0 0.5,-0.223 0.5,-0.5 V 377 h 0.5 c 0.277,0 0.5,-0.223 0.5,-0.5 v -1 c 0,-0.277 -0.223,-0.5 -0.5,-0.5 H 141 v -0.5 c 0,-0.277 -0.223,-0.5 -0.5,-0.5 H 139 v -1 h 0.5 c 0.277,0 0.5,-0.223 0.5,-0.5 0,-0.277 -0.223,-0.5 -0.5,-0.5 H 139 c 0,-1.662 -1.338,-3 -3,-3 z m 0,5 c 1.10457,0 2,0.89543 2,2 0,1.10457 -0.89543,2 -2,2 -1.10457,0 -2,-0.89543 -2,-2 0,-1.10457 0.89543,-2 2,-2 z" fill="#000" transform="translate(8.0,8.0) translate(-136.0,-376.0)" /></svg>