<?xml version="1.0" encoding="utf-8" ?>
<svg baseProfile="full" height="16" version="1.1" width="16" xmlns="http://www.w3.org/2000/svg" xmlns:ev="http://www.w3.org/2001/xml-events" xmlns:xlink="http://www.w3.org/1999/xlink"><defs /><path d="m 305,82 v 1 h 13 v -1 z m 1,2 v 10 h 11 V 84 Z m 5.5,2 a 3.4999998,3.4999998 0 0 1 3.5,3.5 v 3 c 0,0.277 -0.223,0.5 -0.5,0.5 h -3 -3 c -0.277,0 -0.5,-0.223 -0.5,-0.5 v -3 a 3.4999998,3.4999998 0 0 1 3.5,-3.5 z m 0.0781,1.640625 C 310.39317,88.091847 309.98682,89.298595 310,90.5 c 7e-5,0.535824 0.28596,1.030917 0.75,1.298828 0.4641,0.267949 1.0359,0.267949 1.5,0 0.46403,-0.267911 0.74992,-0.763004 0.75,-1.298828 0,-0.818561 -0.36781,-1.344673 -0.70703,-1.796875 0.004,0.464275 -0.17551,0.807863 -0.41602,1.009766 -0.63673,-0.526641 -0.71294,-1.200797 -0.29883,-2.072266 z" fill="#000" transform="translate(8.0,8.0) translate(-312.0,-88.0)" /><path d="m 305,82 v 1 h 13 v -1 z m 1,2 v 10 h 11 V 84 Z m 5.5,2 a 3.4999998,3.4999998 0 0 1 3.5,3.5 v 3 c 0,0.277 -0.223,0.5 -0.5,0.5 h -3 -3 c -0.277,0 -0.5,-0.223 -0.5,-0.5 v -3 a 3.4999998,3.4999998 0 0 1 3.5,-3.5 z m 0.0781,1.640625 C 310.39317,88.091847 309.98682,89.298595 310,90.5 c 7e-5,0.535824 0.28596,1.030917 0.75,1.298828 0.4641,0.267949 1.0359,0.267949 1.5,0 0.46403,-0.267911 0.74992,-0.763004 0.75,-1.298828 0,-0.818561 -0.36781,-1.344673 -0.70703,-1.796875 0.004,0.464275 -0.17551,0.807863 -0.41602,1.009766 -0.63673,-0.526641 -0.71294,-1.200797 -0.29883,-2.072266 z" fill="#000" transform="translate(8.0,8.0) translate(-312.0,-88.0)" /></svg>