<?xml version="1.0" encoding="utf-8" ?>
<svg baseProfile="full" height="16" version="1.1" width="16" xmlns="http://www.w3.org/2000/svg" xmlns:ev="http://www.w3.org/2001/xml-events" xmlns:xlink="http://www.w3.org/1999/xlink"><defs /><path d="M 375.57812,82.640625 C 374.39317,83.091847 373.98682,84.298595 374,85.5 c 7e-5,0.535824 0.28596,1.030917 0.75,1.298828 0.4641,0.267949 1.0359,0.267949 1.5,0 0.46403,-0.267911 0.74992,-0.763004 0.75,-1.298828 0,-0.818561 -0.36781,-1.344673 -0.70703,-1.796875 0.004,0.464275 -0.17551,0.807863 -0.41602,1.009766 -0.63673,-0.526641 -0.71293,-1.200797 -0.29883,-2.072266 z m -4.09765,5.357422 a 0.50005,0.50005 0 0 0 -0.15625,0.970703 l 2.75,1.03125 -2.75,1.03125 a 0.50062478,0.50062478 0 1 0 0.35156,0.9375 l 3.82422,-1.433594 3.82422,1.433594 a 0.50062478,0.50062478 0 0 0 0.35156,-0.9375 l -2.75,-1.03125 2.75,-1.03125 a 0.50005,0.50005 0 0 0 -0.16992,-0.970703 0.50005,0.50005 0 0 0 -0.18164,0.0332 L 375.5,89.464844 371.67578,88.03125 a 0.50005,0.50005 0 0 0 -0.19531,-0.0332 z" fill="#000" transform="translate(8.0,8.0) translate(-376.0,-88.0)" /><path d="M 375.57812,82.640625 C 374.39317,83.091847 373.98682,84.298595 374,85.5 c 7e-5,0.535824 0.28596,1.030917 0.75,1.298828 0.4641,0.267949 1.0359,0.267949 1.5,0 0.46403,-0.267911 0.74992,-0.763004 0.75,-1.298828 0,-0.818561 -0.36781,-1.344673 -0.70703,-1.796875 0.004,0.464275 -0.17551,0.807863 -0.41602,1.009766 -0.63673,-0.526641 -0.71293,-1.200797 -0.29883,-2.072266 z m -4.09765,5.357422 a 0.50005,0.50005 0 0 0 -0.15625,0.970703 l 2.75,1.03125 -2.75,1.03125 a 0.50062478,0.50062478 0 1 0 0.35156,0.9375 l 3.82422,-1.433594 3.82422,1.433594 a 0.50062478,0.50062478 0 0 0 0.35156,-0.9375 l -2.75,-1.03125 2.75,-1.03125 a 0.50005,0.50005 0 0 0 -0.16992,-0.970703 0.50005,0.50005 0 0 0 -0.18164,0.0332 L 375.5,89.464844 371.67578,88.03125 a 0.50005,0.50005 0 0 0 -0.19531,-0.0332 z" fill="#000" transform="translate(8.0,8.0) translate(-376.0,-88.0)" /></svg>