<?xml version="1.0" encoding="utf-8" ?>
<svg baseProfile="full" height="16" version="1.1" width="16" xmlns="http://www.w3.org/2000/svg" xmlns:ev="http://www.w3.org/2001/xml-events" xmlns:xlink="http://www.w3.org/1999/xlink"><defs /><path d="m 534.5,403 c -0.82843,0 -1.5,0.67157 -1.5,1.5 8.9e-4,0.6349 0.40141,1.20047 1,1.41211 V 410.5 c -3.4e-4,0.8935 0.4762,1.71926 1.25,2.16602 0.7735,0.44658 1.7265,0.44658 2.5,0 0.7738,-0.44676 1.25034,-1.27252 1.25,-2.16602 v -3 c -0.5,1.5 -1,2.5 -2.5,3 h 1.5 c -8e-5,0.53582 -0.28596,1.03092 -0.75,1.29883 -0.4641,0.26795 -1.0359,0.26795 -1.5,0 -0.46404,-0.26791 -0.74992,-0.76301 -0.75,-1.29883 v -4.58789 c 0.59859,-0.21164 0.99911,-0.77721 1,-1.41211 0,-0.82843 -0.67157,-1.5 -1.5,-1.5 z m 0,1 c 0.27614,0 0.5,0.22386 0.5,0.5 0,0.27614 -0.22386,0.5 -0.5,0.5 -0.27614,0 -0.5,-0.22386 -0.5,-0.5 0,-0.27614 0.22386,-0.5 0.5,-0.5 z" fill="#000" transform="translate(8.0,8.0) translate(-536.0,-408.0)" /><path d="m 534.5,403 c -0.82843,0 -1.5,0.67157 -1.5,1.5 8.9e-4,0.6349 0.40141,1.20047 1,1.41211 V 410.5 c -3.4e-4,0.8935 0.4762,1.71926 1.25,2.16602 0.7735,0.44658 1.7265,0.44658 2.5,0 0.7738,-0.44676 1.25034,-1.27252 1.25,-2.16602 v -3 c -0.5,1.5 -1,2.5 -2.5,3 h 1.5 c -8e-5,0.53582 -0.28596,1.03092 -0.75,1.29883 -0.4641,0.26795 -1.0359,0.26795 -1.5,0 -0.46404,-0.26791 -0.74992,-0.76301 -0.75,-1.29883 v -4.58789 c 0.59859,-0.21164 0.99911,-0.77721 1,-1.41211 0,-0.82843 -0.67157,-1.5 -1.5,-1.5 z m 0,1 c 0.27614,0 0.5,0.22386 0.5,0.5 0,0.27614 -0.22386,0.5 -0.5,0.5 -0.27614,0 -0.5,-0.22386 -0.5,-0.5 0,-0.27614 0.22386,-0.5 0.5,-0.5 z" fill="#000" transform="translate(8.0,8.0) translate(-536.0,-408.0)" /></svg>