<?xml version="1.0" encoding="utf-8" ?>
<svg baseProfile="full" height="16" version="1.1" width="16" xmlns="http://www.w3.org/2000/svg" xmlns:ev="http://www.w3.org/2001/xml-events" xmlns:xlink="http://www.w3.org/1999/xlink"><defs /><path d="m 39.492188,690.99219 c -0.0249,7.5e-4 -0.04971,0.003 -0.07422,0.008 H 33.5 c -0.276131,3e-5 -0.499972,0.22387 -0.5,0.5 v 3.91992 c -0.0088,0.0537 -0.0088,0.10843 0,0.16211 v 1.83789 c -0.0088,0.0537 -0.0088,0.10843 0,0.16211 v 1.83789 c -0.0088,0.0537 -0.0088,0.10843 0,0.16211 V 701.5 c -0.0096,0.67616 1.009563,0.67616 1,0 V 700 h 11.5 c 0.276131,-3e-5 0.499972,-0.22387 0.5,-0.5 v -3.91992 c 0.0088,-0.0537 0.0088,-0.10843 0,-0.16211 v -1.83789 c 0.0088,-0.0537 0.0088,-0.10843 0,-0.16211 V 691.5 c -2.8e-5,-0.27613 -0.223869,-0.49997 -0.5,-0.5 h -5.908203 c -0.03286,-0.006 -0.06623,-0.009 -0.09961,-0.008 z M 34.5,692 a 0.5,0.5 0 0 1 0.5,0.5 0.5,0.5 0 0 1 -0.5,0.5 0.5,0.5 0 0 1 -0.5,-0.5 0.5,0.5 0 0 1 0.5,-0.5 z m 2,0 a 0.5,0.5 0 0 1 0.5,0.5 0.5,0.5 0 0 1 -0.5,0.5 0.5,0.5 0 0 1 -0.5,-0.5 0.5,0.5 0 0 1 0.5,-0.5 z m 2,0 a 0.5,0.5 0 0 1 0.5,0.5 0.5,0.5 0 0 1 -0.5,0.5 0.5,0.5 0 0 1 -0.5,-0.5 0.5,0.5 0 0 1 0.5,-0.5 z m 1.5,0 h 5 v 1 h -5 z m -5.5,2 a 0.5,0.5 0 0 1 0.5,0.5 0.5,0.5 0 0 1 -0.5,0.5 0.5,0.5 0 0 1 -0.5,-0.5 0.5,0.5 0 0 1 0.5,-0.5 z m 2,0 a 0.5,0.5 0 0 1 0.5,0.5 0.5,0.5 0 0 1 -0.5,0.5 0.5,0.5 0 0 1 -0.5,-0.5 0.5,0.5 0 0 1 0.5,-0.5 z m 2,0 a 0.5,0.5 0 0 1 0.5,0.5 0.5,0.5 0 0 1 -0.5,0.5 0.5,0.5 0 0 1 -0.5,-0.5 0.5,0.5 0 0 1 0.5,-0.5 z m 1.5,0 h 5 v 1 h -5 z m -6,2 h 5.5 5.5 v 1 H 34 Z m 0,2 h 11 v 1 H 34 Z" fill="#000" transform="translate(8.0,8.0) translate(-40.0,-696.0)" /><path d="m 39.492188,690.99219 c -0.0249,7.5e-4 -0.04971,0.003 -0.07422,0.008 H 33.5 c -0.276131,3e-5 -0.499972,0.22387 -0.5,0.5 v 3.91992 c -0.0088,0.0537 -0.0088,0.10843 0,0.16211 v 1.83789 c -0.0088,0.0537 -0.0088,0.10843 0,0.16211 v 1.83789 c -0.0088,0.0537 -0.0088,0.10843 0,0.16211 V 701.5 c -0.0096,0.67616 1.009563,0.67616 1,0 V 700 h 11.5 c 0.276131,-3e-5 0.499972,-0.22387 0.5,-0.5 v -3.91992 c 0.0088,-0.0537 0.0088,-0.10843 0,-0.16211 v -1.83789 c 0.0088,-0.0537 0.0088,-0.10843 0,-0.16211 V 691.5 c -2.8e-5,-0.27613 -0.223869,-0.49997 -0.5,-0.5 h -5.908203 c -0.03286,-0.006 -0.06623,-0.009 -0.09961,-0.008 z M 34.5,692 a 0.5,0.5 0 0 1 0.5,0.5 0.5,0.5 0 0 1 -0.5,0.5 0.5,0.5 0 0 1 -0.5,-0.5 0.5,0.5 0 0 1 0.5,-0.5 z m 2,0 a 0.5,0.5 0 0 1 0.5,0.5 0.5,0.5 0 0 1 -0.5,0.5 0.5,0.5 0 0 1 -0.5,-0.5 0.5,0.5 0 0 1 0.5,-0.5 z m 2,0 a 0.5,0.5 0 0 1 0.5,0.5 0.5,0.5 0 0 1 -0.5,0.5 0.5,0.5 0 0 1 -0.5,-0.5 0.5,0.5 0 0 1 0.5,-0.5 z m 1.5,0 h 5 v 1 h -5 z m -5.5,2 a 0.5,0.5 0 0 1 0.5,0.5 0.5,0.5 0 0 1 -0.5,0.5 0.5,0.5 0 0 1 -0.5,-0.5 0.5,0.5 0 0 1 0.5,-0.5 z m 2,0 a 0.5,0.5 0 0 1 0.5,0.5 0.5,0.5 0 0 1 -0.5,0.5 0.5,0.5 0 0 1 -0.5,-0.5 0.5,0.5 0 0 1 0.5,-0.5 z m 2,0 a 0.5,0.5 0 0 1 0.5,0.5 0.5,0.5 0 0 1 -0.5,0.5 0.5,0.5 0 0 1 -0.5,-0.5 0.5,0.5 0 0 1 0.5,-0.5 z m 1.5,0 h 5 v 1 h -5 z m -6,2 h 5.5 5.5 v 1 H 34 Z m 0,2 h 11 v 1 H 34 Z" fill="#000" transform="translate(8.0,8.0) translate(-40.0,-696.0)" /></svg>