<?xml version="1.0" encoding="utf-8" ?>
<svg baseProfile="full" height="16" version="1.1" width="16" xmlns="http://www.w3.org/2000/svg" xmlns:ev="http://www.w3.org/2001/xml-events" xmlns:xlink="http://www.w3.org/1999/xlink"><defs /><path d="M 49.496094,690.99609 C 49.189747,690.99512 48.954559,691.26735 49,691.57031 v 7.84961 c -0.0017,0.0117 -0.003,0.0234 -0.0039,0.0352 -0.0015,0.0169 -0.0022,0.0338 -0.002,0.0508 3.64e-4,0.01 10e-4,0.0195 0.002,0.0293 3.64e-4,0.01 0.001,0.0195 0.002,0.0293 5.47e-4,0.006 0.0012,0.0117 0.002,0.0176 V 701.5 c -0.0096,0.67616 1.009563,0.67616 1,0 V 700 h 11.5 c 0.276131,-3e-5 0.499972,-0.22387 0.5,-0.5 v -8 c -2.8e-5,-0.27613 -0.223869,-0.49997 -0.5,-0.5 H 49.556641 c -0.02009,-0.003 -0.0403,-0.004 -0.06055,-0.004 z M 51.152344,692 H 61 v 7 h -9.847656 l 4.625,-3.08398 c 0.296803,-0.19794 0.296803,-0.6341 0,-0.83204 z" fill="#000" transform="translate(8.0,8.0) translate(-56.0,-696.0)" /><path d="M 49.496094,690.99609 C 49.189747,690.99512 48.954559,691.26735 49,691.57031 v 7.84961 c -0.0017,0.0117 -0.003,0.0234 -0.0039,0.0352 -0.0015,0.0169 -0.0022,0.0338 -0.002,0.0508 3.64e-4,0.01 10e-4,0.0195 0.002,0.0293 3.64e-4,0.01 0.001,0.0195 0.002,0.0293 5.47e-4,0.006 0.0012,0.0117 0.002,0.0176 V 701.5 c -0.0096,0.67616 1.009563,0.67616 1,0 V 700 h 11.5 c 0.276131,-3e-5 0.499972,-0.22387 0.5,-0.5 v -8 c -2.8e-5,-0.27613 -0.223869,-0.49997 -0.5,-0.5 H 49.556641 c -0.02009,-0.003 -0.0403,-0.004 -0.06055,-0.004 z M 51.152344,692 H 61 v 7 h -9.847656 l 4.625,-3.08398 c 0.296803,-0.19794 0.296803,-0.6341 0,-0.83204 z" fill="#000" transform="translate(8.0,8.0) translate(-56.0,-696.0)" /></svg>