<?xml version="1.0" encoding="utf-8" ?>
<svg baseProfile="full" height="16" version="1.1" width="16" xmlns="http://www.w3.org/2000/svg" xmlns:ev="http://www.w3.org/2001/xml-events" xmlns:xlink="http://www.w3.org/1999/xlink"><defs /><path d="m 149.49219,690.99219 c -0.0249,7.5e-4 -0.0497,0.003 -0.0742,0.008 H 145.5 c -0.27613,3e-5 -0.49997,0.22387 -0.5,0.5 v 7.91992 c -0.009,0.0537 -0.009,0.10843 0,0.16211 V 701.5 c -0.01,0.67616 1.00956,0.67616 1,0 V 700 h 3.41992 c 0.0537,0.009 0.10843,0.009 0.16211,0 h 3.83789 c 0.0537,0.009 0.10843,0.009 0.16211,0 H 157.5 c 0.27613,-3e-5 0.49997,-0.22387 0.5,-0.5 v -8 c -3e-5,-0.27613 -0.22387,-0.49997 -0.5,-0.5 h -3.9082 c -0.0329,-0.006 -0.0662,-0.009 -0.0996,-0.008 -0.0249,7.5e-4 -0.0497,0.003 -0.0742,0.008 h -3.82617 c -0.0329,-0.006 -0.0662,-0.009 -0.0996,-0.008 z M 146,692 h 3 v 7 h -3 z m 8,0 h 3 v 7 h -3 z" fill="#000" transform="translate(8.0,8.0) translate(-152.0,-696.0)" /><path d="m 149.49219,690.99219 c -0.0249,7.5e-4 -0.0497,0.003 -0.0742,0.008 H 145.5 c -0.27613,3e-5 -0.49997,0.22387 -0.5,0.5 v 7.91992 c -0.009,0.0537 -0.009,0.10843 0,0.16211 V 701.5 c -0.01,0.67616 1.00956,0.67616 1,0 V 700 h 3.41992 c 0.0537,0.009 0.10843,0.009 0.16211,0 h 3.83789 c 0.0537,0.009 0.10843,0.009 0.16211,0 H 157.5 c 0.27613,-3e-5 0.49997,-0.22387 0.5,-0.5 v -8 c -3e-5,-0.27613 -0.22387,-0.49997 -0.5,-0.5 h -3.9082 c -0.0329,-0.006 -0.0662,-0.009 -0.0996,-0.008 -0.0249,7.5e-4 -0.0497,0.003 -0.0742,0.008 h -3.82617 c -0.0329,-0.006 -0.0662,-0.009 -0.0996,-0.008 z M 146,692 h 3 v 7 h -3 z m 8,0 h 3 v 7 h -3 z" fill="#000" transform="translate(8.0,8.0) translate(-152.0,-696.0)" /></svg>