<?xml version="1.0" encoding="utf-8" ?>
<svg baseProfile="full" height="16" version="1.1" width="16" xmlns="http://www.w3.org/2000/svg" xmlns:ev="http://www.w3.org/2001/xml-events" xmlns:xlink="http://www.w3.org/1999/xlink"><defs /><path d="m 193.5,691 c -0.27613,3e-5 -0.49997,0.22387 -0.5,0.5 v 8 2 c 0,0.27614 0.22386,0.5 0.5,0.5 0.27614,0 0.5,-0.22386 0.5,-0.5 V 700 h 11.5 c 0.27613,-3e-5 0.49997,-0.22387 0.5,-0.5 V 692.50586 691.5 c -3e-5,-0.27613 -0.22387,-0.49997 -0.5,-0.5 z m 0.5,1 h 8.7832 L 194,697.58984 Z m 11,1.41016 V 699 h -8.7832 z" fill="#000" transform="translate(8.0,8.0) translate(-200.0,-696.0)" /><path d="m 193.5,691 c -0.27613,3e-5 -0.49997,0.22387 -0.5,0.5 v 8 2 c 0,0.27614 0.22386,0.5 0.5,0.5 0.27614,0 0.5,-0.22386 0.5,-0.5 V 700 h 11.5 c 0.27613,-3e-5 0.49997,-0.22387 0.5,-0.5 V 692.50586 691.5 c -3e-5,-0.27613 -0.22387,-0.49997 -0.5,-0.5 z m 0.5,1 h 8.7832 L 194,697.58984 Z m 11,1.41016 V 699 h -8.7832 z" fill="#000" transform="translate(8.0,8.0) translate(-200.0,-696.0)" /></svg>