<?xml version="1.0" encoding="utf-8" ?>
<svg baseProfile="full" height="16" version="1.1" width="16" xmlns="http://www.w3.org/2000/svg" xmlns:ev="http://www.w3.org/2001/xml-events" xmlns:xlink="http://www.w3.org/1999/xlink"><defs /><path d="m 455.5,113.5 c -0.82843,0 -1.5,0.67157 -1.5,1.5 -0.82843,0 -1.5,0.67157 -1.5,1.5 0,0.82843 0.67157,1.5 1.5,1.5 0,0.82843 0.67157,1.5 1.5,1.5 0.82843,0 1.5,-0.67157 1.5,-1.5 0.82843,0 1.5,-0.67157 1.5,-1.5 0,-0.82843 -0.67157,-1.5 -1.5,-1.5 0,-0.82843 -0.67157,-1.5 -1.5,-1.5 z m 0,2 c 0.55228,0 1,0.44772 1,1 0,0.55228 -0.44772,1 -1,1 -0.55228,0 -1,-0.44772 -1,-1 0,-0.55228 0.44772,-1 1,-1 z M 455,120 v 1 h -3.5 c -0.27614,0 -0.5,0.22386 -0.5,0.5 0,0.27614 0.22386,0.5 0.5,0.5 h 0.58984 l 0.91993,4.59766 c 0.0466,0.23384 0.2518,0.40225 0.49023,0.40234 h 4 c 0.23843,-9e-5 0.44364,-0.1685 0.49023,-0.40234 L 458.91016,122 H 459.5 c 0.27614,0 0.5,-0.22386 0.5,-0.5 0,-0.27614 -0.22386,-0.5 -0.5,-0.5 H 456 v -1 z" fill="#000" transform="translate(8.0,8.0) translate(-456.0,-120.0)" /><path d="m 455.5,113.5 c -0.82843,0 -1.5,0.67157 -1.5,1.5 -0.82843,0 -1.5,0.67157 -1.5,1.5 0,0.82843 0.67157,1.5 1.5,1.5 0,0.82843 0.67157,1.5 1.5,1.5 0.82843,0 1.5,-0.67157 1.5,-1.5 0.82843,0 1.5,-0.67157 1.5,-1.5 0,-0.82843 -0.67157,-1.5 -1.5,-1.5 0,-0.82843 -0.67157,-1.5 -1.5,-1.5 z m 0,2 c 0.55228,0 1,0.44772 1,1 0,0.55228 -0.44772,1 -1,1 -0.55228,0 -1,-0.44772 -1,-1 0,-0.55228 0.44772,-1 1,-1 z M 455,120 v 1 h -3.5 c -0.27614,0 -0.5,0.22386 -0.5,0.5 0,0.27614 0.22386,0.5 0.5,0.5 h 0.58984 l 0.91993,4.59766 c 0.0466,0.23384 0.2518,0.40225 0.49023,0.40234 h 4 c 0.23843,-9e-5 0.44364,-0.1685 0.49023,-0.40234 L 458.91016,122 H 459.5 c 0.27614,0 0.5,-0.22386 0.5,-0.5 0,-0.27614 -0.22386,-0.5 -0.5,-0.5 H 456 v -1 z" fill="#000" transform="translate(8.0,8.0) translate(-456.0,-120.0)" /></svg>