<?xml version="1.0" encoding="utf-8" ?>
<svg baseProfile="full" height="16" version="1.1" width="16" xmlns="http://www.w3.org/2000/svg" xmlns:ev="http://www.w3.org/2001/xml-events" xmlns:xlink="http://www.w3.org/1999/xlink"><defs /><path d="m 644,534 v 1 c 0.33333,0 0.39648,0.10352 0.64648,0.35352 0.25,0.25 0.68685,0.64648 1.35352,0.64648 0.66667,0 1.10352,-0.39648 1.35352,-0.64648 0.25,-0.25 0.31315,-0.35352 0.64648,-0.35352 0.33333,0 0.39648,0.10352 0.64648,0.35352 0.25,0.25 0.68685,0.64648 1.35352,0.64648 0.66667,0 1.10352,-0.39648 1.35352,-0.64648 C 651.60352,535.10352 651.66667,535 652,535 v -1 c -0.66667,0 -1.10352,0.39648 -1.35352,0.64648 -0.25,0.25 -0.31315,0.35352 -0.64648,0.35352 -0.33333,0 -0.39648,-0.10352 -0.64648,-0.35352 C 649.10352,534.39648 648.66667,534 648,534 c -0.66667,0 -1.10352,0.39648 -1.35352,0.64648 -0.25,0.25 -0.31315,0.35352 -0.64648,0.35352 -0.33333,0 -0.39648,-0.10352 -0.64648,-0.35352 C 645.10352,534.39648 644.66667,534 644,534 Z m -3,1 v 1 h 0.5 0.5 c 0.33333,0 0.76533,0.19446 1.09766,0.41602 0.33233,0.22155 0.54882,0.4375 0.54882,0.4375 0,0 0.28351,0.28405 0.70118,0.5625 C 644.76533,537.69446 645.33333,538 646,538 h 4 c 0.66667,0 1.23467,-0.30554 1.65234,-0.58398 0.41767,-0.27845 0.70118,-0.5625 0.70118,-0.5625 0,0 0.21649,-0.21595 0.54882,-0.4375 C 653.23467,536.19446 653.66667,536 654,536 h 0.5 0.5 v -1 h -0.5 -0.5 c -0.66667,0 -1.23467,0.30554 -1.65234,0.58398 -0.41767,0.27845 -0.70118,0.5625 -0.70118,0.5625 0,0 -0.21649,0.21595 -0.54882,0.4375 C 650.76533,536.80554 650.33333,537 650,537 h -4 c -0.33333,0 -0.76533,-0.19446 -1.09766,-0.41602 -0.33233,-0.22155 -0.54882,-0.4375 -0.54882,-0.4375 0,0 -0.28351,-0.28405 -0.70118,-0.5625 C 643.23467,535.30554 642.66667,535 642,535 h -0.5 z" fill="#000" transform="translate(8.0,8.0) translate(-648.0,-536.0)" /><path d="m 644,534 v 1 c 0.33333,0 0.39648,0.10352 0.64648,0.35352 0.25,0.25 0.68685,0.64648 1.35352,0.64648 0.66667,0 1.10352,-0.39648 1.35352,-0.64648 0.25,-0.25 0.31315,-0.35352 0.64648,-0.35352 0.33333,0 0.39648,0.10352 0.64648,0.35352 0.25,0.25 0.68685,0.64648 1.35352,0.64648 0.66667,0 1.10352,-0.39648 1.35352,-0.64648 C 651.60352,535.10352 651.66667,535 652,535 v -1 c -0.66667,0 -1.10352,0.39648 -1.35352,0.64648 -0.25,0.25 -0.31315,0.35352 -0.64648,0.35352 -0.33333,0 -0.39648,-0.10352 -0.64648,-0.35352 C 649.10352,534.39648 648.66667,534 648,534 c -0.66667,0 -1.10352,0.39648 -1.35352,0.64648 -0.25,0.25 -0.31315,0.35352 -0.64648,0.35352 -0.33333,0 -0.39648,-0.10352 -0.64648,-0.35352 C 645.10352,534.39648 644.66667,534 644,534 Z m -3,1 v 1 h 0.5 0.5 c 0.33333,0 0.76533,0.19446 1.09766,0.41602 0.33233,0.22155 0.54882,0.4375 0.54882,0.4375 0,0 0.28351,0.28405 0.70118,0.5625 C 644.76533,537.69446 645.33333,538 646,538 h 4 c 0.66667,0 1.23467,-0.30554 1.65234,-0.58398 0.41767,-0.27845 0.70118,-0.5625 0.70118,-0.5625 0,0 0.21649,-0.21595 0.54882,-0.4375 C 653.23467,536.19446 653.66667,536 654,536 h 0.5 0.5 v -1 h -0.5 -0.5 c -0.66667,0 -1.23467,0.30554 -1.65234,0.58398 -0.41767,0.27845 -0.70118,0.5625 -0.70118,0.5625 0,0 -0.21649,0.21595 -0.54882,0.4375 C 650.76533,536.80554 650.33333,537 650,537 h -4 c -0.33333,0 -0.76533,-0.19446 -1.09766,-0.41602 -0.33233,-0.22155 -0.54882,-0.4375 -0.54882,-0.4375 0,0 -0.28351,-0.28405 -0.70118,-0.5625 C 643.23467,535.30554 642.66667,535 642,535 h -0.5 z" fill="#000" transform="translate(8.0,8.0) translate(-648.0,-536.0)" /></svg>