<?xml version="1.0" encoding="utf-8" ?>
<svg baseProfile="full" height="16" version="1.1" width="16" xmlns="http://www.w3.org/2000/svg" xmlns:ev="http://www.w3.org/2001/xml-events" xmlns:xlink="http://www.w3.org/1999/xlink"><defs /><path d="m 244.5,82 c -0.277,0 -0.5,0.223 -0.5,0.5 v 5 1.5 c 0,0.277 0.223,0.5 0.5,0.5 0.82843,0 1.5,0.67157 1.5,1.5 v 2.5 c 0,0.277 0.223,0.5 0.5,0.5 0.277,0 0.5,-0.223 0.5,-0.5 V 91 c 0,-0.82843 0.67157,-1.5 1.5,-1.5 0.277,0 0.5,-0.223 0.5,-0.5 v -1.5 -5 c 0,-0.277 -0.223,-0.5 -0.5,-0.5 -0.277,0 -0.5,0.223 -0.5,0.5 V 87 h -1 v -4.5 c 0,-0.277 -0.223,-0.5 -0.5,-0.5 -0.277,0 -0.5,0.223 -0.5,0.5 V 87 h -1 v -4.5 c 0,-0.277 -0.223,-0.5 -0.5,-0.5 z m 6.5,0 c -0.554,0 -1,0.446 -1,1 v 7 c 0,0.554 0.446,1 1,1 v 2.5 c 0,0.277 0.23166,0.5 0.5,0.5 0.26834,0 0.5,-0.223 0.5,-0.5 V 90 84.5 83 c 0,-0.554 -0.446,-1 -1,-1 z" fill="#000" transform="translate(8.0,8.0) translate(-248.0,-88.0)" /><path d="m 244.5,82 c -0.277,0 -0.5,0.223 -0.5,0.5 v 5 1.5 c 0,0.277 0.223,0.5 0.5,0.5 0.82843,0 1.5,0.67157 1.5,1.5 v 2.5 c 0,0.277 0.223,0.5 0.5,0.5 0.277,0 0.5,-0.223 0.5,-0.5 V 91 c 0,-0.82843 0.67157,-1.5 1.5,-1.5 0.277,0 0.5,-0.223 0.5,-0.5 v -1.5 -5 c 0,-0.277 -0.223,-0.5 -0.5,-0.5 -0.277,0 -0.5,0.223 -0.5,0.5 V 87 h -1 v -4.5 c 0,-0.277 -0.223,-0.5 -0.5,-0.5 -0.277,0 -0.5,0.223 -0.5,0.5 V 87 h -1 v -4.5 c 0,-0.277 -0.223,-0.5 -0.5,-0.5 z m 6.5,0 c -0.554,0 -1,0.446 -1,1 v 7 c 0,0.554 0.446,1 1,1 v 2.5 c 0,0.277 0.23166,0.5 0.5,0.5 0.26834,0 0.5,-0.223 0.5,-0.5 V 90 84.5 83 c 0,-0.554 -0.446,-1 -1,-1 z" fill="#000" transform="translate(8.0,8.0) translate(-248.0,-88.0)" /></svg>