<?xml version="1.0" encoding="utf-8" ?>
<svg baseProfile="full" height="16" version="1.1" width="16" xmlns="http://www.w3.org/2000/svg" xmlns:ev="http://www.w3.org/2001/xml-events" xmlns:xlink="http://www.w3.org/1999/xlink"><defs /><path d="m 308,337 v 2 h 8 v -2 h -2 v 1 h -1 v -1 h -2 v 1 h -1 v -1 z m 1,3 -0.5,3 H 307 l -0.5,-1 H 305 v 8 h 6 v -3 c 0,-0.554 0.446,-1 1,-1 0.554,0 1,0.446 1,1 v 3 h 6 v -8 h -1.5 l -0.5,1 h -1.5 l -0.5,-3 z m -1,5 c 0.554,0 1,0.446 1,1 v 2 h -2 v -2 c 0,-0.554 0.446,-1 1,-1 z m 8,0 c 0.554,0 1,0.446 1,1 v 2 h -2 v -2 c 0,-0.554 0.446,-1 1,-1 z" fill="#000" transform="translate(8.0,8.0) translate(-312.0,-344.0)" /><path d="m 308,337 v 2 h 8 v -2 h -2 v 1 h -1 v -1 h -2 v 1 h -1 v -1 z m 1,3 -0.5,3 H 307 l -0.5,-1 H 305 v 8 h 6 v -3 c 0,-0.554 0.446,-1 1,-1 0.554,0 1,0.446 1,1 v 3 h 6 v -8 h -1.5 l -0.5,1 h -1.5 l -0.5,-3 z m -1,5 c 0.554,0 1,0.446 1,1 v 2 h -2 v -2 c 0,-0.554 0.446,-1 1,-1 z m 8,0 c 0.554,0 1,0.446 1,1 v 2 h -2 v -2 c 0,-0.554 0.446,-1 1,-1 z" fill="#000" transform="translate(8.0,8.0) translate(-312.0,-344.0)" /></svg>