<?xml version="1.0" encoding="utf-8" ?>
<svg baseProfile="full" height="16" version="1.1" width="16" xmlns="http://www.w3.org/2000/svg" xmlns:ev="http://www.w3.org/2001/xml-events" xmlns:xlink="http://www.w3.org/1999/xlink"><defs /><path d="m 699.49219,337.99219 c -0.27614,0.004 -0.49651,0.23167 -0.49219,0.50781 v 2.47852 c -0.16048,-0.0117 -0.33048,-0.027 -0.49023,-0.0547 -0.35263,-0.0611 -0.61328,-0.23046 -0.59375,-0.20117 l -1,-1.5 c -0.0943,-0.14142 -0.25389,-0.22529 -0.42383,-0.22266 -0.27308,0.004 -0.4922,0.22689 -0.49219,0.5 v 1.16211 l -2.18555,0.87305 c -0.27144,0.10859 -0.39223,0.42589 -0.26172,0.6875 l 0.5,1 c 0.10053,0.20186 0.32373,0.31146 0.54493,0.26757 l 2.41796,-0.48437 c 0.74814,0.006 1.55194,0.38207 1.98438,0.73437 v 1.25977 h -7.5 c -0.27613,3e-5 -0.49997,0.22387 -0.5,0.5 0,0.91667 0.44292,1.77495 1.08398,2.41602 C 692.72505,348.55708 693.58333,349 694.5,349 h 4.5 v 0.5 c -0.01,0.67616 1.00956,0.67616 1,0 v -0.91992 c 0.009,-0.0537 0.009,-0.10843 0,-0.16211 v -2.83789 c 0.009,-0.0537 0.009,-0.10843 0,-0.16211 v -1.89063 c 2.5e-4,-0.009 2.5e-4,-0.0182 0,-0.0273 v -2 -3 c 0.004,-0.28226 -0.22555,-0.51223 -0.50781,-0.50781 z" fill="#000" transform="translate(8.0,8.0) translate(-696.0,-344.0)" /><path d="m 699.49219,337.99219 c -0.27614,0.004 -0.49651,0.23167 -0.49219,0.50781 v 2.47852 c -0.16048,-0.0117 -0.33048,-0.027 -0.49023,-0.0547 -0.35263,-0.0611 -0.61328,-0.23046 -0.59375,-0.20117 l -1,-1.5 c -0.0943,-0.14142 -0.25389,-0.22529 -0.42383,-0.22266 -0.27308,0.004 -0.4922,0.22689 -0.49219,0.5 v 1.16211 l -2.18555,0.87305 c -0.27144,0.10859 -0.39223,0.42589 -0.26172,0.6875 l 0.5,1 c 0.10053,0.20186 0.32373,0.31146 0.54493,0.26757 l 2.41796,-0.48437 c 0.74814,0.006 1.55194,0.38207 1.98438,0.73437 v 1.25977 h -7.5 c -0.27613,3e-5 -0.49997,0.22387 -0.5,0.5 0,0.91667 0.44292,1.77495 1.08398,2.41602 C 692.72505,348.55708 693.58333,349 694.5,349 h 4.5 v 0.5 c -0.01,0.67616 1.00956,0.67616 1,0 v -0.91992 c 0.009,-0.0537 0.009,-0.10843 0,-0.16211 v -2.83789 c 0.009,-0.0537 0.009,-0.10843 0,-0.16211 v -1.89063 c 2.5e-4,-0.009 2.5e-4,-0.0182 0,-0.0273 v -2 -3 c 0.004,-0.28226 -0.22555,-0.51223 -0.50781,-0.50781 z" fill="#000" transform="translate(8.0,8.0) translate(-696.0,-344.0)" /></svg>