<?xml version="1.0" encoding="utf-8" ?>
<svg baseProfile="full" height="16" version="1.1" width="16" xmlns="http://www.w3.org/2000/svg" xmlns:ev="http://www.w3.org/2001/xml-events" xmlns:xlink="http://www.w3.org/1999/xlink"><defs /><path d="M 678.46484,342 A 1.5,1.5 0 0 0 677.75,342.20117 1.5,1.5 0 0 0 677,343.5 v 0.5 h 1 v -0.5 a 0.5,0.5 0 0 1 0.25,-0.43359 0.5,0.5 0 0 1 0.5,0 A 0.5,0.5 0 0 1 679,343.5 v 1 h 1 v -1 a 0.5,0.5 0 0 1 0.25,-0.43359 0.5,0.5 0 0 1 0.5,0 A 0.5,0.5 0 0 1 681,343.5 v 0.5 h 1 v -0.5 a 1.5,1.5 0 0 0 -0.75,-1.29883 1.5,1.5 0 0 0 -0.71484,-0.20117 1.5,1.5 0 0 0 -0.78516,0.20117 1.5,1.5 0 0 0 -0.25,0.1836 1.5,1.5 0 0 0 -0.25,-0.1836 A 1.5,1.5 0 0 0 678.46484,342 Z M 675.5,345 c -0.277,0 -0.5,0.223 -0.5,0.5 0,0.277 0.223,0.5 0.5,0.5 h 0.5 l 2,2 v 1 h -0.5 c -0.277,0 -0.5,0.223 -0.5,0.5 0,0.277 0.223,0.5 0.5,0.5 h 4 c 0.277,0 0.5,-0.223 0.5,-0.5 0,-0.277 -0.223,-0.5 -0.5,-0.5 H 681 v -1 l 2,-2 h 0.5 c 0.277,0 0.5,-0.223 0.5,-0.5 0,-0.277 -0.223,-0.5 -0.5,-0.5 z" fill="#000" transform="translate(8.0,8.0) translate(-680.0,-344.0)" /><path d="M 678.46484,342 A 1.5,1.5 0 0 0 677.75,342.20117 1.5,1.5 0 0 0 677,343.5 v 0.5 h 1 v -0.5 a 0.5,0.5 0 0 1 0.25,-0.43359 0.5,0.5 0 0 1 0.5,0 A 0.5,0.5 0 0 1 679,343.5 v 1 h 1 v -1 a 0.5,0.5 0 0 1 0.25,-0.43359 0.5,0.5 0 0 1 0.5,0 A 0.5,0.5 0 0 1 681,343.5 v 0.5 h 1 v -0.5 a 1.5,1.5 0 0 0 -0.75,-1.29883 1.5,1.5 0 0 0 -0.71484,-0.20117 1.5,1.5 0 0 0 -0.78516,0.20117 1.5,1.5 0 0 0 -0.25,0.1836 1.5,1.5 0 0 0 -0.25,-0.1836 A 1.5,1.5 0 0 0 678.46484,342 Z M 675.5,345 c -0.277,0 -0.5,0.223 -0.5,0.5 0,0.277 0.223,0.5 0.5,0.5 h 0.5 l 2,2 v 1 h -0.5 c -0.277,0 -0.5,0.223 -0.5,0.5 0,0.277 0.223,0.5 0.5,0.5 h 4 c 0.277,0 0.5,-0.223 0.5,-0.5 0,-0.277 -0.223,-0.5 -0.5,-0.5 H 681 v -1 l 2,-2 h 0.5 c 0.277,0 0.5,-0.223 0.5,-0.5 0,-0.277 -0.223,-0.5 -0.5,-0.5 z" fill="#000" transform="translate(8.0,8.0) translate(-680.0,-344.0)" /></svg>