<?xml version="1.0" encoding="utf-8" ?>
<svg baseProfile="full" height="16" version="1.1" width="16" xmlns="http://www.w3.org/2000/svg" xmlns:ev="http://www.w3.org/2001/xml-events" xmlns:xlink="http://www.w3.org/1999/xlink"><defs /><path d="m 661,370 c -1.65093,0 -3,1.34907 -3,3 v 0.5 c -0.01,0.67616 1.00956,0.67616 1,0 V 373 c 0,-1.11049 0.88951,-2 2,-2 1.11049,0 2,0.88951 2,2 v 0.28125 C 662.7041,373.10766 662.3655,373 662,373 c -1.09865,0 -2,0.90135 -2,2 v 0.5 c -0.01,0.67616 1.00956,0.67616 1,0 V 375 c 0,-0.55821 0.44179,-1 1,-1 0.55821,0 1,0.44179 1,1 v 2 c -0.01,0.67616 1.00956,0.67616 1,0 v -1.96484 c 4.1e-4,-0.0117 4.1e-4,-0.0234 0,-0.0352 0,-0.55821 0.44179,-1 1,-1 0.55821,0 1,0.44179 1,1 v 0.5 c -0.01,0.67616 1.00956,0.67616 1,0 V 375 c 0,-1.09865 -0.90135,-2 -2,-2 -0.3655,0 -0.7041,0.10766 -1,0.28125 v -0.24609 c 4.1e-4,-0.0117 4.1e-4,-0.0234 0,-0.0352 0,-1.11049 0.88951,-2 2,-2 1.11049,0 2,0.88951 2,2 v 0.5 c -0.01,0.67616 1.00956,0.67616 1,0 V 373 c 0,-1.65093 -1.34907,-3 -3,-3 -1.04212,0 -1.96182,0.53987 -2.5,1.35156 C 662.96182,370.53987 662.04212,370 661,370 Z m -2.5,8 c -0.67616,-0.01 -0.67616,1.00956 0,1 h 0.29297 l 2,2 H 660.5 c -0.67616,-0.01 -0.67616,1.00956 0,1 h 6 c 0.67616,0.01 0.67616,-1.00956 0,-1 h -0.29297 l 2,-2 H 668.5 c 0.67616,0.01 0.67616,-1.00956 0,-1 z" fill="#000" transform="translate(8.0,8.0) translate(-664.0,-376.0)" /><path d="m 661,370 c -1.65093,0 -3,1.34907 -3,3 v 0.5 c -0.01,0.67616 1.00956,0.67616 1,0 V 373 c 0,-1.11049 0.88951,-2 2,-2 1.11049,0 2,0.88951 2,2 v 0.28125 C 662.7041,373.10766 662.3655,373 662,373 c -1.09865,0 -2,0.90135 -2,2 v 0.5 c -0.01,0.67616 1.00956,0.67616 1,0 V 375 c 0,-0.55821 0.44179,-1 1,-1 0.55821,0 1,0.44179 1,1 v 2 c -0.01,0.67616 1.00956,0.67616 1,0 v -1.96484 c 4.1e-4,-0.0117 4.1e-4,-0.0234 0,-0.0352 0,-0.55821 0.44179,-1 1,-1 0.55821,0 1,0.44179 1,1 v 0.5 c -0.01,0.67616 1.00956,0.67616 1,0 V 375 c 0,-1.09865 -0.90135,-2 -2,-2 -0.3655,0 -0.7041,0.10766 -1,0.28125 v -0.24609 c 4.1e-4,-0.0117 4.1e-4,-0.0234 0,-0.0352 0,-1.11049 0.88951,-2 2,-2 1.11049,0 2,0.88951 2,2 v 0.5 c -0.01,0.67616 1.00956,0.67616 1,0 V 373 c 0,-1.65093 -1.34907,-3 -3,-3 -1.04212,0 -1.96182,0.53987 -2.5,1.35156 C 662.96182,370.53987 662.04212,370 661,370 Z m -2.5,8 c -0.67616,-0.01 -0.67616,1.00956 0,1 h 0.29297 l 2,2 H 660.5 c -0.67616,-0.01 -0.67616,1.00956 0,1 h 6 c 0.67616,0.01 0.67616,-1.00956 0,-1 h -0.29297 l 2,-2 H 668.5 c 0.67616,0.01 0.67616,-1.00956 0,-1 z" fill="#000" transform="translate(8.0,8.0) translate(-664.0,-376.0)" /></svg>