<?xml version="1.0" encoding="utf-8" ?>
<svg baseProfile="full" height="16" version="1.1" width="16" xmlns="http://www.w3.org/2000/svg" xmlns:ev="http://www.w3.org/2001/xml-events" xmlns:xlink="http://www.w3.org/1999/xlink"><defs /><path d="m 707.49219,336.99219 c -0.27614,0.004 -0.49651,0.23167 -0.49219,0.50781 0,0.41667 0.19292,0.77495 0.45898,1.04102 C 707.72505,338.80708 708.08333,339 708.5,339 h 0.60938 l 0.13476,0.53516 c -0.17048,0.0447 -0.32613,0.13362 -0.45117,0.25781 -0.18755,0.1875 -0.29293,0.44183 -0.29297,0.70703 h 0.98438 l 0.53124,2.12109 c 0.0555,0.22239 0.25516,0.37855 0.48438,0.37891 h 2 c 0.22922,-3.6e-4 0.42885,-0.15652 0.48438,-0.37891 L 713.51562,340.5 H 714.5 c -4e-5,-0.2652 -0.10542,-0.51953 -0.29297,-0.70703 -0.12504,-0.12419 -0.28069,-0.21313 -0.45117,-0.25781 L 713.89062,339 H 714.5 c 0.41667,0 0.77495,-0.19292 1.04102,-0.45898 C 715.80708,338.27495 716,337.91667 716,337.5 c 0.004,-0.28226 -0.22555,-0.51223 -0.50781,-0.50781 -0.27614,0.004 -0.49651,0.23167 -0.49219,0.50781 0,0.0833 -0.0571,0.22505 -0.16602,0.33398 C 714.72505,337.94292 714.58333,338 714.5,338 h -0.99219 -0.008 -4 -1 c -0.0833,0 -0.22505,-0.0571 -0.33398,-0.16602 C 708.05708,337.72505 708,337.58333 708,337.5 c 0.004,-0.28226 -0.22555,-0.51223 -0.50781,-0.50781 z M 711,344 v 2 h 1 v -2 z m -4,3 c 1.2e-4,0.7956 0.31627,1.55858 0.87891,2.12109 0.56251,0.56264 1.32549,0.87879 2.12109,0.87891 h 3 c 0.7956,-1.2e-4 1.55858,-0.31627 2.12109,-0.87891 C 715.68373,348.55858 715.99988,347.7956 716,347 h -3 -3 z" fill="#000" transform="translate(8.0,8.0) translate(-712.0,-344.0)" /><path d="m 707.49219,336.99219 c -0.27614,0.004 -0.49651,0.23167 -0.49219,0.50781 0,0.41667 0.19292,0.77495 0.45898,1.04102 C 707.72505,338.80708 708.08333,339 708.5,339 h 0.60938 l 0.13476,0.53516 c -0.17048,0.0447 -0.32613,0.13362 -0.45117,0.25781 -0.18755,0.1875 -0.29293,0.44183 -0.29297,0.70703 h 0.98438 l 0.53124,2.12109 c 0.0555,0.22239 0.25516,0.37855 0.48438,0.37891 h 2 c 0.22922,-3.6e-4 0.42885,-0.15652 0.48438,-0.37891 L 713.51562,340.5 H 714.5 c -4e-5,-0.2652 -0.10542,-0.51953 -0.29297,-0.70703 -0.12504,-0.12419 -0.28069,-0.21313 -0.45117,-0.25781 L 713.89062,339 H 714.5 c 0.41667,0 0.77495,-0.19292 1.04102,-0.45898 C 715.80708,338.27495 716,337.91667 716,337.5 c 0.004,-0.28226 -0.22555,-0.51223 -0.50781,-0.50781 -0.27614,0.004 -0.49651,0.23167 -0.49219,0.50781 0,0.0833 -0.0571,0.22505 -0.16602,0.33398 C 714.72505,337.94292 714.58333,338 714.5,338 h -0.99219 -0.008 -4 -1 c -0.0833,0 -0.22505,-0.0571 -0.33398,-0.16602 C 708.05708,337.72505 708,337.58333 708,337.5 c 0.004,-0.28226 -0.22555,-0.51223 -0.50781,-0.50781 z M 711,344 v 2 h 1 v -2 z m -4,3 c 1.2e-4,0.7956 0.31627,1.55858 0.87891,2.12109 0.56251,0.56264 1.32549,0.87879 2.12109,0.87891 h 3 c 0.7956,-1.2e-4 1.55858,-0.31627 2.12109,-0.87891 C 715.68373,348.55858 715.99988,347.7956 716,347 h -3 -3 z" fill="#000" transform="translate(8.0,8.0) translate(-712.0,-344.0)" /></svg>