<?xml version="1.0" encoding="utf-8" ?>
<svg baseProfile="full" height="16" version="1.1" width="16" xmlns="http://www.w3.org/2000/svg" xmlns:ev="http://www.w3.org/2001/xml-events" xmlns:xlink="http://www.w3.org/1999/xlink"><defs /><path d="m 546.5,435 c -0.277,0 -0.5,0.223 -0.5,0.5 v 1.5 h 0.5 c 0.277,0 0.5,0.223 0.5,0.5 v 1 c 0,0.277 -0.223,0.5 -0.5,0.5 H 546 v 2 h 0.5 c 0.277,0 0.5,0.223 0.5,0.5 v 1 c 0,0.277 -0.223,0.5 -0.5,0.5 H 546 v 1.5 c 0,0.277 0.223,0.5 0.5,0.5 h 1.5 v -0.5 c 0,-0.277 0.16963,-0.5 0.38086,-0.5 h 0.23828 c 0.21123,0 0.38086,0.223 0.38086,0.5 v 0.5 h 2 v -0.5 c 0,-0.277 0.223,-0.5 0.5,-0.5 h 1 c 0.277,0 0.5,0.223 0.5,0.5 v 0.5 h 2 v -0.5 c 0,-0.277 0.223,-0.5 0.5,-0.5 0.277,0 0.5,0.223 0.5,0.5 v 0.5 h 1.5 c 0.277,0 0.5,-0.223 0.5,-0.5 V 443 h -0.5 c -0.277,0 -0.5,-0.223 -0.5,-0.5 v -1 c 0,-0.277 0.223,-0.5 0.5,-0.5 h 0.5 v -2 h -0.5 c -0.277,0 -0.5,-0.223 -0.5,-0.5 v -1 c 0,-0.277 0.223,-0.5 0.5,-0.5 h 0.5 v -1.5 c 0,-0.277 -0.223,-0.5 -0.5,-0.5 H 556 v 0.5 c 0,0.277 -0.223,0.5 -0.5,0.5 -0.277,0 -0.5,-0.223 -0.5,-0.5 V 435 h -2 v 0.5 c 0,0.277 -0.223,0.5 -0.5,0.5 h -1 c -0.277,0 -0.5,-0.223 -0.5,-0.5 V 435 h -2 v 0.5 c 0,0.277 -0.21975,0.5 -0.49219,0.5 h -0.0156 C 548.21975,436 548,435.777 548,435.5 V 435 Z m 2,2 h 7 c 0.277,0 0.5,0.223 0.5,0.5 v 5 c 0,0.277 -0.223,0.5 -0.5,0.5 h -7 c -0.277,0 -0.5,-0.223 -0.5,-0.5 v -5 c 0,-0.277 0.223,-0.5 0.5,-0.5 z" fill="#000" transform="translate(8.0,8.0) translate(-552.0,-440.0)" /><path d="m 546.5,435 c -0.277,0 -0.5,0.223 -0.5,0.5 v 1.5 h 0.5 c 0.277,0 0.5,0.223 0.5,0.5 v 1 c 0,0.277 -0.223,0.5 -0.5,0.5 H 546 v 2 h 0.5 c 0.277,0 0.5,0.223 0.5,0.5 v 1 c 0,0.277 -0.223,0.5 -0.5,0.5 H 546 v 1.5 c 0,0.277 0.223,0.5 0.5,0.5 h 1.5 v -0.5 c 0,-0.277 0.16963,-0.5 0.38086,-0.5 h 0.23828 c 0.21123,0 0.38086,0.223 0.38086,0.5 v 0.5 h 2 v -0.5 c 0,-0.277 0.223,-0.5 0.5,-0.5 h 1 c 0.277,0 0.5,0.223 0.5,0.5 v 0.5 h 2 v -0.5 c 0,-0.277 0.223,-0.5 0.5,-0.5 0.277,0 0.5,0.223 0.5,0.5 v 0.5 h 1.5 c 0.277,0 0.5,-0.223 0.5,-0.5 V 443 h -0.5 c -0.277,0 -0.5,-0.223 -0.5,-0.5 v -1 c 0,-0.277 0.223,-0.5 0.5,-0.5 h 0.5 v -2 h -0.5 c -0.277,0 -0.5,-0.223 -0.5,-0.5 v -1 c 0,-0.277 0.223,-0.5 0.5,-0.5 h 0.5 v -1.5 c 0,-0.277 -0.223,-0.5 -0.5,-0.5 H 556 v 0.5 c 0,0.277 -0.223,0.5 -0.5,0.5 -0.277,0 -0.5,-0.223 -0.5,-0.5 V 435 h -2 v 0.5 c 0,0.277 -0.223,0.5 -0.5,0.5 h -1 c -0.277,0 -0.5,-0.223 -0.5,-0.5 V 435 h -2 v 0.5 c 0,0.277 -0.21975,0.5 -0.49219,0.5 h -0.0156 C 548.21975,436 548,435.777 548,435.5 V 435 Z m 2,2 h 7 c 0.277,0 0.5,0.223 0.5,0.5 v 5 c 0,0.277 -0.223,0.5 -0.5,0.5 h -7 c -0.277,0 -0.5,-0.223 -0.5,-0.5 v -5 c 0,-0.277 0.223,-0.5 0.5,-0.5 z" fill="#000" transform="translate(8.0,8.0) translate(-552.0,-440.0)" /></svg>