<?xml version="1.0" encoding="utf-8" ?>
<svg baseProfile="full" height="16" version="1.1" width="16" xmlns="http://www.w3.org/2000/svg" xmlns:ev="http://www.w3.org/2001/xml-events" xmlns:xlink="http://www.w3.org/1999/xlink"><defs /><path d="m 324,530 c -0.554,0 -1,0.446 -1,1 v 10 c 0,0.554 0.446,1 1,1 h 5 c 0.554,0 1,-0.446 1,-1 v -4 a 1,1 0 0 1 1,1 v 1.5 a 1.5,1.5 0 0 0 1.5,1.5 1.5,1.5 0 0 0 1.5,-1.5 V 534 a 2,2 0 0 0 -2,-2 h -1 v 1 h 1 a 1,1 0 0 1 1,1 v 5.5 a 0.5,0.5 0 0 1 -0.5,0.5 0.5,0.5 0 0 1 -0.5,-0.5 V 538 a 2,2 0 0 0 -2,-2 v -5 c 0,-0.554 -0.446,-1 -1,-1 z m 0,2 h 5 v 3 h -5 z" fill="#000" transform="translate(8.0,8.0) translate(-328.0,-536.0)" /><path d="m 324,530 c -0.554,0 -1,0.446 -1,1 v 10 c 0,0.554 0.446,1 1,1 h 5 c 0.554,0 1,-0.446 1,-1 v -4 a 1,1 0 0 1 1,1 v 1.5 a 1.5,1.5 0 0 0 1.5,1.5 1.5,1.5 0 0 0 1.5,-1.5 V 534 a 2,2 0 0 0 -2,-2 h -1 v 1 h 1 a 1,1 0 0 1 1,1 v 5.5 a 0.5,0.5 0 0 1 -0.5,0.5 0.5,0.5 0 0 1 -0.5,-0.5 V 538 a 2,2 0 0 0 -2,-2 v -5 c 0,-0.554 -0.446,-1 -1,-1 z m 0,2 h 5 v 3 h -5 z" fill="#000" transform="translate(8.0,8.0) translate(-328.0,-536.0)" /></svg>