<?xml version="1.0" encoding="utf-8" ?>
<svg baseProfile="full" height="16" version="1.1" width="16" xmlns="http://www.w3.org/2000/svg" xmlns:ev="http://www.w3.org/2001/xml-events" xmlns:xlink="http://www.w3.org/1999/xlink"><defs /><path d="m 227,404 c -0.554,0 -1,0.446 -1,1 v 8 h 1 v -8 h 10 v 8 h 1 v -8 c 0,-0.554 -0.446,-1 -1,-1 z m 1,2 v 2 h 8 v -2 z m 0,3 v 2 h 8 v -2 z" fill="#000" transform="translate(8.0,8.0) translate(-232.0,-408.0)" /><path d="m 227,404 c -0.554,0 -1,0.446 -1,1 v 8 h 1 v -8 h 10 v 8 h 1 v -8 c 0,-0.554 -0.446,-1 -1,-1 z m 1,2 v 2 h 8 v -2 z m 0,3 v 2 h 8 v -2 z" fill="#000" transform="translate(8.0,8.0) translate(-232.0,-408.0)" /></svg>