<?xml version="1.0" encoding="utf-8" ?>
<svg baseProfile="full" height="16" version="1.1" width="16" xmlns="http://www.w3.org/2000/svg" xmlns:ev="http://www.w3.org/2001/xml-events" xmlns:xlink="http://www.w3.org/1999/xlink"><defs /><path d="m 210.34375,180 c -0.0741,0.0356 -0.13911,0.0898 -0.1875,0.15625 l -1,1 c -0.25698,0.15718 -0.30568,0.56716 -0.0927,0.78017 0.21301,0.21301 0.62299,0.16431 0.78017,-0.0927 L 210.6875,181 h 10.625 l 0.84375,0.84375 c 0.15718,0.25698 0.56716,0.30568 0.78017,0.0927 0.21301,-0.21301 0.16431,-0.62299 -0.0927,-0.78017 l -1,-1 C 221.75512,180.06238 221.62896,180.00509 221.5,180 h -11 c -0.0312,-0.003 -0.0626,-0.003 -0.0937,0 -0.0208,-0.001 -0.0417,-0.001 -0.0625,0 z m 4.56245,3 c -0.19329,0.0192 -0.38045,0.0963 -0.53125,0.21875 L 212.15625,185 H 211 c -0.52358,5e-5 -0.99995,0.47642 -1,1 v 1 c 5e-5,0.52358 0.47642,0.99995 1,1 0,-1.108 0.892,-2 2,-2 1.108,0 2,0.892 2,2 h 2 c 0,-1.108 0.892,-2 2,-2 1.108,0 2,0.892 2,2 0.52358,-5e-5 0.99995,-0.47642 1,-1 v -1 c -5e-5,-0.52358 -0.47642,-0.99995 -1,-1 h -0.5625 l -1.71875,-1.71875 C 218.52897,183.09755 218.26406,182.99388 218,183 h -3 c -0.0312,-0.001 -0.0625,-0.001 -0.0937,0 z M 213,187 c -0.554,0 -1,0.446 -1,1 0,0.554 0.446,1 1,1 0.554,0 1,-0.446 1,-1 0,-0.554 -0.446,-1 -1,-1 z m 6,0 c -0.554,0 -1,0.446 -1,1 0,0.554 0.446,1 1,1 0.554,0 1,-0.446 1,-1 0,-0.554 -0.446,-1 -1,-1 z" fill="#000" transform="translate(8.0,8.0) translate(-216.0,-184.0)" /><path d="m 210.34375,180 c -0.0741,0.0356 -0.13911,0.0898 -0.1875,0.15625 l -1,1 c -0.25698,0.15718 -0.30568,0.56716 -0.0927,0.78017 0.21301,0.21301 0.62299,0.16431 0.78017,-0.0927 L 210.6875,181 h 10.625 l 0.84375,0.84375 c 0.15718,0.25698 0.56716,0.30568 0.78017,0.0927 0.21301,-0.21301 0.16431,-0.62299 -0.0927,-0.78017 l -1,-1 C 221.75512,180.06238 221.62896,180.00509 221.5,180 h -11 c -0.0312,-0.003 -0.0626,-0.003 -0.0937,0 -0.0208,-0.001 -0.0417,-0.001 -0.0625,0 z m 4.56245,3 c -0.19329,0.0192 -0.38045,0.0963 -0.53125,0.21875 L 212.15625,185 H 211 c -0.52358,5e-5 -0.99995,0.47642 -1,1 v 1 c 5e-5,0.52358 0.47642,0.99995 1,1 0,-1.108 0.892,-2 2,-2 1.108,0 2,0.892 2,2 h 2 c 0,-1.108 0.892,-2 2,-2 1.108,0 2,0.892 2,2 0.52358,-5e-5 0.99995,-0.47642 1,-1 v -1 c -5e-5,-0.52358 -0.47642,-0.99995 -1,-1 h -0.5625 l -1.71875,-1.71875 C 218.52897,183.09755 218.26406,182.99388 218,183 h -3 c -0.0312,-0.001 -0.0625,-0.001 -0.0937,0 z M 213,187 c -0.554,0 -1,0.446 -1,1 0,0.554 0.446,1 1,1 0.554,0 1,-0.446 1,-1 0,-0.554 -0.446,-1 -1,-1 z m 6,0 c -0.554,0 -1,0.446 -1,1 0,0.554 0.446,1 1,1 0.554,0 1,-0.446 1,-1 0,-0.554 -0.446,-1 -1,-1 z" fill="#000" transform="translate(8.0,8.0) translate(-216.0,-184.0)" /></svg>