<?xml version="1.0" encoding="utf-8" ?>
<svg baseProfile="full" height="16" version="1.1" width="16" xmlns="http://www.w3.org/2000/svg" xmlns:ev="http://www.w3.org/2001/xml-events" xmlns:xlink="http://www.w3.org/1999/xlink"><defs /><path d="m 167,403 c -3,0 -2,2 -5,2 v 7.5 c 0,0.277 0.223,0.5 0.5,0.5 h 4 c 0.277,0 0.5,-0.223 0.5,-0.5 z m 1,0 v 9.5 c 0,0.277 0.223,0.5 0.5,0.5 h 4 c 0.277,0 0.5,-0.223 0.5,-0.5 V 405 c -3,0 -2,-2 -5,-2 z m -2.5,4 c 0.277,0 0.5,0.223 0.5,0.5 v 1 c 0,0.277 -0.223,0.5 -0.5,0.5 -0.277,0 -0.5,-0.223 -0.5,-0.5 v -1 c 0,-0.277 0.223,-0.5 0.5,-0.5 z m 4,0 c 0.277,0 0.5,0.223 0.5,0.5 v 1 c 0,0.277 -0.223,0.5 -0.5,0.5 -0.277,0 -0.5,-0.223 -0.5,-0.5 v -1 c 0,-0.277 0.223,-0.5 0.5,-0.5 z" fill="#000" transform="translate(8.0,8.0) translate(-168.0,-408.0)" /><path d="m 167,403 c -3,0 -2,2 -5,2 v 7.5 c 0,0.277 0.223,0.5 0.5,0.5 h 4 c 0.277,0 0.5,-0.223 0.5,-0.5 z m 1,0 v 9.5 c 0,0.277 0.223,0.5 0.5,0.5 h 4 c 0.277,0 0.5,-0.223 0.5,-0.5 V 405 c -3,0 -2,-2 -5,-2 z m -2.5,4 c 0.277,0 0.5,0.223 0.5,0.5 v 1 c 0,0.277 -0.223,0.5 -0.5,0.5 -0.277,0 -0.5,-0.223 -0.5,-0.5 v -1 c 0,-0.277 0.223,-0.5 0.5,-0.5 z m 4,0 c 0.277,0 0.5,0.223 0.5,0.5 v 1 c 0,0.277 -0.223,0.5 -0.5,0.5 -0.277,0 -0.5,-0.223 -0.5,-0.5 v -1 c 0,-0.277 0.223,-0.5 0.5,-0.5 z" fill="#000" transform="translate(8.0,8.0) translate(-168.0,-408.0)" /></svg>