<?xml version="1.0" encoding="utf-8" ?>
<svg baseProfile="full" height="16" version="1.1" width="16" xmlns="http://www.w3.org/2000/svg" xmlns:ev="http://www.w3.org/2001/xml-events" xmlns:xlink="http://www.w3.org/1999/xlink"><defs /><path d="m 266.46875,466 c -0.12781,0 -0.24582,0.0583 -0.34375,0.15625 l -4.25,4.25 c -0.19587,0.19587 -0.19587,0.52288 0,0.71875 l 1.40625,1.40625 c 0.19587,0.19587 0.52288,0.19587 0.71875,0 l 1.75,-1.78125 3.90625,3.90625 c 0.19587,0.19587 0.49163,0.19587 0.6875,0 0.19587,-0.19587 0.19587,-0.52288 0,-0.71875 l -3.875,-3.875 1.75,-1.78125 c 0.19587,-0.19587 0.19587,-0.52288 0,-0.71875 l -1.40625,-1.40625 C 266.71457,466.05832 266.59656,466 266.46875,466 Z M 259,475 c -0.554,0 -1,0.446 -1,1 v 1 h 7 v -1 c 0,-0.554 -0.446,-1 -1,-1 z" fill="#000" transform="translate(8.0,8.0) translate(-264.0,-472.0)" /><path d="m 266.46875,466 c -0.12781,0 -0.24582,0.0583 -0.34375,0.15625 l -4.25,4.25 c -0.19587,0.19587 -0.19587,0.52288 0,0.71875 l 1.40625,1.40625 c 0.19587,0.19587 0.52288,0.19587 0.71875,0 l 1.75,-1.78125 3.90625,3.90625 c 0.19587,0.19587 0.49163,0.19587 0.6875,0 0.19587,-0.19587 0.19587,-0.52288 0,-0.71875 l -3.875,-3.875 1.75,-1.78125 c 0.19587,-0.19587 0.19587,-0.52288 0,-0.71875 l -1.40625,-1.40625 C 266.71457,466.05832 266.59656,466 266.46875,466 Z M 259,475 c -0.554,0 -1,0.446 -1,1 v 1 h 7 v -1 c 0,-0.554 -0.446,-1 -1,-1 z" fill="#000" transform="translate(8.0,8.0) translate(-264.0,-472.0)" /></svg>