<?xml version="1.0" encoding="utf-8" ?>
<svg baseProfile="full" height="16" version="1.1" width="16" xmlns="http://www.w3.org/2000/svg" xmlns:ev="http://www.w3.org/2001/xml-events" xmlns:xlink="http://www.w3.org/1999/xlink"><defs /><path d="m 371.5,51 c -0.277,0 -0.5,0.223 -0.5,0.5 v 8 c 0,0.831 0.669,1.5 1.5,1.5 h 3.5 1.5 2 c 0.25915,0 0.51829,-0.0674 0.75,-0.201172 C 380.71341,60.53128 381,60.035096 381,59.5 v -4 C 381,55.223 380.777,55 380.5,55 H 380 v 2 2.5 c 0,0.179434 -0.0946,0.343877 -0.25,0.433594 -0.15539,0.08972 -0.34461,0.08972 -0.5,0 C 379.09461,59.843877 379,59.679434 379,59.5 v -8 c 0,-0.277 -0.223,-0.5 -0.5,-0.5 z m 0.5,1 h 2 v 3 h -2 z m 0.5,4 h 4 c 0.277,0 0.5,0.223 0.5,0.5 0,0.277 -0.223,0.5 -0.5,0.5 h -4 c -0.277,0 -0.5,-0.223 -0.5,-0.5 0,-0.277 0.223,-0.5 0.5,-0.5 z m 0,2 h 3 c 0.277,0 0.5,0.223 0.5,0.5 0,0.277 -0.223,0.5 -0.5,0.5 h -3 c -0.277,0 -0.5,-0.223 -0.5,-0.5 0,-0.277 0.223,-0.5 0.5,-0.5 z" fill="#000" transform="translate(8.0,8.0) translate(-376.0,-56.0)" /><path d="m 371.5,51 c -0.277,0 -0.5,0.223 -0.5,0.5 v 8 c 0,0.831 0.669,1.5 1.5,1.5 h 3.5 1.5 2 c 0.25915,0 0.51829,-0.0674 0.75,-0.201172 C 380.71341,60.53128 381,60.035096 381,59.5 v -4 C 381,55.223 380.777,55 380.5,55 H 380 v 2 2.5 c 0,0.179434 -0.0946,0.343877 -0.25,0.433594 -0.15539,0.08972 -0.34461,0.08972 -0.5,0 C 379.09461,59.843877 379,59.679434 379,59.5 v -8 c 0,-0.277 -0.223,-0.5 -0.5,-0.5 z m 0.5,1 h 2 v 3 h -2 z m 0.5,4 h 4 c 0.277,0 0.5,0.223 0.5,0.5 0,0.277 -0.223,0.5 -0.5,0.5 h -4 c -0.277,0 -0.5,-0.223 -0.5,-0.5 0,-0.277 0.223,-0.5 0.5,-0.5 z m 0,2 h 3 c 0.277,0 0.5,0.223 0.5,0.5 0,0.277 -0.223,0.5 -0.5,0.5 h -3 c -0.277,0 -0.5,-0.223 -0.5,-0.5 0,-0.277 0.223,-0.5 0.5,-0.5 z" fill="#000" transform="translate(8.0,8.0) translate(-376.0,-56.0)" /></svg>