<?xml version="1.0" encoding="utf-8" ?>
<svg baseProfile="full" height="16" version="1.1" width="16" xmlns="http://www.w3.org/2000/svg" xmlns:ev="http://www.w3.org/2001/xml-events" xmlns:xlink="http://www.w3.org/1999/xlink"><defs /><path d="m 565.875,368.90625 c -0.10225,0.005 -0.21359,0.009 -0.3125,0.0312 -0.39565,0.0901 -0.75357,0.31607 -1.03125,0.59375 -0.55535,0.55535 -0.87561,1.46774 -0.40625,2.25 0.42247,0.70412 1.36028,1.10981 2.875,1.1875 v 0.0312 h 1 v -0.0312 c 1.51472,-0.0777 2.45253,-0.48338 2.875,-1.1875 0.46936,-0.78226 0.1491,-1.69465 -0.40625,-2.25 -0.27768,-0.27768 -0.6356,-0.50367 -1.03125,-0.59375 -0.39565,-0.0901 -0.82762,-0.0472 -1.21875,0.1875 -0.29335,0.17601 -0.52743,0.42732 -0.71875,0.78125 -0.19132,-0.35393 -0.4254,-0.60524 -0.71875,-0.78125 -0.29335,-0.17601 -0.59951,-0.23369 -0.90625,-0.21875 z m -0.0625,0.96875 c 0.0667,-0.0121 0.12277,-0.008 0.1875,0 0.0863,0.0103 0.17213,0.047 0.25,0.0937 0.26033,0.1562 0.55054,0.8064 0.65625,1.9375 -1.1311,-0.10571 -1.7813,-0.39592 -1.9375,-0.65625 -0.18689,-0.31149 -0.0696,-0.7116 0.25,-1.03125 0.17981,-0.1798 0.3938,-0.3076 0.59375,-0.34375 z m 3.1875,0 c 0.25892,-0.0309 0.54151,0.10401 0.78125,0.34375 0.31965,0.31965 0.43689,0.71976 0.25,1.03125 -0.1562,0.26033 -0.8064,0.55054 -1.9375,0.65625 0.10571,-1.1311 0.39592,-1.7813 0.65625,-1.9375 0.0779,-0.0467 0.16369,-0.0834 0.25,-0.0937 z M 565,374 c -1.108,0 -2,0.892 -2,2 v 2 h 4 v -4 z m 3,0 v 4 h 4 v -2 c 0,-1.108 -0.892,-2 -2,-2 z m -5,5 v 2 c 0,1.108 0.892,2 2,2 h 2 v -4 z m 5,0 v 4 h 2 c 1.108,0 2,-0.892 2,-2 v -2 z" fill="#000" transform="translate(8.0,8.0) translate(-568.0,-376.0)" /><path d="m 565.875,368.90625 c -0.10225,0.005 -0.21359,0.009 -0.3125,0.0312 -0.39565,0.0901 -0.75357,0.31607 -1.03125,0.59375 -0.55535,0.55535 -0.87561,1.46774 -0.40625,2.25 0.42247,0.70412 1.36028,1.10981 2.875,1.1875 v 0.0312 h 1 v -0.0312 c 1.51472,-0.0777 2.45253,-0.48338 2.875,-1.1875 0.46936,-0.78226 0.1491,-1.69465 -0.40625,-2.25 -0.27768,-0.27768 -0.6356,-0.50367 -1.03125,-0.59375 -0.39565,-0.0901 -0.82762,-0.0472 -1.21875,0.1875 -0.29335,0.17601 -0.52743,0.42732 -0.71875,0.78125 -0.19132,-0.35393 -0.4254,-0.60524 -0.71875,-0.78125 -0.29335,-0.17601 -0.59951,-0.23369 -0.90625,-0.21875 z m -0.0625,0.96875 c 0.0667,-0.0121 0.12277,-0.008 0.1875,0 0.0863,0.0103 0.17213,0.047 0.25,0.0937 0.26033,0.1562 0.55054,0.8064 0.65625,1.9375 -1.1311,-0.10571 -1.7813,-0.39592 -1.9375,-0.65625 -0.18689,-0.31149 -0.0696,-0.7116 0.25,-1.03125 0.17981,-0.1798 0.3938,-0.3076 0.59375,-0.34375 z m 3.1875,0 c 0.25892,-0.0309 0.54151,0.10401 0.78125,0.34375 0.31965,0.31965 0.43689,0.71976 0.25,1.03125 -0.1562,0.26033 -0.8064,0.55054 -1.9375,0.65625 0.10571,-1.1311 0.39592,-1.7813 0.65625,-1.9375 0.0779,-0.0467 0.16369,-0.0834 0.25,-0.0937 z M 565,374 c -1.108,0 -2,0.892 -2,2 v 2 h 4 v -4 z m 3,0 v 4 h 4 v -2 c 0,-1.108 -0.892,-2 -2,-2 z m -5,5 v 2 c 0,1.108 0.892,2 2,2 h 2 v -4 z m 5,0 v 4 h 2 c 1.108,0 2,-0.892 2,-2 v -2 z" fill="#000" transform="translate(8.0,8.0) translate(-568.0,-376.0)" /></svg>