<?xml version="1.0" encoding="utf-8" ?>
<svg baseProfile="full" height="16" version="1.1" width="16" xmlns="http://www.w3.org/2000/svg" xmlns:ev="http://www.w3.org/2001/xml-events" xmlns:xlink="http://www.w3.org/1999/xlink"><defs /><path d="m 259,116 c -0.58333,0 -1.11066,0.15363 -1.47852,0.52148 C 257.15363,116.88934 257,117.41667 257,118 v 2.5 a 0.50005,0.50005 0 0 0 0.5,0.5 h 0.55078 c -0.0332,0.16176 -0.0508,0.32881 -0.0508,0.5 0,1.37479 1.12521,2.5 2.5,2.5 1.37479,0 2.5,-1.12521 2.5,-2.5 0,-0.28206 0.21794,-0.5 0.5,-0.5 0.28206,0 0.5,0.21794 0.5,0.5 0,1.37479 1.12521,2.5 2.5,2.5 1.37479,0 2.5,-1.12521 2.5,-2.5 0,-0.17119 -0.0176,-0.33824 -0.0508,-0.5 H 269.5 a 0.50005,0.50005 0 0 0 0.5,-0.5 V 118 c 0,-0.58333 -0.15363,-1.11066 -0.52148,-1.47852 C 269.11066,116.15363 268.58333,116 268,116 a 0.5,0.5 0 0 0 -0.5,0.5 0.5,0.5 0 0 0 0.5,0.5 c 0.41667,0 0.63934,0.0964 0.77148,0.22852 C 268.90363,117.36066 269,117.58333 269,118 v 2 h -0.5 a 0.5,0.5 0 0 0 -0.002,0 c -0.45728,-0.60687 -1.18429,-1 -1.99805,-1 -0.9226,0 -1.73285,0.50701 -2.16602,1.25586 C 264.09486,120.09432 263.80747,120 263.5,120 c -0.30747,0 -0.59486,0.0943 -0.83398,0.25586 C 262.23285,119.50701 261.4226,119 260.5,119 c -0.81376,0 -1.54077,0.39313 -1.99805,1 a 0.5,0.5 0 0 0 -0.002,0 H 258 v -2 c 0,-0.41667 0.0964,-0.63934 0.22852,-0.77148 C 258.36066,117.09637 258.58333,117 259,117 a 0.5,0.5 0 0 0 0.5,-0.5 0.5,0.5 0 0 0 -0.5,-0.5 z m 1.5,4 c 0.83435,0 1.5,0.66565 1.5,1.5 0,0.83435 -0.66565,1.5 -1.5,1.5 -0.83435,0 -1.5,-0.66565 -1.5,-1.5 0,-0.83435 0.66565,-1.5 1.5,-1.5 z m 6,0 c 0.83435,0 1.5,0.66565 1.5,1.5 0,0.83435 -0.66565,1.5 -1.5,1.5 -0.83435,0 -1.5,-0.66565 -1.5,-1.5 0,-0.83435 0.66565,-1.5 1.5,-1.5 z" fill="#000" transform="translate(8.0,8.0) translate(-264.0,-120.0)" /><path d="m 259,116 c -0.58333,0 -1.11066,0.15363 -1.47852,0.52148 C 257.15363,116.88934 257,117.41667 257,118 v 2.5 a 0.50005,0.50005 0 0 0 0.5,0.5 h 0.55078 c -0.0332,0.16176 -0.0508,0.32881 -0.0508,0.5 0,1.37479 1.12521,2.5 2.5,2.5 1.37479,0 2.5,-1.12521 2.5,-2.5 0,-0.28206 0.21794,-0.5 0.5,-0.5 0.28206,0 0.5,0.21794 0.5,0.5 0,1.37479 1.12521,2.5 2.5,2.5 1.37479,0 2.5,-1.12521 2.5,-2.5 0,-0.17119 -0.0176,-0.33824 -0.0508,-0.5 H 269.5 a 0.50005,0.50005 0 0 0 0.5,-0.5 V 118 c 0,-0.58333 -0.15363,-1.11066 -0.52148,-1.47852 C 269.11066,116.15363 268.58333,116 268,116 a 0.5,0.5 0 0 0 -0.5,0.5 0.5,0.5 0 0 0 0.5,0.5 c 0.41667,0 0.63934,0.0964 0.77148,0.22852 C 268.90363,117.36066 269,117.58333 269,118 v 2 h -0.5 a 0.5,0.5 0 0 0 -0.002,0 c -0.45728,-0.60687 -1.18429,-1 -1.99805,-1 -0.9226,0 -1.73285,0.50701 -2.16602,1.25586 C 264.09486,120.09432 263.80747,120 263.5,120 c -0.30747,0 -0.59486,0.0943 -0.83398,0.25586 C 262.23285,119.50701 261.4226,119 260.5,119 c -0.81376,0 -1.54077,0.39313 -1.99805,1 a 0.5,0.5 0 0 0 -0.002,0 H 258 v -2 c 0,-0.41667 0.0964,-0.63934 0.22852,-0.77148 C 258.36066,117.09637 258.58333,117 259,117 a 0.5,0.5 0 0 0 0.5,-0.5 0.5,0.5 0 0 0 -0.5,-0.5 z m 1.5,4 c 0.83435,0 1.5,0.66565 1.5,1.5 0,0.83435 -0.66565,1.5 -1.5,1.5 -0.83435,0 -1.5,-0.66565 -1.5,-1.5 0,-0.83435 0.66565,-1.5 1.5,-1.5 z m 6,0 c 0.83435,0 1.5,0.66565 1.5,1.5 0,0.83435 -0.66565,1.5 -1.5,1.5 -0.83435,0 -1.5,-0.66565 -1.5,-1.5 0,-0.83435 0.66565,-1.5 1.5,-1.5 z" fill="#000" transform="translate(8.0,8.0) translate(-264.0,-120.0)" /></svg>