<?xml version="1.0" encoding="utf-8" ?>
<svg baseProfile="full" height="16" version="1.1" width="16" xmlns="http://www.w3.org/2000/svg" xmlns:ev="http://www.w3.org/2001/xml-events" xmlns:xlink="http://www.w3.org/1999/xlink"><defs /><path d="M 534.46875,306 C 534.20906,306 534,306.223 534,306.5 v 2 c 0,0.277 0.20906,0.5 0.46875,0.5 h 2.0625 C 536.79094,309 537,308.777 537,308.5 v -2 c 0,-0.277 -0.20906,-0.5 -0.46875,-0.5 z m 4,4 C 538.20906,310 538,310.223 538,310.5 v 2 c 0,0.277 0.20906,0.5 0.46875,0.5 h 2.0625 C 540.79094,313 541,312.777 541,312.5 v -2 c 0,-0.277 -0.20906,-0.5 -0.46875,-0.5 z m -8,4 C 530.20906,314 530,314.223 530,314.5 v 2 c 0,0.277 0.20906,0.5 0.46875,0.5 h 2.0625 C 532.79094,317 533,316.777 533,316.5 v -2 c 0,-0.277 -0.20906,-0.5 -0.46875,-0.5 z m 4,0 C 534.20906,314 534,314.223 534,314.5 v 2 c 0,0.277 0.20906,0.5 0.46875,0.5 h 2.0625 C 536.79094,317 537,316.777 537,316.5 v -2 c 0,-0.277 -0.20906,-0.5 -0.46875,-0.5 z m 4,0 C 538.20906,314 538,314.223 538,314.5 v 2 c 0,0.277 0.20906,0.5 0.46875,0.5 h 2.0625 C 540.79094,317 541,316.777 541,316.5 v -2 c 0,-0.277 -0.20906,-0.5 -0.46875,-0.5 z" fill="#000" transform="translate(8.0,8.0) translate(-536.0,-312.0)" /><path d="M 534.46875,306 C 534.20906,306 534,306.223 534,306.5 v 2 c 0,0.277 0.20906,0.5 0.46875,0.5 h 2.0625 C 536.79094,309 537,308.777 537,308.5 v -2 c 0,-0.277 -0.20906,-0.5 -0.46875,-0.5 z m 4,4 C 538.20906,310 538,310.223 538,310.5 v 2 c 0,0.277 0.20906,0.5 0.46875,0.5 h 2.0625 C 540.79094,313 541,312.777 541,312.5 v -2 c 0,-0.277 -0.20906,-0.5 -0.46875,-0.5 z m -8,4 C 530.20906,314 530,314.223 530,314.5 v 2 c 0,0.277 0.20906,0.5 0.46875,0.5 h 2.0625 C 532.79094,317 533,316.777 533,316.5 v -2 c 0,-0.277 -0.20906,-0.5 -0.46875,-0.5 z m 4,0 C 534.20906,314 534,314.223 534,314.5 v 2 c 0,0.277 0.20906,0.5 0.46875,0.5 h 2.0625 C 536.79094,317 537,316.777 537,316.5 v -2 c 0,-0.277 -0.20906,-0.5 -0.46875,-0.5 z m 4,0 C 538.20906,314 538,314.223 538,314.5 v 2 c 0,0.277 0.20906,0.5 0.46875,0.5 h 2.0625 C 540.79094,317 541,316.777 541,316.5 v -2 c 0,-0.277 -0.20906,-0.5 -0.46875,-0.5 z" fill="#000" transform="translate(8.0,8.0) translate(-536.0,-312.0)" /></svg>