<?xml version="1.0" encoding="utf-8" ?>
<svg baseProfile="full" height="16" version="1.1" width="16" xmlns="http://www.w3.org/2000/svg" xmlns:ev="http://www.w3.org/2001/xml-events" xmlns:xlink="http://www.w3.org/1999/xlink"><defs /><path d="m 621,178 v 4 h 1 v -4 z m -9,4 a 2,2 0 0 0 -2,2 2,2 0 0 0 2,2 2,2 0 0 0 2,-2 2,2 0 0 0 -2,-2 z m 9,1 a 1,1 0 0 1 -1,1 h -2.5 a 1.50015,1.50015 0 0 0 -1.5,1.5 v 1 a 1.50015,1.50015 0 0 0 1.5,1.5 h 2 a 1.50015,1.50015 0 0 0 1.06055,-0.43945 l 1,-1 A 1.50015,1.50015 0 0 0 622,185.5 a 1.50015,1.50015 0 0 0 0,-0.0215 V 183 Z m -10.5,4 c -0.277,0 -0.5,0.223 -0.5,0.5 0,0.277 0.223,0.5 0.5,0.5 h 0.5 l 0.5,2 h 1 l 0.5,-2 h 0.5 c 0.277,0 0.5,-0.223 0.5,-0.5 0,-0.277 -0.223,-0.5 -0.5,-0.5 z" fill="#000" transform="translate(8.0,8.0) translate(-616.0,-184.0)" /><path d="m 621,178 v 4 h 1 v -4 z m -9,4 a 2,2 0 0 0 -2,2 2,2 0 0 0 2,2 2,2 0 0 0 2,-2 2,2 0 0 0 -2,-2 z m 9,1 a 1,1 0 0 1 -1,1 h -2.5 a 1.50015,1.50015 0 0 0 -1.5,1.5 v 1 a 1.50015,1.50015 0 0 0 1.5,1.5 h 2 a 1.50015,1.50015 0 0 0 1.06055,-0.43945 l 1,-1 A 1.50015,1.50015 0 0 0 622,185.5 a 1.50015,1.50015 0 0 0 0,-0.0215 V 183 Z m -10.5,4 c -0.277,0 -0.5,0.223 -0.5,0.5 0,0.277 0.223,0.5 0.5,0.5 h 0.5 l 0.5,2 h 1 l 0.5,-2 h 0.5 c 0.277,0 0.5,-0.223 0.5,-0.5 0,-0.277 -0.223,-0.5 -0.5,-0.5 z" fill="#000" transform="translate(8.0,8.0) translate(-616.0,-184.0)" /></svg>