<?xml version="1.0" encoding="utf-8" ?>
<svg baseProfile="full" height="16" version="1.1" width="16" xmlns="http://www.w3.org/2000/svg" xmlns:ev="http://www.w3.org/2001/xml-events" xmlns:xlink="http://www.w3.org/1999/xlink"><defs /><path d="M 648,178.02148 A 2.9789882,2.9789882 0 0 0 645.02148,181 2.9789882,2.9789882 0 0 0 648,183.97852 2.9789882,2.9789882 0 0 0 650.97852,181 2.9789882,2.9789882 0 0 0 648,178.02148 Z M 645.55078,185 c -0.277,0 -0.5,0.223 -0.5,0.5 0,0.277 0.223,0.5 0.5,0.5 H 646 l 1,1 0.5,3 h 1 l 0.5,-3 1,-1 h 0.44922 c 0.277,0 0.5,-0.223 0.5,-0.5 0,-0.277 -0.223,-0.5 -0.5,-0.5 z" fill="#000" transform="translate(8.0,8.0) translate(-648.0,-184.0)" /><path d="M 648,178.02148 A 2.9789882,2.9789882 0 0 0 645.02148,181 2.9789882,2.9789882 0 0 0 648,183.97852 2.9789882,2.9789882 0 0 0 650.97852,181 2.9789882,2.9789882 0 0 0 648,178.02148 Z M 645.55078,185 c -0.277,0 -0.5,0.223 -0.5,0.5 0,0.277 0.223,0.5 0.5,0.5 H 646 l 1,1 0.5,3 h 1 l 0.5,-3 1,-1 h 0.44922 c 0.277,0 0.5,-0.223 0.5,-0.5 0,-0.277 -0.223,-0.5 -0.5,-0.5 z" fill="#000" transform="translate(8.0,8.0) translate(-648.0,-184.0)" /></svg>