<?xml version="1.0" encoding="utf-8" ?>
<svg baseProfile="full" height="16" version="1.1" width="16" xmlns="http://www.w3.org/2000/svg" xmlns:ev="http://www.w3.org/2001/xml-events" xmlns:xlink="http://www.w3.org/1999/xlink"><defs /><path d="m 627.5,178 c -0.277,0 -0.5,0.223 -0.5,0.5 v 4 7.44922 h 1 V 182.5 l 5,-2 -5,-2 c 0,-0.277 -0.223,-0.5 -0.5,-0.5 z m 6,9.05078 a 3.5,1.475 0 0 0 -3.5,1.47461 3.5,1.475 0 0 0 3.5,1.47461 3.5,1.475 0 0 0 3.5,-1.47461 3.5,1.475 0 0 0 -3.5,-1.47461 z" fill="#000" transform="translate(8.0,8.0) translate(-632.0,-184.0)" /><path d="m 627.5,178 c -0.277,0 -0.5,0.223 -0.5,0.5 v 4 7.44922 h 1 V 182.5 l 5,-2 -5,-2 c 0,-0.277 -0.223,-0.5 -0.5,-0.5 z m 6,9.05078 a 3.5,1.475 0 0 0 -3.5,1.47461 3.5,1.475 0 0 0 3.5,1.47461 3.5,1.475 0 0 0 3.5,-1.47461 3.5,1.475 0 0 0 -3.5,-1.47461 z" fill="#000" transform="translate(8.0,8.0) translate(-632.0,-184.0)" /></svg>