<?xml version="1.0" encoding="utf-8" ?>
<svg baseProfile="full" height="16" version="1.1" width="16" xmlns="http://www.w3.org/2000/svg" xmlns:ev="http://www.w3.org/2001/xml-events" xmlns:xlink="http://www.w3.org/1999/xlink"><defs /><path d="m 679,113 v 3.04102 A 3.5,3.5 0 0 0 676.04102,119 h -0.49024 c -0.277,0 -0.5,0.20906 -0.5,0.46875 v 0.0625 c 0,0.25969 0.223,0.46875 0.5,0.46875 h 7.89844 c 0.277,0 0.5,-0.20906 0.5,-0.46875 v -0.0625 c 0,-0.25969 -0.223,-0.46875 -0.5,-0.46875 h -0.48828 A 3.5,3.5 0 0 0 680,116.03906 V 115 h 3 v -2 h -3 z m -3,8 0.0449,4 h -0.49414 c -0.277,0 -0.5,0.20906 -0.5,0.46875 v 0.0625 c 0,0.25969 0.223,0.46875 0.5,0.46875 h 7.89844 c 0.277,0 0.5,-0.20906 0.5,-0.46875 v -0.0625 c 0,-0.25969 -0.223,-0.46875 -0.5,-0.46875 h -0.50586 l -0.0449,-4 z m 1.5,1 c 0.277,0 0.5,0.223 0.5,0.5 v 2.5 h -1 v -2.5 c 0,-0.277 0.223,-0.5 0.5,-0.5 z m 2,0 c 0.277,0 0.5,0.223 0.5,0.5 v 2.5 h -1 v -2.5 c 0,-0.277 0.223,-0.5 0.5,-0.5 z m 2,0 c 0.277,0 0.5,0.223 0.5,0.5 v 2.5 h -1 v -2.5 c 0,-0.277 0.223,-0.5 0.5,-0.5 z" fill="#000" transform="translate(8.0,8.0) translate(-680.0,-120.0)" /><path d="m 679,113 v 3.04102 A 3.5,3.5 0 0 0 676.04102,119 h -0.49024 c -0.277,0 -0.5,0.20906 -0.5,0.46875 v 0.0625 c 0,0.25969 0.223,0.46875 0.5,0.46875 h 7.89844 c 0.277,0 0.5,-0.20906 0.5,-0.46875 v -0.0625 c 0,-0.25969 -0.223,-0.46875 -0.5,-0.46875 h -0.48828 A 3.5,3.5 0 0 0 680,116.03906 V 115 h 3 v -2 h -3 z m -3,8 0.0449,4 h -0.49414 c -0.277,0 -0.5,0.20906 -0.5,0.46875 v 0.0625 c 0,0.25969 0.223,0.46875 0.5,0.46875 h 7.89844 c 0.277,0 0.5,-0.20906 0.5,-0.46875 v -0.0625 c 0,-0.25969 -0.223,-0.46875 -0.5,-0.46875 h -0.50586 l -0.0449,-4 z m 1.5,1 c 0.277,0 0.5,0.223 0.5,0.5 v 2.5 h -1 v -2.5 c 0,-0.277 0.223,-0.5 0.5,-0.5 z m 2,0 c 0.277,0 0.5,0.223 0.5,0.5 v 2.5 h -1 v -2.5 c 0,-0.277 0.223,-0.5 0.5,-0.5 z m 2,0 c 0.277,0 0.5,0.223 0.5,0.5 v 2.5 h -1 v -2.5 c 0,-0.277 0.223,-0.5 0.5,-0.5 z" fill="#000" transform="translate(8.0,8.0) translate(-680.0,-120.0)" /></svg>