<?xml version="1.0" encoding="utf-8" ?>
<svg baseProfile="full" height="16" version="1.1" width="16" xmlns="http://www.w3.org/2000/svg" xmlns:ev="http://www.w3.org/2001/xml-events" xmlns:xlink="http://www.w3.org/1999/xlink"><defs /><path d="M 22.5,51 C 22.223,51 22,51.223 22,51.5 V 54 H 19.5 C 19.223,54 19,54.223 19,54.5 v 3 c 0,0.277 0.223,0.5 0.5,0.5 H 22 v 2.5 c 0,0.277 0.223,0.5 0.5,0.5 h 3 C 25.777,61 26,60.777 26,60.5 V 58 h 2.5 c 0.277,0 0.5,-0.223 0.5,-0.5 v -3 C 29,54.223 28.777,54 28.5,54 H 26 V 51.5 C 26,51.223 25.777,51 25.5,51 Z" fill="#000" transform="translate(8.0,8.0) translate(-24.0,-56.0)" /><path d="M 22.5,51 C 22.223,51 22,51.223 22,51.5 V 54 H 19.5 C 19.223,54 19,54.223 19,54.5 v 3 c 0,0.277 0.223,0.5 0.5,0.5 H 22 v 2.5 c 0,0.277 0.223,0.5 0.5,0.5 h 3 C 25.777,61 26,60.777 26,60.5 V 58 h 2.5 c 0.277,0 0.5,-0.223 0.5,-0.5 v -3 C 29,54.223 28.777,54 28.5,54 H 26 V 51.5 C 26,51.223 25.777,51 25.5,51 Z" fill="#000" transform="translate(8.0,8.0) translate(-24.0,-56.0)" /></svg>