<?xml version="1.0" encoding="utf-8" ?>
<svg baseProfile="full" height="16" version="1.1" width="16" xmlns="http://www.w3.org/2000/svg" xmlns:ev="http://www.w3.org/2001/xml-events" xmlns:xlink="http://www.w3.org/1999/xlink"><defs /><path d="M 34.5,50 C 34.223,50 34,50.223 34,50.5 v 10 c 0,0.277 0.223,0.5 0.5,0.5 h 10 c 0.277,0 0.5,-0.223 0.5,-0.5 v -10 C 45,50.223 44.777,50 44.5,50 Z m 4,2 h 1.949219 c 0.277,0 0.5,0.223 0.5,0.5 V 54 h 1.5 c 0.277,0 0.5,0.223 0.5,0.5 v 1.949219 c 0,0.277 -0.223,0.5 -0.5,0.5 h -1.5 v 1.5 c 0,0.277 -0.223,0.5 -0.5,0.5 H 38.5 c -0.277,0 -0.5,-0.223 -0.5,-0.5 v -1.5 h -1.5 c -0.277,0 -0.5,-0.223 -0.5,-0.5 V 54.5 C 36,54.223 36.223,54 36.5,54 H 38 V 52.5 C 38,52.223 38.223,52 38.5,52 Z" fill="#000" transform="translate(8.0,8.0) translate(-40.0,-56.0)" /><path d="M 34.5,50 C 34.223,50 34,50.223 34,50.5 v 10 c 0,0.277 0.223,0.5 0.5,0.5 h 10 c 0.277,0 0.5,-0.223 0.5,-0.5 v -10 C 45,50.223 44.777,50 44.5,50 Z m 4,2 h 1.949219 c 0.277,0 0.5,0.223 0.5,0.5 V 54 h 1.5 c 0.277,0 0.5,0.223 0.5,0.5 v 1.949219 c 0,0.277 -0.223,0.5 -0.5,0.5 h -1.5 v 1.5 c 0,0.277 -0.223,0.5 -0.5,0.5 H 38.5 c -0.277,0 -0.5,-0.223 -0.5,-0.5 v -1.5 h -1.5 c -0.277,0 -0.5,-0.223 -0.5,-0.5 V 54.5 C 36,54.223 36.223,54 36.5,54 H 38 V 52.5 C 38,52.223 38.223,52 38.5,52 Z" fill="#000" transform="translate(8.0,8.0) translate(-40.0,-56.0)" /></svg>