<?xml version="1.0" encoding="utf-8" ?>
<svg baseProfile="full" height="16" version="1.1" width="16" xmlns="http://www.w3.org/2000/svg" xmlns:ev="http://www.w3.org/2001/xml-events" xmlns:xlink="http://www.w3.org/1999/xlink"><defs /><path d="m 55.974609,625 c -0.163849,0.002 -0.328681,0.0245 -0.492187,0.0684 C 54.610389,625.30202 54,626.09721 54,627 c 0,0.27614 0.223858,0.5 0.5,0.5 0.276142,0 0.5,-0.22386 0.5,-0.5 0,-0.45502 0.300718,-0.84903 0.740234,-0.9668 0.439517,-0.11777 0.89749,0.0727 1.125,0.4668 0.226116,0.39164 0.164289,0.87934 -0.152343,1.20117 -0.002,0.002 -0.0039,0.004 -0.0059,0.006 -0.31638,0.3048 -0.58565,0.53867 -0.808593,0.80274 -0.175548,0.20792 -0.326286,0.46495 -0.378907,0.7539 -0.860765,0.77229 -2.055465,1.01263 -3.177734,1.38672 -0.588852,0.19628 -1.165582,0.43511 -1.617188,0.88672 C 50.273004,631.98872 50,632.65278 50,633.5 v 1 c 0,0.27614 0.223858,0.5 0.5,0.5 0.276142,0 0.5,-0.22386 0.5,-0.5 V 634 h 2 v 3.5 c 2.8e-5,0.27613 0.223869,0.49997 0.5,0.5 h 5 c 0.276131,-3e-5 0.499972,-0.22387 0.5,-0.5 V 634 h 2 v 0.5 c 0,0.27614 0.223858,0.5 0.5,0.5 0.276142,0 0.5,-0.22386 0.5,-0.5 v -1 c 0,-0.84722 -0.273004,-1.51128 -0.724609,-1.96289 -0.451606,-0.45161 -1.028336,-0.69044 -1.617188,-0.88672 -1.095862,-0.36529 -2.261464,-0.60205 -3.117187,-1.33203 0.02443,-0.043 0.06184,-0.0939 0.121093,-0.16406 0.14516,-0.17193 0.409718,-0.40996 0.746094,-0.73438 0.0088,-0.009 0.01727,-0.0179 0.02539,-0.0273 0.620696,-0.63901 0.745366,-1.61916 0.298828,-2.39258 -0.36676,-0.63524 -1.0478,-1.00807 -1.757813,-1 z M 56,630.07422 c 1.080499,0.88326 2.370899,1.20176 3.341797,1.52539 0.536147,0.17872 0.959419,0.37739 1.226562,0.64453 0.188019,0.18802 0.323909,0.41321 0.388672,0.75586 H 59 v -0.5 c -2.8e-5,-0.27613 -0.223869,-0.49997 -0.5,-0.5 h -5 c -0.276131,3e-5 -0.499972,0.22387 -0.5,0.5 v 0.5 h -1.957031 c 0.06476,-0.34265 0.200653,-0.56784 0.388672,-0.75586 0.267143,-0.26714 0.690415,-0.46581 1.226562,-0.64453 0.970898,-0.32363 2.261298,-0.64213 3.341797,-1.52539 z" fill="#000" transform="translate(8.0,8.0) translate(-56.0,-632.0)" /><path d="m 55.974609,625 c -0.163849,0.002 -0.328681,0.0245 -0.492187,0.0684 C 54.610389,625.30202 54,626.09721 54,627 c 0,0.27614 0.223858,0.5 0.5,0.5 0.276142,0 0.5,-0.22386 0.5,-0.5 0,-0.45502 0.300718,-0.84903 0.740234,-0.9668 0.439517,-0.11777 0.89749,0.0727 1.125,0.4668 0.226116,0.39164 0.164289,0.87934 -0.152343,1.20117 -0.002,0.002 -0.0039,0.004 -0.0059,0.006 -0.31638,0.3048 -0.58565,0.53867 -0.808593,0.80274 -0.175548,0.20792 -0.326286,0.46495 -0.378907,0.7539 -0.860765,0.77229 -2.055465,1.01263 -3.177734,1.38672 -0.588852,0.19628 -1.165582,0.43511 -1.617188,0.88672 C 50.273004,631.98872 50,632.65278 50,633.5 v 1 c 0,0.27614 0.223858,0.5 0.5,0.5 0.276142,0 0.5,-0.22386 0.5,-0.5 V 634 h 2 v 3.5 c 2.8e-5,0.27613 0.223869,0.49997 0.5,0.5 h 5 c 0.276131,-3e-5 0.499972,-0.22387 0.5,-0.5 V 634 h 2 v 0.5 c 0,0.27614 0.223858,0.5 0.5,0.5 0.276142,0 0.5,-0.22386 0.5,-0.5 v -1 c 0,-0.84722 -0.273004,-1.51128 -0.724609,-1.96289 -0.451606,-0.45161 -1.028336,-0.69044 -1.617188,-0.88672 -1.095862,-0.36529 -2.261464,-0.60205 -3.117187,-1.33203 0.02443,-0.043 0.06184,-0.0939 0.121093,-0.16406 0.14516,-0.17193 0.409718,-0.40996 0.746094,-0.73438 0.0088,-0.009 0.01727,-0.0179 0.02539,-0.0273 0.620696,-0.63901 0.745366,-1.61916 0.298828,-2.39258 -0.36676,-0.63524 -1.0478,-1.00807 -1.757813,-1 z M 56,630.07422 c 1.080499,0.88326 2.370899,1.20176 3.341797,1.52539 0.536147,0.17872 0.959419,0.37739 1.226562,0.64453 0.188019,0.18802 0.323909,0.41321 0.388672,0.75586 H 59 v -0.5 c -2.8e-5,-0.27613 -0.223869,-0.49997 -0.5,-0.5 h -5 c -0.276131,3e-5 -0.499972,0.22387 -0.5,0.5 v 0.5 h -1.957031 c 0.06476,-0.34265 0.200653,-0.56784 0.388672,-0.75586 0.267143,-0.26714 0.690415,-0.46581 1.226562,-0.64453 0.970898,-0.32363 2.261298,-0.64213 3.341797,-1.52539 z" fill="#000" transform="translate(8.0,8.0) translate(-56.0,-632.0)" /></svg>