<?xml version="1.0" encoding="utf-8" ?>
<svg baseProfile="full" height="16" version="1.1" width="16" xmlns="http://www.w3.org/2000/svg" xmlns:ev="http://www.w3.org/2001/xml-events" xmlns:xlink="http://www.w3.org/1999/xlink"><defs /><path d="m 341,50 c -0.554,0 -1,0.446 -1,1 v 10 c 0,0.554 0.446,1 1,1 h 6 c 0.554,0 1,-0.446 1,-1 V 51 c 0,-0.554 -0.446,-1 -1,-1 z m 3,1.859375 A 1.1407001,1.1407001 0 0 1 345.14062,53 1.1407001,1.1407001 0 0 1 344,54.140625 1.1407001,1.1407001 0 0 1 342.85938,53 1.1407001,1.1407001 0 0 1 344,51.859375 Z m 0.041,3.3125 A 2.8284373,2.8284373 0 0 1 346,56 a 2.8284373,2.8284373 0 0 1 0,4 2.8284373,2.8284373 0 0 1 -4,0 2.8284373,2.8284373 0 0 1 0,-4 2.8284373,2.8284373 0 0 1 2.04102,-0.828125 z M 344,56.859375 A 1.1407001,1.1407001 0 0 0 342.85938,58 1.1407001,1.1407001 0 0 0 344,59.140625 1.1407001,1.1407001 0 0 0 345.14062,58 1.1407001,1.1407001 0 0 0 344,56.859375 Z" fill="#000" transform="translate(8.0,8.0) translate(-344.0,-56.0)" /><path d="m 341,50 c -0.554,0 -1,0.446 -1,1 v 10 c 0,0.554 0.446,1 1,1 h 6 c 0.554,0 1,-0.446 1,-1 V 51 c 0,-0.554 -0.446,-1 -1,-1 z m 3,1.859375 A 1.1407001,1.1407001 0 0 1 345.14062,53 1.1407001,1.1407001 0 0 1 344,54.140625 1.1407001,1.1407001 0 0 1 342.85938,53 1.1407001,1.1407001 0 0 1 344,51.859375 Z m 0.041,3.3125 A 2.8284373,2.8284373 0 0 1 346,56 a 2.8284373,2.8284373 0 0 1 0,4 2.8284373,2.8284373 0 0 1 -4,0 2.8284373,2.8284373 0 0 1 0,-4 2.8284373,2.8284373 0 0 1 2.04102,-0.828125 z M 344,56.859375 A 1.1407001,1.1407001 0 0 0 342.85938,58 1.1407001,1.1407001 0 0 0 344,59.140625 1.1407001,1.1407001 0 0 0 345.14062,58 1.1407001,1.1407001 0 0 0 344,56.859375 Z" fill="#000" transform="translate(8.0,8.0) translate(-344.0,-56.0)" /></svg>