<?xml version="1.0" encoding="utf-8" ?>
<svg baseProfile="full" height="16" version="1.1" width="16" xmlns="http://www.w3.org/2000/svg" xmlns:ev="http://www.w3.org/2001/xml-events" xmlns:xlink="http://www.w3.org/1999/xlink"><defs /><path d="M 677.5 209 A 0.50005 0.50005 0 0 0 677 209.5 L 677 213 L 675.5 213 A 0.50005 0.50005 0 0 0 675 213.5 L 675 217.5 A 0.50005 0.50005 0 0 0 675.5 218 L 677 218 L 677 221.5 A 0.50005 0.50005 0 0 0 677.5 222 L 681.5 222 A 0.50005 0.50005 0 0 0 682 221.5 L 682 218 L 683.5 218 A 0.50005 0.50005 0 0 0 684 217.5 L 684 213.5 A 0.50005 0.50005 0 0 0 683.5 213 L 682 213 L 682 209.5 A 0.50005 0.50005 0 0 0 681.5 209 L 677.5 209 z M 678 210 L 681 210 L 681 213 L 679.5 213 L 678 213 L 678 210 z M 676 214 L 679 214 L 679 217 L 676 217 L 676 214 z M 680 214 L 683 214 L 683 217 L 680 217 L 680 214 z M 678 218 L 679.5 218 L 681 218 L 681 221 L 678 221 L 678 218 z " fill="#000" transform="translate(8.0,8.0) translate(-680.0,-216.0)" /><path d="M 677.5 209 A 0.50005 0.50005 0 0 0 677 209.5 L 677 213 L 675.5 213 A 0.50005 0.50005 0 0 0 675 213.5 L 675 217.5 A 0.50005 0.50005 0 0 0 675.5 218 L 677 218 L 677 221.5 A 0.50005 0.50005 0 0 0 677.5 222 L 681.5 222 A 0.50005 0.50005 0 0 0 682 221.5 L 682 218 L 683.5 218 A 0.50005 0.50005 0 0 0 684 217.5 L 684 213.5 A 0.50005 0.50005 0 0 0 683.5 213 L 682 213 L 682 209.5 A 0.50005 0.50005 0 0 0 681.5 209 L 677.5 209 z M 678 210 L 681 210 L 681 213 L 679.5 213 L 678 213 L 678 210 z M 676 214 L 679 214 L 679 217 L 676 217 L 676 214 z M 680 214 L 683 214 L 683 217 L 680 217 L 680 214 z M 678 218 L 679.5 218 L 681 218 L 681 221 L 678 221 L 678 218 z " fill="#000" transform="translate(8.0,8.0) translate(-680.0,-216.0)" /></svg>