<?xml version="1.0" encoding="utf-8" ?>
<svg baseProfile="full" height="16" version="1.1" width="16" xmlns="http://www.w3.org/2000/svg" xmlns:ev="http://www.w3.org/2001/xml-events" xmlns:xlink="http://www.w3.org/1999/xlink"><defs /><path d="m 564.49219,179.99219 a 0.50005,0.50005 0 0 0 -0.14649,0.0254 c 0,0 -0.002,0 -0.002,0 -0.6042,0.0457 -1.15497,0.33661 -1.57227,0.7539 C 562.31792,181.22505 562,181.83333 562,182.5 a 0.50005,0.50005 0 1 0 1,0 c 0,-0.33333 0.18208,-0.72505 0.47852,-1.02148 0.1553,-0.15532 0.33596,-0.27659 0.52148,-0.35938 v 2.94141 c -0.46876,0.11232 -0.89125,0.37367 -1.22852,0.71093 C 562.31792,185.22505 562,185.83333 562,186.5 a 0.50005,0.50005 0 1 0 1,0 c 0,-0.33333 0.18208,-0.72505 0.47852,-1.02148 0.28351,-0.28353 0.65316,-0.45761 0.97656,-0.47266 a 0.50005,0.50005 0 0 0 0.002,0 0.50005,0.50005 0 0 0 0.125,-0.006 h 2.83789 a 0.50005,0.50005 0 0 0 0.16211,0 h 2.83789 a 0.50005,0.50005 0 0 0 0.1211,0.006 c 0.32428,0.0138 0.69585,0.18803 0.98046,0.47266 C 571.81792,185.77495 572,186.16667 572,186.5 a 0.50005,0.50005 0 1 0 1,0 c 0,-0.66667 -0.31792,-1.27495 -0.77148,-1.72852 -0.33727,-0.33726 -0.75976,-0.59861 -1.22852,-0.71093 v -2.94141 c 0.18552,0.0828 0.36618,0.20406 0.52148,0.35938 C 571.81792,181.77495 572,182.16667 572,182.5 a 0.50005,0.50005 0 1 0 1,0 c 0,-0.66667 -0.31792,-1.27495 -0.77148,-1.72852 -0.41686,-0.41684 -0.96689,-0.70769 -1.57032,-0.7539 a 0.50005,0.50005 0 0 0 -0.16601,-0.0254 0.50005,0.50005 0 0 0 -0.0742,0.008 h -2.82617 a 0.50005,0.50005 0 0 0 -0.0996,-0.008 0.50005,0.50005 0 0 0 -0.0742,0.008 h -2.82617 a 0.50005,0.50005 0 0 0 -0.0996,-0.008 z M 565,181 h 2 v 3 h -2 z m 3,0 h 2 v 3 h -2 z" fill="#000" transform="translate(8.0,8.0) translate(-568.0,-184.0)" /><path d="m 564.49219,179.99219 a 0.50005,0.50005 0 0 0 -0.14649,0.0254 c 0,0 -0.002,0 -0.002,0 -0.6042,0.0457 -1.15497,0.33661 -1.57227,0.7539 C 562.31792,181.22505 562,181.83333 562,182.5 a 0.50005,0.50005 0 1 0 1,0 c 0,-0.33333 0.18208,-0.72505 0.47852,-1.02148 0.1553,-0.15532 0.33596,-0.27659 0.52148,-0.35938 v 2.94141 c -0.46876,0.11232 -0.89125,0.37367 -1.22852,0.71093 C 562.31792,185.22505 562,185.83333 562,186.5 a 0.50005,0.50005 0 1 0 1,0 c 0,-0.33333 0.18208,-0.72505 0.47852,-1.02148 0.28351,-0.28353 0.65316,-0.45761 0.97656,-0.47266 a 0.50005,0.50005 0 0 0 0.002,0 0.50005,0.50005 0 0 0 0.125,-0.006 h 2.83789 a 0.50005,0.50005 0 0 0 0.16211,0 h 2.83789 a 0.50005,0.50005 0 0 0 0.1211,0.006 c 0.32428,0.0138 0.69585,0.18803 0.98046,0.47266 C 571.81792,185.77495 572,186.16667 572,186.5 a 0.50005,0.50005 0 1 0 1,0 c 0,-0.66667 -0.31792,-1.27495 -0.77148,-1.72852 -0.33727,-0.33726 -0.75976,-0.59861 -1.22852,-0.71093 v -2.94141 c 0.18552,0.0828 0.36618,0.20406 0.52148,0.35938 C 571.81792,181.77495 572,182.16667 572,182.5 a 0.50005,0.50005 0 1 0 1,0 c 0,-0.66667 -0.31792,-1.27495 -0.77148,-1.72852 -0.41686,-0.41684 -0.96689,-0.70769 -1.57032,-0.7539 a 0.50005,0.50005 0 0 0 -0.16601,-0.0254 0.50005,0.50005 0 0 0 -0.0742,0.008 h -2.82617 a 0.50005,0.50005 0 0 0 -0.0996,-0.008 0.50005,0.50005 0 0 0 -0.0742,0.008 h -2.82617 a 0.50005,0.50005 0 0 0 -0.0996,-0.008 z M 565,181 h 2 v 3 h -2 z m 3,0 h 2 v 3 h -2 z" fill="#000" transform="translate(8.0,8.0) translate(-568.0,-184.0)" /></svg>