<?xml version="1.0" encoding="utf-8" ?>
<svg baseProfile="full" height="16" version="1.1" width="16" xmlns="http://www.w3.org/2000/svg" xmlns:ev="http://www.w3.org/2001/xml-events" xmlns:xlink="http://www.w3.org/1999/xlink"><defs /><path d="m 769.5,307 c -0.277,0 -0.5,0.223 -0.5,0.5 0,0.277 0.223,0.5 0.5,0.5 h 0.5 v 5 h -0.5 c -0.277,0 -0.5,0.223 -0.5,0.5 0,0.277 0.223,0.5 0.5,0.5 h 12 c 0.277,0 0.5,-0.223 0.5,-0.5 0,-0.277 -0.223,-0.5 -0.5,-0.5 H 779 v -5 h 2.5 c 0.277,0 0.5,-0.223 0.5,-0.5 0,-0.277 -0.223,-0.5 -0.5,-0.5 z m 2,2 h 2 c 0.277,0 0.5,0.223 0.5,0.5 v 1 c 0,0.277 -0.223,0.5 -0.5,0.5 h -2 c -0.277,0 -0.5,-0.223 -0.5,-0.5 v -1 c 0,-0.277 0.223,-0.5 0.5,-0.5 z m 4,0 h 2 c 0.277,0 0.5,0.223 0.5,0.5 v 1 c 0,0.277 -0.223,0.5 -0.5,0.5 h -2 c -0.277,0 -0.5,-0.223 -0.5,-0.5 v -1 c 0,-0.277 0.223,-0.5 0.5,-0.5 z m -4.5,6.25 a 0.50005,0.50005 0 0 0 -0.35352,0.14648 C 770.20541,315.83756 769.83333,316 769.5,316 a 0.5,0.5 0 0 0 -0.5,0.5 0.5,0.5 0 0 0 0.5,0.5 c 0.53939,0 1.02735,-0.34422 1.5,-0.72461 0.4696,0.37848 0.95642,0.72461 1.5,0.72461 0.53939,0 1.02735,-0.34422 1.5,-0.72461 0.47265,0.38039 0.96061,0.72461 1.5,0.72461 0.53939,0 1.02735,-0.34422 1.5,-0.72461 0.4696,0.37848 0.95642,0.72461 1.5,0.72461 0.53939,0 1.02735,-0.34422 1.5,-0.72461 0.47265,0.38039 0.96061,0.72461 1.5,0.72461 a 0.5,0.5 0 0 0 0.5,-0.5 0.5,0.5 0 0 0 -0.5,-0.5 c -0.33333,0 -0.70541,-0.16244 -1.14648,-0.60352 a 0.50005,0.50005 0 0 0 -0.70704,0 C 779.20541,315.83756 778.83333,316 778.5,316 c -0.32815,0 -0.71411,-0.17114 -1.14648,-0.60352 a 0.50005,0.50005 0 0 0 -0.70704,0 C 776.20541,315.83756 775.83333,316 775.5,316 c -0.33333,0 -0.70541,-0.16244 -1.14648,-0.60352 a 0.50005,0.50005 0 0 0 -0.70704,0 C 773.20541,315.83756 772.83333,316 772.5,316 c -0.32815,0 -0.71411,-0.17114 -1.14648,-0.60352 A 0.50005,0.50005 0 0 0 771,315.25 Z" fill="#000" transform="translate(8.0,8.0) translate(-776.0,-312.0)" /><path d="m 769.5,307 c -0.277,0 -0.5,0.223 -0.5,0.5 0,0.277 0.223,0.5 0.5,0.5 h 0.5 v 5 h -0.5 c -0.277,0 -0.5,0.223 -0.5,0.5 0,0.277 0.223,0.5 0.5,0.5 h 12 c 0.277,0 0.5,-0.223 0.5,-0.5 0,-0.277 -0.223,-0.5 -0.5,-0.5 H 779 v -5 h 2.5 c 0.277,0 0.5,-0.223 0.5,-0.5 0,-0.277 -0.223,-0.5 -0.5,-0.5 z m 2,2 h 2 c 0.277,0 0.5,0.223 0.5,0.5 v 1 c 0,0.277 -0.223,0.5 -0.5,0.5 h -2 c -0.277,0 -0.5,-0.223 -0.5,-0.5 v -1 c 0,-0.277 0.223,-0.5 0.5,-0.5 z m 4,0 h 2 c 0.277,0 0.5,0.223 0.5,0.5 v 1 c 0,0.277 -0.223,0.5 -0.5,0.5 h -2 c -0.277,0 -0.5,-0.223 -0.5,-0.5 v -1 c 0,-0.277 0.223,-0.5 0.5,-0.5 z m -4.5,6.25 a 0.50005,0.50005 0 0 0 -0.35352,0.14648 C 770.20541,315.83756 769.83333,316 769.5,316 a 0.5,0.5 0 0 0 -0.5,0.5 0.5,0.5 0 0 0 0.5,0.5 c 0.53939,0 1.02735,-0.34422 1.5,-0.72461 0.4696,0.37848 0.95642,0.72461 1.5,0.72461 0.53939,0 1.02735,-0.34422 1.5,-0.72461 0.47265,0.38039 0.96061,0.72461 1.5,0.72461 0.53939,0 1.02735,-0.34422 1.5,-0.72461 0.4696,0.37848 0.95642,0.72461 1.5,0.72461 0.53939,0 1.02735,-0.34422 1.5,-0.72461 0.47265,0.38039 0.96061,0.72461 1.5,0.72461 a 0.5,0.5 0 0 0 0.5,-0.5 0.5,0.5 0 0 0 -0.5,-0.5 c -0.33333,0 -0.70541,-0.16244 -1.14648,-0.60352 a 0.50005,0.50005 0 0 0 -0.70704,0 C 779.20541,315.83756 778.83333,316 778.5,316 c -0.32815,0 -0.71411,-0.17114 -1.14648,-0.60352 a 0.50005,0.50005 0 0 0 -0.70704,0 C 776.20541,315.83756 775.83333,316 775.5,316 c -0.33333,0 -0.70541,-0.16244 -1.14648,-0.60352 a 0.50005,0.50005 0 0 0 -0.70704,0 C 773.20541,315.83756 772.83333,316 772.5,316 c -0.32815,0 -0.71411,-0.17114 -1.14648,-0.60352 A 0.50005,0.50005 0 0 0 771,315.25 Z" fill="#000" transform="translate(8.0,8.0) translate(-776.0,-312.0)" /></svg>