<?xml version="1.0" encoding="utf-8" ?>
<svg baseProfile="full" height="16" version="1.1" width="16" xmlns="http://www.w3.org/2000/svg" xmlns:ev="http://www.w3.org/2001/xml-events" xmlns:xlink="http://www.w3.org/1999/xlink"><defs /><path d="m 552,338 a 1,1 0 0 0 -1,1 1,1 0 0 0 1,1 1,1 0 0 0 1,-1 1,1 0 0 0 -1,-1 z m -1.5,3 c -0.277,0 -0.5,0.223 -0.5,0.5 v 2 c 0,0.277 0.223,0.5 0.5,0.5 h 0.5 v 2.5 c 0,0.277 0.223,0.5 0.5,0.5 h 1 c 0.277,0 0.5,-0.223 0.5,-0.5 V 344 h 0.5 c 0.277,0 0.5,-0.223 0.5,-0.5 v -2 c 0,-0.277 -0.223,-0.5 -0.5,-0.5 z m -1.5,7.04297 -0.35352,0.35351 C 548.20541,348.83756 547.83333,349 547.5,349 c -0.33333,0 -0.70541,-0.16244 -1.14648,-0.60352 l -0.70704,0.70704 C 546.20541,349.66244 546.83333,350 547.5,350 c 0.53939,0 1.02735,-0.34421 1.5,-0.72461 0.47265,0.3804 0.96061,0.72461 1.5,0.72461 0.53939,0 1.02735,-0.34421 1.5,-0.72461 0.47265,0.3804 0.96061,0.72461 1.5,0.72461 0.53939,0 1.02735,-0.34421 1.5,-0.72461 0.47265,0.3804 0.96061,0.72461 1.5,0.72461 0.66667,0 1.29459,-0.33756 1.85352,-0.89648 l -0.70704,-0.70704 C 557.20541,348.83756 556.83333,349 556.5,349 c -0.33333,0 -0.70541,-0.16244 -1.14648,-0.60352 L 555,348.04297 l -0.35352,0.35351 C 554.20541,348.83756 553.83333,349 553.5,349 c -0.33333,0 -0.70541,-0.16244 -1.14648,-0.60352 L 552,348.04297 l -0.35352,0.35351 C 551.20541,348.83756 550.83333,349 550.5,349 c -0.33333,0 -0.70541,-0.16244 -1.14648,-0.60352 z" fill="#000" transform="translate(8.0,8.0) translate(-552.0,-344.0)" /><path d="m 552,338 a 1,1 0 0 0 -1,1 1,1 0 0 0 1,1 1,1 0 0 0 1,-1 1,1 0 0 0 -1,-1 z m -1.5,3 c -0.277,0 -0.5,0.223 -0.5,0.5 v 2 c 0,0.277 0.223,0.5 0.5,0.5 h 0.5 v 2.5 c 0,0.277 0.223,0.5 0.5,0.5 h 1 c 0.277,0 0.5,-0.223 0.5,-0.5 V 344 h 0.5 c 0.277,0 0.5,-0.223 0.5,-0.5 v -2 c 0,-0.277 -0.223,-0.5 -0.5,-0.5 z m -1.5,7.04297 -0.35352,0.35351 C 548.20541,348.83756 547.83333,349 547.5,349 c -0.33333,0 -0.70541,-0.16244 -1.14648,-0.60352 l -0.70704,0.70704 C 546.20541,349.66244 546.83333,350 547.5,350 c 0.53939,0 1.02735,-0.34421 1.5,-0.72461 0.47265,0.3804 0.96061,0.72461 1.5,0.72461 0.53939,0 1.02735,-0.34421 1.5,-0.72461 0.47265,0.3804 0.96061,0.72461 1.5,0.72461 0.53939,0 1.02735,-0.34421 1.5,-0.72461 0.47265,0.3804 0.96061,0.72461 1.5,0.72461 0.66667,0 1.29459,-0.33756 1.85352,-0.89648 l -0.70704,-0.70704 C 557.20541,348.83756 556.83333,349 556.5,349 c -0.33333,0 -0.70541,-0.16244 -1.14648,-0.60352 L 555,348.04297 l -0.35352,0.35351 C 554.20541,348.83756 553.83333,349 553.5,349 c -0.33333,0 -0.70541,-0.16244 -1.14648,-0.60352 L 552,348.04297 l -0.35352,0.35351 C 551.20541,348.83756 550.83333,349 550.5,349 c -0.33333,0 -0.70541,-0.16244 -1.14648,-0.60352 z" fill="#000" transform="translate(8.0,8.0) translate(-552.0,-344.0)" /></svg>