<?xml version="1.0" encoding="utf-8" ?>
<svg baseProfile="full" height="16" version="1.1" width="16" xmlns="http://www.w3.org/2000/svg" xmlns:ev="http://www.w3.org/2001/xml-events" xmlns:xlink="http://www.w3.org/1999/xlink"><defs /><path d="m 536,566 c -1.61111,0 -2.52147,0.58022 -3.32422,1.07422 C 531.87303,567.56822 531.15476,568 529.5,568 c -0.017,4.7e-4 -0.034,0.002 -0.0508,0.004 -0.0492,0.006 -0.0973,0.0191 -0.14258,0.0391 -0.0153,0.006 -0.0303,0.0136 -0.0449,0.0215 -0.0441,0.0244 -0.0843,0.0554 -0.11914,0.0918 -0.011,0.0125 -0.0215,0.0256 -0.0312,0.0391 -0.0105,0.0132 -0.0202,0.0268 -0.0293,0.041 -0.009,0.0139 -0.0163,0.0283 -0.0234,0.043 -0.022,0.045 -0.0372,0.0931 -0.0449,0.14258 -0.003,0.0168 -0.005,0.0338 -0.006,0.0508 -0.002,0.0332 -6.5e-4,0.0666 0.004,0.0996 0.003,0.0164 0.006,0.0327 0.01,0.0488 0.008,0.0323 0.019,0.0637 0.0332,0.0937 0.0506,0.10632 0.13702,0.1914 0.24414,0.24024 0.0153,0.007 0.031,0.0125 0.0469,0.0176 0.0317,0.0111 0.0644,0.0189 0.0977,0.0234 0.0187,0.002 0.0375,0.004 0.0563,0.004 h 13 c 0.017,-4.7e-4 0.034,-0.002 0.0508,-0.004 0.0164,-0.002 0.0327,-0.005 0.0488,-0.008 0.0653,-0.0143 0.12705,-0.0415 0.18164,-0.0801 0.0275,-0.0189 0.053,-0.0405 0.0762,-0.0644 0.011,-0.0125 0.0215,-0.0255 0.0312,-0.0391 0.0305,-0.0398 0.0549,-0.0839 0.0723,-0.13086 0.0116,-0.031 0.0201,-0.063 0.0254,-0.0957 0.003,-0.0168 0.005,-0.0338 0.006,-0.0508 7.9e-4,-0.0163 7.9e-4,-0.0325 0,-0.0488 -4.7e-4,-0.017 -0.002,-0.034 -0.004,-0.0508 -0.003,-0.0164 -0.006,-0.0327 -0.01,-0.0488 -0.008,-0.0323 -0.019,-0.0637 -0.0332,-0.0937 -0.007,-0.0147 -0.0149,-0.0291 -0.0234,-0.043 -0.009,-0.0148 -0.0188,-0.0292 -0.0293,-0.043 -0.0197,-0.0262 -0.0419,-0.0504 -0.0664,-0.0723 -0.0125,-0.011 -0.0256,-0.0215 -0.0391,-0.0312 -0.0139,-0.01 -0.0282,-0.0189 -0.043,-0.0273 -0.0285,-0.0166 -0.0586,-0.0303 -0.0898,-0.041 -0.016,-0.005 -0.0323,-0.01 -0.0488,-0.0137 -0.0345,-0.008 -0.0698,-0.0127 -0.10534,-0.0134 -1.65476,0 -2.37303,-0.43178 -3.17578,-0.92578 C 538.52147,566.58022 537.61111,566 536,566 Z" fill="#000" transform="translate(8.0,8.0) translate(-536.0,-568.0)" /><path d="m 536,566 c -1.61111,0 -2.52147,0.58022 -3.32422,1.07422 C 531.87303,567.56822 531.15476,568 529.5,568 c -0.017,4.7e-4 -0.034,0.002 -0.0508,0.004 -0.0492,0.006 -0.0973,0.0191 -0.14258,0.0391 -0.0153,0.006 -0.0303,0.0136 -0.0449,0.0215 -0.0441,0.0244 -0.0843,0.0554 -0.11914,0.0918 -0.011,0.0125 -0.0215,0.0256 -0.0312,0.0391 -0.0105,0.0132 -0.0202,0.0268 -0.0293,0.041 -0.009,0.0139 -0.0163,0.0283 -0.0234,0.043 -0.022,0.045 -0.0372,0.0931 -0.0449,0.14258 -0.003,0.0168 -0.005,0.0338 -0.006,0.0508 -0.002,0.0332 -6.5e-4,0.0666 0.004,0.0996 0.003,0.0164 0.006,0.0327 0.01,0.0488 0.008,0.0323 0.019,0.0637 0.0332,0.0937 0.0506,0.10632 0.13702,0.1914 0.24414,0.24024 0.0153,0.007 0.031,0.0125 0.0469,0.0176 0.0317,0.0111 0.0644,0.0189 0.0977,0.0234 0.0187,0.002 0.0375,0.004 0.0563,0.004 h 13 c 0.017,-4.7e-4 0.034,-0.002 0.0508,-0.004 0.0164,-0.002 0.0327,-0.005 0.0488,-0.008 0.0653,-0.0143 0.12705,-0.0415 0.18164,-0.0801 0.0275,-0.0189 0.053,-0.0405 0.0762,-0.0644 0.011,-0.0125 0.0215,-0.0255 0.0312,-0.0391 0.0305,-0.0398 0.0549,-0.0839 0.0723,-0.13086 0.0116,-0.031 0.0201,-0.063 0.0254,-0.0957 0.003,-0.0168 0.005,-0.0338 0.006,-0.0508 7.9e-4,-0.0163 7.9e-4,-0.0325 0,-0.0488 -4.7e-4,-0.017 -0.002,-0.034 -0.004,-0.0508 -0.003,-0.0164 -0.006,-0.0327 -0.01,-0.0488 -0.008,-0.0323 -0.019,-0.0637 -0.0332,-0.0937 -0.007,-0.0147 -0.0149,-0.0291 -0.0234,-0.043 -0.009,-0.0148 -0.0188,-0.0292 -0.0293,-0.043 -0.0197,-0.0262 -0.0419,-0.0504 -0.0664,-0.0723 -0.0125,-0.011 -0.0256,-0.0215 -0.0391,-0.0312 -0.0139,-0.01 -0.0282,-0.0189 -0.043,-0.0273 -0.0285,-0.0166 -0.0586,-0.0303 -0.0898,-0.041 -0.016,-0.005 -0.0323,-0.01 -0.0488,-0.0137 -0.0345,-0.008 -0.0698,-0.0127 -0.10534,-0.0134 -1.65476,0 -2.37303,-0.43178 -3.17578,-0.92578 C 538.52147,566.58022 537.61111,566 536,566 Z" fill="#000" transform="translate(8.0,8.0) translate(-536.0,-568.0)" /></svg>