<?xml version="1.0" encoding="utf-8" ?>
<svg baseProfile="full" height="16" version="1.1" width="16" xmlns="http://www.w3.org/2000/svg" xmlns:ev="http://www.w3.org/2001/xml-events" xmlns:xlink="http://www.w3.org/1999/xlink"><defs /><path d="m 348.48828,305 a 0.5,0.5 0 0 0 -0.0977,0.0117 l -9,2 a 0.5,0.5 0 0 0 -0.3789,0.59766 0.5,0.5 0 0 0 0.59766,0.3789 L 340,307.90234 V 309 v 4 c 0,0.51671 0.38891,0.93957 0.89062,0.99414 l -0.88085,4.4082 a 0.5,0.5 0 0 0 0.39257,0.58789 0.5,0.5 0 0 0 0.58789,-0.39257 l 0.12305,-0.61328 a 0.5,0.5 0 0 0 0.12695,-0.0449 L 344,316.43359 l 2.75977,1.50586 a 0.5,0.5 0 0 0 0.12695,0.0449 l 0.12305,0.61328 a 0.5,0.5 0 0 0 0.58789,0.39257 0.5,0.5 0 0 0 0.39257,-0.58789 l -0.88085,-4.4082 C 347.61109,313.93957 348,313.51671 348,313 v -4 -2.87695 l 0.60938,-0.13477 a 0.5,0.5 0 0 0 0.3789,-0.59766 0.5,0.5 0 0 0 -0.40234,-0.38281 0.5,0.5 0 0 0 -0.0977,-0.008 z M 341,309 h 6 v 2 h -6 z m 0.91016,5 h 4.17968 l 0.0274,0.13867 -2.11719,1.1543 -2.11719,-1.1543 z m -0.23438,1.16602 1.2793,0.69726 -1.5918,0.86914 z m 4.64844,0 0.3125,1.56445 -1.58984,-0.86719 z" fill="#000" transform="translate(8.0,8.0) translate(-344.0,-312.0)" /><path d="m 348.48828,305 a 0.5,0.5 0 0 0 -0.0977,0.0117 l -9,2 a 0.5,0.5 0 0 0 -0.3789,0.59766 0.5,0.5 0 0 0 0.59766,0.3789 L 340,307.90234 V 309 v 4 c 0,0.51671 0.38891,0.93957 0.89062,0.99414 l -0.88085,4.4082 a 0.5,0.5 0 0 0 0.39257,0.58789 0.5,0.5 0 0 0 0.58789,-0.39257 l 0.12305,-0.61328 a 0.5,0.5 0 0 0 0.12695,-0.0449 L 344,316.43359 l 2.75977,1.50586 a 0.5,0.5 0 0 0 0.12695,0.0449 l 0.12305,0.61328 a 0.5,0.5 0 0 0 0.58789,0.39257 0.5,0.5 0 0 0 0.39257,-0.58789 l -0.88085,-4.4082 C 347.61109,313.93957 348,313.51671 348,313 v -4 -2.87695 l 0.60938,-0.13477 a 0.5,0.5 0 0 0 0.3789,-0.59766 0.5,0.5 0 0 0 -0.40234,-0.38281 0.5,0.5 0 0 0 -0.0977,-0.008 z M 341,309 h 6 v 2 h -6 z m 0.91016,5 h 4.17968 l 0.0274,0.13867 -2.11719,1.1543 -2.11719,-1.1543 z m -0.23438,1.16602 1.2793,0.69726 -1.5918,0.86914 z m 4.64844,0 0.3125,1.56445 -1.58984,-0.86719 z" fill="#000" transform="translate(8.0,8.0) translate(-344.0,-312.0)" /></svg>