<?xml version="1.0" encoding="utf-8" ?>
<svg baseProfile="full" height="16" version="1.1" width="16" xmlns="http://www.w3.org/2000/svg" xmlns:ev="http://www.w3.org/2001/xml-events" xmlns:xlink="http://www.w3.org/1999/xlink"><defs /><path d="m 549,467 c -0.554,0 -1,0.446 -1,1 v 7 c 0,0.554 0.446,1 1,1 h 8 c 0.554,0 1,-0.446 1,-1 v -7 c 0,-0.554 -0.446,-1 -1,-1 z m 3.5,1 h 1 c 0.277,0 0.5,0.223 0.5,0.5 v 1 c 0,0.277 -0.223,0.5 -0.5,0.5 h -1 c -0.277,0 -0.5,-0.223 -0.5,-0.5 v -1 c 0,-0.277 0.223,-0.5 0.5,-0.5 z m -0.5,3 h 0.5 1 c 0.277,0 0.5,0.223 0.5,0.5 v 2.5 c 0.2683,0 0.5,0.23166 0.5,0.5 0,0.26834 -0.2317,0.5 -0.5,0.5 h -2 c -0.2683,0 -0.5,-0.23166 -0.5,-0.5 0,-0.26834 0.2317,-0.5 0.5,-0.5 v -2 c -0.277,0 -0.5,-0.223 -0.5,-0.5 0,-0.277 0.223,-0.5 0.5,-0.5 z" fill="#000" transform="translate(8.0,8.0) translate(-552.0,-472.0)" /><path d="m 593.5,469 c -0.277,0 -0.5,0.223 -0.5,0.5 v 9 c 0,0.277 0.223,0.5 0.5,0.5 h 1 c 0.277,0 0.5,-0.223 0.5,-0.5 V 474 h 1.5 c 0.277,0 0.5,-0.223 0.5,-0.5 0,-0.277 -0.223,-0.5 -0.5,-0.5 H 595 v -3 h 1.5 c 0.277,0 0.5,-0.223 0.5,-0.5 0,-0.277 -0.223,-0.5 -0.5,-0.5 h -2 z" fill="#000" transform="translate(8.0,8.0) translate(-600.0,-472.0)" /><path d="m 549,467 c -0.554,0 -1,0.446 -1,1 v 7 c 0,0.554 0.446,1 1,1 h 8 c 0.554,0 1,-0.446 1,-1 v -7 c 0,-0.554 -0.446,-1 -1,-1 z m 3.5,1 h 1 c 0.277,0 0.5,0.223 0.5,0.5 v 1 c 0,0.277 -0.223,0.5 -0.5,0.5 h -1 c -0.277,0 -0.5,-0.223 -0.5,-0.5 v -1 c 0,-0.277 0.223,-0.5 0.5,-0.5 z m -0.5,3 h 0.5 1 c 0.277,0 0.5,0.223 0.5,0.5 v 2.5 c 0.2683,0 0.5,0.23166 0.5,0.5 0,0.26834 -0.2317,0.5 -0.5,0.5 h -2 c -0.2683,0 -0.5,-0.23166 -0.5,-0.5 0,-0.26834 0.2317,-0.5 0.5,-0.5 v -2 c -0.277,0 -0.5,-0.223 -0.5,-0.5 0,-0.277 0.223,-0.5 0.5,-0.5 z" fill="#000" transform="translate(8.0,8.0) translate(-552.0,-472.0)" /><path d="m 593.5,469 c -0.277,0 -0.5,0.223 -0.5,0.5 v 9 c 0,0.277 0.223,0.5 0.5,0.5 h 1 c 0.277,0 0.5,-0.223 0.5,-0.5 V 474 h 1.5 c 0.277,0 0.5,-0.223 0.5,-0.5 0,-0.277 -0.223,-0.5 -0.5,-0.5 H 595 v -3 h 1.5 c 0.277,0 0.5,-0.223 0.5,-0.5 0,-0.277 -0.223,-0.5 -0.5,-0.5 h -2 z" fill="#000" transform="translate(8.0,8.0) translate(-600.0,-472.0)" /></svg>