<?xml version="1.0" encoding="utf-8" ?>
<svg baseProfile="full" height="16" version="1.1" width="16" xmlns="http://www.w3.org/2000/svg" xmlns:ev="http://www.w3.org/2001/xml-events" xmlns:xlink="http://www.w3.org/1999/xlink"><defs /><path d="m 232,81 a 3,3 0 0 0 -2.99414,2.927734 C 229.00244,83.951426 229,83.975332 229,84 v 6.5 c 0,0.277 0.223,0.5 0.5,0.5 h 1.5 v 3 c 0,0.554 0.446,1 1,1 0.554,0 1,-0.446 1,-1 v -3 h 1.5 c 0.277,0 0.5,-0.223 0.5,-0.5 V 84 c 0,-0.01731 -2.5e-4,-0.03393 -0.002,-0.05078 A 3,3 0 0 0 232,81 Z m -1.03125,4 h 0.0625 C 231.56794,85 232,85.446 232,86 v 1.474609 c -4.3e-4,0.0085 0,0.01673 0,0.02539 v 0.5 0.5 c 0,0.277 0.223,0.5 0.5,0.5 0.277,0 0.5,-0.223 0.5,-0.5 V 88 87.5 c 0,-0.277 0.223,-0.5 0.5,-0.5 0.277,0 0.5,0.223 0.5,0.5 V 88 88.525391 90 h -4 v -2 -2 c 0,-0.554 0.43206,-1 0.96875,-1 z" fill="#000" transform="translate(8.0,8.0) translate(-232.0,-88.0)" /><path d="m 232,81 a 3,3 0 0 0 -2.99414,2.927734 C 229.00244,83.951426 229,83.975332 229,84 v 6.5 c 0,0.277 0.223,0.5 0.5,0.5 h 1.5 v 3 c 0,0.554 0.446,1 1,1 0.554,0 1,-0.446 1,-1 v -3 h 1.5 c 0.277,0 0.5,-0.223 0.5,-0.5 V 84 c 0,-0.01731 -2.5e-4,-0.03393 -0.002,-0.05078 A 3,3 0 0 0 232,81 Z m -1.03125,4 h 0.0625 C 231.56794,85 232,85.446 232,86 v 1.474609 c -4.3e-4,0.0085 0,0.01673 0,0.02539 v 0.5 0.5 c 0,0.277 0.223,0.5 0.5,0.5 0.277,0 0.5,-0.223 0.5,-0.5 V 88 87.5 c 0,-0.277 0.223,-0.5 0.5,-0.5 0.277,0 0.5,0.223 0.5,0.5 V 88 88.525391 90 h -4 v -2 -2 c 0,-0.554 0.43206,-1 0.96875,-1 z" fill="#000" transform="translate(8.0,8.0) translate(-232.0,-88.0)" /></svg>