<?xml version="1.0" encoding="utf-8" ?>
<svg baseProfile="full" height="16" version="1.1" width="16" xmlns="http://www.w3.org/2000/svg" xmlns:ev="http://www.w3.org/2001/xml-events" xmlns:xlink="http://www.w3.org/1999/xlink"><defs /><path d="M 51.5,146.08594 50.08594,147.5 50.79297,148.20703 52,149.41406 v 5.17188 L 50.79297,155.79297 50.08594,156.5 51.5,157.91406 52.20703,157.20703 53.41406,156 h 5.17188 l 1.20703,1.20703 L 60.5,157.91406 61.91406,156.5 61.20703,155.79297 60,154.58594 v -5.17188 L 61.20703,148.20703 61.91406,147.5 60.5,146.08594 59.79297,146.79297 58.58594,148 h -5.17188 l -1.20703,-1.20703 z M 54,150 h 4 v 4 h -4 z" fill="#000" transform="translate(8.0,8.0) translate(-56.0,-152.0)" /><path d="M 51.5,146.08594 50.08594,147.5 50.79297,148.20703 52,149.41406 v 5.17188 L 50.79297,155.79297 50.08594,156.5 51.5,157.91406 52.20703,157.20703 53.41406,156 h 5.17188 l 1.20703,1.20703 L 60.5,157.91406 61.91406,156.5 61.20703,155.79297 60,154.58594 v -5.17188 L 61.20703,148.20703 61.91406,147.5 60.5,146.08594 59.79297,146.79297 58.58594,148 h -5.17188 l -1.20703,-1.20703 z M 54,150 h 4 v 4 h -4 z" fill="#000" transform="translate(8.0,8.0) translate(-56.0,-152.0)" /></svg>