<?xml version="1.0" encoding="utf-8" ?>
<svg baseProfile="full" height="16" version="1.1" width="16" xmlns="http://www.w3.org/2000/svg" xmlns:ev="http://www.w3.org/2001/xml-events" xmlns:xlink="http://www.w3.org/1999/xlink"><defs /><path d="m 82,147 c 0,2.14199 1.144982,4.12432 3,5.19531 0.627593,0.36235 1.306524,0.59182 2,0.70899 V 153 v 4 1 h 2 v -1 -4 -0.0957 c 0.693476,-0.11717 1.372407,-0.34664 2,-0.70899 1.855018,-1.07099 3,-3.05332 3,-5.19531 h -2 c 0,1.43067 -0.761007,2.74951 -2,3.46484 -1.238993,0.71534 -2.761007,0.71534 -4,0 C 84.761007,149.74951 84,148.43067 84,147 Z" fill="#000" transform="translate(8.0,8.0) translate(-88.0,-152.0)" /><path d="m 82,147 c 0,2.14199 1.144982,4.12432 3,5.19531 0.627593,0.36235 1.306524,0.59182 2,0.70899 V 153 v 4 1 h 2 v -1 -4 -0.0957 c 0.693476,-0.11717 1.372407,-0.34664 2,-0.70899 1.855018,-1.07099 3,-3.05332 3,-5.19531 h -2 c 0,1.43067 -0.761007,2.74951 -2,3.46484 -1.238993,0.71534 -2.761007,0.71534 -4,0 C 84.761007,149.74951 84,148.43067 84,147 Z" fill="#000" transform="translate(8.0,8.0) translate(-88.0,-152.0)" /></svg>