<?xml version="1.0" encoding="utf-8" ?>
<svg baseProfile="full" height="16" version="1.1" width="16" xmlns="http://www.w3.org/2000/svg" xmlns:ev="http://www.w3.org/2001/xml-events" xmlns:xlink="http://www.w3.org/1999/xlink"><defs /><path d="m 23,146 v 2 h -5 v 2 h 1.31836 c 0.65136,1.45812 1.78192,2.79481 3.08203,4.00195 -0.99185,0.79392 -2.01566,1.53974 -2.95508,2.16602 l 1.10938,1.66406 c 1.06983,-0.71322 2.27655,-1.54204 3.44531,-2.46484 1.16876,0.9228 2.37548,1.75162 3.44531,2.46484 l 1.10938,-1.66406 c -0.93942,-0.62628 -1.96323,-1.3721 -2.95508,-2.16602 1.30011,-1.20714 2.43067,-2.54383 3.08203,-4.00195 H 30 v -2 h -5 v -2 z m -1.35156,4 h 4.70312 C 25.77198,150.86634 24.95617,151.76645 24,152.64453 23.04383,151.76645 22.22802,150.86634 21.64844,150 Z" fill="#000" transform="translate(8.0,8.0) translate(-24.0,-152.0)" /><path d="m 23,146 v 2 h -5 v 2 h 1.31836 c 0.65136,1.45812 1.78192,2.79481 3.08203,4.00195 -0.99185,0.79392 -2.01566,1.53974 -2.95508,2.16602 l 1.10938,1.66406 c 1.06983,-0.71322 2.27655,-1.54204 3.44531,-2.46484 1.16876,0.9228 2.37548,1.75162 3.44531,2.46484 l 1.10938,-1.66406 c -0.93942,-0.62628 -1.96323,-1.3721 -2.95508,-2.16602 1.30011,-1.20714 2.43067,-2.54383 3.08203,-4.00195 H 30 v -2 h -5 v -2 z m -1.35156,4 h 4.70312 C 25.77198,150.86634 24.95617,151.76645 24,152.64453 23.04383,151.76645 22.22802,150.86634 21.64844,150 Z" fill="#000" transform="translate(8.0,8.0) translate(-24.0,-152.0)" /></svg>