<?xml version="1.0" encoding="utf-8" ?>
<svg baseProfile="full" height="16" version="1.1" width="16" xmlns="http://www.w3.org/2000/svg" xmlns:ev="http://www.w3.org/2001/xml-events" xmlns:xlink="http://www.w3.org/1999/xlink"><defs /><path d="m 184,146 c -3.30186,0 -6,2.69814 -6,6 0,3.30186 2.69814,6 6,6 3.30186,0 6,-2.69814 6,-6 0,-3.30186 -2.69814,-6 -6,-6 z m 0,2 c 0.74369,0 1.42906,0.21376 2.02344,0.5625 L 184,150.58594 181.97656,148.5625 C 182.57094,148.21376 183.25631,148 184,148 Z m -3.4375,1.97656 2.02344,2.02344 -2.02344,2.02344 C 180.21376,153.42906 180,152.74369 180,152 c 0,-0.74369 0.21376,-1.42906 0.5625,-2.02344 z m 6.875,0 C 187.78624,150.57094 188,151.25631 188,152 c 0,0.74369 -0.21376,1.42906 -0.5625,2.02344 L 185.41406,152 Z m -3.4375,3.4375 2.02344,2.02344 C 185.42906,155.78624 184.74369,156 184,156 c -0.74369,0 -1.42906,-0.21376 -2.02344,-0.5625 z" fill="#000" transform="translate(8.0,8.0) translate(-184.0,-152.0)" /><path d="m 184,146 c -3.30186,0 -6,2.69814 -6,6 0,3.30186 2.69814,6 6,6 3.30186,0 6,-2.69814 6,-6 0,-3.30186 -2.69814,-6 -6,-6 z m 0,2 c 0.74369,0 1.42906,0.21376 2.02344,0.5625 L 184,150.58594 181.97656,148.5625 C 182.57094,148.21376 183.25631,148 184,148 Z m -3.4375,1.97656 2.02344,2.02344 -2.02344,2.02344 C 180.21376,153.42906 180,152.74369 180,152 c 0,-0.74369 0.21376,-1.42906 0.5625,-2.02344 z m 6.875,0 C 187.78624,150.57094 188,151.25631 188,152 c 0,0.74369 -0.21376,1.42906 -0.5625,2.02344 L 185.41406,152 Z m -3.4375,3.4375 2.02344,2.02344 C 185.42906,155.78624 184.74369,156 184,156 c -0.74369,0 -1.42906,-0.21376 -2.02344,-0.5625 z" fill="#000" transform="translate(8.0,8.0) translate(-184.0,-152.0)" /></svg>