<?xml version="1.0" encoding="utf-8" ?>
<svg baseProfile="full" height="16" version="1.1" width="16" xmlns="http://www.w3.org/2000/svg" xmlns:ev="http://www.w3.org/2001/xml-events" xmlns:xlink="http://www.w3.org/1999/xlink"><defs /><path d="m 101.17578,145.59766 -1.578124,1.22656 0.613284,0.78906 3.02344,3.88672 -3.02344,3.88672 -0.613284,0.78906 1.578124,1.22656 0.61328,-0.78906 2.71094,-3.48633 2.71094,3.48633 0.61328,0.78906 1.57812,-1.22656 -0.61328,-0.78906 -3.02344,-3.88672 3.02344,-3.88672 0.61328,-0.78906 -1.57812,-1.22656 -0.61328,0.78906 -2.71094,3.48633 -2.71094,-3.48633 z" fill="#000" transform="translate(8.0,8.0) translate(-104.0,-152.0)" /><path d="m 101.17578,145.59766 -1.578124,1.22656 0.613284,0.78906 3.02344,3.88672 -3.02344,3.88672 -0.613284,0.78906 1.578124,1.22656 0.61328,-0.78906 2.71094,-3.48633 2.71094,3.48633 0.61328,0.78906 1.57812,-1.22656 -0.61328,-0.78906 -3.02344,-3.88672 3.02344,-3.88672 0.61328,-0.78906 -1.57812,-1.22656 -0.61328,0.78906 -2.71094,3.48633 -2.71094,-3.48633 z" fill="#000" transform="translate(8.0,8.0) translate(-104.0,-152.0)" /></svg>