<?xml version="1.0" encoding="utf-8" ?>
<svg baseProfile="full" height="16" version="1.1" width="16" xmlns="http://www.w3.org/2000/svg" xmlns:ev="http://www.w3.org/2001/xml-events" xmlns:xlink="http://www.w3.org/1999/xlink"><defs /><path d="M 200 146.00586 C 198.46237 146.00586 196.9252 146.59043 195.75781 147.75781 C 193.42304 150.09258 193.42304 153.90742 195.75781 156.24219 C 198.09258 158.57696 201.90937 158.57696 204.24414 156.24219 C 206.57891 153.90742 206.57891 150.09258 204.24414 147.75781 C 203.07676 146.59043 201.53763 146.00586 200 146.00586 z M 200 147.99414 C 201.0216 147.99414 202.04484 148.38664 202.83008 149.17188 C 204.40056 150.74235 204.40055 153.25765 202.83008 154.82812 C 201.25961 156.3986 198.74235 156.3986 197.17188 154.82812 C 195.6014 153.25765 195.6014 150.74235 197.17188 149.17188 C 197.95711 148.38664 198.9784 147.99414 200 147.99414 z M 199 149 L 199 150 L 199 151 L 198 151 L 197 151 L 197 153 L 198 153 L 199 153 L 199 154 L 199 155 L 201 155 L 201 154 L 201 153 L 202 153 L 203 153 L 203 151 L 202 151 L 201 151 L 201 150 L 201 149 L 199 149 z " fill="#000" transform="translate(8.0,8.0) translate(-200.0,-152.0)" /><path d="M 200 146.00586 C 198.46237 146.00586 196.9252 146.59043 195.75781 147.75781 C 193.42304 150.09258 193.42304 153.90742 195.75781 156.24219 C 198.09258 158.57696 201.90937 158.57696 204.24414 156.24219 C 206.57891 153.90742 206.57891 150.09258 204.24414 147.75781 C 203.07676 146.59043 201.53763 146.00586 200 146.00586 z M 200 147.99414 C 201.0216 147.99414 202.04484 148.38664 202.83008 149.17188 C 204.40056 150.74235 204.40055 153.25765 202.83008 154.82812 C 201.25961 156.3986 198.74235 156.3986 197.17188 154.82812 C 195.6014 153.25765 195.6014 150.74235 197.17188 149.17188 C 197.95711 148.38664 198.9784 147.99414 200 147.99414 z M 199 149 L 199 150 L 199 151 L 198 151 L 197 151 L 197 153 L 198 153 L 199 153 L 199 154 L 199 155 L 201 155 L 201 154 L 201 153 L 202 153 L 203 153 L 203 151 L 202 151 L 201 151 L 201 150 L 201 149 L 199 149 z " fill="#000" transform="translate(8.0,8.0) translate(-200.0,-152.0)" /></svg>