<?xml version="1.0" encoding="utf-8" ?>
<svg baseProfile="full" height="16" version="1.1" width="16" xmlns="http://www.w3.org/2000/svg" xmlns:ev="http://www.w3.org/2001/xml-events" xmlns:xlink="http://www.w3.org/1999/xlink"><defs /><path d="M 625.42383,566 C 625.18903,566 625,566.223 625,566.5 v 2 c 0,0.277 0.18903,0.5 0.42383,0.5 h 0.0606 6.09179 6.93945 c 0.26835,0 0.48438,-0.223 0.48438,-0.5 0,-0.277 -0.21603,-0.5 -0.48438,-0.5 H 632 v -1.5 c 0,-0.277 -0.18903,-0.5 -0.42383,-0.5 z" fill="#000" transform="translate(8.0,8.0) translate(-632.0,-568.0)" /><path d="M 625.42383,566 C 625.18903,566 625,566.223 625,566.5 v 2 c 0,0.277 0.18903,0.5 0.42383,0.5 h 0.0606 6.09179 6.93945 c 0.26835,0 0.48438,-0.223 0.48438,-0.5 0,-0.277 -0.21603,-0.5 -0.48438,-0.5 H 632 v -1.5 c 0,-0.277 -0.18903,-0.5 -0.42383,-0.5 z" fill="#000" transform="translate(8.0,8.0) translate(-632.0,-568.0)" /></svg>