<?xml version="1.0" encoding="utf-8" ?>
<svg baseProfile="full" height="16" version="1.1" width="16" xmlns="http://www.w3.org/2000/svg" xmlns:ev="http://www.w3.org/2001/xml-events" xmlns:xlink="http://www.w3.org/1999/xlink"><defs /><path d="M 67.49219,18 C 67.21911,18.004 66.99999,18.22689 67,18.5 v 10 c 3e-5,0.27613 0.22387,0.49997 0.5,0.5 H 68 c 0.18961,-1.7e-4 0.36282,-0.10757 0.44727,-0.27734 C 68.75689,28.1034 68.875,27.30556 68.875,26.5 c 0,-0.54367 -0.15889,-1.0156 -0.28906,-1.5 H 69.5 c 0.32489,-5.2e-4 0.56302,-0.30587 0.48438,-0.62109 C 69.48913,22.39793 69.01558,19.872 67.91602,18.22266 67.82172,18.08124 67.66213,17.99737 67.49219,18 Z M 73,18 v 0.5 5 0.5 h 0.5 0.5 0.81641 C 74.3738,25.16446 74,26.75121 74,28.5 c 3e-5,0.27613 0.22387,0.49997 0.5,0.5 h 1 c 0.27613,-3e-5 0.49997,-0.22387 0.5,-0.5 V 23.48242 18.5 c -3e-5,-0.27613 -0.22387,-0.49997 -0.5,-0.5 H 74 73.5 Z" fill="#000" transform="translate(8.0,8.0) translate(-72.0,-24.0)" /><path d="M 67.49219,18 C 67.21911,18.004 66.99999,18.22689 67,18.5 v 10 c 3e-5,0.27613 0.22387,0.49997 0.5,0.5 H 68 c 0.18961,-1.7e-4 0.36282,-0.10757 0.44727,-0.27734 C 68.75689,28.1034 68.875,27.30556 68.875,26.5 c 0,-0.54367 -0.15889,-1.0156 -0.28906,-1.5 H 69.5 c 0.32489,-5.2e-4 0.56302,-0.30587 0.48438,-0.62109 C 69.48913,22.39793 69.01558,19.872 67.91602,18.22266 67.82172,18.08124 67.66213,17.99737 67.49219,18 Z M 73,18 v 0.5 5 0.5 h 0.5 0.5 0.81641 C 74.3738,25.16446 74,26.75121 74,28.5 c 3e-5,0.27613 0.22387,0.49997 0.5,0.5 h 1 c 0.27613,-3e-5 0.49997,-0.22387 0.5,-0.5 V 23.48242 18.5 c -3e-5,-0.27613 -0.22387,-0.49997 -0.5,-0.5 H 74 73.5 Z" fill="#000" transform="translate(8.0,8.0) translate(-72.0,-24.0)" /></svg>