<?xml version="1.0" encoding="utf-8" ?>
<svg baseProfile="full" height="16" version="1.1" width="16" xmlns="http://www.w3.org/2000/svg" xmlns:ev="http://www.w3.org/2001/xml-events" xmlns:xlink="http://www.w3.org/1999/xlink"><defs /><path d="m 679,50 -2,2 v 1 c 0,0.554 0.446,1 1,1 h 1 v 1 h -1 -2.5 a 0.50005,0.50005 0 0 0 -0.49023,0.402344 L 674.08984,60 H 673.5 a 0.50005,0.50005 0 1 0 0,1 h 0.88477 a 0.50005,0.50005 0 0 0 0.22851,0 H 675.5 a 0.50005,0.50005 0 1 0 0,-1 h -0.39062 l 0.80078,-4 H 677 v 2 c 0,0.554 0.446,1 1,1 h 4 c 0.554,0 1,-0.446 1,-1 v -2 h 1.08984 l 0.80078,4 H 684.5 a 0.50005,0.50005 0 1 0 0,1 h 0.88867 a 0.50005,0.50005 0 0 0 0.22852,0 H 686.5 a 0.50005,0.50005 0 1 0 0,-1 h -0.58984 l -0.91993,-4.597656 A 0.50005,0.50005 0 0 0 684.5,55 h -2.5 -1 v -1 h 1 c 0.554,0 1,-0.446 1,-1 v -1 l -2,-2 z" fill="#000" transform="translate(8.0,8.0) translate(-680.0,-56.0)" /><path d="m 679,50 -2,2 v 1 c 0,0.554 0.446,1 1,1 h 1 v 1 h -1 -2.5 a 0.50005,0.50005 0 0 0 -0.49023,0.402344 L 674.08984,60 H 673.5 a 0.50005,0.50005 0 1 0 0,1 h 0.88477 a 0.50005,0.50005 0 0 0 0.22851,0 H 675.5 a 0.50005,0.50005 0 1 0 0,-1 h -0.39062 l 0.80078,-4 H 677 v 2 c 0,0.554 0.446,1 1,1 h 4 c 0.554,0 1,-0.446 1,-1 v -2 h 1.08984 l 0.80078,4 H 684.5 a 0.50005,0.50005 0 1 0 0,1 h 0.88867 a 0.50005,0.50005 0 0 0 0.22852,0 H 686.5 a 0.50005,0.50005 0 1 0 0,-1 h -0.58984 l -0.91993,-4.597656 A 0.50005,0.50005 0 0 0 684.5,55 h -2.5 -1 v -1 h 1 c 0.554,0 1,-0.446 1,-1 v -1 l -2,-2 z" fill="#000" transform="translate(8.0,8.0) translate(-680.0,-56.0)" /></svg>