<?xml version="1.0" encoding="utf-8" ?>
<svg baseProfile="full" height="16" version="1.1" width="16" xmlns="http://www.w3.org/2000/svg" xmlns:ev="http://www.w3.org/2001/xml-events" xmlns:xlink="http://www.w3.org/1999/xlink"><defs /><path d="m 503.5,81 c -0.277,0 -0.5,0.223 -0.5,0.5 V 85 h -3.5 c -0.277,0 -0.5,0.223 -0.5,0.5 v 1 c 0,0.277 0.223,0.5 0.5,0.5 h 3.5 v 7.5 c 0,0.277 0.223,0.5 0.5,0.5 h 1 c 0.277,0 0.5,-0.223 0.5,-0.5 V 87 h 3.5 c 0.277,0 0.5,-0.223 0.5,-0.5 v -1 C 509,85.223 508.777,85 508.5,85 H 505 v -3.5 c 0,-0.277 -0.223,-0.5 -0.5,-0.5 z" fill="#000" transform="translate(8.0,8.0) translate(-504.0,-88.0)" /><path d="m 503.5,81 c -0.277,0 -0.5,0.223 -0.5,0.5 V 85 h -3.5 c -0.277,0 -0.5,0.223 -0.5,0.5 v 1 c 0,0.277 0.223,0.5 0.5,0.5 h 3.5 v 7.5 c 0,0.277 0.223,0.5 0.5,0.5 h 1 c 0.277,0 0.5,-0.223 0.5,-0.5 V 87 h 3.5 c 0.277,0 0.5,-0.223 0.5,-0.5 v -1 C 509,85.223 508.777,85 508.5,85 H 505 v -3.5 c 0,-0.277 -0.223,-0.5 -0.5,-0.5 z" fill="#000" transform="translate(8.0,8.0) translate(-504.0,-88.0)" /></svg>