<?xml version="1.0" encoding="utf-8" ?>
<svg baseProfile="full" height="16" version="1.1" width="16" xmlns="http://www.w3.org/2000/svg" xmlns:ev="http://www.w3.org/2001/xml-events" xmlns:xlink="http://www.w3.org/1999/xlink"><defs /><path d="m 374.49219,273.99219 a 0.50005,0.50005 0 0 0 -0.0488,0.004 0.50005,0.50005 0 0 0 -0.0605,0.01 0.50005,0.50005 0 0 0 -0.38281,0.5625 v 3.93164 0.92969 a 0.50005,0.50005 0 0 0 0,0.1582 v 0.83789 a 0.50005,0.50005 0 0 0 0,0.14258 v 0.93164 3.92969 a 0.50005,0.50005 0 0 0 0.45508,0.57617 0.50005,0.50005 0 0 0 0.0527,0.002 0.50005,0.50005 0 0 0 0.0488,-0.004 0.50005,0.50005 0 0 0 0.33984,-0.19141 0.50005,0.50005 0 0 0 0.004,-0.006 L 376,284.70703 V 285.5 a 0.50005,0.50005 0 1 0 1,0 v -1.94336 a 0.50005,0.50005 0 0 0 0,-0.12305 v -0.83984 a 0.50005,0.50005 0 0 0 0,-0.16797 V 281.5 v -3 -0.94336 a 0.50005,0.50005 0 0 0 0,-0.12305 v -0.83984 a 0.50005,0.50005 0 0 0 0,-0.16797 V 274.5 A 0.50005,0.50005 0 0 0 376.49219,273.99219 0.50005,0.50005 0 0 0 376,274.5 v 0.79297 l -1.10156,-1.10156 a 0.50005,0.50005 0 0 0 -0.40625,-0.19922 z m 0.50781,1.71484 1,1 v 0.58594 l -1,1 z m 1,3 v 2.58594 l -1,-1 v -0.58594 z m -1,3 1,1 v 0.58594 l -1,1 z" fill="#000" transform="translate(8.0,8.0) translate(-376.0,-280.0)" /><path d="m 279.44531,340.2168 c 0.88956,0.41378 1.30157,1.44686 1.22461,2.57617 0,6.7e-4 0,10e-4 0,0.002 -0.0176,0.25084 -0.0917,0.50232 -0.15429,0.75391 0.36408,0.28114 1.54689,1.19605 2.19531,1.49804 0.57772,0.29067 0.17247,1.1612 -0.42188,0.90625 -0.64743,-0.30153 -2.10621,-0.61837 -2.55859,-0.71679 -0.15283,0.2097 -0.29738,0.42885 -0.47852,0.60351 -0.81464,0.78613 -1.87216,1.13653 -2.76172,0.72266 -0.25015,-0.11659 -0.35854,-0.4138 -0.24218,-0.66406 l 1.26562,-2.72071 1.26758,-2.71875 c 0.11659,-0.25015 0.4138,-0.35854 0.66406,-0.24218 z" fill="#000" transform="translate(4.0,5.0) translate(-280.0,-344.0)" /><path d="m 296.55469,340.2168 c -0.88956,0.41378 -1.30157,1.44686 -1.22461,2.57617 0,6.7e-4 0,10e-4 0,0.002 0.0176,0.25084 0.0917,0.50232 0.15429,0.75391 -0.36408,0.28114 -1.54689,1.19605 -2.19531,1.49804 -0.57772,0.29067 -0.17247,1.1612 0.42188,0.90625 0.64743,-0.30153 2.10621,-0.61837 2.55859,-0.71679 0.15283,0.2097 0.29738,0.42885 0.47852,0.60351 0.81464,0.78613 1.87216,1.13653 2.76172,0.72266 0.25015,-0.11659 0.35854,-0.4138 0.24218,-0.66406 l -1.26562,-2.72071 -1.26758,-2.71875 c -0.11659,-0.25015 -0.4138,-0.35854 -0.66406,-0.24218 z" fill="#000" transform="translate(11.0,5.0) translate(-296.0,-344.0)" /><path d="m 374.49219,273.99219 a 0.50005,0.50005 0 0 0 -0.0488,0.004 0.50005,0.50005 0 0 0 -0.0605,0.01 0.50005,0.50005 0 0 0 -0.38281,0.5625 v 3.93164 0.92969 a 0.50005,0.50005 0 0 0 0,0.1582 v 0.83789 a 0.50005,0.50005 0 0 0 0,0.14258 v 0.93164 3.92969 a 0.50005,0.50005 0 0 0 0.45508,0.57617 0.50005,0.50005 0 0 0 0.0527,0.002 0.50005,0.50005 0 0 0 0.0488,-0.004 0.50005,0.50005 0 0 0 0.33984,-0.19141 0.50005,0.50005 0 0 0 0.004,-0.006 L 376,284.70703 V 285.5 a 0.50005,0.50005 0 1 0 1,0 v -1.94336 a 0.50005,0.50005 0 0 0 0,-0.12305 v -0.83984 a 0.50005,0.50005 0 0 0 0,-0.16797 V 281.5 v -3 -0.94336 a 0.50005,0.50005 0 0 0 0,-0.12305 v -0.83984 a 0.50005,0.50005 0 0 0 0,-0.16797 V 274.5 A 0.50005,0.50005 0 0 0 376.49219,273.99219 0.50005,0.50005 0 0 0 376,274.5 v 0.79297 l -1.10156,-1.10156 a 0.50005,0.50005 0 0 0 -0.40625,-0.19922 z m 0.50781,1.71484 1,1 v 0.58594 l -1,1 z m 1,3 v 2.58594 l -1,-1 v -0.58594 z m -1,3 1,1 v 0.58594 l -1,1 z" fill="#000" transform="translate(8.0,8.0) translate(-376.0,-280.0)" /><path d="m 279.44531,340.2168 c 0.88956,0.41378 1.30157,1.44686 1.22461,2.57617 0,6.7e-4 0,10e-4 0,0.002 -0.0176,0.25084 -0.0917,0.50232 -0.15429,0.75391 0.36408,0.28114 1.54689,1.19605 2.19531,1.49804 0.57772,0.29067 0.17247,1.1612 -0.42188,0.90625 -0.64743,-0.30153 -2.10621,-0.61837 -2.55859,-0.71679 -0.15283,0.2097 -0.29738,0.42885 -0.47852,0.60351 -0.81464,0.78613 -1.87216,1.13653 -2.76172,0.72266 -0.25015,-0.11659 -0.35854,-0.4138 -0.24218,-0.66406 l 1.26562,-2.72071 1.26758,-2.71875 c 0.11659,-0.25015 0.4138,-0.35854 0.66406,-0.24218 z" fill="#000" transform="translate(4.0,5.0) translate(-280.0,-344.0)" /><path d="m 296.55469,340.2168 c -0.88956,0.41378 -1.30157,1.44686 -1.22461,2.57617 0,6.7e-4 0,10e-4 0,0.002 0.0176,0.25084 0.0917,0.50232 0.15429,0.75391 -0.36408,0.28114 -1.54689,1.19605 -2.19531,1.49804 -0.57772,0.29067 -0.17247,1.1612 0.42188,0.90625 0.64743,-0.30153 2.10621,-0.61837 2.55859,-0.71679 0.15283,0.2097 0.29738,0.42885 0.47852,0.60351 0.81464,0.78613 1.87216,1.13653 2.76172,0.72266 0.25015,-0.11659 0.35854,-0.4138 0.24218,-0.66406 l -1.26562,-2.72071 -1.26758,-2.71875 c -0.11659,-0.25015 -0.4138,-0.35854 -0.66406,-0.24218 z" fill="#000" transform="translate(11.0,5.0) translate(-296.0,-344.0)" /></svg>