<?xml version="1.0" encoding="utf-8" ?>
<svg baseProfile="full" height="16" version="1.1" width="16" xmlns="http://www.w3.org/2000/svg" xmlns:ev="http://www.w3.org/2001/xml-events" xmlns:xlink="http://www.w3.org/1999/xlink"><defs /><path d="m 390.49219,273.99219 a 0.50005,0.50005 0 0 0 -0.0488,0.004 0.50005,0.50005 0 0 0 -0.0605,0.01 0.50005,0.50005 0 0 0 -0.38281,0.5625 v 4.86133 a 0.50005,0.50005 0 0 0 0,0.1582 v 0.73633 l -3.89062,4.86328 a 0.50024018,0.50024018 0 1 0 0.78124,0.625 l 3.1093,-3.889 v 3.50586 a 0.50005,0.50005 0 0 0 0.45508,0.57617 0.50005,0.50005 0 0 0 0.0527,0.002 0.50005,0.50005 0 0 0 0.0488,-0.004 0.50005,0.50005 0 0 0 0.33984,-0.19141 0.50005,0.50005 0 0 0 0.004,-0.006 L 392,284.70703 V 285.5 a 0.50005,0.50005 0 1 0 1,0 v -1.94336 a 0.50005,0.50005 0 0 0 0,-0.12305 v -0.83984 a 0.50005,0.50005 0 0 0 0,-0.16797 v -0.5 l 3.10938,3.88672 a 0.50024018,0.50024018 0 1 0 0.78124,-0.625 L 393,280.32422 v -2.76758 a 0.50005,0.50005 0 0 0 0,-0.12305 v -0.83984 a 0.50005,0.50005 0 0 0 0,-0.16797 V 274.5 A 0.50005,0.50005 0 0 0 392.49219,273.99219 0.50005,0.50005 0 0 0 392,274.5 v 0.79297 l -1.10156,-1.10156 a 0.50005,0.50005 0 0 0 -0.40625,-0.19922 z m 0.50781,1.71484 1,1 v 0.58594 l -1,1 z m 1,3 v 1.72266 a 0.50005,0.50005 0 0 0 0,0.13281 v 0.73047 l -1,-1 v -0.58594 z m -1,3 1,1 v 0.58594 l -1,1 z" fill="#000" transform="translate(8.0,8.0) translate(-392.0,-280.0)" /><path d="m 167.38477,340.87305 a 0.50005,0.50005 0 0 0 -0.35938,0.15234 C 166.36915,341.68163 166,342.57193 166,343.5 c 0,0.92807 0.36915,1.81837 1.02539,2.47461 a 0.50005,0.50005 0 1 0 0.70703,-0.70703 C 167.26345,344.7986 167,344.16323 167,343.5 c 0,-0.66323 0.26345,-1.2986 0.73242,-1.76758 a 0.50005,0.50005 0 0 0 -0.34765,-0.85937 z m 1.41406,1.41406 a 0.50005,0.50005 0 0 0 -0.35938,0.15234 C 168.15828,342.72062 168,343.10237 168,343.5 c 0,0.39763 0.15828,0.77938 0.43945,1.06055 a 0.50005,0.50005 0 1 0 0.70703,-0.70703 C 169.0526,343.75961 169,343.6328 169,343.5 c 0,-0.1328 0.0526,-0.25961 0.14648,-0.35352 a 0.50005,0.50005 0 0 0 -0.34765,-0.85937 z" fill="#000" transform="translate(4.0,5.0) translate(-168.0,-344.0)" /><path d="m 184.61523,340.87305 a 0.50005,0.50005 0 0 0 -0.34765,0.85937 C 184.73655,342.2014 185,342.83677 185,343.5 c 0,0.66323 -0.26345,1.2986 -0.73242,1.76758 a 0.50005,0.50005 0 1 0 0.70703,0.70703 C 185.63085,345.31837 186,344.42807 186,343.5 c 0,-0.92807 -0.36915,-1.81837 -1.02539,-2.47461 a 0.50005,0.50005 0 0 0 -0.35938,-0.15234 z m -1.41406,1.41406 a 0.50005,0.50005 0 0 0 -0.34765,0.85937 C 182.94742,343.24038 183,343.3672 183,343.5 c 0,0.1328 -0.0526,0.25961 -0.14648,0.35352 a 0.50005,0.50005 0 1 0 0.70703,0.70703 C 183.84172,344.27938 184,343.89763 184,343.5 c 0,-0.39763 -0.15828,-0.77938 -0.43945,-1.06055 a 0.50005,0.50005 0 0 0 -0.35938,-0.15234 z" fill="#000" transform="translate(11.0,5.0) translate(-184.0,-344.0)" /><path d="m 390.49219,273.99219 a 0.50005,0.50005 0 0 0 -0.0488,0.004 0.50005,0.50005 0 0 0 -0.0605,0.01 0.50005,0.50005 0 0 0 -0.38281,0.5625 v 4.86133 a 0.50005,0.50005 0 0 0 0,0.1582 v 0.73633 l -3.89062,4.86328 a 0.50024018,0.50024018 0 1 0 0.78124,0.625 l 3.1093,-3.889 v 3.50586 a 0.50005,0.50005 0 0 0 0.45508,0.57617 0.50005,0.50005 0 0 0 0.0527,0.002 0.50005,0.50005 0 0 0 0.0488,-0.004 0.50005,0.50005 0 0 0 0.33984,-0.19141 0.50005,0.50005 0 0 0 0.004,-0.006 L 392,284.70703 V 285.5 a 0.50005,0.50005 0 1 0 1,0 v -1.94336 a 0.50005,0.50005 0 0 0 0,-0.12305 v -0.83984 a 0.50005,0.50005 0 0 0 0,-0.16797 v -0.5 l 3.10938,3.88672 a 0.50024018,0.50024018 0 1 0 0.78124,-0.625 L 393,280.32422 v -2.76758 a 0.50005,0.50005 0 0 0 0,-0.12305 v -0.83984 a 0.50005,0.50005 0 0 0 0,-0.16797 V 274.5 A 0.50005,0.50005 0 0 0 392.49219,273.99219 0.50005,0.50005 0 0 0 392,274.5 v 0.79297 l -1.10156,-1.10156 a 0.50005,0.50005 0 0 0 -0.40625,-0.19922 z m 0.50781,1.71484 1,1 v 0.58594 l -1,1 z m 1,3 v 1.72266 a 0.50005,0.50005 0 0 0 0,0.13281 v 0.73047 l -1,-1 v -0.58594 z m -1,3 1,1 v 0.58594 l -1,1 z" fill="#000" transform="translate(8.0,8.0) translate(-392.0,-280.0)" /><path d="m 167.38477,340.87305 a 0.50005,0.50005 0 0 0 -0.35938,0.15234 C 166.36915,341.68163 166,342.57193 166,343.5 c 0,0.92807 0.36915,1.81837 1.02539,2.47461 a 0.50005,0.50005 0 1 0 0.70703,-0.70703 C 167.26345,344.7986 167,344.16323 167,343.5 c 0,-0.66323 0.26345,-1.2986 0.73242,-1.76758 a 0.50005,0.50005 0 0 0 -0.34765,-0.85937 z m 1.41406,1.41406 a 0.50005,0.50005 0 0 0 -0.35938,0.15234 C 168.15828,342.72062 168,343.10237 168,343.5 c 0,0.39763 0.15828,0.77938 0.43945,1.06055 a 0.50005,0.50005 0 1 0 0.70703,-0.70703 C 169.0526,343.75961 169,343.6328 169,343.5 c 0,-0.1328 0.0526,-0.25961 0.14648,-0.35352 a 0.50005,0.50005 0 0 0 -0.34765,-0.85937 z" fill="#000" transform="translate(4.0,5.0) translate(-168.0,-344.0)" /><path d="m 184.61523,340.87305 a 0.50005,0.50005 0 0 0 -0.34765,0.85937 C 184.73655,342.2014 185,342.83677 185,343.5 c 0,0.66323 -0.26345,1.2986 -0.73242,1.76758 a 0.50005,0.50005 0 1 0 0.70703,0.70703 C 185.63085,345.31837 186,344.42807 186,343.5 c 0,-0.92807 -0.36915,-1.81837 -1.02539,-2.47461 a 0.50005,0.50005 0 0 0 -0.35938,-0.15234 z m -1.41406,1.41406 a 0.50005,0.50005 0 0 0 -0.34765,0.85937 C 182.94742,343.24038 183,343.3672 183,343.5 c 0,0.1328 -0.0526,0.25961 -0.14648,0.35352 a 0.50005,0.50005 0 1 0 0.70703,0.70703 C 183.84172,344.27938 184,343.89763 184,343.5 c 0,-0.39763 -0.15828,-0.77938 -0.43945,-1.06055 a 0.50005,0.50005 0 0 0 -0.35938,-0.15234 z" fill="#000" transform="translate(11.0,5.0) translate(-184.0,-344.0)" /></svg>