<?xml version="1.0" encoding="utf-8" ?>
<svg baseProfile="full" height="16" version="1.1" width="16" xmlns="http://www.w3.org/2000/svg" xmlns:ev="http://www.w3.org/2001/xml-events" xmlns:xlink="http://www.w3.org/1999/xlink"><defs /><path d="m 374.49219,273.99219 a 0.50005,0.50005 0 0 0 -0.0488,0.004 0.50005,0.50005 0 0 0 -0.0605,0.01 0.50005,0.50005 0 0 0 -0.38281,0.5625 v 3.93164 0.92969 a 0.50005,0.50005 0 0 0 0,0.1582 v 0.83789 a 0.50005,0.50005 0 0 0 0,0.14258 v 0.93164 3.92969 a 0.50005,0.50005 0 0 0 0.45508,0.57617 0.50005,0.50005 0 0 0 0.0527,0.002 0.50005,0.50005 0 0 0 0.0488,-0.004 0.50005,0.50005 0 0 0 0.33984,-0.19141 0.50005,0.50005 0 0 0 0.004,-0.006 L 376,284.70703 V 285.5 a 0.50005,0.50005 0 1 0 1,0 v -1.94336 a 0.50005,0.50005 0 0 0 0,-0.12305 v -0.83984 a 0.50005,0.50005 0 0 0 0,-0.16797 V 281.5 v -3 -0.94336 a 0.50005,0.50005 0 0 0 0,-0.12305 v -0.83984 a 0.50005,0.50005 0 0 0 0,-0.16797 V 274.5 A 0.50005,0.50005 0 0 0 376.49219,273.99219 0.50005,0.50005 0 0 0 376,274.5 v 0.79297 l -1.10156,-1.10156 a 0.50005,0.50005 0 0 0 -0.40625,-0.19922 z m 0.50781,1.71484 1,1 v 0.58594 l -1,1 z m 1,3 v 2.58594 l -1,-1 v -0.58594 z m -1,3 1,1 v 0.58594 l -1,1 z" fill="#000" transform="translate(8.0,8.0) translate(-376.0,-280.0)" /><path d="m 230.47461,341 c -0.0825,0.004 -0.1642,0.0284 -0.23828,0.0742 -0.19729,0.12214 -0.28463,0.36396 -0.21094,0.58398 0.47892,1.43676 0.47892,2.24684 0,3.6836 -0.1672,0.5008 0.45504,0.8853 0.82813,0.51172 C 232.31423,344.3928 233.11111,344 234.5,344 a 0.5,0.5 0 0 0 0.5,-0.5 0.5,0.5 0 0 0 -0.5,-0.5 c -1.38889,0 -2.18577,-0.3928 -3.64648,-1.85352 -0.10249,-0.10282 -0.24137,-0.15307 -0.37891,-0.14648 z" fill="#000" transform="translate(4.0,5.0) translate(-232.0,-344.0)" /><path d="m 249.49609,341.00195 c -0.13051,6.3e-4 -0.256,0.0515 -0.34961,0.14453 -1.45158,1.4516 -2.24818,1.84862 -3.62109,1.85352 -0.009,3e-5 -0.0167,0 -0.0254,0 a 0.5,0.5 0 0 0 -0.5,0.5 0.5,0.5 0 0 0 0.5,0.5 c 1.38889,0 2.18577,0.3928 3.64648,1.85352 0.37309,0.37358 0.99533,-0.0109 0.82813,-0.51172 -0.47892,-1.43676 -0.47892,-2.24684 0,-3.6836 0.10014,-0.30272 -0.10481,-0.62058 -0.42188,-0.65429 -0.0187,-0.002 -0.038,-0.002 -0.0566,-0.002 z" fill="#000" transform="translate(11.0,5.0) translate(-248.0,-344.0)" /><path d="m 374.49219,273.99219 a 0.50005,0.50005 0 0 0 -0.0488,0.004 0.50005,0.50005 0 0 0 -0.0605,0.01 0.50005,0.50005 0 0 0 -0.38281,0.5625 v 3.93164 0.92969 a 0.50005,0.50005 0 0 0 0,0.1582 v 0.83789 a 0.50005,0.50005 0 0 0 0,0.14258 v 0.93164 3.92969 a 0.50005,0.50005 0 0 0 0.45508,0.57617 0.50005,0.50005 0 0 0 0.0527,0.002 0.50005,0.50005 0 0 0 0.0488,-0.004 0.50005,0.50005 0 0 0 0.33984,-0.19141 0.50005,0.50005 0 0 0 0.004,-0.006 L 376,284.70703 V 285.5 a 0.50005,0.50005 0 1 0 1,0 v -1.94336 a 0.50005,0.50005 0 0 0 0,-0.12305 v -0.83984 a 0.50005,0.50005 0 0 0 0,-0.16797 V 281.5 v -3 -0.94336 a 0.50005,0.50005 0 0 0 0,-0.12305 v -0.83984 a 0.50005,0.50005 0 0 0 0,-0.16797 V 274.5 A 0.50005,0.50005 0 0 0 376.49219,273.99219 0.50005,0.50005 0 0 0 376,274.5 v 0.79297 l -1.10156,-1.10156 a 0.50005,0.50005 0 0 0 -0.40625,-0.19922 z m 0.50781,1.71484 1,1 v 0.58594 l -1,1 z m 1,3 v 2.58594 l -1,-1 v -0.58594 z m -1,3 1,1 v 0.58594 l -1,1 z" fill="#000" transform="translate(8.0,8.0) translate(-376.0,-280.0)" /><path d="m 230.47461,341 c -0.0825,0.004 -0.1642,0.0284 -0.23828,0.0742 -0.19729,0.12214 -0.28463,0.36396 -0.21094,0.58398 0.47892,1.43676 0.47892,2.24684 0,3.6836 -0.1672,0.5008 0.45504,0.8853 0.82813,0.51172 C 232.31423,344.3928 233.11111,344 234.5,344 a 0.5,0.5 0 0 0 0.5,-0.5 0.5,0.5 0 0 0 -0.5,-0.5 c -1.38889,0 -2.18577,-0.3928 -3.64648,-1.85352 -0.10249,-0.10282 -0.24137,-0.15307 -0.37891,-0.14648 z" fill="#000" transform="translate(4.0,5.0) translate(-232.0,-344.0)" /><path d="m 249.49609,341.00195 c -0.13051,6.3e-4 -0.256,0.0515 -0.34961,0.14453 -1.45158,1.4516 -2.24818,1.84862 -3.62109,1.85352 -0.009,3e-5 -0.0167,0 -0.0254,0 a 0.5,0.5 0 0 0 -0.5,0.5 0.5,0.5 0 0 0 0.5,0.5 c 1.38889,0 2.18577,0.3928 3.64648,1.85352 0.37309,0.37358 0.99533,-0.0109 0.82813,-0.51172 -0.47892,-1.43676 -0.47892,-2.24684 0,-3.6836 0.10014,-0.30272 -0.10481,-0.62058 -0.42188,-0.65429 -0.0187,-0.002 -0.038,-0.002 -0.0566,-0.002 z" fill="#000" transform="translate(11.0,5.0) translate(-248.0,-344.0)" /></svg>