<?xml version="1.0" encoding="utf-8" ?>
<svg baseProfile="full" height="16" version="1.1" width="16" xmlns="http://www.w3.org/2000/svg" xmlns:ev="http://www.w3.org/2001/xml-events" xmlns:xlink="http://www.w3.org/1999/xlink"><defs /><path d="m 237,219 -1.5,-1 H 235 l 1.5,-1.5 0.5,-2.5 -2.5,0.5 -0.5,0.5 v -2 l -2,-2.5 -2,2.5 v 2 l -0.5,-0.5 -2.5,-0.5 0.5,2.5 1.5,1.5 h -0.5 l -1.5,1 2,1 2.5,-0.5 -0.5,1.5 h 2 l -0.5,-1.5 2.5,0.5 z" fill="#000" transform="translate(8.0,8.0) translate(-232.0,-216.0)" /><path d="m 237,219 -1.5,-1 H 235 l 1.5,-1.5 0.5,-2.5 -2.5,0.5 -0.5,0.5 v -2 l -2,-2.5 -2,2.5 v 2 l -0.5,-0.5 -2.5,-0.5 0.5,2.5 1.5,1.5 h -0.5 l -1.5,1 2,1 2.5,-0.5 -0.5,1.5 h 2 l -0.5,-1.5 2.5,0.5 z" fill="#000" transform="translate(8.0,8.0) translate(-232.0,-216.0)" /></svg>