<?xml version="1.0" encoding="utf-8" ?>
<svg baseProfile="full" height="16" version="1.1" width="16" xmlns="http://www.w3.org/2000/svg" xmlns:ev="http://www.w3.org/2001/xml-events" xmlns:xlink="http://www.w3.org/1999/xlink"><defs /><path d="m 520,338 a 6,6 0 0 0 -6,6 6,6 0 0 0 6,6 6,6 0 0 0 6,-6 6,6 0 0 0 -6,-6 z m 0,1 a 5,5 0 0 1 5,5 h -2 a 3,3 0 0 0 -3,-3 z m 0,3 a 2,2 0 0 1 2,2 2,2 0 0 1 -2,2 2,2 0 0 1 -2,-2 2,2 0 0 1 2,-2 z m -5,2 h 2 a 3,3 0 0 0 3,3 v 2 a 5,5 0 0 1 -5,-5 z" fill="#000" transform="translate(8.0,8.0) translate(-520.0,-344.0)" /><path d="m 520,338 a 6,6 0 0 0 -6,6 6,6 0 0 0 6,6 6,6 0 0 0 6,-6 6,6 0 0 0 -6,-6 z m 0,1 a 5,5 0 0 1 5,5 h -2 a 3,3 0 0 0 -3,-3 z m 0,3 a 2,2 0 0 1 2,2 2,2 0 0 1 -2,2 2,2 0 0 1 -2,-2 2,2 0 0 1 2,-2 z m -5,2 h 2 a 3,3 0 0 0 3,3 v 2 a 5,5 0 0 1 -5,-5 z" fill="#000" transform="translate(8.0,8.0) translate(-520.0,-344.0)" /></svg>