<?xml version="1.0" encoding="utf-8" ?>
<svg baseProfile="full" height="16" version="1.1" width="16" xmlns="http://www.w3.org/2000/svg" xmlns:ev="http://www.w3.org/2001/xml-events" xmlns:xlink="http://www.w3.org/1999/xlink"><defs /><path d="m 200,402 c -1.65685,0 -3,1.34315 -3,3 v 2 c -0.554,0 -1,0.446 -1,1 v 4 c 0,0.554 0.446,1 1,1 h 6 c 0.554,0 1,-0.446 1,-1 v -4 c 0,-0.554 -0.446,-1 -1,-1 v -2 c 0,-1.65685 -1.34315,-3 -3,-3 z m 0,1 c 1.10457,0 2,0.89543 2,2 v 2 h -4 v -2 c 0,-1.10457 0.89543,-2 2,-2 z" fill="#000" transform="translate(8.0,8.0) translate(-200.0,-408.0)" /><path d="m 200,402 c -1.65685,0 -3,1.34315 -3,3 v 2 c -0.554,0 -1,0.446 -1,1 v 4 c 0,0.554 0.446,1 1,1 h 6 c 0.554,0 1,-0.446 1,-1 v -4 c 0,-0.554 -0.446,-1 -1,-1 v -2 c 0,-1.65685 -1.34315,-3 -3,-3 z m 0,1 c 1.10457,0 2,0.89543 2,2 v 2 h -4 v -2 c 0,-1.10457 0.89543,-2 2,-2 z" fill="#000" transform="translate(8.0,8.0) translate(-200.0,-408.0)" /></svg>