<?xml version="1.0" encoding="utf-8" ?>
<svg baseProfile="full" height="16" version="1.1" width="16" xmlns="http://www.w3.org/2000/svg" xmlns:ev="http://www.w3.org/2001/xml-events" xmlns:xlink="http://www.w3.org/1999/xlink"><defs /><path d="m 184,402 a 3,3 0 0 0 -3,3 v 2 c -0.554,0 -1,0.446 -1,1 v 4 c 0,0.554 0.446,1 1,1 h 6 c 0.554,0 1,-0.446 1,-1 v -4 c 0,-0.554 -0.446,-1 -1,-1 v -2 a 3,3 0 0 0 -3,-3 z m 0,1 a 2,2 0 0 1 2,2 v 2 h -4 v -2 a 2,2 0 0 1 2,-2 z m 0,5.5 a 1,1 0 0 1 1,1 1,1 0 0 1 -0.5,0.86523 V 411.5 c 0,0.277 -0.223,0.5 -0.5,0.5 -0.277,0 -0.5,-0.223 -0.5,-0.5 v -1.13672 A 1,1 0 0 1 183,409.5 a 1,1 0 0 1 1,-1 z" fill="#000" transform="translate(8.0,8.0) translate(-184.0,-408.0)" /><path d="m 184,402 a 3,3 0 0 0 -3,3 v 2 c -0.554,0 -1,0.446 -1,1 v 4 c 0,0.554 0.446,1 1,1 h 6 c 0.554,0 1,-0.446 1,-1 v -4 c 0,-0.554 -0.446,-1 -1,-1 v -2 a 3,3 0 0 0 -3,-3 z m 0,1 a 2,2 0 0 1 2,2 v 2 h -4 v -2 a 2,2 0 0 1 2,-2 z m 0,5.5 a 1,1 0 0 1 1,1 1,1 0 0 1 -0.5,0.86523 V 411.5 c 0,0.277 -0.223,0.5 -0.5,0.5 -0.277,0 -0.5,-0.223 -0.5,-0.5 v -1.13672 A 1,1 0 0 1 183,409.5 a 1,1 0 0 1 1,-1 z" fill="#000" transform="translate(8.0,8.0) translate(-184.0,-408.0)" /></svg>