<?xml version="1.0" encoding="utf-8" ?>
<svg baseProfile="full" height="16" version="1.1" width="16" xmlns="http://www.w3.org/2000/svg" xmlns:ev="http://www.w3.org/2001/xml-events" xmlns:xlink="http://www.w3.org/1999/xlink"><defs /><path d="m 625.5,534 c -0.277,0 -0.5,0.223 -0.5,0.5 v 2 c 0,0.277 0.223,0.5 0.5,0.5 h 1 11 1 c 0.277,0 0.5,-0.223 0.5,-0.5 v -2 c 0,-0.277 -0.223,-0.5 -0.5,-0.5 h -1 c -3.5,0 -1.5,2 -5.5,2 -4,0 -2,-2 -5.5,-2 z" fill="#000" transform="translate(8.0,8.0) translate(-632.0,-536.0)" /><path d="m 625.5,534 c -0.277,0 -0.5,0.223 -0.5,0.5 v 2 c 0,0.277 0.223,0.5 0.5,0.5 h 1 11 1 c 0.277,0 0.5,-0.223 0.5,-0.5 v -2 c 0,-0.277 -0.223,-0.5 -0.5,-0.5 h -1 c -3.5,0 -1.5,2 -5.5,2 -4,0 -2,-2 -5.5,-2 z" fill="#000" transform="translate(8.0,8.0) translate(-632.0,-536.0)" /></svg>