<?xml version="1.0" encoding="utf-8" ?>
<svg baseProfile="full" height="16" version="1.1" width="16" xmlns="http://www.w3.org/2000/svg" xmlns:ev="http://www.w3.org/2001/xml-events" xmlns:xlink="http://www.w3.org/1999/xlink"><defs /><path d="m 743.49805,51.244141 c -2.16279,1.55e-4 -4.32484,0.258269 -6.13477,0.77539 -0.007,0.0037 -0.0144,0.0076 -0.0215,0.01172 -0.0357,0.01302 -0.0697,0.03005 -0.10157,0.05078 -0.0234,0.0138 -0.0456,0.02947 -0.0664,0.04687 -0.028,0.02634 -0.0529,0.05584 -0.0742,0.08789 -0.0151,0.01915 -0.0288,0.03939 -0.041,0.06055 -0.0168,0.03614 -0.0293,0.07418 -0.0371,0.113281 -0.007,0.02558 -0.0125,0.0517 -0.0156,0.07813 -0.002,0.01035 -0.004,0.02077 -0.006,0.03125 0.003,0.02505 0.007,0.04986 0.0137,0.07422 6.4e-4,0.02094 0.003,0.04181 0.006,0.0625 0.004,0.0073 0.008,0.01442 0.0117,0.02148 0.013,0.03567 0.03,0.06975 0.0508,0.101563 0.0138,0.02337 0.0295,0.04558 0.0469,0.06641 0.0263,0.02804 0.0558,0.05294 0.0879,0.07422 0.0191,0.01513 0.0394,0.02884 0.0605,0.04102 0.0362,0.01684 0.0742,0.0293 0.11328,0.03711 0.0256,0.0073 0.0517,0.0125 0.0781,0.01563 0.0104,0.0023 0.0208,0.0042 0.0312,0.0059 h 0.69141 l 1.86132,3.722656 C 740.13719,56.892372 740.31039,56.99983 740.5,57 h 6 c 0.18961,-1.7e-4 0.36282,-0.107573 0.44727,-0.277344 L 748.80859,53 H 749.5 c 0.0105,-0.0016 0.0209,-0.0036 0.0312,-0.0059 0.0264,-0.0031 0.0525,-0.0083 0.0781,-0.01563 0.0391,-0.0078 0.0771,-0.02027 0.11328,-0.03711 0.0212,-0.01218 0.0414,-0.02587 0.0605,-0.04102 0.0321,-0.02128 0.0616,-0.04618 0.0879,-0.07422 0.0174,-0.02083 0.0331,-0.04303 0.0469,-0.06641 0.0207,-0.03182 0.0378,-0.06589 0.0508,-0.101563 0.004,-0.0071 0.008,-0.01423 0.0117,-0.02148 0.0125,-0.04319 0.019,-0.08787 0.0195,-0.132813 10e-6,-0.0013 10e-6,-0.0026 0,-0.0039 10e-6,-0.0013 10e-6,-0.0026 0,-0.0039 -1.1e-4,-0.02485 -0.002,-0.04966 -0.006,-0.07422 -0.002,-0.0085 -0.004,-0.01698 -0.006,-0.02539 -0.004,-0.01716 -0.008,-0.03411 -0.0137,-0.05078 -0.008,-0.02276 -0.0167,-0.04496 -0.0273,-0.06641 -6.4e-4,-0.002 -9.6e-4,-0.0039 -0.002,-0.0059 -0.004,-0.0059 -0.008,-0.0118 -0.0117,-0.01758 -0.007,-0.01403 -0.015,-0.02772 -0.0234,-0.04102 l -0.006,-0.0078 c -0.004,-0.0046 -0.008,-0.0092 -0.0117,-0.01367 -0.009,-0.01216 -0.019,-0.02389 -0.0293,-0.03516 -0.003,-0.004 -0.006,-0.0079 -0.01,-0.01172 -0.004,-0.0033 -0.008,-0.0066 -0.0117,-0.0098 -0.0119,-0.01101 -0.0242,-0.02144 -0.0371,-0.03125 -0.004,-0.0033 -0.008,-0.0066 -0.0117,-0.0098 -0.009,-0.0062 -0.0181,-0.01202 -0.0273,-0.01758 -0.0127,-0.0084 -0.0257,-0.01622 -0.0391,-0.02344 -0.003,-0.0013 -0.006,-0.0026 -0.01,-0.0039 -0.0184,-0.009 -0.0373,-0.01679 -0.0566,-0.02344 -0.002,-6.63e-4 -0.006,-0.0013 -0.008,-0.002 -10e-4,-5e-6 -0.003,-5e-6 -0.004,0 -0.005,-0.002 -0.009,-0.004 -0.0137,-0.0059 -1.80993,-0.517121 -3.97198,-0.775235 -6.13477,-0.77539 z M 739,58 a 1,1 0 0 0 -1,1 1,1 0 0 0 1,1 1,1 0 0 0 1,-1 1,1 0 0 0 -1,-1 z m 3,0 a 1,1 0 0 0 -1,1 1,1 0 0 0 1,1 1,1 0 0 0 1,-1 1,1 0 0 0 -1,-1 z m 3,0 a 1,1 0 0 0 -1,1 1,1 0 0 0 1,1 1,1 0 0 0 1,-1 1,1 0 0 0 -1,-1 z m 3,0 a 1,1 0 0 0 -1,1 1,1 0 0 0 1,1 1,1 0 0 0 1,-1 1,1 0 0 0 -1,-1 z" fill="#000" transform="translate(8.0,8.0) translate(-744.0,-56.0)" /><path d="m 743.49805,51.244141 c -2.16279,1.55e-4 -4.32484,0.258269 -6.13477,0.77539 -0.007,0.0037 -0.0144,0.0076 -0.0215,0.01172 -0.0357,0.01302 -0.0697,0.03005 -0.10157,0.05078 -0.0234,0.0138 -0.0456,0.02947 -0.0664,0.04687 -0.028,0.02634 -0.0529,0.05584 -0.0742,0.08789 -0.0151,0.01915 -0.0288,0.03939 -0.041,0.06055 -0.0168,0.03614 -0.0293,0.07418 -0.0371,0.113281 -0.007,0.02558 -0.0125,0.0517 -0.0156,0.07813 -0.002,0.01035 -0.004,0.02077 -0.006,0.03125 0.003,0.02505 0.007,0.04986 0.0137,0.07422 6.4e-4,0.02094 0.003,0.04181 0.006,0.0625 0.004,0.0073 0.008,0.01442 0.0117,0.02148 0.013,0.03567 0.03,0.06975 0.0508,0.101563 0.0138,0.02337 0.0295,0.04558 0.0469,0.06641 0.0263,0.02804 0.0558,0.05294 0.0879,0.07422 0.0191,0.01513 0.0394,0.02884 0.0605,0.04102 0.0362,0.01684 0.0742,0.0293 0.11328,0.03711 0.0256,0.0073 0.0517,0.0125 0.0781,0.01563 0.0104,0.0023 0.0208,0.0042 0.0312,0.0059 h 0.69141 l 1.86132,3.722656 C 740.13719,56.892372 740.31039,56.99983 740.5,57 h 6 c 0.18961,-1.7e-4 0.36282,-0.107573 0.44727,-0.277344 L 748.80859,53 H 749.5 c 0.0105,-0.0016 0.0209,-0.0036 0.0312,-0.0059 0.0264,-0.0031 0.0525,-0.0083 0.0781,-0.01563 0.0391,-0.0078 0.0771,-0.02027 0.11328,-0.03711 0.0212,-0.01218 0.0414,-0.02587 0.0605,-0.04102 0.0321,-0.02128 0.0616,-0.04618 0.0879,-0.07422 0.0174,-0.02083 0.0331,-0.04303 0.0469,-0.06641 0.0207,-0.03182 0.0378,-0.06589 0.0508,-0.101563 0.004,-0.0071 0.008,-0.01423 0.0117,-0.02148 0.0125,-0.04319 0.019,-0.08787 0.0195,-0.132813 10e-6,-0.0013 10e-6,-0.0026 0,-0.0039 10e-6,-0.0013 10e-6,-0.0026 0,-0.0039 -1.1e-4,-0.02485 -0.002,-0.04966 -0.006,-0.07422 -0.002,-0.0085 -0.004,-0.01698 -0.006,-0.02539 -0.004,-0.01716 -0.008,-0.03411 -0.0137,-0.05078 -0.008,-0.02276 -0.0167,-0.04496 -0.0273,-0.06641 -6.4e-4,-0.002 -9.6e-4,-0.0039 -0.002,-0.0059 -0.004,-0.0059 -0.008,-0.0118 -0.0117,-0.01758 -0.007,-0.01403 -0.015,-0.02772 -0.0234,-0.04102 l -0.006,-0.0078 c -0.004,-0.0046 -0.008,-0.0092 -0.0117,-0.01367 -0.009,-0.01216 -0.019,-0.02389 -0.0293,-0.03516 -0.003,-0.004 -0.006,-0.0079 -0.01,-0.01172 -0.004,-0.0033 -0.008,-0.0066 -0.0117,-0.0098 -0.0119,-0.01101 -0.0242,-0.02144 -0.0371,-0.03125 -0.004,-0.0033 -0.008,-0.0066 -0.0117,-0.0098 -0.009,-0.0062 -0.0181,-0.01202 -0.0273,-0.01758 -0.0127,-0.0084 -0.0257,-0.01622 -0.0391,-0.02344 -0.003,-0.0013 -0.006,-0.0026 -0.01,-0.0039 -0.0184,-0.009 -0.0373,-0.01679 -0.0566,-0.02344 -0.002,-6.63e-4 -0.006,-0.0013 -0.008,-0.002 -10e-4,-5e-6 -0.003,-5e-6 -0.004,0 -0.005,-0.002 -0.009,-0.004 -0.0137,-0.0059 -1.80993,-0.517121 -3.97198,-0.775235 -6.13477,-0.77539 z M 739,58 a 1,1 0 0 0 -1,1 1,1 0 0 0 1,1 1,1 0 0 0 1,-1 1,1 0 0 0 -1,-1 z m 3,0 a 1,1 0 0 0 -1,1 1,1 0 0 0 1,1 1,1 0 0 0 1,-1 1,1 0 0 0 -1,-1 z m 3,0 a 1,1 0 0 0 -1,1 1,1 0 0 0 1,1 1,1 0 0 0 1,-1 1,1 0 0 0 -1,-1 z m 3,0 a 1,1 0 0 0 -1,1 1,1 0 0 0 1,1 1,1 0 0 0 1,-1 1,1 0 0 0 -1,-1 z" fill="#000" transform="translate(8.0,8.0) translate(-744.0,-56.0)" /></svg>