<?xml version="1.0" encoding="utf-8" ?>
<svg baseProfile="full" height="16" version="1.1" width="16" xmlns="http://www.w3.org/2000/svg" xmlns:ev="http://www.w3.org/2001/xml-events" xmlns:xlink="http://www.w3.org/1999/xlink"><defs /><path d="m 54.5,401 c -0.277,0 -0.5,0.223 -0.5,0.5 0,0.27614 -0.22386,0.5 -0.5,0.5 h -1 c -0.277,0 -0.5,0.223 -0.5,0.5 0,0.277 0.223,0.5 0.5,0.5 h 2 3 2 c 0.277,0 0.5,-0.223 0.5,-0.5 0,-0.277 -0.223,-0.5 -0.5,-0.5 h -1 c -0.27614,0 -0.5,-0.22386 -0.5,-0.5 0,-0.277 -0.223,-0.5 -0.5,-0.5 z m -1,3 c -0.277,0 -0.5,0.223 -0.5,0.5 v 9 c 0,0.277 0.223,0.5 0.5,0.5 h 5 c 0.277,0 0.5,-0.223 0.5,-0.5 v -9 c 0,-0.277 -0.223,-0.5 -0.5,-0.5 z m 1,4 h 2 c 0.277,0 0.5,0.223 0.5,0.5 0,0.277 -0.223,0.5 -0.5,0.5 H 55 v 0.5 c 0,0.277 -0.223,0.5 -0.5,0.5 -0.277,0 -0.5,-0.223 -0.5,-0.5 v -1 c 0,-0.277 0.223,-0.5 0.5,-0.5 z" fill="#000" transform="translate(8.0,8.0) translate(-56.0,-408.0)" /><path d="m 54.5,401 c -0.277,0 -0.5,0.223 -0.5,0.5 0,0.27614 -0.22386,0.5 -0.5,0.5 h -1 c -0.277,0 -0.5,0.223 -0.5,0.5 0,0.277 0.223,0.5 0.5,0.5 h 2 3 2 c 0.277,0 0.5,-0.223 0.5,-0.5 0,-0.277 -0.223,-0.5 -0.5,-0.5 h -1 c -0.27614,0 -0.5,-0.22386 -0.5,-0.5 0,-0.277 -0.223,-0.5 -0.5,-0.5 z m -1,3 c -0.277,0 -0.5,0.223 -0.5,0.5 v 9 c 0,0.277 0.223,0.5 0.5,0.5 h 5 c 0.277,0 0.5,-0.223 0.5,-0.5 v -9 c 0,-0.277 -0.223,-0.5 -0.5,-0.5 z m 1,4 h 2 c 0.277,0 0.5,0.223 0.5,0.5 0,0.277 -0.223,0.5 -0.5,0.5 H 55 v 0.5 c 0,0.277 -0.223,0.5 -0.5,0.5 -0.277,0 -0.5,-0.223 -0.5,-0.5 v -1 c 0,-0.277 0.223,-0.5 0.5,-0.5 z" fill="#000" transform="translate(8.0,8.0) translate(-56.0,-408.0)" /></svg>