<?xml version="1.0" encoding="utf-8" ?>
<svg baseProfile="full" height="16" version="1.1" width="16" xmlns="http://www.w3.org/2000/svg" xmlns:ev="http://www.w3.org/2001/xml-events" xmlns:xlink="http://www.w3.org/1999/xlink"><defs /><path d="m 484,113 -3,3 h 3 l 2,-3 z m 3,0 -1,3 h 3 l -1,-3 z m 2,0 2,3 h 3 l -3,-3 z m -8,4 c 0,0.554 0.446,1 1,1 h 1 c 0.554,0 1,-0.446 1,-1 z m 5,0 c 0,0.554 0.446,1 1,1 h 1 c 0.554,0 1,-0.446 1,-1 z m 5,0 c 0,0.554 0.446,1 1,1 h 1 c 0.554,0 1,-0.446 1,-1 z m -9,2 v 6 h -0.5 c -0.277,0 -0.5,0.223 -0.5,0.5 0,0.277 0.223,0.5 0.5,0.5 h 0.5 v 1 h 1 v -1 h 9 v 1 h 1 v -1 h 0.5 c 0.277,0 0.5,-0.223 0.5,-0.5 0,-0.277 -0.223,-0.5 -0.5,-0.5 H 493 v -6 h -1 v 6 h -9 v -6 z m 3.5,2 -0.5,1 h 2 v -1 z m 2.5,0 v 1 h 2 l -0.5,-1 z m -3.5,2 -0.5,1 h 3 v -1 z m 3.5,0 v 1 h 3 l -0.5,-1 z" fill="#000" transform="translate(8.0,8.0) translate(-488.0,-120.0)" /><path d="m 484,113 -3,3 h 3 l 2,-3 z m 3,0 -1,3 h 3 l -1,-3 z m 2,0 2,3 h 3 l -3,-3 z m -8,4 c 0,0.554 0.446,1 1,1 h 1 c 0.554,0 1,-0.446 1,-1 z m 5,0 c 0,0.554 0.446,1 1,1 h 1 c 0.554,0 1,-0.446 1,-1 z m 5,0 c 0,0.554 0.446,1 1,1 h 1 c 0.554,0 1,-0.446 1,-1 z m -9,2 v 6 h -0.5 c -0.277,0 -0.5,0.223 -0.5,0.5 0,0.277 0.223,0.5 0.5,0.5 h 0.5 v 1 h 1 v -1 h 9 v 1 h 1 v -1 h 0.5 c 0.277,0 0.5,-0.223 0.5,-0.5 0,-0.277 -0.223,-0.5 -0.5,-0.5 H 493 v -6 h -1 v 6 h -9 v -6 z m 3.5,2 -0.5,1 h 2 v -1 z m 2.5,0 v 1 h 2 l -0.5,-1 z m -3.5,2 -0.5,1 h 3 v -1 z m 3.5,0 v 1 h 3 l -0.5,-1 z" fill="#000" transform="translate(8.0,8.0) translate(-488.0,-120.0)" /></svg>