<?xml version="1.0" encoding="utf-8" ?>
<svg baseProfile="full" height="16" version="1.1" width="16" xmlns="http://www.w3.org/2000/svg" xmlns:ev="http://www.w3.org/2001/xml-events" xmlns:xlink="http://www.w3.org/1999/xlink"><defs /><path d="m 138,594 c -0.554,0 -1,0.446 -1,1 0,0.554 0.446,1 1,1 0.554,0 1,-0.446 1,-1 0,-0.554 -0.446,-1 -1,-1 z m 0.99414,2.5 c -0.0753,10e-4 -0.14942,0.019 -0.2168,0.0527 l -0.97656,0.48829 c -0.0785,0.0351 -0.149,0.0867 -0.20117,0.1582 L 136.25,599 h -0.75 c -0.67616,-0.01 -0.67616,1.00956 0,1 h 1 c 0.15738,3e-4 0.30571,-0.0735 0.40039,-0.19922 0.26259,-0.32959 0.50793,-0.61909 0.72656,-0.89258 l 0.14063,1.54883 2.04687,0.29102 -0.3164,-3.78907 c -0.0215,-0.2615 -0.24154,-0.46189 -0.50391,-0.45898 z m -4.51758,4.49414 c -0.18239,0.01 -0.34488,0.11848 -0.42383,0.2832 l -0.5,1 L 132.69141,604 H 131.5 c -0.67616,-0.01 -0.67616,1.00956 0,1 h 1.5 c 0.18961,-1.7e-4 0.36282,-0.10758 0.44727,-0.27734 L 134.30859,603 H 141 v -1.07617 l -6.42969,-0.91797 c -0.0181,-0.003 -0.0364,-0.003 -0.0547,-0.004 -0.014,-4e-4 -0.0247,-0.009 -0.0391,-0.008 z M 132,601 c -0.554,0 -1,0.446 -1,1 0,0.554 0.446,1 1,1 0.554,0 1,-0.446 1,-1 0,-0.554 -0.446,-1 -1,-1 z m 3.5,3 c -0.277,0 -0.5,0.223 -0.5,0.5 0,0.277 0.223,0.5 0.5,0.5 h 5.5 v -1 z" fill="#000" transform="translate(8.0,8.0) translate(-136.0,-600.0)" /><path d="m 138,594 c -0.554,0 -1,0.446 -1,1 0,0.554 0.446,1 1,1 0.554,0 1,-0.446 1,-1 0,-0.554 -0.446,-1 -1,-1 z m 0.99414,2.5 c -0.0753,10e-4 -0.14942,0.019 -0.2168,0.0527 l -0.97656,0.48829 c -0.0785,0.0351 -0.149,0.0867 -0.20117,0.1582 L 136.25,599 h -0.75 c -0.67616,-0.01 -0.67616,1.00956 0,1 h 1 c 0.15738,3e-4 0.30571,-0.0735 0.40039,-0.19922 0.26259,-0.32959 0.50793,-0.61909 0.72656,-0.89258 l 0.14063,1.54883 2.04687,0.29102 -0.3164,-3.78907 c -0.0215,-0.2615 -0.24154,-0.46189 -0.50391,-0.45898 z m -4.51758,4.49414 c -0.18239,0.01 -0.34488,0.11848 -0.42383,0.2832 l -0.5,1 L 132.69141,604 H 131.5 c -0.67616,-0.01 -0.67616,1.00956 0,1 h 1.5 c 0.18961,-1.7e-4 0.36282,-0.10758 0.44727,-0.27734 L 134.30859,603 H 141 v -1.07617 l -6.42969,-0.91797 c -0.0181,-0.003 -0.0364,-0.003 -0.0547,-0.004 -0.014,-4e-4 -0.0247,-0.009 -0.0391,-0.008 z M 132,601 c -0.554,0 -1,0.446 -1,1 0,0.554 0.446,1 1,1 0.554,0 1,-0.446 1,-1 0,-0.554 -0.446,-1 -1,-1 z m 3.5,3 c -0.277,0 -0.5,0.223 -0.5,0.5 0,0.277 0.223,0.5 0.5,0.5 h 5.5 v -1 z" fill="#000" transform="translate(8.0,8.0) translate(-136.0,-600.0)" /></svg>