<?xml version="1.0" encoding="utf-8" ?>
<svg baseProfile="full" height="16" version="1.1" width="16" xmlns="http://www.w3.org/2000/svg" xmlns:ev="http://www.w3.org/2001/xml-events" xmlns:xlink="http://www.w3.org/1999/xlink"><defs /><path d="m 131.5,179 c -0.27613,3e-5 -0.49997,0.22387 -0.5,0.5 v 8 c 3e-5,0.27613 0.22387,0.49997 0.5,0.5 h 8 c 0.0595,-6.4e-4 0.11832,-0.0119 0.17383,-0.0332 0.009,-0.003 0.017,-0.006 0.0254,-0.01 0.0527,-0.0234 0.10093,-0.0558 0.14258,-0.0957 0.007,-0.006 0.0132,-0.0128 0.0195,-0.0195 0.0399,-0.0417 0.0723,-0.0899 0.0957,-0.14258 0.004,-0.008 0.007,-0.0168 0.01,-0.0254 0.0212,-0.0555 0.0324,-0.11425 0.033,-0.17362 v -2 -2 c 0,-0.27614 -0.22386,-0.5 -0.5,-0.5 -0.27614,0 -0.5,0.22386 -0.5,0.5 v 2 1.5 h -3 v -1 h 1.5 c 0.27614,0 0.5,-0.22386 0.5,-0.5 0,-0.27614 -0.22386,-0.5 -0.5,-0.5 h -2 c -0.23356,-3.9e-4 -0.43628,0.16097 -0.48828,0.38867 -0.008,0.0366 -0.012,0.0739 -0.0117,0.11133 v 1.5 h -3 v -3 h 1 v 1.5 c 0,0.27614 0.22386,0.5 0.5,0.5 0.27614,0 0.5,-0.22386 0.5,-0.5 v -2 -2 c 0,-0.27614 -0.22386,-0.5 -0.5,-0.5 -0.27614,0 -0.5,0.22386 -0.5,0.5 v 1.5 h -1 v -3 h 7 v 1 h -1.5 c -0.0374,-2.8e-4 -0.0748,0.004 -0.11133,0.0117 -0.22771,0.052 -0.38907,0.25473 -0.38867,0.4883 v 1.5 h -1 v -1.5 c 0,-0.27614 -0.22386,-0.5 -0.5,-0.5 -0.27614,0 -0.5,0.22386 -0.5,0.5 v 2 c 0,0.27614 0.22386,0.5 0.5,0.5 h 2 c 0.0374,2.8e-4 0.0748,-0.004 0.11133,-0.0117 0.22771,-0.052 0.38907,-0.25473 0.38867,-0.4883 V 182 h 1.5 c 0.0595,-6.4e-4 0.11832,-0.0119 0.17383,-0.0332 0.009,-0.003 0.017,-0.006 0.0254,-0.01 0.0527,-0.0234 0.10093,-0.0558 0.14258,-0.0957 0.007,-0.006 0.0132,-0.0128 0.0195,-0.0195 0.0399,-0.0417 0.0723,-0.0899 0.0957,-0.14258 0.004,-0.008 0.007,-0.0168 0.01,-0.0254 0.0212,-0.0555 0.0324,-0.11425 0.033,-0.17362 v -2 c -3e-5,-0.27613 -0.22387,-0.49997 -0.5,-0.5 z" fill="#000" transform="translate(8.0,8.0) translate(-136.0,-184.0)" /><path d="m 131.5,179 c -0.27613,3e-5 -0.49997,0.22387 -0.5,0.5 v 8 c 3e-5,0.27613 0.22387,0.49997 0.5,0.5 h 8 c 0.0595,-6.4e-4 0.11832,-0.0119 0.17383,-0.0332 0.009,-0.003 0.017,-0.006 0.0254,-0.01 0.0527,-0.0234 0.10093,-0.0558 0.14258,-0.0957 0.007,-0.006 0.0132,-0.0128 0.0195,-0.0195 0.0399,-0.0417 0.0723,-0.0899 0.0957,-0.14258 0.004,-0.008 0.007,-0.0168 0.01,-0.0254 0.0212,-0.0555 0.0324,-0.11425 0.033,-0.17362 v -2 -2 c 0,-0.27614 -0.22386,-0.5 -0.5,-0.5 -0.27614,0 -0.5,0.22386 -0.5,0.5 v 2 1.5 h -3 v -1 h 1.5 c 0.27614,0 0.5,-0.22386 0.5,-0.5 0,-0.27614 -0.22386,-0.5 -0.5,-0.5 h -2 c -0.23356,-3.9e-4 -0.43628,0.16097 -0.48828,0.38867 -0.008,0.0366 -0.012,0.0739 -0.0117,0.11133 v 1.5 h -3 v -3 h 1 v 1.5 c 0,0.27614 0.22386,0.5 0.5,0.5 0.27614,0 0.5,-0.22386 0.5,-0.5 v -2 -2 c 0,-0.27614 -0.22386,-0.5 -0.5,-0.5 -0.27614,0 -0.5,0.22386 -0.5,0.5 v 1.5 h -1 v -3 h 7 v 1 h -1.5 c -0.0374,-2.8e-4 -0.0748,0.004 -0.11133,0.0117 -0.22771,0.052 -0.38907,0.25473 -0.38867,0.4883 v 1.5 h -1 v -1.5 c 0,-0.27614 -0.22386,-0.5 -0.5,-0.5 -0.27614,0 -0.5,0.22386 -0.5,0.5 v 2 c 0,0.27614 0.22386,0.5 0.5,0.5 h 2 c 0.0374,2.8e-4 0.0748,-0.004 0.11133,-0.0117 0.22771,-0.052 0.38907,-0.25473 0.38867,-0.4883 V 182 h 1.5 c 0.0595,-6.4e-4 0.11832,-0.0119 0.17383,-0.0332 0.009,-0.003 0.017,-0.006 0.0254,-0.01 0.0527,-0.0234 0.10093,-0.0558 0.14258,-0.0957 0.007,-0.006 0.0132,-0.0128 0.0195,-0.0195 0.0399,-0.0417 0.0723,-0.0899 0.0957,-0.14258 0.004,-0.008 0.007,-0.0168 0.01,-0.0254 0.0212,-0.0555 0.0324,-0.11425 0.033,-0.17362 v -2 c -3e-5,-0.27613 -0.22387,-0.49997 -0.5,-0.5 z" fill="#000" transform="translate(8.0,8.0) translate(-136.0,-184.0)" /></svg>