<?xml version="1.0" encoding="utf-8" ?>
<svg baseProfile="full" height="16" version="1.1" width="16" xmlns="http://www.w3.org/2000/svg" xmlns:ev="http://www.w3.org/2001/xml-events" xmlns:xlink="http://www.w3.org/1999/xlink"><defs /><path d="m 103,50 c -0.554,0 -1,0.446 -1,1 v 4 c 0,0.554 0.446,1 1,1 h 1 c 0.554,0 1,-0.446 1,-1 v -4 c 0,-0.554 -0.446,-1 -1,-1 z m -2.5,2.5 c -0.277,0 -0.5,0.223 -0.5,0.5 v 2 a 3,3 0 0 0 0.87891,2.12109 A 3,3 0 0 0 103,58 v 2 c 0,0.277 0.223,0.5 0.5,0.5 0.277,0 0.5,-0.223 0.5,-0.5 V 58 A 3,3 0 0 0 106.12109,57.12109 3,3 0 0 0 107,55 v -2 c 0,-0.277 -0.223,-0.5 -0.5,-0.5 -0.277,0 -0.5,0.223 -0.5,0.5 v 2 A 2,2 0 0 1 105.41406,56.41406 2,2 0 0 1 104,57 h -1 A 2,2 0 0 1 101.58594,56.41406 2,2 0 0 1 101,55 v -2 c 0,-0.277 -0.223,-0.5 -0.5,-0.5 z" fill="#000" transform="translate(8.0,8.0) translate(-104.0,-56.0)" /><path d="m 103,50 c -0.554,0 -1,0.446 -1,1 v 4 c 0,0.554 0.446,1 1,1 h 1 c 0.554,0 1,-0.446 1,-1 v -4 c 0,-0.554 -0.446,-1 -1,-1 z m -2.5,2.5 c -0.277,0 -0.5,0.223 -0.5,0.5 v 2 a 3,3 0 0 0 0.87891,2.12109 A 3,3 0 0 0 103,58 v 2 c 0,0.277 0.223,0.5 0.5,0.5 0.277,0 0.5,-0.223 0.5,-0.5 V 58 A 3,3 0 0 0 106.12109,57.12109 3,3 0 0 0 107,55 v -2 c 0,-0.277 -0.223,-0.5 -0.5,-0.5 -0.277,0 -0.5,0.223 -0.5,0.5 v 2 A 2,2 0 0 1 105.41406,56.41406 2,2 0 0 1 104,57 h -1 A 2,2 0 0 1 101.58594,56.41406 2,2 0 0 1 101,55 v -2 c 0,-0.277 -0.223,-0.5 -0.5,-0.5 z" fill="#000" transform="translate(8.0,8.0) translate(-104.0,-56.0)" /></svg>