<?xml version="1.0" encoding="utf-8" ?>
<svg baseProfile="full" height="16" version="1.1" width="16" xmlns="http://www.w3.org/2000/svg" xmlns:ev="http://www.w3.org/2001/xml-events" xmlns:xlink="http://www.w3.org/1999/xlink"><defs /><path d="m 664,562 a 3,3 0 0 0 -3,3 v 6 h -1 v 3 h 8 v -3 h -1 v -6 a 3,3 0 0 0 -3,-3 z m -2,3 h 4 v 2 h -4 z m 0,4 h 4 v 2 h -4 z" fill="#000" transform="translate(8.0,8.0) translate(-664.0,-568.0)" /><path d="m 664,562 a 3,3 0 0 0 -3,3 v 6 h -1 v 3 h 8 v -3 h -1 v -6 a 3,3 0 0 0 -3,-3 z m -2,3 h 4 v 2 h -4 z m 0,4 h 4 v 2 h -4 z" fill="#000" transform="translate(8.0,8.0) translate(-664.0,-568.0)" /></svg>