<?xml version="1.0" encoding="utf-8" ?>
<svg baseProfile="full" height="16" version="1.1" width="16" xmlns="http://www.w3.org/2000/svg" xmlns:ev="http://www.w3.org/2001/xml-events" xmlns:xlink="http://www.w3.org/1999/xlink"><defs /><path d="m 390.20312,241.79688 c -0.11218,0 -0.20312,0.0909 -0.20312,0.20312 0,1.10457 0.89543,2 2,2 1.10457,0 2,-0.89543 2,-2 0,-0.11222 -0.0909,-0.20312 -0.20312,-0.20312 -0.082,0 -0.15601,0.0493 -0.1875,0.125 h -0.002 c -0.26009,0.6322 -0.88138,1.07829 -1.60742,1.07812 -0.72604,1.7e-4 -1.34733,-0.44592 -1.60742,-1.07812 h -0.002 c -0.0315,-0.0757 -0.10549,-0.125 -0.1875,-0.125 z M 392,245 c -0.66667,0 -1.19451,0.34862 -1.51562,0.75 C 390.16327,246.15138 390,246.58333 390,247 h -0.5 c -0.27613,3e-5 -0.49997,0.22387 -0.5,0.5 v 2 c 1.7e-4,0.18961 0.10757,0.36282 0.27734,0.44727 0.38075,0.19037 0.51206,0.39394 0.61328,0.79882 C 389.99187,251.15098 390,251.75 390,252.5 v 2 c 3e-5,0.27613 0.22387,0.49997 0.5,0.5 h 3 c 0.27613,-3e-5 0.49997,-0.22387 0.5,-0.5 v -2 c 0,-0.75 0.008,-1.34902 0.10938,-1.75391 0.10122,-0.40488 0.23253,-0.60845 0.61328,-0.79882 0.16977,-0.0845 0.27717,-0.25766 0.27734,-0.44727 v -2 c -3e-5,-0.27613 -0.22387,-0.49997 -0.5,-0.5 H 394 c 0,-0.41667 -0.16327,-0.84862 -0.48438,-1.25 C 393.19452,245.34862 392.66667,245 392,245 Z m 0,5 c 0.53229,3.5e-4 0.97102,0.41761 0.99805,0.94922 0.001,0.0169 0.002,0.0338 0.002,0.0508 v 1.5 c 0,0.277 -0.223,0.5 -0.5,0.5 h -1 c -0.277,0 -0.5,-0.223 -0.5,-0.5 V 251 c 0,-0.0233 7.7e-4,-0.046 0.004,-0.0684 0.0359,-0.52392 0.47094,-0.93082 0.99609,-0.93164 z" fill="#000" transform="translate(8.0,8.0) translate(-392.0,-248.0)" /><path d="m 390.20312,241.79688 c -0.11218,0 -0.20312,0.0909 -0.20312,0.20312 0,1.10457 0.89543,2 2,2 1.10457,0 2,-0.89543 2,-2 0,-0.11222 -0.0909,-0.20312 -0.20312,-0.20312 -0.082,0 -0.15601,0.0493 -0.1875,0.125 h -0.002 c -0.26009,0.6322 -0.88138,1.07829 -1.60742,1.07812 -0.72604,1.7e-4 -1.34733,-0.44592 -1.60742,-1.07812 h -0.002 c -0.0315,-0.0757 -0.10549,-0.125 -0.1875,-0.125 z M 392,245 c -0.66667,0 -1.19451,0.34862 -1.51562,0.75 C 390.16327,246.15138 390,246.58333 390,247 h -0.5 c -0.27613,3e-5 -0.49997,0.22387 -0.5,0.5 v 2 c 1.7e-4,0.18961 0.10757,0.36282 0.27734,0.44727 0.38075,0.19037 0.51206,0.39394 0.61328,0.79882 C 389.99187,251.15098 390,251.75 390,252.5 v 2 c 3e-5,0.27613 0.22387,0.49997 0.5,0.5 h 3 c 0.27613,-3e-5 0.49997,-0.22387 0.5,-0.5 v -2 c 0,-0.75 0.008,-1.34902 0.10938,-1.75391 0.10122,-0.40488 0.23253,-0.60845 0.61328,-0.79882 0.16977,-0.0845 0.27717,-0.25766 0.27734,-0.44727 v -2 c -3e-5,-0.27613 -0.22387,-0.49997 -0.5,-0.5 H 394 c 0,-0.41667 -0.16327,-0.84862 -0.48438,-1.25 C 393.19452,245.34862 392.66667,245 392,245 Z m 0,5 c 0.53229,3.5e-4 0.97102,0.41761 0.99805,0.94922 0.001,0.0169 0.002,0.0338 0.002,0.0508 v 1.5 c 0,0.277 -0.223,0.5 -0.5,0.5 h -1 c -0.277,0 -0.5,-0.223 -0.5,-0.5 V 251 c 0,-0.0233 7.7e-4,-0.046 0.004,-0.0684 0.0359,-0.52392 0.47094,-0.93082 0.99609,-0.93164 z" fill="#000" transform="translate(8.0,8.0) translate(-392.0,-248.0)" /></svg>