<?xml version="1.0" encoding="utf-8" ?>
<svg baseProfile="full" height="16" version="1.1" width="16" xmlns="http://www.w3.org/2000/svg" xmlns:ev="http://www.w3.org/2001/xml-events" xmlns:xlink="http://www.w3.org/1999/xlink"><defs /><path d="m 516.5,566 c -0.48611,0 -0.90103,0.18019 -1.20312,0.42188 -0.3021,0.24166 -0.50977,0.52734 -0.69727,0.77734 -0.1875,0.25 -0.35483,0.46432 -0.52149,0.59766 C 513.91147,567.9302 513.76389,568 513.5,568 c -0.017,4.4e-4 -0.0339,0.002 -0.0508,0.004 -0.0492,0.006 -0.0972,0.019 -0.14258,0.0391 -0.0153,0.006 -0.0303,0.0136 -0.0449,0.0215 -0.0441,0.0244 -0.0843,0.0554 -0.11914,0.0918 -0.0111,0.0125 -0.0215,0.0255 -0.0312,0.0391 -0.0104,0.0132 -0.0202,0.0269 -0.0293,0.041 -0.009,0.0139 -0.0163,0.0283 -0.0234,0.043 -0.022,0.045 -0.0372,0.0931 -0.0449,0.14258 -0.003,0.0168 -0.005,0.0338 -0.006,0.0508 -0.003,0.0499 0.002,0.0999 0.0137,0.14843 0.004,0.0159 0.01,0.0315 0.0156,0.0469 0.0107,0.0312 0.0244,0.0613 0.041,0.0898 0.009,0.0148 0.0188,0.0292 0.0293,0.043 0.01,0.0129 0.0202,0.0252 0.0312,0.0371 0.045,0.0494 0.0995,0.0892 0.16016,0.11719 0.0153,0.007 0.031,0.0125 0.0469,0.0176 0.0317,0.0111 0.0644,0.0189 0.0977,0.0234 0.0188,0.002 0.0377,0.004 0.0566,0.004 h 5.98438 0.0156 0.99414 0.0215 5.98438 c 0.017,-4.4e-4 0.0339,-0.002 0.0508,-0.004 0.0164,-0.002 0.0327,-0.004 0.0488,-0.008 0.0653,-0.0143 0.12705,-0.0415 0.18164,-0.0801 0.0275,-0.0189 0.053,-0.0405 0.0762,-0.0644 0.0228,-0.0246 0.0431,-0.0514 0.0605,-0.0801 0.0173,-0.0284 0.0317,-0.0585 0.043,-0.0898 0.006,-0.0154 0.0112,-0.031 0.0156,-0.0469 0.004,-0.0161 0.007,-0.0324 0.01,-0.0488 0.005,-0.0329 0.007,-0.0663 0.006,-0.0996 -4.4e-4,-0.017 -0.002,-0.0339 -0.004,-0.0508 -0.002,-0.0164 -0.006,-0.0327 -0.01,-0.0488 -0.008,-0.0323 -0.019,-0.0637 -0.0332,-0.0937 -0.007,-0.0147 -0.0149,-0.029 -0.0234,-0.043 -0.009,-0.0148 -0.0188,-0.0292 -0.0293,-0.043 -0.0197,-0.0262 -0.042,-0.0504 -0.0664,-0.0723 -0.0125,-0.0111 -0.0255,-0.0215 -0.0391,-0.0312 -0.0138,-0.01 -0.0282,-0.019 -0.043,-0.0273 -0.0285,-0.0166 -0.0586,-0.0303 -0.0898,-0.041 -0.016,-0.005 -0.0323,-0.01 -0.0488,-0.0137 -0.0346,-0.008 -0.0699,-0.0129 -0.10547,-0.0137 -0.26389,0 -0.41147,-0.0698 -0.57812,-0.20312 -0.16666,-0.13334 -0.33399,-0.34766 -0.52149,-0.59766 -0.1875,-0.25 -0.39517,-0.53568 -0.69727,-0.77734 C 524.40103,566.1802 523.98611,566 523.5,566 c -0.48611,0 -0.90103,0.18019 -1.20312,0.42188 -0.3021,0.24166 -0.50977,0.52734 -0.69727,0.77734 -0.1875,0.25 -0.35483,0.46432 -0.52149,0.59766 C 520.91147,567.9302 520.76389,568 520.5,568 h -0.99414 -0.006 c -0.26389,0 -0.41147,-0.0698 -0.57812,-0.20312 -0.16666,-0.13334 -0.33399,-0.34766 -0.52149,-0.59766 -0.1875,-0.25 -0.39517,-0.53568 -0.69727,-0.77734 C 517.40103,566.1802 516.98611,566 516.5,566 Z" fill="#000" transform="translate(8.0,8.0) translate(-520.0,-568.0)" /><path d="m 516.5,566 c -0.48611,0 -0.90103,0.18019 -1.20312,0.42188 -0.3021,0.24166 -0.50977,0.52734 -0.69727,0.77734 -0.1875,0.25 -0.35483,0.46432 -0.52149,0.59766 C 513.91147,567.9302 513.76389,568 513.5,568 c -0.017,4.4e-4 -0.0339,0.002 -0.0508,0.004 -0.0492,0.006 -0.0972,0.019 -0.14258,0.0391 -0.0153,0.006 -0.0303,0.0136 -0.0449,0.0215 -0.0441,0.0244 -0.0843,0.0554 -0.11914,0.0918 -0.0111,0.0125 -0.0215,0.0255 -0.0312,0.0391 -0.0104,0.0132 -0.0202,0.0269 -0.0293,0.041 -0.009,0.0139 -0.0163,0.0283 -0.0234,0.043 -0.022,0.045 -0.0372,0.0931 -0.0449,0.14258 -0.003,0.0168 -0.005,0.0338 -0.006,0.0508 -0.003,0.0499 0.002,0.0999 0.0137,0.14843 0.004,0.0159 0.01,0.0315 0.0156,0.0469 0.0107,0.0312 0.0244,0.0613 0.041,0.0898 0.009,0.0148 0.0188,0.0292 0.0293,0.043 0.01,0.0129 0.0202,0.0252 0.0312,0.0371 0.045,0.0494 0.0995,0.0892 0.16016,0.11719 0.0153,0.007 0.031,0.0125 0.0469,0.0176 0.0317,0.0111 0.0644,0.0189 0.0977,0.0234 0.0188,0.002 0.0377,0.004 0.0566,0.004 h 5.98438 0.0156 0.99414 0.0215 5.98438 c 0.017,-4.4e-4 0.0339,-0.002 0.0508,-0.004 0.0164,-0.002 0.0327,-0.004 0.0488,-0.008 0.0653,-0.0143 0.12705,-0.0415 0.18164,-0.0801 0.0275,-0.0189 0.053,-0.0405 0.0762,-0.0644 0.0228,-0.0246 0.0431,-0.0514 0.0605,-0.0801 0.0173,-0.0284 0.0317,-0.0585 0.043,-0.0898 0.006,-0.0154 0.0112,-0.031 0.0156,-0.0469 0.004,-0.0161 0.007,-0.0324 0.01,-0.0488 0.005,-0.0329 0.007,-0.0663 0.006,-0.0996 -4.4e-4,-0.017 -0.002,-0.0339 -0.004,-0.0508 -0.002,-0.0164 -0.006,-0.0327 -0.01,-0.0488 -0.008,-0.0323 -0.019,-0.0637 -0.0332,-0.0937 -0.007,-0.0147 -0.0149,-0.029 -0.0234,-0.043 -0.009,-0.0148 -0.0188,-0.0292 -0.0293,-0.043 -0.0197,-0.0262 -0.042,-0.0504 -0.0664,-0.0723 -0.0125,-0.0111 -0.0255,-0.0215 -0.0391,-0.0312 -0.0138,-0.01 -0.0282,-0.019 -0.043,-0.0273 -0.0285,-0.0166 -0.0586,-0.0303 -0.0898,-0.041 -0.016,-0.005 -0.0323,-0.01 -0.0488,-0.0137 -0.0346,-0.008 -0.0699,-0.0129 -0.10547,-0.0137 -0.26389,0 -0.41147,-0.0698 -0.57812,-0.20312 -0.16666,-0.13334 -0.33399,-0.34766 -0.52149,-0.59766 -0.1875,-0.25 -0.39517,-0.53568 -0.69727,-0.77734 C 524.40103,566.1802 523.98611,566 523.5,566 c -0.48611,0 -0.90103,0.18019 -1.20312,0.42188 -0.3021,0.24166 -0.50977,0.52734 -0.69727,0.77734 -0.1875,0.25 -0.35483,0.46432 -0.52149,0.59766 C 520.91147,567.9302 520.76389,568 520.5,568 h -0.99414 -0.006 c -0.26389,0 -0.41147,-0.0698 -0.57812,-0.20312 -0.16666,-0.13334 -0.33399,-0.34766 -0.52149,-0.59766 -0.1875,-0.25 -0.39517,-0.53568 -0.69727,-0.77734 C 517.40103,566.1802 516.98611,566 516.5,566 Z" fill="#000" transform="translate(8.0,8.0) translate(-520.0,-568.0)" /></svg>