<?xml version="1.0" encoding="utf-8" ?>
<svg baseProfile="full" height="16" version="1.1" width="16" xmlns="http://www.w3.org/2000/svg" xmlns:ev="http://www.w3.org/2001/xml-events" xmlns:xlink="http://www.w3.org/1999/xlink"><defs /><path d="m 146,52 v 6 h 12 v -6 z m 1,1 h 1 c 0,0.554 -0.446,1 -1,1 z m 5,0 a 2,2 0 0 1 2,2 2,2 0 0 1 -2,2 2,2 0 0 1 -2,-2 2,2 0 0 1 2,-2 z m 4,0 h 1 v 1 c -0.554,0 -1,-0.446 -1,-1 z m -9,3 c 0.554,0 1,0.446 1,1 h -1 z m 10,0 v 1 h -1 c 0,-0.554 0.446,-1 1,-1 z m -11,3 v 1 h 12 v -1 z" fill="#000" transform="translate(8.0,8.0) translate(-152.0,-56.0)" /><path d="m 146,52 v 6 h 12 v -6 z m 1,1 h 1 c 0,0.554 -0.446,1 -1,1 z m 5,0 a 2,2 0 0 1 2,2 2,2 0 0 1 -2,2 2,2 0 0 1 -2,-2 2,2 0 0 1 2,-2 z m 4,0 h 1 v 1 c -0.554,0 -1,-0.446 -1,-1 z m -9,3 c 0.554,0 1,0.446 1,1 h -1 z m 10,0 v 1 h -1 c 0,-0.554 0.446,-1 1,-1 z m -11,3 v 1 h 12 v -1 z" fill="#000" transform="translate(8.0,8.0) translate(-152.0,-56.0)" /></svg>