<?xml version="1.0" encoding="utf-8" ?>
<svg baseProfile="full" height="16" version="1.1" width="16" xmlns="http://www.w3.org/2000/svg" xmlns:ev="http://www.w3.org/2001/xml-events" xmlns:xlink="http://www.w3.org/1999/xlink"><defs /><path d="m 472,273 c -0.55228,0 -1,0.44772 -1,1 0,0.55228 0.44772,1 1,1 0.55228,0 1,-0.44772 1,-1 0,-0.55228 -0.44772,-1 -1,-1 z m -2,3 1,1 c -0.27614,0 -0.5,0.22386 -0.5,0.5 5.1e-4,0.24409 0.17718,0.45214 0.41797,0.49219 L 470.08398,283 H 470 c -0.27614,0 -0.5,0.22386 -0.5,0.5 0,0.27614 0.22386,0.5 0.5,0.5 v 2 h -0.5 l -0.5,0.5 v 0.5 h 6 v -0.5 L 474.5,286 H 474 v -2 c 0.27614,0 0.5,-0.22386 0.5,-0.5 0,-0.27614 -0.22386,-0.5 -0.5,-0.5 h -0.084 l -0.83399,-5.00781 c 0.24079,-0.0401 0.41746,-0.2481 0.41797,-0.49219 0,-0.27614 -0.22386,-0.5 -0.5,-0.5 l 1,-1 z" fill="#000" transform="translate(8.0,8.0) translate(-472.0,-280.0)" /><path d="m 472,273 c -0.55228,0 -1,0.44772 -1,1 0,0.55228 0.44772,1 1,1 0.55228,0 1,-0.44772 1,-1 0,-0.55228 -0.44772,-1 -1,-1 z m -2,3 1,1 c -0.27614,0 -0.5,0.22386 -0.5,0.5 5.1e-4,0.24409 0.17718,0.45214 0.41797,0.49219 L 470.08398,283 H 470 c -0.27614,0 -0.5,0.22386 -0.5,0.5 0,0.27614 0.22386,0.5 0.5,0.5 v 2 h -0.5 l -0.5,0.5 v 0.5 h 6 v -0.5 L 474.5,286 H 474 v -2 c 0.27614,0 0.5,-0.22386 0.5,-0.5 0,-0.27614 -0.22386,-0.5 -0.5,-0.5 h -0.084 l -0.83399,-5.00781 c 0.24079,-0.0401 0.41746,-0.2481 0.41797,-0.49219 0,-0.27614 -0.22386,-0.5 -0.5,-0.5 l 1,-1 z" fill="#000" transform="translate(8.0,8.0) translate(-472.0,-280.0)" /></svg>