<?xml version="1.0" encoding="utf-8" ?>
<svg baseProfile="full" height="16" version="1.1" width="16" xmlns="http://www.w3.org/2000/svg" xmlns:ev="http://www.w3.org/2001/xml-events" xmlns:xlink="http://www.w3.org/1999/xlink"><defs /><path d="m 72,211 c -0.5,1.25 -1.75,2.25 -3,3 h 2 c -0.5,1.25 -1.75,2.25 -3,3 h 2 c -0.5,1.25 -1.75,2.25 -3,3 h 4 v 3 h 2 v -3 h 4 c -1.25,-0.75 -2.5,-1.75 -3,-3 h 2 c -1.25,-0.75 -2.5,-1.75 -3,-3 h 2 c -1.25,-0.75 -2.5,-1.75 -3,-3 z" fill="#000" transform="translate(8.0,8.0) translate(-72.0,-216.0)" /><path d="m 37,223 h 6 l 2,-2 H 35 Z" fill="#000" transform="translate(8.0,8.0) translate(-40.0,-216.0)" /><path d="m 72,211 c -0.5,1.25 -1.75,2.25 -3,3 h 2 c -0.5,1.25 -1.75,2.25 -3,3 h 2 c -0.5,1.25 -1.75,2.25 -3,3 h 4 v 3 h 2 v -3 h 4 c -1.25,-0.75 -2.5,-1.75 -3,-3 h 2 c -1.25,-0.75 -2.5,-1.75 -3,-3 h 2 c -1.25,-0.75 -2.5,-1.75 -3,-3 z" fill="#000" transform="translate(8.0,8.0) translate(-72.0,-216.0)" /><path d="m 37,223 h 6 l 2,-2 H 35 Z" fill="#000" transform="translate(8.0,8.0) translate(-40.0,-216.0)" /></svg>