<?xml version="1.0" encoding="utf-8" ?>
<svg baseProfile="full" height="16" version="1.1" width="16" xmlns="http://www.w3.org/2000/svg" xmlns:ev="http://www.w3.org/2001/xml-events" xmlns:xlink="http://www.w3.org/1999/xlink"><defs /><path d="m 149.5,563 c -0.277,0 -0.5,0.223 -0.5,0.5 v 1 c 0,0.277 0.223,0.5 0.5,0.5 0.277,0 0.5,-0.223 0.5,-0.5 v -1 c 0,-0.277 -0.223,-0.5 -0.5,-0.5 z m 2,0 c -0.277,0 -0.5,0.223 -0.5,0.5 v 1 c 0,0.277 0.223,0.5 0.5,0.5 0.277,0 0.5,-0.223 0.5,-0.5 v -1 c 0,-0.277 -0.223,-0.5 -0.5,-0.5 z m 2,0 c -0.277,0 -0.5,0.223 -0.5,0.5 v 1 c 0,0.277 0.223,0.5 0.5,0.5 0.277,0 0.5,-0.223 0.5,-0.5 v -1 c 0,-0.277 -0.223,-0.5 -0.5,-0.5 z m 2.4902,0.99609 a 0.50005,0.50005 0 0 0 -0.3437,0.15039 l -2.0547,2.05469 C 153.426,566.07729 153.2241,566 153,566 h -1 -1 -1 c -0.554,0 -1,0.446 -1,1 0,0.554 0.446,1 1,1 0.493,0 0.8811,0.35993 0.9648,0.82813 l -3.3183,3.31835 a 0.50005,0.50005 0 1 0 0.707,0.70704 l 8,-8 a 0.50005,0.50005 0 0 0 -0.3633,-0.85743 z m -1.9902,4.625 -4,4 V 573 c 0,0.554 0.446,1 1,1 h 2 c 0.554,0 1,-0.446 1,-1 z" fill="#000" transform="translate(8.0,8.0) translate(-152.0,-568.0)" /><path d="m 149.5,563 c -0.277,0 -0.5,0.223 -0.5,0.5 v 1 c 0,0.277 0.223,0.5 0.5,0.5 0.277,0 0.5,-0.223 0.5,-0.5 v -1 c 0,-0.277 -0.223,-0.5 -0.5,-0.5 z m 2,0 c -0.277,0 -0.5,0.223 -0.5,0.5 v 1 c 0,0.277 0.223,0.5 0.5,0.5 0.277,0 0.5,-0.223 0.5,-0.5 v -1 c 0,-0.277 -0.223,-0.5 -0.5,-0.5 z m 2,0 c -0.277,0 -0.5,0.223 -0.5,0.5 v 1 c 0,0.277 0.223,0.5 0.5,0.5 0.277,0 0.5,-0.223 0.5,-0.5 v -1 c 0,-0.277 -0.223,-0.5 -0.5,-0.5 z m 2.4902,0.99609 a 0.50005,0.50005 0 0 0 -0.3437,0.15039 l -2.0547,2.05469 C 153.426,566.07729 153.2241,566 153,566 h -1 -1 -1 c -0.554,0 -1,0.446 -1,1 0,0.554 0.446,1 1,1 0.493,0 0.8811,0.35993 0.9648,0.82813 l -3.3183,3.31835 a 0.50005,0.50005 0 1 0 0.707,0.70704 l 8,-8 a 0.50005,0.50005 0 0 0 -0.3633,-0.85743 z m -1.9902,4.625 -4,4 V 573 c 0,0.554 0.446,1 1,1 h 2 c 0.554,0 1,-0.446 1,-1 z" fill="#000" transform="translate(8.0,8.0) translate(-152.0,-568.0)" /></svg>