<?xml version="1.0" encoding="utf-8" ?>
<svg baseProfile="full" height="16" version="1.1" width="16" xmlns="http://www.w3.org/2000/svg" xmlns:ev="http://www.w3.org/2001/xml-events" xmlns:xlink="http://www.w3.org/1999/xlink"><defs /><path d="m 598.5,273 c -0.277,0 -0.5,0.223 -0.5,0.5 v 0.5 1 h -2 v 1 c 1.10457,0 2,0.89543 2,2 v 0.78125 l 1.15625,0.375 C 599.24665,279.06588 599.3615,279 599.5,279 h 1 c 0.277,0 0.5,0.223 0.5,0.5 v 0.28125 l 1.84375,0.59375 C 603.17004,280.14369 603.5696,280 604,280 v -1 h -2 v -1 c 0,-1.10457 0.89543,-2 2,-2 v -1 h -2 v -1 -0.5 c 0,-0.277 -0.223,-0.5 -0.5,-0.5 z m 1,2 h 1 c 0.277,0 0.5,0.223 0.5,0.5 v 1 c 0,0.277 -0.223,0.5 -0.5,0.5 h -1 c -0.277,0 -0.5,-0.223 -0.5,-0.5 v -1 c 0,-0.277 0.223,-0.5 0.5,-0.5 z m -5.34375,3.53125 -0.3125,0.9375 3.65625,1.21875 c 0.30735,0.35165 0.5,0.80878 0.5,1.3125 v 1 h -2 v 1 c 1.10457,0 2,0.89543 2,2 v 0.5 c 0,0.277 0.223,0.5 0.5,0.5 h 3 c 0.277,0 0.5,-0.223 0.5,-0.5 V 286 c 0,-1.10457 0.89543,-2 2,-2 v -1 h -2 v -0.8125 l 3.84375,1.28125 0.3125,-0.9375 -4,-1.3125 c 0.004,-0.008 -0.004,-0.0229 0,-0.0312 l -1.25,-0.40625 -1.90625,-0.625 -3,-1 z M 599.5,283 h 1 c 0.277,0 0.5,0.223 0.5,0.5 v 1 c 0,0.277 -0.223,0.5 -0.5,0.5 h -1 c -0.277,0 -0.5,-0.223 -0.5,-0.5 v -1 c 0,-0.277 0.223,-0.5 0.5,-0.5 z" fill="#000" transform="translate(8.0,8.0) translate(-600.0,-280.0)" /><path d="m 598.5,273 c -0.277,0 -0.5,0.223 -0.5,0.5 v 0.5 1 h -2 v 1 c 1.10457,0 2,0.89543 2,2 v 0.78125 l 1.15625,0.375 C 599.24665,279.06588 599.3615,279 599.5,279 h 1 c 0.277,0 0.5,0.223 0.5,0.5 v 0.28125 l 1.84375,0.59375 C 603.17004,280.14369 603.5696,280 604,280 v -1 h -2 v -1 c 0,-1.10457 0.89543,-2 2,-2 v -1 h -2 v -1 -0.5 c 0,-0.277 -0.223,-0.5 -0.5,-0.5 z m 1,2 h 1 c 0.277,0 0.5,0.223 0.5,0.5 v 1 c 0,0.277 -0.223,0.5 -0.5,0.5 h -1 c -0.277,0 -0.5,-0.223 -0.5,-0.5 v -1 c 0,-0.277 0.223,-0.5 0.5,-0.5 z m -5.34375,3.53125 -0.3125,0.9375 3.65625,1.21875 c 0.30735,0.35165 0.5,0.80878 0.5,1.3125 v 1 h -2 v 1 c 1.10457,0 2,0.89543 2,2 v 0.5 c 0,0.277 0.223,0.5 0.5,0.5 h 3 c 0.277,0 0.5,-0.223 0.5,-0.5 V 286 c 0,-1.10457 0.89543,-2 2,-2 v -1 h -2 v -0.8125 l 3.84375,1.28125 0.3125,-0.9375 -4,-1.3125 c 0.004,-0.008 -0.004,-0.0229 0,-0.0312 l -1.25,-0.40625 -1.90625,-0.625 -3,-1 z M 599.5,283 h 1 c 0.277,0 0.5,0.223 0.5,0.5 v 1 c 0,0.277 -0.223,0.5 -0.5,0.5 h -1 c -0.277,0 -0.5,-0.223 -0.5,-0.5 v -1 c 0,-0.277 0.223,-0.5 0.5,-0.5 z" fill="#000" transform="translate(8.0,8.0) translate(-600.0,-280.0)" /></svg>