<?xml version="1.0" encoding="utf-8" ?>
<svg baseProfile="full" height="16" version="1.1" width="16" xmlns="http://www.w3.org/2000/svg" xmlns:ev="http://www.w3.org/2001/xml-events" xmlns:xlink="http://www.w3.org/1999/xlink"><defs /><path d="m 91.49414,560.99414 a 0.50005,0.50005 0 0 0 -0.34766,0.85938 L 92.29297,563 l -1.14649,1.14648 a 0.50005,0.50005 0 1 0 0.70704,0.70704 L 93,563.70703 l 1.14648,1.14649 a 0.50005,0.50005 0 1 0 0.70704,-0.70704 L 93.70703,563 l 1.14649,-1.14648 a 0.50005,0.50005 0 0 0 -0.36329,-0.85743 0.50005,0.50005 0 0 0 -0.34375,0.15039 L 93,562.29297 91.85352,561.14648 a 0.50005,0.50005 0 0 0 -0.35938,-0.15234 z M 83.5,562 a 0.50005,0.50005 0 1 0 0,1 h 1.58984 l 0.80274,4.00977 a 0.50005,0.50005 0 0 0 -0.0137,0.004 C 83.73268,567.07959 82,568.83827 82,571 c 0,2.20322 1.79678,4 4,4 2.20322,0 4,-1.79678 4,-4 0,-1.19972 -0.54371,-2.26579 -1.38477,-3 h 2.47461 l 0.82422,4.12109 C 91.37866,572.35115 91,572.88468 91,573.5 c 0,0.8225 0.6775,1.5 1.5,1.5 0.8225,0 1.5,-0.6775 1.5,-1.5 0,-0.67464 -0.4584,-1.24401 -1.07617,-1.42969 l -0.9336,-4.66797 A 0.50005,0.50005 0 0 0 91.5,567 h -4.5918 l -0.39843,-2 H 89.5 a 0.50005,0.50005 0 1 0 0,-1 h -3 a 0.50005,0.50005 0 0 0 -0.18359,0.0332 l -0.32618,-1.63086 A 0.50005,0.50005 0 0 0 85.5,562 Z m 2.5,6 c 1.66278,0 3,1.33722 3,3 0,1.66278 -1.33722,3 -3,3 -1.66278,0 -3,-1.33722 -3,-3 0,-1.66278 1.33722,-3 3,-3 z m 6.44531,5.01172 a 0.50005,0.50005 0 0 0 0.11133,0 C 92.80912,573.04002 93,573.23822 93,573.5 c 0,0.28206 -0.21794,0.5 -0.5,0.5 -0.28206,0 -0.5,-0.21794 -0.5,-0.5 0,-0.26245 0.19185,-0.46078 0.44531,-0.48828 z" fill="#000" transform="translate(8.0,8.0) translate(-88.0,-568.0)" /><path d="m 91.49414,560.99414 a 0.50005,0.50005 0 0 0 -0.34766,0.85938 L 92.29297,563 l -1.14649,1.14648 a 0.50005,0.50005 0 1 0 0.70704,0.70704 L 93,563.70703 l 1.14648,1.14649 a 0.50005,0.50005 0 1 0 0.70704,-0.70704 L 93.70703,563 l 1.14649,-1.14648 a 0.50005,0.50005 0 0 0 -0.36329,-0.85743 0.50005,0.50005 0 0 0 -0.34375,0.15039 L 93,562.29297 91.85352,561.14648 a 0.50005,0.50005 0 0 0 -0.35938,-0.15234 z M 83.5,562 a 0.50005,0.50005 0 1 0 0,1 h 1.58984 l 0.80274,4.00977 a 0.50005,0.50005 0 0 0 -0.0137,0.004 C 83.73268,567.07959 82,568.83827 82,571 c 0,2.20322 1.79678,4 4,4 2.20322,0 4,-1.79678 4,-4 0,-1.19972 -0.54371,-2.26579 -1.38477,-3 h 2.47461 l 0.82422,4.12109 C 91.37866,572.35115 91,572.88468 91,573.5 c 0,0.8225 0.6775,1.5 1.5,1.5 0.8225,0 1.5,-0.6775 1.5,-1.5 0,-0.67464 -0.4584,-1.24401 -1.07617,-1.42969 l -0.9336,-4.66797 A 0.50005,0.50005 0 0 0 91.5,567 h -4.5918 l -0.39843,-2 H 89.5 a 0.50005,0.50005 0 1 0 0,-1 h -3 a 0.50005,0.50005 0 0 0 -0.18359,0.0332 l -0.32618,-1.63086 A 0.50005,0.50005 0 0 0 85.5,562 Z m 2.5,6 c 1.66278,0 3,1.33722 3,3 0,1.66278 -1.33722,3 -3,3 -1.66278,0 -3,-1.33722 -3,-3 0,-1.66278 1.33722,-3 3,-3 z m 6.44531,5.01172 a 0.50005,0.50005 0 0 0 0.11133,0 C 92.80912,573.04002 93,573.23822 93,573.5 c 0,0.28206 -0.21794,0.5 -0.5,0.5 -0.28206,0 -0.5,-0.21794 -0.5,-0.5 0,-0.26245 0.19185,-0.46078 0.44531,-0.48828 z" fill="#000" transform="translate(8.0,8.0) translate(-88.0,-568.0)" /></svg>