<?xml version="1.0" encoding="utf-8" ?>
<svg baseProfile="full" height="16" version="1.1" width="16" xmlns="http://www.w3.org/2000/svg" xmlns:ev="http://www.w3.org/2001/xml-events" xmlns:xlink="http://www.w3.org/1999/xlink"><defs /><path d="m 439.5,274 c -0.18961,1.7e-4 -0.36282,0.10757 -0.44727,0.27734 l -1,2 c -0.026,0.0527 -0.0425,0.10955 -0.0488,0.16797 L 437.05273,285 H 436.5 436 v 1 h 0.5 1 4 1 0.5 v -1 h -0.5 -0.55273 l -0.95118,-8.55469 c -0.006,-0.0584 -0.0228,-0.11528 -0.0488,-0.16797 l -1,-2 C 439.86282,274.10756 439.68962,274.00016 439.5,274 Z" fill="#000" transform="translate(8.0,8.0) translate(-440.0,-280.0)" /><path d="m 439.5,274 c -0.18961,1.7e-4 -0.36282,0.10757 -0.44727,0.27734 l -1,2 c -0.026,0.0527 -0.0425,0.10955 -0.0488,0.16797 L 437.05273,285 H 436.5 436 v 1 h 0.5 1 4 1 0.5 v -1 h -0.5 -0.55273 l -0.95118,-8.55469 c -0.006,-0.0584 -0.0228,-0.11528 -0.0488,-0.16797 l -1,-2 C 439.86282,274.10756 439.68962,274.00016 439.5,274 Z" fill="#000" transform="translate(8.0,8.0) translate(-440.0,-280.0)" /></svg>