<?xml version="1.0" encoding="utf-8" ?>
<svg baseProfile="full" height="16" version="1.1" width="16" xmlns="http://www.w3.org/2000/svg" xmlns:ev="http://www.w3.org/2001/xml-events" xmlns:xlink="http://www.w3.org/1999/xlink"><defs /><path d="m 365.64648,242.64648 -1.0625,1.0625 c -0.3345,-0.28977 -0.69774,-0.54848 -1.08398,-0.77148 l -0.5,0.86719 c 0.91214,0.52662 1.66869,1.28317 2.19531,2.19531 l 0.86719,-0.5 c -0.223,-0.38624 -0.48171,-0.74948 -0.77148,-1.08398 l 1.0625,-1.0625 z M 360,244 a 5,5 0 0 0 -5,5 h 5 5 a 5,5 0 0 0 -5,-5 z m -5,6 v 3 h 10 v -3 z" fill="#000" transform="translate(8.0,8.0) translate(-360.0,-248.0)" /><path d="m 365.64648,242.64648 -1.0625,1.0625 c -0.3345,-0.28977 -0.69774,-0.54848 -1.08398,-0.77148 l -0.5,0.86719 c 0.91214,0.52662 1.66869,1.28317 2.19531,2.19531 l 0.86719,-0.5 c -0.223,-0.38624 -0.48171,-0.74948 -0.77148,-1.08398 l 1.0625,-1.0625 z M 360,244 a 5,5 0 0 0 -5,5 h 5 5 a 5,5 0 0 0 -5,-5 z m -5,6 v 3 h 10 v -3 z" fill="#000" transform="translate(8.0,8.0) translate(-360.0,-248.0)" /></svg>