<?xml version="1.0" encoding="utf-8" ?>
<svg baseProfile="full" height="16" version="1.1" width="16" xmlns="http://www.w3.org/2000/svg" xmlns:ev="http://www.w3.org/2001/xml-events" xmlns:xlink="http://www.w3.org/1999/xlink"><defs /><path d="m 743.5,498.5 c -0.2761,0 -0.5,0.22386 -0.5,0.5 0,4 -8,5 -3,11 h 7 c 5,-6 -3,-7 -3,-11 0,-0.27614 -0.2239,-0.5 -0.5,-0.5 z" fill="#000" transform="translate(8.0,8.0) translate(-744.0,-504.0)" /><path d="m 743.5,498.5 c -0.2761,0 -0.5,0.22386 -0.5,0.5 0,4 -8,5 -3,11 h 7 c 5,-6 -3,-7 -3,-11 0,-0.27614 -0.2239,-0.5 -0.5,-0.5 z" fill="#000" transform="translate(8.0,8.0) translate(-744.0,-504.0)" /></svg>