<?xml version="1.0" encoding="utf-8" ?>
<svg baseProfile="full" height="16" version="1.1" width="16" xmlns="http://www.w3.org/2000/svg" xmlns:ev="http://www.w3.org/2001/xml-events" xmlns:xlink="http://www.w3.org/1999/xlink"><defs /><path d="m 727,52 c -0.554,0 -1,0.446 -1,1 v 2 h -1 v 2 h 1 v 2 c 0,0.554 0.446,1 1,1 h 2 c 0.554,0 1,-0.446 1,-1 v -2 h 1 v -2 h -1 v -2 c 0,-0.554 -0.446,-1 -1,-1 z m -6,2 v 4 h 1 v -4 z m 2,0 v 4 h 1 v -4 z m 9,0 v 4 h 1 v -4 z m 2,0 v 4 h 1 v -4 z" fill="#000" transform="translate(8.0,8.0) translate(-728.0,-56.0)" /><path d="m 727,52 c -0.554,0 -1,0.446 -1,1 v 2 h -1 v 2 h 1 v 2 c 0,0.554 0.446,1 1,1 h 2 c 0.554,0 1,-0.446 1,-1 v -2 h 1 v -2 h -1 v -2 c 0,-0.554 -0.446,-1 -1,-1 z m -6,2 v 4 h 1 v -4 z m 2,0 v 4 h 1 v -4 z m 9,0 v 4 h 1 v -4 z m 2,0 v 4 h 1 v -4 z" fill="#000" transform="translate(8.0,8.0) translate(-728.0,-56.0)" /></svg>