<?xml version="1.0" encoding="utf-8" ?>
<svg baseProfile="full" height="16" version="1.1" width="16" xmlns="http://www.w3.org/2000/svg" xmlns:ev="http://www.w3.org/2001/xml-events" xmlns:xlink="http://www.w3.org/1999/xlink"><defs /><path d="m 660.5,147 c -0.277,0 -0.5,0.223 -0.5,0.5 v 8 c 0,0.277 0.223,0.5 0.5,0.5 h 1 c 0.277,0 0.5,-0.223 0.5,-0.5 V 153 H 664.84375 665 c 1.64501,0 3,-1.35499 3,-3 0,-1.64501 -1.35499,-3 -3,-3 H 664.8125 661.5 Z m 1.5,2 H 664.84375 665 c 0.56413,0 1,0.43587 1,1 0,0.56413 -0.43587,1 -1,1 h -0.0937 -2.90625 v -2 z" fill="#000" transform="translate(7.0,8.0) translate(-664.0,-152.0)" /><path d="m 711.49805,148.99805 a 0.50005,0.50005 0 0 0 -0.34766,0.85937 l 1.14649,1.14649 h -2.79297 a 0.50005,0.50005 0 1 0 0,1 h 2.79297 l -1.14649,1.14648 a 0.50005,0.50005 0 1 0 0.70703,0.70703 l 2,-2 a 0.50005,0.50005 0 0 0 0,-0.70703 l -2,-2 a 0.50005,0.50005 0 0 0 -0.35937,-0.15234 z" fill="#000" transform="translate(12.0,13.0) translate(-712.0,-152.0)" /><path d="m 660.5,147 c -0.277,0 -0.5,0.223 -0.5,0.5 v 8 c 0,0.277 0.223,0.5 0.5,0.5 h 1 c 0.277,0 0.5,-0.223 0.5,-0.5 V 153 H 664.84375 665 c 1.64501,0 3,-1.35499 3,-3 0,-1.64501 -1.35499,-3 -3,-3 H 664.8125 661.5 Z m 1.5,2 H 664.84375 665 c 0.56413,0 1,0.43587 1,1 0,0.56413 -0.43587,1 -1,1 h -0.0937 -2.90625 v -2 z" fill="#000" transform="translate(7.0,8.0) translate(-664.0,-152.0)" /><path d="m 711.49805,148.99805 a 0.50005,0.50005 0 0 0 -0.34766,0.85937 l 1.14649,1.14649 h -2.79297 a 0.50005,0.50005 0 1 0 0,1 h 2.79297 l -1.14649,1.14648 a 0.50005,0.50005 0 1 0 0.70703,0.70703 l 2,-2 a 0.50005,0.50005 0 0 0 0,-0.70703 l -2,-2 a 0.50005,0.50005 0 0 0 -0.35937,-0.15234 z" fill="#000" transform="translate(12.0,13.0) translate(-712.0,-152.0)" /></svg>