<?xml version="1.0" encoding="utf-8" ?>
<svg baseProfile="full" height="16" version="1.1" width="16" xmlns="http://www.w3.org/2000/svg" xmlns:ev="http://www.w3.org/2001/xml-events" xmlns:xlink="http://www.w3.org/1999/xlink"><defs /><path d="m 679.5,149 c -0.277,0 -0.5,0.20256 -0.5,0.45508 v 0.0449 0.0449 1.91016 0.0898 1.95508 c 0,0.277 0.223,0.5 0.5,0.5 0.277,0 0.5,-0.223 0.5,-0.5 v -1.5 h 1.5 a 1.5,1.5 0 0 0 1.5,-1.5 1.5,1.5 0 0 0 -1.5,-1.5 h -2 z m 0.5,1 h 1.5 a 0.5,0.5 0 0 1 0.5,0.5 0.5,0.5 0 0 1 -0.5,0.5 H 680 Z" fill="#000" transform="translate(3.0,5.0) translate(-680.0,-152.0)" /><path d="m 157,244 v 0.5 1.5 c -0.86111,0 -1.6275,0.29547 -2.16602,0.83398 C 154.29547,247.3725 154,248.13889 154,249 c 0,0.86111 0.29547,1.6275 0.83398,2.16602 C 155.3725,251.70453 156.13889,252 157,252 v 1.5 0.5 h 1 v -0.5 -1.5 -1 -4 -1 -1.5 -0.5 z m 0,3 v 4 c -0.63889,0 -1.1225,-0.20453 -1.45898,-0.54102 C 155.20453,250.1225 155,249.63889 155,249 c 0,-0.63889 0.20453,-1.1225 0.54102,-1.45898 C 155.8775,247.20453 156.36111,247 157,247 Z" fill="#000" transform="translate(8.0,8.0) translate(-152.0,-248.0)" /><path d="m 679.5,149 c -0.277,0 -0.5,0.20256 -0.5,0.45508 v 0.0449 0.0449 1.91016 0.0898 1.95508 c 0,0.277 0.223,0.5 0.5,0.5 0.277,0 0.5,-0.223 0.5,-0.5 v -1.5 h 1.5 a 1.5,1.5 0 0 0 1.5,-1.5 1.5,1.5 0 0 0 -1.5,-1.5 h -2 z m 0.5,1 h 1.5 a 0.5,0.5 0 0 1 0.5,0.5 0.5,0.5 0 0 1 -0.5,0.5 H 680 Z" fill="#000" transform="translate(3.0,5.0) translate(-680.0,-152.0)" /><path d="m 157,244 v 0.5 1.5 c -0.86111,0 -1.6275,0.29547 -2.16602,0.83398 C 154.29547,247.3725 154,248.13889 154,249 c 0,0.86111 0.29547,1.6275 0.83398,2.16602 C 155.3725,251.70453 156.13889,252 157,252 v 1.5 0.5 h 1 v -0.5 -1.5 -1 -4 -1 -1.5 -0.5 z m 0,3 v 4 c -0.63889,0 -1.1225,-0.20453 -1.45898,-0.54102 C 155.20453,250.1225 155,249.63889 155,249 c 0,-0.63889 0.20453,-1.1225 0.54102,-1.45898 C 155.8775,247.20453 156.36111,247 157,247 Z" fill="#000" transform="translate(8.0,8.0) translate(-152.0,-248.0)" /></svg>