<?xml version="1.0" encoding="utf-8" ?>
<svg baseProfile="full" height="16" version="1.1" width="16" xmlns="http://www.w3.org/2000/svg" xmlns:ev="http://www.w3.org/2001/xml-events" xmlns:xlink="http://www.w3.org/1999/xlink"><defs /><path d="m 679.5,149 c -0.277,0 -0.5,0.20256 -0.5,0.45508 v 0.0449 0.0449 1.91016 0.0898 1.95508 c 0,0.277 0.223,0.5 0.5,0.5 0.277,0 0.5,-0.223 0.5,-0.5 v -1.5 h 1.5 a 1.5,1.5 0 0 0 1.5,-1.5 1.5,1.5 0 0 0 -1.5,-1.5 h -2 z m 0.5,1 h 1.5 a 0.5,0.5 0 0 1 0.5,0.5 0.5,0.5 0 0 1 -0.5,0.5 H 680 Z" fill="#000" transform="translate(3.0,5.0) translate(-680.0,-152.0)" /><path d="m 167.5,246 a 0.50005,0.50005 0 0 0 -0.14258,0.0234 0.5,0.5 0 0 0 -0.0312,0.0117 0.50005,0.50005 0 0 0 -0.10547,0.0527 0.5,0.5 0 0 0 -0.0234,0.0176 0.50005,0.50005 0 0 0 -0.0899,0.0898 0.5,0.5 0 0 0 -0.0137,0.0156 0.50005,0.50005 0 0 0 -0.01,0.0117 l -2,3 A 0.50005,0.50005 0 0 0 165.5,250 h 4 a 0.50005,0.50005 0 0 0 0.41602,-0.77734 L 168.43359,247 h 0.6875 l 3.08594,3.08594 0.35352,0.35351 c 0.43001,0.43002 0.55889,1.07293 0.32617,1.63477 C 172.654,252.63606 172.10813,253 171.5,253 h -6 a 0.5,0.5 0 0 0 -0.5,0.5 0.5,0.5 0 0 0 0.5,0.5 h 6 c 1.00972,0 1.92414,-0.61011 2.31055,-1.54297 0.3864,-0.93286 0.17101,-2.01063 -0.54297,-2.72461 l -0.35352,-0.35351 -3.23242,-3.23243 A 0.50005,0.50005 0 0 0 169.32812,246 Z m 0,1.40234 1.06641,1.59766 h -2.13282 z" fill="#000" transform="translate(8.0,8.0) translate(-168.0,-248.0)" /><path d="m 679.5,149 c -0.277,0 -0.5,0.20256 -0.5,0.45508 v 0.0449 0.0449 1.91016 0.0898 1.95508 c 0,0.277 0.223,0.5 0.5,0.5 0.277,0 0.5,-0.223 0.5,-0.5 v -1.5 h 1.5 a 1.5,1.5 0 0 0 1.5,-1.5 1.5,1.5 0 0 0 -1.5,-1.5 h -2 z m 0.5,1 h 1.5 a 0.5,0.5 0 0 1 0.5,0.5 0.5,0.5 0 0 1 -0.5,0.5 H 680 Z" fill="#000" transform="translate(3.0,5.0) translate(-680.0,-152.0)" /><path d="m 167.5,246 a 0.50005,0.50005 0 0 0 -0.14258,0.0234 0.5,0.5 0 0 0 -0.0312,0.0117 0.50005,0.50005 0 0 0 -0.10547,0.0527 0.5,0.5 0 0 0 -0.0234,0.0176 0.50005,0.50005 0 0 0 -0.0899,0.0898 0.5,0.5 0 0 0 -0.0137,0.0156 0.50005,0.50005 0 0 0 -0.01,0.0117 l -2,3 A 0.50005,0.50005 0 0 0 165.5,250 h 4 a 0.50005,0.50005 0 0 0 0.41602,-0.77734 L 168.43359,247 h 0.6875 l 3.08594,3.08594 0.35352,0.35351 c 0.43001,0.43002 0.55889,1.07293 0.32617,1.63477 C 172.654,252.63606 172.10813,253 171.5,253 h -6 a 0.5,0.5 0 0 0 -0.5,0.5 0.5,0.5 0 0 0 0.5,0.5 h 6 c 1.00972,0 1.92414,-0.61011 2.31055,-1.54297 0.3864,-0.93286 0.17101,-2.01063 -0.54297,-2.72461 l -0.35352,-0.35351 -3.23242,-3.23243 A 0.50005,0.50005 0 0 0 169.32812,246 Z m 0,1.40234 1.06641,1.59766 h -2.13282 z" fill="#000" transform="translate(8.0,8.0) translate(-168.0,-248.0)" /></svg>