<?xml version="1.0" encoding="utf-8" ?>
<svg baseProfile="full" height="16" version="1.1" width="16" xmlns="http://www.w3.org/2000/svg" xmlns:ev="http://www.w3.org/2001/xml-events" xmlns:xlink="http://www.w3.org/1999/xlink"><defs /><path d="m 679.5,149 c -0.277,0 -0.5,0.20256 -0.5,0.45508 v 0.0449 0.0449 1.91016 0.0898 1.95508 c 0,0.277 0.223,0.5 0.5,0.5 0.277,0 0.5,-0.223 0.5,-0.5 v -1.5 h 1.5 a 1.5,1.5 0 0 0 1.5,-1.5 1.5,1.5 0 0 0 -1.5,-1.5 h -2 z m 0.5,1 h 1.5 a 0.5,0.5 0 0 1 0.5,0.5 0.5,0.5 0 0 1 -0.5,0.5 H 680 Z" fill="#000" transform="translate(8.0,8.0) translate(-680.0,-152.0)" /><path d="m 679.5,149 c -0.277,0 -0.5,0.20256 -0.5,0.45508 v 0.0449 0.0449 1.91016 0.0898 1.95508 c 0,0.277 0.223,0.5 0.5,0.5 0.277,0 0.5,-0.223 0.5,-0.5 v -1.5 h 1.5 a 1.5,1.5 0 0 0 1.5,-1.5 1.5,1.5 0 0 0 -1.5,-1.5 h -2 z m 0.5,1 h 1.5 a 0.5,0.5 0 0 1 0.5,0.5 0.5,0.5 0 0 1 -0.5,0.5 H 680 Z" fill="#000" transform="translate(8.0,8.0) translate(-680.0,-152.0)" /></svg>