<?xml version="1.0" encoding="utf-8" ?>
<svg baseProfile="full" height="16" version="1.1" width="16" xmlns="http://www.w3.org/2000/svg" xmlns:ev="http://www.w3.org/2001/xml-events" xmlns:xlink="http://www.w3.org/1999/xlink"><defs /><path d="m 486,307.00391 c -1.28066,0 -2.56094,0.48672 -3.53516,1.46093 -1.94843,1.94844 -1.94843,5.12188 0,7.07032 1.94844,1.94843 5.12188,1.94843 7.07032,0 0.19519,-0.19527 0.19519,-0.51176 0,-0.70704 L 486.70703,312 l 2.82813,-2.82812 c 0.19518,-0.19527 0.19518,-0.51178 0,-0.70704 -0.97422,-0.97421 -2.2545,-1.46093 -3.53516,-1.46093 z M 491,311 a 1,1 0 0 0 -1,1 1,1 0 0 0 1,1 1,1 0 0 0 1,-1 1,1 0 0 0 -1,-1 z m 3,0 a 1,1 0 0 0 -1,1 1,1 0 0 0 1,1 1,1 0 0 0 1,-1 1,1 0 0 0 -1,-1 z" fill="#000" transform="translate(8.0,8.0) translate(-488.0,-312.0)" /><path d="m 486,307.00391 c -1.28066,0 -2.56094,0.48672 -3.53516,1.46093 -1.94843,1.94844 -1.94843,5.12188 0,7.07032 1.94844,1.94843 5.12188,1.94843 7.07032,0 0.19519,-0.19527 0.19519,-0.51176 0,-0.70704 L 486.70703,312 l 2.82813,-2.82812 c 0.19518,-0.19527 0.19518,-0.51178 0,-0.70704 -0.97422,-0.97421 -2.2545,-1.46093 -3.53516,-1.46093 z M 491,311 a 1,1 0 0 0 -1,1 1,1 0 0 0 1,1 1,1 0 0 0 1,-1 1,1 0 0 0 -1,-1 z m 3,0 a 1,1 0 0 0 -1,1 1,1 0 0 0 1,1 1,1 0 0 0 1,-1 1,1 0 0 0 -1,-1 z" fill="#000" transform="translate(8.0,8.0) translate(-488.0,-312.0)" /></svg>