<?xml version="1.0" encoding="utf-8" ?>
<svg baseProfile="full" height="16" version="1.1" width="16" xmlns="http://www.w3.org/2000/svg" xmlns:ev="http://www.w3.org/2001/xml-events" xmlns:xlink="http://www.w3.org/1999/xlink"><defs /><path d="m 327.49219,306 c -0.12989,0.002 -0.25387,0.0546 -0.34571,0.14648 l -1,1 c -0.5,0.5 -0.81315,0.85352 -1.64648,0.85352 -0.49702,0 -0.76214,0.0273 -1.14062,-0.34766 a 0.5,0.5 0 0 0 -0.006,-0.006 c 0,0 -0.002,-0.002 -0.002,-0.002 A 0.5,0.5 0 0 0 323,307.5 a 0.5,0.5 0 0 0 -0.5,0.5 0.5,0.5 0 0 0 0.14453,0.35156 c 0,0 0.002,0.002 0.002,0.002 a 0.5,0.5 0 0 0 0.0312,0.0293 C 323.18613,308.89482 324.1882,310 325.5,310 h 4 c 1.32916,0 2.34598,-1.13818 2.84766,-1.64062 a 0.5,0.5 0 0 0 0.006,-0.006 c 0.0101,-0.0102 0.0202,-0.0203 0.0293,-0.0312 a 0.5,0.5 0 0 0 0.004,-0.006 c 0.009,-0.0109 0.0176,-0.0216 0.0254,-0.0332 A 0.5,0.5 0 0 0 332.5,308 a 0.5,0.5 0 0 0 -0.5,-0.5 0.5,0.5 0 0 0 -0.35156,0.14453 c 0,0 -0.002,0.002 -0.002,0.002 C 331.2646,308.02847 331,308 330.5,308 c -0.83333,0 -1.14648,-0.35352 -1.64648,-0.85352 l -1,-1 c -0.0957,-0.0957 -0.22603,-0.14855 -0.36133,-0.14648 z M 325,311 v 1 h 5 v -1 z m 0.5,2 c -0.1326,2e-5 -0.25976,0.0527 -0.35352,0.14648 -0.5,0.5 -0.81315,0.85352 -1.64648,0.85352 -0.49702,0 -0.76214,0.0273 -1.14062,-0.34766 a 0.5,0.5 0 0 0 -0.006,-0.006 c -0.0102,-0.0101 -0.0203,-0.0202 -0.0312,-0.0293 a 0.5,0.5 0 0 0 -0.006,-0.004 c -0.0109,-0.009 -0.0216,-0.0176 -0.0332,-0.0254 a 0.5,0.5 0 0 0 -0.008,-0.004 A 0.5,0.5 0 0 0 322,313.5 a 0.5,0.5 0 0 0 -0.5,0.5 0.5,0.5 0 0 0 0.0801,0.26953 0.5,0.5 0 0 0 0.0605,0.0781 0.5,0.5 0 0 0 0.004,0.004 c 6.4e-4,6.7e-4 10e-4,10e-4 0.002,0.002 a 0.5,0.5 0 0 0 0.0312,0.0293 C 322.18613,314.89482 323.1882,316 324.5,316 h 6 c 1.32916,0 2.34598,-1.13818 2.84766,-1.64062 a 0.5,0.5 0 0 0 0.006,-0.006 c 0.0101,-0.0102 0.0202,-0.0203 0.0293,-0.0312 a 0.5,0.5 0 0 0 0.004,-0.006 c 0.009,-0.0109 0.0176,-0.0216 0.0254,-0.0332 a 0.5,0.5 0 0 0 0.004,-0.008 A 0.5,0.5 0 0 0 333.5,314 a 0.5,0.5 0 0 0 -0.5,-0.5 0.5,0.5 0 0 0 -0.34766,0.14062 0.5,0.5 0 0 0 -0.004,0.004 c -6.7e-4,6.4e-4 -0.001,0.001 -0.002,0.002 C 332.26439,314.02831 332,314 331.5,314 c -0.83333,0 -1.14648,-0.35352 -1.64648,-0.85352 C 329.75976,313.05271 329.6326,313.00002 329.5,313 h -2 z m -1.5,4 v 1 h 7 v -1 z" fill="#000" transform="translate(8.0,8.0) translate(-328.0,-312.0)" /><path d="m 327.49219,306 c -0.12989,0.002 -0.25387,0.0546 -0.34571,0.14648 l -1,1 c -0.5,0.5 -0.81315,0.85352 -1.64648,0.85352 -0.49702,0 -0.76214,0.0273 -1.14062,-0.34766 a 0.5,0.5 0 0 0 -0.006,-0.006 c 0,0 -0.002,-0.002 -0.002,-0.002 A 0.5,0.5 0 0 0 323,307.5 a 0.5,0.5 0 0 0 -0.5,0.5 0.5,0.5 0 0 0 0.14453,0.35156 c 0,0 0.002,0.002 0.002,0.002 a 0.5,0.5 0 0 0 0.0312,0.0293 C 323.18613,308.89482 324.1882,310 325.5,310 h 4 c 1.32916,0 2.34598,-1.13818 2.84766,-1.64062 a 0.5,0.5 0 0 0 0.006,-0.006 c 0.0101,-0.0102 0.0202,-0.0203 0.0293,-0.0312 a 0.5,0.5 0 0 0 0.004,-0.006 c 0.009,-0.0109 0.0176,-0.0216 0.0254,-0.0332 A 0.5,0.5 0 0 0 332.5,308 a 0.5,0.5 0 0 0 -0.5,-0.5 0.5,0.5 0 0 0 -0.35156,0.14453 c 0,0 -0.002,0.002 -0.002,0.002 C 331.2646,308.02847 331,308 330.5,308 c -0.83333,0 -1.14648,-0.35352 -1.64648,-0.85352 l -1,-1 c -0.0957,-0.0957 -0.22603,-0.14855 -0.36133,-0.14648 z M 325,311 v 1 h 5 v -1 z m 0.5,2 c -0.1326,2e-5 -0.25976,0.0527 -0.35352,0.14648 -0.5,0.5 -0.81315,0.85352 -1.64648,0.85352 -0.49702,0 -0.76214,0.0273 -1.14062,-0.34766 a 0.5,0.5 0 0 0 -0.006,-0.006 c -0.0102,-0.0101 -0.0203,-0.0202 -0.0312,-0.0293 a 0.5,0.5 0 0 0 -0.006,-0.004 c -0.0109,-0.009 -0.0216,-0.0176 -0.0332,-0.0254 a 0.5,0.5 0 0 0 -0.008,-0.004 A 0.5,0.5 0 0 0 322,313.5 a 0.5,0.5 0 0 0 -0.5,0.5 0.5,0.5 0 0 0 0.0801,0.26953 0.5,0.5 0 0 0 0.0605,0.0781 0.5,0.5 0 0 0 0.004,0.004 c 6.4e-4,6.7e-4 10e-4,10e-4 0.002,0.002 a 0.5,0.5 0 0 0 0.0312,0.0293 C 322.18613,314.89482 323.1882,316 324.5,316 h 6 c 1.32916,0 2.34598,-1.13818 2.84766,-1.64062 a 0.5,0.5 0 0 0 0.006,-0.006 c 0.0101,-0.0102 0.0202,-0.0203 0.0293,-0.0312 a 0.5,0.5 0 0 0 0.004,-0.006 c 0.009,-0.0109 0.0176,-0.0216 0.0254,-0.0332 a 0.5,0.5 0 0 0 0.004,-0.008 A 0.5,0.5 0 0 0 333.5,314 a 0.5,0.5 0 0 0 -0.5,-0.5 0.5,0.5 0 0 0 -0.34766,0.14062 0.5,0.5 0 0 0 -0.004,0.004 c -6.7e-4,6.4e-4 -0.001,0.001 -0.002,0.002 C 332.26439,314.02831 332,314 331.5,314 c -0.83333,0 -1.14648,-0.35352 -1.64648,-0.85352 C 329.75976,313.05271 329.6326,313.00002 329.5,313 h -2 z m -1.5,4 v 1 h 7 v -1 z" fill="#000" transform="translate(8.0,8.0) translate(-328.0,-312.0)" /></svg>