<?xml version="1.0" encoding="utf-8" ?>
<svg baseProfile="full" height="16" version="1.1" width="16" xmlns="http://www.w3.org/2000/svg" xmlns:ev="http://www.w3.org/2001/xml-events" xmlns:xlink="http://www.w3.org/1999/xlink"><defs /><path d="m 133.17578,209.65625 c -0.43836,-0.0189 -0.91214,0.0118 -1.41797,0.10156 1.30753,0.34817 2.5011,1.25941 3.33399,2.43946 -1.22923,-0.8819 -3.4563,-0.53891 -5.0918,1.80273 1.1694,-0.67759 2.65625,-0.87696 4.07812,-0.63281 -1.49133,0.2479 -2.81922,2.06497 -2.32031,4.875 0.46712,-1.75426 1.93886,-3.31054 3.73047,-4.04688 L 135,221 v 2 h 2 v -2 l -0.48828,-6.80469 c 1.79161,0.73634 3.26335,2.29262 3.73047,4.04688 0.49892,-2.81003 -0.82897,-4.6271 -2.32031,-4.875 1.42187,-0.24415 2.90872,-0.0448 4.07812,0.63281 -1.6355,-2.34164 -3.86257,-2.68463 -5.0918,-1.80273 0.83288,-1.18005 2.02646,-2.09129 3.33399,-2.43946 -1.96729,-0.34929 -3.44464,0.19935 -4.24219,1.07032 -0.59248,-0.64703 -1.55769,-1.1172 -2.82422,-1.17188 z" fill="#000" transform="translate(8.0,8.0) translate(-136.0,-216.0)" /><path d="m 37,223 h 6 l 2,-2 H 35 Z" fill="#000" transform="translate(8.0,8.0) translate(-40.0,-216.0)" /><path d="m 133.17578,209.65625 c -0.43836,-0.0189 -0.91214,0.0118 -1.41797,0.10156 1.30753,0.34817 2.5011,1.25941 3.33399,2.43946 -1.22923,-0.8819 -3.4563,-0.53891 -5.0918,1.80273 1.1694,-0.67759 2.65625,-0.87696 4.07812,-0.63281 -1.49133,0.2479 -2.81922,2.06497 -2.32031,4.875 0.46712,-1.75426 1.93886,-3.31054 3.73047,-4.04688 L 135,221 v 2 h 2 v -2 l -0.48828,-6.80469 c 1.79161,0.73634 3.26335,2.29262 3.73047,4.04688 0.49892,-2.81003 -0.82897,-4.6271 -2.32031,-4.875 1.42187,-0.24415 2.90872,-0.0448 4.07812,0.63281 -1.6355,-2.34164 -3.86257,-2.68463 -5.0918,-1.80273 0.83288,-1.18005 2.02646,-2.09129 3.33399,-2.43946 -1.96729,-0.34929 -3.44464,0.19935 -4.24219,1.07032 -0.59248,-0.64703 -1.55769,-1.1172 -2.82422,-1.17188 z" fill="#000" transform="translate(8.0,8.0) translate(-136.0,-216.0)" /><path d="m 37,223 h 6 l 2,-2 H 35 Z" fill="#000" transform="translate(8.0,8.0) translate(-40.0,-216.0)" /></svg>