<?xml version="1.0" encoding="utf-8" ?>
<svg baseProfile="full" height="16" version="1.1" width="16" xmlns="http://www.w3.org/2000/svg" xmlns:ev="http://www.w3.org/2001/xml-events" xmlns:xlink="http://www.w3.org/1999/xlink"><defs /><path d="m 295.5,83 c -0.277,0 -0.5,0.223 -0.5,0.5 V 84 h -4.5 c -0.277,0 -0.5,0.223 -0.5,0.5 0,0.277 0.223,0.5 0.5,0.5 h 11 c 0.277,0 0.5,-0.223 0.5,-0.5 0,-0.277 -0.223,-0.5 -0.5,-0.5 H 297 v -0.5 c 0,-0.277 -0.223,-0.5 -0.5,-0.5 z m -4.5,3 v 1.5 0.5 3.5 c 0,0.831 0.669,1.5 1.5,1.5 h 7 c 0.831,0 1.5,-0.669 1.5,-1.5 V 88 87.5 86 h -1.5 -7 z" fill="#000" transform="translate(8.0,8.0) translate(-296.0,-88.0)" /><path d="m 295.5,83 c -0.277,0 -0.5,0.223 -0.5,0.5 V 84 h -4.5 c -0.277,0 -0.5,0.223 -0.5,0.5 0,0.277 0.223,0.5 0.5,0.5 h 11 c 0.277,0 0.5,-0.223 0.5,-0.5 0,-0.277 -0.223,-0.5 -0.5,-0.5 H 297 v -0.5 c 0,-0.277 -0.223,-0.5 -0.5,-0.5 z m -4.5,3 v 1.5 0.5 3.5 c 0,0.831 0.669,1.5 1.5,1.5 h 7 c 0.831,0 1.5,-0.669 1.5,-1.5 V 88 87.5 86 h -1.5 -7 z" fill="#000" transform="translate(8.0,8.0) translate(-296.0,-88.0)" /></svg>