<?xml version="1.0" encoding="utf-8" ?>
<svg baseProfile="full" height="16" version="1.1" width="16" xmlns="http://www.w3.org/2000/svg" xmlns:ev="http://www.w3.org/2001/xml-events" xmlns:xlink="http://www.w3.org/1999/xlink"><defs /><path d="m 118,433 c 0,1 0,2 2,2 0,-1 0,-2 -2,-2 z m 1.44336,2.72656 C 118.65942,435.71387 118,437.1875 118,438 c 0,2 -2,3 -2,5 0,2 2,4 4,3 2,1 4,-1 4,-3 0,-2 -2,-3 -2,-5 0,-1 -1,-3 -2,-2 -0.1875,-0.1875 -0.37573,-0.27051 -0.55664,-0.27344 z" fill="#000" transform="translate(8.0,8.0) translate(-120.0,-440.0)" /><path d="m 118,433 c 0,1 0,2 2,2 0,-1 0,-2 -2,-2 z m 1.44336,2.72656 C 118.65942,435.71387 118,437.1875 118,438 c 0,2 -2,3 -2,5 0,2 2,4 4,3 2,1 4,-1 4,-3 0,-2 -2,-3 -2,-5 0,-1 -1,-3 -2,-2 -0.1875,-0.1875 -0.37573,-0.27051 -0.55664,-0.27344 z" fill="#000" transform="translate(8.0,8.0) translate(-120.0,-440.0)" /></svg>