<?xml version="1.0" encoding="utf-8" ?>
<svg baseProfile="full" height="16" version="1.1" width="16" xmlns="http://www.w3.org/2000/svg" xmlns:ev="http://www.w3.org/2001/xml-events" xmlns:xlink="http://www.w3.org/1999/xlink"><defs /><path d="m 579.5,435 c -0.277,0 -0.5,0.223 -0.5,0.5 0,0.277 0.223,0.5 0.5,0.5 h 1 c 0.277,0 0.5,-0.223 0.5,-0.5 0,-0.277 -0.223,-0.5 -0.5,-0.5 z m 3.5,0 c -0.37879,-3e-5 -0.72509,0.21395 -0.89453,0.55273 L 581.38281,437 H 580 c -0.55226,6e-5 -0.99994,0.44774 -1,1 v 5 c 6e-5,0.55226 0.44774,0.99994 1,1 h 8 c 0.55226,-6e-5 0.99994,-0.44774 1,-1 v -5 c -6e-5,-0.55226 -0.44774,-0.99994 -1,-1 h -1.38281 l -0.72266,-1.44727 C 585.72509,435.21395 585.37879,434.99997 585,435 Z m 1,3 a 2,2 0 0 1 2,2 2,2 0 0 1 -2,2 2,2 0 0 1 -2,-2 2,2 0 0 1 2,-2 z" fill="#000" transform="translate(8.0,8.0) translate(-584.0,-440.0)" /><path d="m 579.5,435 c -0.277,0 -0.5,0.223 -0.5,0.5 0,0.277 0.223,0.5 0.5,0.5 h 1 c 0.277,0 0.5,-0.223 0.5,-0.5 0,-0.277 -0.223,-0.5 -0.5,-0.5 z m 3.5,0 c -0.37879,-3e-5 -0.72509,0.21395 -0.89453,0.55273 L 581.38281,437 H 580 c -0.55226,6e-5 -0.99994,0.44774 -1,1 v 5 c 6e-5,0.55226 0.44774,0.99994 1,1 h 8 c 0.55226,-6e-5 0.99994,-0.44774 1,-1 v -5 c -6e-5,-0.55226 -0.44774,-0.99994 -1,-1 h -1.38281 l -0.72266,-1.44727 C 585.72509,435.21395 585.37879,434.99997 585,435 Z m 1,3 a 2,2 0 0 1 2,2 2,2 0 0 1 -2,2 2,2 0 0 1 -2,-2 2,2 0 0 1 2,-2 z" fill="#000" transform="translate(8.0,8.0) translate(-584.0,-440.0)" /></svg>