<?xml version="1.0" encoding="utf-8" ?>
<svg baseProfile="full" height="16" version="1.1" width="16" xmlns="http://www.w3.org/2000/svg" xmlns:ev="http://www.w3.org/2001/xml-events" xmlns:xlink="http://www.w3.org/1999/xlink"><defs /><path d="m 421,370 v 0.5 c 0,0.277 0.223,0.5 0.5,0.5 h 0.5 c 0,0.277 0.223,0.5 0.5,0.5 h 0.5 v 9 h -0.5 c -0.277,0 -0.5,0.223 -0.5,0.5 h -0.5 c -0.277,0 -0.5,0.223 -0.5,0.5 v 0.5 h 5.94922 v -0.5 c 0,-0.277 -0.223,-0.5 -0.5,-0.5 H 426 c 0,-0.277 -0.223,-0.5 -0.5,-0.5 H 425 v -9 h 0.5 c 0.277,0 0.5,-0.223 0.5,-0.5 h 0.44922 c 0.277,0 0.5,-0.223 0.5,-0.5 V 370 h -0.5 H 421.5 Z" fill="#000" transform="translate(8.0,8.0) translate(-424.0,-376.0)" /><path d="m 421,370 v 0.5 c 0,0.277 0.223,0.5 0.5,0.5 h 0.5 c 0,0.277 0.223,0.5 0.5,0.5 h 0.5 v 9 h -0.5 c -0.277,0 -0.5,0.223 -0.5,0.5 h -0.5 c -0.277,0 -0.5,0.223 -0.5,0.5 v 0.5 h 5.94922 v -0.5 c 0,-0.277 -0.223,-0.5 -0.5,-0.5 H 426 c 0,-0.277 -0.223,-0.5 -0.5,-0.5 H 425 v -9 h 0.5 c 0.277,0 0.5,-0.223 0.5,-0.5 h 0.44922 c 0.277,0 0.5,-0.223 0.5,-0.5 V 370 h -0.5 H 421.5 Z" fill="#000" transform="translate(8.0,8.0) translate(-424.0,-376.0)" /></svg>