<?xml version="1.0" encoding="utf-8" ?>
<svg baseProfile="full" height="16" version="1.1" width="16" xmlns="http://www.w3.org/2000/svg" xmlns:ev="http://www.w3.org/2001/xml-events" xmlns:xlink="http://www.w3.org/1999/xlink"><defs /><path d="m 247.5,498.5 c -0.277,0 -0.5,0.21376 -0.5,0.47852 V 499 h -1.5 c -0.277,0 -0.5,0.21376 -0.5,0.47852 v 0.043 c 0,0.26476 0.223,0.47852 0.5,0.47852 h 1.5 v 1 h 1 v -1 h 1.5 c 0.277,0 0.5,-0.21376 0.5,-0.47852 v -0.043 C 250,499.21376 249.777,499 249.5,499 H 248 v -0.0215 C 248,498.71376 247.777,498.5 247.5,498.5 Z m -5,3.5 c -0.277,0 -0.5,0.21376 -0.5,0.47852 v 4.04296 c 0,0.26476 0.223,0.47852 0.5,0.47852 0.277,0 0.5,-0.21376 0.5,-0.47852 V 506 h 2 v 0.52148 c 0,0.26476 0.223,0.47852 0.5,0.47852 h 4 c 0.277,0 0.5,-0.21376 0.5,-0.47852 V 506 h 2 v 0.52148 c 0,0.26476 0.223,0.47852 0.5,0.47852 0.277,0 0.5,-0.21376 0.5,-0.47852 v -4.04296 C 253,502.21376 252.777,502 252.5,502 c -0.277,0 -0.5,0.21376 -0.5,0.47852 V 503 h -2 v -0.52148 C 250,502.21376 249.777,502 249.5,502 h -4 c -0.277,0 -0.5,0.21376 -0.5,0.47852 V 503 h -2 v -0.52148 C 243,502.21376 242.777,502 242.5,502 Z" fill="#000" transform="translate(8.0,8.0) translate(-248.0,-504.0)" /><path d="m 247.5,498.5 c -0.277,0 -0.5,0.21376 -0.5,0.47852 V 499 h -1.5 c -0.277,0 -0.5,0.21376 -0.5,0.47852 v 0.043 c 0,0.26476 0.223,0.47852 0.5,0.47852 h 1.5 v 1 h 1 v -1 h 1.5 c 0.277,0 0.5,-0.21376 0.5,-0.47852 v -0.043 C 250,499.21376 249.777,499 249.5,499 H 248 v -0.0215 C 248,498.71376 247.777,498.5 247.5,498.5 Z m -5,3.5 c -0.277,0 -0.5,0.21376 -0.5,0.47852 v 4.04296 c 0,0.26476 0.223,0.47852 0.5,0.47852 0.277,0 0.5,-0.21376 0.5,-0.47852 V 506 h 2 v 0.52148 c 0,0.26476 0.223,0.47852 0.5,0.47852 h 4 c 0.277,0 0.5,-0.21376 0.5,-0.47852 V 506 h 2 v 0.52148 c 0,0.26476 0.223,0.47852 0.5,0.47852 0.277,0 0.5,-0.21376 0.5,-0.47852 v -4.04296 C 253,502.21376 252.777,502 252.5,502 c -0.277,0 -0.5,0.21376 -0.5,0.47852 V 503 h -2 v -0.52148 C 250,502.21376 249.777,502 249.5,502 h -4 c -0.277,0 -0.5,0.21376 -0.5,0.47852 V 503 h -2 v -0.52148 C 243,502.21376 242.777,502 242.5,502 Z" fill="#000" transform="translate(8.0,8.0) translate(-248.0,-504.0)" /></svg>