<?xml version="1.0" encoding="utf-8" ?>
<svg baseProfile="full" height="16" version="1.1" width="16" xmlns="http://www.w3.org/2000/svg" xmlns:ev="http://www.w3.org/2001/xml-events" xmlns:xlink="http://www.w3.org/1999/xlink"><defs /><path d="M 215.49219,592.99219 A 0.50005,0.50005 0 0 0 215,593.5 v 5.35938 l -0.3125,0.25 A 0.50024018,0.50024018 0 0 0 215,600 v 2.01562 l -1.75781,1.05469 a 0.50109829,0.50109829 0 1 0 0.51562,0.85938 L 215,603.18359 V 606 h -2.5 a 0.50005,0.50005 0 1 0 0,1 h 2.91992 a 0.50005,0.50005 0 0 0 0.16211,0 H 218.5 a 0.50005,0.50005 0 1 0 0,-1 H 216 v -3.41797 l 0.18359,-0.10937 2.41407,-0.48243 a 0.50005,0.50005 0 0 0 0.002,0 0.50005,0.50005 0 0 0 0.0488,-0.0117 0.50005,0.50005 0 0 0 0.0156,-0.006 0.50005,0.50005 0 0 0 0.0293,-0.01 0.50005,0.50005 0 0 0 0.002,-0.002 0.50005,0.50005 0 0 0 0.30469,-0.57617 v -3.88477 A 0.50005,0.50005 0 0 0 218.5,597 h -0.9375 a 0.50005,0.50005 0 0 0 -0.0664,-0.004 0.50005,0.50005 0 0 0 -0.14648,0.0254 0.50005,0.50005 0 0 0 -0.0469,0.0176 0.50005,0.50005 0 0 0 -0.0449,0.0215 0.50005,0.50005 0 0 0 -0.043,0.0273 0.50005,0.50005 0 0 0 -0.0273,0.0215 0.50005,0.50005 0 0 0 -0.01,0.008 l -1.17773,0.9414 v -4.55859 a 0.50005,0.50005 0 0 0 -0.50781,-0.50781 z M 218,594 c -0.554,0 -1,0.446 -1,1 0,0.554 0.446,1 1,1 0.554,0 1,-0.446 1,-1 0,-0.554 -0.446,-1 -1,-1 z m -1,4.54102 v 2.75 l -1,0.19921 v -2.15039 z" fill="#000" transform="translate(8.0,8.0) translate(-216.0,-600.0)" /><path d="M 215.49219,592.99219 A 0.50005,0.50005 0 0 0 215,593.5 v 5.35938 l -0.3125,0.25 A 0.50024018,0.50024018 0 0 0 215,600 v 2.01562 l -1.75781,1.05469 a 0.50109829,0.50109829 0 1 0 0.51562,0.85938 L 215,603.18359 V 606 h -2.5 a 0.50005,0.50005 0 1 0 0,1 h 2.91992 a 0.50005,0.50005 0 0 0 0.16211,0 H 218.5 a 0.50005,0.50005 0 1 0 0,-1 H 216 v -3.41797 l 0.18359,-0.10937 2.41407,-0.48243 a 0.50005,0.50005 0 0 0 0.002,0 0.50005,0.50005 0 0 0 0.0488,-0.0117 0.50005,0.50005 0 0 0 0.0156,-0.006 0.50005,0.50005 0 0 0 0.0293,-0.01 0.50005,0.50005 0 0 0 0.002,-0.002 0.50005,0.50005 0 0 0 0.30469,-0.57617 v -3.88477 A 0.50005,0.50005 0 0 0 218.5,597 h -0.9375 a 0.50005,0.50005 0 0 0 -0.0664,-0.004 0.50005,0.50005 0 0 0 -0.14648,0.0254 0.50005,0.50005 0 0 0 -0.0469,0.0176 0.50005,0.50005 0 0 0 -0.0449,0.0215 0.50005,0.50005 0 0 0 -0.043,0.0273 0.50005,0.50005 0 0 0 -0.0273,0.0215 0.50005,0.50005 0 0 0 -0.01,0.008 l -1.17773,0.9414 v -4.55859 a 0.50005,0.50005 0 0 0 -0.50781,-0.50781 z M 218,594 c -0.554,0 -1,0.446 -1,1 0,0.554 0.446,1 1,1 0.554,0 1,-0.446 1,-1 0,-0.554 -0.446,-1 -1,-1 z m -1,4.54102 v 2.75 l -1,0.19921 v -2.15039 z" fill="#000" transform="translate(8.0,8.0) translate(-216.0,-600.0)" /></svg>