<?xml version="1.0" encoding="utf-8" ?>
<svg baseProfile="full" height="16" version="1.1" width="16" xmlns="http://www.w3.org/2000/svg" xmlns:ev="http://www.w3.org/2001/xml-events" xmlns:xlink="http://www.w3.org/1999/xlink"><defs /><path d="m 107,370 v 1 c 0,0.554 -0.446,1 -1,1 h -1 c -0.54314,0 -0.98298,-0.42989 -1,-0.96875 -0.63691,0.0664 -1.10058,0.25683 -1.40625,0.5625 C 102.2116,371.9759 102,372.58333 102,373.5 v 9.5 h -1 v -9.5 c 0,-1.08333 0.2884,-1.9759 0.90625,-2.59375 C 102.5241,370.2884 103.41667,370 104.5,370 h 0.5 1 z" fill="#000" transform="translate(8.0,8.0) translate(-104.0,-376.0)" /><path d="m 107,370 v 1 c 0,0.554 -0.446,1 -1,1 h -1 c -0.54314,0 -0.98298,-0.42989 -1,-0.96875 -0.63691,0.0664 -1.10058,0.25683 -1.40625,0.5625 C 102.2116,371.9759 102,372.58333 102,373.5 v 9.5 h -1 v -9.5 c 0,-1.08333 0.2884,-1.9759 0.90625,-2.59375 C 102.5241,370.2884 103.41667,370 104.5,370 h 0.5 1 z" fill="#000" transform="translate(8.0,8.0) translate(-104.0,-376.0)" /></svg>