<?xml version="1.0" encoding="utf-8" ?>
<svg baseProfile="full" height="16" version="1.1" width="16" xmlns="http://www.w3.org/2000/svg" xmlns:ev="http://www.w3.org/2001/xml-events" xmlns:xlink="http://www.w3.org/1999/xlink"><defs /><path d="m 323.48438,273.99219 a 0.50005,0.50005 0 0 0 -0.48243,0.46679 L 322.95703,275 H 322.5 a 0.50005,0.50005 0 1 0 0,1 h 0.37305 l -0.084,1 H 322.5 a 0.50005,0.50005 0 1 0 0,1 h 0.20703 l -0.084,1 H 322.5 a 0.50005,0.50005 0 1 0 0,1 h 0.041 l -0.53907,6.45898 a 0.50005,0.50005 0 1 0 0.9961,0.082 L 323.54297,280 h 7.91406 l 0.54492,6.54102 a 0.50005,0.50005 0 1 0 0.9961,-0.082 L 332.45898,280 h 0.041 a 0.50005,0.50005 0 1 0 0,-1 h -0.12305 l -0.084,-1 H 332.5 a 0.50005,0.50005 0 1 0 0,-1 h -0.28906 l -0.084,-1 H 332.5 a 0.50005,0.50005 0 1 0 0,-1 h -0.45703 l -0.0449,-0.54102 a 0.50005,0.50005 0 0 0 -0.49805,-0.46679 0.50005,0.50005 0 0 0 -0.49805,0.54883 l 0.039,0.45898 h -7.08204 l 0.0391,-0.45898 a 0.50005,0.50005 0 0 0 -0.51367,-0.54883 z M 323.87695,276 h 7.2461 l 0.084,1 h -7.41406 z m -0.16601,2 h 7.57812 l 0.084,1 h -7.7461 z m 1.78125,2.49219 A 0.50005,0.50005 0 0 0 325,281 v 1 a 0.50005,0.50005 0 1 0 1,0 v -1 a 0.50005,0.50005 0 0 0 -0.50781,-0.50781 z m 4,0 A 0.50005,0.50005 0 0 0 329,281 v 1 a 0.50005,0.50005 0 1 0 1,0 v -1 a 0.50005,0.50005 0 0 0 -0.50781,-0.50781 z" fill="#000" transform="translate(8.0,8.0) translate(-328.0,-280.0)" /><path d="m 323.48438,273.99219 a 0.50005,0.50005 0 0 0 -0.48243,0.46679 L 322.95703,275 H 322.5 a 0.50005,0.50005 0 1 0 0,1 h 0.37305 l -0.084,1 H 322.5 a 0.50005,0.50005 0 1 0 0,1 h 0.20703 l -0.084,1 H 322.5 a 0.50005,0.50005 0 1 0 0,1 h 0.041 l -0.53907,6.45898 a 0.50005,0.50005 0 1 0 0.9961,0.082 L 323.54297,280 h 7.91406 l 0.54492,6.54102 a 0.50005,0.50005 0 1 0 0.9961,-0.082 L 332.45898,280 h 0.041 a 0.50005,0.50005 0 1 0 0,-1 h -0.12305 l -0.084,-1 H 332.5 a 0.50005,0.50005 0 1 0 0,-1 h -0.28906 l -0.084,-1 H 332.5 a 0.50005,0.50005 0 1 0 0,-1 h -0.45703 l -0.0449,-0.54102 a 0.50005,0.50005 0 0 0 -0.49805,-0.46679 0.50005,0.50005 0 0 0 -0.49805,0.54883 l 0.039,0.45898 h -7.08204 l 0.0391,-0.45898 a 0.50005,0.50005 0 0 0 -0.51367,-0.54883 z M 323.87695,276 h 7.2461 l 0.084,1 h -7.41406 z m -0.16601,2 h 7.57812 l 0.084,1 h -7.7461 z m 1.78125,2.49219 A 0.50005,0.50005 0 0 0 325,281 v 1 a 0.50005,0.50005 0 1 0 1,0 v -1 a 0.50005,0.50005 0 0 0 -0.50781,-0.50781 z m 4,0 A 0.50005,0.50005 0 0 0 329,281 v 1 a 0.50005,0.50005 0 1 0 1,0 v -1 a 0.50005,0.50005 0 0 0 -0.50781,-0.50781 z" fill="#000" transform="translate(8.0,8.0) translate(-328.0,-280.0)" /></svg>