<?xml version="1.0" encoding="utf-8" ?>
<svg baseProfile="full" height="16" version="1.1" width="16" xmlns="http://www.w3.org/2000/svg" xmlns:ev="http://www.w3.org/2001/xml-events" xmlns:xlink="http://www.w3.org/1999/xlink"><defs /><path d="m 199.5,306 c -0.277,0 -0.5,0.223 -0.5,0.5 v 0.5 h -1.5 a 0.5,0.5 0 0 0 -0.5,0.5 0.5,0.5 0 0 0 0.5,0.5 h 1.5 v 3 h -1.5 a 0.5,0.5 0 0 0 -0.5,0.5 0.5,0.5 0 0 0 0.5,0.5 h 1.5 v 6.5 c 0,0.277 0.223,0.5 0.5,0.5 h 1 c 0.277,0 0.5,-0.223 0.5,-0.5 V 310 h 1.5 a 0.5,0.5 0 0 0 0.5,-0.5 0.5,0.5 0 0 0 -0.5,-0.5 H 201 v -2.5 c 0,-0.277 -0.223,-0.5 -0.5,-0.5 z m 3,4.5 A 0.5,0.5 0 0 0 202,311 v 1 a 0.5,0.5 0 0 0 0.5,0.5 0.5,0.5 0 0 0 0.5,-0.5 v -1 a 0.5,0.5 0 0 0 -0.5,-0.5 z m -5,2 A 0.5,0.5 0 0 0 197,313 v 1 a 0.5,0.5 0 0 0 0.5,0.5 0.5,0.5 0 0 0 0.5,-0.5 v -1 a 0.5,0.5 0 0 0 -0.5,-0.5 z" fill="#000" transform="translate(8.0,8.0) translate(-200.0,-312.0)" /><path d="m 199.5,306 c -0.277,0 -0.5,0.223 -0.5,0.5 v 0.5 h -1.5 a 0.5,0.5 0 0 0 -0.5,0.5 0.5,0.5 0 0 0 0.5,0.5 h 1.5 v 3 h -1.5 a 0.5,0.5 0 0 0 -0.5,0.5 0.5,0.5 0 0 0 0.5,0.5 h 1.5 v 6.5 c 0,0.277 0.223,0.5 0.5,0.5 h 1 c 0.277,0 0.5,-0.223 0.5,-0.5 V 310 h 1.5 a 0.5,0.5 0 0 0 0.5,-0.5 0.5,0.5 0 0 0 -0.5,-0.5 H 201 v -2.5 c 0,-0.277 -0.223,-0.5 -0.5,-0.5 z m 3,4.5 A 0.5,0.5 0 0 0 202,311 v 1 a 0.5,0.5 0 0 0 0.5,0.5 0.5,0.5 0 0 0 0.5,-0.5 v -1 a 0.5,0.5 0 0 0 -0.5,-0.5 z m -5,2 A 0.5,0.5 0 0 0 197,313 v 1 a 0.5,0.5 0 0 0 0.5,0.5 0.5,0.5 0 0 0 0.5,-0.5 v -1 a 0.5,0.5 0 0 0 -0.5,-0.5 z" fill="#000" transform="translate(8.0,8.0) translate(-200.0,-312.0)" /></svg>