<?xml version="1.0" encoding="utf-8" ?>
<svg baseProfile="full" height="16" version="1.1" width="16" xmlns="http://www.w3.org/2000/svg" xmlns:ev="http://www.w3.org/2001/xml-events" xmlns:xlink="http://www.w3.org/1999/xlink"><defs /><path d="m 370.5,179 c -0.277,0 -0.5,0.223 -0.5,0.5 v 8 c 0,0.277 0.223,0.5 0.5,0.5 h 0.5 v 1 h 1 l 0.5,-1 h 4.5 c 0,-1.10457 0.89543,-2 2,-2 1.10457,0 2,0.89543 2,2 h 0.5 c 0.277,0 0.5,-0.223 0.5,-0.5 v -8 c 0,-0.277 -0.223,-0.5 -0.5,-0.5 z m 1,1 h 2 c 0.277,0 0.5,0.223 0.5,0.5 0,0.277 -0.223,0.5 -0.5,0.5 h -2 c -0.277,0 -0.5,-0.223 -0.5,-0.5 0,-0.277 0.223,-0.5 0.5,-0.5 z m 6.5,-0.5 v 2.5 l 2.5,-0.5 -2.5,4 V 183 l -2.5,0.5 z m -6.5,2.5 h 2 c 0.277,0 0.5,0.223 0.5,0.5 0,0.277 -0.223,0.5 -0.5,0.5 h -2 c -0.277,0 -0.5,-0.223 -0.5,-0.5 0,-0.277 0.223,-0.5 0.5,-0.5 z m 0,2 h 2 c 0.277,0 0.5,0.223 0.5,0.5 0,0.277 -0.223,0.5 -0.5,0.5 h -2 c -0.277,0 -0.5,-0.223 -0.5,-0.5 0,-0.277 0.223,-0.5 0.5,-0.5 z m 7.5,3 c -0.55228,0 -1,0.44772 -1,1 0,0.55228 0.44772,1 1,1 0.55228,0 1,-0.44772 1,-1 0,-0.55228 -0.44772,-1 -1,-1 z" fill="#000" transform="translate(8.0,8.0) translate(-376.0,-184.0)" /><path d="m 370.5,179 c -0.277,0 -0.5,0.223 -0.5,0.5 v 8 c 0,0.277 0.223,0.5 0.5,0.5 h 0.5 v 1 h 1 l 0.5,-1 h 4.5 c 0,-1.10457 0.89543,-2 2,-2 1.10457,0 2,0.89543 2,2 h 0.5 c 0.277,0 0.5,-0.223 0.5,-0.5 v -8 c 0,-0.277 -0.223,-0.5 -0.5,-0.5 z m 1,1 h 2 c 0.277,0 0.5,0.223 0.5,0.5 0,0.277 -0.223,0.5 -0.5,0.5 h -2 c -0.277,0 -0.5,-0.223 -0.5,-0.5 0,-0.277 0.223,-0.5 0.5,-0.5 z m 6.5,-0.5 v 2.5 l 2.5,-0.5 -2.5,4 V 183 l -2.5,0.5 z m -6.5,2.5 h 2 c 0.277,0 0.5,0.223 0.5,0.5 0,0.277 -0.223,0.5 -0.5,0.5 h -2 c -0.277,0 -0.5,-0.223 -0.5,-0.5 0,-0.277 0.223,-0.5 0.5,-0.5 z m 0,2 h 2 c 0.277,0 0.5,0.223 0.5,0.5 0,0.277 -0.223,0.5 -0.5,0.5 h -2 c -0.277,0 -0.5,-0.223 -0.5,-0.5 0,-0.277 0.223,-0.5 0.5,-0.5 z m 7.5,3 c -0.55228,0 -1,0.44772 -1,1 0,0.55228 0.44772,1 1,1 0.55228,0 1,-0.44772 1,-1 0,-0.55228 -0.44772,-1 -1,-1 z" fill="#000" transform="translate(8.0,8.0) translate(-376.0,-184.0)" /></svg>