<?xml version="1.0" encoding="utf-8" ?>
<svg baseProfile="full" height="16" version="1.1" width="16" xmlns="http://www.w3.org/2000/svg" xmlns:ev="http://www.w3.org/2001/xml-events" xmlns:xlink="http://www.w3.org/1999/xlink"><defs /><path d="m 38.5,274 a 0.50005,0.50005 0 0 0 -0.35352,0.14648 l -3,3 A 0.50005,0.50005 0 0 0 35.5,278 H 38 v 1.25 l -3.80078,2.84961 A 0.50005,0.50005 0 0 0 34.5,283 h 3.19141 l -1.63868,3.27734 a 0.50005,0.50005 0 1 0 0.89454,0.44532 L 37.30859,286 h 4.38282 l 0.36132,0.72266 a 0.50005,0.50005 0 1 0 0.89454,-0.44532 L 41.30859,283 H 44.5 a 0.50005,0.50005 0 0 0 0.30078,-0.90039 L 41,279.25 V 278 h 2.5 a 0.50005,0.50005 0 0 0 0.35352,-0.85352 l -3,-3 A 0.50005,0.50005 0 0 0 40.5,274 Z m 0.5,1 h 1 v 2 h -1 z m -1,0.70703 V 277 h -1.29297 z m 3,0 L 42.29297,277 H 41 Z M 39,278 h 1 v 1 h -1 z m 0,2 h 1 v 2 h -1 z m 2,0.5 2,1.5 h -2 z m -3,0.002 V 282 H 36.00195 L 38,280.50195 Z M 38.80859,283 h 1.38282 l 1,2 h -3.38282 z" fill="#000" transform="translate(8.0,8.0) translate(-40.0,-280.0)" /><path d="m 38.5,274 a 0.50005,0.50005 0 0 0 -0.35352,0.14648 l -3,3 A 0.50005,0.50005 0 0 0 35.5,278 H 38 v 1.25 l -3.80078,2.84961 A 0.50005,0.50005 0 0 0 34.5,283 h 3.19141 l -1.63868,3.27734 a 0.50005,0.50005 0 1 0 0.89454,0.44532 L 37.30859,286 h 4.38282 l 0.36132,0.72266 a 0.50005,0.50005 0 1 0 0.89454,-0.44532 L 41.30859,283 H 44.5 a 0.50005,0.50005 0 0 0 0.30078,-0.90039 L 41,279.25 V 278 h 2.5 a 0.50005,0.50005 0 0 0 0.35352,-0.85352 l -3,-3 A 0.50005,0.50005 0 0 0 40.5,274 Z m 0.5,1 h 1 v 2 h -1 z m -1,0.70703 V 277 h -1.29297 z m 3,0 L 42.29297,277 H 41 Z M 39,278 h 1 v 1 h -1 z m 0,2 h 1 v 2 h -1 z m 2,0.5 2,1.5 h -2 z m -3,0.002 V 282 H 36.00195 L 38,280.50195 Z M 38.80859,283 h 1.38282 l 1,2 h -3.38282 z" fill="#000" transform="translate(8.0,8.0) translate(-40.0,-280.0)" /></svg>