<?xml version="1.0" encoding="utf-8" ?>
<svg baseProfile="full" height="16" version="1.1" width="16" xmlns="http://www.w3.org/2000/svg" xmlns:ev="http://www.w3.org/2001/xml-events" xmlns:xlink="http://www.w3.org/1999/xlink"><defs /><path d="M 179.49219,273.99219 A 0.50005,0.50005 0 0 0 179,274.5 v 0.5 h -1 a 0.50005,0.50005 0 1 0 0,1 h 1 v 1 h -1 a 0.50005,0.50005 0 1 0 0,1 h 1 v 0.41797 a 0.50005,0.50005 0 0 0 0.0898,0.37109 L 182,283.63867 V 286.5 a 0.50005,0.50005 0 1 0 1,0 V 286 h 1 v 0.5 a 0.50005,0.50005 0 1 0 1,0 v -2.86133 l 2.90625,-4.84375 a 0.50005,0.50005 0 0 0 0.008,-0.01 0.50005,0.50005 0 0 0 0.0857,-0.36695 V 278 h 1 a 0.50005,0.50005 0 1 0 0,-1 h -1 v -1 h 1 a 0.50005,0.50005 0 1 0 0,-1 h -1 v -0.5 A 0.50005,0.50005 0 0 0 187.49219,273.99219 0.50005,0.50005 0 0 0 187,274.5 v 0.5 h -7 v -0.5 a 0.50005,0.50005 0 0 0 -0.50781,-0.50781 z M 180,276 h 7 v 1 h -7 z m 0,2 h 7 v 0.25 l -3.5,2.625 -3.5,-2.625 z m 1.24414,2.43555 1.62109,1.21484 -0.40429,0.81055 z m 4.51172,0 -1.2168,2.02539 -0.40429,-0.81055 z m -2.25586,2.18359 0.5,0.99805 V 285 h -1 v -1.38281 z" fill="#000" transform="translate(8.0,8.0) translate(-184.0,-280.0)" /><path d="M 179.49219,273.99219 A 0.50005,0.50005 0 0 0 179,274.5 v 0.5 h -1 a 0.50005,0.50005 0 1 0 0,1 h 1 v 1 h -1 a 0.50005,0.50005 0 1 0 0,1 h 1 v 0.41797 a 0.50005,0.50005 0 0 0 0.0898,0.37109 L 182,283.63867 V 286.5 a 0.50005,0.50005 0 1 0 1,0 V 286 h 1 v 0.5 a 0.50005,0.50005 0 1 0 1,0 v -2.86133 l 2.90625,-4.84375 a 0.50005,0.50005 0 0 0 0.008,-0.01 0.50005,0.50005 0 0 0 0.0857,-0.36695 V 278 h 1 a 0.50005,0.50005 0 1 0 0,-1 h -1 v -1 h 1 a 0.50005,0.50005 0 1 0 0,-1 h -1 v -0.5 A 0.50005,0.50005 0 0 0 187.49219,273.99219 0.50005,0.50005 0 0 0 187,274.5 v 0.5 h -7 v -0.5 a 0.50005,0.50005 0 0 0 -0.50781,-0.50781 z M 180,276 h 7 v 1 h -7 z m 0,2 h 7 v 0.25 l -3.5,2.625 -3.5,-2.625 z m 1.24414,2.43555 1.62109,1.21484 -0.40429,0.81055 z m 4.51172,0 -1.2168,2.02539 -0.40429,-0.81055 z m -2.25586,2.18359 0.5,0.99805 V 285 h -1 v -1.38281 z" fill="#000" transform="translate(8.0,8.0) translate(-184.0,-280.0)" /></svg>