<?xml version="1.0" encoding="utf-8" ?>
<svg baseProfile="full" height="16" version="1.1" width="16" xmlns="http://www.w3.org/2000/svg" xmlns:ev="http://www.w3.org/2001/xml-events" xmlns:xlink="http://www.w3.org/1999/xlink"><defs /><path d="m 307.48438,273.99219 a 0.50005,0.50005 0 0 0 -0.48243,0.46679 L 306.95703,275 H 306.5 a 0.50005,0.50005 0 1 0 0,1 h 0.37305 l -0.084,1 H 306.5 a 0.50005,0.50005 0 1 0 0,1 h 0.20703 l -0.70508,8.45898 a 0.50005,0.50005 0 1 0 0.9961,0.082 L 307.71094,278 h 7.57812 l 0.71289,8.54102 a 0.50005,0.50005 0 1 0 0.9961,-0.082 L 316.29297,278 H 316.5 a 0.50005,0.50005 0 1 0 0,-1 h -0.28906 l -0.084,-1 H 316.5 a 0.50005,0.50005 0 1 0 0,-1 h -0.45703 l -0.0449,-0.54102 a 0.50005,0.50005 0 0 0 -0.49805,-0.46679 0.50005,0.50005 0 0 0 -0.49805,0.54883 l 0.039,0.45898 h -7.08204 l 0.0391,-0.45898 a 0.50005,0.50005 0 0 0 -0.51367,-0.54883 z M 307.87695,276 h 7.2461 l 0.084,1 h -7.41406 z m 1.61524,2.49219 A 0.50005,0.50005 0 0 0 309,279 v 1 a 0.50005,0.50005 0 1 0 1,0 v -1 a 0.50005,0.50005 0 0 0 -0.50781,-0.50781 z m 4,0 A 0.50005,0.50005 0 0 0 313,279 v 1 a 0.50005,0.50005 0 1 0 1,0 v -1 a 0.50005,0.50005 0 0 0 -0.50781,-0.50781 z" fill="#000" transform="translate(8.0,8.0) translate(-312.0,-280.0)" /><path d="m 307.48438,273.99219 a 0.50005,0.50005 0 0 0 -0.48243,0.46679 L 306.95703,275 H 306.5 a 0.50005,0.50005 0 1 0 0,1 h 0.37305 l -0.084,1 H 306.5 a 0.50005,0.50005 0 1 0 0,1 h 0.20703 l -0.70508,8.45898 a 0.50005,0.50005 0 1 0 0.9961,0.082 L 307.71094,278 h 7.57812 l 0.71289,8.54102 a 0.50005,0.50005 0 1 0 0.9961,-0.082 L 316.29297,278 H 316.5 a 0.50005,0.50005 0 1 0 0,-1 h -0.28906 l -0.084,-1 H 316.5 a 0.50005,0.50005 0 1 0 0,-1 h -0.45703 l -0.0449,-0.54102 a 0.50005,0.50005 0 0 0 -0.49805,-0.46679 0.50005,0.50005 0 0 0 -0.49805,0.54883 l 0.039,0.45898 h -7.08204 l 0.0391,-0.45898 a 0.50005,0.50005 0 0 0 -0.51367,-0.54883 z M 307.87695,276 h 7.2461 l 0.084,1 h -7.41406 z m 1.61524,2.49219 A 0.50005,0.50005 0 0 0 309,279 v 1 a 0.50005,0.50005 0 1 0 1,0 v -1 a 0.50005,0.50005 0 0 0 -0.50781,-0.50781 z m 4,0 A 0.50005,0.50005 0 0 0 313,279 v 1 a 0.50005,0.50005 0 1 0 1,0 v -1 a 0.50005,0.50005 0 0 0 -0.50781,-0.50781 z" fill="#000" transform="translate(8.0,8.0) translate(-312.0,-280.0)" /></svg>