<?xml version="1.0" encoding="utf-8" ?>
<svg baseProfile="full" height="16" version="1.1" width="16" xmlns="http://www.w3.org/2000/svg" xmlns:ev="http://www.w3.org/2001/xml-events" xmlns:xlink="http://www.w3.org/1999/xlink"><defs /><path d="m 70.5,273 a 0.50005,0.50005 0 0 0 -0.32617,0.12109 l -3.5,3 A 0.50005,0.50005 0 0 0 67,277 h 2.14844 l -2.47461,2.12109 A 0.50005,0.50005 0 0 0 67,280 h 2.14844 l -2.47461,2.12109 A 0.50005,0.50005 0 0 0 67,283 h 2.69141 l -1.63868,3.27734 a 0.50005,0.50005 0 1 0 0.89454,0.44532 L 69.30859,286 h 4.38282 l 0.36132,0.72266 a 0.50005,0.50005 0 1 0 0.89454,-0.44532 L 73.30859,283 H 76 a 0.50005,0.50005 0 0 0 0.32617,-0.87891 L 73.85156,280 H 76 a 0.50005,0.50005 0 0 0 0.32617,-0.87891 L 73.85156,277 H 76 a 0.50005,0.50005 0 0 0 0.32617,-0.87891 l -3.5,-3 A 0.50005,0.50005 0 0 0 72.5,273 Z m 0.5,1 h 1 v 2 h -1 z m -1,0.58789 V 276 h -1.64844 z m 3,0 L 74.64844,276 H 73 Z M 71,277 h 1 v 2 h -1 z m -1,0.58789 V 279 h -1.64844 z m 3,0 L 74.64844,279 H 73 Z M 71,280 h 1 v 2 h -1 z m -1,0.58789 V 282 h -1.64844 z m 3,0 L 74.64844,282 H 73 Z M 70.80859,283 h 1.38282 l 1,2 h -3.38282 z" fill="#000" transform="translate(8.0,8.0) translate(-72.0,-280.0)" /><path d="m 70.5,273 a 0.50005,0.50005 0 0 0 -0.32617,0.12109 l -3.5,3 A 0.50005,0.50005 0 0 0 67,277 h 2.14844 l -2.47461,2.12109 A 0.50005,0.50005 0 0 0 67,280 h 2.14844 l -2.47461,2.12109 A 0.50005,0.50005 0 0 0 67,283 h 2.69141 l -1.63868,3.27734 a 0.50005,0.50005 0 1 0 0.89454,0.44532 L 69.30859,286 h 4.38282 l 0.36132,0.72266 a 0.50005,0.50005 0 1 0 0.89454,-0.44532 L 73.30859,283 H 76 a 0.50005,0.50005 0 0 0 0.32617,-0.87891 L 73.85156,280 H 76 a 0.50005,0.50005 0 0 0 0.32617,-0.87891 L 73.85156,277 H 76 a 0.50005,0.50005 0 0 0 0.32617,-0.87891 l -3.5,-3 A 0.50005,0.50005 0 0 0 72.5,273 Z m 0.5,1 h 1 v 2 h -1 z m -1,0.58789 V 276 h -1.64844 z m 3,0 L 74.64844,276 H 73 Z M 71,277 h 1 v 2 h -1 z m -1,0.58789 V 279 h -1.64844 z m 3,0 L 74.64844,279 H 73 Z M 71,280 h 1 v 2 h -1 z m -1,0.58789 V 282 h -1.64844 z m 3,0 L 74.64844,282 H 73 Z M 70.80859,283 h 1.38282 l 1,2 h -3.38282 z" fill="#000" transform="translate(8.0,8.0) translate(-72.0,-280.0)" /></svg>