<?xml version="1.0" encoding="utf-8" ?>
<svg baseProfile="full" height="16" version="1.1" width="16" xmlns="http://www.w3.org/2000/svg" xmlns:ev="http://www.w3.org/2001/xml-events" xmlns:xlink="http://www.w3.org/1999/xlink"><defs /><path d="m 226.5,274.99414 a 0.50005,0.50005 0 0 0 -0.0273,0.002 0.50005,0.50005 0 0 0 -0.002,0 0.50005,0.50005 0 0 0 -0.043,0.004 0.50005,0.50005 0 0 0 -0.0312,0.006 0.50005,0.50005 0 0 0 -0.0254,0.004 0.50005,0.50005 0 0 0 -0.0195,0.006 0.50005,0.50005 0 0 0 -0.043,0.0137 0.50005,0.50005 0 0 0 -0.01,0.004 0.50005,0.50005 0 0 0 -0.0215,0.01 0.50005,0.50005 0 0 0 -0.0176,0.01 0.50005,0.50005 0 0 0 -0.0254,0.0137 0.50005,0.50005 0 0 0 -0.0176,0.0117 0.50005,0.50005 0 0 0 -0.041,0.0313 0.50005,0.50005 0 0 0 -0.0352,0.0332 0.50005,0.50005 0 0 0 -0.0352,0.0371 0.50005,0.50005 0 0 0 0.0371,0.67578 L 230,280.67578 v 0.72852 l -1.9375,4.84179 a 0.50005,0.50005 0 0 0 0.69727,0.6836 0.50005,0.50005 0 0 0 0.002,-0.002 0.50050477,0.50050477 0 0 0 0.0137,-0.01 0.50005,0.50005 0 0 0 0.0312,-0.0234 l 0.0352,-0.0273 2.6582,-2.06836 2.68164,2.08594 a 0.50050477,0.50050477 0 0 0 0.0449,0.0351 0.50005,0.50005 0 0 0 0.006,0.004 0.50005,0.50005 0 0 0 0.70313,-0.68164 L 233,281.4043 v -0.72852 l 3.85938,-4.82422 a 0.50005,0.50005 0 0 0 0.12304,-0.50976 0.50005,0.50005 0 0 0 -0.0664,-0.13477 0.50005,0.50005 0 0 0 -0.01,-0.0137 0.50005,0.50005 0 0 0 -0.0215,-0.0254 0.50005,0.50005 0 0 0 -0.0352,-0.0352 0.50005,0.50005 0 0 0 -0.0117,-0.0117 0.50005,0.50005 0 0 0 -0.0254,-0.0215 0.50005,0.50005 0 0 0 -0.0137,-0.01 0.50005,0.50005 0 0 0 -0.0371,-0.0254 0.50005,0.50005 0 0 0 -0.004,-0.002 0.50005,0.50005 0 0 0 -0.0293,-0.0156 0.50005,0.50005 0 0 0 -0.0156,-0.008 0.50005,0.50005 0 0 0 -0.008,-0.004 0.50005,0.50005 0 0 0 -0.0391,-0.0137 0.50005,0.50005 0 0 0 -0.0312,-0.01 0.50005,0.50005 0 0 0 -0.0176,-0.004 0.50005,0.50005 0 0 0 -0.13281,-0.0137 0.50005,0.50005 0 0 0 -0.26563,0.0898 0.50005,0.50005 0 0 0 -0.0137,0.01 l -4.70508,2.82227 -4.70898,-2.82618 -0.008,-0.006 a 0.50005,0.50005 0 0 0 -0.0254,-0.0137 0.50005,0.50005 0 0 0 -0.13672,-0.0586 0.50005,0.50005 0 0 0 -0.0488,-0.01 0.50005,0.50005 0 0 0 -0.0508,-0.006 0.50005,0.50005 0 0 0 -0.0215,-0.002 z m 2.13086,2.36914 2.21484,1.32813 -0.44336,0.88671 z m 5.73828,0 -1.77148,2.21484 -0.44336,-0.88671 z m -2.86914,2.25586 0.5,0.99805 V 281 h -1 v -0.38281 z M 230.83984,282 h 1.32032 l 0.3125,0.77734 -0.97266,0.75586 -0.97266,-0.75586 z m -0.69726,1.74414 0.54297,0.42188 -1.03516,0.80468 z m 2.71484,0 0.49219,1.22656 -1.03516,-0.80468 z" fill="#000" transform="translate(8.0,8.0) translate(-232.0,-280.0)" /><path d="m 226.5,274.99414 a 0.50005,0.50005 0 0 0 -0.0273,0.002 0.50005,0.50005 0 0 0 -0.002,0 0.50005,0.50005 0 0 0 -0.043,0.004 0.50005,0.50005 0 0 0 -0.0312,0.006 0.50005,0.50005 0 0 0 -0.0254,0.004 0.50005,0.50005 0 0 0 -0.0195,0.006 0.50005,0.50005 0 0 0 -0.043,0.0137 0.50005,0.50005 0 0 0 -0.01,0.004 0.50005,0.50005 0 0 0 -0.0215,0.01 0.50005,0.50005 0 0 0 -0.0176,0.01 0.50005,0.50005 0 0 0 -0.0254,0.0137 0.50005,0.50005 0 0 0 -0.0176,0.0117 0.50005,0.50005 0 0 0 -0.041,0.0313 0.50005,0.50005 0 0 0 -0.0352,0.0332 0.50005,0.50005 0 0 0 -0.0352,0.0371 0.50005,0.50005 0 0 0 0.0371,0.67578 L 230,280.67578 v 0.72852 l -1.9375,4.84179 a 0.50005,0.50005 0 0 0 0.69727,0.6836 0.50005,0.50005 0 0 0 0.002,-0.002 0.50050477,0.50050477 0 0 0 0.0137,-0.01 0.50005,0.50005 0 0 0 0.0312,-0.0234 l 0.0352,-0.0273 2.6582,-2.06836 2.68164,2.08594 a 0.50050477,0.50050477 0 0 0 0.0449,0.0351 0.50005,0.50005 0 0 0 0.006,0.004 0.50005,0.50005 0 0 0 0.70313,-0.68164 L 233,281.4043 v -0.72852 l 3.85938,-4.82422 a 0.50005,0.50005 0 0 0 0.12304,-0.50976 0.50005,0.50005 0 0 0 -0.0664,-0.13477 0.50005,0.50005 0 0 0 -0.01,-0.0137 0.50005,0.50005 0 0 0 -0.0215,-0.0254 0.50005,0.50005 0 0 0 -0.0352,-0.0352 0.50005,0.50005 0 0 0 -0.0117,-0.0117 0.50005,0.50005 0 0 0 -0.0254,-0.0215 0.50005,0.50005 0 0 0 -0.0137,-0.01 0.50005,0.50005 0 0 0 -0.0371,-0.0254 0.50005,0.50005 0 0 0 -0.004,-0.002 0.50005,0.50005 0 0 0 -0.0293,-0.0156 0.50005,0.50005 0 0 0 -0.0156,-0.008 0.50005,0.50005 0 0 0 -0.008,-0.004 0.50005,0.50005 0 0 0 -0.0391,-0.0137 0.50005,0.50005 0 0 0 -0.0312,-0.01 0.50005,0.50005 0 0 0 -0.0176,-0.004 0.50005,0.50005 0 0 0 -0.13281,-0.0137 0.50005,0.50005 0 0 0 -0.26563,0.0898 0.50005,0.50005 0 0 0 -0.0137,0.01 l -4.70508,2.82227 -4.70898,-2.82618 -0.008,-0.006 a 0.50005,0.50005 0 0 0 -0.0254,-0.0137 0.50005,0.50005 0 0 0 -0.13672,-0.0586 0.50005,0.50005 0 0 0 -0.0488,-0.01 0.50005,0.50005 0 0 0 -0.0508,-0.006 0.50005,0.50005 0 0 0 -0.0215,-0.002 z m 2.13086,2.36914 2.21484,1.32813 -0.44336,0.88671 z m 5.73828,0 -1.77148,2.21484 -0.44336,-0.88671 z m -2.86914,2.25586 0.5,0.99805 V 281 h -1 v -0.38281 z M 230.83984,282 h 1.32032 l 0.3125,0.77734 -0.97266,0.75586 -0.97266,-0.75586 z m -0.69726,1.74414 0.54297,0.42188 -1.03516,0.80468 z m 2.71484,0 0.49219,1.22656 -1.03516,-0.80468 z" fill="#000" transform="translate(8.0,8.0) translate(-232.0,-280.0)" /></svg>