<?xml version="1.0" encoding="utf-8" ?>
<svg baseProfile="full" height="16" version="1.1" width="16" xmlns="http://www.w3.org/2000/svg" xmlns:ev="http://www.w3.org/2001/xml-events" xmlns:xlink="http://www.w3.org/1999/xlink"><defs /><path d="M 195.49219,272.99219 A 0.50005,0.50005 0 0 0 195,273.5 v 0.5 h -1 a 0.50005,0.50005 0 1 0 0,1 h 1 v 1 h -1 a 0.50005,0.50005 0 1 0 0,1 h 1 v 1 h -1 a 0.50005,0.50005 0 1 0 0,1 h 1.21484 L 198,283.63867 V 286.5 a 0.50005,0.50005 0 1 0 1,0 V 286 h 1 v 0.5 a 0.50005,0.50005 0 1 0 1,0 v -2.86133 L 203.78516,279 H 205 a 0.50005,0.50005 0 1 0 0,-1 h -1 v -1 h 1 a 0.50005,0.50005 0 1 0 0,-1 h -1 v -1 h 1 a 0.50005,0.50005 0 1 0 0,-1 h -1 v -0.5 A 0.50005,0.50005 0 0 0 203.49219,272.99219 0.50005,0.50005 0 0 0 203,273.5 v 0.5 h -7 v -0.5 a 0.50005,0.50005 0 0 0 -0.50781,-0.50781 z M 196,275 h 7 v 1 h -7 z m 0,2 h 7 v 1 h -7 z m 1.00195,2 h 4.9961 L 199.5,280.87305 Z m 0.24219,1.43555 1.62109,1.21484 -0.40429,0.81055 z m 4.51172,0 -1.2168,2.02539 -0.40429,-0.81055 z m -2.25586,2.18359 0.5,0.99805 V 285 h -1 v -1.38281 z" fill="#000" transform="translate(8.0,8.0) translate(-200.0,-280.0)" /><path d="M 195.49219,272.99219 A 0.50005,0.50005 0 0 0 195,273.5 v 0.5 h -1 a 0.50005,0.50005 0 1 0 0,1 h 1 v 1 h -1 a 0.50005,0.50005 0 1 0 0,1 h 1 v 1 h -1 a 0.50005,0.50005 0 1 0 0,1 h 1.21484 L 198,283.63867 V 286.5 a 0.50005,0.50005 0 1 0 1,0 V 286 h 1 v 0.5 a 0.50005,0.50005 0 1 0 1,0 v -2.86133 L 203.78516,279 H 205 a 0.50005,0.50005 0 1 0 0,-1 h -1 v -1 h 1 a 0.50005,0.50005 0 1 0 0,-1 h -1 v -1 h 1 a 0.50005,0.50005 0 1 0 0,-1 h -1 v -0.5 A 0.50005,0.50005 0 0 0 203.49219,272.99219 0.50005,0.50005 0 0 0 203,273.5 v 0.5 h -7 v -0.5 a 0.50005,0.50005 0 0 0 -0.50781,-0.50781 z M 196,275 h 7 v 1 h -7 z m 0,2 h 7 v 1 h -7 z m 1.00195,2 h 4.9961 L 199.5,280.87305 Z m 0.24219,1.43555 1.62109,1.21484 -0.40429,0.81055 z m 4.51172,0 -1.2168,2.02539 -0.40429,-0.81055 z m -2.25586,2.18359 0.5,0.99805 V 285 h -1 v -1.38281 z" fill="#000" transform="translate(8.0,8.0) translate(-200.0,-280.0)" /></svg>