<?xml version="1.0" encoding="utf-8" ?>
<svg baseProfile="full" height="16" version="1.1" width="16" xmlns="http://www.w3.org/2000/svg" xmlns:ev="http://www.w3.org/2001/xml-events" xmlns:xlink="http://www.w3.org/1999/xlink"><defs /><path d="M 244.49219,273.99219 A 0.50005,0.50005 0 0 0 244,274.5 v 0.5 h -1.5 a 0.50005,0.50005 0 1 0 0,1 h 1.5 v 7.41992 a 0.50005,0.50005 0 0 0 0,0.16211 V 286.5 a 0.50005,0.50005 0 1 0 1,0 V 284 h 5 v 2.5 a 0.50005,0.50005 0 1 0 1,0 v -2.91992 a 0.50005,0.50005 0 0 0 0,-0.16211 V 276 h 1.5 a 0.50005,0.50005 0 1 0 0,-1 H 251 v -0.5 A 0.50005,0.50005 0 0 0 250.49219,273.99219 0.50005,0.50005 0 0 0 250,274.5 v 0.5 h -5 v -0.5 a 0.50005,0.50005 0 0 0 -0.50781,-0.50781 z M 245,276 h 5 v 7 h -5 z m -2.50781,0.49219 A 0.50005,0.50005 0 0 0 242,277 v 1 a 0.50005,0.50005 0 1 0 1,0 v -1 a 0.50005,0.50005 0 0 0 -0.50781,-0.50781 z m 5,0 A 0.50005,0.50005 0 0 0 247,277 v 1 a 0.50005,0.50005 0 1 0 1,0 v -1 a 0.50005,0.50005 0 0 0 -0.50781,-0.50781 z m 5,0 A 0.50005,0.50005 0 0 0 252,277 v 1 a 0.50005,0.50005 0 1 0 1,0 v -1 a 0.50005,0.50005 0 0 0 -0.50781,-0.50781 z" fill="#000" transform="translate(8.0,8.0) translate(-248.0,-280.0)" /><path d="M 244.49219,273.99219 A 0.50005,0.50005 0 0 0 244,274.5 v 0.5 h -1.5 a 0.50005,0.50005 0 1 0 0,1 h 1.5 v 7.41992 a 0.50005,0.50005 0 0 0 0,0.16211 V 286.5 a 0.50005,0.50005 0 1 0 1,0 V 284 h 5 v 2.5 a 0.50005,0.50005 0 1 0 1,0 v -2.91992 a 0.50005,0.50005 0 0 0 0,-0.16211 V 276 h 1.5 a 0.50005,0.50005 0 1 0 0,-1 H 251 v -0.5 A 0.50005,0.50005 0 0 0 250.49219,273.99219 0.50005,0.50005 0 0 0 250,274.5 v 0.5 h -5 v -0.5 a 0.50005,0.50005 0 0 0 -0.50781,-0.50781 z M 245,276 h 5 v 7 h -5 z m -2.50781,0.49219 A 0.50005,0.50005 0 0 0 242,277 v 1 a 0.50005,0.50005 0 1 0 1,0 v -1 a 0.50005,0.50005 0 0 0 -0.50781,-0.50781 z m 5,0 A 0.50005,0.50005 0 0 0 247,277 v 1 a 0.50005,0.50005 0 1 0 1,0 v -1 a 0.50005,0.50005 0 0 0 -0.50781,-0.50781 z m 5,0 A 0.50005,0.50005 0 0 0 252,277 v 1 a 0.50005,0.50005 0 1 0 1,0 v -1 a 0.50005,0.50005 0 0 0 -0.50781,-0.50781 z" fill="#000" transform="translate(8.0,8.0) translate(-248.0,-280.0)" /></svg>