<?xml version="1.0" encoding="utf-8" ?>
<svg baseProfile="full" height="16" version="1.1" width="16" xmlns="http://www.w3.org/2000/svg" xmlns:ev="http://www.w3.org/2001/xml-events" xmlns:xlink="http://www.w3.org/1999/xlink"><defs /><path d="m 118.5,273 a 0.50005,0.50005 0 0 0 -0.32617,0.12109 0.50005,0.50005 0 0 0 -0.002,0.002 l -3.49805,2.99804 A 0.50005,0.50005 0 0 0 115,277 h 3 v 2.26953 l -3.32617,2.85156 A 0.50005,0.50005 0 0 0 115,283 h 2.69141 l -1.63868,3.27734 a 0.50005,0.50005 0 1 0 0.89454,0.44532 L 117.30859,286 h 4.38282 l 0.36132,0.72266 a 0.50005,0.50005 0 1 0 0.89454,-0.44532 L 121,282.38281 V 280 h 3 a 0.50005,0.50005 0 0 0 0.32617,-0.87891 L 121,276.26953 V 273.5 a 0.50005,0.50005 0 0 0 -0.5,-0.5 z m 0.5,1 h 1 v 2 h -1 z m -1,0.58789 V 276 h -1.64844 z M 119,277 h 1 v 2 h -1 z m 2,0.58789 L 122.64844,279 H 121 Z M 119,280 h 1 v 2 h -1 z m -1,0.58789 V 282 h -1.64844 z M 118.80859,283 h 1.38282 l 1,2 h -3.38282 z" fill="#000" transform="translate(8.0,8.0) translate(-120.0,-280.0)" /><path d="m 118.5,273 a 0.50005,0.50005 0 0 0 -0.32617,0.12109 0.50005,0.50005 0 0 0 -0.002,0.002 l -3.49805,2.99804 A 0.50005,0.50005 0 0 0 115,277 h 3 v 2.26953 l -3.32617,2.85156 A 0.50005,0.50005 0 0 0 115,283 h 2.69141 l -1.63868,3.27734 a 0.50005,0.50005 0 1 0 0.89454,0.44532 L 117.30859,286 h 4.38282 l 0.36132,0.72266 a 0.50005,0.50005 0 1 0 0.89454,-0.44532 L 121,282.38281 V 280 h 3 a 0.50005,0.50005 0 0 0 0.32617,-0.87891 L 121,276.26953 V 273.5 a 0.50005,0.50005 0 0 0 -0.5,-0.5 z m 0.5,1 h 1 v 2 h -1 z m -1,0.58789 V 276 h -1.64844 z M 119,277 h 1 v 2 h -1 z m 2,0.58789 L 122.64844,279 H 121 Z M 119,280 h 1 v 2 h -1 z m -1,0.58789 V 282 h -1.64844 z M 118.80859,283 h 1.38282 l 1,2 h -3.38282 z" fill="#000" transform="translate(8.0,8.0) translate(-120.0,-280.0)" /></svg>