<?xml version="1.0" encoding="utf-8" ?>
<svg baseProfile="full" height="16" version="1.1" width="16" xmlns="http://www.w3.org/2000/svg" xmlns:ev="http://www.w3.org/2001/xml-events" xmlns:xlink="http://www.w3.org/1999/xlink"><defs /><path d="M 7.5,306 C 7.223,306 7,306.223 7,306.5 V 307 H 2.5 A 0.5,0.5 0 0 0 2,307.5 0.5,0.5 0 0 0 2.5,308 H 7 v 10.5 c 0,0.277 0.223,0.5 0.5,0.5 h 1 C 8.777,319 9,318.777 9,318.5 V 308 h 4.5 A 0.5,0.5 0 0 0 14,307.5 0.5,0.5 0 0 0 13.5,307 H 9 v -0.5 C 9,306.223 8.777,306 8.5,306 Z m -5,2.5 A 0.5,0.5 0 0 0 2,309 v 1 A 0.5,0.5 0 0 0 2.5,310.5 0.5,0.5 0 0 0 3,310 v -1 a 0.5,0.5 0 0 0 -0.5,-0.5 z m 11,0 A 0.5,0.5 0 0 0 13,309 v 1 a 0.5,0.5 0 0 0 0.5,0.5 0.5,0.5 0 0 0 0.5,-0.5 v -1 a 0.5,0.5 0 0 0 -0.5,-0.5 z" fill="#000" transform="translate(8.0,8.0) translate(-8.0,-312.0)" /><path d="M 7.5,306 C 7.223,306 7,306.223 7,306.5 V 307 H 2.5 A 0.5,0.5 0 0 0 2,307.5 0.5,0.5 0 0 0 2.5,308 H 7 v 10.5 c 0,0.277 0.223,0.5 0.5,0.5 h 1 C 8.777,319 9,318.777 9,318.5 V 308 h 4.5 A 0.5,0.5 0 0 0 14,307.5 0.5,0.5 0 0 0 13.5,307 H 9 v -0.5 C 9,306.223 8.777,306 8.5,306 Z m -5,2.5 A 0.5,0.5 0 0 0 2,309 v 1 A 0.5,0.5 0 0 0 2.5,310.5 0.5,0.5 0 0 0 3,310 v -1 a 0.5,0.5 0 0 0 -0.5,-0.5 z m 11,0 A 0.5,0.5 0 0 0 13,309 v 1 a 0.5,0.5 0 0 0 0.5,0.5 0.5,0.5 0 0 0 0.5,-0.5 v -1 a 0.5,0.5 0 0 0 -0.5,-0.5 z" fill="#000" transform="translate(8.0,8.0) translate(-8.0,-312.0)" /></svg>