<?xml version="1.0" encoding="utf-8" ?>
<svg baseProfile="full" height="16" version="1.1" width="16" xmlns="http://www.w3.org/2000/svg" xmlns:ev="http://www.w3.org/2001/xml-events" xmlns:xlink="http://www.w3.org/1999/xlink"><defs /><path d="m 66.5,306 a 0.5,0.5 0 0 0 -0.5,0.5 0.5,0.5 0 0 0 0.5,0.5 H 71 v 1 h -4.5 a 0.5,0.5 0 0 0 -0.5,0.5 0.5,0.5 0 0 0 0.5,0.5 H 71 v 1 h -4.5 a 0.5,0.5 0 0 0 -0.5,0.5 0.5,0.5 0 0 0 0.5,0.5 H 71 v 7.5 c 0,0.277 0.223,0.5 0.5,0.5 h 1 c 0.277,0 0.5,-0.223 0.5,-0.5 V 311 h 4.5 A 0.5,0.5 0 0 0 78,310.5 0.5,0.5 0 0 0 77.5,310 H 73 v -1 h 4.5 A 0.5,0.5 0 0 0 78,308.5 0.5,0.5 0 0 0 77.5,308 H 73 v -1 h 4.5 A 0.5,0.5 0 0 0 78,306.5 0.5,0.5 0 0 0 77.5,306 h -5 -1 z m 0,5.5 A 0.5,0.5 0 0 0 66,312 v 1 a 0.5,0.5 0 0 0 0.5,0.5 0.5,0.5 0 0 0 0.5,-0.5 v -1 a 0.5,0.5 0 0 0 -0.5,-0.5 z m 11,0 A 0.5,0.5 0 0 0 77,312 v 1 a 0.5,0.5 0 0 0 0.5,0.5 0.5,0.5 0 0 0 0.5,-0.5 v -1 a 0.5,0.5 0 0 0 -0.5,-0.5 z" fill="#000" transform="translate(8.0,8.0) translate(-72.0,-312.0)" /><path d="m 66.5,306 a 0.5,0.5 0 0 0 -0.5,0.5 0.5,0.5 0 0 0 0.5,0.5 H 71 v 1 h -4.5 a 0.5,0.5 0 0 0 -0.5,0.5 0.5,0.5 0 0 0 0.5,0.5 H 71 v 1 h -4.5 a 0.5,0.5 0 0 0 -0.5,0.5 0.5,0.5 0 0 0 0.5,0.5 H 71 v 7.5 c 0,0.277 0.223,0.5 0.5,0.5 h 1 c 0.277,0 0.5,-0.223 0.5,-0.5 V 311 h 4.5 A 0.5,0.5 0 0 0 78,310.5 0.5,0.5 0 0 0 77.5,310 H 73 v -1 h 4.5 A 0.5,0.5 0 0 0 78,308.5 0.5,0.5 0 0 0 77.5,308 H 73 v -1 h 4.5 A 0.5,0.5 0 0 0 78,306.5 0.5,0.5 0 0 0 77.5,306 h -5 -1 z m 0,5.5 A 0.5,0.5 0 0 0 66,312 v 1 a 0.5,0.5 0 0 0 0.5,0.5 0.5,0.5 0 0 0 0.5,-0.5 v -1 a 0.5,0.5 0 0 0 -0.5,-0.5 z m 11,0 A 0.5,0.5 0 0 0 77,312 v 1 a 0.5,0.5 0 0 0 0.5,0.5 0.5,0.5 0 0 0 0.5,-0.5 v -1 a 0.5,0.5 0 0 0 -0.5,-0.5 z" fill="#000" transform="translate(8.0,8.0) translate(-72.0,-312.0)" /></svg>