<?xml version="1.0" encoding="utf-8" ?>
<svg baseProfile="full" height="16" version="1.1" width="16" xmlns="http://www.w3.org/2000/svg" xmlns:ev="http://www.w3.org/2001/xml-events" xmlns:xlink="http://www.w3.org/1999/xlink"><defs /><path d="m 135.50391,273 a 0.50005,0.50005 0 0 0 -0.45118,0.27734 l -1,2 A 0.50005,0.50005 0 0 0 134,275.5 v 0.5 h -3 a 0.50005,0.50005 0 1 0 0,1 h 3 v 2 h -3 a 0.50005,0.50005 0 1 0 0,1 h 3 v 2 h -3 a 0.50005,0.50005 0 1 0 0,1 h 2.69141 l -1.63868,3.27734 a 0.50005,0.50005 0 1 0 0.89454,0.44532 L 133.30859,286 h 4.38282 l 0.36132,0.72266 a 0.50005,0.50005 0 1 0 0.89454,-0.44532 L 137,282.38281 V 275.5 a 0.50005,0.50005 0 0 0 -0.0527,-0.22266 l -1,-2 A 0.50005,0.50005 0 0 0 135.50391,273 Z m -0.004,1.61719 0.5,1 V 276 h -1 v -0.38281 z M 135,277 h 1 v 2 h -1 z m 0,3 h 1 v 2 h -1 z m -0.19141,3 h 1.38282 l 1,2 h -3.38282 z" fill="#000" transform="translate(8.0,8.0) translate(-136.0,-280.0)" /><path d="m 135.50391,273 a 0.50005,0.50005 0 0 0 -0.45118,0.27734 l -1,2 A 0.50005,0.50005 0 0 0 134,275.5 v 0.5 h -3 a 0.50005,0.50005 0 1 0 0,1 h 3 v 2 h -3 a 0.50005,0.50005 0 1 0 0,1 h 3 v 2 h -3 a 0.50005,0.50005 0 1 0 0,1 h 2.69141 l -1.63868,3.27734 a 0.50005,0.50005 0 1 0 0.89454,0.44532 L 133.30859,286 h 4.38282 l 0.36132,0.72266 a 0.50005,0.50005 0 1 0 0.89454,-0.44532 L 137,282.38281 V 275.5 a 0.50005,0.50005 0 0 0 -0.0527,-0.22266 l -1,-2 A 0.50005,0.50005 0 0 0 135.50391,273 Z m -0.004,1.61719 0.5,1 V 276 h -1 v -0.38281 z M 135,277 h 1 v 2 h -1 z m 0,3 h 1 v 2 h -1 z m -0.19141,3 h 1.38282 l 1,2 h -3.38282 z" fill="#000" transform="translate(8.0,8.0) translate(-136.0,-280.0)" /></svg>