<?xml version="1.0" encoding="utf-8" ?>
<svg baseProfile="full" height="16" version="1.1" width="16" xmlns="http://www.w3.org/2000/svg" xmlns:ev="http://www.w3.org/2001/xml-events" xmlns:xlink="http://www.w3.org/1999/xlink"><defs /><path d="m 210.49414,274.99414 a 0.50005,0.50005 0 0 0 -0.14844,0.0234 0.50005,0.50005 0 0 0 -0.006,0.002 0.50005,0.50005 0 0 0 -0.0156,0.006 0.50005,0.50005 0 0 0 -0.0254,0.01 0.50005,0.50005 0 0 0 -0.004,0.002 0.50005,0.50005 0 0 0 -0.0449,0.0234 0.50005,0.50005 0 0 0 -0.043,0.0273 0.50005,0.50005 0 0 0 -0.0352,0.0254 0.50005,0.50005 0 0 0 -0.004,0.004 0.50005,0.50005 0 0 0 -0.0332,0.0312 0.50005,0.50005 0 0 0 -0.004,0.004 0.50005,0.50005 0 0 0 -0.0273,0.0332 0.50005,0.50005 0 0 0 -0.004,0.004 0.50005,0.50005 0 0 0 -0.0254,0.0371 0.50005,0.50005 0 0 0 -0.0156,0.0274 0.50005,0.50005 0 0 0 -0.01,0.0156 0.50005,0.50005 0 0 0 -0.002,0.006 0.50005,0.50005 0 0 0 -0.0332,0.0879 0.50005,0.50005 0 0 0 -0.002,0.006 0.50005,0.50005 0 0 0 -0.0156,0.14258 0.50005,0.50005 0 0 0 0,0.006 0.50005,0.50005 0 0 0 0.004,0.043 0.50005,0.50005 0 0 0 0,0.006 0.50005,0.50005 0 0 0 0.01,0.043 0.50005,0.50005 0 0 0 0.0937,0.19531 l 3.897,5.84641 v 0.76758 a 0.50005,0.50005 0 0 0 -0.006,0.0371 0.50005,0.50005 0 0 0 0,0.004 l -0.97852,3.91797 a 0.50005,0.50005 0 1 0 0.96876,0.24218 L 214.14062,286 h 2.71876 l 0.15624,0.62109 a 0.50005,0.50005 0 1 0 0.96876,-0.24218 l -0.97852,-3.92188 a 0.50005,0.50005 0 0 0 -0.006,-0.0391 v -0.76563 l 3.88477,-5.83007 a 0.50005,0.50005 0 0 0 0.01,-0.0137 0.50005,0.50005 0 0 0 0.0996,-0.21484 0.50005,0.50005 0 0 0 0.008,-0.043 0.50005,0.50005 0 0 0 0,-0.006 0.50005,0.50005 0 0 0 0,-0.0996 0.50005,0.50005 0 0 0 -0.008,-0.0488 0.50005,0.50005 0 0 0 -0.01,-0.043 0.50005,0.50005 0 0 0 -0.002,-0.006 0.50005,0.50005 0 0 0 -0.0156,-0.043 0.50005,0.50005 0 0 0 -0.002,-0.004 0.50005,0.50005 0 0 0 -0.0215,-0.0449 0.50005,0.50005 0 0 0 -0.0176,-0.0312 0.50005,0.50005 0 0 0 -0.008,-0.0117 0.50005,0.50005 0 0 0 -0.0273,-0.0352 0.50005,0.50005 0 0 0 -0.004,-0.006 0.50005,0.50005 0 0 0 -0.0293,-0.0313 0.50005,0.50005 0 0 0 -0.004,-0.004 0.50005,0.50005 0 0 0 -0.0332,-0.0293 0.50005,0.50005 0 0 0 -0.004,-0.004 0.50005,0.50005 0 0 0 -0.0371,-0.0254 0.50005,0.50005 0 0 0 -0.0801,-0.043 0.50005,0.50005 0 0 0 -0.008,-0.004 0.50005,0.50005 0 0 0 -0.006,-0.002 0.50005,0.50005 0 0 0 -0.0899,-0.0254 0.50005,0.50005 0 0 0 -0.10547,-0.01 0.50005,0.50005 0 0 0 -0.0937,0.0137 0.50005,0.50005 0 0 0 -0.13867,0.0527 0.50005,0.50005 0 0 0 -0.043,0.0273 0.50005,0.50005 0 0 0 -0.0469,0.0371 l -4.66797,3.73438 -4.67188,-3.73633 -0.0117,-0.0117 a 0.50005,0.50005 0 0 0 -0.004,-0.002 0.50005,0.50005 0 0 0 -0.22461,-0.10547 0.50005,0.50005 0 0 0 -0.0937,-0.01 z m 2.20898,2.9082 2.16993,1.73633 -0.4336,0.86719 z m 5.59376,0 -1.73633,2.60352 -0.4336,-0.86719 z m -2.79688,2.7168 0.5,0.99805 V 282 h -1 v -0.38281 z M 214.89062,283 h 1.21876 l 0.5,2 h -2.21876 z" fill="#000" transform="translate(8.0,8.0) translate(-216.0,-280.0)" /><path d="m 210.49414,274.99414 a 0.50005,0.50005 0 0 0 -0.14844,0.0234 0.50005,0.50005 0 0 0 -0.006,0.002 0.50005,0.50005 0 0 0 -0.0156,0.006 0.50005,0.50005 0 0 0 -0.0254,0.01 0.50005,0.50005 0 0 0 -0.004,0.002 0.50005,0.50005 0 0 0 -0.0449,0.0234 0.50005,0.50005 0 0 0 -0.043,0.0273 0.50005,0.50005 0 0 0 -0.0352,0.0254 0.50005,0.50005 0 0 0 -0.004,0.004 0.50005,0.50005 0 0 0 -0.0332,0.0312 0.50005,0.50005 0 0 0 -0.004,0.004 0.50005,0.50005 0 0 0 -0.0273,0.0332 0.50005,0.50005 0 0 0 -0.004,0.004 0.50005,0.50005 0 0 0 -0.0254,0.0371 0.50005,0.50005 0 0 0 -0.0156,0.0274 0.50005,0.50005 0 0 0 -0.01,0.0156 0.50005,0.50005 0 0 0 -0.002,0.006 0.50005,0.50005 0 0 0 -0.0332,0.0879 0.50005,0.50005 0 0 0 -0.002,0.006 0.50005,0.50005 0 0 0 -0.0156,0.14258 0.50005,0.50005 0 0 0 0,0.006 0.50005,0.50005 0 0 0 0.004,0.043 0.50005,0.50005 0 0 0 0,0.006 0.50005,0.50005 0 0 0 0.01,0.043 0.50005,0.50005 0 0 0 0.0937,0.19531 l 3.897,5.84641 v 0.76758 a 0.50005,0.50005 0 0 0 -0.006,0.0371 0.50005,0.50005 0 0 0 0,0.004 l -0.97852,3.91797 a 0.50005,0.50005 0 1 0 0.96876,0.24218 L 214.14062,286 h 2.71876 l 0.15624,0.62109 a 0.50005,0.50005 0 1 0 0.96876,-0.24218 l -0.97852,-3.92188 a 0.50005,0.50005 0 0 0 -0.006,-0.0391 v -0.76563 l 3.88477,-5.83007 a 0.50005,0.50005 0 0 0 0.01,-0.0137 0.50005,0.50005 0 0 0 0.0996,-0.21484 0.50005,0.50005 0 0 0 0.008,-0.043 0.50005,0.50005 0 0 0 0,-0.006 0.50005,0.50005 0 0 0 0,-0.0996 0.50005,0.50005 0 0 0 -0.008,-0.0488 0.50005,0.50005 0 0 0 -0.01,-0.043 0.50005,0.50005 0 0 0 -0.002,-0.006 0.50005,0.50005 0 0 0 -0.0156,-0.043 0.50005,0.50005 0 0 0 -0.002,-0.004 0.50005,0.50005 0 0 0 -0.0215,-0.0449 0.50005,0.50005 0 0 0 -0.0176,-0.0312 0.50005,0.50005 0 0 0 -0.008,-0.0117 0.50005,0.50005 0 0 0 -0.0273,-0.0352 0.50005,0.50005 0 0 0 -0.004,-0.006 0.50005,0.50005 0 0 0 -0.0293,-0.0313 0.50005,0.50005 0 0 0 -0.004,-0.004 0.50005,0.50005 0 0 0 -0.0332,-0.0293 0.50005,0.50005 0 0 0 -0.004,-0.004 0.50005,0.50005 0 0 0 -0.0371,-0.0254 0.50005,0.50005 0 0 0 -0.0801,-0.043 0.50005,0.50005 0 0 0 -0.008,-0.004 0.50005,0.50005 0 0 0 -0.006,-0.002 0.50005,0.50005 0 0 0 -0.0899,-0.0254 0.50005,0.50005 0 0 0 -0.10547,-0.01 0.50005,0.50005 0 0 0 -0.0937,0.0137 0.50005,0.50005 0 0 0 -0.13867,0.0527 0.50005,0.50005 0 0 0 -0.043,0.0273 0.50005,0.50005 0 0 0 -0.0469,0.0371 l -4.66797,3.73438 -4.67188,-3.73633 -0.0117,-0.0117 a 0.50005,0.50005 0 0 0 -0.004,-0.002 0.50005,0.50005 0 0 0 -0.22461,-0.10547 0.50005,0.50005 0 0 0 -0.0937,-0.01 z m 2.20898,2.9082 2.16993,1.73633 -0.4336,0.86719 z m 5.59376,0 -1.73633,2.60352 -0.4336,-0.86719 z m -2.79688,2.7168 0.5,0.99805 V 282 h -1 v -0.38281 z M 214.89062,283 h 1.21876 l 0.5,2 h -2.21876 z" fill="#000" transform="translate(8.0,8.0) translate(-216.0,-280.0)" /></svg>