<?xml version="1.0" encoding="utf-8" ?>
<svg baseProfile="full" height="16" version="1.1" width="16" xmlns="http://www.w3.org/2000/svg" xmlns:ev="http://www.w3.org/2001/xml-events" xmlns:xlink="http://www.w3.org/1999/xlink"><defs /><path d="m 86.5,273 a 0.50005,0.50005 0 0 0 -0.35352,0.14648 l -3,3 A 0.50005,0.50005 0 0 0 83.5,277 h 1.49805 l -2.79883,2.09961 A 0.50005,0.50005 0 0 0 82.5,280 h 2.79297 l -2.14649,2.14648 A 0.50005,0.50005 0 0 0 83.5,283 h 2.19141 l -1.63868,3.27734 a 0.50005,0.50005 0 1 0 0.89454,0.44532 L 85.30859,286 h 4.38282 l 0.36132,0.72266 a 0.50005,0.50005 0 1 0 0.89454,-0.44532 L 89.30859,283 H 91.5 a 0.50005,0.50005 0 0 0 0.35352,-0.85352 L 89.70703,280 H 92.5 a 0.50005,0.50005 0 0 0 0.30078,-0.90039 L 90.00195,277 H 91.5 a 0.50005,0.50005 0 0 0 0.35352,-0.85352 l -3,-3 A 0.50005,0.50005 0 0 0 88.5,273 Z m 0.5,1 h 1 v 2 h -1 z m -1,0.70703 V 276 h -1.29297 z m 3,0 L 90.29297,276 H 89 Z M 87,277 h 1 v 2 h -1 z m 2,0.5 2,1.5 h -2 z m -3,0.002 V 279 H 84.00195 L 86,277.50195 Z M 87,280 h 1 v 2 h -1 z m -1,0.70703 V 282 h -1.29297 z m 3,0 L 90.29297,282 H 89 Z M 86.80859,283 h 1.38282 l 1,2 h -3.38282 z" fill="#000" transform="translate(8.0,8.0) translate(-88.0,-280.0)" /><path d="m 86.5,273 a 0.50005,0.50005 0 0 0 -0.35352,0.14648 l -3,3 A 0.50005,0.50005 0 0 0 83.5,277 h 1.49805 l -2.79883,2.09961 A 0.50005,0.50005 0 0 0 82.5,280 h 2.79297 l -2.14649,2.14648 A 0.50005,0.50005 0 0 0 83.5,283 h 2.19141 l -1.63868,3.27734 a 0.50005,0.50005 0 1 0 0.89454,0.44532 L 85.30859,286 h 4.38282 l 0.36132,0.72266 a 0.50005,0.50005 0 1 0 0.89454,-0.44532 L 89.30859,283 H 91.5 a 0.50005,0.50005 0 0 0 0.35352,-0.85352 L 89.70703,280 H 92.5 a 0.50005,0.50005 0 0 0 0.30078,-0.90039 L 90.00195,277 H 91.5 a 0.50005,0.50005 0 0 0 0.35352,-0.85352 l -3,-3 A 0.50005,0.50005 0 0 0 88.5,273 Z m 0.5,1 h 1 v 2 h -1 z m -1,0.70703 V 276 h -1.29297 z m 3,0 L 90.29297,276 H 89 Z M 87,277 h 1 v 2 h -1 z m 2,0.5 2,1.5 h -2 z m -3,0.002 V 279 H 84.00195 L 86,277.50195 Z M 87,280 h 1 v 2 h -1 z m -1,0.70703 V 282 h -1.29297 z m 3,0 L 90.29297,282 H 89 Z M 86.80859,283 h 1.38282 l 1,2 h -3.38282 z" fill="#000" transform="translate(8.0,8.0) translate(-88.0,-280.0)" /></svg>