<?xml version="1.0" encoding="utf-8" ?>
<svg baseProfile="full" height="16" version="1.1" width="16" xmlns="http://www.w3.org/2000/svg" xmlns:ev="http://www.w3.org/2001/xml-events" xmlns:xlink="http://www.w3.org/1999/xlink"><defs /><path d="m 291.48438,273.99219 a 0.50005,0.50005 0 0 0 -0.48243,0.46679 L 290.95703,275 H 290.5 a 0.50005,0.50005 0 1 0 0,1 h 0.37305 l -0.8711,10.45898 a 0.50005,0.50005 0 1 0 0.9961,0.082 L 291.87695,276 h 7.2461 l 0.8789,10.54102 a 0.50005,0.50005 0 1 0 0.9961,-0.082 L 300.12695,276 H 300.5 a 0.50005,0.50005 0 1 0 0,-1 h -0.45703 l -0.0449,-0.54102 a 0.50005,0.50005 0 0 0 -0.49805,-0.46679 0.50005,0.50005 0 0 0 -0.49805,0.54883 l 0.039,0.45898 h -7.08204 l 0.0391,-0.45898 a 0.50005,0.50005 0 0 0 -0.51367,-0.54883 z m 2.00781,2.5 A 0.50005,0.50005 0 0 0 293,277 v 1 a 0.50005,0.50005 0 1 0 1,0 v -1 a 0.50005,0.50005 0 0 0 -0.50781,-0.50781 z m 4,0 A 0.50005,0.50005 0 0 0 297,277 v 1 a 0.50005,0.50005 0 1 0 1,0 v -1 a 0.50005,0.50005 0 0 0 -0.50781,-0.50781 z" fill="#000" transform="translate(8.0,8.0) translate(-296.0,-280.0)" /><path d="m 291.48438,273.99219 a 0.50005,0.50005 0 0 0 -0.48243,0.46679 L 290.95703,275 H 290.5 a 0.50005,0.50005 0 1 0 0,1 h 0.37305 l -0.8711,10.45898 a 0.50005,0.50005 0 1 0 0.9961,0.082 L 291.87695,276 h 7.2461 l 0.8789,10.54102 a 0.50005,0.50005 0 1 0 0.9961,-0.082 L 300.12695,276 H 300.5 a 0.50005,0.50005 0 1 0 0,-1 h -0.45703 l -0.0449,-0.54102 a 0.50005,0.50005 0 0 0 -0.49805,-0.46679 0.50005,0.50005 0 0 0 -0.49805,0.54883 l 0.039,0.45898 h -7.08204 l 0.0391,-0.45898 a 0.50005,0.50005 0 0 0 -0.51367,-0.54883 z m 2.00781,2.5 A 0.50005,0.50005 0 0 0 293,277 v 1 a 0.50005,0.50005 0 1 0 1,0 v -1 a 0.50005,0.50005 0 0 0 -0.50781,-0.50781 z m 4,0 A 0.50005,0.50005 0 0 0 297,277 v 1 a 0.50005,0.50005 0 1 0 1,0 v -1 a 0.50005,0.50005 0 0 0 -0.50781,-0.50781 z" fill="#000" transform="translate(8.0,8.0) translate(-296.0,-280.0)" /></svg>