<?xml version="1.0" encoding="utf-8" ?>
<svg baseProfile="full" height="16" version="1.1" width="16" xmlns="http://www.w3.org/2000/svg" xmlns:ev="http://www.w3.org/2001/xml-events" xmlns:xlink="http://www.w3.org/1999/xlink"><defs /><path d="m 54.5,274 a 0.50005,0.50005 0 0 0 -0.300781,0.0996 l -4,3 A 0.50005,0.50005 0 0 0 50.5,278 H 54 v 1.29297 l -2.853516,2.85351 A 0.50005,0.50005 0 0 0 51.5,283 h 2.191406 l -1.638672,3.27734 a 0.50005,0.50005 0 1 0 0.894532,0.44532 L 53.308594,286 h 4.382812 l 0.361328,0.72266 a 0.50005,0.50005 0 1 0 0.894532,-0.44532 L 57.308594,283 H 59.5 a 0.50005,0.50005 0 0 0 0.353516,-0.85352 L 57,279.29297 V 278 h 3.5 a 0.50005,0.50005 0 0 0 0.300781,-0.90039 l -4,-3 A 0.50005,0.50005 0 0 0 56.5,274 Z m 0.5,1 h 1 v 2 h -1 z m 2,0.5 2,1.5 h -2 z m -3,0.002 V 277 H 52.001953 Z M 55,278 h 1 v 1 h -1 z m 0,2 h 1 v 2 h -1 z m -1,0.70703 V 282 h -1.292969 z m 3,0 L 58.292969,282 H 57 Z M 54.808594,283 h 1.382812 l 1,2 h -3.382812 z" fill="#000" transform="translate(8.0,8.0) translate(-56.0,-280.0)" /><path d="m 54.5,274 a 0.50005,0.50005 0 0 0 -0.300781,0.0996 l -4,3 A 0.50005,0.50005 0 0 0 50.5,278 H 54 v 1.29297 l -2.853516,2.85351 A 0.50005,0.50005 0 0 0 51.5,283 h 2.191406 l -1.638672,3.27734 a 0.50005,0.50005 0 1 0 0.894532,0.44532 L 53.308594,286 h 4.382812 l 0.361328,0.72266 a 0.50005,0.50005 0 1 0 0.894532,-0.44532 L 57.308594,283 H 59.5 a 0.50005,0.50005 0 0 0 0.353516,-0.85352 L 57,279.29297 V 278 h 3.5 a 0.50005,0.50005 0 0 0 0.300781,-0.90039 l -4,-3 A 0.50005,0.50005 0 0 0 56.5,274 Z m 0.5,1 h 1 v 2 h -1 z m 2,0.5 2,1.5 h -2 z m -3,0.002 V 277 H 52.001953 Z M 55,278 h 1 v 1 h -1 z m 0,2 h 1 v 2 h -1 z m -1,0.70703 V 282 h -1.292969 z m 3,0 L 58.292969,282 H 57 Z M 54.808594,283 h 1.382812 l 1,2 h -3.382812 z" fill="#000" transform="translate(8.0,8.0) translate(-56.0,-280.0)" /></svg>