<?xml version="1.0" encoding="utf-8" ?>
<svg baseProfile="full" height="16" version="1.1" width="16" xmlns="http://www.w3.org/2000/svg" xmlns:ev="http://www.w3.org/2001/xml-events" xmlns:xlink="http://www.w3.org/1999/xlink"><defs /><path d="m 22.5,274 a 0.50005,0.50005 0 0 0 -0.32617,0.12109 l -3.5,3 A 0.50005,0.50005 0 0 0 19,278 h 3 v 1.26953 l -3.32617,2.85156 A 0.50005,0.50005 0 0 0 19,283 h 2.69141 l -1.63868,3.27734 a 0.50005,0.50005 0 1 0 0.89454,0.44532 L 21.30859,286 h 4.38282 l 0.36132,0.72266 a 0.50005,0.50005 0 1 0 0.89454,-0.44532 L 25.30859,283 H 28 a 0.50005,0.50005 0 0 0 0.32617,-0.87891 L 25,279.26953 V 278 h 3 a 0.50005,0.50005 0 0 0 0.32617,-0.87891 l -3.5,-3 A 0.50005,0.50005 0 0 0 24.5,274 Z m 0.5,1 h 1 v 2 h -1 z m -1,0.58789 V 277 h -1.64844 z m 3,0 L 26.64844,277 H 25 Z M 23,278 h 1 v 1 h -1 z m 0,2 h 1 v 2 h -1 z m -1,0.58789 V 282 h -1.64844 z m 3,0 L 26.64844,282 H 25 Z M 22.80859,283 h 1.38282 l 1,2 h -3.38282 z" fill="#000" transform="translate(8.0,8.0) translate(-24.0,-280.0)" /><path d="m 22.5,274 a 0.50005,0.50005 0 0 0 -0.32617,0.12109 l -3.5,3 A 0.50005,0.50005 0 0 0 19,278 h 3 v 1.26953 l -3.32617,2.85156 A 0.50005,0.50005 0 0 0 19,283 h 2.69141 l -1.63868,3.27734 a 0.50005,0.50005 0 1 0 0.89454,0.44532 L 21.30859,286 h 4.38282 l 0.36132,0.72266 a 0.50005,0.50005 0 1 0 0.89454,-0.44532 L 25.30859,283 H 28 a 0.50005,0.50005 0 0 0 0.32617,-0.87891 L 25,279.26953 V 278 h 3 a 0.50005,0.50005 0 0 0 0.32617,-0.87891 l -3.5,-3 A 0.50005,0.50005 0 0 0 24.5,274 Z m 0.5,1 h 1 v 2 h -1 z m -1,0.58789 V 277 h -1.64844 z m 3,0 L 26.64844,277 H 25 Z M 23,278 h 1 v 1 h -1 z m 0,2 h 1 v 2 h -1 z m -1,0.58789 V 282 h -1.64844 z m 3,0 L 26.64844,282 H 25 Z M 22.80859,283 h 1.38282 l 1,2 h -3.38282 z" fill="#000" transform="translate(8.0,8.0) translate(-24.0,-280.0)" /></svg>