<?xml version="1.0" encoding="utf-8" ?>
<svg baseProfile="full" height="16" version="1.1" width="16" xmlns="http://www.w3.org/2000/svg" xmlns:ev="http://www.w3.org/2001/xml-events" xmlns:xlink="http://www.w3.org/1999/xlink"><defs /><path d="M 260.49219,273.99219 A 0.50005,0.50005 0 0 0 260,274.5 v 0.5 h -1.5 a 0.50005,0.50005 0 1 0 0,1 h 1.5 v 1 h -1.5 a 0.50005,0.50005 0 1 0 0,1 h 1.5 v 5.41992 a 0.50005,0.50005 0 0 0 0,0.16211 V 286.5 a 0.50005,0.50005 0 1 0 1,0 V 284 h 5 v 2.5 a 0.50005,0.50005 0 1 0 1,0 v -2.91992 a 0.50005,0.50005 0 0 0 0,-0.16211 V 278 h 1.5 a 0.50005,0.50005 0 1 0 0,-1 H 267 v -1 h 1.5 a 0.50005,0.50005 0 1 0 0,-1 H 267 v -0.5 A 0.50005,0.50005 0 0 0 266.49219,273.99219 0.50005,0.50005 0 0 0 266,274.5 v 0.5 h -5 v -0.5 a 0.50005,0.50005 0 0 0 -0.50781,-0.50781 z M 261,276 h 5 v 1 h -5 z m 0,2 h 5 v 5 h -5 z m -2.50781,0.49219 A 0.50005,0.50005 0 0 0 258,279 v 1 a 0.50005,0.50005 0 1 0 1,0 v -1 a 0.50005,0.50005 0 0 0 -0.50781,-0.50781 z m 5,0 A 0.50005,0.50005 0 0 0 263,278.96484 a 0.50005,0.50005 0 0 0 0,0.0352 v 1 a 0.50005,0.50005 0 0 0 0.45703,0.50586 0.50005,0.50005 0 0 0 0.0508,0.002 A 0.50005,0.50005 0 0 0 264,280 v -1 a 0.50005,0.50005 0 0 0 -0.50781,-0.50781 z m 5,0 A 0.50005,0.50005 0 0 0 268,278.96484 a 0.50005,0.50005 0 0 0 0,0.0352 v 1 a 0.50005,0.50005 0 0 0 0.45703,0.50586 0.50005,0.50005 0 0 0 0.0508,0.002 A 0.50005,0.50005 0 0 0 269,280 v -1 a 0.50005,0.50005 0 0 0 -0.50781,-0.50781 z" fill="#000" transform="translate(8.0,8.0) translate(-264.0,-280.0)" /><path d="M 260.49219,273.99219 A 0.50005,0.50005 0 0 0 260,274.5 v 0.5 h -1.5 a 0.50005,0.50005 0 1 0 0,1 h 1.5 v 1 h -1.5 a 0.50005,0.50005 0 1 0 0,1 h 1.5 v 5.41992 a 0.50005,0.50005 0 0 0 0,0.16211 V 286.5 a 0.50005,0.50005 0 1 0 1,0 V 284 h 5 v 2.5 a 0.50005,0.50005 0 1 0 1,0 v -2.91992 a 0.50005,0.50005 0 0 0 0,-0.16211 V 278 h 1.5 a 0.50005,0.50005 0 1 0 0,-1 H 267 v -1 h 1.5 a 0.50005,0.50005 0 1 0 0,-1 H 267 v -0.5 A 0.50005,0.50005 0 0 0 266.49219,273.99219 0.50005,0.50005 0 0 0 266,274.5 v 0.5 h -5 v -0.5 a 0.50005,0.50005 0 0 0 -0.50781,-0.50781 z M 261,276 h 5 v 1 h -5 z m 0,2 h 5 v 5 h -5 z m -2.50781,0.49219 A 0.50005,0.50005 0 0 0 258,279 v 1 a 0.50005,0.50005 0 1 0 1,0 v -1 a 0.50005,0.50005 0 0 0 -0.50781,-0.50781 z m 5,0 A 0.50005,0.50005 0 0 0 263,278.96484 a 0.50005,0.50005 0 0 0 0,0.0352 v 1 a 0.50005,0.50005 0 0 0 0.45703,0.50586 0.50005,0.50005 0 0 0 0.0508,0.002 A 0.50005,0.50005 0 0 0 264,280 v -1 a 0.50005,0.50005 0 0 0 -0.50781,-0.50781 z m 5,0 A 0.50005,0.50005 0 0 0 268,278.96484 a 0.50005,0.50005 0 0 0 0,0.0352 v 1 a 0.50005,0.50005 0 0 0 0.45703,0.50586 0.50005,0.50005 0 0 0 0.0508,0.002 A 0.50005,0.50005 0 0 0 269,280 v -1 a 0.50005,0.50005 0 0 0 -0.50781,-0.50781 z" fill="#000" transform="translate(8.0,8.0) translate(-264.0,-280.0)" /></svg>