<?xml version="1.0" encoding="utf-8" ?>
<svg baseProfile="full" height="16" version="1.1" width="16" xmlns="http://www.w3.org/2000/svg" xmlns:ev="http://www.w3.org/2001/xml-events" xmlns:xlink="http://www.w3.org/1999/xlink"><defs /><path d="m 7.47461,273 a 0.50005,0.50005 0 0 0 -0.44922,0.3418 l -0.95703,2.86914 -3.39453,2.91015 A 0.50005,0.50005 0 0 0 3,280 h 3 v 2.38281 l -1.94727,3.89453 a 0.50005,0.50005 0 1 0 0.89454,0.44532 L 5.30859,286 h 4.38282 l 0.36132,0.72266 a 0.50005,0.50005 0 1 0 0.89454,-0.44532 L 9,282.38281 V 280 h 3 a 0.50005,0.50005 0 0 0 0.32617,-0.87891 L 8.93164,276.21094 7.97461,273.3418 A 0.50005,0.50005 0 0 0 7.47461,273 Z M 7.5,275.08203 7.80664,276 H 7.19336 Z M 7,277 h 1 v 2 H 7 Z m -1,0.58789 V 279 H 4.35156 Z m 3,0 L 10.64844,279 H 9 Z M 7,280 h 1 v 2 H 7 Z m -0.19141,3 h 1.38282 l 1,2 H 5.80859 Z" fill="#000" transform="translate(8.0,8.0) translate(-8.0,-280.0)" /><path d="m 7.47461,273 a 0.50005,0.50005 0 0 0 -0.44922,0.3418 l -0.95703,2.86914 -3.39453,2.91015 A 0.50005,0.50005 0 0 0 3,280 h 3 v 2.38281 l -1.94727,3.89453 a 0.50005,0.50005 0 1 0 0.89454,0.44532 L 5.30859,286 h 4.38282 l 0.36132,0.72266 a 0.50005,0.50005 0 1 0 0.89454,-0.44532 L 9,282.38281 V 280 h 3 a 0.50005,0.50005 0 0 0 0.32617,-0.87891 L 8.93164,276.21094 7.97461,273.3418 A 0.50005,0.50005 0 0 0 7.47461,273 Z M 7.5,275.08203 7.80664,276 H 7.19336 Z M 7,277 h 1 v 2 H 7 Z m -1,0.58789 V 279 H 4.35156 Z m 3,0 L 10.64844,279 H 9 Z M 7,280 h 1 v 2 H 7 Z m -0.19141,3 h 1.38282 l 1,2 H 5.80859 Z" fill="#000" transform="translate(8.0,8.0) translate(-8.0,-280.0)" /></svg>