<?xml version="1.0" encoding="utf-8" ?>
<svg baseProfile="full" height="16" version="1.1" width="16" xmlns="http://www.w3.org/2000/svg" xmlns:ev="http://www.w3.org/2001/xml-events" xmlns:xlink="http://www.w3.org/1999/xlink"><defs /><path d="m 242.5,467 c -0.277,0 -0.5,0.223 -0.5,0.5 0,0.277 0.223,0.5 0.5,0.5 h 0.5 v 2 h -0.5 c -0.277,0 -0.5,0.223 -0.5,0.5 v 4 c 0,0.277 0.223,0.5 0.5,0.5 h 0.5 v 2 h -0.5 c -0.277,0 -0.5,0.223 -0.5,0.5 0,0.277 0.223,0.5 0.5,0.5 h 4 7 c 0.277,0 0.5,-0.223 0.5,-0.5 0,-0.277 -0.223,-0.5 -0.5,-0.5 H 253 v -9 h 0.5 c 0.277,0 0.5,-0.223 0.5,-0.5 0,-0.277 -0.223,-0.5 -0.5,-0.5 h -7 z m 1.5,1 h 2 v 2 h -2 z m 3,0 h 2 v 9 h -2 v -2 h 0.5 c 0.277,0 0.5,-0.223 0.5,-0.5 v -4 c 0,-0.277 -0.223,-0.5 -0.5,-0.5 H 247 Z m 3,0 h 2 v 9 h -2 z m -5,3 a 1,1 0 0 1 1,1 1,1 0 0 1 -0.52344,0.87891 c 0.0101,0.0397 0.0234,0.0782 0.0234,0.12109 v 1 c 0,0.277 -0.223,0.5 -0.5,0.5 -0.277,0 -0.5,-0.223 -0.5,-0.5 v -1 c 0,-0.0429 0.0134,-0.0814 0.0234,-0.12109 A 1,1 0 0 1 244,472 a 1,1 0 0 1 1,-1 z m -1,4 h 2 v 2 h -2 z" fill="#000" transform="translate(8.0,8.0) translate(-248.0,-472.0)" /><path d="m 242.5,467 c -0.277,0 -0.5,0.223 -0.5,0.5 0,0.277 0.223,0.5 0.5,0.5 h 0.5 v 2 h -0.5 c -0.277,0 -0.5,0.223 -0.5,0.5 v 4 c 0,0.277 0.223,0.5 0.5,0.5 h 0.5 v 2 h -0.5 c -0.277,0 -0.5,0.223 -0.5,0.5 0,0.277 0.223,0.5 0.5,0.5 h 4 7 c 0.277,0 0.5,-0.223 0.5,-0.5 0,-0.277 -0.223,-0.5 -0.5,-0.5 H 253 v -9 h 0.5 c 0.277,0 0.5,-0.223 0.5,-0.5 0,-0.277 -0.223,-0.5 -0.5,-0.5 h -7 z m 1.5,1 h 2 v 2 h -2 z m 3,0 h 2 v 9 h -2 v -2 h 0.5 c 0.277,0 0.5,-0.223 0.5,-0.5 v -4 c 0,-0.277 -0.223,-0.5 -0.5,-0.5 H 247 Z m 3,0 h 2 v 9 h -2 z m -5,3 a 1,1 0 0 1 1,1 1,1 0 0 1 -0.52344,0.87891 c 0.0101,0.0397 0.0234,0.0782 0.0234,0.12109 v 1 c 0,0.277 -0.223,0.5 -0.5,0.5 -0.277,0 -0.5,-0.223 -0.5,-0.5 v -1 c 0,-0.0429 0.0134,-0.0814 0.0234,-0.12109 A 1,1 0 0 1 244,472 a 1,1 0 0 1 1,-1 z m -1,4 h 2 v 2 h -2 z" fill="#000" transform="translate(8.0,8.0) translate(-248.0,-472.0)" /></svg>