<?xml version="1.0" encoding="utf-8" ?>
<svg baseProfile="full" height="16" version="1.1" width="16" xmlns="http://www.w3.org/2000/svg" xmlns:ev="http://www.w3.org/2001/xml-events" xmlns:xlink="http://www.w3.org/1999/xlink"><defs /><path d="m 777,49.429688 a 0.5,0.5 0 0 0 -0.30078,0.06836 l -5,3 a 0.5,0.5 0 0 0 -0.0254,0.01953 A 3.5,3.5 0 0 0 770,55.5 a 3.5,3.5 0 0 0 1.67383,2.982422 0.5,0.5 0 0 0 0.0254,0.01953 l 5,3 a 0.5,0.5 0 0 0 0.68555,-0.171875 0.5,0.5 0 0 0 -0.17188,-0.685547 l -2.91016,-1.746093 A 3.5,3.5 0 0 0 776.96484,56 H 781 A 0.5,0.5 0 0 0 781.5,55.5 0.5,0.5 0 0 0 781,55 h -4.03516 a 3.5,3.5 0 0 0 -2.65429,-2.904297 l 2.90234,-1.740234 A 0.5,0.5 0 0 0 777.38477,49.669922 0.5,0.5 0 0 0 777,49.429688 Z" fill="#000" transform="translate(8.0,8.0) translate(-776.0,-56.0)" /><path d="m 777,49.429688 a 0.5,0.5 0 0 0 -0.30078,0.06836 l -5,3 a 0.5,0.5 0 0 0 -0.0254,0.01953 A 3.5,3.5 0 0 0 770,55.5 a 3.5,3.5 0 0 0 1.67383,2.982422 0.5,0.5 0 0 0 0.0254,0.01953 l 5,3 a 0.5,0.5 0 0 0 0.68555,-0.171875 0.5,0.5 0 0 0 -0.17188,-0.685547 l -2.91016,-1.746093 A 3.5,3.5 0 0 0 776.96484,56 H 781 A 0.5,0.5 0 0 0 781.5,55.5 0.5,0.5 0 0 0 781,55 h -4.03516 a 3.5,3.5 0 0 0 -2.65429,-2.904297 l 2.90234,-1.740234 A 0.5,0.5 0 0 0 777.38477,49.669922 0.5,0.5 0 0 0 777,49.429688 Z" fill="#000" transform="translate(8.0,8.0) translate(-776.0,-56.0)" /></svg>