<?xml version="1.0" encoding="utf-8" ?>
<svg baseProfile="full" height="16" version="1.1" width="16" xmlns="http://www.w3.org/2000/svg" xmlns:ev="http://www.w3.org/2001/xml-events" xmlns:xlink="http://www.w3.org/1999/xlink"><defs /><path d="m 263.49219,628 c -0.12989,0.002 -0.25387,0.0546 -0.34571,0.14648 l -6,6 c -0.31479,0.315 -0.0918,0.85335 0.35352,0.85352 h 12 c 0.44533,-1.7e-4 0.66831,-0.53852 0.35352,-0.85352 l -6,-6 c -0.0957,-0.0957 -0.22603,-0.14855 -0.36133,-0.14648 z" fill="#000" transform="translate(8.0,8.0) translate(-264.0,-632.0)" /><path d="m 263.49219,628 c -0.12989,0.002 -0.25387,0.0546 -0.34571,0.14648 l -6,6 c -0.31479,0.315 -0.0918,0.85335 0.35352,0.85352 h 12 c 0.44533,-1.7e-4 0.66831,-0.53852 0.35352,-0.85352 l -6,-6 c -0.0957,-0.0957 -0.22603,-0.14855 -0.36133,-0.14648 z" fill="#000" transform="translate(8.0,8.0) translate(-264.0,-632.0)" /></svg>