<?xml version="1.0" encoding="utf-8" ?>
<svg baseProfile="full" height="16" version="1.1" width="16" xmlns="http://www.w3.org/2000/svg" xmlns:ev="http://www.w3.org/2001/xml-events" xmlns:xlink="http://www.w3.org/1999/xlink"><defs /><path d="m 308,435 a 1,1 0 0 0 -1,1 1,1 0 0 0 -1,1 1,1 0 0 0 1,1 1,1 0 0 0 1,1 1,1 0 0 0 1,-1 1,1 0 0 0 1,-1 1,1 0 0 0 -1,-1 1,1 0 0 0 -1,-1 z m 3.5,1 c -0.277,0 -0.5,0.223 -0.5,0.5 v 1.79297 l -0.14648,-0.14649 a 0.50005,0.50005 0 0 0 -0.35938,-0.15234 0.50005,0.50005 0 0 0 -0.34766,0.85938 L 311,439.70703 v 2.72266 a 0.50005,0.50005 0 0 0 0,0.1582 v 1.70508 l -0.14648,-0.14649 a 0.50005,0.50005 0 0 0 -0.35938,-0.15234 0.50005,0.50005 0 0 0 -0.34766,0.85938 l 1,1 A 0.50005,0.50005 0 0 0 312,445.42578 v -2.71875 l 0.85352,-0.85351 a 0.50005,0.50005 0 0 0 -0.36329,-0.85743 0.50005,0.50005 0 0 0 -0.34375,0.15039 L 312,441.29297 v -1.69922 a 0.50005,0.50005 0 0 0 0,-0.16797 V 436.5 c 0,-0.277 -0.223,-0.5 -0.5,-0.5 z m 3.5,2 a 1,1 0 0 0 -1,1 1,1 0 0 0 -1,1 1,1 0 0 0 1,1 1,1 0 0 0 1,1 1,1 0 0 0 1,-1 1,1 0 0 0 1,-1 1,1 0 0 0 -1,-1 1,1 0 0 0 -1,-1 z m -7,3 a 1,1 0 0 0 -1,1 1,1 0 0 0 -1,1 1,1 0 0 0 1,1 1,1 0 0 0 1,1 1,1 0 0 0 1,-1 1,1 0 0 0 1,-1 1,1 0 0 0 -1,-1 1,1 0 0 0 -1,-1 z" fill="#000" transform="translate(8.0,8.0) translate(-312.0,-440.0)" /><path d="m 308,435 a 1,1 0 0 0 -1,1 1,1 0 0 0 -1,1 1,1 0 0 0 1,1 1,1 0 0 0 1,1 1,1 0 0 0 1,-1 1,1 0 0 0 1,-1 1,1 0 0 0 -1,-1 1,1 0 0 0 -1,-1 z m 3.5,1 c -0.277,0 -0.5,0.223 -0.5,0.5 v 1.79297 l -0.14648,-0.14649 a 0.50005,0.50005 0 0 0 -0.35938,-0.15234 0.50005,0.50005 0 0 0 -0.34766,0.85938 L 311,439.70703 v 2.72266 a 0.50005,0.50005 0 0 0 0,0.1582 v 1.70508 l -0.14648,-0.14649 a 0.50005,0.50005 0 0 0 -0.35938,-0.15234 0.50005,0.50005 0 0 0 -0.34766,0.85938 l 1,1 A 0.50005,0.50005 0 0 0 312,445.42578 v -2.71875 l 0.85352,-0.85351 a 0.50005,0.50005 0 0 0 -0.36329,-0.85743 0.50005,0.50005 0 0 0 -0.34375,0.15039 L 312,441.29297 v -1.69922 a 0.50005,0.50005 0 0 0 0,-0.16797 V 436.5 c 0,-0.277 -0.223,-0.5 -0.5,-0.5 z m 3.5,2 a 1,1 0 0 0 -1,1 1,1 0 0 0 -1,1 1,1 0 0 0 1,1 1,1 0 0 0 1,1 1,1 0 0 0 1,-1 1,1 0 0 0 1,-1 1,1 0 0 0 -1,-1 1,1 0 0 0 -1,-1 z m -7,3 a 1,1 0 0 0 -1,1 1,1 0 0 0 -1,1 1,1 0 0 0 1,1 1,1 0 0 0 1,1 1,1 0 0 0 1,-1 1,1 0 0 0 1,-1 1,1 0 0 0 -1,-1 1,1 0 0 0 -1,-1 z" fill="#000" transform="translate(8.0,8.0) translate(-312.0,-440.0)" /></svg>