<?xml version="1.0" encoding="utf-8" ?>
<svg baseProfile="full" height="16" version="1.1" width="16" xmlns="http://www.w3.org/2000/svg" xmlns:ev="http://www.w3.org/2001/xml-events" xmlns:xlink="http://www.w3.org/1999/xlink"><defs /><path d="m 695.45581,531 h 0.0884 c 0.80652,0 1.45581,0.669 1.45581,1.5 v 7 c 0,0.831 -0.64929,1.5 -1.45581,1.5 h -0.0884 C 694.64929,541 694,540.331 694,539.5 v -7 c 0,-0.831 0.64929,-1.5 1.45581,-1.5 z" fill="#000" transform="translate(8.0,8.0) translate(-696.0,-536.0)" /><path d="m 695.45581,531 h 0.0884 c 0.80652,0 1.45581,0.669 1.45581,1.5 v 7 c 0,0.831 -0.64929,1.5 -1.45581,1.5 h -0.0884 C 694.64929,541 694,540.331 694,539.5 v -7 c 0,-0.831 0.64929,-1.5 1.45581,-1.5 z" fill="#000" transform="translate(8.0,8.0) translate(-696.0,-536.0)" /></svg>