<?xml version="1.0" encoding="utf-8" ?>
<svg baseProfile="full" height="16" version="1.1" width="16" xmlns="http://www.w3.org/2000/svg" xmlns:ev="http://www.w3.org/2001/xml-events" xmlns:xlink="http://www.w3.org/1999/xlink"><defs /><path d="M 711.45508,531 C 710.64856,531 710,531.669 710,532.5 v 3.79297 l -3.35352,3.35351 a 0.50005,0.50005 0 1 0 0.70704,0.70704 l 8,-8 a 0.50005,0.50005 0 0 0 -0.36329,-0.85743 0.50005,0.50005 0 0 0 -0.34375,0.15039 L 713,533.29297 V 532.5 c 0,-0.831 -0.64856,-1.5 -1.45508,-1.5 z m 1.54492,5.12109 -3,3 V 539.5 c 0,0.831 0.64856,1.5 1.45508,1.5 h 0.0898 C 712.35144,541 713,540.331 713,539.5 Z" fill="#000" transform="translate(8.0,8.0) translate(-712.0,-536.0)" /><path d="M 711.45508,531 C 710.64856,531 710,531.669 710,532.5 v 3.79297 l -3.35352,3.35351 a 0.50005,0.50005 0 1 0 0.70704,0.70704 l 8,-8 a 0.50005,0.50005 0 0 0 -0.36329,-0.85743 0.50005,0.50005 0 0 0 -0.34375,0.15039 L 713,533.29297 V 532.5 c 0,-0.831 -0.64856,-1.5 -1.45508,-1.5 z m 1.54492,5.12109 -3,3 V 539.5 c 0,0.831 0.64856,1.5 1.45508,1.5 h 0.0898 C 712.35144,541 713,540.331 713,539.5 Z" fill="#000" transform="translate(8.0,8.0) translate(-712.0,-536.0)" /></svg>