<?xml version="1.0" encoding="utf-8" ?>
<svg baseProfile="full" height="16" version="1.1" width="16" xmlns="http://www.w3.org/2000/svg" xmlns:ev="http://www.w3.org/2001/xml-events" xmlns:xlink="http://www.w3.org/1999/xlink"><defs /><path d="m 644.5,210.5 c -0.277,0 -0.5,0.223 -0.5,0.5 h -2 v 1 h 2 v 3.05078 c -1.1373,0.23344 -2,1.24562 -2,2.44922 0,1.37479 1.12521,2.5 2.5,2.5 1.37479,0 2.5,-1.12521 2.5,-2.5 0,-1.2036 -0.8627,-2.21578 -2,-2.44922 V 212 h 6 v 3.05078 c 0,0 -0.002,0 -0.002,0 -1.13633,0.23417 -1.998,1.24628 -1.998,2.44922 0,1.37479 1.12521,2.5 2.5,2.5 1.37479,0 2.5,-1.12521 2.5,-2.5 0,-1.20294 -0.86363,-2.21505 -2,-2.44922 V 212 h 2 v -1 h -2 c 0,-0.277 -0.223,-0.5 -0.5,-0.5 -0.277,0 -0.5,0.223 -0.5,0.5 h -6 c 0,-0.277 -0.223,-0.5 -0.5,-0.5 z m -0.48242,5.58594 c 0.0419,0.2341 0.23592,0.41406 0.48242,0.41406 0.2465,0 0.44055,-0.17996 0.48242,-0.41406 0.59274,0.1998 1.01758,0.75003 1.01758,1.41406 0,0.83435 -0.66565,1.5 -1.5,1.5 -0.83435,0 -1.5,-0.66565 -1.5,-1.5 0,-0.66403 0.42484,-1.21426 1.01758,-1.41406 z m 7,0 c 0.0419,0.2341 0.23592,0.41406 0.48242,0.41406 0.2465,0 0.44055,-0.17996 0.48242,-0.41406 0.59274,0.1998 1.01758,0.75003 1.01758,1.41406 0,0.83435 -0.66565,1.5 -1.5,1.5 -0.83435,0 -1.5,-0.66565 -1.5,-1.5 0,-0.66403 0.42484,-1.21426 1.01758,-1.41406 z" fill="#000" transform="translate(8.0,8.0) translate(-648.0,-216.0)" /><path d="m 644.5,210.5 c -0.277,0 -0.5,0.223 -0.5,0.5 h -2 v 1 h 2 v 3.05078 c -1.1373,0.23344 -2,1.24562 -2,2.44922 0,1.37479 1.12521,2.5 2.5,2.5 1.37479,0 2.5,-1.12521 2.5,-2.5 0,-1.2036 -0.8627,-2.21578 -2,-2.44922 V 212 h 6 v 3.05078 c 0,0 -0.002,0 -0.002,0 -1.13633,0.23417 -1.998,1.24628 -1.998,2.44922 0,1.37479 1.12521,2.5 2.5,2.5 1.37479,0 2.5,-1.12521 2.5,-2.5 0,-1.20294 -0.86363,-2.21505 -2,-2.44922 V 212 h 2 v -1 h -2 c 0,-0.277 -0.223,-0.5 -0.5,-0.5 -0.277,0 -0.5,0.223 -0.5,0.5 h -6 c 0,-0.277 -0.223,-0.5 -0.5,-0.5 z m -0.48242,5.58594 c 0.0419,0.2341 0.23592,0.41406 0.48242,0.41406 0.2465,0 0.44055,-0.17996 0.48242,-0.41406 0.59274,0.1998 1.01758,0.75003 1.01758,1.41406 0,0.83435 -0.66565,1.5 -1.5,1.5 -0.83435,0 -1.5,-0.66565 -1.5,-1.5 0,-0.66403 0.42484,-1.21426 1.01758,-1.41406 z m 7,0 c 0.0419,0.2341 0.23592,0.41406 0.48242,0.41406 0.2465,0 0.44055,-0.17996 0.48242,-0.41406 0.59274,0.1998 1.01758,0.75003 1.01758,1.41406 0,0.83435 -0.66565,1.5 -1.5,1.5 -0.83435,0 -1.5,-0.66565 -1.5,-1.5 0,-0.66403 0.42484,-1.21426 1.01758,-1.41406 z" fill="#000" transform="translate(8.0,8.0) translate(-648.0,-216.0)" /></svg>