<?xml version="1.0" encoding="utf-8" ?>
<svg baseProfile="full" height="16" version="1.1" width="16" xmlns="http://www.w3.org/2000/svg" xmlns:ev="http://www.w3.org/2001/xml-events" xmlns:xlink="http://www.w3.org/1999/xlink"><defs /><path d="m 475,48.5 a 0.50005,0.50005 0 0 0 -0.35352,0.146484 C 474.21212,49.080849 474.07015,49.572 474.02344,50 H 474 l -1,1.5 v 1 l 1,-0.5 v 4 l -1,2 v 1 l 1,-0.5 a 0.50005,0.50005 0 0 0 0.5,0.5 h 1 a 0.50005,0.50005 0 0 0 0.5,-0.5 l 1,0.5 v -1 l -1,-2 v -4 l 1,0.5 v -1 L 476,50 h -0.0234 c -0.0467,-0.428 -0.18866,-0.919151 -0.62304,-1.353516 A 0.50005,0.50005 0 0 0 475,48.5 Z m -7.5,2.5 a 0.5,0.5 0 0 0 -0.5,0.5 v 4 3 4 a 0.5,0.5 0 0 0 0.5,0.5 0.5,0.5 0 0 0 0.5,-0.5 v -0.792969 l 1,-1 V 62.5 a 0.5,0.5 0 0 0 0.5,0.5 0.5,0.5 0 0 0 0.5,-0.5 v -2.978516 a 0.5,0.5 0 0 0 0,-0.04297 v -0.957032 a 0.5,0.5 0 0 0 0,-0.04297 V 55.5 53.521484 a 0.5,0.5 0 0 0 0,-0.04297 V 53 h 1.5 A 0.5,0.5 0 0 0 472,52.5 0.5,0.5 0 0 0 471.5,52 H 470 V 51.5 A 0.5,0.5 0 0 0 469.5,51 0.5,0.5 0 0 0 469,51.5 V 52 h -1 V 51.5 A 0.5,0.5 0 0 0 467.5,51 Z m 0.5,2 h 1 v 0.292969 l -1,1 z m 1,1.707031 V 55.5 57.292969 l -1,-1 v -0.585938 z m -1,3 1,1 v 0.585938 l -1,1 V 58.5 Z M 474.5,60 c -1.5,1.5 0.5,3 0.5,3 0,0 2,-1.5 0.5,-3 -0.5,0.5 -0.5,0.5 -1,0 z" fill="#000" transform="translate(8.0,8.0) translate(-472.0,-56.0)" /><path d="m 475,48.5 a 0.50005,0.50005 0 0 0 -0.35352,0.146484 C 474.21212,49.080849 474.07015,49.572 474.02344,50 H 474 l -1,1.5 v 1 l 1,-0.5 v 4 l -1,2 v 1 l 1,-0.5 a 0.50005,0.50005 0 0 0 0.5,0.5 h 1 a 0.50005,0.50005 0 0 0 0.5,-0.5 l 1,0.5 v -1 l -1,-2 v -4 l 1,0.5 v -1 L 476,50 h -0.0234 c -0.0467,-0.428 -0.18866,-0.919151 -0.62304,-1.353516 A 0.50005,0.50005 0 0 0 475,48.5 Z m -7.5,2.5 a 0.5,0.5 0 0 0 -0.5,0.5 v 4 3 4 a 0.5,0.5 0 0 0 0.5,0.5 0.5,0.5 0 0 0 0.5,-0.5 v -0.792969 l 1,-1 V 62.5 a 0.5,0.5 0 0 0 0.5,0.5 0.5,0.5 0 0 0 0.5,-0.5 v -2.978516 a 0.5,0.5 0 0 0 0,-0.04297 v -0.957032 a 0.5,0.5 0 0 0 0,-0.04297 V 55.5 53.521484 a 0.5,0.5 0 0 0 0,-0.04297 V 53 h 1.5 A 0.5,0.5 0 0 0 472,52.5 0.5,0.5 0 0 0 471.5,52 H 470 V 51.5 A 0.5,0.5 0 0 0 469.5,51 0.5,0.5 0 0 0 469,51.5 V 52 h -1 V 51.5 A 0.5,0.5 0 0 0 467.5,51 Z m 0.5,2 h 1 v 0.292969 l -1,1 z m 1,1.707031 V 55.5 57.292969 l -1,-1 v -0.585938 z m -1,3 1,1 v 0.585938 l -1,1 V 58.5 Z M 474.5,60 c -1.5,1.5 0.5,3 0.5,3 0,0 2,-1.5 0.5,-3 -0.5,0.5 -0.5,0.5 -1,0 z" fill="#000" transform="translate(8.0,8.0) translate(-472.0,-56.0)" /></svg>