<?xml version="1.0" encoding="utf-8" ?>
<svg baseProfile="full" height="16" version="1.1" width="16" xmlns="http://www.w3.org/2000/svg" xmlns:ev="http://www.w3.org/2001/xml-events" xmlns:xlink="http://www.w3.org/1999/xlink"><defs /><path d="m 491,50.5 c -0.1326,2.4e-5 -0.25976,0.05271 -0.35352,0.146484 C 490.21212,51.080849 490.07015,51.572 490.02344,52 H 490 l -1,1.5 v 1 l 1,-0.5 v 6 l -1,2 v 1 l 1,-0.5 c 3e-5,0.276131 0.22387,0.499972 0.5,0.5 h 1 c 0.27613,-2.8e-5 0.49997,-0.223869 0.5,-0.5 l 1,0.5 v -1 l -1,-2 v -6 l 1,0.5 v -1 L 492,52 h -0.0234 c -0.0467,-0.428 -0.18866,-0.919151 -0.62304,-1.353516 C 491.25979,50.552705 491.13261,50.500014 491,50.5 Z m -7.5,0.5 c -0.27614,0 -0.5,0.223858 -0.5,0.5 v 4 3 4 c 0,0.276142 0.22386,0.5 0.5,0.5 0.27614,0 0.5,-0.223858 0.5,-0.5 v -0.792969 l 1,-1 V 62.5 c 0,0.276142 0.22386,0.5 0.5,0.5 0.27614,0 0.5,-0.223858 0.5,-0.5 v -2.978516 c 6.2e-4,-0.01432 6.2e-4,-0.02865 0,-0.04297 v -0.957032 c 6.2e-4,-0.01432 6.2e-4,-0.02865 0,-0.04297 V 55.5 53.521484 c 6.2e-4,-0.01432 6.2e-4,-0.02865 0,-0.04297 V 53 h 1.5 c 0.27614,0 0.5,-0.223858 0.5,-0.5 0,-0.276142 -0.22386,-0.5 -0.5,-0.5 H 486 v -0.5 c 0,-0.276142 -0.22386,-0.5 -0.5,-0.5 -0.27614,0 -0.5,0.223858 -0.5,0.5 V 52 h -1 v -0.5 c 0,-0.276142 -0.22386,-0.5 -0.5,-0.5 z m 0.5,2 h 1 v 0.292969 l -1,1 z m 1,1.707031 V 55.5 57.292969 l -1,-1 v -0.585938 z m -1,3 1,1 v 0.585938 l -1,1 V 58.5 Z" fill="#000" transform="translate(8.0,8.0) translate(-488.0,-56.0)" /><path d="m 491,50.5 c -0.1326,2.4e-5 -0.25976,0.05271 -0.35352,0.146484 C 490.21212,51.080849 490.07015,51.572 490.02344,52 H 490 l -1,1.5 v 1 l 1,-0.5 v 6 l -1,2 v 1 l 1,-0.5 c 3e-5,0.276131 0.22387,0.499972 0.5,0.5 h 1 c 0.27613,-2.8e-5 0.49997,-0.223869 0.5,-0.5 l 1,0.5 v -1 l -1,-2 v -6 l 1,0.5 v -1 L 492,52 h -0.0234 c -0.0467,-0.428 -0.18866,-0.919151 -0.62304,-1.353516 C 491.25979,50.552705 491.13261,50.500014 491,50.5 Z m -7.5,0.5 c -0.27614,0 -0.5,0.223858 -0.5,0.5 v 4 3 4 c 0,0.276142 0.22386,0.5 0.5,0.5 0.27614,0 0.5,-0.223858 0.5,-0.5 v -0.792969 l 1,-1 V 62.5 c 0,0.276142 0.22386,0.5 0.5,0.5 0.27614,0 0.5,-0.223858 0.5,-0.5 v -2.978516 c 6.2e-4,-0.01432 6.2e-4,-0.02865 0,-0.04297 v -0.957032 c 6.2e-4,-0.01432 6.2e-4,-0.02865 0,-0.04297 V 55.5 53.521484 c 6.2e-4,-0.01432 6.2e-4,-0.02865 0,-0.04297 V 53 h 1.5 c 0.27614,0 0.5,-0.223858 0.5,-0.5 0,-0.276142 -0.22386,-0.5 -0.5,-0.5 H 486 v -0.5 c 0,-0.276142 -0.22386,-0.5 -0.5,-0.5 -0.27614,0 -0.5,0.223858 -0.5,0.5 V 52 h -1 v -0.5 c 0,-0.276142 -0.22386,-0.5 -0.5,-0.5 z m 0.5,2 h 1 v 0.292969 l -1,1 z m 1,1.707031 V 55.5 57.292969 l -1,-1 v -0.585938 z m -1,3 1,1 v 0.585938 l -1,1 V 58.5 Z" fill="#000" transform="translate(8.0,8.0) translate(-488.0,-56.0)" /></svg>