<?xml version="1.0" encoding="utf-8" ?>
<svg baseProfile="full" height="16" version="1.1" width="16" xmlns="http://www.w3.org/2000/svg" xmlns:ev="http://www.w3.org/2001/xml-events" xmlns:xlink="http://www.w3.org/1999/xlink"><defs /><path d="m 532.5,212 c -0.66667,0 -1.27495,0.31792 -1.72852,0.77148 C 530.31792,213.22505 530,213.83333 530,214.5 v 2.5 h -0.5 c -0.277,0 -0.5,0.20256 -0.5,0.45508 v 0.0898 c 0,0.25252 0.223,0.45508 0.5,0.45508 h 4.5 v 1.54492 c 0,0.25252 0.223,0.45508 0.5,0.45508 h 2 c 0.277,0 0.5,-0.20256 0.5,-0.45508 V 218 h 4.5 c 0.277,0 0.5,-0.20256 0.5,-0.45508 v -0.0898 C 542,217.20256 541.777,217 541.5,217 H 541 v -2.5 c 0,-0.66667 -0.31792,-1.27495 -0.77148,-1.72852 C 539.77495,212.31792 539.16667,212 538.5,212 Z m 0,1 h 2.5 v 4 h -0.5 -3.5 v -2.5 c 0,-0.33333 0.18208,-0.72505 0.47852,-1.02148 C 531.77495,213.18208 532.16667,213 532.5,213 Z m 3.5,0 h 2.5 c 0.33333,0 0.72505,0.18208 1.02148,0.47852 C 539.81792,213.77495 540,214.16667 540,214.5 v 2.5 h -3.5 -0.5 z" fill="#000" transform="translate(8.0,8.0) translate(-536.0,-216.0)" /><path d="m 532.5,212 c -0.66667,0 -1.27495,0.31792 -1.72852,0.77148 C 530.31792,213.22505 530,213.83333 530,214.5 v 2.5 h -0.5 c -0.277,0 -0.5,0.20256 -0.5,0.45508 v 0.0898 c 0,0.25252 0.223,0.45508 0.5,0.45508 h 4.5 v 1.54492 c 0,0.25252 0.223,0.45508 0.5,0.45508 h 2 c 0.277,0 0.5,-0.20256 0.5,-0.45508 V 218 h 4.5 c 0.277,0 0.5,-0.20256 0.5,-0.45508 v -0.0898 C 542,217.20256 541.777,217 541.5,217 H 541 v -2.5 c 0,-0.66667 -0.31792,-1.27495 -0.77148,-1.72852 C 539.77495,212.31792 539.16667,212 538.5,212 Z m 0,1 h 2.5 v 4 h -0.5 -3.5 v -2.5 c 0,-0.33333 0.18208,-0.72505 0.47852,-1.02148 C 531.77495,213.18208 532.16667,213 532.5,213 Z m 3.5,0 h 2.5 c 0.33333,0 0.72505,0.18208 1.02148,0.47852 C 539.81792,213.77495 540,214.16667 540,214.5 v 2.5 h -3.5 -0.5 z" fill="#000" transform="translate(8.0,8.0) translate(-536.0,-216.0)" /></svg>