<?xml version="1.0" encoding="utf-8" ?>
<svg baseProfile="full" height="16" version="1.1" width="16" xmlns="http://www.w3.org/2000/svg" xmlns:ev="http://www.w3.org/2001/xml-events" xmlns:xlink="http://www.w3.org/1999/xlink"><defs /><path d="m 579.5,567 c -0.66667,0 -1.10352,0.39648 -1.35352,0.64648 -0.25,0.25 -0.31315,0.35352 -0.64648,0.35352 a 0.50005,0.50005 0 0 0 -0.0996,0.0117 0.50005,0.50005 0 0 0 -0.0937,0.0312 0.50005,0.50005 0 0 0 -0.0449,0.0215 0.50005,0.50005 0 0 0 -0.043,0.0274 0.50005,0.50005 0 0 0 -0.0391,0.0312 0.50005,0.50005 0 0 0 -0.0977,0.11328 0.50005,0.50005 0 0 0 -0.0234,0.043 0.50005,0.50005 0 0 0 -0.0508,0.19336 0.50005,0.50005 0 0 0 0.0469,0.24218 0.50005,0.50005 0 0 0 0.0527,0.0859 0.50005,0.50005 0 0 0 0.19141,0.1543 0.50005,0.50005 0 0 0 0.0469,0.0176 0.50005,0.50005 0 0 0 0.0977,0.0234 A 0.50005,0.50005 0 0 0 577.5,569 h 4 3.99414 0.006 4 a 0.50005,0.50005 0 0 0 0.0996,-0.0117 0.50005,0.50005 0 0 0 0.18164,-0.0801 0.50005,0.50005 0 0 0 0.10742,-0.10351 0.50005,0.50005 0 0 0 0.0527,-0.084 0.50005,0.50005 0 0 0 0.0195,-0.0469 0.50005,0.50005 0 0 0 0.0156,-0.0469 0.50005,0.50005 0 0 0 0.01,-0.0488 0.50005,0.50005 0 0 0 0.006,-0.0508 0.50005,0.50005 0 0 0 -0.004,-0.0996 0.50005,0.50005 0 0 0 -0.01,-0.0488 0.50005,0.50005 0 0 0 -0.0156,-0.0469 0.50005,0.50005 0 0 0 -0.0176,-0.0469 0.50005,0.50005 0 0 0 -0.0527,-0.0859 0.50005,0.50005 0 0 0 -0.0312,-0.0371 0.50005,0.50005 0 0 0 -0.16016,-0.11719 0.50005,0.50005 0 0 0 -0.0469,-0.0176 0.50005,0.50005 0 0 0 -0.0977,-0.0234 A 0.50005,0.50005 0 0 0 589.5,568 c -0.33333,0 -0.39648,-0.10352 -0.64648,-0.35352 -0.25,-0.25 -0.68685,-0.64648 -1.35352,-0.64648 -0.66667,0 -1.10352,0.39648 -1.35352,0.64648 -0.24824,0.24825 -0.31337,0.35208 -0.64062,0.35352 -0.002,10e-6 -0.004,0 -0.006,0 -0.33333,0 -0.39648,-0.10352 -0.64648,-0.35352 -0.25,-0.25 -0.68685,-0.64648 -1.35352,-0.64648 -0.66667,0 -1.10352,0.39648 -1.35352,0.64648 -0.25,0.25 -0.31315,0.35352 -0.64648,0.35352 -0.33333,0 -0.39648,-0.10352 -0.64648,-0.35352 C 580.60352,567.39648 580.16667,567 579.5,567 Z" fill="#000" transform="translate(8.0,8.0) translate(-584.0,-568.0)" /><path d="m 579.5,567 c -0.66667,0 -1.10352,0.39648 -1.35352,0.64648 -0.25,0.25 -0.31315,0.35352 -0.64648,0.35352 a 0.50005,0.50005 0 0 0 -0.0996,0.0117 0.50005,0.50005 0 0 0 -0.0937,0.0312 0.50005,0.50005 0 0 0 -0.0449,0.0215 0.50005,0.50005 0 0 0 -0.043,0.0274 0.50005,0.50005 0 0 0 -0.0391,0.0312 0.50005,0.50005 0 0 0 -0.0977,0.11328 0.50005,0.50005 0 0 0 -0.0234,0.043 0.50005,0.50005 0 0 0 -0.0508,0.19336 0.50005,0.50005 0 0 0 0.0469,0.24218 0.50005,0.50005 0 0 0 0.0527,0.0859 0.50005,0.50005 0 0 0 0.19141,0.1543 0.50005,0.50005 0 0 0 0.0469,0.0176 0.50005,0.50005 0 0 0 0.0977,0.0234 A 0.50005,0.50005 0 0 0 577.5,569 h 4 3.99414 0.006 4 a 0.50005,0.50005 0 0 0 0.0996,-0.0117 0.50005,0.50005 0 0 0 0.18164,-0.0801 0.50005,0.50005 0 0 0 0.10742,-0.10351 0.50005,0.50005 0 0 0 0.0527,-0.084 0.50005,0.50005 0 0 0 0.0195,-0.0469 0.50005,0.50005 0 0 0 0.0156,-0.0469 0.50005,0.50005 0 0 0 0.01,-0.0488 0.50005,0.50005 0 0 0 0.006,-0.0508 0.50005,0.50005 0 0 0 -0.004,-0.0996 0.50005,0.50005 0 0 0 -0.01,-0.0488 0.50005,0.50005 0 0 0 -0.0156,-0.0469 0.50005,0.50005 0 0 0 -0.0176,-0.0469 0.50005,0.50005 0 0 0 -0.0527,-0.0859 0.50005,0.50005 0 0 0 -0.0312,-0.0371 0.50005,0.50005 0 0 0 -0.16016,-0.11719 0.50005,0.50005 0 0 0 -0.0469,-0.0176 0.50005,0.50005 0 0 0 -0.0977,-0.0234 A 0.50005,0.50005 0 0 0 589.5,568 c -0.33333,0 -0.39648,-0.10352 -0.64648,-0.35352 -0.25,-0.25 -0.68685,-0.64648 -1.35352,-0.64648 -0.66667,0 -1.10352,0.39648 -1.35352,0.64648 -0.24824,0.24825 -0.31337,0.35208 -0.64062,0.35352 -0.002,10e-6 -0.004,0 -0.006,0 -0.33333,0 -0.39648,-0.10352 -0.64648,-0.35352 -0.25,-0.25 -0.68685,-0.64648 -1.35352,-0.64648 -0.66667,0 -1.10352,0.39648 -1.35352,0.64648 -0.25,0.25 -0.31315,0.35352 -0.64648,0.35352 -0.33333,0 -0.39648,-0.10352 -0.64648,-0.35352 C 580.60352,567.39648 580.16667,567 579.5,567 Z" fill="#000" transform="translate(8.0,8.0) translate(-584.0,-568.0)" /></svg>