<?xml version="1.0" encoding="utf-8" ?>
<svg baseProfile="full" height="16" version="1.1" width="16" xmlns="http://www.w3.org/2000/svg" xmlns:ev="http://www.w3.org/2001/xml-events" xmlns:xlink="http://www.w3.org/1999/xlink"><defs /><path d="m 519.5,81 c -0.277,0 -0.5,0.223 -0.5,0.5 V 83 h -1.5 c -0.277,0 -0.5,0.223 -0.5,0.5 v 1 c 0,0.277 0.223,0.5 0.5,0.5 h 1.5 v 1 h -3.5 c -0.277,0 -0.5,0.223 -0.5,0.5 v 1 c 0,0.277 0.223,0.5 0.5,0.5 h 3.5 v 2.1875 l -1.15625,-0.3125 c -0.26756,-0.0717 -0.55331,0.10744 -0.625,0.375 l -0.25,0.96875 c -0.0717,0.26756 0.0762,0.52206 0.34375,0.59375 L 519,92.28125 V 94.5 c 0,0.277 0.223,0.5 0.5,0.5 h 1 c 0.277,0 0.5,-0.223 0.5,-0.5 v -1.6875 l 1.15625,0.3125 c 0.26756,0.0717 0.55331,-0.10744 0.625,-0.375 l 0.25,-0.96875 c 0.0717,-0.26756 -0.0762,-0.52206 -0.34375,-0.59375 L 521,90.71875 V 88 h 3.5 c 0.277,0 0.5,-0.223 0.5,-0.5 v -1 C 525,86.223 524.777,86 524.5,86 H 521 v -1 h 1.5 c 0.277,0 0.5,-0.223 0.5,-0.5 v -1 C 523,83.223 522.777,83 522.5,83 H 521 v -1.5 c 0,-0.277 -0.223,-0.5 -0.5,-0.5 z" fill="#000" transform="translate(8.0,8.0) translate(-520.0,-88.0)" /><path d="m 519.5,81 c -0.277,0 -0.5,0.223 -0.5,0.5 V 83 h -1.5 c -0.277,0 -0.5,0.223 -0.5,0.5 v 1 c 0,0.277 0.223,0.5 0.5,0.5 h 1.5 v 1 h -3.5 c -0.277,0 -0.5,0.223 -0.5,0.5 v 1 c 0,0.277 0.223,0.5 0.5,0.5 h 3.5 v 2.1875 l -1.15625,-0.3125 c -0.26756,-0.0717 -0.55331,0.10744 -0.625,0.375 l -0.25,0.96875 c -0.0717,0.26756 0.0762,0.52206 0.34375,0.59375 L 519,92.28125 V 94.5 c 0,0.277 0.223,0.5 0.5,0.5 h 1 c 0.277,0 0.5,-0.223 0.5,-0.5 v -1.6875 l 1.15625,0.3125 c 0.26756,0.0717 0.55331,-0.10744 0.625,-0.375 l 0.25,-0.96875 c 0.0717,-0.26756 -0.0762,-0.52206 -0.34375,-0.59375 L 521,90.71875 V 88 h 3.5 c 0.277,0 0.5,-0.223 0.5,-0.5 v -1 C 525,86.223 524.777,86 524.5,86 H 521 v -1 h 1.5 c 0.277,0 0.5,-0.223 0.5,-0.5 v -1 C 523,83.223 522.777,83 522.5,83 H 521 v -1.5 c 0,-0.277 -0.223,-0.5 -0.5,-0.5 z" fill="#000" transform="translate(8.0,8.0) translate(-520.0,-88.0)" /></svg>