<?xml version="1.0" encoding="utf-8" ?>
<svg baseProfile="full" height="16" version="1.1" width="16" xmlns="http://www.w3.org/2000/svg" xmlns:ev="http://www.w3.org/2001/xml-events" xmlns:xlink="http://www.w3.org/1999/xlink"><defs /><path d="m 420.5,21 c -0.22922,3.55e-4 -0.42885,0.156514 -0.48438,0.378906 -0.49048,1.961953 -0.92806,2.826505 -1.86914,3.767578 C 417.8317,25.461483 418.05468,25.99983 418.5,26 h 11 c 0.44532,-1.7e-4 0.6683,-0.538517 0.35352,-0.853516 -0.94108,-0.941073 -1.37866,-1.805625 -1.86915,-3.767578 -0.12851,-0.501105 -0.84024,-0.501105 -0.96875,0 C 426.56318,23.18868 425.27778,24 424,24 422.72222,24 421.43682,23.18868 420.98437,21.378906 420.92884,21.156517 420.72922,21.000359 420.5,21 Z" fill="#000" transform="translate(8.0,8.0) translate(-424.0,-24.0)" /><path d="m 420.5,21 c -0.22922,3.55e-4 -0.42885,0.156514 -0.48438,0.378906 -0.49048,1.961953 -0.92806,2.826505 -1.86914,3.767578 C 417.8317,25.461483 418.05468,25.99983 418.5,26 h 11 c 0.44532,-1.7e-4 0.6683,-0.538517 0.35352,-0.853516 -0.94108,-0.941073 -1.37866,-1.805625 -1.86915,-3.767578 -0.12851,-0.501105 -0.84024,-0.501105 -0.96875,0 C 426.56318,23.18868 425.27778,24 424,24 422.72222,24 421.43682,23.18868 420.98437,21.378906 420.92884,21.156517 420.72922,21.000359 420.5,21 Z" fill="#000" transform="translate(8.0,8.0) translate(-424.0,-24.0)" /></svg>