<?xml version="1.0" encoding="utf-8" ?>
<svg baseProfile="full" height="16" version="1.1" width="16" xmlns="http://www.w3.org/2000/svg" xmlns:ev="http://www.w3.org/2001/xml-events" xmlns:xlink="http://www.w3.org/1999/xlink"><defs /><path d="m 486.5,180 c -0.12794,0 -0.25588,0.0489 -0.35352,0.14648 L 483.29297,183 h 9.41406 l -1.85351,-1.85352 c -0.19527,-0.19519 -0.51177,-0.19519 -0.70704,0 L 489,182.29297 486.85352,180.14648 C 486.75588,180.04889 486.62794,180 486.5,180 Z m -4,4 c -0.277,0 -0.5,0.223 -0.5,0.5 0,0.277 0.223,0.5 0.5,0.5 h 0.5 v 2 h 10 v -2 h 0.5 c 0.277,0 0.5,-0.223 0.5,-0.5 0,-0.277 -0.223,-0.5 -0.5,-0.5 H 493 483 Z" fill="#000" transform="translate(8.0,8.0) translate(-488.0,-184.0)" /><path d="m 486.5,180 c -0.12794,0 -0.25588,0.0489 -0.35352,0.14648 L 483.29297,183 h 9.41406 l -1.85351,-1.85352 c -0.19527,-0.19519 -0.51177,-0.19519 -0.70704,0 L 489,182.29297 486.85352,180.14648 C 486.75588,180.04889 486.62794,180 486.5,180 Z m -4,4 c -0.277,0 -0.5,0.223 -0.5,0.5 0,0.277 0.223,0.5 0.5,0.5 h 0.5 v 2 h 10 v -2 h 0.5 c 0.277,0 0.5,-0.223 0.5,-0.5 0,-0.277 -0.223,-0.5 -0.5,-0.5 H 493 483 Z" fill="#000" transform="translate(8.0,8.0) translate(-488.0,-184.0)" /></svg>