<?xml version="1.0" encoding="utf-8" ?>
<svg baseProfile="full" height="16" version="1.1" width="16" xmlns="http://www.w3.org/2000/svg" xmlns:ev="http://www.w3.org/2001/xml-events" xmlns:xlink="http://www.w3.org/1999/xlink"><defs /><path d="m 155,595 c -0.554,0 -1,0.446 -1,1 0,0.554 0.446,1 1,1 0.554,0 1,-0.446 1,-1 0,-0.554 -0.446,-1 -1,-1 z m -8.50586,1.99414 a 0.50005,0.50005 0 0 0 -0.41016,0.7832 l 0.81446,1.22266 -0.81446,1.22266 a 0.50005,0.50005 0 0 0 0,0.55468 l 1,1.5 a 0.50005,0.50005 0 1 0 0.83204,-0.55468 l -0.81446,-1.22266 0.81446,-1.22266 a 0.50005,0.50005 0 0 0 0,-0.55468 l -1,-1.5 a 0.50005,0.50005 0 0 0 -0.42188,-0.22852 z m 2,0 a 0.50005,0.50005 0 0 0 -0.41016,0.7832 l 0.81446,1.22266 -0.81446,1.22266 a 0.50005,0.50005 0 0 0 0,0.55468 l 1,1.5 a 0.50005,0.50005 0 1 0 0.83204,-0.55468 l -0.81446,-1.22266 0.81446,-1.22266 a 0.50005,0.50005 0 0 0 0,-0.55468 l -1,-1.5 a 0.50005,0.50005 0 0 0 -0.42188,-0.22852 z m 5.99609,1.00195 a 0.50005,0.50005 0 0 0 -0.13867,0.0254 0.50005,0.50005 0 0 0 -0.008,0.002 0.50005,0.50005 0 0 0 -0.0391,0.0156 0.50005,0.50005 0 0 0 -0.0449,0.0215 0.50005,0.50005 0 0 0 -0.008,0.004 0.50005,0.50005 0 0 0 -0.0352,0.0234 0.50005,0.50005 0 0 0 -0.0156,0.0117 0.50005,0.50005 0 0 0 -0.0234,0.0176 0.50005,0.50005 0 0 0 -0.006,0.006 0.50005,0.50005 0 0 0 -0.0117,0.0117 0.50005,0.50005 0 0 0 -0.0137,0.0117 0.50005,0.50005 0 0 0 -0.006,0.006 L 152.29297,600 H 151.5 a 0.50005,0.50005 0 1 0 0,1 h 1 a 0.50005,0.50005 0 0 0 0.35352,-0.14648 L 154,599.70703 V 602 h -1.5 a 0.50005,0.50005 0 0 0 -0.47461,0.3418 l -1,3 a 0.50028181,0.50028181 0 0 0 0.94922,0.3164 L 152.86133,603 h 1.63867 1 a 0.50005,0.50005 0 0 0 0.5,-0.5 v -4 a 0.50005,0.50005 0 0 0 -0.5,-0.5 h -0.92969 a 0.50005,0.50005 0 0 0 -0.0801,-0.004 z M 154,604 c -0.277,0 -0.5,0.223 -0.5,0.5 0,0.277 0.223,0.5 0.5,0.5 h 2.5 c 0.277,0 0.5,-0.223 0.5,-0.5 0,-0.277 -0.223,-0.5 -0.5,-0.5 z" fill="#000" transform="translate(8.0,8.0) translate(-152.0,-600.0)" /><path d="m 155,595 c -0.554,0 -1,0.446 -1,1 0,0.554 0.446,1 1,1 0.554,0 1,-0.446 1,-1 0,-0.554 -0.446,-1 -1,-1 z m -8.50586,1.99414 a 0.50005,0.50005 0 0 0 -0.41016,0.7832 l 0.81446,1.22266 -0.81446,1.22266 a 0.50005,0.50005 0 0 0 0,0.55468 l 1,1.5 a 0.50005,0.50005 0 1 0 0.83204,-0.55468 l -0.81446,-1.22266 0.81446,-1.22266 a 0.50005,0.50005 0 0 0 0,-0.55468 l -1,-1.5 a 0.50005,0.50005 0 0 0 -0.42188,-0.22852 z m 2,0 a 0.50005,0.50005 0 0 0 -0.41016,0.7832 l 0.81446,1.22266 -0.81446,1.22266 a 0.50005,0.50005 0 0 0 0,0.55468 l 1,1.5 a 0.50005,0.50005 0 1 0 0.83204,-0.55468 l -0.81446,-1.22266 0.81446,-1.22266 a 0.50005,0.50005 0 0 0 0,-0.55468 l -1,-1.5 a 0.50005,0.50005 0 0 0 -0.42188,-0.22852 z m 5.99609,1.00195 a 0.50005,0.50005 0 0 0 -0.13867,0.0254 0.50005,0.50005 0 0 0 -0.008,0.002 0.50005,0.50005 0 0 0 -0.0391,0.0156 0.50005,0.50005 0 0 0 -0.0449,0.0215 0.50005,0.50005 0 0 0 -0.008,0.004 0.50005,0.50005 0 0 0 -0.0352,0.0234 0.50005,0.50005 0 0 0 -0.0156,0.0117 0.50005,0.50005 0 0 0 -0.0234,0.0176 0.50005,0.50005 0 0 0 -0.006,0.006 0.50005,0.50005 0 0 0 -0.0117,0.0117 0.50005,0.50005 0 0 0 -0.0137,0.0117 0.50005,0.50005 0 0 0 -0.006,0.006 L 152.29297,600 H 151.5 a 0.50005,0.50005 0 1 0 0,1 h 1 a 0.50005,0.50005 0 0 0 0.35352,-0.14648 L 154,599.70703 V 602 h -1.5 a 0.50005,0.50005 0 0 0 -0.47461,0.3418 l -1,3 a 0.50028181,0.50028181 0 0 0 0.94922,0.3164 L 152.86133,603 h 1.63867 1 a 0.50005,0.50005 0 0 0 0.5,-0.5 v -4 a 0.50005,0.50005 0 0 0 -0.5,-0.5 h -0.92969 a 0.50005,0.50005 0 0 0 -0.0801,-0.004 z M 154,604 c -0.277,0 -0.5,0.223 -0.5,0.5 0,0.277 0.223,0.5 0.5,0.5 h 2.5 c 0.277,0 0.5,-0.223 0.5,-0.5 0,-0.277 -0.223,-0.5 -0.5,-0.5 z" fill="#000" transform="translate(8.0,8.0) translate(-152.0,-600.0)" /></svg>