<?xml version="1.0" encoding="utf-8" ?>
<svg baseProfile="full" height="16" version="1.1" width="16" xmlns="http://www.w3.org/2000/svg" xmlns:ev="http://www.w3.org/2001/xml-events" xmlns:xlink="http://www.w3.org/1999/xlink"><defs /><path d="m 573.12109,211.11133 c -0.0638,-0.007 -0.13037,-0.002 -0.19726,0.0156 -0.26756,0.0717 -0.43059,0.3264 -0.36524,0.57032 l 0.40039,1.49218 -4.22656,1.13282 A 1,1 0 0 0 568,214 a 1,1 0 0 0 -0.97461,0.7793 l -3.72461,0.99804 -0.40039,-1.49218 c -0.0654,-0.24392 -0.334,-0.38224 -0.60156,-0.31055 -0.26756,0.0717 -0.43059,0.3264 -0.36524,0.57031 l 0.40039,1.49219 -0.48242,0.12891 c -0.26756,0.0717 -0.43059,0.32444 -0.36523,0.56836 l 0.0215,0.0859 c 0.0654,0.24391 0.334,0.38224 0.60157,0.31055 l 0.96679,-0.25781 c 0.002,-5.6e-4 0.004,-0.001 0.006,-0.002 l 4.24024,-1.13671 A 1,1 0 0 0 568,216 a 1,1 0 0 0 0.95508,-0.70312 l 4.74609,-1.27149 c 0.002,-5.5e-4 0.004,-10e-4 0.006,-0.002 l 0.95899,-0.25782 c 0.26756,-0.0717 0.43059,-0.32444 0.36523,-0.56835 l -0.0215,-0.0859 c -0.0654,-0.24391 -0.33401,-0.38224 -0.60157,-0.31055 l -0.48242,0.12891 -0.40039,-1.49219 c -0.049,-0.18293 -0.21298,-0.30599 -0.4043,-0.32617 z M 568,216 l -3,4 h 6 z" fill="#000" transform="translate(8.0,8.0) translate(-568.0,-216.0)" /><path d="m 573.12109,211.11133 c -0.0638,-0.007 -0.13037,-0.002 -0.19726,0.0156 -0.26756,0.0717 -0.43059,0.3264 -0.36524,0.57032 l 0.40039,1.49218 -4.22656,1.13282 A 1,1 0 0 0 568,214 a 1,1 0 0 0 -0.97461,0.7793 l -3.72461,0.99804 -0.40039,-1.49218 c -0.0654,-0.24392 -0.334,-0.38224 -0.60156,-0.31055 -0.26756,0.0717 -0.43059,0.3264 -0.36524,0.57031 l 0.40039,1.49219 -0.48242,0.12891 c -0.26756,0.0717 -0.43059,0.32444 -0.36523,0.56836 l 0.0215,0.0859 c 0.0654,0.24391 0.334,0.38224 0.60157,0.31055 l 0.96679,-0.25781 c 0.002,-5.6e-4 0.004,-0.001 0.006,-0.002 l 4.24024,-1.13671 A 1,1 0 0 0 568,216 a 1,1 0 0 0 0.95508,-0.70312 l 4.74609,-1.27149 c 0.002,-5.5e-4 0.004,-10e-4 0.006,-0.002 l 0.95899,-0.25782 c 0.26756,-0.0717 0.43059,-0.32444 0.36523,-0.56835 l -0.0215,-0.0859 c -0.0654,-0.24391 -0.33401,-0.38224 -0.60157,-0.31055 l -0.48242,0.12891 -0.40039,-1.49219 c -0.049,-0.18293 -0.21298,-0.30599 -0.4043,-0.32617 z M 568,216 l -3,4 h 6 z" fill="#000" transform="translate(8.0,8.0) translate(-568.0,-216.0)" /></svg>