<?xml version="1.0" encoding="utf-8" ?>
<svg baseProfile="full" height="16" version="1.1" width="16" xmlns="http://www.w3.org/2000/svg" xmlns:ev="http://www.w3.org/2001/xml-events" xmlns:xlink="http://www.w3.org/1999/xlink"><defs /><path d="m 135.51172,498 c -0.0577,-10e-4 -0.11517,0.007 -0.16992,0.0254 l -6,2 c -0.53891,0.17903 -0.40967,0.97524 0.1582,0.97461 h 0.5 v 9 h 1 v -9 h 9 v 9 h 1 v -9 h 0.5 c 0.56791,6.6e-4 0.69716,-0.79561 0.1582,-0.97461 l -6,-2 c -0.0473,-0.0157 -0.0967,-0.0243 -0.14648,-0.0254 z" fill="#000" transform="translate(8.0,8.0) translate(-136.0,-504.0)" /><path d="m 135.51172,498 c -0.0577,-10e-4 -0.11517,0.007 -0.16992,0.0254 l -6,2 c -0.53891,0.17903 -0.40967,0.97524 0.1582,0.97461 h 0.5 v 9 h 1 v -9 h 9 v 9 h 1 v -9 h 0.5 c 0.56791,6.6e-4 0.69716,-0.79561 0.1582,-0.97461 l -6,-2 c -0.0473,-0.0157 -0.0967,-0.0243 -0.14648,-0.0254 z" fill="#000" transform="translate(8.0,8.0) translate(-136.0,-504.0)" /></svg>