<?xml version="1.0" encoding="utf-8" ?>
<svg baseProfile="full" height="16" version="1.1" width="16" xmlns="http://www.w3.org/2000/svg" xmlns:ev="http://www.w3.org/2001/xml-events" xmlns:xlink="http://www.w3.org/1999/xlink"><defs /><path d="m 247.5,25 c -0.1326,2.4e-5 -0.25976,0.05271 -0.35352,0.146484 -0.94107,0.941075 -2.37472,1.905748 -4.83203,2.888672 C 241.80138,28.238744 241.94802,29.001233 242.5,29 h 11 c 0.55198,0.0012 0.69862,-0.761256 0.18555,-0.964844 -2.45731,-0.982924 -3.89096,-1.947597 -4.83203,-2.888672 C 248.75976,25.052715 248.6326,25.000024 248.5,25 Z" fill="#000" transform="translate(8.0,8.0) translate(-248.0,-24.0)" /><path d="m 247.5,25 c -0.1326,2.4e-5 -0.25976,0.05271 -0.35352,0.146484 -0.94107,0.941075 -2.37472,1.905748 -4.83203,2.888672 C 241.80138,28.238744 241.94802,29.001233 242.5,29 h 11 c 0.55198,0.0012 0.69862,-0.761256 0.18555,-0.964844 -2.45731,-0.982924 -3.89096,-1.947597 -4.83203,-2.888672 C 248.75976,25.052715 248.6326,25.000024 248.5,25 Z" fill="#000" transform="translate(8.0,8.0) translate(-248.0,-24.0)" /></svg>