<?xml version="1.0" encoding="utf-8" ?>
<svg baseProfile="full" height="16" version="1.1" width="16" xmlns="http://www.w3.org/2000/svg" xmlns:ev="http://www.w3.org/2001/xml-events" xmlns:xlink="http://www.w3.org/1999/xlink"><defs /><path d="m 264,51 v 1 c 0,0.371781 -0.0461,0.697329 -0.11523,1 H 264.5 a 0.50005,0.50005 0 1 1 0,1 h -1.05469 c -0.10474,0.141249 -0.22437,0.267913 -0.35937,0.378906 l 0.76758,0.767578 a 0.50005,0.50005 0 1 1 -0.70704,0.707032 l -1,-1 a 0.50005,0.50005 0 0 1 -0.002,-0.002 C 261.80638,54.944471 261.43106,55 261,55 h -1 c -1,0 -2,1 -2,2 v 1 h 11 v -7 z m -6,8 v 1 h 6 v -1 z m 7,0 v 1 h 4 v -1 z" fill="#000" transform="translate(8.0,8.0) translate(-264.0,-56.0)" /><path d="m 264,51 v 1 c 0,0.371781 -0.0461,0.697329 -0.11523,1 H 264.5 a 0.50005,0.50005 0 1 1 0,1 h -1.05469 c -0.10474,0.141249 -0.22437,0.267913 -0.35937,0.378906 l 0.76758,0.767578 a 0.50005,0.50005 0 1 1 -0.70704,0.707032 l -1,-1 a 0.50005,0.50005 0 0 1 -0.002,-0.002 C 261.80638,54.944471 261.43106,55 261,55 h -1 c -1,0 -2,1 -2,2 v 1 h 11 v -7 z m -6,8 v 1 h 6 v -1 z m 7,0 v 1 h 4 v -1 z" fill="#000" transform="translate(8.0,8.0) translate(-264.0,-56.0)" /></svg>