<?xml version="1.0" encoding="utf-8" ?>
<svg baseProfile="full" height="16" version="1.1" width="16" xmlns="http://www.w3.org/2000/svg" xmlns:ev="http://www.w3.org/2001/xml-events" xmlns:xlink="http://www.w3.org/1999/xlink"><defs /><path d="M 286.47461,146 C 286.2097,146.01334 286,146.23166 286,146.5 c 0,0.277 -0.223,0.5 -0.5,0.5 H 285.47461 282 c -0.86111,0 -1.6275,0.29547 -2.16602,0.83398 C 279.29547,148.3725 279,149.13889 279,150 v 0.0371 c -1.69166,0.2442 -3,1.70567 -3,3.46289 v 0.5 h 0.5 6 0.5 v -0.5 c 0,-1.75722 -1.30834,-3.21869 -3,-3.46289 V 150 c 0,-0.63889 0.20453,-1.1225 0.54102,-1.45898 C 280.8775,148.20453 281.36111,148 282,148 h 3.5 c 0.277,0 0.5,0.223 0.5,0.5 0,0.277 0.223,0.5 0.5,0.5 h 0.5 v -0.5 -1 -1.5 h -0.5 c -0.009,0 -0.0168,-4.3e-4 -0.0254,0 z M 278.5,155 c 0,0 -0.46663,0.93322 -0.49805,1.44727 v 0.002 0.002 c -0.002,0.0162 -0.002,0.0322 -0.002,0.0488 0,0.277 0.223,0.5 0.5,0.5 0.277,0 0.5,-0.223 0.5,-0.5 0,-0.0156 -9.5e-4,-0.0342 -0.002,-0.0508 v -0.002 C 278.96673,155.93322 278.5,155 278.5,155 Z m 4,0 c 0,0 -0.46663,0.93322 -0.49805,1.44727 v 0.002 0.002 c -0.002,0.0162 -0.002,0.0322 -0.002,0.0488 0,0.277 0.223,0.5 0.5,0.5 0.277,0 0.5,-0.223 0.5,-0.5 0,-0.0156 -9.5e-4,-0.0342 -0.002,-0.0508 v -0.002 C 282.96673,155.93322 282.5,155 282.5,155 Z m -6,1 c 0,0 -0.46663,0.93322 -0.49805,1.44727 v 0.002 0.002 c -0.002,0.0162 -0.002,0.0322 -0.002,0.0488 0,0.277 0.223,0.5 0.5,0.5 0.277,0 0.5,-0.223 0.5,-0.5 0,-0.0156 -9.5e-4,-0.0342 -0.002,-0.0508 v -0.002 C 276.96673,156.93322 276.5,156 276.5,156 Z m 4,0 c 0,0 -0.46663,0.93322 -0.49805,1.44727 v 0.002 0.002 c -0.002,0.0162 -0.002,0.0322 -0.002,0.0488 0,0.277 0.223,0.5 0.5,0.5 0.277,0 0.5,-0.223 0.5,-0.5 0,-0.0156 -9.5e-4,-0.0323 -0.002,-0.0488 v -0.002 -0.002 C 280.96673,156.93322 280.5,156 280.5,156 Z" fill="#000" transform="translate(8.0,8.0) translate(-280.0,-152.0)" /><path d="M 286.47461,146 C 286.2097,146.01334 286,146.23166 286,146.5 c 0,0.277 -0.223,0.5 -0.5,0.5 H 285.47461 282 c -0.86111,0 -1.6275,0.29547 -2.16602,0.83398 C 279.29547,148.3725 279,149.13889 279,150 v 0.0371 c -1.69166,0.2442 -3,1.70567 -3,3.46289 v 0.5 h 0.5 6 0.5 v -0.5 c 0,-1.75722 -1.30834,-3.21869 -3,-3.46289 V 150 c 0,-0.63889 0.20453,-1.1225 0.54102,-1.45898 C 280.8775,148.20453 281.36111,148 282,148 h 3.5 c 0.277,0 0.5,0.223 0.5,0.5 0,0.277 0.223,0.5 0.5,0.5 h 0.5 v -0.5 -1 -1.5 h -0.5 c -0.009,0 -0.0168,-4.3e-4 -0.0254,0 z M 278.5,155 c 0,0 -0.46663,0.93322 -0.49805,1.44727 v 0.002 0.002 c -0.002,0.0162 -0.002,0.0322 -0.002,0.0488 0,0.277 0.223,0.5 0.5,0.5 0.277,0 0.5,-0.223 0.5,-0.5 0,-0.0156 -9.5e-4,-0.0342 -0.002,-0.0508 v -0.002 C 278.96673,155.93322 278.5,155 278.5,155 Z m 4,0 c 0,0 -0.46663,0.93322 -0.49805,1.44727 v 0.002 0.002 c -0.002,0.0162 -0.002,0.0322 -0.002,0.0488 0,0.277 0.223,0.5 0.5,0.5 0.277,0 0.5,-0.223 0.5,-0.5 0,-0.0156 -9.5e-4,-0.0342 -0.002,-0.0508 v -0.002 C 282.96673,155.93322 282.5,155 282.5,155 Z m -6,1 c 0,0 -0.46663,0.93322 -0.49805,1.44727 v 0.002 0.002 c -0.002,0.0162 -0.002,0.0322 -0.002,0.0488 0,0.277 0.223,0.5 0.5,0.5 0.277,0 0.5,-0.223 0.5,-0.5 0,-0.0156 -9.5e-4,-0.0342 -0.002,-0.0508 v -0.002 C 276.96673,156.93322 276.5,156 276.5,156 Z m 4,0 c 0,0 -0.46663,0.93322 -0.49805,1.44727 v 0.002 0.002 c -0.002,0.0162 -0.002,0.0322 -0.002,0.0488 0,0.277 0.223,0.5 0.5,0.5 0.277,0 0.5,-0.223 0.5,-0.5 0,-0.0156 -9.5e-4,-0.0323 -0.002,-0.0488 v -0.002 -0.002 C 280.96673,156.93322 280.5,156 280.5,156 Z" fill="#000" transform="translate(8.0,8.0) translate(-280.0,-152.0)" /></svg>