<?xml version="1.0" encoding="utf-8" ?>
<svg baseProfile="full" height="16" version="1.1" width="16" xmlns="http://www.w3.org/2000/svg" xmlns:ev="http://www.w3.org/2001/xml-events" xmlns:xlink="http://www.w3.org/1999/xlink"><defs /><path d="m 473.5,82 c -1.96416,0 -3.78159,1.04899 -4.76367,2.75 -0.40504,0.70154 -0.64,1.471064 -0.71094,2.251953 A 0.49999851,0.49999851 0 0 0 468,87 h -1 V 86 A 0.49999851,0.49999851 0 0 0 466.5,85.5 0.49999851,0.49999851 0 0 0 466,86 v 3.5 a 0.49999851,0.49999851 0 0 0 0.5,0.5 0.49999851,0.49999851 0 0 0 0.5,-0.5 V 88 h 1 a 0.49999851,0.49999851 0 0 0 0.0254,-0.002 c 0.0709,0.780889 0.3059,1.550413 0.71094,2.251953 0.98208,1.70101 2.79951,2.75 4.76367,2.75 h 1 A 0.5,0.5 0 0 0 475,92.5 0.5,0.5 0 0 0 474.5,92 h -1 c -1.6085,0 -3.09224,-0.857002 -3.89648,-2.25 -0.80425,-1.392998 -0.80425,-3.107002 0,-4.5 C 470.40776,83.857002 471.8915,83 473.5,83 h 1 A 0.5,0.5 0 0 0 475,82.5 0.5,0.5 0 0 0 474.5,82 Z m 0,2 a 3.5,3.5 0 0 0 -3.5,3.5 3.5,3.5 0 0 0 3.5,3.5 3.5,3.5 0 0 0 3.5,-3.5 3.5,3.5 0 0 0 -3.5,-3.5 z m 0,1 a 0.5,0.5 0 0 1 0.5,0.5 0.5,0.5 0 0 1 -0.5,0.5 c -0.83435,0 -1.5,0.665651 -1.5,1.5 A 0.5,0.5 0 0 1 471.5,88 0.5,0.5 0 0 1 471,87.5 c 0,-1.374788 1.12521,-2.5 2.5,-2.5 z" fill="#000" transform="translate(8.0,8.0) translate(-472.0,-88.0)" /><path d="m 473.5,82 c -1.96416,0 -3.78159,1.04899 -4.76367,2.75 -0.40504,0.70154 -0.64,1.471064 -0.71094,2.251953 A 0.49999851,0.49999851 0 0 0 468,87 h -1 V 86 A 0.49999851,0.49999851 0 0 0 466.5,85.5 0.49999851,0.49999851 0 0 0 466,86 v 3.5 a 0.49999851,0.49999851 0 0 0 0.5,0.5 0.49999851,0.49999851 0 0 0 0.5,-0.5 V 88 h 1 a 0.49999851,0.49999851 0 0 0 0.0254,-0.002 c 0.0709,0.780889 0.3059,1.550413 0.71094,2.251953 0.98208,1.70101 2.79951,2.75 4.76367,2.75 h 1 A 0.5,0.5 0 0 0 475,92.5 0.5,0.5 0 0 0 474.5,92 h -1 c -1.6085,0 -3.09224,-0.857002 -3.89648,-2.25 -0.80425,-1.392998 -0.80425,-3.107002 0,-4.5 C 470.40776,83.857002 471.8915,83 473.5,83 h 1 A 0.5,0.5 0 0 0 475,82.5 0.5,0.5 0 0 0 474.5,82 Z m 0,2 a 3.5,3.5 0 0 0 -3.5,3.5 3.5,3.5 0 0 0 3.5,3.5 3.5,3.5 0 0 0 3.5,-3.5 3.5,3.5 0 0 0 -3.5,-3.5 z m 0,1 a 0.5,0.5 0 0 1 0.5,0.5 0.5,0.5 0 0 1 -0.5,0.5 c -0.83435,0 -1.5,0.665651 -1.5,1.5 A 0.5,0.5 0 0 1 471.5,88 0.5,0.5 0 0 1 471,87.5 c 0,-1.374788 1.12521,-2.5 2.5,-2.5 z" fill="#000" transform="translate(8.0,8.0) translate(-472.0,-88.0)" /></svg>