<?xml version="1.0" encoding="utf-8" ?>
<svg baseProfile="full" height="16" version="1.1" width="16" xmlns="http://www.w3.org/2000/svg" xmlns:ev="http://www.w3.org/2001/xml-events" xmlns:xlink="http://www.w3.org/1999/xlink"><defs /><path d="m 530.5,179.5 c -0.277,0 -0.5,0.223 -0.5,0.5 v 0.49023 l -0.0371,-0.01 c -0.26756,-0.0717 -0.53963,0.086 -0.61133,0.35351 l -0.25976,0.9668 c -0.0717,0.26756 0.0859,0.53964 0.35351,0.61133 L 530,182.56055 V 186.5 c 0,0.277 0.223,0.5 0.5,0.5 0.277,0 0.5,-0.223 0.5,-0.5 v -3.67188 l 9,2.41407 V 186.5 c 0,0.277 0.20209,0.5 0.45312,0.5 h 0.0938 C 540.79791,187 541,186.777 541,186.5 v -0.99023 l 0.0371,0.01 c 0.26756,0.0717 0.53963,-0.086 0.61133,-0.35351 l 0.25976,-0.9668 c 0.0717,-0.26756 -0.0859,-0.53964 -0.35351,-0.61133 L 541,183.43945 V 182.5 c 0,-0.277 -0.20209,-0.5 -0.45312,-0.5 h -0.0938 C 540.20209,182 540,182.223 540,182.5 v 0.67188 l -9,-2.41407 V 180 c 0,-0.277 -0.223,-0.5 -0.5,-0.5 z" fill="#000" transform="translate(8.0,8.0) translate(-536.0,-184.0)" /><path d="m 530.5,179.5 c -0.277,0 -0.5,0.223 -0.5,0.5 v 0.49023 l -0.0371,-0.01 c -0.26756,-0.0717 -0.53963,0.086 -0.61133,0.35351 l -0.25976,0.9668 c -0.0717,0.26756 0.0859,0.53964 0.35351,0.61133 L 530,182.56055 V 186.5 c 0,0.277 0.223,0.5 0.5,0.5 0.277,0 0.5,-0.223 0.5,-0.5 v -3.67188 l 9,2.41407 V 186.5 c 0,0.277 0.20209,0.5 0.45312,0.5 h 0.0938 C 540.79791,187 541,186.777 541,186.5 v -0.99023 l 0.0371,0.01 c 0.26756,0.0717 0.53963,-0.086 0.61133,-0.35351 l 0.25976,-0.9668 c 0.0717,-0.26756 -0.0859,-0.53964 -0.35351,-0.61133 L 541,183.43945 V 182.5 c 0,-0.277 -0.20209,-0.5 -0.45312,-0.5 h -0.0938 C 540.20209,182 540,182.223 540,182.5 v 0.67188 l -9,-2.41407 V 180 c 0,-0.277 -0.223,-0.5 -0.5,-0.5 z" fill="#000" transform="translate(8.0,8.0) translate(-536.0,-184.0)" /></svg>