<?xml version="1.0" encoding="utf-8" ?>
<svg baseProfile="full" height="16" version="1.1" width="16" xmlns="http://www.w3.org/2000/svg" xmlns:ev="http://www.w3.org/2001/xml-events" xmlns:xlink="http://www.w3.org/1999/xlink"><defs /><path d="m 77.99414,181.49219 a 0.50005,0.50005 0 0 0 -0.34766,0.15429 c -0.52946,0.52947 -0.79786,0.909 -1.02148,1.0879 C 76.40138,182.91327 76.19444,183 75.5,183 h -7 c -0.69444,0 -0.90138,-0.0867 -1.125,-0.26562 -0.22362,-0.1789 -0.49202,-0.55843 -1.02148,-1.0879 a 0.50005,0.50005 0 0 0 -0.35938,-0.15234 0.50005,0.50005 0 0 0 -0.34766,0.85938 c 0.47054,0.47053 0.70214,0.841 1.10352,1.1621 C 67.15138,183.83674 67.69444,184 68.5,184 h 7 c 0.80556,0 1.34862,-0.16327 1.75,-0.48438 0.40138,-0.3211 0.63298,-0.69157 1.10352,-1.1621 a 0.50005,0.50005 0 0 0 -0.35938,-0.86133 z M 68,185 a 1,1 0 0 0 -1,1 1,1 0 0 0 1,1 1,1 0 0 0 1,-1 1,1 0 0 0 -1,-1 z m 8,0 a 1,1 0 0 0 -1,1 1,1 0 0 0 1,1 1,1 0 0 0 1,-1 1,1 0 0 0 -1,-1 z" fill="#000" transform="translate(8.0,8.0) translate(-72.0,-184.0)" /><path d="m 77.99414,181.49219 a 0.50005,0.50005 0 0 0 -0.34766,0.15429 c -0.52946,0.52947 -0.79786,0.909 -1.02148,1.0879 C 76.40138,182.91327 76.19444,183 75.5,183 h -7 c -0.69444,0 -0.90138,-0.0867 -1.125,-0.26562 -0.22362,-0.1789 -0.49202,-0.55843 -1.02148,-1.0879 a 0.50005,0.50005 0 0 0 -0.35938,-0.15234 0.50005,0.50005 0 0 0 -0.34766,0.85938 c 0.47054,0.47053 0.70214,0.841 1.10352,1.1621 C 67.15138,183.83674 67.69444,184 68.5,184 h 7 c 0.80556,0 1.34862,-0.16327 1.75,-0.48438 0.40138,-0.3211 0.63298,-0.69157 1.10352,-1.1621 a 0.50005,0.50005 0 0 0 -0.35938,-0.86133 z M 68,185 a 1,1 0 0 0 -1,1 1,1 0 0 0 1,1 1,1 0 0 0 1,-1 1,1 0 0 0 -1,-1 z m 8,0 a 1,1 0 0 0 -1,1 1,1 0 0 0 1,1 1,1 0 0 0 1,-1 1,1 0 0 0 -1,-1 z" fill="#000" transform="translate(8.0,8.0) translate(-72.0,-184.0)" /></svg>