<?xml version="1.0" encoding="utf-8" ?>
<svg baseProfile="full" height="16" version="1.1" width="16" xmlns="http://www.w3.org/2000/svg" xmlns:ev="http://www.w3.org/2001/xml-events" xmlns:xlink="http://www.w3.org/1999/xlink"><defs /><path d="m 516.5,210 c -0.277,0 -0.5,0.223 -0.5,0.5 v 0.33203 a 1.0001,1.0001 0 0 0 0,0.32617 V 211.5 c 0,0.277 0.223,0.5 0.5,0.5 h 0.5 c 0.75,0 1.21149,0.23741 1.70508,0.68164 0.49359,0.44423 0.96289,1.12305 1.46289,1.87305 0.5,0.75 1.0307,1.57118 1.78711,2.25195 C 522.71149,217.48741 523.75,218 525,218 h 0.5 c 0.277,0 0.5,-0.223 0.5,-0.5 v -0.33203 a 1.0001,1.0001 0 0 0 0,-0.32617 V 216.5 c 0,-0.277 -0.223,-0.5 -0.5,-0.5 H 525 c -0.75,0 -1.21149,-0.23741 -1.70508,-0.68164 -0.49359,-0.44423 -0.96289,-1.12305 -1.46289,-1.87305 -0.5,-0.75 -1.0307,-1.57118 -1.78711,-2.25195 C 519.28851,210.51259 518.25,210 517,210 Z m -1,3 c -0.277,0 -0.5,0.20256 -0.5,0.45508 v 0.0898 c 0,0.25252 0.223,0.45508 0.5,0.45508 h 1 c 0.277,0 0.5,-0.20256 0.5,-0.45508 v -0.0898 C 517,213.20256 516.777,213 516.5,213 Z m -0.5,2 c -0.277,0 -0.5,0.20256 -0.5,0.45508 v 0.0898 c 0,0.25252 0.223,0.45508 0.5,0.45508 h 1 c 0.277,0 0.5,-0.20256 0.5,-0.45508 v -0.0898 C 516.5,215.20256 516.277,215 516,215 Z m -0.5,2 c -0.277,0 -0.5,0.20256 -0.5,0.45508 v 0.0898 c 0,0.25252 0.223,0.45508 0.5,0.45508 h 1 c 0.277,0 0.5,-0.20256 0.5,-0.45508 v -0.0898 C 516,217.20256 515.777,217 515.5,217 Z m 2.5,2.04297 -0.35352,0.35351 C 516.20541,219.83756 515.83333,220 515.5,220 c -0.33333,0 -0.70541,-0.16244 -1.14648,-0.60352 l -0.70704,0.70704 C 514.20541,220.66244 514.83333,221 515.5,221 c 0.53939,0 1.02735,-0.34421 1.5,-0.72461 0.47265,0.3804 0.96061,0.72461 1.5,0.72461 0.53939,0 1.02735,-0.34421 1.5,-0.72461 0.47265,0.3804 0.96061,0.72461 1.5,0.72461 0.53939,0 1.02735,-0.34421 1.5,-0.72461 0.47265,0.3804 0.96061,0.72461 1.5,0.72461 0.66667,0 1.29459,-0.33756 1.85352,-0.89648 l -0.70704,-0.70704 C 525.20541,219.83756 524.83333,220 524.5,220 c -0.33333,0 -0.70541,-0.16244 -1.14648,-0.60352 L 523,219.04297 l -0.35352,0.35351 C 522.20541,219.83756 521.83333,220 521.5,220 c -0.33333,0 -0.70541,-0.16244 -1.14648,-0.60352 L 520,219.04297 l -0.35352,0.35351 C 519.20541,219.83756 518.83333,220 518.5,220 c -0.33333,0 -0.70541,-0.16244 -1.14648,-0.60352 z" fill="#000" transform="translate(8.0,8.0) translate(-520.0,-216.0)" /><path d="m 516.5,210 c -0.277,0 -0.5,0.223 -0.5,0.5 v 0.33203 a 1.0001,1.0001 0 0 0 0,0.32617 V 211.5 c 0,0.277 0.223,0.5 0.5,0.5 h 0.5 c 0.75,0 1.21149,0.23741 1.70508,0.68164 0.49359,0.44423 0.96289,1.12305 1.46289,1.87305 0.5,0.75 1.0307,1.57118 1.78711,2.25195 C 522.71149,217.48741 523.75,218 525,218 h 0.5 c 0.277,0 0.5,-0.223 0.5,-0.5 v -0.33203 a 1.0001,1.0001 0 0 0 0,-0.32617 V 216.5 c 0,-0.277 -0.223,-0.5 -0.5,-0.5 H 525 c -0.75,0 -1.21149,-0.23741 -1.70508,-0.68164 -0.49359,-0.44423 -0.96289,-1.12305 -1.46289,-1.87305 -0.5,-0.75 -1.0307,-1.57118 -1.78711,-2.25195 C 519.28851,210.51259 518.25,210 517,210 Z m -1,3 c -0.277,0 -0.5,0.20256 -0.5,0.45508 v 0.0898 c 0,0.25252 0.223,0.45508 0.5,0.45508 h 1 c 0.277,0 0.5,-0.20256 0.5,-0.45508 v -0.0898 C 517,213.20256 516.777,213 516.5,213 Z m -0.5,2 c -0.277,0 -0.5,0.20256 -0.5,0.45508 v 0.0898 c 0,0.25252 0.223,0.45508 0.5,0.45508 h 1 c 0.277,0 0.5,-0.20256 0.5,-0.45508 v -0.0898 C 516.5,215.20256 516.277,215 516,215 Z m -0.5,2 c -0.277,0 -0.5,0.20256 -0.5,0.45508 v 0.0898 c 0,0.25252 0.223,0.45508 0.5,0.45508 h 1 c 0.277,0 0.5,-0.20256 0.5,-0.45508 v -0.0898 C 516,217.20256 515.777,217 515.5,217 Z m 2.5,2.04297 -0.35352,0.35351 C 516.20541,219.83756 515.83333,220 515.5,220 c -0.33333,0 -0.70541,-0.16244 -1.14648,-0.60352 l -0.70704,0.70704 C 514.20541,220.66244 514.83333,221 515.5,221 c 0.53939,0 1.02735,-0.34421 1.5,-0.72461 0.47265,0.3804 0.96061,0.72461 1.5,0.72461 0.53939,0 1.02735,-0.34421 1.5,-0.72461 0.47265,0.3804 0.96061,0.72461 1.5,0.72461 0.53939,0 1.02735,-0.34421 1.5,-0.72461 0.47265,0.3804 0.96061,0.72461 1.5,0.72461 0.66667,0 1.29459,-0.33756 1.85352,-0.89648 l -0.70704,-0.70704 C 525.20541,219.83756 524.83333,220 524.5,220 c -0.33333,0 -0.70541,-0.16244 -1.14648,-0.60352 L 523,219.04297 l -0.35352,0.35351 C 522.20541,219.83756 521.83333,220 521.5,220 c -0.33333,0 -0.70541,-0.16244 -1.14648,-0.60352 L 520,219.04297 l -0.35352,0.35351 C 519.20541,219.83756 518.83333,220 518.5,220 c -0.33333,0 -0.70541,-0.16244 -1.14648,-0.60352 z" fill="#000" transform="translate(8.0,8.0) translate(-520.0,-216.0)" /></svg>