<?xml version="1.0" encoding="utf-8" ?>
<svg baseProfile="full" height="16" version="1.1" width="16" xmlns="http://www.w3.org/2000/svg" xmlns:ev="http://www.w3.org/2001/xml-events" xmlns:xlink="http://www.w3.org/1999/xlink"><defs /><path d="m 501,212 c 1.25,0 2.28851,0.51259 3.04492,1.19336 0.75641,0.68077 1.28711,1.50195 1.78711,2.25195 0.5,0.75 0.9693,1.42882 1.46289,1.87305 C 507.78851,217.76259 508.25,218 509,218 h 0.5 c 0.277,0 0.5,0.223 0.5,0.5 v 0.33203 a 1.0001,1.0001 0 0 1 0,0.32617 V 219.5 c 0,0.277 -0.223,0.5 -0.5,0.5 H 509 c -1.25,0 -2.28851,-0.51259 -3.04492,-1.19336 -0.75641,-0.68077 -1.28711,-1.50195 -1.78711,-2.25195 -0.5,-0.75 -0.9693,-1.42882 -1.46289,-1.87305 C 502.21149,214.23741 501.75,214 501,214 h -0.5 c -0.277,0 -0.5,-0.223 -0.5,-0.5 v -0.33203 a 1.0001,1.0001 0 0 1 0,-0.32617 V 212.5 c 0,-0.277 0.223,-0.5 0.5,-0.5 z m -0.5,3 c 0.277,0 0.5,0.20256 0.5,0.45508 v 0.0898 C 501,215.79744 500.777,216 500.5,216 h -1 c -0.277,0 -0.5,-0.20256 -0.5,-0.45508 v -0.0898 C 499,215.20256 499.223,215 499.5,215 Z m -0.5,2 c 0.277,0 0.5,0.20256 0.5,0.45508 v 0.0898 C 500.5,217.79744 500.277,218 500,218 h -1 c -0.277,0 -0.5,-0.20256 -0.5,-0.45508 v -0.0898 C 498.5,217.20256 498.723,217 499,217 Z m -0.5,2 c 0.277,0 0.5,0.20256 0.5,0.45508 v 0.0898 C 500,219.79744 499.777,220 499.5,220 h -1 c -0.277,0 -0.5,-0.20256 -0.5,-0.45508 v -0.0898 C 498,219.20256 498.223,219 498.5,219 Z" fill="#000" transform="translate(8.0,8.0) translate(-504.0,-216.0)" /><path d="m 501,212 c 1.25,0 2.28851,0.51259 3.04492,1.19336 0.75641,0.68077 1.28711,1.50195 1.78711,2.25195 0.5,0.75 0.9693,1.42882 1.46289,1.87305 C 507.78851,217.76259 508.25,218 509,218 h 0.5 c 0.277,0 0.5,0.223 0.5,0.5 v 0.33203 a 1.0001,1.0001 0 0 1 0,0.32617 V 219.5 c 0,0.277 -0.223,0.5 -0.5,0.5 H 509 c -1.25,0 -2.28851,-0.51259 -3.04492,-1.19336 -0.75641,-0.68077 -1.28711,-1.50195 -1.78711,-2.25195 -0.5,-0.75 -0.9693,-1.42882 -1.46289,-1.87305 C 502.21149,214.23741 501.75,214 501,214 h -0.5 c -0.277,0 -0.5,-0.223 -0.5,-0.5 v -0.33203 a 1.0001,1.0001 0 0 1 0,-0.32617 V 212.5 c 0,-0.277 0.223,-0.5 0.5,-0.5 z m -0.5,3 c 0.277,0 0.5,0.20256 0.5,0.45508 v 0.0898 C 501,215.79744 500.777,216 500.5,216 h -1 c -0.277,0 -0.5,-0.20256 -0.5,-0.45508 v -0.0898 C 499,215.20256 499.223,215 499.5,215 Z m -0.5,2 c 0.277,0 0.5,0.20256 0.5,0.45508 v 0.0898 C 500.5,217.79744 500.277,218 500,218 h -1 c -0.277,0 -0.5,-0.20256 -0.5,-0.45508 v -0.0898 C 498.5,217.20256 498.723,217 499,217 Z m -0.5,2 c 0.277,0 0.5,0.20256 0.5,0.45508 v 0.0898 C 500,219.79744 499.777,220 499.5,220 h -1 c -0.277,0 -0.5,-0.20256 -0.5,-0.45508 v -0.0898 C 498,219.20256 498.223,219 498.5,219 Z" fill="#000" transform="translate(8.0,8.0) translate(-504.0,-216.0)" /></svg>