<?xml version="1.0" encoding="utf-8" ?>
<svg baseProfile="full" height="16" version="1.1" width="16" xmlns="http://www.w3.org/2000/svg" xmlns:ev="http://www.w3.org/2001/xml-events" xmlns:xlink="http://www.w3.org/1999/xlink"><defs /><path d="m 355,211 -0.66602,2 H 359 v -2 z m 5,0 v 2 h 4.66602 L 364,211 Z m -6,3 -1,3 h 6 v -3 z m 6,0 v 3 h 6 l -1,-3 z m -2,4 v 1 h -3.50195 C 354.22193,219 354,219.223 354,219.5 c 0,0.277 0.22193,0.5 0.49805,0.5 H 364.5 c 0.27612,0 0.49805,-0.223 0.49805,-0.5 0,-0.277 -0.22193,-0.5 -0.49805,-0.5 H 361 v -1 z" fill="#000" transform="translate(8.0,8.0) translate(-360.0,-216.0)" /><path d="m 355,211 -0.66602,2 H 359 v -2 z m 5,0 v 2 h 4.66602 L 364,211 Z m -6,3 -1,3 h 6 v -3 z m 6,0 v 3 h 6 l -1,-3 z m -2,4 v 1 h -3.50195 C 354.22193,219 354,219.223 354,219.5 c 0,0.277 0.22193,0.5 0.49805,0.5 H 364.5 c 0.27612,0 0.49805,-0.223 0.49805,-0.5 0,-0.277 -0.22193,-0.5 -0.49805,-0.5 H 361 v -1 z" fill="#000" transform="translate(8.0,8.0) translate(-360.0,-216.0)" /></svg>