<?xml version="1.0" encoding="utf-8" ?>
<svg baseProfile="full" height="16" version="1.1" width="16" xmlns="http://www.w3.org/2000/svg" xmlns:ev="http://www.w3.org/2001/xml-events" xmlns:xlink="http://www.w3.org/1999/xlink"><defs /><path d="m 71.5,562 c -2.75,0 -5.5,1 -5.5,3 h 3 c 0,-2 5,-2 5,0 h 3 c 0,-2 -2.75,-3 -5.5,-3 z m -5.5,4 c 0,0.554 0.446,1 1,1 h 1 c 0.554,0 1,-0.446 1,-1 z m 8,0 c 0,0.554 0.446,1 1,1 h 1 c 0.554,0 1,-0.446 1,-1 z m -6.5,3 c -0.82251,0 -1.5,0.67749 -1.5,1.5 0,0.82251 0.67749,1.5 1.5,1.5 0.28206,0 0.5,0.21795 0.5,0.5 0,0.28205 -0.21794,0.5 -0.5,0.5 h -1 a 0.50005,0.50005 0 1 0 0,1 h 1 c 0.82251,0 1.5,-0.67749 1.5,-1.5 0,-0.82251 -0.67749,-1.5 -1.5,-1.5 -0.28205,0 -0.5,-0.21795 -0.5,-0.5 0,-0.28205 0.21795,-0.5 0.5,-0.5 h 1 a 0.50005,0.50005 0 1 0 0,-1 z m 4,0 c -0.82251,0 -1.5,0.67749 -1.5,1.5 v 2 c 0,0.82251 0.67749,1.5 1.5,1.5 0.68503,0 1.17533,-0.51422 1.35156,-1.14648 A 0.50005,0.50005 0 0 0 73,572.5 v -2 c 0,-0.82251 -0.67749,-1.5 -1.5,-1.5 z m 4,0 c -0.82251,0 -1.5,0.67749 -1.5,1.5 0,0.82251 0.67749,1.5 1.5,1.5 0.28206,0 0.5,0.21795 0.5,0.5 0,0.28205 -0.21794,0.5 -0.5,0.5 h -1 a 0.50005,0.50005 0 1 0 0,1 h 1 c 0.82251,0 1.5,-0.67749 1.5,-1.5 0,-0.82251 -0.67749,-1.5 -1.5,-1.5 -0.28205,0 -0.5,-0.21795 -0.5,-0.5 0,-0.28205 0.21795,-0.5 0.5,-0.5 h 1 a 0.50005,0.50005 0 1 0 0,-1 z m -4,1 c 0.28206,0 0.5,0.21795 0.5,0.5 v 2 c 0,0.28205 -0.21794,0.5 -0.5,0.5 -0.28205,0 -0.5,-0.21795 -0.5,-0.5 v -2 c 0,-0.28205 0.21795,-0.5 0.5,-0.5 z" fill="#000" transform="translate(8.0,8.0) translate(-72.0,-568.0)" /><path d="m 71.5,562 c -2.75,0 -5.5,1 -5.5,3 h 3 c 0,-2 5,-2 5,0 h 3 c 0,-2 -2.75,-3 -5.5,-3 z m -5.5,4 c 0,0.554 0.446,1 1,1 h 1 c 0.554,0 1,-0.446 1,-1 z m 8,0 c 0,0.554 0.446,1 1,1 h 1 c 0.554,0 1,-0.446 1,-1 z m -6.5,3 c -0.82251,0 -1.5,0.67749 -1.5,1.5 0,0.82251 0.67749,1.5 1.5,1.5 0.28206,0 0.5,0.21795 0.5,0.5 0,0.28205 -0.21794,0.5 -0.5,0.5 h -1 a 0.50005,0.50005 0 1 0 0,1 h 1 c 0.82251,0 1.5,-0.67749 1.5,-1.5 0,-0.82251 -0.67749,-1.5 -1.5,-1.5 -0.28205,0 -0.5,-0.21795 -0.5,-0.5 0,-0.28205 0.21795,-0.5 0.5,-0.5 h 1 a 0.50005,0.50005 0 1 0 0,-1 z m 4,0 c -0.82251,0 -1.5,0.67749 -1.5,1.5 v 2 c 0,0.82251 0.67749,1.5 1.5,1.5 0.68503,0 1.17533,-0.51422 1.35156,-1.14648 A 0.50005,0.50005 0 0 0 73,572.5 v -2 c 0,-0.82251 -0.67749,-1.5 -1.5,-1.5 z m 4,0 c -0.82251,0 -1.5,0.67749 -1.5,1.5 0,0.82251 0.67749,1.5 1.5,1.5 0.28206,0 0.5,0.21795 0.5,0.5 0,0.28205 -0.21794,0.5 -0.5,0.5 h -1 a 0.50005,0.50005 0 1 0 0,1 h 1 c 0.82251,0 1.5,-0.67749 1.5,-1.5 0,-0.82251 -0.67749,-1.5 -1.5,-1.5 -0.28205,0 -0.5,-0.21795 -0.5,-0.5 0,-0.28205 0.21795,-0.5 0.5,-0.5 h 1 a 0.50005,0.50005 0 1 0 0,-1 z m -4,1 c 0.28206,0 0.5,0.21795 0.5,0.5 v 2 c 0,0.28205 -0.21794,0.5 -0.5,0.5 -0.28205,0 -0.5,-0.21795 -0.5,-0.5 v -2 c 0,-0.28205 0.21795,-0.5 0.5,-0.5 z" fill="#000" transform="translate(8.0,8.0) translate(-72.0,-568.0)" /></svg>