<?xml version="1.0" encoding="utf-8" ?>
<svg baseProfile="full" height="16" version="1.1" width="16" xmlns="http://www.w3.org/2000/svg" xmlns:ev="http://www.w3.org/2001/xml-events" xmlns:xlink="http://www.w3.org/1999/xlink"><defs /><path d="M 677 372 C 675.34907 372 674 373.34907 674 375 L 674 375.5 A 0.50005 0.50005 0 1 0 675 375.5 L 675 375 C 675 373.88951 675.88951 373 677 373 C 678.11049 373 679 373.88951 679 375 L 679 375.28125 C 678.7041 375.10766 678.3655 375 678 375 C 676.90135 375 676 375.90135 676 377 L 676 377.5 A 0.50005 0.50005 0 1 0 677 377.5 L 677 377 C 677 376.44179 677.44179 376 678 376 C 678.55821 376 679 376.44179 679 377 L 679 379.5 A 0.50005 0.50005 0 1 0 680 379.5 L 680 377.03516 A 0.50005 0.50005 0 0 0 680 377 C 680 376.44179 680.44179 376 681 376 C 681.55821 376 682 376.44179 682 377 L 682 377.5 A 0.50005 0.50005 0 1 0 683 377.5 L 683 377 C 683 375.90135 682.09865 375 681 375 C 680.6345 375 680.2959 375.10766 680 375.28125 L 680 375.03516 A 0.50005 0.50005 0 0 0 680 375 C 680 373.88951 680.88951 373 682 373 C 683.11049 373 684 373.88951 684 375 L 684 375.5 A 0.50005 0.50005 0 1 0 685 375.5 L 685 375 C 685 373.34907 683.65093 372 682 372 C 680.95788 372 680.03818 372.53987 679.5 373.35156 C 678.96182 372.53987 678.04212 372 677 372 z " fill="#000" transform="translate(8.0,8.0) translate(-680.0,-376.0)" /><path d="M 677 372 C 675.34907 372 674 373.34907 674 375 L 674 375.5 A 0.50005 0.50005 0 1 0 675 375.5 L 675 375 C 675 373.88951 675.88951 373 677 373 C 678.11049 373 679 373.88951 679 375 L 679 375.28125 C 678.7041 375.10766 678.3655 375 678 375 C 676.90135 375 676 375.90135 676 377 L 676 377.5 A 0.50005 0.50005 0 1 0 677 377.5 L 677 377 C 677 376.44179 677.44179 376 678 376 C 678.55821 376 679 376.44179 679 377 L 679 379.5 A 0.50005 0.50005 0 1 0 680 379.5 L 680 377.03516 A 0.50005 0.50005 0 0 0 680 377 C 680 376.44179 680.44179 376 681 376 C 681.55821 376 682 376.44179 682 377 L 682 377.5 A 0.50005 0.50005 0 1 0 683 377.5 L 683 377 C 683 375.90135 682.09865 375 681 375 C 680.6345 375 680.2959 375.10766 680 375.28125 L 680 375.03516 A 0.50005 0.50005 0 0 0 680 375 C 680 373.88951 680.88951 373 682 373 C 683.11049 373 684 373.88951 684 375 L 684 375.5 A 0.50005 0.50005 0 1 0 685 375.5 L 685 375 C 685 373.34907 683.65093 372 682 372 C 680.95788 372 680.03818 372.53987 679.5 373.35156 C 678.96182 372.53987 678.04212 372 677 372 z " fill="#000" transform="translate(8.0,8.0) translate(-680.0,-376.0)" /></svg>