<?xml version="1.0" encoding="utf-8" ?>
<svg baseProfile="full" height="16" version="1.1" width="16" xmlns="http://www.w3.org/2000/svg" xmlns:ev="http://www.w3.org/2001/xml-events" xmlns:xlink="http://www.w3.org/1999/xlink"><defs /><path d="m 471.48242,369 a 0.50005,0.50005 0 0 0 -0.0332,0.002 0.50005,0.50005 0 0 0 -0.0449,0.008 0.50005,0.50005 0 0 0 -0.0449,0.0117 0.50005,0.50005 0 0 0 -0.006,0 0.50005,0.50005 0 0 0 -0.0449,0.0176 0.50005,0.50005 0 0 0 -0.0312,0.0137 0.50005,0.50005 0 0 0 -0.0215,0.01 l -3.95508,1.97852 a 0.50005,0.50005 0 0 0 -0.10742,0.0645 0.50005,0.50005 0 0 0 -0.0312,0.0254 0.50005,0.50005 0 0 0 -0.008,0.008 0.50005,0.50005 0 0 0 -0.0645,0.0762 0.50005,0.50005 0 0 0 -0.0215,0.0332 0.50005,0.50005 0 0 0 -0.0156,0.0293 0.50005,0.50005 0 0 0 -0.0137,0.0254 l -1.98633,3.97461 a 0.50005,0.50005 0 0 0 -0.008,0.0176 0.50005,0.50005 0 0 0 -0.008,0.0195 0.50005,0.50005 0 0 0 -0.006,0.0176 0.50005,0.50005 0 0 0 -0.0117,0.0312 0.50005,0.50005 0 0 0 -0.004,0.0176 0.50005,0.50005 0 0 0 -0.006,0.0332 0.50005,0.50005 0 0 0 -0.004,0.0156 0.50005,0.50005 0 0 0 -0.004,0.0332 0.50005,0.50005 0 0 0 0,0.0117 0.50005,0.50005 0 0 0 -0.002,0.0293 0.50005,0.50005 0 0 0 0.004,0.043 0.50005,0.50005 0 0 0 0.004,0.0371 0.50005,0.50005 0 0 0 0.004,0.0176 0.50005,0.50005 0 0 0 0.008,0.0312 0.50005,0.50005 0 0 0 0.008,0.0293 0.50005,0.50005 0 0 0 0.002,0.004 0.50005,0.50005 0 0 0 0.01,0.0254 0.50005,0.50005 0 0 0 0.0137,0.0312 0.50005,0.50005 0 0 0 0.008,0.0137 l 1.98047,3.96094 a 0.50005,0.50005 0 0 0 0.006,0.0156 l 0.006,0.01 a 0.50005,0.50005 0 0 0 0.0527,0.084 0.50005,0.50005 0 0 0 0.0332,0.0391 0.50005,0.50005 0 0 0 0.0762,0.0645 0.50005,0.50005 0 0 0 0.041,0.0254 0.50005,0.50005 0 0 0 0.0215,0.0117 0.50005,0.50005 0 0 0 0.0352,0.0176 l 3.96484,1.98243 a 0.50005,0.50005 0 0 0 0.0176,0.008 0.50005,0.50005 0 0 0 0.0195,0.008 0.50005,0.50005 0 0 0 0.0176,0.006 0.50005,0.50005 0 0 0 0.0312,0.0117 0.50005,0.50005 0 0 0 0.0176,0.004 0.50005,0.50005 0 0 0 0.0391,0.008 0.50005,0.50005 0 0 0 0.01,0.002 0.50005,0.50005 0 0 0 0.0449,0.004 0.50005,0.50005 0 0 0 0.0293,0.002 0.50005,0.50005 0 0 0 0.043,-0.004 0.50005,0.50005 0 0 0 0.0215,-0.002 0.50005,0.50005 0 0 0 0.0156,-0.002 0.50005,0.50005 0 0 0 0.0117,-0.002 0.50005,0.50005 0 0 0 0.006,-0.002 0.50005,0.50005 0 0 0 0.0312,-0.008 0.50005,0.50005 0 0 0 0.0117,-0.002 0.50005,0.50005 0 0 0 0.0215,-0.008 0.50005,0.50005 0 0 0 0.0254,-0.01 0.50005,0.50005 0 0 0 0.0312,-0.0137 l 0.0137,-0.008 3.96094,-1.98047 0.0156,-0.006 a 0.50005,0.50005 0 0 0 0.01,-0.006 0.50005,0.50005 0 0 0 0.084,-0.0527 0.50005,0.50005 0 0 0 0.0391,-0.0332 0.50005,0.50005 0 0 0 0.0645,-0.0762 0.50005,0.50005 0 0 0 0.0371,-0.0625 0.50005,0.50005 0 0 0 0.0176,-0.0352 l 1.98243,-3.96484 a 0.50005,0.50005 0 0 0 0.008,-0.0176 0.50005,0.50005 0 0 0 0.004,-0.008 0.50005,0.50005 0 0 0 0.008,-0.0195 0.50005,0.50005 0 0 0 0.01,-0.0273 0.50005,0.50005 0 0 0 0.006,-0.0215 0.50005,0.50005 0 0 0 0.006,-0.0254 0.50005,0.50005 0 0 0 0.004,-0.0234 0.50005,0.50005 0 0 0 0.004,-0.0274 0.50005,0.50005 0 0 0 0.002,-0.0215 0.50005,0.50005 0 0 0 0.002,-0.0273 0.50005,0.50005 0 0 0 0,-0.008 0.50005,0.50005 0 0 0 -0.004,-0.043 0.50005,0.50005 0 0 0 -0.002,-0.0215 0.50005,0.50005 0 0 0 -0.004,-0.0273 0.50005,0.50005 0 0 0 0,-0.004 0.50005,0.50005 0 0 0 -0.01,-0.0371 0.50005,0.50005 0 0 0 -0.002,-0.008 0.50005,0.50005 0 0 0 -0.008,-0.0215 0.50005,0.50005 0 0 0 -0.01,-0.0254 0.50005,0.50005 0 0 0 -0.0137,-0.0312 l -0.008,-0.0137 -1.98047,-3.96094 -0.006,-0.0156 a 0.50005,0.50005 0 0 0 -0.006,-0.01 0.50005,0.50005 0 0 0 -0.0527,-0.084 0.50005,0.50005 0 0 0 -0.0332,-0.0391 0.50005,0.50005 0 0 0 -0.0762,-0.0645 0.50005,0.50005 0 0 0 -0.041,-0.0254 0.50005,0.50005 0 0 0 -0.0215,-0.0117 0.50005,0.50005 0 0 0 -0.0352,-0.0176 l -3.9375,-1.96875 -0.006,-0.004 a 0.50005,0.50005 0 0 0 -0.0215,-0.01 0.50005,0.50005 0 0 0 -0.0449,-0.0195 0.50005,0.50005 0 0 0 -0.0449,-0.0156 0.50005,0.50005 0 0 0 -0.004,0 0.50005,0.50005 0 0 0 -0.0254,-0.006 0.50005,0.50005 0 0 0 -0.0488,-0.008 0.50005,0.50005 0 0 0 -0.0508,-0.004 0.50005,0.50005 0 0 0 -0.0215,0 z m 0.0176,1.61719 0.7793,1.55664 -0.7793,0.29297 -0.7793,-0.29297 z m -1.11914,0.002 -0.60156,1.20117 -1.0293,-0.38672 z m 2.23828,0 1.63086,0.81445 -1.0293,0.38672 z m -4.26367,1.73633 0.97461,0.36523 -0.20313,0.40625 -0.40625,0.20313 z m 6.28906,0 -0.36523,0.97461 -0.40625,-0.20313 -0.20313,-0.40625 z m -7.21094,0.39453 0.38672,1.0293 -1.20117,0.60156 z m 8.13282,0 0.81445,1.63086 -1.20117,-0.60156 z m -5.29493,0.32422 1.05274,0.39453 a 0.50005,0.50005 0 0 0 0.35156,0 l 1.05274,-0.39453 0.32421,0.64844 a 0.50005,0.50005 0 0 0 0.22461,0.22461 l 0.64844,0.32421 -0.39453,1.05274 a 0.50005,0.50005 0 0 0 0,0.35156 l 0.39453,1.05274 -0.64844,0.32421 a 0.50005,0.50005 0 0 0 -0.22461,0.22461 l -0.32421,0.64844 -1.05274,-0.39453 a 0.50005,0.50005 0 0 0 -0.35156,0 l -1.05274,0.39453 -0.32421,-0.64844 a 0.50005,0.50005 0 0 0 -0.22461,-0.22461 l -0.64844,-0.32421 0.39453,-1.05274 a 0.50005,0.50005 0 0 0 0,-0.35156 l -0.39453,-1.05274 0.64844,-0.32421 a 0.50005,0.50005 0 0 0 0.22461,-0.22461 z M 471.5,374 c -0.8225,0 -1.5,0.6775 -1.5,1.5 0,0.8225 0.6775,1.5 1.5,1.5 0.8225,0 1.5,-0.6775 1.5,-1.5 0,-0.8225 -0.6775,-1.5 -1.5,-1.5 z m -3.32617,0.7207 0.29297,0.7793 -0.29297,0.7793 -1.55664,-0.7793 z m 6.65234,0 1.55664,0.7793 -1.55664,0.7793 L 474.5332,375.5 Z M 471.5,375 c 0.28206,0 0.5,0.21794 0.5,0.5 0,0.28206 -0.21794,0.5 -0.5,0.5 -0.28206,0 -0.5,-0.21794 -0.5,-0.5 0,-0.28206 0.21794,-0.5 0.5,-0.5 z m -4.88086,1.61914 1.20117,0.60156 -0.38672,1.0293 z m 9.76172,0 -0.81445,1.63086 -0.38672,-1.0293 z m -7.66016,1.05078 0.40625,0.20313 0.20313,0.40625 -0.97461,0.36523 z m 5.5586,0 0.36523,0.97461 -0.97461,-0.36523 0.20313,-0.40625 z m -2.7793,0.86328 0.7793,0.29297 -0.7793,1.55664 -0.7793,-1.55664 z m -1.7207,0.64649 0.60156,1.20117 -1.63086,-0.81445 z m 3.4414,0 1.0293,0.38672 -1.63086,0.81445 z" fill="#000" transform="translate(8.0,8.0) translate(-472.0,-376.0)" /><path d="m 471.48242,369 a 0.50005,0.50005 0 0 0 -0.0332,0.002 0.50005,0.50005 0 0 0 -0.0449,0.008 0.50005,0.50005 0 0 0 -0.0449,0.0117 0.50005,0.50005 0 0 0 -0.006,0 0.50005,0.50005 0 0 0 -0.0449,0.0176 0.50005,0.50005 0 0 0 -0.0312,0.0137 0.50005,0.50005 0 0 0 -0.0215,0.01 l -3.95508,1.97852 a 0.50005,0.50005 0 0 0 -0.10742,0.0645 0.50005,0.50005 0 0 0 -0.0312,0.0254 0.50005,0.50005 0 0 0 -0.008,0.008 0.50005,0.50005 0 0 0 -0.0645,0.0762 0.50005,0.50005 0 0 0 -0.0215,0.0332 0.50005,0.50005 0 0 0 -0.0156,0.0293 0.50005,0.50005 0 0 0 -0.0137,0.0254 l -1.98633,3.97461 a 0.50005,0.50005 0 0 0 -0.008,0.0176 0.50005,0.50005 0 0 0 -0.008,0.0195 0.50005,0.50005 0 0 0 -0.006,0.0176 0.50005,0.50005 0 0 0 -0.0117,0.0312 0.50005,0.50005 0 0 0 -0.004,0.0176 0.50005,0.50005 0 0 0 -0.006,0.0332 0.50005,0.50005 0 0 0 -0.004,0.0156 0.50005,0.50005 0 0 0 -0.004,0.0332 0.50005,0.50005 0 0 0 0,0.0117 0.50005,0.50005 0 0 0 -0.002,0.0293 0.50005,0.50005 0 0 0 0.004,0.043 0.50005,0.50005 0 0 0 0.004,0.0371 0.50005,0.50005 0 0 0 0.004,0.0176 0.50005,0.50005 0 0 0 0.008,0.0312 0.50005,0.50005 0 0 0 0.008,0.0293 0.50005,0.50005 0 0 0 0.002,0.004 0.50005,0.50005 0 0 0 0.01,0.0254 0.50005,0.50005 0 0 0 0.0137,0.0312 0.50005,0.50005 0 0 0 0.008,0.0137 l 1.98047,3.96094 a 0.50005,0.50005 0 0 0 0.006,0.0156 l 0.006,0.01 a 0.50005,0.50005 0 0 0 0.0527,0.084 0.50005,0.50005 0 0 0 0.0332,0.0391 0.50005,0.50005 0 0 0 0.0762,0.0645 0.50005,0.50005 0 0 0 0.041,0.0254 0.50005,0.50005 0 0 0 0.0215,0.0117 0.50005,0.50005 0 0 0 0.0352,0.0176 l 3.96484,1.98243 a 0.50005,0.50005 0 0 0 0.0176,0.008 0.50005,0.50005 0 0 0 0.0195,0.008 0.50005,0.50005 0 0 0 0.0176,0.006 0.50005,0.50005 0 0 0 0.0312,0.0117 0.50005,0.50005 0 0 0 0.0176,0.004 0.50005,0.50005 0 0 0 0.0391,0.008 0.50005,0.50005 0 0 0 0.01,0.002 0.50005,0.50005 0 0 0 0.0449,0.004 0.50005,0.50005 0 0 0 0.0293,0.002 0.50005,0.50005 0 0 0 0.043,-0.004 0.50005,0.50005 0 0 0 0.0215,-0.002 0.50005,0.50005 0 0 0 0.0156,-0.002 0.50005,0.50005 0 0 0 0.0117,-0.002 0.50005,0.50005 0 0 0 0.006,-0.002 0.50005,0.50005 0 0 0 0.0312,-0.008 0.50005,0.50005 0 0 0 0.0117,-0.002 0.50005,0.50005 0 0 0 0.0215,-0.008 0.50005,0.50005 0 0 0 0.0254,-0.01 0.50005,0.50005 0 0 0 0.0312,-0.0137 l 0.0137,-0.008 3.96094,-1.98047 0.0156,-0.006 a 0.50005,0.50005 0 0 0 0.01,-0.006 0.50005,0.50005 0 0 0 0.084,-0.0527 0.50005,0.50005 0 0 0 0.0391,-0.0332 0.50005,0.50005 0 0 0 0.0645,-0.0762 0.50005,0.50005 0 0 0 0.0371,-0.0625 0.50005,0.50005 0 0 0 0.0176,-0.0352 l 1.98243,-3.96484 a 0.50005,0.50005 0 0 0 0.008,-0.0176 0.50005,0.50005 0 0 0 0.004,-0.008 0.50005,0.50005 0 0 0 0.008,-0.0195 0.50005,0.50005 0 0 0 0.01,-0.0273 0.50005,0.50005 0 0 0 0.006,-0.0215 0.50005,0.50005 0 0 0 0.006,-0.0254 0.50005,0.50005 0 0 0 0.004,-0.0234 0.50005,0.50005 0 0 0 0.004,-0.0274 0.50005,0.50005 0 0 0 0.002,-0.0215 0.50005,0.50005 0 0 0 0.002,-0.0273 0.50005,0.50005 0 0 0 0,-0.008 0.50005,0.50005 0 0 0 -0.004,-0.043 0.50005,0.50005 0 0 0 -0.002,-0.0215 0.50005,0.50005 0 0 0 -0.004,-0.0273 0.50005,0.50005 0 0 0 0,-0.004 0.50005,0.50005 0 0 0 -0.01,-0.0371 0.50005,0.50005 0 0 0 -0.002,-0.008 0.50005,0.50005 0 0 0 -0.008,-0.0215 0.50005,0.50005 0 0 0 -0.01,-0.0254 0.50005,0.50005 0 0 0 -0.0137,-0.0312 l -0.008,-0.0137 -1.98047,-3.96094 -0.006,-0.0156 a 0.50005,0.50005 0 0 0 -0.006,-0.01 0.50005,0.50005 0 0 0 -0.0527,-0.084 0.50005,0.50005 0 0 0 -0.0332,-0.0391 0.50005,0.50005 0 0 0 -0.0762,-0.0645 0.50005,0.50005 0 0 0 -0.041,-0.0254 0.50005,0.50005 0 0 0 -0.0215,-0.0117 0.50005,0.50005 0 0 0 -0.0352,-0.0176 l -3.9375,-1.96875 -0.006,-0.004 a 0.50005,0.50005 0 0 0 -0.0215,-0.01 0.50005,0.50005 0 0 0 -0.0449,-0.0195 0.50005,0.50005 0 0 0 -0.0449,-0.0156 0.50005,0.50005 0 0 0 -0.004,0 0.50005,0.50005 0 0 0 -0.0254,-0.006 0.50005,0.50005 0 0 0 -0.0488,-0.008 0.50005,0.50005 0 0 0 -0.0508,-0.004 0.50005,0.50005 0 0 0 -0.0215,0 z m 0.0176,1.61719 0.7793,1.55664 -0.7793,0.29297 -0.7793,-0.29297 z m -1.11914,0.002 -0.60156,1.20117 -1.0293,-0.38672 z m 2.23828,0 1.63086,0.81445 -1.0293,0.38672 z m -4.26367,1.73633 0.97461,0.36523 -0.20313,0.40625 -0.40625,0.20313 z m 6.28906,0 -0.36523,0.97461 -0.40625,-0.20313 -0.20313,-0.40625 z m -7.21094,0.39453 0.38672,1.0293 -1.20117,0.60156 z m 8.13282,0 0.81445,1.63086 -1.20117,-0.60156 z m -5.29493,0.32422 1.05274,0.39453 a 0.50005,0.50005 0 0 0 0.35156,0 l 1.05274,-0.39453 0.32421,0.64844 a 0.50005,0.50005 0 0 0 0.22461,0.22461 l 0.64844,0.32421 -0.39453,1.05274 a 0.50005,0.50005 0 0 0 0,0.35156 l 0.39453,1.05274 -0.64844,0.32421 a 0.50005,0.50005 0 0 0 -0.22461,0.22461 l -0.32421,0.64844 -1.05274,-0.39453 a 0.50005,0.50005 0 0 0 -0.35156,0 l -1.05274,0.39453 -0.32421,-0.64844 a 0.50005,0.50005 0 0 0 -0.22461,-0.22461 l -0.64844,-0.32421 0.39453,-1.05274 a 0.50005,0.50005 0 0 0 0,-0.35156 l -0.39453,-1.05274 0.64844,-0.32421 a 0.50005,0.50005 0 0 0 0.22461,-0.22461 z M 471.5,374 c -0.8225,0 -1.5,0.6775 -1.5,1.5 0,0.8225 0.6775,1.5 1.5,1.5 0.8225,0 1.5,-0.6775 1.5,-1.5 0,-0.8225 -0.6775,-1.5 -1.5,-1.5 z m -3.32617,0.7207 0.29297,0.7793 -0.29297,0.7793 -1.55664,-0.7793 z m 6.65234,0 1.55664,0.7793 -1.55664,0.7793 L 474.5332,375.5 Z M 471.5,375 c 0.28206,0 0.5,0.21794 0.5,0.5 0,0.28206 -0.21794,0.5 -0.5,0.5 -0.28206,0 -0.5,-0.21794 -0.5,-0.5 0,-0.28206 0.21794,-0.5 0.5,-0.5 z m -4.88086,1.61914 1.20117,0.60156 -0.38672,1.0293 z m 9.76172,0 -0.81445,1.63086 -0.38672,-1.0293 z m -7.66016,1.05078 0.40625,0.20313 0.20313,0.40625 -0.97461,0.36523 z m 5.5586,0 0.36523,0.97461 -0.97461,-0.36523 0.20313,-0.40625 z m -2.7793,0.86328 0.7793,0.29297 -0.7793,1.55664 -0.7793,-1.55664 z m -1.7207,0.64649 0.60156,1.20117 -1.63086,-0.81445 z m 3.4414,0 1.0293,0.38672 -1.63086,0.81445 z" fill="#000" transform="translate(8.0,8.0) translate(-472.0,-376.0)" /></svg>