<?xml version="1.0" encoding="utf-8" ?>
<svg baseProfile="full" height="16" version="1.1" width="16" xmlns="http://www.w3.org/2000/svg" xmlns:ev="http://www.w3.org/2001/xml-events" xmlns:xlink="http://www.w3.org/1999/xlink"><defs /><path d="m 21.5,402 c -0.277,0 -0.5,0.223 -0.5,0.5 v 9 c 0,0.277 0.223,0.5 0.5,0.5 H 23 v -1.5 c -0.004,-0.73592 0.61183,-1.42329 1.34375,-1.5 0.052,-0.003 0.10421,-0.003 0.15625,0 h 2 0.5 v -6.5 c 0,-0.277 -0.223,-0.5 -0.5,-0.5 z m 1,4 h 2 c 0.277,0 0.5,0.223 0.5,0.5 0,0.277 -0.223,0.5 -0.5,0.5 H 23 v 0.5 c 0,0.277 -0.223,0.5 -0.5,0.5 -0.277,0 -0.5,-0.223 -0.5,-0.5 v -1 c 0,-0.277 0.223,-0.5 0.5,-0.5 z m 1.84375,4 c -0.20652,0.0677 -0.35453,0.28294 -0.34375,0.5 v 2.5 h -2.5 c -0.26416,-0.004 -0.507813,0.23582 -0.507812,0.5 0,0.26418 0.243652,0.50374 0.507812,0.5 h 3 c 0.26179,-3e-5 0.49997,-0.23821 0.5,-0.5 V 411 h 2.5 c 0.26416,0.004 0.507813,-0.23582 0.507812,-0.5 0,-0.26418 -0.243652,-0.50374 -0.507812,-0.5 h -3 c -0.0312,-0.003 -0.06265,-0.003 -0.09375,0 -0.0208,-10e-4 -0.0417,-10e-4 -0.0625,0 z" fill="#000" transform="translate(8.0,8.0) translate(-24.0,-408.0)" /><path d="m 21.5,402 c -0.277,0 -0.5,0.223 -0.5,0.5 v 9 c 0,0.277 0.223,0.5 0.5,0.5 H 23 v -1.5 c -0.004,-0.73592 0.61183,-1.42329 1.34375,-1.5 0.052,-0.003 0.10421,-0.003 0.15625,0 h 2 0.5 v -6.5 c 0,-0.277 -0.223,-0.5 -0.5,-0.5 z m 1,4 h 2 c 0.277,0 0.5,0.223 0.5,0.5 0,0.277 -0.223,0.5 -0.5,0.5 H 23 v 0.5 c 0,0.277 -0.223,0.5 -0.5,0.5 -0.277,0 -0.5,-0.223 -0.5,-0.5 v -1 c 0,-0.277 0.223,-0.5 0.5,-0.5 z m 1.84375,4 c -0.20652,0.0677 -0.35453,0.28294 -0.34375,0.5 v 2.5 h -2.5 c -0.26416,-0.004 -0.507813,0.23582 -0.507812,0.5 0,0.26418 0.243652,0.50374 0.507812,0.5 h 3 c 0.26179,-3e-5 0.49997,-0.23821 0.5,-0.5 V 411 h 2.5 c 0.26416,0.004 0.507813,-0.23582 0.507812,-0.5 0,-0.26418 -0.243652,-0.50374 -0.507812,-0.5 h -3 c -0.0312,-0.003 -0.06265,-0.003 -0.09375,0 -0.0208,-10e-4 -0.0417,-10e-4 -0.0625,0 z" fill="#000" transform="translate(8.0,8.0) translate(-24.0,-408.0)" /></svg>