<?xml version="1.0" encoding="utf-8" ?>
<svg baseProfile="full" height="16" version="1.1" width="16" xmlns="http://www.w3.org/2000/svg" xmlns:ev="http://www.w3.org/2001/xml-events" xmlns:xlink="http://www.w3.org/1999/xlink"><defs /><path d="m 632,82.35938 -1.58398,2.77343 h -3.27735 l 0.42774,0.74805 1.21093,2.11914 -1.63867,2.86719 H 628 630.41602 L 632,93.64062 l 1.58398,-2.77343 h 3.27735 L 635.22266,88 l 1.63867,-2.86719 h -3.27735 z m 0,2.01562 0.43359,0.75781 h -0.86718 z m -3.13867,1.75781 h 0.98242 l -0.49023,0.85938 z m 2.13476,0 h 2.00782 L 634.07227,88 l -1.06836,1.86719 h -2.00782 L 629.92773,88 Z m 3.16016,0 h 0.98242 l -0.49219,0.85938 z m -4.80273,2.875 0.49023,0.85938 h -0.98242 z m 5.29296,0 0.49219,0.85938 h -0.98242 z m -3.08007,1.85938 h 0.86718 L 632,91.625 Z" fill="#000" transform="translate(8.0,8.0) translate(-632.0,-88.0)" /><path d="m 632,82.35938 -1.58398,2.77343 h -3.27735 l 0.42774,0.74805 1.21093,2.11914 -1.63867,2.86719 H 628 630.41602 L 632,93.64062 l 1.58398,-2.77343 h 3.27735 L 635.22266,88 l 1.63867,-2.86719 h -3.27735 z m 0,2.01562 0.43359,0.75781 h -0.86718 z m -3.13867,1.75781 h 0.98242 l -0.49023,0.85938 z m 2.13476,0 h 2.00782 L 634.07227,88 l -1.06836,1.86719 h -2.00782 L 629.92773,88 Z m 3.16016,0 h 0.98242 l -0.49219,0.85938 z m -4.80273,2.875 0.49023,0.85938 h -0.98242 z m 5.29296,0 0.49219,0.85938 h -0.98242 z m -3.08007,1.85938 h 0.86718 L 632,91.625 Z" fill="#000" transform="translate(8.0,8.0) translate(-632.0,-88.0)" /></svg>