<?xml version="1.0" encoding="utf-8" ?>
<svg baseProfile="full" height="16" version="1.1" width="16" xmlns="http://www.w3.org/2000/svg" xmlns:ev="http://www.w3.org/2001/xml-events" xmlns:xlink="http://www.w3.org/1999/xlink"><defs /><path d="m 199.5,593 c -0.277,0 -0.5,0.223 -0.5,0.5 v 1 c 0,0.277 0.223,0.5 0.5,0.5 h 1 c 0.277,0 0.5,-0.223 0.5,-0.5 v -1 c 0,-0.277 -0.223,-0.5 -0.5,-0.5 z m -1,3 c -0.277,0 -0.5,0.223 -0.5,0.5 v 2 c 0,0.277 0.223,0.5 0.5,0.5 h 0.5 v 4.5 c 0,0.277 0.223,0.5 0.5,0.5 h 1 c 0.277,0 0.5,-0.223 0.5,-0.5 V 599 h 0.5 c 0.277,0 0.5,-0.223 0.5,-0.5 v -2 c 0,-0.277 -0.223,-0.5 -0.5,-0.5 z m -2.5,9 -1,1 v 1 h 10 v -1 l -1,-1 z" fill="#000" transform="translate(8.0,8.0) translate(-200.0,-600.0)" /><path d="m 199.5,593 c -0.277,0 -0.5,0.223 -0.5,0.5 v 1 c 0,0.277 0.223,0.5 0.5,0.5 h 1 c 0.277,0 0.5,-0.223 0.5,-0.5 v -1 c 0,-0.277 -0.223,-0.5 -0.5,-0.5 z m -1,3 c -0.277,0 -0.5,0.223 -0.5,0.5 v 2 c 0,0.277 0.223,0.5 0.5,0.5 h 0.5 v 4.5 c 0,0.277 0.223,0.5 0.5,0.5 h 1 c 0.277,0 0.5,-0.223 0.5,-0.5 V 599 h 0.5 c 0.277,0 0.5,-0.223 0.5,-0.5 v -2 c 0,-0.277 -0.223,-0.5 -0.5,-0.5 z m -2.5,9 -1,1 v 1 h 10 v -1 l -1,-1 z" fill="#000" transform="translate(8.0,8.0) translate(-200.0,-600.0)" /></svg>