<?xml version="1.0" encoding="utf-8" ?>
<svg baseProfile="full" height="16" version="1.1" width="16" xmlns="http://www.w3.org/2000/svg" xmlns:ev="http://www.w3.org/2001/xml-events" xmlns:xlink="http://www.w3.org/1999/xlink"><defs /><path d="M 263.5 593 C 263.223 593 263 593.223 263 593.5 L 263 594.5 C 263 594.777 263.223 595 263.5 595 L 264.5 595 C 264.777 595 265 594.777 265 594.5 L 265 593.5 C 265 593.223 264.777 593 264.5 593 L 263.5 593 z M 262.5 596 C 262.223 596 262 596.223 262 596.5 L 262 598.5 C 262 598.777 262.223 599 262.5 599 L 263 599 L 263 603.5 C 263 603.777 263.223 604 263.5 604 L 264.5 604 C 264.777 604 265 603.777 265 603.5 L 265 599 L 265.5 599 C 265.777 599 266 598.777 266 598.5 L 266 596.5 C 266 596.223 265.777 596 265.5 596 L 262.5 596 z M 261.5 605 C 261.223 605 261 605.20598 261 605.46094 L 261 605.53906 C 261 605.79402 261.223 606 261.5 606 L 262 606 L 262 606.5 L 262 607 L 266 607 L 266 606.5 L 266 606 L 266.5 606 C 266.777 606 267 605.79402 267 605.53906 L 267 605.46094 C 267 605.20598 266.777 605 266.5 605 L 261.5 605 z " fill="#000" transform="translate(8.0,8.0) translate(-264.0,-600.0)" /><path d="M 263.5 593 C 263.223 593 263 593.223 263 593.5 L 263 594.5 C 263 594.777 263.223 595 263.5 595 L 264.5 595 C 264.777 595 265 594.777 265 594.5 L 265 593.5 C 265 593.223 264.777 593 264.5 593 L 263.5 593 z M 262.5 596 C 262.223 596 262 596.223 262 596.5 L 262 598.5 C 262 598.777 262.223 599 262.5 599 L 263 599 L 263 603.5 C 263 603.777 263.223 604 263.5 604 L 264.5 604 C 264.777 604 265 603.777 265 603.5 L 265 599 L 265.5 599 C 265.777 599 266 598.777 266 598.5 L 266 596.5 C 266 596.223 265.777 596 265.5 596 L 262.5 596 z M 261.5 605 C 261.223 605 261 605.20598 261 605.46094 L 261 605.53906 C 261 605.79402 261.223 606 261.5 606 L 262 606 L 262 606.5 L 262 607 L 266 607 L 266 606.5 L 266 606 L 266.5 606 C 266.777 606 267 605.79402 267 605.53906 L 267 605.46094 C 267 605.20598 266.777 605 266.5 605 L 261.5 605 z " fill="#000" transform="translate(8.0,8.0) translate(-264.0,-600.0)" /></svg>