<?xml version="1.0" encoding="utf-8" ?>
<svg baseProfile="full" height="16" version="1.1" width="16" xmlns="http://www.w3.org/2000/svg" xmlns:ev="http://www.w3.org/2001/xml-events" xmlns:xlink="http://www.w3.org/1999/xlink"><defs /><path d="m 394.5,83 c -0.277,0 -0.5,0.223 -0.5,0.5 v 3 0.5 c 0,1 1,1 1,2 v 3.5 c 0,0.277 0.223,0.5 0.5,0.5 0.277,0 0.5,-0.223 0.5,-0.5 V 89 c 0,-1 1,-1 1,-2 v -1 -2.5 c 0,-0.277 -0.223,-0.5 -0.5,-0.5 -0.277,0 -0.5,0.223 -0.5,0.5 V 86 c 0,0.276142 -0.22386,0.5 -0.5,0.5 -0.27614,0 -0.5,-0.223858 -0.5,-0.5 v -2.5 c 0,-0.277 -0.223,-0.5 -0.5,-0.5 z m -5.45703,0 c -0.81047,-0.01141 -1.59106,0.305622 -2.16406,0.878906 -0.56192,0.562835 -0.87736,1.32577 -0.87696,2.121094 h -0.002 v 2 2 c 0,1.108 0.892,2 2,2 1.108,0 2,-0.892 2,-2 0,-0.687709 0.61964,-1.377457 1.12109,-1.878906 1.17127,-1.171521 1.17127,-3.070667 0,-4.242188 C 390.56915,83.326678 389.82365,83.011385 389.04297,83 Z M 389,85 c 0.55228,0 1,0.447715 1,1 0,0.552285 -0.44772,1 -1,1 -0.55228,0 -1,-0.447715 -1,-1 0,-0.552285 0.44772,-1 1,-1 z" fill="#000" transform="translate(8.0,8.0) translate(-392.0,-88.0)" /><path d="m 394.5,83 c -0.277,0 -0.5,0.223 -0.5,0.5 v 3 0.5 c 0,1 1,1 1,2 v 3.5 c 0,0.277 0.223,0.5 0.5,0.5 0.277,0 0.5,-0.223 0.5,-0.5 V 89 c 0,-1 1,-1 1,-2 v -1 -2.5 c 0,-0.277 -0.223,-0.5 -0.5,-0.5 -0.277,0 -0.5,0.223 -0.5,0.5 V 86 c 0,0.276142 -0.22386,0.5 -0.5,0.5 -0.27614,0 -0.5,-0.223858 -0.5,-0.5 v -2.5 c 0,-0.277 -0.223,-0.5 -0.5,-0.5 z m -5.45703,0 c -0.81047,-0.01141 -1.59106,0.305622 -2.16406,0.878906 -0.56192,0.562835 -0.87736,1.32577 -0.87696,2.121094 h -0.002 v 2 2 c 0,1.108 0.892,2 2,2 1.108,0 2,-0.892 2,-2 0,-0.687709 0.61964,-1.377457 1.12109,-1.878906 1.17127,-1.171521 1.17127,-3.070667 0,-4.242188 C 390.56915,83.326678 389.82365,83.011385 389.04297,83 Z M 389,85 c 0.55228,0 1,0.447715 1,1 0,0.552285 -0.44772,1 -1,1 -0.55228,0 -1,-0.447715 -1,-1 0,-0.552285 0.44772,-1 1,-1 z" fill="#000" transform="translate(8.0,8.0) translate(-392.0,-88.0)" /></svg>