<?xml version="1.0" encoding="utf-8" ?>
<svg baseProfile="full" height="16" version="1.1" width="16" xmlns="http://www.w3.org/2000/svg" xmlns:ev="http://www.w3.org/2001/xml-events" xmlns:xlink="http://www.w3.org/1999/xlink"><defs /><path d="m 231.5,23 c -0.16717,1.2e-5 -0.32328,0.08356 -0.41602,0.222656 -0.9431,1.414662 -2.92743,3.408953 -4.88476,4.876953 C 225.81381,28.388057 226.01861,29.00111 226.5,29 h 11 c 0.48139,0.0011 0.68619,-0.611943 0.30078,-0.900391 -1.95733,-1.468 -3.94166,-3.462291 -4.88476,-4.876953 C 232.82328,23.083563 232.66717,23.000012 232.5,23 Z" fill="#000" transform="translate(8.0,8.0) translate(-232.0,-24.0)" /><path d="m 231.5,23 c -0.16717,1.2e-5 -0.32328,0.08356 -0.41602,0.222656 -0.9431,1.414662 -2.92743,3.408953 -4.88476,4.876953 C 225.81381,28.388057 226.01861,29.00111 226.5,29 h 11 c 0.48139,0.0011 0.68619,-0.611943 0.30078,-0.900391 -1.95733,-1.468 -3.94166,-3.462291 -4.88476,-4.876953 C 232.82328,23.083563 232.66717,23.000012 232.5,23 Z" fill="#000" transform="translate(8.0,8.0) translate(-232.0,-24.0)" /></svg>