<?xml version="1.0" encoding="utf-8" ?>
<svg baseProfile="full" height="16" version="1.1" width="16" xmlns="http://www.w3.org/2000/svg" xmlns:ev="http://www.w3.org/2001/xml-events" xmlns:xlink="http://www.w3.org/1999/xlink"><defs /><path d="m 231.5,23 c -0.16717,1.2e-5 -0.32328,0.08356 -0.41602,0.222656 -0.9431,1.414662 -2.92743,3.408953 -4.88476,4.876953 C 225.81381,28.388057 226.01861,29.00111 226.5,29 h 11 c 0.48139,0.0011 0.68619,-0.611943 0.30078,-0.900391 -1.95733,-1.468 -3.94166,-3.462291 -4.88476,-4.876953 C 232.82328,23.083563 232.66717,23.000012 232.5,23 Z" fill="#000" transform="translate(8.0,8.0) translate(-232.0,-24.0)" /><path d="m 310,53.5 c -1.60782,0 -2.92818,1.279318 -2.99609,2.871094 C 307.00174,56.413542 307,56.457038 307,56.5 a 0.5,0.5 0 0 0 0.0234,0.144531 0.5,0.5 0 0 0 0.0137,0.0332 0.5,0.5 0 0 0 0.0508,0.09961 0.5,0.5 0 0 0 0.0254,0.0332 0.5,0.5 0 0 0 0.0762,0.07617 0.5,0.5 0 0 0 0.0332,0.02539 0.5,0.5 0 0 0 0.0996,0.05078 0.5,0.5 0 0 0 0.0332,0.01367 A 0.5,0.5 0 0 0 307.5,57 a 0.5,0.5 0 0 0 0.14453,-0.02344 0.5,0.5 0 0 0 0.0332,-0.01367 0.5,0.5 0 0 0 0.0996,-0.05078 0.5,0.5 0 0 0 0.0332,-0.02539 0.5,0.5 0 0 0 0.0762,-0.07617 0.5,0.5 0 0 0 0.0254,-0.0332 0.5,0.5 0 0 0 0.0508,-0.09961 0.5,0.5 0 0 0 0.0137,-0.0332 A 0.5,0.5 0 0 0 308,56.5 c 0,-0.02619 9.7e-4,-0.05219 0.002,-0.07813 C 308.04179,55.624284 308.69172,55 309.5,55 c 0.83435,0 1.5,0.665651 1.5,1.5 a 0.5,0.5 0 0 0 0.0156,0.121094 0.5,0.5 0 0 0 0.004,0.01563 0.5,0.5 0 0 0 0.0742,0.152343 0.5,0.5 0 0 0 0.006,0.0078 0.5,0.5 0 0 0 0.041,0.04883 0.5,0.5 0 0 0 0.0137,0.01367 0.5,0.5 0 0 0 0.0488,0.04102 0.5,0.5 0 0 0 0.008,0.0059 0.5,0.5 0 0 0 0.15234,0.07422 0.5,0.5 0 0 0 0.0156,0.0039 A 0.5,0.5 0 0 0 311.5,57 h 1 a 0.5,0.5 0 0 0 0.13672,-0.01953 0.5,0.5 0 0 0 0.008,-0.0039 A 0.5,0.5 0 0 0 313,56.5 c 0,-0.834349 0.66565,-1.5 1.5,-1.5 0.83435,0 1.5,0.665651 1.5,1.5 v 1 a 0.5,0.5 0 0 0 0.5,0.5 0.5,0.5 0 0 0 0.5,-0.5 v -1 a 0.5,0.5 0 0 0 -0.002,-0.03125 c -4.1e-4,-0.03245 -3.1e-4,-0.06551 -0.002,-0.09766 C 316.92818,54.779318 315.60782,53.5 314,53.5 c -0.76644,0 -1.46846,0.290843 -2,0.767578 C 311.46846,53.790843 310.76644,53.5 310,53.5 Z m 8.5,3.5 a 0.5,0.5 0 0 0 -0.5,0.5 0.5,0.5 0 0 0 0.5,0.5 0.5,0.5 0 0 0 0.5,-0.5 0.5,0.5 0 0 0 -0.5,-0.5 z m -10,1 a 0.5,0.5 0 0 0 -0.5,0.5 0.5,0.5 0 0 0 0.5,0.5 0.5,0.5 0 0 0 0.5,-0.5 0.5,0.5 0 0 0 -0.5,-0.5 z m -2,1 a 0.5,0.5 0 0 0 -0.5,0.5 0.5,0.5 0 0 0 0.5,0.5 0.5,0.5 0 0 0 0.5,-0.5 0.5,0.5 0 0 0 -0.5,-0.5 z m 11,0 a 0.5,0.5 0 0 0 -0.5,0.5 0.5,0.5 0 0 0 0.5,0.5 0.5,0.5 0 0 0 0.5,-0.5 0.5,0.5 0 0 0 -0.5,-0.5 z" fill="#000" transform="translate(8.0,5.0) translate(-312.0,-56.0)" /><path d="m 231.5,23 c -0.16717,1.2e-5 -0.32328,0.08356 -0.41602,0.222656 -0.9431,1.414662 -2.92743,3.408953 -4.88476,4.876953 C 225.81381,28.388057 226.01861,29.00111 226.5,29 h 11 c 0.48139,0.0011 0.68619,-0.611943 0.30078,-0.900391 -1.95733,-1.468 -3.94166,-3.462291 -4.88476,-4.876953 C 232.82328,23.083563 232.66717,23.000012 232.5,23 Z" fill="#000" transform="translate(8.0,8.0) translate(-232.0,-24.0)" /><path d="m 310,53.5 c -1.60782,0 -2.92818,1.279318 -2.99609,2.871094 C 307.00174,56.413542 307,56.457038 307,56.5 a 0.5,0.5 0 0 0 0.0234,0.144531 0.5,0.5 0 0 0 0.0137,0.0332 0.5,0.5 0 0 0 0.0508,0.09961 0.5,0.5 0 0 0 0.0254,0.0332 0.5,0.5 0 0 0 0.0762,0.07617 0.5,0.5 0 0 0 0.0332,0.02539 0.5,0.5 0 0 0 0.0996,0.05078 0.5,0.5 0 0 0 0.0332,0.01367 A 0.5,0.5 0 0 0 307.5,57 a 0.5,0.5 0 0 0 0.14453,-0.02344 0.5,0.5 0 0 0 0.0332,-0.01367 0.5,0.5 0 0 0 0.0996,-0.05078 0.5,0.5 0 0 0 0.0332,-0.02539 0.5,0.5 0 0 0 0.0762,-0.07617 0.5,0.5 0 0 0 0.0254,-0.0332 0.5,0.5 0 0 0 0.0508,-0.09961 0.5,0.5 0 0 0 0.0137,-0.0332 A 0.5,0.5 0 0 0 308,56.5 c 0,-0.02619 9.7e-4,-0.05219 0.002,-0.07813 C 308.04179,55.624284 308.69172,55 309.5,55 c 0.83435,0 1.5,0.665651 1.5,1.5 a 0.5,0.5 0 0 0 0.0156,0.121094 0.5,0.5 0 0 0 0.004,0.01563 0.5,0.5 0 0 0 0.0742,0.152343 0.5,0.5 0 0 0 0.006,0.0078 0.5,0.5 0 0 0 0.041,0.04883 0.5,0.5 0 0 0 0.0137,0.01367 0.5,0.5 0 0 0 0.0488,0.04102 0.5,0.5 0 0 0 0.008,0.0059 0.5,0.5 0 0 0 0.15234,0.07422 0.5,0.5 0 0 0 0.0156,0.0039 A 0.5,0.5 0 0 0 311.5,57 h 1 a 0.5,0.5 0 0 0 0.13672,-0.01953 0.5,0.5 0 0 0 0.008,-0.0039 A 0.5,0.5 0 0 0 313,56.5 c 0,-0.834349 0.66565,-1.5 1.5,-1.5 0.83435,0 1.5,0.665651 1.5,1.5 v 1 a 0.5,0.5 0 0 0 0.5,0.5 0.5,0.5 0 0 0 0.5,-0.5 v -1 a 0.5,0.5 0 0 0 -0.002,-0.03125 c -4.1e-4,-0.03245 -3.1e-4,-0.06551 -0.002,-0.09766 C 316.92818,54.779318 315.60782,53.5 314,53.5 c -0.76644,0 -1.46846,0.290843 -2,0.767578 C 311.46846,53.790843 310.76644,53.5 310,53.5 Z m 8.5,3.5 a 0.5,0.5 0 0 0 -0.5,0.5 0.5,0.5 0 0 0 0.5,0.5 0.5,0.5 0 0 0 0.5,-0.5 0.5,0.5 0 0 0 -0.5,-0.5 z m -10,1 a 0.5,0.5 0 0 0 -0.5,0.5 0.5,0.5 0 0 0 0.5,0.5 0.5,0.5 0 0 0 0.5,-0.5 0.5,0.5 0 0 0 -0.5,-0.5 z m -2,1 a 0.5,0.5 0 0 0 -0.5,0.5 0.5,0.5 0 0 0 0.5,0.5 0.5,0.5 0 0 0 0.5,-0.5 0.5,0.5 0 0 0 -0.5,-0.5 z m 11,0 a 0.5,0.5 0 0 0 -0.5,0.5 0.5,0.5 0 0 0 0.5,0.5 0.5,0.5 0 0 0 0.5,-0.5 0.5,0.5 0 0 0 -0.5,-0.5 z" fill="#000" transform="translate(8.0,5.0) translate(-312.0,-56.0)" /></svg>