<?xml version="1.0" encoding="utf-8" ?>
<svg baseProfile="full" height="16" version="1.1" width="16" xmlns="http://www.w3.org/2000/svg" xmlns:ev="http://www.w3.org/2001/xml-events" xmlns:xlink="http://www.w3.org/1999/xlink"><defs /><path d="m 86.40625,369 c -0.0682,0.0176 -0.13253,0.0498 -0.1875,0.0937 l -3,2 C 82.88033,371.33654 83.08358,371.99147 83.5,372 h 1.125 l 1.40625,4.65625 c 0.0646,0.19641 0.262,0.34116 0.46875,0.34375 H 87 v 5.5 c 0,0.277 0.223,0.5 0.5,0.5 h 1 c 0.277,0 0.5,-0.223 0.5,-0.5 V 377 h 0.5 c 0.20675,-0.003 0.40414,-0.14734 0.46875,-0.34375 L 91.375,372 H 92.5 c 0.41642,-0.008 0.61967,-0.66346 0.28125,-0.90625 l -3,-2 c -0.0815,-0.0585 -0.18094,-0.0917 -0.28125,-0.0937 h -3 c -0.0312,-0.003 -0.0626,-0.003 -0.0937,0 z m -0.75,3 h 4.6875 l -1.21875,4 h -0.625 -1 -0.625 z" fill="#000" transform="translate(8.0,8.0) translate(-88.0,-376.0)" /><path d="m 86.40625,369 c -0.0682,0.0176 -0.13253,0.0498 -0.1875,0.0937 l -3,2 C 82.88033,371.33654 83.08358,371.99147 83.5,372 h 1.125 l 1.40625,4.65625 c 0.0646,0.19641 0.262,0.34116 0.46875,0.34375 H 87 v 5.5 c 0,0.277 0.223,0.5 0.5,0.5 h 1 c 0.277,0 0.5,-0.223 0.5,-0.5 V 377 h 0.5 c 0.20675,-0.003 0.40414,-0.14734 0.46875,-0.34375 L 91.375,372 H 92.5 c 0.41642,-0.008 0.61967,-0.66346 0.28125,-0.90625 l -3,-2 c -0.0815,-0.0585 -0.18094,-0.0917 -0.28125,-0.0937 h -3 c -0.0312,-0.003 -0.0626,-0.003 -0.0937,0 z m -0.75,3 h 4.6875 l -1.21875,4 h -0.625 -1 -0.625 z" fill="#000" transform="translate(8.0,8.0) translate(-88.0,-376.0)" /></svg>