<?xml version="1.0" encoding="utf-8" ?>
<svg baseProfile="full" height="16" version="1.1" width="16" xmlns="http://www.w3.org/2000/svg" xmlns:ev="http://www.w3.org/2001/xml-events" xmlns:xlink="http://www.w3.org/1999/xlink"><defs /><path d="m 439.5,305.00781 c -0.27311,-1e-5 -0.49571,0.21911 -0.5,0.49219 v 1.95117 L 438.08984,312 H 437.5 c -0.27613,3e-5 -0.49997,0.22387 -0.5,0.5 v 2.5 h -0.5 c -0.27613,3e-5 -0.49997,0.22387 -0.5,0.5 v 1.5 h -0.5 c -0.27613,3e-5 -0.49997,0.22387 -0.5,0.5 v 1 c 3e-5,0.27613 0.22387,0.49997 0.5,0.5 h 8 c 0.27613,-3e-5 0.49997,-0.22387 0.5,-0.5 v -1 c -3e-5,-0.27613 -0.22387,-0.49997 -0.5,-0.5 H 443 v -1.5 c -3e-5,-0.27613 -0.22387,-0.49997 -0.5,-0.5 H 442 v -2.5 c -3e-5,-0.27613 -0.22387,-0.49997 -0.5,-0.5 h -0.58984 L 440,307.45117 V 305.5 c -0.004,-0.27308 -0.22689,-0.4922 -0.5,-0.49219 z" fill="#000" transform="translate(8.0,8.0) translate(-440.0,-312.0)" /><path d="m 439.5,305.00781 c -0.27311,-1e-5 -0.49571,0.21911 -0.5,0.49219 v 1.95117 L 438.08984,312 H 437.5 c -0.27613,3e-5 -0.49997,0.22387 -0.5,0.5 v 2.5 h -0.5 c -0.27613,3e-5 -0.49997,0.22387 -0.5,0.5 v 1.5 h -0.5 c -0.27613,3e-5 -0.49997,0.22387 -0.5,0.5 v 1 c 3e-5,0.27613 0.22387,0.49997 0.5,0.5 h 8 c 0.27613,-3e-5 0.49997,-0.22387 0.5,-0.5 v -1 c -3e-5,-0.27613 -0.22387,-0.49997 -0.5,-0.5 H 443 v -1.5 c -3e-5,-0.27613 -0.22387,-0.49997 -0.5,-0.5 H 442 v -2.5 c -3e-5,-0.27613 -0.22387,-0.49997 -0.5,-0.5 h -0.58984 L 440,307.45117 V 305.5 c -0.004,-0.27308 -0.22689,-0.4922 -0.5,-0.49219 z" fill="#000" transform="translate(8.0,8.0) translate(-440.0,-312.0)" /></svg>