<?xml version="1.0" encoding="utf-8" ?>
<svg baseProfile="full" height="16" version="1.1" width="16" xmlns="http://www.w3.org/2000/svg" xmlns:ev="http://www.w3.org/2001/xml-events" xmlns:xlink="http://www.w3.org/1999/xlink"><defs /><path d="m 55.5,433 c -1,1 -1,2 0,3 1,-1 1,-2 0,-3 z m -3.25,0.87109 c -0.36602,1.36603 0.13398,2.23163 1.5,2.59766 0.36603,-1.36603 -0.13397,-2.23163 -1.5,-2.59766 z m 6.5,0 c -1.36602,0.36603 -1.86602,1.23163 -1.5,2.59766 1.36603,-0.36603 1.86603,-1.23163 1.5,-2.59766 z m -7.94922,2.26758 c -0.279,-0.0167 -0.58818,0.0198 -0.92969,0.11133 0.36603,1.36602 1.23163,1.86602 2.59766,1.5 -0.27452,-1.02452 -0.83095,-1.56109 -1.66797,-1.61133 z m 9.39844,0 c -0.83702,0.0502 -1.39345,0.58681 -1.66797,1.61133 1.36602,0.36602 2.23163,-0.13398 2.59766,-1.5 -0.34151,-0.0915 -0.65069,-0.12807 -0.92969,-0.11133 z M 55.5,436.5 c -1.65685,0 -3,1.34315 -3,3 0,1.65685 1.34315,3 3,3 1.65685,0 3,-1.34315 3,-3 0,-1.65685 -1.34315,-3 -3,-3 z m -5,2.25 c -0.5,0 -1,0.25 -1.5,0.75 1,1 2,1 3,0 -0.5,-0.5 -1,-0.75 -1.5,-0.75 z m 10,0 c -0.5,0 -1,0.25 -1.5,0.75 1,1 2,1 3,0 -0.5,-0.5 -1,-0.75 -1.5,-0.75 z m -8.96094,2.38867 c -0.83702,0.0502 -1.39345,0.58681 -1.66797,1.61133 1.36603,0.36602 2.23163,-0.13398 2.59766,-1.5 -0.34151,-0.0915 -0.65068,-0.12807 -0.92969,-0.11133 z m 7.92188,0 c -0.27901,-0.0167 -0.58818,0.0198 -0.92969,0.11133 0.36603,1.36602 1.23163,1.86602 2.59766,1.5 -0.27452,-1.02452 -0.83095,-1.56109 -1.66797,-1.61133 z M 53.75,442.53125 c -1.36602,0.36602 -1.86602,1.23164 -1.5,2.59766 1.36603,-0.36602 1.86603,-1.23164 1.5,-2.59766 z m 3.5,0 c -0.36602,1.36602 0.13398,2.23164 1.5,2.59766 0.36603,-1.36602 -0.13397,-2.23164 -1.5,-2.59766 z M 55.5,443 c -0.277,0 -0.5,0.223 -0.5,0.5 v 3 c 0,0.277 0.223,0.5 0.5,0.5 0.277,0 0.5,-0.223 0.5,-0.5 v -3 c 0,-0.277 -0.223,-0.5 -0.5,-0.5 z" fill="#000" transform="translate(8.0,8.0) translate(-56.0,-440.0)" /><path d="m 55.5,433 c -1,1 -1,2 0,3 1,-1 1,-2 0,-3 z m -3.25,0.87109 c -0.36602,1.36603 0.13398,2.23163 1.5,2.59766 0.36603,-1.36603 -0.13397,-2.23163 -1.5,-2.59766 z m 6.5,0 c -1.36602,0.36603 -1.86602,1.23163 -1.5,2.59766 1.36603,-0.36603 1.86603,-1.23163 1.5,-2.59766 z m -7.94922,2.26758 c -0.279,-0.0167 -0.58818,0.0198 -0.92969,0.11133 0.36603,1.36602 1.23163,1.86602 2.59766,1.5 -0.27452,-1.02452 -0.83095,-1.56109 -1.66797,-1.61133 z m 9.39844,0 c -0.83702,0.0502 -1.39345,0.58681 -1.66797,1.61133 1.36602,0.36602 2.23163,-0.13398 2.59766,-1.5 -0.34151,-0.0915 -0.65069,-0.12807 -0.92969,-0.11133 z M 55.5,436.5 c -1.65685,0 -3,1.34315 -3,3 0,1.65685 1.34315,3 3,3 1.65685,0 3,-1.34315 3,-3 0,-1.65685 -1.34315,-3 -3,-3 z m -5,2.25 c -0.5,0 -1,0.25 -1.5,0.75 1,1 2,1 3,0 -0.5,-0.5 -1,-0.75 -1.5,-0.75 z m 10,0 c -0.5,0 -1,0.25 -1.5,0.75 1,1 2,1 3,0 -0.5,-0.5 -1,-0.75 -1.5,-0.75 z m -8.96094,2.38867 c -0.83702,0.0502 -1.39345,0.58681 -1.66797,1.61133 1.36603,0.36602 2.23163,-0.13398 2.59766,-1.5 -0.34151,-0.0915 -0.65068,-0.12807 -0.92969,-0.11133 z m 7.92188,0 c -0.27901,-0.0167 -0.58818,0.0198 -0.92969,0.11133 0.36603,1.36602 1.23163,1.86602 2.59766,1.5 -0.27452,-1.02452 -0.83095,-1.56109 -1.66797,-1.61133 z M 53.75,442.53125 c -1.36602,0.36602 -1.86602,1.23164 -1.5,2.59766 1.36603,-0.36602 1.86603,-1.23164 1.5,-2.59766 z m 3.5,0 c -0.36602,1.36602 0.13398,2.23164 1.5,2.59766 0.36603,-1.36602 -0.13397,-2.23164 -1.5,-2.59766 z M 55.5,443 c -0.277,0 -0.5,0.223 -0.5,0.5 v 3 c 0,0.277 0.223,0.5 0.5,0.5 0.277,0 0.5,-0.223 0.5,-0.5 v -3 c 0,-0.277 -0.223,-0.5 -0.5,-0.5 z" fill="#000" transform="translate(8.0,8.0) translate(-56.0,-440.0)" /></svg>