<?xml version="1.0" encoding="utf-8" ?>
<svg baseProfile="full" height="16" version="1.1" width="16" xmlns="http://www.w3.org/2000/svg" xmlns:ev="http://www.w3.org/2001/xml-events" xmlns:xlink="http://www.w3.org/1999/xlink"><defs /><path d="m 589,373 a 1,1 0 0 0 -1,1 h -10 l 1,4 7,1 c 0.277,0 0.5,0.21376 0.5,0.47852 v 0.043 C 586.5,379.78624 586.277,380 586,380 h -1.5 -4 c -0.277,0 -0.5,0.223 -0.5,0.5 0,0.277 0.223,0.5 0.5,0.5 h 0.5 v 0.5 c 0,0.277 0.223,0.5 0.5,0.5 0.277,0 0.5,-0.223 0.5,-0.5 V 381 h 3 v 0.5 c 0,0.277 0.21975,0.5 0.49219,0.5 h 0.0156 C 585.78025,382 586,381.777 586,381.5 V 381 h 0.5 c 0.277,0 0.5,-0.223 0.5,-0.5 l 2,-6.5 h 1.5 c 0.277,0 0.5,-0.21376 0.5,-0.47852 v -0.043 C 591,373.21376 590.777,373 590.5,373 Z" fill="#000" transform="translate(8.0,8.0) translate(-584.0,-376.0)" /><path d="m 589,373 a 1,1 0 0 0 -1,1 h -10 l 1,4 7,1 c 0.277,0 0.5,0.21376 0.5,0.47852 v 0.043 C 586.5,379.78624 586.277,380 586,380 h -1.5 -4 c -0.277,0 -0.5,0.223 -0.5,0.5 0,0.277 0.223,0.5 0.5,0.5 h 0.5 v 0.5 c 0,0.277 0.223,0.5 0.5,0.5 0.277,0 0.5,-0.223 0.5,-0.5 V 381 h 3 v 0.5 c 0,0.277 0.21975,0.5 0.49219,0.5 h 0.0156 C 585.78025,382 586,381.777 586,381.5 V 381 h 0.5 c 0.277,0 0.5,-0.223 0.5,-0.5 l 2,-6.5 h 1.5 c 0.277,0 0.5,-0.21376 0.5,-0.47852 v -0.043 C 591,373.21376 590.777,373 590.5,373 Z" fill="#000" transform="translate(8.0,8.0) translate(-584.0,-376.0)" /></svg>