<?xml version="1.0" encoding="utf-8" ?>
<svg baseProfile="full" height="16" version="1.1" width="16" xmlns="http://www.w3.org/2000/svg" xmlns:ev="http://www.w3.org/2001/xml-events" xmlns:xlink="http://www.w3.org/1999/xlink"><defs /><path d="m 614,370 c -1.09865,0 -2,0.90135 -2,2 v 6.5 a 0.5,0.5 0 0 0 0.5,0.5 0.5,0.5 0 0 0 0.5,-0.5 V 377 h 5 v 1.5 a 0.5,0.5 0 0 0 0.5,0.5 0.5,0.5 0 0 0 0.5,-0.5 V 372 c 0,-0.55821 0.44179,-1 1,-1 a 0.5,0.5 0 0 0 0.5,-0.5 0.5,0.5 0 0 0 -0.5,-0.5 c -1.09865,0 -2,0.90135 -2,2 v 1 h -5 v -1 c 0,-0.55821 0.44179,-1 1,-1 a 0.5,0.5 0 0 0 0.5,-0.5 0.5,0.5 0 0 0 -0.5,-0.5 z m -1,4 h 5 v 2 h -5 z m -2,5.25 a 0.50005,0.50005 0 0 0 -0.35352,0.14648 C 610.20541,379.83756 609.83333,380 609.5,380 a 0.5,0.5 0 0 0 -0.5,0.5 0.5,0.5 0 0 0 0.5,0.5 c 0.53939,0 1.02735,-0.34422 1.5,-0.72461 0.4696,0.37848 0.95642,0.72461 1.5,0.72461 0.53939,0 1.02735,-0.34422 1.5,-0.72461 0.47265,0.38039 0.96061,0.72461 1.5,0.72461 0.53939,0 1.02735,-0.34422 1.5,-0.72461 0.4696,0.37848 0.95642,0.72461 1.5,0.72461 0.53939,0 1.02735,-0.34422 1.5,-0.72461 0.47265,0.38039 0.96061,0.72461 1.5,0.72461 a 0.5,0.5 0 0 0 0.5,-0.5 0.5,0.5 0 0 0 -0.5,-0.5 c -0.33333,0 -0.70541,-0.16244 -1.14648,-0.60352 a 0.50005,0.50005 0 0 0 -0.70704,0 C 619.20541,379.83756 618.83333,380 618.5,380 c -0.32815,0 -0.71411,-0.17114 -1.14648,-0.60352 a 0.50005,0.50005 0 0 0 -0.70704,0 C 616.20541,379.83756 615.83333,380 615.5,380 c -0.33333,0 -0.70541,-0.16244 -1.14648,-0.60352 a 0.50005,0.50005 0 0 0 -0.70704,0 C 613.20541,379.83756 612.83333,380 612.5,380 c -0.32815,0 -0.71411,-0.17114 -1.14648,-0.60352 A 0.50005,0.50005 0 0 0 611,379.25 Z m 0,2 a 0.50005,0.50005 0 0 0 -0.35352,0.14648 C 610.20541,381.83756 609.83333,382 609.5,382 a 0.5,0.5 0 0 0 -0.5,0.5 0.5,0.5 0 0 0 0.5,0.5 c 0.53939,0 1.02735,-0.34422 1.5,-0.72461 0.4696,0.37848 0.95642,0.72461 1.5,0.72461 0.53939,0 1.02735,-0.34422 1.5,-0.72461 0.47265,0.38039 0.96061,0.72461 1.5,0.72461 0.53939,0 1.02735,-0.34422 1.5,-0.72461 0.4696,0.37848 0.95642,0.72461 1.5,0.72461 0.53939,0 1.02735,-0.34422 1.5,-0.72461 0.47265,0.38039 0.96061,0.72461 1.5,0.72461 a 0.5,0.5 0 0 0 0.5,-0.5 0.5,0.5 0 0 0 -0.5,-0.5 c -0.33333,0 -0.70541,-0.16244 -1.14648,-0.60352 a 0.50005,0.50005 0 0 0 -0.70704,0 C 619.20541,381.83756 618.83333,382 618.5,382 c -0.32815,0 -0.71411,-0.17114 -1.14648,-0.60352 a 0.50005,0.50005 0 0 0 -0.70704,0 C 616.20541,381.83756 615.83333,382 615.5,382 c -0.33333,0 -0.70541,-0.16244 -1.14648,-0.60352 a 0.50005,0.50005 0 0 0 -0.70704,0 C 613.20541,381.83756 612.83333,382 612.5,382 c -0.32815,0 -0.71411,-0.17114 -1.14648,-0.60352 A 0.50005,0.50005 0 0 0 611,381.25 Z" fill="#000" transform="translate(8.0,8.0) translate(-616.0,-376.0)" /><path d="m 614,370 c -1.09865,0 -2,0.90135 -2,2 v 6.5 a 0.5,0.5 0 0 0 0.5,0.5 0.5,0.5 0 0 0 0.5,-0.5 V 377 h 5 v 1.5 a 0.5,0.5 0 0 0 0.5,0.5 0.5,0.5 0 0 0 0.5,-0.5 V 372 c 0,-0.55821 0.44179,-1 1,-1 a 0.5,0.5 0 0 0 0.5,-0.5 0.5,0.5 0 0 0 -0.5,-0.5 c -1.09865,0 -2,0.90135 -2,2 v 1 h -5 v -1 c 0,-0.55821 0.44179,-1 1,-1 a 0.5,0.5 0 0 0 0.5,-0.5 0.5,0.5 0 0 0 -0.5,-0.5 z m -1,4 h 5 v 2 h -5 z m -2,5.25 a 0.50005,0.50005 0 0 0 -0.35352,0.14648 C 610.20541,379.83756 609.83333,380 609.5,380 a 0.5,0.5 0 0 0 -0.5,0.5 0.5,0.5 0 0 0 0.5,0.5 c 0.53939,0 1.02735,-0.34422 1.5,-0.72461 0.4696,0.37848 0.95642,0.72461 1.5,0.72461 0.53939,0 1.02735,-0.34422 1.5,-0.72461 0.47265,0.38039 0.96061,0.72461 1.5,0.72461 0.53939,0 1.02735,-0.34422 1.5,-0.72461 0.4696,0.37848 0.95642,0.72461 1.5,0.72461 0.53939,0 1.02735,-0.34422 1.5,-0.72461 0.47265,0.38039 0.96061,0.72461 1.5,0.72461 a 0.5,0.5 0 0 0 0.5,-0.5 0.5,0.5 0 0 0 -0.5,-0.5 c -0.33333,0 -0.70541,-0.16244 -1.14648,-0.60352 a 0.50005,0.50005 0 0 0 -0.70704,0 C 619.20541,379.83756 618.83333,380 618.5,380 c -0.32815,0 -0.71411,-0.17114 -1.14648,-0.60352 a 0.50005,0.50005 0 0 0 -0.70704,0 C 616.20541,379.83756 615.83333,380 615.5,380 c -0.33333,0 -0.70541,-0.16244 -1.14648,-0.60352 a 0.50005,0.50005 0 0 0 -0.70704,0 C 613.20541,379.83756 612.83333,380 612.5,380 c -0.32815,0 -0.71411,-0.17114 -1.14648,-0.60352 A 0.50005,0.50005 0 0 0 611,379.25 Z m 0,2 a 0.50005,0.50005 0 0 0 -0.35352,0.14648 C 610.20541,381.83756 609.83333,382 609.5,382 a 0.5,0.5 0 0 0 -0.5,0.5 0.5,0.5 0 0 0 0.5,0.5 c 0.53939,0 1.02735,-0.34422 1.5,-0.72461 0.4696,0.37848 0.95642,0.72461 1.5,0.72461 0.53939,0 1.02735,-0.34422 1.5,-0.72461 0.47265,0.38039 0.96061,0.72461 1.5,0.72461 0.53939,0 1.02735,-0.34422 1.5,-0.72461 0.4696,0.37848 0.95642,0.72461 1.5,0.72461 0.53939,0 1.02735,-0.34422 1.5,-0.72461 0.47265,0.38039 0.96061,0.72461 1.5,0.72461 a 0.5,0.5 0 0 0 0.5,-0.5 0.5,0.5 0 0 0 -0.5,-0.5 c -0.33333,0 -0.70541,-0.16244 -1.14648,-0.60352 a 0.50005,0.50005 0 0 0 -0.70704,0 C 619.20541,381.83756 618.83333,382 618.5,382 c -0.32815,0 -0.71411,-0.17114 -1.14648,-0.60352 a 0.50005,0.50005 0 0 0 -0.70704,0 C 616.20541,381.83756 615.83333,382 615.5,382 c -0.33333,0 -0.70541,-0.16244 -1.14648,-0.60352 a 0.50005,0.50005 0 0 0 -0.70704,0 C 613.20541,381.83756 612.83333,382 612.5,382 c -0.32815,0 -0.71411,-0.17114 -1.14648,-0.60352 A 0.50005,0.50005 0 0 0 611,381.25 Z" fill="#000" transform="translate(8.0,8.0) translate(-616.0,-376.0)" /></svg>