<?xml version="1.0" encoding="utf-8" ?>
<svg baseProfile="full" height="16" version="1.1" width="16" xmlns="http://www.w3.org/2000/svg" xmlns:ev="http://www.w3.org/2001/xml-events" xmlns:xlink="http://www.w3.org/1999/xlink"><defs /><path d="m 403,114 -1.68945,0.97461 1,1.73242 L 403,116.30859 v 3.64063 h 4 v -3.64063 l 0.68945,0.39844 1,-1.73242 L 407,114 h -1 a 1,1 0 0 1 -1,1 1,1 0 0 1 -1,-1 z m 7.50195,0.99219 a 0.50005,0.50005 0 0 0 -0.2832,0.0879 0.50005,0.50005 0 0 0 -0.0156,0.0117 0.50005,0.50005 0 0 0 -0.0351,0.0293 0.50005,0.50005 0 0 0 -0.008,0.004 0.50005,0.50005 0 0 0 -0.0293,0.0312 0.50005,0.50005 0 0 0 -0.002,0.002 0.50005,0.50005 0 0 0 -0.006,0.008 0.50005,0.50005 0 0 0 -0.0137,0.0156 0.50005,0.50005 0 0 0 -0.0117,0.0156 0.50005,0.50005 0 0 0 -0.0254,0.0371 0.50005,0.50005 0 0 0 -0.002,0.004 0.50005,0.50005 0 0 0 -0.0137,0.0273 0.50005,0.50005 0 0 0 -0.01,0.0176 0.50005,0.50005 0 0 0 -0.0117,0.0274 0.50005,0.50005 0 0 0 -0.0215,0.0664 0.50005,0.50005 0 0 0 -0.006,0.0293 0.50005,0.50005 0 0 0 -0.008,0.0703 l -0.81445,6.92383 C 408.85236,122.15218 408.44425,122 408,122 c -1.09865,0 -2,0.90135 -2,2 0,1.09865 0.90135,2 2,2 1.06334,0 1.93487,-0.84612 1.99023,-1.89648 a 0.50005,0.50005 0 0 0 0.006,-0.0449 L 410.23828,122 h 0.52344 l 0.24219,2.05859 a 0.50005,0.50005 0 0 0 0.008,0.0566 C 411.07308,125.16006 411.94068,126 413,126 c 1.09865,0 2,-0.90135 2,-2 0,-1.09865 -0.90135,-2 -2,-2 -0.44425,0 -0.85236,0.15218 -1.18555,0.40039 L 411,115.47461 a 0.50005,0.50005 0 0 0 -0.49805,-0.48242 z M 408,123 c 0.55474,0 0.9926,0.43695 0.99805,0.99023 a 0.50005,0.50005 0 0 0 0,0.0195 C 408.9926,124.56305 408.55474,125 408,125 c -0.55821,0 -1,-0.44179 -1,-1 0,-0.55821 0.44179,-1 1,-1 z m 5,0 c 0.55821,0 1,0.44179 1,1 0,0.55821 -0.44179,1 -1,1 -0.55474,0 -0.9926,-0.4389 -0.99805,-0.99219 A 0.50005,0.50005 0 0 0 412,123.99414 C 412.00316,123.43877 412.44379,123 413,123 Z" fill="#000" transform="translate(8.0,8.0) translate(-408.0,-120.0)" /><path d="m 403,114 -1.68945,0.97461 1,1.73242 L 403,116.30859 v 3.64063 h 4 v -3.64063 l 0.68945,0.39844 1,-1.73242 L 407,114 h -1 a 1,1 0 0 1 -1,1 1,1 0 0 1 -1,-1 z m 7.50195,0.99219 a 0.50005,0.50005 0 0 0 -0.2832,0.0879 0.50005,0.50005 0 0 0 -0.0156,0.0117 0.50005,0.50005 0 0 0 -0.0351,0.0293 0.50005,0.50005 0 0 0 -0.008,0.004 0.50005,0.50005 0 0 0 -0.0293,0.0312 0.50005,0.50005 0 0 0 -0.002,0.002 0.50005,0.50005 0 0 0 -0.006,0.008 0.50005,0.50005 0 0 0 -0.0137,0.0156 0.50005,0.50005 0 0 0 -0.0117,0.0156 0.50005,0.50005 0 0 0 -0.0254,0.0371 0.50005,0.50005 0 0 0 -0.002,0.004 0.50005,0.50005 0 0 0 -0.0137,0.0273 0.50005,0.50005 0 0 0 -0.01,0.0176 0.50005,0.50005 0 0 0 -0.0117,0.0274 0.50005,0.50005 0 0 0 -0.0215,0.0664 0.50005,0.50005 0 0 0 -0.006,0.0293 0.50005,0.50005 0 0 0 -0.008,0.0703 l -0.81445,6.92383 C 408.85236,122.15218 408.44425,122 408,122 c -1.09865,0 -2,0.90135 -2,2 0,1.09865 0.90135,2 2,2 1.06334,0 1.93487,-0.84612 1.99023,-1.89648 a 0.50005,0.50005 0 0 0 0.006,-0.0449 L 410.23828,122 h 0.52344 l 0.24219,2.05859 a 0.50005,0.50005 0 0 0 0.008,0.0566 C 411.07308,125.16006 411.94068,126 413,126 c 1.09865,0 2,-0.90135 2,-2 0,-1.09865 -0.90135,-2 -2,-2 -0.44425,0 -0.85236,0.15218 -1.18555,0.40039 L 411,115.47461 a 0.50005,0.50005 0 0 0 -0.49805,-0.48242 z M 408,123 c 0.55474,0 0.9926,0.43695 0.99805,0.99023 a 0.50005,0.50005 0 0 0 0,0.0195 C 408.9926,124.56305 408.55474,125 408,125 c -0.55821,0 -1,-0.44179 -1,-1 0,-0.55821 0.44179,-1 1,-1 z m 5,0 c 0.55821,0 1,0.44179 1,1 0,0.55821 -0.44179,1 -1,1 -0.55474,0 -0.9926,-0.4389 -0.99805,-0.99219 A 0.50005,0.50005 0 0 0 412,123.99414 C 412.00316,123.43877 412.44379,123 413,123 Z" fill="#000" transform="translate(8.0,8.0) translate(-408.0,-120.0)" /></svg>