<?xml version="1.0" encoding="utf-8" ?>
<svg baseProfile="full" height="16" version="1.1" width="16" xmlns="http://www.w3.org/2000/svg" xmlns:ev="http://www.w3.org/2001/xml-events" xmlns:xlink="http://www.w3.org/1999/xlink"><defs /><path d="m 193.5,52 1.5,3 2,-1 v 7 h 6 v -7 l 2,1 1.5,-3 -4,-2 H 202 c 0,1.10457 -0.89543,2 -2,2 -1.10457,0 -2,-0.89543 -2,-2 h -0.5 z" fill="#000" transform="translate(8.0,8.0) translate(-200.0,-56.0)" /><path d="m 193.5,52 1.5,3 2,-1 v 7 h 6 v -7 l 2,1 1.5,-3 -4,-2 H 202 c 0,1.10457 -0.89543,2 -2,2 -1.10457,0 -2,-0.89543 -2,-2 h -0.5 z" fill="#000" transform="translate(8.0,8.0) translate(-200.0,-56.0)" /></svg>