<?xml version="1.0" encoding="utf-8" ?>
<svg baseProfile="full" height="16" version="1.1" width="16" xmlns="http://www.w3.org/2000/svg" xmlns:ev="http://www.w3.org/2001/xml-events" xmlns:xlink="http://www.w3.org/1999/xlink"><defs /><path d="m 1.50781,503.99219 a 0.50005,0.50005 0 0 0 -0.50195,0.58984 l 1,6 a 0.50090245,0.50090245 0 1 0 0.98828,-0.16406 L 2.92383,510 h 1.65234 l -0.0703,0.41797 a 0.50090245,0.50090245 0 1 0 0.98828,0.16406 l 0.5,-3 A 0.50005,0.50005 0 0 0 5.5,507 h -3 a 0.50005,0.50005 0 0 0 -0.0742,0.004 l -0.43164,-2.58594 a 0.50005,0.50005 0 0 0 -0.48633,-0.42578 z m 11.9668,0.002 a 0.50005,0.50005 0 0 0 -0.46875,0.42383 l -0.43164,2.58789 A 0.50005,0.50005 0 0 0 12.49805,507 h -3 a 0.50005,0.50005 0 0 0 -0.49219,0.58203 l 0.5,3 a 0.50005,0.50005 0 1 0 0.98633,-0.16406 L 10.42188,510 h 1.65429 l -0.0703,0.41797 a 0.50005,0.50005 0 1 0 0.98633,0.16406 l 1,-6 a 0.50005,0.50005 0 0 0 -0.51758,-0.58789 z M 4.5,504 c -0.277,0 -0.5,0.223 -0.5,0.5 0,0.277 0.223,0.5 0.5,0.5 H 7 v 5.5 c 0,0.277 0.223,0.5 0.5,0.5 0.277,0 0.5,-0.223 0.5,-0.5 V 505 h 2.5 c 0.277,0 0.5,-0.223 0.5,-0.5 0,-0.277 -0.223,-0.5 -0.5,-0.5 z" fill="#000" transform="translate(8.0,8.0) translate(-8.0,-504.0)" /><path d="m 81,498 v 2 h 1 v -2 z m 2,0 v 2 h 1 v -2 z m 2,0 v 2 h 1 v -2 z m 2,0 v 2 h 1 v -2 z m 2,0 v 2 h 1 v -2 z m 2,0 v 2 h 1 v -2 z m 2,0 v 2 h 1 v -2 z" fill="#000" transform="translate(8.0,8.0) translate(-88.0,-504.0)" /><path d="m 1.50781,503.99219 a 0.50005,0.50005 0 0 0 -0.50195,0.58984 l 1,6 a 0.50090245,0.50090245 0 1 0 0.98828,-0.16406 L 2.92383,510 h 1.65234 l -0.0703,0.41797 a 0.50090245,0.50090245 0 1 0 0.98828,0.16406 l 0.5,-3 A 0.50005,0.50005 0 0 0 5.5,507 h -3 a 0.50005,0.50005 0 0 0 -0.0742,0.004 l -0.43164,-2.58594 a 0.50005,0.50005 0 0 0 -0.48633,-0.42578 z m 11.9668,0.002 a 0.50005,0.50005 0 0 0 -0.46875,0.42383 l -0.43164,2.58789 A 0.50005,0.50005 0 0 0 12.49805,507 h -3 a 0.50005,0.50005 0 0 0 -0.49219,0.58203 l 0.5,3 a 0.50005,0.50005 0 1 0 0.98633,-0.16406 L 10.42188,510 h 1.65429 l -0.0703,0.41797 a 0.50005,0.50005 0 1 0 0.98633,0.16406 l 1,-6 a 0.50005,0.50005 0 0 0 -0.51758,-0.58789 z M 4.5,504 c -0.277,0 -0.5,0.223 -0.5,0.5 0,0.277 0.223,0.5 0.5,0.5 H 7 v 5.5 c 0,0.277 0.223,0.5 0.5,0.5 0.277,0 0.5,-0.223 0.5,-0.5 V 505 h 2.5 c 0.277,0 0.5,-0.223 0.5,-0.5 0,-0.277 -0.223,-0.5 -0.5,-0.5 z" fill="#000" transform="translate(8.0,8.0) translate(-8.0,-504.0)" /><path d="m 81,498 v 2 h 1 v -2 z m 2,0 v 2 h 1 v -2 z m 2,0 v 2 h 1 v -2 z m 2,0 v 2 h 1 v -2 z m 2,0 v 2 h 1 v -2 z m 2,0 v 2 h 1 v -2 z m 2,0 v 2 h 1 v -2 z" fill="#000" transform="translate(8.0,8.0) translate(-88.0,-504.0)" /></svg>