<?xml version="1.0" encoding="utf-8" ?>
<svg baseProfile="full" height="16" version="1.1" width="16" xmlns="http://www.w3.org/2000/svg" xmlns:ev="http://www.w3.org/2001/xml-events" xmlns:xlink="http://www.w3.org/1999/xlink"><defs /><path d="m 602.50195,211.99219 a 0.50005,0.50005 0 0 0 -0.0879,0.008 h -3.83203 a 0.50005,0.50005 0 0 0 -0.0977,-0.006 0.50005,0.50005 0 0 0 -0.0586,0.006 H 597 a 0.50005,0.50005 0 1 0 0,1 h 0.83789 l -0.85742,3 H 594.5 a 0.50005,0.50005 0 1 0 0,1 h 2.19531 l -0.67578,2.36328 a 0.50005,0.50005 0 1 0 0.96094,0.27344 L 597.73438,217 h 5.53124 l 0.75391,2.63672 a 0.50005,0.50005 0 1 0 0.96094,-0.27344 L 604.30469,217 H 606.5 a 0.50005,0.50005 0 1 0 0,-1 h -2.48047 l -0.85742,-3 H 604 a 0.50005,0.50005 0 1 0 0,-1 h -1.42188 a 0.50005,0.50005 0 0 0 -0.0762,-0.008 z M 598.87695,213 h 3.2461 l 0.85742,3 h -4.96094 z" fill="#000" transform="translate(8.0,8.0) translate(-600.0,-216.0)" /><path d="m 602.50195,211.99219 a 0.50005,0.50005 0 0 0 -0.0879,0.008 h -3.83203 a 0.50005,0.50005 0 0 0 -0.0977,-0.006 0.50005,0.50005 0 0 0 -0.0586,0.006 H 597 a 0.50005,0.50005 0 1 0 0,1 h 0.83789 l -0.85742,3 H 594.5 a 0.50005,0.50005 0 1 0 0,1 h 2.19531 l -0.67578,2.36328 a 0.50005,0.50005 0 1 0 0.96094,0.27344 L 597.73438,217 h 5.53124 l 0.75391,2.63672 a 0.50005,0.50005 0 1 0 0.96094,-0.27344 L 604.30469,217 H 606.5 a 0.50005,0.50005 0 1 0 0,-1 h -2.48047 l -0.85742,-3 H 604 a 0.50005,0.50005 0 1 0 0,-1 h -1.42188 a 0.50005,0.50005 0 0 0 -0.0762,-0.008 z M 598.87695,213 h 3.2461 l 0.85742,3 h -4.96094 z" fill="#000" transform="translate(8.0,8.0) translate(-600.0,-216.0)" /></svg>