<?xml version="1.0" encoding="utf-8" ?>
<svg baseProfile="full" height="16" version="1.1" width="16" xmlns="http://www.w3.org/2000/svg" xmlns:ev="http://www.w3.org/2001/xml-events" xmlns:xlink="http://www.w3.org/1999/xlink"><defs /><path d="m 1.50781,503.99219 a 0.50005,0.50005 0 0 0 -0.50195,0.58984 l 1,6 a 0.50090245,0.50090245 0 1 0 0.98828,-0.16406 L 2.92383,510 h 1.65234 l -0.0703,0.41797 a 0.50090245,0.50090245 0 1 0 0.98828,0.16406 l 0.5,-3 A 0.50005,0.50005 0 0 0 5.5,507 h -3 a 0.50005,0.50005 0 0 0 -0.0742,0.004 l -0.43164,-2.58594 a 0.50005,0.50005 0 0 0 -0.48633,-0.42578 z m 11.9668,0.002 a 0.50005,0.50005 0 0 0 -0.46875,0.42383 l -0.43164,2.58789 A 0.50005,0.50005 0 0 0 12.49805,507 h -3 a 0.50005,0.50005 0 0 0 -0.49219,0.58203 l 0.5,3 a 0.50005,0.50005 0 1 0 0.98633,-0.16406 L 10.42188,510 h 1.65429 l -0.0703,0.41797 a 0.50005,0.50005 0 1 0 0.98633,0.16406 l 1,-6 a 0.50005,0.50005 0 0 0 -0.51758,-0.58789 z M 4.5,504 c -0.277,0 -0.5,0.223 -0.5,0.5 0,0.277 0.223,0.5 0.5,0.5 H 7 v 5.5 c 0,0.277 0.223,0.5 0.5,0.5 0.277,0 0.5,-0.223 0.5,-0.5 V 505 h 2.5 c 0.277,0 0.5,-0.223 0.5,-0.5 0,-0.277 -0.223,-0.5 -0.5,-0.5 z" fill="#000" transform="translate(8.0,8.0) translate(-8.0,-504.0)" /><path d="M 65.50195,497 C 65.22506,496.999 65.00003,497.22311 65,497.5 v 3 c 3e-5,0.27613 0.22387,0.49997 0.5,0.5 H 77 v 0.5 c 0,0.277 0.223,0.5 0.5,0.5 0.277,0 0.5,-0.223 0.5,-0.5 v -1 c 0,-0.0221 -0.009,-0.0412 -0.0117,-0.0625 -4.3e-4,-0.003 -10e-4,-0.006 -0.002,-0.01 -0.003,-0.0197 -0.007,-0.0393 -0.0117,-0.0586 -0.0109,-0.0397 -0.0251,-0.0763 -0.0449,-0.11133 -0.0116,-0.0204 -0.0247,-0.04 -0.0391,-0.0586 l -0.008,-0.0117 c -0.0166,-0.0204 -0.0331,-0.0392 -0.0527,-0.0566 l -0.006,-0.006 c -0.031,-0.0262 -0.0651,-0.0485 -0.10156,-0.0664 -0.0159,-0.008 -0.0301,-0.0171 -0.0469,-0.0234 -0.0389,-0.0154 -0.0796,-0.0259 -0.12109,-0.0312 -4.4596,-0.49551 -8.41025,-1.48553 -11.85742,-2.96289 -0.0617,-0.0267 -0.12812,-0.0406 -0.19532,-0.041 z" fill="#000" transform="translate(8.0,8.0) translate(-72.0,-504.0)" /><path d="m 1.50781,503.99219 a 0.50005,0.50005 0 0 0 -0.50195,0.58984 l 1,6 a 0.50090245,0.50090245 0 1 0 0.98828,-0.16406 L 2.92383,510 h 1.65234 l -0.0703,0.41797 a 0.50090245,0.50090245 0 1 0 0.98828,0.16406 l 0.5,-3 A 0.50005,0.50005 0 0 0 5.5,507 h -3 a 0.50005,0.50005 0 0 0 -0.0742,0.004 l -0.43164,-2.58594 a 0.50005,0.50005 0 0 0 -0.48633,-0.42578 z m 11.9668,0.002 a 0.50005,0.50005 0 0 0 -0.46875,0.42383 l -0.43164,2.58789 A 0.50005,0.50005 0 0 0 12.49805,507 h -3 a 0.50005,0.50005 0 0 0 -0.49219,0.58203 l 0.5,3 a 0.50005,0.50005 0 1 0 0.98633,-0.16406 L 10.42188,510 h 1.65429 l -0.0703,0.41797 a 0.50005,0.50005 0 1 0 0.98633,0.16406 l 1,-6 a 0.50005,0.50005 0 0 0 -0.51758,-0.58789 z M 4.5,504 c -0.277,0 -0.5,0.223 -0.5,0.5 0,0.277 0.223,0.5 0.5,0.5 H 7 v 5.5 c 0,0.277 0.223,0.5 0.5,0.5 0.277,0 0.5,-0.223 0.5,-0.5 V 505 h 2.5 c 0.277,0 0.5,-0.223 0.5,-0.5 0,-0.277 -0.223,-0.5 -0.5,-0.5 z" fill="#000" transform="translate(8.0,8.0) translate(-8.0,-504.0)" /><path d="M 65.50195,497 C 65.22506,496.999 65.00003,497.22311 65,497.5 v 3 c 3e-5,0.27613 0.22387,0.49997 0.5,0.5 H 77 v 0.5 c 0,0.277 0.223,0.5 0.5,0.5 0.277,0 0.5,-0.223 0.5,-0.5 v -1 c 0,-0.0221 -0.009,-0.0412 -0.0117,-0.0625 -4.3e-4,-0.003 -10e-4,-0.006 -0.002,-0.01 -0.003,-0.0197 -0.007,-0.0393 -0.0117,-0.0586 -0.0109,-0.0397 -0.0251,-0.0763 -0.0449,-0.11133 -0.0116,-0.0204 -0.0247,-0.04 -0.0391,-0.0586 l -0.008,-0.0117 c -0.0166,-0.0204 -0.0331,-0.0392 -0.0527,-0.0566 l -0.006,-0.006 c -0.031,-0.0262 -0.0651,-0.0485 -0.10156,-0.0664 -0.0159,-0.008 -0.0301,-0.0171 -0.0469,-0.0234 -0.0389,-0.0154 -0.0796,-0.0259 -0.12109,-0.0312 -4.4596,-0.49551 -8.41025,-1.48553 -11.85742,-2.96289 -0.0617,-0.0267 -0.12812,-0.0406 -0.19532,-0.041 z" fill="#000" transform="translate(8.0,8.0) translate(-72.0,-504.0)" /></svg>