<?xml version="1.0" encoding="utf-8" ?>
<svg baseProfile="full" height="16" version="1.1" width="16" xmlns="http://www.w3.org/2000/svg" xmlns:ev="http://www.w3.org/2001/xml-events" xmlns:xlink="http://www.w3.org/1999/xlink"><defs /><path d="M 499.48438,535 C 499.21603,535 499,535.223 499,535.5 v 0.5 h -1.5 c -0.27614,0 -0.5,0.22386 -0.5,0.5 0,0.27614 0.22386,0.5 0.5,0.5 h 12 c 0.27614,0 0.5,-0.22386 0.5,-0.5 0,-0.27614 -0.22386,-0.5 -0.5,-0.5 H 508 v -0.5 c 0,-0.277 -0.21603,-0.5 -0.48438,-0.5 h -0.0312 C 507.21603,535 507,535.223 507,535.5 v 0.5 h -1 v -0.5 c 0,-0.277 -0.21603,-0.5 -0.48438,-0.5 h -0.0312 C 505.21603,535 505,535.223 505,535.5 v 0.5 h -1 v -0.5 c 0,-0.277 -0.21603,-0.5 -0.48438,-0.5 h -0.0312 C 503.21603,535 503,535.223 503,535.5 v 0.5 h -1 v -0.5 c 0,-0.277 -0.21603,-0.5 -0.48438,-0.5 h -0.0312 C 501.21603,535 501,535.223 501,535.5 v 0.5 h -1 v -0.5 c 0,-0.277 -0.21603,-0.5 -0.48438,-0.5 h -0.0312 z" fill="#000" transform="translate(8.0,10.0) translate(-504.0,-536.0)" /><path d="m 789.49414,148.99414 a 0.50005,0.50005 0 0 0 -0.34766,0.85938 l 1.64649,1.64648 -1.64649,1.64648 a 0.50005,0.50005 0 1 0 0.70704,0.70704 l 1.64648,-1.64649 1.64648,1.64649 a 0.50005,0.50005 0 1 0 0.70704,-0.70704 l -1.64649,-1.64648 1.64649,-1.64648 a 0.50005,0.50005 0 0 0 -0.36329,-0.85743 0.50005,0.50005 0 0 0 -0.34375,0.15039 l -1.64648,1.64649 -1.64648,-1.64649 a 0.50005,0.50005 0 0 0 -0.35938,-0.15234 z" fill="#000" transform="translate(8.0,5.0) translate(-792.0,-152.0)" /><path d="M 499.48438,535 C 499.21603,535 499,535.223 499,535.5 v 0.5 h -1.5 c -0.27614,0 -0.5,0.22386 -0.5,0.5 0,0.27614 0.22386,0.5 0.5,0.5 h 12 c 0.27614,0 0.5,-0.22386 0.5,-0.5 0,-0.27614 -0.22386,-0.5 -0.5,-0.5 H 508 v -0.5 c 0,-0.277 -0.21603,-0.5 -0.48438,-0.5 h -0.0312 C 507.21603,535 507,535.223 507,535.5 v 0.5 h -1 v -0.5 c 0,-0.277 -0.21603,-0.5 -0.48438,-0.5 h -0.0312 C 505.21603,535 505,535.223 505,535.5 v 0.5 h -1 v -0.5 c 0,-0.277 -0.21603,-0.5 -0.48438,-0.5 h -0.0312 C 503.21603,535 503,535.223 503,535.5 v 0.5 h -1 v -0.5 c 0,-0.277 -0.21603,-0.5 -0.48438,-0.5 h -0.0312 C 501.21603,535 501,535.223 501,535.5 v 0.5 h -1 v -0.5 c 0,-0.277 -0.21603,-0.5 -0.48438,-0.5 h -0.0312 z" fill="#000" transform="translate(8.0,10.0) translate(-504.0,-536.0)" /><path d="m 789.49414,148.99414 a 0.50005,0.50005 0 0 0 -0.34766,0.85938 l 1.64649,1.64648 -1.64649,1.64648 a 0.50005,0.50005 0 1 0 0.70704,0.70704 l 1.64648,-1.64649 1.64648,1.64649 a 0.50005,0.50005 0 1 0 0.70704,-0.70704 l -1.64649,-1.64648 1.64649,-1.64648 a 0.50005,0.50005 0 0 0 -0.36329,-0.85743 0.50005,0.50005 0 0 0 -0.34375,0.15039 l -1.64648,1.64649 -1.64648,-1.64649 a 0.50005,0.50005 0 0 0 -0.35938,-0.15234 z" fill="#000" transform="translate(8.0,5.0) translate(-792.0,-152.0)" /></svg>