<?xml version="1.0" encoding="utf-8" ?>
<svg baseProfile="full" height="16" version="1.1" width="16" xmlns="http://www.w3.org/2000/svg" xmlns:ev="http://www.w3.org/2001/xml-events" xmlns:xlink="http://www.w3.org/1999/xlink"><defs /><path d="m 307.5,533 c -0.2047,-2.1e-4 -0.38886,0.12437 -0.46484,0.31445 l -2,5 c -0.13127,0.32862 0.11097,0.68588 0.46484,0.68555 h 13 c 0.35387,3.3e-4 0.59611,-0.35693 0.46484,-0.68555 l -2,-5 C 316.88886,533.12437 316.7047,532.99979 316.5,533 Z m 1.5,1 h 2 v 2 h 2 v -2 h 2 v 2 h 2 v 2 h -2 v -2 h -2 v 2 h -2 v -2 h -2 v 2 h -2 v -2 h 2 z" fill="#000" transform="translate(8.0,8.0) translate(-312.0,-536.0)" /><path d="m 307.5,533 c -0.2047,-2.1e-4 -0.38886,0.12437 -0.46484,0.31445 l -2,5 c -0.13127,0.32862 0.11097,0.68588 0.46484,0.68555 h 13 c 0.35387,3.3e-4 0.59611,-0.35693 0.46484,-0.68555 l -2,-5 C 316.88886,533.12437 316.7047,532.99979 316.5,533 Z m 1.5,1 h 2 v 2 h 2 v -2 h 2 v 2 h 2 v 2 h -2 v -2 h -2 v 2 h -2 v -2 h -2 v 2 h -2 v -2 h 2 z" fill="#000" transform="translate(8.0,8.0) translate(-312.0,-536.0)" /></svg>