<?xml version="1.0" encoding="utf-8" ?>
<svg baseProfile="full" height="16" version="1.1" width="16" xmlns="http://www.w3.org/2000/svg" xmlns:ev="http://www.w3.org/2001/xml-events" xmlns:xlink="http://www.w3.org/1999/xlink"><defs /><path d="m 328.5,242 a 0.50005,0.50005 0 1 0 0,1 c 1.93892,0 3.5,1.56108 3.5,3.5 a 0.50005,0.50005 0 1 0 1,0 c 0,-2.47936 -2.02064,-4.5 -4.5,-4.5 z m -3.88867,0.61133 a 5.5,5.5 0 0 0 0,7.77734 5.5,5.5 0 0 0 7.77734,0 L 328.5,246.5 Z M 328.5,244 a 0.50005,0.50005 0 1 0 0,1 c 0.83435,0 1.5,0.66565 1.5,1.5 a 0.50005,0.50005 0 1 0 1,0 c 0,-1.37479 -1.12521,-2.5 -2.5,-2.5 z m -4.5,7.18164 V 254 h -0.5 c -0.277,0 -0.5,0.20906 -0.5,0.46875 v 0.0625 c 0,0.25969 0.223,0.46875 0.5,0.46875 h 1 4 1 c 0.277,0 0.5,-0.20906 0.5,-0.46875 v -0.0625 C 330,254.20906 329.777,254 329.5,254 H 329 v -1.03125 c -1.78773,0.13656 -3.61811,-0.4588 -5,-1.78711 z" fill="#000" transform="translate(8.0,8.0) translate(-328.0,-248.0)" /><path d="m 328.5,242 a 0.50005,0.50005 0 1 0 0,1 c 1.93892,0 3.5,1.56108 3.5,3.5 a 0.50005,0.50005 0 1 0 1,0 c 0,-2.47936 -2.02064,-4.5 -4.5,-4.5 z m -3.88867,0.61133 a 5.5,5.5 0 0 0 0,7.77734 5.5,5.5 0 0 0 7.77734,0 L 328.5,246.5 Z M 328.5,244 a 0.50005,0.50005 0 1 0 0,1 c 0.83435,0 1.5,0.66565 1.5,1.5 a 0.50005,0.50005 0 1 0 1,0 c 0,-1.37479 -1.12521,-2.5 -2.5,-2.5 z m -4.5,7.18164 V 254 h -0.5 c -0.277,0 -0.5,0.20906 -0.5,0.46875 v 0.0625 c 0,0.25969 0.223,0.46875 0.5,0.46875 h 1 4 1 c 0.277,0 0.5,-0.20906 0.5,-0.46875 v -0.0625 C 330,254.20906 329.777,254 329.5,254 H 329 v -1.03125 c -1.78773,0.13656 -3.61811,-0.4588 -5,-1.78711 z" fill="#000" transform="translate(8.0,8.0) translate(-328.0,-248.0)" /></svg>