<?xml version="1.0" encoding="utf-8" ?>
<svg baseProfile="full" height="16" version="1.1" width="16" xmlns="http://www.w3.org/2000/svg" xmlns:ev="http://www.w3.org/2001/xml-events" xmlns:xlink="http://www.w3.org/1999/xlink"><defs /><path d="m 392,370 c -2.75,0 -6,1 -6,3 h 3 c 0,-2 6,-2 6,0 h 3 c 0,-2 -3.25,-3 -6,-3 z m -1.09375,3 c -0.38136,0.0415 -0.72609,0.32238 -0.84375,0.6875 l -0.875,2.59375 -1.625,0.8125 C 387.22529,377.25783 386.99739,377.625 387,378 v 1 2 c 5e-5,0.52358 0.47642,0.99995 1,1 h 8 c 0.52358,-5e-5 0.99995,-0.47642 1,-1 v -2 -1 c 0.003,-0.375 -0.22529,-0.74217 -0.5625,-0.90625 l -1.625,-0.8125 -0.875,-2.59375 C 393.80828,373.29468 393.4135,373.00518 393,373 h -2 c -0.0312,-10e-4 -0.0625,-10e-4 -0.0937,0 z M 386,374 c 0,0.554 0.446,1 1,1 h 1 c 0.554,0 1,-0.446 1,-1 z m 9,0 c 0,0.554 0.446,1 1,1 h 1 c 0.554,0 1,-0.446 1,-1 z m -3,2 c 1.10457,0 2,0.89543 2,2 0,1.10457 -0.89543,2 -2,2 -1.10457,0 -2,-0.89543 -2,-2 0,-1.10457 0.89543,-2 2,-2 z" fill="#000" transform="translate(8.0,8.0) translate(-392.0,-376.0)" /><path d="m 392,370 c -2.75,0 -6,1 -6,3 h 3 c 0,-2 6,-2 6,0 h 3 c 0,-2 -3.25,-3 -6,-3 z m -1.09375,3 c -0.38136,0.0415 -0.72609,0.32238 -0.84375,0.6875 l -0.875,2.59375 -1.625,0.8125 C 387.22529,377.25783 386.99739,377.625 387,378 v 1 2 c 5e-5,0.52358 0.47642,0.99995 1,1 h 8 c 0.52358,-5e-5 0.99995,-0.47642 1,-1 v -2 -1 c 0.003,-0.375 -0.22529,-0.74217 -0.5625,-0.90625 l -1.625,-0.8125 -0.875,-2.59375 C 393.80828,373.29468 393.4135,373.00518 393,373 h -2 c -0.0312,-10e-4 -0.0625,-10e-4 -0.0937,0 z M 386,374 c 0,0.554 0.446,1 1,1 h 1 c 0.554,0 1,-0.446 1,-1 z m 9,0 c 0,0.554 0.446,1 1,1 h 1 c 0.554,0 1,-0.446 1,-1 z m -3,2 c 1.10457,0 2,0.89543 2,2 0,1.10457 -0.89543,2 -2,2 -1.10457,0 -2,-0.89543 -2,-2 0,-1.10457 0.89543,-2 2,-2 z" fill="#000" transform="translate(8.0,8.0) translate(-392.0,-376.0)" /></svg>