<?xml version="1.0" encoding="utf-8" ?>
<svg baseProfile="full" height="16" version="1.1" width="16" xmlns="http://www.w3.org/2000/svg" xmlns:ev="http://www.w3.org/2001/xml-events" xmlns:xlink="http://www.w3.org/1999/xlink"><defs /><path d="m 348.50586,242 a 0.50005,0.50005 0 0 0 -0.0762,0.006 l -6.13281,0.87695 0.88085,0.88086 4.73438,-0.67578 -0.67578,4.73438 0.88086,0.88085 0.87695,-6.13281 A 0.50005,0.50005 0 0 0 348.50586,242 Z m -7.89453,0.61133 a 5.5,5.5 0 0 0 0,7.77734 5.5,5.5 0 0 0 7.77734,0 L 344.5,246.5 Z M 340,251.18164 V 254 h -0.5 c -0.277,0 -0.5,0.20906 -0.5,0.46875 v 0.0625 c 0,0.25969 0.223,0.46875 0.5,0.46875 h 1 4 1 c 0.277,0 0.5,-0.20906 0.5,-0.46875 v -0.0625 C 346,254.20906 345.777,254 345.5,254 H 345 v -1.03125 c -1.78773,0.13656 -3.61811,-0.4588 -5,-1.78711 z" fill="#000" transform="translate(8.0,8.0) translate(-344.0,-248.0)" /><path d="m 348.50586,242 a 0.50005,0.50005 0 0 0 -0.0762,0.006 l -6.13281,0.87695 0.88085,0.88086 4.73438,-0.67578 -0.67578,4.73438 0.88086,0.88085 0.87695,-6.13281 A 0.50005,0.50005 0 0 0 348.50586,242 Z m -7.89453,0.61133 a 5.5,5.5 0 0 0 0,7.77734 5.5,5.5 0 0 0 7.77734,0 L 344.5,246.5 Z M 340,251.18164 V 254 h -0.5 c -0.277,0 -0.5,0.20906 -0.5,0.46875 v 0.0625 c 0,0.25969 0.223,0.46875 0.5,0.46875 h 1 4 1 c 0.277,0 0.5,-0.20906 0.5,-0.46875 v -0.0625 C 346,254.20906 345.777,254 345.5,254 H 345 v -1.03125 c -1.78773,0.13656 -3.61811,-0.4588 -5,-1.78711 z" fill="#000" transform="translate(8.0,8.0) translate(-344.0,-248.0)" /></svg>