<?xml version="1.0" encoding="utf-8" ?>
<svg baseProfile="full" height="16" version="1.1" width="16" xmlns="http://www.w3.org/2000/svg" xmlns:ev="http://www.w3.org/2001/xml-events" xmlns:xlink="http://www.w3.org/1999/xlink"><defs /><path d="m 257.5,402 c -0.277,0 -0.5,0.20653 -0.5,0.46289 v 0.0742 c 0,0.25636 0.223,0.46289 0.5,0.46289 h 0.5 v 9 h -0.5 c -0.277,0 -0.5,0.20653 -0.5,0.46289 v 0.0742 c 0,0.25636 0.223,0.46289 0.5,0.46289 h 12 c 0.277,0 0.5,-0.20653 0.5,-0.46289 v -0.0742 C 270,412.20653 269.777,412 269.5,412 H 266 v -4.19141 l 3.72266,-1.86132 a 0.50005,0.50005 0 0 0 -0.22071,-0.95118 0.50005,0.50005 0 0 0 -0.22461,0.0566 l -3.96679,1.98243 c -0.008,0.003 -0.0153,0.008 -0.0234,0.0117 l -0.01,0.006 a 0.50005,0.50005 0 0 0 -0.11523,0.0723 c -0.008,0.007 -0.0157,0.0139 -0.0234,0.0215 A 0.50005,0.50005 0 0 0 265,407.63867 V 412 h -1 v -9 h 0.44922 c 0.277,0 0.5,-0.20653 0.5,-0.46289 v -0.0742 c 0,-0.25636 -0.223,-0.46289 -0.5,-0.46289 H 257.5 Z m 2.5,2 h 2 c 0.554,0 1,0.446 1,1 v 2 c 0,0.554 -0.446,1 -1,1 h -2 c -0.554,0 -1,-0.446 -1,-1 v -2 c 0,-0.554 0.446,-1 1,-1 z" fill="#000" transform="translate(8.0,8.0) translate(-264.0,-408.0)" /><path d="m 257.5,402 c -0.277,0 -0.5,0.20653 -0.5,0.46289 v 0.0742 c 0,0.25636 0.223,0.46289 0.5,0.46289 h 0.5 v 9 h -0.5 c -0.277,0 -0.5,0.20653 -0.5,0.46289 v 0.0742 c 0,0.25636 0.223,0.46289 0.5,0.46289 h 12 c 0.277,0 0.5,-0.20653 0.5,-0.46289 v -0.0742 C 270,412.20653 269.777,412 269.5,412 H 266 v -4.19141 l 3.72266,-1.86132 a 0.50005,0.50005 0 0 0 -0.22071,-0.95118 0.50005,0.50005 0 0 0 -0.22461,0.0566 l -3.96679,1.98243 c -0.008,0.003 -0.0153,0.008 -0.0234,0.0117 l -0.01,0.006 a 0.50005,0.50005 0 0 0 -0.11523,0.0723 c -0.008,0.007 -0.0157,0.0139 -0.0234,0.0215 A 0.50005,0.50005 0 0 0 265,407.63867 V 412 h -1 v -9 h 0.44922 c 0.277,0 0.5,-0.20653 0.5,-0.46289 v -0.0742 c 0,-0.25636 -0.223,-0.46289 -0.5,-0.46289 H 257.5 Z m 2.5,2 h 2 c 0.554,0 1,0.446 1,1 v 2 c 0,0.554 -0.446,1 -1,1 h -2 c -0.554,0 -1,-0.446 -1,-1 v -2 c 0,-0.554 0.446,-1 1,-1 z" fill="#000" transform="translate(8.0,8.0) translate(-264.0,-408.0)" /></svg>