<?xml version="1.0" encoding="utf-8" ?>
<svg baseProfile="full" height="16" version="1.1" width="16" xmlns="http://www.w3.org/2000/svg" xmlns:ev="http://www.w3.org/2001/xml-events" xmlns:xlink="http://www.w3.org/1999/xlink"><defs /><path d="m 294,372 c -1.108,0 -2,0.892 -2,2 v 3 2 2 h 2 3 2 v -2 -2 -3 c 0,-1.108 -0.892,-2 -2,-2 z m -4,10 v 1 h 11 v -1 z" fill="#000" transform="translate(8.0,8.0) translate(-296.0,-376.0)" /><path d="m 294,372 c -1.108,0 -2,0.892 -2,2 v 3 2 2 h 2 3 2 v -2 -2 -3 c 0,-1.108 -0.892,-2 -2,-2 z m -4,10 v 1 h 11 v -1 z" fill="#000" transform="translate(8.0,8.0) translate(-296.0,-376.0)" /></svg>