<?xml version="1.0" encoding="utf-8" ?>
<svg baseProfile="full" height="16" version="1.1" width="16" xmlns="http://www.w3.org/2000/svg" xmlns:ev="http://www.w3.org/2001/xml-events" xmlns:xlink="http://www.w3.org/1999/xlink"><defs /><path d="m 69,51 c -1.5,0 -2,0.228135 -2,1 0,1.5 0,3 1,4 0,2 0.5,3.5 1,4.5 0.447214,0.894427 1,1 1,0 0,-1.5 0.5,-4.5 2,-4.5 1.5,0 2,3 2,4.5 0,1 0.552786,0.894427 1,0 0.5,-1 1,-2.5 1,-4.5 1,-1 1,-2.5 1,-4 0,-0.771865 -0.5,-1 -2,-1 -1.5,0 -1.5,1 -3,1 -1.5,0 -1.5,-1 -3,-1 z" fill="#000" transform="translate(8.0,8.0) translate(-72.0,-56.0)" /><path d="m 69,51 c -1.5,0 -2,0.228135 -2,1 0,1.5 0,3 1,4 0,2 0.5,3.5 1,4.5 0.447214,0.894427 1,1 1,0 0,-1.5 0.5,-4.5 2,-4.5 1.5,0 2,3 2,4.5 0,1 0.552786,0.894427 1,0 0.5,-1 1,-2.5 1,-4.5 1,-1 1,-2.5 1,-4 0,-0.771865 -0.5,-1 -2,-1 -1.5,0 -1.5,1 -3,1 -1.5,0 -1.5,-1 -3,-1 z" fill="#000" transform="translate(8.0,8.0) translate(-72.0,-56.0)" /></svg>