<?xml version="1.0" encoding="utf-8" ?>
<svg baseProfile="full" height="16" version="1.1" width="16" xmlns="http://www.w3.org/2000/svg" xmlns:ev="http://www.w3.org/2001/xml-events" xmlns:xlink="http://www.w3.org/1999/xlink"><defs /><path d="M 359.57812,49.640625 C 358.39317,50.091847 357.98682,51.298595 358,52.5 c 7e-5,0.535824 0.28596,1.030917 0.75,1.298828 0.4641,0.267949 1.0359,0.267949 1.5,0 0.46403,-0.267911 0.74992,-0.763004 0.75,-1.298828 0,-0.818561 -0.36781,-1.344673 -0.70703,-1.796875 0.004,0.464275 -0.17551,0.807863 -0.41602,1.009766 -0.63673,-0.526641 -0.71293,-1.200797 -0.29883,-2.072266 z M 358,55 c -0.67616,-0.0096 -0.67616,1.009563 0,1 h 0.0762 l 0.92969,5.582031 c 0.0876,0.564529 0.90071,0.564529 0.98828,0 L 360.92383,56 H 361 c 0.67616,0.0096 0.67616,-1.009563 0,-1 H 360.51953 358.5 Z" fill="#000" transform="translate(8.0,8.0) translate(-360.0,-56.0)" /><path d="M 359.57812,49.640625 C 358.39317,50.091847 357.98682,51.298595 358,52.5 c 7e-5,0.535824 0.28596,1.030917 0.75,1.298828 0.4641,0.267949 1.0359,0.267949 1.5,0 0.46403,-0.267911 0.74992,-0.763004 0.75,-1.298828 0,-0.818561 -0.36781,-1.344673 -0.70703,-1.796875 0.004,0.464275 -0.17551,0.807863 -0.41602,1.009766 -0.63673,-0.526641 -0.71293,-1.200797 -0.29883,-2.072266 z M 358,55 c -0.67616,-0.0096 -0.67616,1.009563 0,1 h 0.0762 l 0.92969,5.582031 c 0.0876,0.564529 0.90071,0.564529 0.98828,0 L 360.92383,56 H 361 c 0.67616,0.0096 0.67616,-1.009563 0,-1 H 360.51953 358.5 Z" fill="#000" transform="translate(8.0,8.0) translate(-360.0,-56.0)" /></svg>