<?xml version="1.0" encoding="utf-8" ?>
<svg baseProfile="full" height="16" version="1.1" width="16" xmlns="http://www.w3.org/2000/svg" xmlns:ev="http://www.w3.org/2001/xml-events" xmlns:xlink="http://www.w3.org/1999/xlink"><defs /><path d="m 244,305 v 2 h 8 v -2 h -2 v 1 h -1 v -1 h -2 v 1 h -1 v -1 z m 1,3 -1,8 h 8 l -1,-8 z m 3,2 c 0.554,0 1,0.446 1,1 v 2 h -2 v -2 c 0,-0.554 0.446,-1 1,-1 z m -5,7 v 1 h 10 v -1 z" fill="#000" transform="translate(8.0,8.0) translate(-248.0,-312.0)" /><path d="m 244,305 v 2 h 8 v -2 h -2 v 1 h -1 v -1 h -2 v 1 h -1 v -1 z m 1,3 -1,8 h 8 l -1,-8 z m 3,2 c 0.554,0 1,0.446 1,1 v 2 h -2 v -2 c 0,-0.554 0.446,-1 1,-1 z m -5,7 v 1 h 10 v -1 z" fill="#000" transform="translate(8.0,8.0) translate(-248.0,-312.0)" /></svg>