<?xml version="1.0" encoding="utf-8" ?>
<svg baseProfile="full" height="16" version="1.1" width="16" xmlns="http://www.w3.org/2000/svg" xmlns:ev="http://www.w3.org/2001/xml-events" xmlns:xlink="http://www.w3.org/1999/xlink"><defs /><path d="m 376,306 c -0.0579,-1.5e-4 -0.1154,0.01 -0.16992,0.0293 l -5.5,2 c -0.52829,0.18962 -0.39136,0.97181 0.16992,0.9707 h 1.5 v 4 c 0,0.51671 0.38891,0.93957 0.89062,0.99414 l -0.88085,4.4082 c -0.0539,0.27073 0.12187,0.53389 0.39257,0.58789 0.27073,0.0539 0.53389,-0.12187 0.58789,-0.39257 l 0.12305,-0.61328 c 0.0442,-0.009 0.0869,-0.0243 0.12695,-0.0449 L 376,316.43359 l 2.75977,1.50586 c 0.0401,0.0206 0.0828,0.0357 0.12695,0.0449 l 0.12305,0.61328 c 0.054,0.2707 0.31716,0.44643 0.58789,0.39257 0.2707,-0.054 0.44643,-0.31716 0.39257,-0.58789 l -0.88085,-4.4082 C 379.6111,313.93957 380,313.51671 380,313 v -4 h 1.5 c 0.56128,10e-4 0.69821,-0.78108 0.16992,-0.9707 l -5.5,-2 C 376.1154,306.00977 376.05791,305.99985 376,306 Z m -3,3 h 6 v 3 h -6 z m 0.91016,5 h 4.17968 l 0.0274,0.13867 -2.11719,1.1543 -2.11719,-1.1543 z m -0.23438,1.16602 1.27734,0.69726 -1.58984,0.86719 z m 4.64844,0 0.3125,1.5664 -1.5918,-0.86914 z" fill="#000" transform="translate(8.0,8.0) translate(-376.0,-312.0)" /><path d="m 376,306 c -0.0579,-1.5e-4 -0.1154,0.01 -0.16992,0.0293 l -5.5,2 c -0.52829,0.18962 -0.39136,0.97181 0.16992,0.9707 h 1.5 v 4 c 0,0.51671 0.38891,0.93957 0.89062,0.99414 l -0.88085,4.4082 c -0.0539,0.27073 0.12187,0.53389 0.39257,0.58789 0.27073,0.0539 0.53389,-0.12187 0.58789,-0.39257 l 0.12305,-0.61328 c 0.0442,-0.009 0.0869,-0.0243 0.12695,-0.0449 L 376,316.43359 l 2.75977,1.50586 c 0.0401,0.0206 0.0828,0.0357 0.12695,0.0449 l 0.12305,0.61328 c 0.054,0.2707 0.31716,0.44643 0.58789,0.39257 0.2707,-0.054 0.44643,-0.31716 0.39257,-0.58789 l -0.88085,-4.4082 C 379.6111,313.93957 380,313.51671 380,313 v -4 h 1.5 c 0.56128,10e-4 0.69821,-0.78108 0.16992,-0.9707 l -5.5,-2 C 376.1154,306.00977 376.05791,305.99985 376,306 Z m -3,3 h 6 v 3 h -6 z m 0.91016,5 h 4.17968 l 0.0274,0.13867 -2.11719,1.1543 -2.11719,-1.1543 z m -0.23438,1.16602 1.27734,0.69726 -1.58984,0.86719 z m 4.64844,0 0.3125,1.5664 -1.5918,-0.86914 z" fill="#000" transform="translate(8.0,8.0) translate(-376.0,-312.0)" /></svg>