<?xml version="1.0" encoding="utf-8" ?>
<svg baseProfile="full" height="16" version="1.1" width="16" xmlns="http://www.w3.org/2000/svg" xmlns:ev="http://www.w3.org/2001/xml-events" xmlns:xlink="http://www.w3.org/1999/xlink"><defs /><path d="m 212.5,306 c -0.277,0 -0.5,0.223 -0.5,0.5 0,0.277 0.223,0.5 0.5,0.5 h 7 c 0.277,0 0.5,-0.223 0.5,-0.5 0,-0.277 -0.223,-0.5 -0.5,-0.5 z m 0.5,2 c 0.5,2 0,6 -2,8 v 1 h 10 v -1 c -2,-2 -2.5,-6 -2,-8 z" fill="#000" transform="translate(8.0,8.0) translate(-216.0,-312.0)" /><path d="m 212.5,306 c -0.277,0 -0.5,0.223 -0.5,0.5 0,0.277 0.223,0.5 0.5,0.5 h 7 c 0.277,0 0.5,-0.223 0.5,-0.5 0,-0.277 -0.223,-0.5 -0.5,-0.5 z m 0.5,2 c 0.5,2 0,6 -2,8 v 1 h 10 v -1 c -2,-2 -2.5,-6 -2,-8 z" fill="#000" transform="translate(8.0,8.0) translate(-216.0,-312.0)" /></svg>