<?xml version="1.0" encoding="utf-8" ?>
<svg baseProfile="full" height="16" version="1.1" width="16" xmlns="http://www.w3.org/2000/svg" xmlns:ev="http://www.w3.org/2001/xml-events" xmlns:xlink="http://www.w3.org/1999/xlink"><defs /><path d="m 403.38477,273.87305 c -0.13548,0 -0.26517,0.055 -0.35938,0.15234 C 402.36915,274.68163 402,275.57193 402,276.5 c 0,0.92807 0.36915,1.81837 1.02539,2.47461 0.47125,0.49091 1.19794,-0.23578 0.70703,-0.70703 C 403.26345,277.7986 403,277.16323 403,276.5 c 0,-0.66323 0.26345,-1.2986 0.73242,-1.76758 0.32292,-0.31253 0.10174,-0.85927 -0.34765,-0.85937 z m 8.23046,0 c -0.44939,1e-4 -0.67057,0.54684 -0.34765,0.85937 C 411.73655,275.2014 412,275.83677 412,276.5 c 0,0.66323 -0.26345,1.2986 -0.73242,1.76758 -0.49091,0.47125 0.23578,1.19794 0.70703,0.70703 C 412.63085,278.31837 413,277.42807 413,276.5 c 0,-0.92807 -0.36915,-1.81837 -1.02539,-2.47461 -0.0942,-0.0974 -0.2239,-0.15234 -0.35938,-0.15234 z m -4.12304,0.11914 c -0.27614,0.004 -0.49651,0.23167 -0.49219,0.50781 v 0.5 h -0.5 c -0.37101,3.7e-4 -0.61244,0.39044 -0.44727,0.72266 l 0.5,1 c 0.0845,0.16977 0.25766,0.27717 0.44727,0.27734 v 4.46484 c -4.1e-4,0.0117 -4.1e-4,0.0234 0,0.0352 0,0.91667 -0.23761,1.99637 -0.58984,2.87695 -0.35224,0.88059 -0.87133,1.54504 -1.13282,1.67578 -0.47137,0.23578 -0.30439,0.94617 0.22266,0.94727 h 4 c 0.52705,-0.001 0.69403,-0.71149 0.22266,-0.94727 -0.26149,-0.13074 -0.78058,-0.79519 -1.13282,-1.67578 C 408.23761,283.49637 408,282.41667 408,281.5 V 277 c 0.18961,-1.7e-4 0.36282,-0.10757 0.44727,-0.27734 l 0.5,-1 C 409.11244,275.39044 408.87097,275.00037 408.5,275 H 408 v -0.5 c 0.004,-0.28226 -0.22555,-0.51223 -0.50781,-0.50781 z m -2.69336,1.29492 c -0.13548,0 -0.26517,0.055 -0.35938,0.15234 C 404.15828,275.72062 404,276.10237 404,276.5 c 0,0.39763 0.15828,0.77938 0.43945,1.06055 0.47125,0.49091 1.19794,-0.23578 0.70703,-0.70703 C 405.0526,276.75961 405,276.6328 405,276.5 c 0,-0.1328 0.0526,-0.25961 0.14648,-0.35352 0.32292,-0.31253 0.10174,-0.85927 -0.34765,-0.85937 z m 5.40234,0 c -0.44939,1e-4 -0.67057,0.54684 -0.34765,0.85937 0.0939,0.0939 0.14648,0.22072 0.14648,0.35352 0,0.1328 -0.0526,0.25961 -0.14648,0.35352 -0.49091,0.47125 0.23578,1.19794 0.70703,0.70703 C 410.84172,277.27938 411,276.89763 411,276.5 c 0,-0.39763 -0.15828,-0.77938 -0.43945,-1.06055 -0.0942,-0.0974 -0.2239,-0.15234 -0.35938,-0.15234 z" fill="#000" transform="translate(8.0,8.0) translate(-408.0,-280.0)" /><path d="m 403.38477,273.87305 c -0.13548,0 -0.26517,0.055 -0.35938,0.15234 C 402.36915,274.68163 402,275.57193 402,276.5 c 0,0.92807 0.36915,1.81837 1.02539,2.47461 0.47125,0.49091 1.19794,-0.23578 0.70703,-0.70703 C 403.26345,277.7986 403,277.16323 403,276.5 c 0,-0.66323 0.26345,-1.2986 0.73242,-1.76758 0.32292,-0.31253 0.10174,-0.85927 -0.34765,-0.85937 z m 8.23046,0 c -0.44939,1e-4 -0.67057,0.54684 -0.34765,0.85937 C 411.73655,275.2014 412,275.83677 412,276.5 c 0,0.66323 -0.26345,1.2986 -0.73242,1.76758 -0.49091,0.47125 0.23578,1.19794 0.70703,0.70703 C 412.63085,278.31837 413,277.42807 413,276.5 c 0,-0.92807 -0.36915,-1.81837 -1.02539,-2.47461 -0.0942,-0.0974 -0.2239,-0.15234 -0.35938,-0.15234 z m -4.12304,0.11914 c -0.27614,0.004 -0.49651,0.23167 -0.49219,0.50781 v 0.5 h -0.5 c -0.37101,3.7e-4 -0.61244,0.39044 -0.44727,0.72266 l 0.5,1 c 0.0845,0.16977 0.25766,0.27717 0.44727,0.27734 v 4.46484 c -4.1e-4,0.0117 -4.1e-4,0.0234 0,0.0352 0,0.91667 -0.23761,1.99637 -0.58984,2.87695 -0.35224,0.88059 -0.87133,1.54504 -1.13282,1.67578 -0.47137,0.23578 -0.30439,0.94617 0.22266,0.94727 h 4 c 0.52705,-0.001 0.69403,-0.71149 0.22266,-0.94727 -0.26149,-0.13074 -0.78058,-0.79519 -1.13282,-1.67578 C 408.23761,283.49637 408,282.41667 408,281.5 V 277 c 0.18961,-1.7e-4 0.36282,-0.10757 0.44727,-0.27734 l 0.5,-1 C 409.11244,275.39044 408.87097,275.00037 408.5,275 H 408 v -0.5 c 0.004,-0.28226 -0.22555,-0.51223 -0.50781,-0.50781 z m -2.69336,1.29492 c -0.13548,0 -0.26517,0.055 -0.35938,0.15234 C 404.15828,275.72062 404,276.10237 404,276.5 c 0,0.39763 0.15828,0.77938 0.43945,1.06055 0.47125,0.49091 1.19794,-0.23578 0.70703,-0.70703 C 405.0526,276.75961 405,276.6328 405,276.5 c 0,-0.1328 0.0526,-0.25961 0.14648,-0.35352 0.32292,-0.31253 0.10174,-0.85927 -0.34765,-0.85937 z m 5.40234,0 c -0.44939,1e-4 -0.67057,0.54684 -0.34765,0.85937 0.0939,0.0939 0.14648,0.22072 0.14648,0.35352 0,0.1328 -0.0526,0.25961 -0.14648,0.35352 -0.49091,0.47125 0.23578,1.19794 0.70703,0.70703 C 410.84172,277.27938 411,276.89763 411,276.5 c 0,-0.39763 -0.15828,-0.77938 -0.43945,-1.06055 -0.0942,-0.0974 -0.2239,-0.15234 -0.35938,-0.15234 z" fill="#000" transform="translate(8.0,8.0) translate(-408.0,-280.0)" /></svg>