<?xml version="1.0" encoding="utf-8" ?>
<svg baseProfile="full" height="16" version="1.1" width="16" xmlns="http://www.w3.org/2000/svg" xmlns:ev="http://www.w3.org/2001/xml-events" xmlns:xlink="http://www.w3.org/1999/xlink"><defs /><path d="m 695,113 v 3.66602 L 694,120 v 1.5 l -1,0.5 h -2 c -0.554,0 -1,0.446 -1,1 v 1 1 2 h 1 1 v -2.5 c 0,-0.277 0.223,-0.5 0.5,-0.5 0.277,0 0.5,0.223 0.5,0.5 v 2.5 h 1 v -2.5 c 0,-0.277 0.223,-0.5 0.5,-0.5 0.277,0 0.5,0.223 0.5,0.5 v 2.5 h 1 v -2.5 c 0,-0.277 0.223,-0.5 0.5,-0.5 0.277,0 0.5,0.223 0.5,0.5 v 2.5 h 1 v -2.5 c 0,-0.277 0.223,-0.5 0.5,-0.5 0.277,0 0.5,0.223 0.5,0.5 v 2.5 h 1 1 v -2 -1 -1 c 0,-0.554 -0.446,-1 -1,-1 h -2 l -1,-0.5 V 120 l -1,-3.33398 V 115 h 3 v -2 h -3 z m 0.5,7.05078 c 0.277,0 0.5,0.223 0.5,0.5 v 0.89844 c 0,0.277 -0.223,0.5 -0.5,0.5 -0.277,0 -0.5,-0.223 -0.5,-0.5 v -0.89844 c 0,-0.277 0.223,-0.5 0.5,-0.5 z" fill="#000" transform="translate(8.0,8.0) translate(-696.0,-120.0)" /><path d="m 695,113 v 3.66602 L 694,120 v 1.5 l -1,0.5 h -2 c -0.554,0 -1,0.446 -1,1 v 1 1 2 h 1 1 v -2.5 c 0,-0.277 0.223,-0.5 0.5,-0.5 0.277,0 0.5,0.223 0.5,0.5 v 2.5 h 1 v -2.5 c 0,-0.277 0.223,-0.5 0.5,-0.5 0.277,0 0.5,0.223 0.5,0.5 v 2.5 h 1 v -2.5 c 0,-0.277 0.223,-0.5 0.5,-0.5 0.277,0 0.5,0.223 0.5,0.5 v 2.5 h 1 v -2.5 c 0,-0.277 0.223,-0.5 0.5,-0.5 0.277,0 0.5,0.223 0.5,0.5 v 2.5 h 1 1 v -2 -1 -1 c 0,-0.554 -0.446,-1 -1,-1 h -2 l -1,-0.5 V 120 l -1,-3.33398 V 115 h 3 v -2 h -3 z m 0.5,7.05078 c 0.277,0 0.5,0.223 0.5,0.5 v 0.89844 c 0,0.277 -0.223,0.5 -0.5,0.5 -0.277,0 -0.5,-0.223 -0.5,-0.5 v -0.89844 c 0,-0.277 0.223,-0.5 0.5,-0.5 z" fill="#000" transform="translate(8.0,8.0) translate(-696.0,-120.0)" /></svg>