<?xml version="1.0" encoding="utf-8" ?>
<svg baseProfile="full" height="16" version="1.1" width="16" xmlns="http://www.w3.org/2000/svg" xmlns:ev="http://www.w3.org/2001/xml-events" xmlns:xlink="http://www.w3.org/1999/xlink"><defs /><path d="m 481,242.5 c -0.44533,1.7e-4 -0.66831,0.53852 -0.35352,0.85352 L 481.5,244.20703 V 247 c 3e-5,0.27613 0.22387,0.49997 0.5,0.5 h 0.5 c 0.21529,1.1e-4 0.40648,-0.13758 0.47461,-0.3418 l 0.74414,-2.23242 L 484,245.20703 V 246.5 247 c 0,0.125 9.8e-4,0.28125 0,0.46094 -0.006,1.10019 -0.0502,3.07835 -0.35352,4.14258 -0.33534,-0.23931 -0.65405,-0.50562 -0.94921,-0.80079 -0.19525,-0.19522 -0.51179,-0.19522 -0.70704,0 -0.19522,0.19525 -0.19522,0.51179 0,0.70704 C 483.58416,253.10369 485.74585,254 488,254 c 2.25415,0 4.41584,-0.89631 6.00977,-2.49023 0.19522,-0.19525 0.19522,-0.51179 0,-0.70704 -0.0937,-0.0938 -0.22092,-0.14646 -0.35352,-0.14648 -0.1326,2e-5 -0.25977,0.0527 -0.35352,0.14648 -0.29516,0.29517 -0.61387,0.56148 -0.94921,0.80079 -0.30336,-1.06423 -0.34754,-3.04239 -0.35352,-4.14258 -9.8e-4,-0.17969 0,-0.33594 0,-0.46094 v -0.5 c 0,-0.277 -0.223,-0.5 -0.5,-0.5 h -6 v -1 c 0,-0.66667 -0.31792,-1.27495 -0.77148,-1.72852 C 484.27495,242.81792 483.66667,242.5 483,242.5 Z m 12,1 c -0.21529,-1.1e-4 -0.40648,0.13758 -0.47461,0.3418 l -0.5,1.5 c -0.1672,0.5008 0.45504,0.8853 0.82813,0.51172 l 1,-1 0.5,-0.5 c 0.31479,-0.315 0.0918,-0.85335 -0.35352,-0.85352 z m -1.64062,8.70312 C 490.32615,252.72113 489.17774,253 488,253 c -1.17774,0 -2.32615,-0.27887 -3.35938,-0.79688 C 486,249 490,249 491.35938,252.20312 Z" fill="#000" transform="translate(8.0,8.0) translate(-488.0,-248.0)" /><path d="m 481,242.5 c -0.44533,1.7e-4 -0.66831,0.53852 -0.35352,0.85352 L 481.5,244.20703 V 247 c 3e-5,0.27613 0.22387,0.49997 0.5,0.5 h 0.5 c 0.21529,1.1e-4 0.40648,-0.13758 0.47461,-0.3418 l 0.74414,-2.23242 L 484,245.20703 V 246.5 247 c 0,0.125 9.8e-4,0.28125 0,0.46094 -0.006,1.10019 -0.0502,3.07835 -0.35352,4.14258 -0.33534,-0.23931 -0.65405,-0.50562 -0.94921,-0.80079 -0.19525,-0.19522 -0.51179,-0.19522 -0.70704,0 -0.19522,0.19525 -0.19522,0.51179 0,0.70704 C 483.58416,253.10369 485.74585,254 488,254 c 2.25415,0 4.41584,-0.89631 6.00977,-2.49023 0.19522,-0.19525 0.19522,-0.51179 0,-0.70704 -0.0937,-0.0938 -0.22092,-0.14646 -0.35352,-0.14648 -0.1326,2e-5 -0.25977,0.0527 -0.35352,0.14648 -0.29516,0.29517 -0.61387,0.56148 -0.94921,0.80079 -0.30336,-1.06423 -0.34754,-3.04239 -0.35352,-4.14258 -9.8e-4,-0.17969 0,-0.33594 0,-0.46094 v -0.5 c 0,-0.277 -0.223,-0.5 -0.5,-0.5 h -6 v -1 c 0,-0.66667 -0.31792,-1.27495 -0.77148,-1.72852 C 484.27495,242.81792 483.66667,242.5 483,242.5 Z m 12,1 c -0.21529,-1.1e-4 -0.40648,0.13758 -0.47461,0.3418 l -0.5,1.5 c -0.1672,0.5008 0.45504,0.8853 0.82813,0.51172 l 1,-1 0.5,-0.5 c 0.31479,-0.315 0.0918,-0.85335 -0.35352,-0.85352 z m -1.64062,8.70312 C 490.32615,252.72113 489.17774,253 488,253 c -1.17774,0 -2.32615,-0.27887 -3.35938,-0.79688 C 486,249 490,249 491.35938,252.20312 Z" fill="#000" transform="translate(8.0,8.0) translate(-488.0,-248.0)" /></svg>