<?xml version="1.0" encoding="utf-8" ?>
<svg baseProfile="full" height="16" version="1.1" width="16" xmlns="http://www.w3.org/2000/svg" xmlns:ev="http://www.w3.org/2001/xml-events" xmlns:xlink="http://www.w3.org/1999/xlink"><defs /><path d="m 550.5,566 c -1.38333,0 -2.1875,0.60938 -2.8125,1.10938 -0.625,0.5 -1.07083,0.89062 -2.1875,0.89062 -0.017,4.7e-4 -0.034,0.002 -0.0508,0.004 -0.0164,0.002 -0.0327,0.005 -0.0488,0.008 -0.0486,0.0106 -0.0953,0.0283 -0.13867,0.0527 -0.0441,0.0244 -0.0843,0.0554 -0.11914,0.0918 -0.0455,0.0491 -0.0807,0.10692 -0.10352,0.16992 -0.0177,0.047 -0.0282,0.0964 -0.0312,0.14649 -0.002,0.0333 -6.5e-4,0.0666 0.004,0.0996 0.005,0.0327 0.0138,0.0647 0.0254,0.0957 0.0107,0.0312 0.0244,0.0613 0.041,0.0898 0.009,0.0148 0.0188,0.0292 0.0293,0.043 0.0197,0.0262 0.042,0.0504 0.0664,0.0723 0.0373,0.0334 0.0795,0.0611 0.125,0.082 0.0308,0.0136 0.0628,0.024 0.0957,0.0312 0.0161,0.004 0.0324,0.007 0.0488,0.01 0.0188,0.002 0.0376,0.003 0.0565,0.003 h 13 c 0.017,-4.7e-4 0.034,-0.002 0.0508,-0.004 0.0164,-0.002 0.0327,-0.005 0.0488,-0.008 0.0653,-0.0143 0.12705,-0.0415 0.18164,-0.0801 0.0275,-0.0189 0.053,-0.0405 0.0762,-0.0644 0.034,-0.0366 0.0623,-0.0781 0.084,-0.12305 0.007,-0.0153 0.0138,-0.031 0.0195,-0.0469 0.006,-0.0154 0.0112,-0.031 0.0156,-0.0469 0.004,-0.0161 0.007,-0.0324 0.01,-0.0488 0.005,-0.0329 0.007,-0.0663 0.006,-0.0996 -4.7e-4,-0.017 -0.002,-0.034 -0.004,-0.0508 -0.003,-0.0164 -0.006,-0.0327 -0.01,-0.0488 -0.004,-0.0159 -0.01,-0.0315 -0.0156,-0.0469 -0.005,-0.0159 -0.0109,-0.0316 -0.0176,-0.0469 -0.007,-0.0147 -0.0149,-0.0291 -0.0234,-0.043 -0.009,-0.0148 -0.0188,-0.0292 -0.0293,-0.043 -0.0403,-0.0531 -0.0907,-0.0976 -0.14844,-0.13086 -0.0724,-0.0424 -0.15437,-0.066 -0.23828,-0.0684 h -0.006 c -1.11667,0 -1.5625,-0.39062 -2.1875,-0.89062 C 555.6875,566.60938 554.88333,566 553.5,566 Z" fill="#000" transform="translate(8.0,8.0) translate(-552.0,-568.0)" /><path d="m 550.5,566 c -1.38333,0 -2.1875,0.60938 -2.8125,1.10938 -0.625,0.5 -1.07083,0.89062 -2.1875,0.89062 -0.017,4.7e-4 -0.034,0.002 -0.0508,0.004 -0.0164,0.002 -0.0327,0.005 -0.0488,0.008 -0.0486,0.0106 -0.0953,0.0283 -0.13867,0.0527 -0.0441,0.0244 -0.0843,0.0554 -0.11914,0.0918 -0.0455,0.0491 -0.0807,0.10692 -0.10352,0.16992 -0.0177,0.047 -0.0282,0.0964 -0.0312,0.14649 -0.002,0.0333 -6.5e-4,0.0666 0.004,0.0996 0.005,0.0327 0.0138,0.0647 0.0254,0.0957 0.0107,0.0312 0.0244,0.0613 0.041,0.0898 0.009,0.0148 0.0188,0.0292 0.0293,0.043 0.0197,0.0262 0.042,0.0504 0.0664,0.0723 0.0373,0.0334 0.0795,0.0611 0.125,0.082 0.0308,0.0136 0.0628,0.024 0.0957,0.0312 0.0161,0.004 0.0324,0.007 0.0488,0.01 0.0188,0.002 0.0376,0.003 0.0565,0.003 h 13 c 0.017,-4.7e-4 0.034,-0.002 0.0508,-0.004 0.0164,-0.002 0.0327,-0.005 0.0488,-0.008 0.0653,-0.0143 0.12705,-0.0415 0.18164,-0.0801 0.0275,-0.0189 0.053,-0.0405 0.0762,-0.0644 0.034,-0.0366 0.0623,-0.0781 0.084,-0.12305 0.007,-0.0153 0.0138,-0.031 0.0195,-0.0469 0.006,-0.0154 0.0112,-0.031 0.0156,-0.0469 0.004,-0.0161 0.007,-0.0324 0.01,-0.0488 0.005,-0.0329 0.007,-0.0663 0.006,-0.0996 -4.7e-4,-0.017 -0.002,-0.034 -0.004,-0.0508 -0.003,-0.0164 -0.006,-0.0327 -0.01,-0.0488 -0.004,-0.0159 -0.01,-0.0315 -0.0156,-0.0469 -0.005,-0.0159 -0.0109,-0.0316 -0.0176,-0.0469 -0.007,-0.0147 -0.0149,-0.0291 -0.0234,-0.043 -0.009,-0.0148 -0.0188,-0.0292 -0.0293,-0.043 -0.0403,-0.0531 -0.0907,-0.0976 -0.14844,-0.13086 -0.0724,-0.0424 -0.15437,-0.066 -0.23828,-0.0684 h -0.006 c -1.11667,0 -1.5625,-0.39062 -2.1875,-0.89062 C 555.6875,566.60938 554.88333,566 553.5,566 Z" fill="#000" transform="translate(8.0,8.0) translate(-552.0,-568.0)" /></svg>