<?xml version="1.0" encoding="utf-8" ?>
<svg baseProfile="full" height="16" version="1.1" width="16" xmlns="http://www.w3.org/2000/svg" xmlns:ev="http://www.w3.org/2001/xml-events" xmlns:xlink="http://www.w3.org/1999/xlink"><defs /><path d="M 564.48438,566 C 564.21603,566 564,566.223 564,566.5 v 1.5 h -2.51562 C 561.21603,568 561,568.223 561,568.5 c 0,0.277 0.21603,0.5 0.48438,0.5 h 3 7.03124 3 c 0.26835,0 0.48438,-0.223 0.48438,-0.5 0,-0.277 -0.21603,-0.5 -0.48438,-0.5 H 572 v -1.5 c 0,-0.277 -0.21603,-0.5 -0.48438,-0.5 z" fill="#000" transform="translate(8.0,8.0) translate(-568.0,-568.0)" /><path d="M 564.48438,566 C 564.21603,566 564,566.223 564,566.5 v 1.5 h -2.51562 C 561.21603,568 561,568.223 561,568.5 c 0,0.277 0.21603,0.5 0.48438,0.5 h 3 7.03124 3 c 0.26835,0 0.48438,-0.223 0.48438,-0.5 0,-0.277 -0.21603,-0.5 -0.48438,-0.5 H 572 v -1.5 c 0,-0.277 -0.21603,-0.5 -0.48438,-0.5 z" fill="#000" transform="translate(8.0,8.0) translate(-568.0,-568.0)" /></svg>