<?xml version="1.0" encoding="utf-8" ?>
<svg baseProfile="full" height="16" version="1.1" width="16" xmlns="http://www.w3.org/2000/svg" xmlns:ev="http://www.w3.org/2001/xml-events" xmlns:xlink="http://www.w3.org/1999/xlink"><defs /><path d="m 116,530 c -0.554,0 -1,0.446 -1,1 v 1 6 1 c 0,0.554 0.446,1 1,1 h 1 6 1 c 0.554,0 1,-0.446 1,-1 v -1 -6 -1 c 0,-0.554 -0.446,-1 -1,-1 h -1 -6 z m 0.5,2 h 0.5 0.5 5 0.5 0.5 c 0.277,0 0.5,0.223 0.5,0.5 v 0.5 0.5 1 0.5 0.5 c 0,0.277 -0.223,0.5 -0.5,0.5 h -0.5 -0.5 -5 -0.5 -0.5 c -0.277,0 -0.5,-0.223 -0.5,-0.5 v -0.5 -0.5 -1 -0.5 -0.5 c 0,-0.277 0.223,-0.5 0.5,-0.5 z m 0,5 h 1 c 0.277,0 0.5,0.223 0.5,0.5 v 1 c 0,0.277 -0.223,0.5 -0.5,0.5 h -0.5 -0.5 c -0.277,0 -0.5,-0.223 -0.5,-0.5 v -0.5 -0.5 c 0,-0.277 0.223,-0.5 0.5,-0.5 z m 6,0 h 1 c 0.277,0 0.5,0.223 0.5,0.5 v 0.5 0.5 c 0,0.277 -0.223,0.5 -0.5,0.5 h -0.5 -0.5 c -0.277,0 -0.5,-0.223 -0.5,-0.5 v -0.5 -0.5 c 0,-0.20775 0.13292,-0.39305 0.3125,-0.46875 0.0599,-0.0252 0.11825,-0.0312 0.1875,-0.0312 z m -6.5,4 v 1 h -1.5 c -0.277,0 -0.5,0.223 -0.5,0.5 0,0.277 0.223,0.5 0.5,0.5 h 11 c 0.277,0 0.5,-0.223 0.5,-0.5 0,-0.277 -0.223,-0.5 -0.5,-0.5 H 124 v -1 h -1 v 1 h -6 v -1 z" fill="#000" transform="translate(8.0,8.0) translate(-120.0,-536.0)" /><path d="m 116,530 c -0.554,0 -1,0.446 -1,1 v 1 6 1 c 0,0.554 0.446,1 1,1 h 1 6 1 c 0.554,0 1,-0.446 1,-1 v -1 -6 -1 c 0,-0.554 -0.446,-1 -1,-1 h -1 -6 z m 0.5,2 h 0.5 0.5 5 0.5 0.5 c 0.277,0 0.5,0.223 0.5,0.5 v 0.5 0.5 1 0.5 0.5 c 0,0.277 -0.223,0.5 -0.5,0.5 h -0.5 -0.5 -5 -0.5 -0.5 c -0.277,0 -0.5,-0.223 -0.5,-0.5 v -0.5 -0.5 -1 -0.5 -0.5 c 0,-0.277 0.223,-0.5 0.5,-0.5 z m 0,5 h 1 c 0.277,0 0.5,0.223 0.5,0.5 v 1 c 0,0.277 -0.223,0.5 -0.5,0.5 h -0.5 -0.5 c -0.277,0 -0.5,-0.223 -0.5,-0.5 v -0.5 -0.5 c 0,-0.277 0.223,-0.5 0.5,-0.5 z m 6,0 h 1 c 0.277,0 0.5,0.223 0.5,0.5 v 0.5 0.5 c 0,0.277 -0.223,0.5 -0.5,0.5 h -0.5 -0.5 c -0.277,0 -0.5,-0.223 -0.5,-0.5 v -0.5 -0.5 c 0,-0.20775 0.13292,-0.39305 0.3125,-0.46875 0.0599,-0.0252 0.11825,-0.0312 0.1875,-0.0312 z m -6.5,4 v 1 h -1.5 c -0.277,0 -0.5,0.223 -0.5,0.5 0,0.277 0.223,0.5 0.5,0.5 h 11 c 0.277,0 0.5,-0.223 0.5,-0.5 0,-0.277 -0.223,-0.5 -0.5,-0.5 H 124 v -1 h -1 v 1 h -6 v -1 z" fill="#000" transform="translate(8.0,8.0) translate(-120.0,-536.0)" /></svg>