<?xml version="1.0" encoding="utf-8" ?>
<svg baseProfile="full" height="16" version="1.1" width="16" xmlns="http://www.w3.org/2000/svg" xmlns:ev="http://www.w3.org/2001/xml-events" xmlns:xlink="http://www.w3.org/1999/xlink"><defs /><path d="m 165.34375,529 c -0.36527,0.11639 -0.46909,0.58361 -0.1875,0.84375 L 166.3125,531 H 165 c -0.554,0 -1,0.446 -1,1 v 8 c 0,0.554 0.446,1 1,1 v 0.5 c 0,0.277 0.223,0.5 0.5,0.5 0.277,0 0.5,-0.223 0.5,-0.5 V 541 h 4 v 0.5 c 0,0.277 0.223,0.5 0.5,0.5 0.277,0 0.5,-0.223 0.5,-0.5 V 541 c 0.554,0 1,-0.446 1,-1 v -8 c 0,-0.554 -0.446,-1 -1,-1 h -1.3125 l 1.15625,-1.15625 c 0.29589,-0.31206 0.086,-0.82731 -0.34375,-0.84375 h -5 c -0.0312,-0.003 -0.0626,-0.003 -0.0937,0 -0.0208,-10e-4 -0.0417,-10e-4 -0.0625,0 z m 1.34375,1 h 2.625 l -1,1 h -0.625 z m -0.9375,2 h 1.65625 0.21875 0.75 0.1875 1.6875 c 0.4155,0 0.75,0.3345 0.75,0.75 v 3.5 c 0,0.4155 -0.3345,0.75 -0.75,0.75 h -4.5 c -0.4155,0 -0.75,-0.3345 -0.75,-0.75 v -3.5 c 0,-0.4155 0.3345,-0.75 0.75,-0.75 z m 2.25,6 a 1,1 0 0 1 1,1 1,1 0 0 1 -1,1 1,1 0 0 1 -1,-1 1,1 0 0 1 1,-1 z" fill="#000" transform="translate(8.0,8.0) translate(-168.0,-536.0)" /><path d="m 165.34375,529 c -0.36527,0.11639 -0.46909,0.58361 -0.1875,0.84375 L 166.3125,531 H 165 c -0.554,0 -1,0.446 -1,1 v 8 c 0,0.554 0.446,1 1,1 v 0.5 c 0,0.277 0.223,0.5 0.5,0.5 0.277,0 0.5,-0.223 0.5,-0.5 V 541 h 4 v 0.5 c 0,0.277 0.223,0.5 0.5,0.5 0.277,0 0.5,-0.223 0.5,-0.5 V 541 c 0.554,0 1,-0.446 1,-1 v -8 c 0,-0.554 -0.446,-1 -1,-1 h -1.3125 l 1.15625,-1.15625 c 0.29589,-0.31206 0.086,-0.82731 -0.34375,-0.84375 h -5 c -0.0312,-0.003 -0.0626,-0.003 -0.0937,0 -0.0208,-10e-4 -0.0417,-10e-4 -0.0625,0 z m 1.34375,1 h 2.625 l -1,1 h -0.625 z m -0.9375,2 h 1.65625 0.21875 0.75 0.1875 1.6875 c 0.4155,0 0.75,0.3345 0.75,0.75 v 3.5 c 0,0.4155 -0.3345,0.75 -0.75,0.75 h -4.5 c -0.4155,0 -0.75,-0.3345 -0.75,-0.75 v -3.5 c 0,-0.4155 0.3345,-0.75 0.75,-0.75 z m 2.25,6 a 1,1 0 0 1 1,1 1,1 0 0 1 -1,1 1,1 0 0 1 -1,-1 1,1 0 0 1 1,-1 z" fill="#000" transform="translate(8.0,8.0) translate(-168.0,-536.0)" /></svg>