<?xml version="1.0" encoding="utf-8" ?>
<svg baseProfile="full" height="16" version="1.1" width="16" xmlns="http://www.w3.org/2000/svg" xmlns:ev="http://www.w3.org/2001/xml-events" xmlns:xlink="http://www.w3.org/1999/xlink"><defs /><path d="m 87,210 c -0.554,0 -1,0.446 -1,1 -0.554,0 -1,0.446 -1,1 v 1 c -0.554,0 -1,0.446 -1,1 v 2 c 0,0.554 0.446,1 1,1 0,0.554 0.446,1 1,1 l 1,2 v 3 h 2 v -3 l 1,-2 c 0.554,0 1,-0.446 1,-1 0.554,0 1,-0.446 1,-1 v -2 c 0,-0.554 -0.446,-1 -1,-1 v -1 c 0,-0.554 -0.446,-1 -1,-1 0,-0.554 -0.446,-1 -1,-1 z m 6.5,0 c -1.5,1 -1.5,3 0,4 1.5,-1 1.5,-3 0,-4 z m -6.5,8 h 2 l -1,1.5 z" fill="#000" transform="translate(8.0,8.0) translate(-88.0,-216.0)" /><path d="m 37,223 h 6 l 2,-2 H 35 Z" fill="#000" transform="translate(8.0,8.0) translate(-40.0,-216.0)" /><path d="m 87,210 c -0.554,0 -1,0.446 -1,1 -0.554,0 -1,0.446 -1,1 v 1 c -0.554,0 -1,0.446 -1,1 v 2 c 0,0.554 0.446,1 1,1 0,0.554 0.446,1 1,1 l 1,2 v 3 h 2 v -3 l 1,-2 c 0.554,0 1,-0.446 1,-1 0.554,0 1,-0.446 1,-1 v -2 c 0,-0.554 -0.446,-1 -1,-1 v -1 c 0,-0.554 -0.446,-1 -1,-1 0,-0.554 -0.446,-1 -1,-1 z m 6.5,0 c -1.5,1 -1.5,3 0,4 1.5,-1 1.5,-3 0,-4 z m -6.5,8 h 2 l -1,1.5 z" fill="#000" transform="translate(8.0,8.0) translate(-88.0,-216.0)" /><path d="m 37,223 h 6 l 2,-2 H 35 Z" fill="#000" transform="translate(8.0,8.0) translate(-40.0,-216.0)" /></svg>