<?xml version="1.0" encoding="utf-8" ?>
<svg baseProfile="full" height="16" version="1.1" width="16" xmlns="http://www.w3.org/2000/svg" xmlns:ev="http://www.w3.org/2001/xml-events" xmlns:xlink="http://www.w3.org/1999/xlink"><defs /><path d="m 616.01562,149 c -0.18139,-0.006 -0.35182,0.0866 -0.44531,0.24219 l -3,5 c -0.20076,0.33374 0.0402,0.75874 0.42969,0.75781 h 6 c 0.38947,9.3e-4 0.63045,-0.42407 0.42969,-0.75781 l -3,-5 c -0.0878,-0.14598 -0.24381,-0.23725 -0.41407,-0.24219 z" fill="#000" transform="translate(8.0,8.0) translate(-616.0,-152.0)" /><path d="m 616.01562,149 c -0.18139,-0.006 -0.35182,0.0866 -0.44531,0.24219 l -3,5 c -0.20076,0.33374 0.0402,0.75874 0.42969,0.75781 h 6 c 0.38947,9.3e-4 0.63045,-0.42407 0.42969,-0.75781 l -3,-5 c -0.0878,-0.14598 -0.24381,-0.23725 -0.41407,-0.24219 z" fill="#000" transform="translate(8.0,8.0) translate(-616.0,-152.0)" /></svg>