<?xml version="1.0" encoding="utf-8" ?>
<svg baseProfile="full" height="16" version="1.1" width="16" xmlns="http://www.w3.org/2000/svg" xmlns:ev="http://www.w3.org/2001/xml-events" xmlns:xlink="http://www.w3.org/1999/xlink"><defs /><path d="m 563,275 a 1.0001,1.0001 0 0 0 -0.86133,1.50781 l 5,8.5 a 1.0001,1.0001 0 0 0 1.72266,0 l 5,-8.5 A 1.0001,1.0001 0 0 0 573,275 Z m 1.74805,2 h 6.5039 L 568,282.52734 Z" fill="#000" transform="translate(8.0,8.0) translate(-568.0,-280.0)" /><path d="m 563,275 a 1.0001,1.0001 0 0 0 -0.86133,1.50781 l 5,8.5 a 1.0001,1.0001 0 0 0 1.72266,0 l 5,-8.5 A 1.0001,1.0001 0 0 0 573,275 Z m 1.74805,2 h 6.5039 L 568,282.52734 Z" fill="#000" transform="translate(8.0,8.0) translate(-568.0,-280.0)" /></svg>