<?xml version="1.0" encoding="utf-8" ?>
<svg baseProfile="full" height="16" version="1.1" width="16" xmlns="http://www.w3.org/2000/svg" xmlns:ev="http://www.w3.org/2001/xml-events" xmlns:xlink="http://www.w3.org/1999/xlink"><defs /><path d="m 151,529 a 0.5,0.5 0 0 0 -0.35352,0.14648 L 148.79297,531 H 148 c -0.554,0 -1,0.446 -1,1 v 8 c 0,0.554 0.446,1 1,1 v 0.66602 c 0,0.18466 0.14932,0.33398 0.33398,0.33398 h 0.33204 C 148.85068,542 149,541.85068 149,541.66602 V 541 h 6 v 0.66602 c 0,0.18466 0.14932,0.33398 0.33398,0.33398 h 0.33204 C 155.85068,542 156,541.85068 156,541.66602 V 541 c 0.554,0 1,-0.446 1,-1 v -8 c 0,-0.554 -0.446,-1 -1,-1 h -1.79297 l 1.14649,-1.14648 a 0.5,0.5 0 0 0 0,-0.70704 A 0.5,0.5 0 0 0 155,529 a 0.5,0.5 0 0 0 -0.35352,0.14648 L 152.79297,531 h -2.58594 l 1.14649,-1.14648 a 0.5,0.5 0 0 0 0,-0.70704 A 0.5,0.5 0 0 0 151,529 Z m -2.25,3 h 6.5 c 0.4155,0 0.75,0.3345 0.75,0.75 v 2.25 1.25 0.25 c 0,0.831 -0.669,1.5 -1.5,1.5 h -5 c -0.831,0 -1.5,-0.669 -1.5,-1.5 v -0.25 -1.25 -2.25 c 0,-0.4155 0.3345,-0.75 0.75,-0.75 z m -0.27539,7 c 0.009,-4.3e-4 0.0167,0 0.0254,0 h 1 c 0.277,0 0.5,0.223 0.5,0.5 0,0.277 -0.223,0.5 -0.5,0.5 h -1 c -0.277,0 -0.5,-0.223 -0.5,-0.5 0,-0.26834 0.2097,-0.48666 0.47461,-0.5 z m 6,0 c 0.009,-4.3e-4 0.0167,0 0.0254,0 h 1 c 0.277,0 0.5,0.223 0.5,0.5 0,0.277 -0.223,0.5 -0.5,0.5 h -1 c -0.277,0 -0.5,-0.223 -0.5,-0.5 0,-0.26834 0.2097,-0.48666 0.47461,-0.5 z" fill="#000" transform="translate(8.0,8.0) translate(-152.0,-536.0)" /><path d="m 151,529 a 0.5,0.5 0 0 0 -0.35352,0.14648 L 148.79297,531 H 148 c -0.554,0 -1,0.446 -1,1 v 8 c 0,0.554 0.446,1 1,1 v 0.66602 c 0,0.18466 0.14932,0.33398 0.33398,0.33398 h 0.33204 C 148.85068,542 149,541.85068 149,541.66602 V 541 h 6 v 0.66602 c 0,0.18466 0.14932,0.33398 0.33398,0.33398 h 0.33204 C 155.85068,542 156,541.85068 156,541.66602 V 541 c 0.554,0 1,-0.446 1,-1 v -8 c 0,-0.554 -0.446,-1 -1,-1 h -1.79297 l 1.14649,-1.14648 a 0.5,0.5 0 0 0 0,-0.70704 A 0.5,0.5 0 0 0 155,529 a 0.5,0.5 0 0 0 -0.35352,0.14648 L 152.79297,531 h -2.58594 l 1.14649,-1.14648 a 0.5,0.5 0 0 0 0,-0.70704 A 0.5,0.5 0 0 0 151,529 Z m -2.25,3 h 6.5 c 0.4155,0 0.75,0.3345 0.75,0.75 v 2.25 1.25 0.25 c 0,0.831 -0.669,1.5 -1.5,1.5 h -5 c -0.831,0 -1.5,-0.669 -1.5,-1.5 v -0.25 -1.25 -2.25 c 0,-0.4155 0.3345,-0.75 0.75,-0.75 z m -0.27539,7 c 0.009,-4.3e-4 0.0167,0 0.0254,0 h 1 c 0.277,0 0.5,0.223 0.5,0.5 0,0.277 -0.223,0.5 -0.5,0.5 h -1 c -0.277,0 -0.5,-0.223 -0.5,-0.5 0,-0.26834 0.2097,-0.48666 0.47461,-0.5 z m 6,0 c 0.009,-4.3e-4 0.0167,0 0.0254,0 h 1 c 0.277,0 0.5,0.223 0.5,0.5 0,0.277 -0.223,0.5 -0.5,0.5 h -1 c -0.277,0 -0.5,-0.223 -0.5,-0.5 0,-0.26834 0.2097,-0.48666 0.47461,-0.5 z" fill="#000" transform="translate(8.0,8.0) translate(-152.0,-536.0)" /></svg>