<?xml version="1.0" encoding="utf-8" ?>
<svg baseProfile="full" height="16" version="1.1" width="16" xmlns="http://www.w3.org/2000/svg" xmlns:ev="http://www.w3.org/2001/xml-events" xmlns:xlink="http://www.w3.org/1999/xlink"><defs /><path d="m 359.5,274 c -0.277,0 -0.5,0.223 -0.5,0.5 v 5.82422 l -3.89062,4.86328 a 0.50024018,0.50024018 0 1 0 0.78124,0.625 L 359,281.92578 V 285.5 c 0,0.277 0.223,0.5 0.5,0.5 h 1 c 0.277,0 0.5,-0.223 0.5,-0.5 v -3.57422 l 3.10938,3.88672 a 0.50024018,0.50024018 0 1 0 0.78124,-0.625 L 361,280.32422 V 274.5 c 0,-0.277 -0.223,-0.5 -0.5,-0.5 z" fill="#000" transform="translate(8.0,8.0) translate(-360.0,-280.0)" /><path d="m 198.48242,340.99609 a 0.50005,0.50005 0 0 0 -0.20508,0.95118 l 2,1 a 0.50005,0.50005 0 1 0 0.44532,-0.89454 l -2,-1 a 0.50005,0.50005 0 0 0 -0.24024,-0.0566 z m 2.01953,3 a 0.50005,0.50005 0 0 0 -0.22461,0.0566 l -2,1 a 0.50005,0.50005 0 1 0 0.44532,0.89454 l 2,-1 a 0.50005,0.50005 0 0 0 -0.22071,-0.95118 z" fill="#000" transform="translate(5.0,5.0) translate(-200.0,-344.0)" /><path d="m 217.50195,340.99609 a 0.50005,0.50005 0 0 0 -0.22461,0.0566 l -2,1 a 0.50005,0.50005 0 1 0 0.44532,0.89454 l 2,-1 a 0.50005,0.50005 0 0 0 -0.22071,-0.95118 z m -2.01953,3 a 0.50005,0.50005 0 0 0 -0.20508,0.95118 l 2,1 a 0.50005,0.50005 0 1 0 0.44532,-0.89454 l -2,-1 a 0.50005,0.50005 0 0 0 -0.24024,-0.0566 z" fill="#000" transform="translate(11.0,5.0) translate(-216.0,-344.0)" /><path d="m 359.5,274 c -0.277,0 -0.5,0.223 -0.5,0.5 v 5.82422 l -3.89062,4.86328 a 0.50024018,0.50024018 0 1 0 0.78124,0.625 L 359,281.92578 V 285.5 c 0,0.277 0.223,0.5 0.5,0.5 h 1 c 0.277,0 0.5,-0.223 0.5,-0.5 v -3.57422 l 3.10938,3.88672 a 0.50024018,0.50024018 0 1 0 0.78124,-0.625 L 361,280.32422 V 274.5 c 0,-0.277 -0.223,-0.5 -0.5,-0.5 z" fill="#000" transform="translate(8.0,8.0) translate(-360.0,-280.0)" /><path d="m 198.48242,340.99609 a 0.50005,0.50005 0 0 0 -0.20508,0.95118 l 2,1 a 0.50005,0.50005 0 1 0 0.44532,-0.89454 l -2,-1 a 0.50005,0.50005 0 0 0 -0.24024,-0.0566 z m 2.01953,3 a 0.50005,0.50005 0 0 0 -0.22461,0.0566 l -2,1 a 0.50005,0.50005 0 1 0 0.44532,0.89454 l 2,-1 a 0.50005,0.50005 0 0 0 -0.22071,-0.95118 z" fill="#000" transform="translate(5.0,5.0) translate(-200.0,-344.0)" /><path d="m 217.50195,340.99609 a 0.50005,0.50005 0 0 0 -0.22461,0.0566 l -2,1 a 0.50005,0.50005 0 1 0 0.44532,0.89454 l 2,-1 a 0.50005,0.50005 0 0 0 -0.22071,-0.95118 z m -2.01953,3 a 0.50005,0.50005 0 0 0 -0.20508,0.95118 l 2,1 a 0.50005,0.50005 0 1 0 0.44532,-0.89454 l -2,-1 a 0.50005,0.50005 0 0 0 -0.24024,-0.0566 z" fill="#000" transform="translate(11.0,5.0) translate(-216.0,-344.0)" /></svg>