<?xml version="1.0" encoding="utf-8" ?>
<svg baseProfile="full" height="16" version="1.1" width="16" xmlns="http://www.w3.org/2000/svg" xmlns:ev="http://www.w3.org/2001/xml-events" xmlns:xlink="http://www.w3.org/1999/xlink"><defs /><path d="m 678.88672,561.00195 c -1.36023,0.0404 -2.64626,0.77642 -3.35156,1.99805 -0.9028,1.56369 -0.64002,3.55139 0.63672,4.82812 L 681,572.65625 V 574 h 2 v -9 c 0,-1.80559 -1.22078,-3.39596 -2.96484,-3.86328 -0.38152,-0.10223 -0.76758,-0.14608 -1.14844,-0.13477 z M 679.02344,563 c 0.16413,0.002 0.32932,0.0242 0.49414,0.0684 C 680.39661,563.3039 681,564.08996 681,565 v 4.82812 l -3.41406,-3.41406 c -0.6435,-0.64349 -0.77338,-1.62594 -0.31836,-2.41406 0.3697,-0.64035 1.04461,-1.00999 1.75586,-1 z" fill="#000" transform="translate(8.0,8.0) translate(-680.0,-568.0)" /><path d="m 678.88672,561.00195 c -1.36023,0.0404 -2.64626,0.77642 -3.35156,1.99805 -0.9028,1.56369 -0.64002,3.55139 0.63672,4.82812 L 681,572.65625 V 574 h 2 v -9 c 0,-1.80559 -1.22078,-3.39596 -2.96484,-3.86328 -0.38152,-0.10223 -0.76758,-0.14608 -1.14844,-0.13477 z M 679.02344,563 c 0.16413,0.002 0.32932,0.0242 0.49414,0.0684 C 680.39661,563.3039 681,564.08996 681,565 v 4.82812 l -3.41406,-3.41406 c -0.6435,-0.64349 -0.77338,-1.62594 -0.31836,-2.41406 0.3697,-0.64035 1.04461,-1.00999 1.75586,-1 z" fill="#000" transform="translate(8.0,8.0) translate(-680.0,-568.0)" /></svg>