<?xml version="1.0" encoding="utf-8" ?>
<svg baseProfile="full" height="16" version="1.1" width="16" xmlns="http://www.w3.org/2000/svg" xmlns:ev="http://www.w3.org/2001/xml-events" xmlns:xlink="http://www.w3.org/1999/xlink"><defs /><path d="m 178,51 v 8 h 5 v 1 h -1.5 c -0.277,0 -0.5,0.223 -0.5,0.5 V 61 h 6 V 60.5 C 187,60.223 186.777,60 186.5,60 H 185 v -1 h 5 v -8 z m 1,1 h 10 v 6 h -10 z" fill="#000" transform="translate(8.0,8.0) translate(-184.0,-56.0)" /><path d="m 178,51 v 8 h 5 v 1 h -1.5 c -0.277,0 -0.5,0.223 -0.5,0.5 V 61 h 6 V 60.5 C 187,60.223 186.777,60 186.5,60 H 185 v -1 h 5 v -8 z m 1,1 h 10 v 6 h -10 z" fill="#000" transform="translate(8.0,8.0) translate(-184.0,-56.0)" /></svg>