<?xml version="1.0" encoding="utf-8" ?>
<svg baseProfile="full" height="16" version="1.1" width="16" xmlns="http://www.w3.org/2000/svg" xmlns:ev="http://www.w3.org/2001/xml-events" xmlns:xlink="http://www.w3.org/1999/xlink"><defs /><path d="m 17.5,593 a 0.5,0.5 0 0 0 -0.5,0.5 v 10 2 a 0.5,0.5 0 0 0 0.5,0.5 0.5,0.5 0 0 0 0.5,-0.5 V 604 h 12 v 1.5 a 0.5,0.5 0 0 0 0.5,0.5 0.5,0.5 0 0 0 0.5,-0.5 v -2 -8 A 0.5,0.5 0 0 0 30.5,595 0.5,0.5 0 0 0 30,595.5 V 597 H 18 v -3.5 A 0.5,0.5 0 0 0 17.5,593 Z m 2.5,1 a 1,1 0 0 0 -1,1 1,1 0 0 0 1,1 h 1 a 1,1 0 0 0 1,-1 1,1 0 0 0 -1,-1 z m 3.451172,0.002 A 0.50005,0.50005 0 0 0 23,594.5 v 1 a 0.50005,0.50005 0 0 0 0.5,0.5 h 5 a 0.50005,0.50005 0 0 0 0.09766,-0.99023 l -5,-1 a 0.50005,0.50005 0 0 0 -0.146484,-0.008 z M 18,598 h 12 v 5 H 18 Z m 2,2 a 1,1 0 0 0 -1,1 1,1 0 0 0 1,1 h 1 a 1,1 0 0 0 1,-1 1,1 0 0 0 -1,-1 z m 3.451172,0.002 A 0.50005,0.50005 0 0 0 23,600.5 v 1 a 0.50005,0.50005 0 0 0 0.5,0.5 h 5 a 0.50005,0.50005 0 0 0 0.09766,-0.99023 l -5,-1 a 0.50005,0.50005 0 0 0 -0.146484,-0.008 z" fill="#000" transform="translate(8.0,8.0) translate(-24.0,-600.0)" /><path d="m 17.5,593 a 0.5,0.5 0 0 0 -0.5,0.5 v 10 2 a 0.5,0.5 0 0 0 0.5,0.5 0.5,0.5 0 0 0 0.5,-0.5 V 604 h 12 v 1.5 a 0.5,0.5 0 0 0 0.5,0.5 0.5,0.5 0 0 0 0.5,-0.5 v -2 -8 A 0.5,0.5 0 0 0 30.5,595 0.5,0.5 0 0 0 30,595.5 V 597 H 18 v -3.5 A 0.5,0.5 0 0 0 17.5,593 Z m 2.5,1 a 1,1 0 0 0 -1,1 1,1 0 0 0 1,1 h 1 a 1,1 0 0 0 1,-1 1,1 0 0 0 -1,-1 z m 3.451172,0.002 A 0.50005,0.50005 0 0 0 23,594.5 v 1 a 0.50005,0.50005 0 0 0 0.5,0.5 h 5 a 0.50005,0.50005 0 0 0 0.09766,-0.99023 l -5,-1 a 0.50005,0.50005 0 0 0 -0.146484,-0.008 z M 18,598 h 12 v 5 H 18 Z m 2,2 a 1,1 0 0 0 -1,1 1,1 0 0 0 1,1 h 1 a 1,1 0 0 0 1,-1 1,1 0 0 0 -1,-1 z m 3.451172,0.002 A 0.50005,0.50005 0 0 0 23,600.5 v 1 a 0.50005,0.50005 0 0 0 0.5,0.5 h 5 a 0.50005,0.50005 0 0 0 0.09766,-0.99023 l -5,-1 a 0.50005,0.50005 0 0 0 -0.146484,-0.008 z" fill="#000" transform="translate(8.0,8.0) translate(-24.0,-600.0)" /></svg>