<?xml version="1.0" encoding="utf-8" ?>
<svg baseProfile="full" height="16" version="1.1" width="16" xmlns="http://www.w3.org/2000/svg" xmlns:ev="http://www.w3.org/2001/xml-events" xmlns:xlink="http://www.w3.org/1999/xlink"><defs /><path d="m 405,18 c -0.554,0 -1,0.446 -1,1 v 9 c 0,0.554 0.446,1 1,1 h 2.5 a 0.5,0.5 0 0 1 0.14648,-0.353516 l 1,-1 A 0.5,0.5 0 0 1 409,27.5 a 0.5,0.5 0 0 1 0.35352,0.146484 0.5,0.5 0 0 1 0,0.707032 L 408.70703,29 H 410 c 0.554,0 1,-0.446 1,-1 v -9 c 0,-0.554 -0.446,-1 -1,-1 h -3.29297 l 0.64649,0.646484 a 0.5,0.5 0 0 1 0,0.707032 0.5,0.5 0 0 1 -0.70704,0 l -1,-1 A 0.5,0.5 0 0 1 405.5,18 Z m 4,1.5 a 0.5,0.5 0 0 1 0.35352,0.146484 0.5,0.5 0 0 1 0,0.707032 l -1,1 a 0.5,0.5 0 0 1 -0.70704,0 0.5,0.5 0 0 1 0,-0.707032 l 1,-1 A 0.5,0.5 0 0 1 409,19.5 Z m -3,2 a 0.5,0.5 0 0 1 0.35352,0.146484 l 1,1 a 0.5,0.5 0 0 1 0,0.707032 0.5,0.5 0 0 1 -0.70704,0 l -1,-1 a 0.5,0.5 0 0 1 0,-0.707032 A 0.5,0.5 0 0 1 406,21.5 Z m 3,2 a 0.5,0.5 0 0 1 0.35352,0.146484 0.5,0.5 0 0 1 0,0.707032 l -1,1 a 0.5,0.5 0 0 1 -0.70704,0 0.5,0.5 0 0 1 0,-0.707032 l 1,-1 A 0.5,0.5 0 0 1 409,23.5 Z m -3,2 a 0.5,0.5 0 0 1 0.35352,0.146484 l 1,1 a 0.5,0.5 0 0 1 0,0.707032 0.5,0.5 0 0 1 -0.70704,0 l -1,-1 a 0.5,0.5 0 0 1 0,-0.707032 A 0.5,0.5 0 0 1 406,25.5 Z" fill="#000" transform="translate(8.0,8.0) translate(-408.0,-24.0)" /><path d="m 405,18 c -0.554,0 -1,0.446 -1,1 v 9 c 0,0.554 0.446,1 1,1 h 2.5 a 0.5,0.5 0 0 1 0.14648,-0.353516 l 1,-1 A 0.5,0.5 0 0 1 409,27.5 a 0.5,0.5 0 0 1 0.35352,0.146484 0.5,0.5 0 0 1 0,0.707032 L 408.70703,29 H 410 c 0.554,0 1,-0.446 1,-1 v -9 c 0,-0.554 -0.446,-1 -1,-1 h -3.29297 l 0.64649,0.646484 a 0.5,0.5 0 0 1 0,0.707032 0.5,0.5 0 0 1 -0.70704,0 l -1,-1 A 0.5,0.5 0 0 1 405.5,18 Z m 4,1.5 a 0.5,0.5 0 0 1 0.35352,0.146484 0.5,0.5 0 0 1 0,0.707032 l -1,1 a 0.5,0.5 0 0 1 -0.70704,0 0.5,0.5 0 0 1 0,-0.707032 l 1,-1 A 0.5,0.5 0 0 1 409,19.5 Z m -3,2 a 0.5,0.5 0 0 1 0.35352,0.146484 l 1,1 a 0.5,0.5 0 0 1 0,0.707032 0.5,0.5 0 0 1 -0.70704,0 l -1,-1 a 0.5,0.5 0 0 1 0,-0.707032 A 0.5,0.5 0 0 1 406,21.5 Z m 3,2 a 0.5,0.5 0 0 1 0.35352,0.146484 0.5,0.5 0 0 1 0,0.707032 l -1,1 a 0.5,0.5 0 0 1 -0.70704,0 0.5,0.5 0 0 1 0,-0.707032 l 1,-1 A 0.5,0.5 0 0 1 409,23.5 Z m -3,2 a 0.5,0.5 0 0 1 0.35352,0.146484 l 1,1 a 0.5,0.5 0 0 1 0,0.707032 0.5,0.5 0 0 1 -0.70704,0 l -1,-1 a 0.5,0.5 0 0 1 0,-0.707032 A 0.5,0.5 0 0 1 406,25.5 Z" fill="#000" transform="translate(8.0,8.0) translate(-408.0,-24.0)" /></svg>