<?xml version="1.0" encoding="utf-8" ?>
<svg baseProfile="full" height="16" version="1.1" width="16" xmlns="http://www.w3.org/2000/svg" xmlns:ev="http://www.w3.org/2001/xml-events" xmlns:xlink="http://www.w3.org/1999/xlink"><defs /><path d="m 487.5,82 a 3.5,3.5 0 0 0 -3.5,3.5 3.5,3.5 0 0 0 3.5,3.5 3.5,3.5 0 0 0 3.5,-3.5 3.5,3.5 0 0 0 -3.5,-3.5 z m 0,1 a 0.50005,0.50005 0 1 1 0,1 c -0.83435,0 -1.5,0.665651 -1.5,1.5 a 0.50005,0.50005 0 1 1 -1,0 c 0,-1.374789 1.12521,-2.5 2.5,-2.5 z m -5.00781,0.992188 A 0.50005,0.50005 0 0 0 482,84.5 V 85.464844 85.5 a 0.50005,0.50005 0 0 0 0.006,0.07813 c 0.0277,1.933811 1.06594,3.716638 2.74414,4.685547 0.70097,0.404707 1.46976,0.633924 2.25,0.705078 A 0.50005,0.50005 0 0 0 487,91 v 2 h -3.5 a 0.50005,0.50005 0 1 0 0,1 h 8 a 0.50005,0.50005 0 1 0 0,-1 H 488 v -2 a 0.50005,0.50005 0 0 0 -0.002,-0.03125 c 0.7809,-0.07094 1.5504,-0.300036 2.25195,-0.705078 1.67649,-0.967926 2.71442,-2.748147 2.74414,-4.679688 a 0.50005,0.50005 0 0 0 0,-0.0039 A 0.50005,0.50005 0 0 0 493,85.5 v -1 A 0.50005,0.50005 0 0 0 492.49219,83.992188 0.50005,0.50005 0 0 0 492,84.5 V 85.464844 85.5 c 0,1.608497 -0.857,3.092236 -2.25,3.896484 -1.393,0.804249 -3.107,0.804249 -4.5,0 C 483.857,88.592236 483,87.108497 483,85.5 v -1 a 0.50005,0.50005 0 0 0 -0.50781,-0.507812 z" fill="#000" transform="translate(8.0,8.0) translate(-488.0,-88.0)" /><path d="m 487.5,82 a 3.5,3.5 0 0 0 -3.5,3.5 3.5,3.5 0 0 0 3.5,3.5 3.5,3.5 0 0 0 3.5,-3.5 3.5,3.5 0 0 0 -3.5,-3.5 z m 0,1 a 0.50005,0.50005 0 1 1 0,1 c -0.83435,0 -1.5,0.665651 -1.5,1.5 a 0.50005,0.50005 0 1 1 -1,0 c 0,-1.374789 1.12521,-2.5 2.5,-2.5 z m -5.00781,0.992188 A 0.50005,0.50005 0 0 0 482,84.5 V 85.464844 85.5 a 0.50005,0.50005 0 0 0 0.006,0.07813 c 0.0277,1.933811 1.06594,3.716638 2.74414,4.685547 0.70097,0.404707 1.46976,0.633924 2.25,0.705078 A 0.50005,0.50005 0 0 0 487,91 v 2 h -3.5 a 0.50005,0.50005 0 1 0 0,1 h 8 a 0.50005,0.50005 0 1 0 0,-1 H 488 v -2 a 0.50005,0.50005 0 0 0 -0.002,-0.03125 c 0.7809,-0.07094 1.5504,-0.300036 2.25195,-0.705078 1.67649,-0.967926 2.71442,-2.748147 2.74414,-4.679688 a 0.50005,0.50005 0 0 0 0,-0.0039 A 0.50005,0.50005 0 0 0 493,85.5 v -1 A 0.50005,0.50005 0 0 0 492.49219,83.992188 0.50005,0.50005 0 0 0 492,84.5 V 85.464844 85.5 c 0,1.608497 -0.857,3.092236 -2.25,3.896484 -1.393,0.804249 -3.107,0.804249 -4.5,0 C 483.857,88.592236 483,87.108497 483,85.5 v -1 a 0.50005,0.50005 0 0 0 -0.50781,-0.507812 z" fill="#000" transform="translate(8.0,8.0) translate(-488.0,-88.0)" /></svg>