<?xml version="1.0" encoding="utf-8" ?>
<svg baseProfile="full" height="16" version="1.1" width="16" xmlns="http://www.w3.org/2000/svg" xmlns:ev="http://www.w3.org/2001/xml-events" xmlns:xlink="http://www.w3.org/1999/xlink"><defs /><path d="m 35.5,241 c -0.277,0 -0.5,0.223 -0.5,0.5 v 13 c 0,0.277 0.223,0.5 0.5,0.5 h 9 c 0.277,0 0.5,-0.223 0.5,-0.5 v -13 c 0,-0.277 -0.223,-0.5 -0.5,-0.5 z m 1,2 h 5 c 0.277,0 0.5,0.223 0.5,0.5 v 8 c 0,0.277 -0.223,0.5 -0.5,0.5 h -5 c -0.277,0 -0.5,-0.223 -0.5,-0.5 v -8 c 0,-0.277 0.223,-0.5 0.5,-0.5 z m 7,0 c 0.277,0 0.5,0.223 0.5,0.5 v 1 c 0,0.277 -0.223,0.5 -0.5,0.5 -0.277,0 -0.5,-0.223 -0.5,-0.5 v -1 c 0,-0.277 0.223,-0.5 0.5,-0.5 z m -4.2832,0.7832 c -0.94642,0.53126 -1.13662,2.01368 -0.2168,2.7168 0.55569,-0.375 0.59213,-0.85723 0.33398,-1.25 -0.30313,-0.46122 -0.33107,-0.80022 -0.11718,-1.4668 z M 38,247 v 4 h 2 v -4 z" fill="#000" transform="translate(8.0,8.0) translate(-40.0,-248.0)" /><path d="m 35.5,241 c -0.277,0 -0.5,0.223 -0.5,0.5 v 13 c 0,0.277 0.223,0.5 0.5,0.5 h 9 c 0.277,0 0.5,-0.223 0.5,-0.5 v -13 c 0,-0.277 -0.223,-0.5 -0.5,-0.5 z m 1,2 h 5 c 0.277,0 0.5,0.223 0.5,0.5 v 8 c 0,0.277 -0.223,0.5 -0.5,0.5 h -5 c -0.277,0 -0.5,-0.223 -0.5,-0.5 v -8 c 0,-0.277 0.223,-0.5 0.5,-0.5 z m 7,0 c 0.277,0 0.5,0.223 0.5,0.5 v 1 c 0,0.277 -0.223,0.5 -0.5,0.5 -0.277,0 -0.5,-0.223 -0.5,-0.5 v -1 c 0,-0.277 0.223,-0.5 0.5,-0.5 z m -4.2832,0.7832 c -0.94642,0.53126 -1.13662,2.01368 -0.2168,2.7168 0.55569,-0.375 0.59213,-0.85723 0.33398,-1.25 -0.30313,-0.46122 -0.33107,-0.80022 -0.11718,-1.4668 z M 38,247 v 4 h 2 v -4 z" fill="#000" transform="translate(8.0,8.0) translate(-40.0,-248.0)" /></svg>