<?xml version="1.0" encoding="utf-8" ?>
<svg baseProfile="full" height="16" version="1.1" width="16" xmlns="http://www.w3.org/2000/svg" xmlns:ev="http://www.w3.org/2001/xml-events" xmlns:xlink="http://www.w3.org/1999/xlink"><defs /><path d="M 4.5,242 C 4.223,242 4,242.223 4,242.5 v 11 c 0,0.277 0.223,0.5 0.5,0.5 h 7 c 0.277,0 0.5,-0.223 0.5,-0.5 v -11 c 0,-0.277 -0.223,-0.5 -0.5,-0.5 z m 1,3 h 3 c 0.277,0 0.5,0.223 0.5,0.5 v 5 c 0,0.277 -0.223,0.5 -0.5,0.5 h -3 C 5.223,251 5,250.777 5,250.5 v -5 C 5,245.223 5.223,245 5.5,245 Z m 5,0 c 0.277,0 0.5,0.223 0.5,0.5 v 1 c 0,0.277 -0.223,0.5 -0.5,0.5 -0.277,0 -0.5,-0.223 -0.5,-0.5 v -1 c 0,-0.277 0.223,-0.5 0.5,-0.5 z M 6,248 v 1 c 0,0.55228 0.44772,1 1,1 0.55228,0 1,-0.44772 1,-1 v -1 z" fill="#000" transform="translate(8.0,8.0) translate(-8.0,-248.0)" /><path d="M 4.5,242 C 4.223,242 4,242.223 4,242.5 v 11 c 0,0.277 0.223,0.5 0.5,0.5 h 7 c 0.277,0 0.5,-0.223 0.5,-0.5 v -11 c 0,-0.277 -0.223,-0.5 -0.5,-0.5 z m 1,3 h 3 c 0.277,0 0.5,0.223 0.5,0.5 v 5 c 0,0.277 -0.223,0.5 -0.5,0.5 h -3 C 5.223,251 5,250.777 5,250.5 v -5 C 5,245.223 5.223,245 5.5,245 Z m 5,0 c 0.277,0 0.5,0.223 0.5,0.5 v 1 c 0,0.277 -0.223,0.5 -0.5,0.5 -0.277,0 -0.5,-0.223 -0.5,-0.5 v -1 c 0,-0.277 0.223,-0.5 0.5,-0.5 z M 6,248 v 1 c 0,0.55228 0.44772,1 1,1 0.55228,0 1,-0.44772 1,-1 v -1 z" fill="#000" transform="translate(8.0,8.0) translate(-8.0,-248.0)" /></svg>