<?xml version="1.0" encoding="utf-8" ?>
<svg baseProfile="full" height="16" version="1.1" width="16" xmlns="http://www.w3.org/2000/svg" xmlns:ev="http://www.w3.org/2001/xml-events" xmlns:xlink="http://www.w3.org/1999/xlink"><defs /><path d="m 353.4766,370.05078 c -0.2899,0 -0.5235,0.2119 -0.5235,0.47461 v 2 c 0,0.26271 0.2336,0.47461 0.5235,0.47461 H 354 v -2 h 11 v 2 h 0.4766 c 0.2898,0 0.5234,-0.2119 0.5234,-0.47461 v -2 c 0,-0.26271 -0.2336,-0.47461 -0.5234,-0.47461 z M 355,372 v 10 h 9 v -10 z m 3.832,3.02734 C 359.9425,375.71366 360,377 361,377 h 0.062 c 0.5194,0 0.9375,0.41812 0.9375,0.9375 v 0.125 c 0,0.51938 -0.4181,0.9375 -0.9375,0.9375 H 362 c 0.554,0 1,0.446 1,1 0,0.554 -0.446,1 -1,1 h -5 c -0.554,0 -1,-0.446 -1,-1 0,-0.554 0.446,-1 1,-1 h 0.9375 C 357.4181,379 357,378.58188 357,378.0625 v -0.125 C 357,377.41812 357.4181,377 357.9375,377 H 358 c 0.8232,0 1.359,-0.94899 0.832,-1.97266 z" fill="#000" transform="translate(8.0,8.0) translate(-360.0,-376.0)" /><path d="m 353.4766,370.05078 c -0.2899,0 -0.5235,0.2119 -0.5235,0.47461 v 2 c 0,0.26271 0.2336,0.47461 0.5235,0.47461 H 354 v -2 h 11 v 2 h 0.4766 c 0.2898,0 0.5234,-0.2119 0.5234,-0.47461 v -2 c 0,-0.26271 -0.2336,-0.47461 -0.5234,-0.47461 z M 355,372 v 10 h 9 v -10 z m 3.832,3.02734 C 359.9425,375.71366 360,377 361,377 h 0.062 c 0.5194,0 0.9375,0.41812 0.9375,0.9375 v 0.125 c 0,0.51938 -0.4181,0.9375 -0.9375,0.9375 H 362 c 0.554,0 1,0.446 1,1 0,0.554 -0.446,1 -1,1 h -5 c -0.554,0 -1,-0.446 -1,-1 0,-0.554 0.446,-1 1,-1 h 0.9375 C 357.4181,379 357,378.58188 357,378.0625 v -0.125 C 357,377.41812 357.4181,377 357.9375,377 H 358 c 0.8232,0 1.359,-0.94899 0.832,-1.97266 z" fill="#000" transform="translate(8.0,8.0) translate(-360.0,-376.0)" /></svg>