<?xml version="1.0" encoding="utf-8" ?>
<svg baseProfile="full" height="16" version="1.1" width="16" xmlns="http://www.w3.org/2000/svg" xmlns:ev="http://www.w3.org/2001/xml-events" xmlns:xlink="http://www.w3.org/1999/xlink"><defs /><path d="m 19.5,241 c -0.277,0 -0.5,0.223 -0.5,0.5 v 13 c 0,0.277 0.223,0.5 0.5,0.5 h 9 c 0.277,0 0.5,-0.223 0.5,-0.5 v -13 c 0,-0.277 -0.223,-0.5 -0.5,-0.5 z m 1,3 h 5 c 0.277,0 0.5,0.223 0.5,0.5 v 7 c 0,0.277 -0.223,0.5 -0.5,0.5 h -5 c -0.277,0 -0.5,-0.223 -0.5,-0.5 v -7 c 0,-0.277 0.223,-0.5 0.5,-0.5 z m 7,0 c 0.277,0 0.5,0.223 0.5,0.5 v 1 c 0,0.277 -0.223,0.5 -0.5,0.5 -0.277,0 -0.5,-0.223 -0.5,-0.5 v -1 c 0,-0.277 0.223,-0.5 0.5,-0.5 z m -5.5,2 v 1 h -1 v 2 h 1 v 1 h 2 v -1 h 1 v -2 h -1 v -1 z" fill="#000" transform="translate(8.0,8.0) translate(-24.0,-248.0)" /><path d="m 19.5,241 c -0.277,0 -0.5,0.223 -0.5,0.5 v 13 c 0,0.277 0.223,0.5 0.5,0.5 h 9 c 0.277,0 0.5,-0.223 0.5,-0.5 v -13 c 0,-0.277 -0.223,-0.5 -0.5,-0.5 z m 1,3 h 5 c 0.277,0 0.5,0.223 0.5,0.5 v 7 c 0,0.277 -0.223,0.5 -0.5,0.5 h -5 c -0.277,0 -0.5,-0.223 -0.5,-0.5 v -7 c 0,-0.277 0.223,-0.5 0.5,-0.5 z m 7,0 c 0.277,0 0.5,0.223 0.5,0.5 v 1 c 0,0.277 -0.223,0.5 -0.5,0.5 -0.277,0 -0.5,-0.223 -0.5,-0.5 v -1 c 0,-0.277 0.223,-0.5 0.5,-0.5 z m -5.5,2 v 1 h -1 v 2 h 1 v 1 h 2 v -1 h 1 v -2 h -1 v -1 z" fill="#000" transform="translate(8.0,8.0) translate(-24.0,-248.0)" /></svg>