<?xml version="1.0" encoding="utf-8" ?>
<svg baseProfile="full" height="16" version="1.1" width="16" xmlns="http://www.w3.org/2000/svg" xmlns:ev="http://www.w3.org/2001/xml-events" xmlns:xlink="http://www.w3.org/1999/xlink"><defs /><path d="m 99.5,241 c -0.277,0 -0.5,0.223 -0.5,0.5 v 13 c 0,0.277 0.223,0.5 0.5,0.5 h 9 c 0.277,0 0.5,-0.223 0.5,-0.5 v -13 c 0,-0.277 -0.223,-0.5 -0.5,-0.5 z m 1,2 h 5 c 0.277,0 0.5,0.223 0.5,0.5 v 8 c 0,0.277 -0.223,0.5 -0.5,0.5 h -5 c -0.277,0 -0.5,-0.223 -0.5,-0.5 v -8 c 0,-0.277 0.223,-0.5 0.5,-0.5 z m 7,0 c 0.277,0 0.5,0.223 0.5,0.5 v 1 c 0,0.277 -0.223,0.5 -0.5,0.5 -0.277,0 -0.5,-0.223 -0.5,-0.5 v -1 c 0,-0.277 0.223,-0.5 0.5,-0.5 z m -6,2 c -0.277,0 -0.5,0.20256 -0.5,0.45508 v 0.0898 1.91016 0.0898 1.95508 c 0,0.277 0.223,0.5 0.5,0.5 0.277,0 0.5,-0.223 0.5,-0.5 V 248 h 1.5 a 1.5,1.5 0 0 0 1.5,-1.5 1.5,1.5 0 0 0 -1.5,-1.5 z m 0.5,1 h 1.5 a 0.5,0.5 0 0 1 0.5,0.5 0.5,0.5 0 0 1 -0.5,0.5 H 102 Z" fill="#000" transform="translate(8.0,8.0) translate(-104.0,-248.0)" /><path d="m 99.5,241 c -0.277,0 -0.5,0.223 -0.5,0.5 v 13 c 0,0.277 0.223,0.5 0.5,0.5 h 9 c 0.277,0 0.5,-0.223 0.5,-0.5 v -13 c 0,-0.277 -0.223,-0.5 -0.5,-0.5 z m 1,2 h 5 c 0.277,0 0.5,0.223 0.5,0.5 v 8 c 0,0.277 -0.223,0.5 -0.5,0.5 h -5 c -0.277,0 -0.5,-0.223 -0.5,-0.5 v -8 c 0,-0.277 0.223,-0.5 0.5,-0.5 z m 7,0 c 0.277,0 0.5,0.223 0.5,0.5 v 1 c 0,0.277 -0.223,0.5 -0.5,0.5 -0.277,0 -0.5,-0.223 -0.5,-0.5 v -1 c 0,-0.277 0.223,-0.5 0.5,-0.5 z m -6,2 c -0.277,0 -0.5,0.20256 -0.5,0.45508 v 0.0898 1.91016 0.0898 1.95508 c 0,0.277 0.223,0.5 0.5,0.5 0.277,0 0.5,-0.223 0.5,-0.5 V 248 h 1.5 a 1.5,1.5 0 0 0 1.5,-1.5 1.5,1.5 0 0 0 -1.5,-1.5 z m 0.5,1 h 1.5 a 0.5,0.5 0 0 1 0.5,0.5 0.5,0.5 0 0 1 -0.5,0.5 H 102 Z" fill="#000" transform="translate(8.0,8.0) translate(-104.0,-248.0)" /></svg>