<?xml version="1.0" encoding="utf-8" ?>
<svg baseProfile="full" height="16" version="1.1" width="16" xmlns="http://www.w3.org/2000/svg" xmlns:ev="http://www.w3.org/2001/xml-events" xmlns:xlink="http://www.w3.org/1999/xlink"><defs /><path d="m 738.5,435 c -0.277,0 -0.5,0.223 -0.5,0.5 v 2 c 0,0.277 0.223,0.5 0.5,0.5 h 0.5 v -2 h 10 v 2 h 0.5 c 0.277,0 0.5,-0.223 0.5,-0.5 v -2 c 0,-0.277 -0.223,-0.5 -0.5,-0.5 z m 1.5,2 v 4 h 1.5 c 0.277,0 0.5,0.223 0.5,0.5 0,0.277 -0.223,0.5 -0.5,0.5 H 740 v 2.5 c 0,0.277 0.223,0.5 0.5,0.5 h 1.5 a 2,2 0 0 1 1.95117,-2 2,2 0 0 1 0.0488,0 2,2 0 0 1 2,2 h 1.5 c 0.277,0 0.5,-0.223 0.5,-0.5 V 442 h -1.5 c -0.277,0 -0.5,-0.223 -0.5,-0.5 0,-0.277 0.223,-0.5 0.5,-0.5 h 1.5 v -4 h -8 z m 3.5,4 h 1 c 0.277,0 0.5,0.223 0.5,0.5 0,0.277 -0.223,0.5 -0.5,0.5 h -1 c -0.277,0 -0.5,-0.223 -0.5,-0.5 0,-0.277 0.223,-0.5 0.5,-0.5 z" fill="#000" transform="translate(8.0,8.0) translate(-744.0,-440.0)" /><path d="m 738.5,435 c -0.277,0 -0.5,0.223 -0.5,0.5 v 2 c 0,0.277 0.223,0.5 0.5,0.5 h 0.5 v -2 h 10 v 2 h 0.5 c 0.277,0 0.5,-0.223 0.5,-0.5 v -2 c 0,-0.277 -0.223,-0.5 -0.5,-0.5 z m 1.5,2 v 4 h 1.5 c 0.277,0 0.5,0.223 0.5,0.5 0,0.277 -0.223,0.5 -0.5,0.5 H 740 v 2.5 c 0,0.277 0.223,0.5 0.5,0.5 h 1.5 a 2,2 0 0 1 1.95117,-2 2,2 0 0 1 0.0488,0 2,2 0 0 1 2,2 h 1.5 c 0.277,0 0.5,-0.223 0.5,-0.5 V 442 h -1.5 c -0.277,0 -0.5,-0.223 -0.5,-0.5 0,-0.277 0.223,-0.5 0.5,-0.5 h 1.5 v -4 h -8 z m 3.5,4 h 1 c 0.277,0 0.5,0.223 0.5,0.5 0,0.277 -0.223,0.5 -0.5,0.5 h -1 c -0.277,0 -0.5,-0.223 -0.5,-0.5 0,-0.277 0.223,-0.5 0.5,-0.5 z" fill="#000" transform="translate(8.0,8.0) translate(-744.0,-440.0)" /></svg>