<?xml version="1.0" encoding="utf-8" ?>
<svg baseProfile="full" height="16" version="1.1" width="16" xmlns="http://www.w3.org/2000/svg" xmlns:ev="http://www.w3.org/2001/xml-events" xmlns:xlink="http://www.w3.org/1999/xlink"><defs /><path d="m 67.5,241 c -0.277,0 -0.5,0.223 -0.5,0.5 v 13 c 0,0.277 0.223,0.5 0.5,0.5 h 9 c 0.277,0 0.5,-0.223 0.5,-0.5 v -13 c 0,-0.277 -0.223,-0.5 -0.5,-0.5 z m 1,2 h 5 c 0.277,0 0.5,0.223 0.5,0.5 v 8 c 0,0.277 -0.223,0.5 -0.5,0.5 h -5 c -0.277,0 -0.5,-0.223 -0.5,-0.5 v -8 c 0,-0.277 0.223,-0.5 0.5,-0.5 z m 7,0 c 0.277,0 0.5,0.223 0.5,0.5 v 1 c 0,0.277 -0.223,0.5 -0.5,0.5 -0.277,0 -0.5,-0.223 -0.5,-0.5 v -1 c 0,-0.277 0.223,-0.5 0.5,-0.5 z m -6.5,1 v 5 a 2,2 0 0 0 1,1.73242 2,2 0 0 0 2,0 A 2,2 0 0 0 73,249 v -3 c -1,2 -1,2 -2,3 h 1 a 1,1 0 0 1 -0.5,0.86523 1,1 0 0 1 -1,0 A 1,1 0 0 1 70,249 v -5 z" fill="#000" transform="translate(8.0,8.0) translate(-72.0,-248.0)" /><path d="m 67.5,241 c -0.277,0 -0.5,0.223 -0.5,0.5 v 13 c 0,0.277 0.223,0.5 0.5,0.5 h 9 c 0.277,0 0.5,-0.223 0.5,-0.5 v -13 c 0,-0.277 -0.223,-0.5 -0.5,-0.5 z m 1,2 h 5 c 0.277,0 0.5,0.223 0.5,0.5 v 8 c 0,0.277 -0.223,0.5 -0.5,0.5 h -5 c -0.277,0 -0.5,-0.223 -0.5,-0.5 v -8 c 0,-0.277 0.223,-0.5 0.5,-0.5 z m 7,0 c 0.277,0 0.5,0.223 0.5,0.5 v 1 c 0,0.277 -0.223,0.5 -0.5,0.5 -0.277,0 -0.5,-0.223 -0.5,-0.5 v -1 c 0,-0.277 0.223,-0.5 0.5,-0.5 z m -6.5,1 v 5 a 2,2 0 0 0 1,1.73242 2,2 0 0 0 2,0 A 2,2 0 0 0 73,249 v -3 c -1,2 -1,2 -2,3 h 1 a 1,1 0 0 1 -0.5,0.86523 1,1 0 0 1 -1,0 A 1,1 0 0 1 70,249 v -5 z" fill="#000" transform="translate(8.0,8.0) translate(-72.0,-248.0)" /></svg>