<?xml version="1.0" encoding="utf-8" ?>
<svg baseProfile="full" height="16" version="1.1" width="16" xmlns="http://www.w3.org/2000/svg" xmlns:ev="http://www.w3.org/2001/xml-events" xmlns:xlink="http://www.w3.org/1999/xlink"><defs /><path d="M 242.48438,370 C 242.21603,370 242,370.223 242,370.5 v 8 c 0,0.277 0.21603,0.5 0.48438,0.5 H 244 v 2.5 c 0,0.277 0.21603,0.5 0.48438,0.5 h 6.03124 C 250.78397,382 251,381.777 251,381.5 V 379 h 1.51562 C 252.78397,379 253,378.777 253,378.5 v -8 c 0,-0.277 -0.21603,-0.5 -0.48438,-0.5 z m 1,1 h 3.03124 c 0.26835,0 0.48438,0.223 0.48438,0.5 0,0.277 -0.21603,0.5 -0.48438,0.5 h -3.03124 C 243.21603,372 243,371.777 243,371.5 c 0,-0.277 0.21603,-0.5 0.48438,-0.5 z m 5,0 h 3.03124 c 0.26835,0 0.48438,0.223 0.48438,0.5 0,0.277 -0.21603,0.5 -0.48438,0.5 h -3.03124 C 248.21603,372 248,371.777 248,371.5 c 0,-0.277 0.21603,-0.5 0.48438,-0.5 z m -5,2 h 3.03124 c 0.26835,0 0.48438,0.223 0.48438,0.5 0,0.277 -0.21603,0.5 -0.48438,0.5 h -3.03124 C 243.21603,374 243,373.777 243,373.5 c 0,-0.277 0.21603,-0.5 0.48438,-0.5 z m 5,0 h 3.03124 c 0.26835,0 0.48438,0.223 0.48438,0.5 0,0.277 -0.21603,0.5 -0.48438,0.5 h -3.03124 C 248.21603,374 248,373.777 248,373.5 c 0,-0.277 0.21603,-0.5 0.48438,-0.5 z m -5,2 h 3.03124 c 0.26835,0 0.48438,0.223 0.48438,0.5 0,0.277 -0.21603,0.5 -0.48438,0.5 h -3.03124 C 243.21603,376 243,375.777 243,375.5 c 0,-0.277 0.21603,-0.5 0.48438,-0.5 z m 5,0 h 3.03124 c 0.26835,0 0.48438,0.223 0.48438,0.5 0,0.277 -0.21603,0.5 -0.48438,0.5 h -3.03124 C 248.21603,376 248,375.777 248,375.5 c 0,-0.277 0.21603,-0.5 0.48438,-0.5 z m -5,2 h 3.03124 c 0.26835,0 0.48438,0.223 0.48438,0.5 0,0.277 -0.21603,0.5 -0.48438,0.5 h -3.03124 C 243.21603,378 243,377.777 243,377.5 c 0,-0.277 0.21603,-0.5 0.48438,-0.5 z m 5,0 h 3.03124 c 0.26835,0 0.48438,0.223 0.48438,0.5 0,0.277 -0.21603,0.5 -0.48438,0.5 h -3.03124 C 248.21603,378 248,377.777 248,377.5 c 0,-0.277 0.21603,-0.5 0.48438,-0.5 z" fill="#000" transform="translate(8.0,8.0) translate(-248.0,-376.0)" /><path d="M 242.48438,370 C 242.21603,370 242,370.223 242,370.5 v 8 c 0,0.277 0.21603,0.5 0.48438,0.5 H 244 v 2.5 c 0,0.277 0.21603,0.5 0.48438,0.5 h 6.03124 C 250.78397,382 251,381.777 251,381.5 V 379 h 1.51562 C 252.78397,379 253,378.777 253,378.5 v -8 c 0,-0.277 -0.21603,-0.5 -0.48438,-0.5 z m 1,1 h 3.03124 c 0.26835,0 0.48438,0.223 0.48438,0.5 0,0.277 -0.21603,0.5 -0.48438,0.5 h -3.03124 C 243.21603,372 243,371.777 243,371.5 c 0,-0.277 0.21603,-0.5 0.48438,-0.5 z m 5,0 h 3.03124 c 0.26835,0 0.48438,0.223 0.48438,0.5 0,0.277 -0.21603,0.5 -0.48438,0.5 h -3.03124 C 248.21603,372 248,371.777 248,371.5 c 0,-0.277 0.21603,-0.5 0.48438,-0.5 z m -5,2 h 3.03124 c 0.26835,0 0.48438,0.223 0.48438,0.5 0,0.277 -0.21603,0.5 -0.48438,0.5 h -3.03124 C 243.21603,374 243,373.777 243,373.5 c 0,-0.277 0.21603,-0.5 0.48438,-0.5 z m 5,0 h 3.03124 c 0.26835,0 0.48438,0.223 0.48438,0.5 0,0.277 -0.21603,0.5 -0.48438,0.5 h -3.03124 C 248.21603,374 248,373.777 248,373.5 c 0,-0.277 0.21603,-0.5 0.48438,-0.5 z m -5,2 h 3.03124 c 0.26835,0 0.48438,0.223 0.48438,0.5 0,0.277 -0.21603,0.5 -0.48438,0.5 h -3.03124 C 243.21603,376 243,375.777 243,375.5 c 0,-0.277 0.21603,-0.5 0.48438,-0.5 z m 5,0 h 3.03124 c 0.26835,0 0.48438,0.223 0.48438,0.5 0,0.277 -0.21603,0.5 -0.48438,0.5 h -3.03124 C 248.21603,376 248,375.777 248,375.5 c 0,-0.277 0.21603,-0.5 0.48438,-0.5 z m -5,2 h 3.03124 c 0.26835,0 0.48438,0.223 0.48438,0.5 0,0.277 -0.21603,0.5 -0.48438,0.5 h -3.03124 C 243.21603,378 243,377.777 243,377.5 c 0,-0.277 0.21603,-0.5 0.48438,-0.5 z m 5,0 h 3.03124 c 0.26835,0 0.48438,0.223 0.48438,0.5 0,0.277 -0.21603,0.5 -0.48438,0.5 h -3.03124 C 248.21603,378 248,377.777 248,377.5 c 0,-0.277 0.21603,-0.5 0.48438,-0.5 z" fill="#000" transform="translate(8.0,8.0) translate(-248.0,-376.0)" /></svg>