<?xml version="1.0" encoding="utf-8" ?>
<svg baseProfile="full" height="16" version="1.1" width="16" xmlns="http://www.w3.org/2000/svg" xmlns:ev="http://www.w3.org/2001/xml-events" xmlns:xlink="http://www.w3.org/1999/xlink"><defs /><path d="m 263.5,24 c -0.21529,-1.13e-4 -0.40648,0.137577 -0.47461,0.341797 -0.46838,1.405132 -1.40941,2.813303 -2.80273,3.742187 C 259.81126,28.358467 260.00544,28.999813 260.5,29 h 7 c 0.49456,-1.87e-4 0.68874,-0.641533 0.27734,-0.916016 -1.39332,-0.928884 -2.33435,-2.337055 -2.80273,-3.742187 C 264.90648,24.137577 264.71529,23.999887 264.5,24 Z" fill="#000" transform="translate(8.0,8.0) translate(-264.0,-24.0)" /><path d="m 263.5,24 c -0.21529,-1.13e-4 -0.40648,0.137577 -0.47461,0.341797 -0.46838,1.405132 -1.40941,2.813303 -2.80273,3.742187 C 259.81126,28.358467 260.00544,28.999813 260.5,29 h 7 c 0.49456,-1.87e-4 0.68874,-0.641533 0.27734,-0.916016 -1.39332,-0.928884 -2.33435,-2.337055 -2.80273,-3.742187 C 264.90648,24.137577 264.71529,23.999887 264.5,24 Z" fill="#000" transform="translate(8.0,8.0) translate(-264.0,-24.0)" /></svg>