<?xml version="1.0" encoding="utf-8" ?>
<svg baseProfile="full" height="16" version="1.1" width="16" xmlns="http://www.w3.org/2000/svg" xmlns:ev="http://www.w3.org/2001/xml-events" xmlns:xlink="http://www.w3.org/1999/xlink"><defs /><path d="m 226.5,113 c -0.277,0 -0.5,0.223 -0.5,0.5 v 2.5 h 11 v -2.5 c 0,-0.277 -0.223,-0.5 -0.5,-0.5 z m 1,1 a 0.5,0.5 0 0 1 0.5,0.5 0.5,0.5 0 0 1 -0.5,0.5 0.5,0.5 0 0 1 -0.5,-0.5 0.5,0.5 0 0 1 0.5,-0.5 z m 2,0 a 0.5,0.5 0 0 1 0.5,0.5 0.5,0.5 0 0 1 -0.5,0.5 0.5,0.5 0 0 1 -0.5,-0.5 0.5,0.5 0 0 1 0.5,-0.5 z m 4,0 h 2 c 0.277,0 0.5,0.223 0.5,0.5 0,0.277 -0.223,0.5 -0.5,0.5 h -2 c -0.277,0 -0.5,-0.223 -0.5,-0.5 0,-0.277 0.223,-0.5 0.5,-0.5 z m -7.5,3 v 8.5 c 0,0.277 0.223,0.5 0.5,0.5 h 10 c 0.277,0 0.5,-0.223 0.5,-0.5 V 117 Z m 5.5,1 a 3.5,3.5 0 0 1 3.5,3.5 3.5,3.5 0 0 1 -3.5,3.5 3.5,3.5 0 0 1 -3.5,-3.5 3.5,3.5 0 0 1 3.5,-3.5 z m -1.25,2.75 c -0.5,0 -1,0.25 -1.25,0.75 a 2.5,2.5 0 0 0 2.5,2.5 2.5,2.5 0 0 0 2.5,-2.5 c -0.5,1 -2,1 -2.5,0 -0.25,-0.5 -0.75,-0.75 -1.25,-0.75 z" fill="#000" transform="translate(8.0,8.0) translate(-232.0,-120.0)" /><path d="m 226.5,113 c -0.277,0 -0.5,0.223 -0.5,0.5 v 2.5 h 11 v -2.5 c 0,-0.277 -0.223,-0.5 -0.5,-0.5 z m 1,1 a 0.5,0.5 0 0 1 0.5,0.5 0.5,0.5 0 0 1 -0.5,0.5 0.5,0.5 0 0 1 -0.5,-0.5 0.5,0.5 0 0 1 0.5,-0.5 z m 2,0 a 0.5,0.5 0 0 1 0.5,0.5 0.5,0.5 0 0 1 -0.5,0.5 0.5,0.5 0 0 1 -0.5,-0.5 0.5,0.5 0 0 1 0.5,-0.5 z m 4,0 h 2 c 0.277,0 0.5,0.223 0.5,0.5 0,0.277 -0.223,0.5 -0.5,0.5 h -2 c -0.277,0 -0.5,-0.223 -0.5,-0.5 0,-0.277 0.223,-0.5 0.5,-0.5 z m -7.5,3 v 8.5 c 0,0.277 0.223,0.5 0.5,0.5 h 10 c 0.277,0 0.5,-0.223 0.5,-0.5 V 117 Z m 5.5,1 a 3.5,3.5 0 0 1 3.5,3.5 3.5,3.5 0 0 1 -3.5,3.5 3.5,3.5 0 0 1 -3.5,-3.5 3.5,3.5 0 0 1 3.5,-3.5 z m -1.25,2.75 c -0.5,0 -1,0.25 -1.25,0.75 a 2.5,2.5 0 0 0 2.5,2.5 2.5,2.5 0 0 0 2.5,-2.5 c -0.5,1 -2,1 -2.5,0 -0.25,-0.5 -0.75,-0.75 -1.25,-0.75 z" fill="#000" transform="translate(8.0,8.0) translate(-232.0,-120.0)" /></svg>