<?xml version="1.0" encoding="utf-8" ?>
<svg baseProfile="full" height="16" version="1.1" width="16" xmlns="http://www.w3.org/2000/svg" xmlns:ev="http://www.w3.org/2001/xml-events" xmlns:xlink="http://www.w3.org/1999/xlink"><defs /><path d="m 167.5,370 c -0.277,0 -0.5,0.223 -0.5,0.5 v 0.5 h -2.5 c -0.277,0 -0.5,0.223 -0.5,0.5 v 0.5 h 3.5 1 3.5 v -0.5 c 0,-0.277 -0.223,-0.5 -0.5,-0.5 H 169 v -0.5 c 0,-0.277 -0.223,-0.5 -0.5,-0.5 z m -3.5,3 c 8e-5,0.0411 0.003,0.083 0.008,0.125 l 1,8 c 0.063,0.49999 0.48824,0.87497 0.99219,0.875 h 4 c 0.50395,-3e-5 0.92915,-0.37501 0.99219,-0.875 l 1,-8 c 0.005,-0.042 0.008,-0.0839 0.008,-0.125 z" fill="#000" transform="translate(8.0,8.0) translate(-168.0,-376.0)" /><path d="m 167.5,370 c -0.277,0 -0.5,0.223 -0.5,0.5 v 0.5 h -2.5 c -0.277,0 -0.5,0.223 -0.5,0.5 v 0.5 h 3.5 1 3.5 v -0.5 c 0,-0.277 -0.223,-0.5 -0.5,-0.5 H 169 v -0.5 c 0,-0.277 -0.223,-0.5 -0.5,-0.5 z m -3.5,3 c 8e-5,0.0411 0.003,0.083 0.008,0.125 l 1,8 c 0.063,0.49999 0.48824,0.87497 0.99219,0.875 h 4 c 0.50395,-3e-5 0.92915,-0.37501 0.99219,-0.875 l 1,-8 c 0.005,-0.042 0.008,-0.0839 0.008,-0.125 z" fill="#000" transform="translate(8.0,8.0) translate(-168.0,-376.0)" /></svg>