<?xml version="1.0" encoding="utf-8" ?>
<svg baseProfile="full" height="16" version="1.1" width="16" xmlns="http://www.w3.org/2000/svg" xmlns:ev="http://www.w3.org/2001/xml-events" xmlns:xlink="http://www.w3.org/1999/xlink"><defs /><path d="m 151.5,371 c -0.277,0 -0.5,0.223 -0.5,0.5 v 0.5 h -2.5 c -0.277,0 -0.5,0.223 -0.5,0.5 v 0.5 h 3.5 1 3.5 v -0.5 c 0,-0.277 -0.223,-0.5 -0.5,-0.5 H 153 v -0.5 c 0,-0.277 -0.223,-0.5 -0.5,-0.5 z m -3.49414,3 c -0.002,0.0654 0.003,0.13081 0.0137,0.19531 l 1,5 c 0.0932,0.46768 0.5036,0.80452 0.98047,0.80469 h 4 c 0.47687,-1.7e-4 0.88729,-0.33701 0.98047,-0.80469 l 1,-5 C 155.99337,374.131 155.99991,374.06559 156,374 Z" fill="#000" transform="translate(8.0,8.0) translate(-152.0,-376.0)" /><path d="m 151.5,371 c -0.277,0 -0.5,0.223 -0.5,0.5 v 0.5 h -2.5 c -0.277,0 -0.5,0.223 -0.5,0.5 v 0.5 h 3.5 1 3.5 v -0.5 c 0,-0.277 -0.223,-0.5 -0.5,-0.5 H 153 v -0.5 c 0,-0.277 -0.223,-0.5 -0.5,-0.5 z m -3.49414,3 c -0.002,0.0654 0.003,0.13081 0.0137,0.19531 l 1,5 c 0.0932,0.46768 0.5036,0.80452 0.98047,0.80469 h 4 c 0.47687,-1.7e-4 0.88729,-0.33701 0.98047,-0.80469 l 1,-5 C 155.99337,374.131 155.99991,374.06559 156,374 Z" fill="#000" transform="translate(8.0,8.0) translate(-152.0,-376.0)" /></svg>