<?xml version="1.0" encoding="utf-8" ?>
<svg baseProfile="full" height="16" version="1.1" width="16" xmlns="http://www.w3.org/2000/svg" xmlns:ev="http://www.w3.org/2001/xml-events" xmlns:xlink="http://www.w3.org/1999/xlink"><defs /><path d="m 213,49 v 4.05469 a 3.5,3.5 0 0 0 -1,2.44531 3.5,3.5 0 0 0 1,2.44922 V 62 h 5 V 57.94531 A 3.5,3.5 0 0 0 219,55.5 3.5,3.5 0 0 0 218,53.05078 V 49 Z m 2.5,4 a 2.5,2.5 0 0 1 2.5,2.5 2.5,2.5 0 0 1 -2.5,2.5 2.5,2.5 0 0 1 -2.5,-2.5 2.5,2.5 0 0 1 2.5,-2.5 z m 0,1 c -0.277,0 -0.5,0.223 -0.5,0.5 v 1 c 0,0.277 0.223,0.5 0.5,0.5 h 1 c 0.277,0 0.5,-0.223 0.5,-0.5 0,-0.277 -0.223,-0.5 -0.5,-0.5 H 216 v -0.5 c 0,-0.277 -0.223,-0.5 -0.5,-0.5 z m 0,6 a 0.5,0.5 0 0 1 0.5,0.5 0.5,0.5 0 0 1 -0.5,0.5 0.5,0.5 0 0 1 -0.5,-0.5 0.5,0.5 0 0 1 0.5,-0.5 z" fill="#000" transform="translate(8.0,8.0) translate(-216.0,-56.0)" /><path d="m 213,49 v 4.05469 a 3.5,3.5 0 0 0 -1,2.44531 3.5,3.5 0 0 0 1,2.44922 V 62 h 5 V 57.94531 A 3.5,3.5 0 0 0 219,55.5 3.5,3.5 0 0 0 218,53.05078 V 49 Z m 2.5,4 a 2.5,2.5 0 0 1 2.5,2.5 2.5,2.5 0 0 1 -2.5,2.5 2.5,2.5 0 0 1 -2.5,-2.5 2.5,2.5 0 0 1 2.5,-2.5 z m 0,1 c -0.277,0 -0.5,0.223 -0.5,0.5 v 1 c 0,0.277 0.223,0.5 0.5,0.5 h 1 c 0.277,0 0.5,-0.223 0.5,-0.5 0,-0.277 -0.223,-0.5 -0.5,-0.5 H 216 v -0.5 c 0,-0.277 -0.223,-0.5 -0.5,-0.5 z m 0,6 a 0.5,0.5 0 0 1 0.5,0.5 0.5,0.5 0 0 1 -0.5,0.5 0.5,0.5 0 0 1 -0.5,-0.5 0.5,0.5 0 0 1 0.5,-0.5 z" fill="#000" transform="translate(8.0,8.0) translate(-216.0,-56.0)" /></svg>