<?xml version="1.0" encoding="utf-8" ?>
<svg baseProfile="full" height="16" version="1.1" width="16" xmlns="http://www.w3.org/2000/svg" xmlns:ev="http://www.w3.org/2001/xml-events" xmlns:xlink="http://www.w3.org/1999/xlink"><defs /><path d="m 503.00001,338 a 4,4 0 0 1 4,4 v 5.5078 c -0.21463,0.1445 -0.39742,0.288 -0.5,0.3867 -0.10258,-0.099 -0.28537,-0.2422 -0.5,-0.3867 V 342 a 3,3 0 0 0 -2.25781,-2.9043 4,4 0 0 1 1.25781,2.9043 v 5.0606 c -0.15982,-0.035 -0.3251,-0.061 -0.5,-0.061 -0.1749,0 -0.34018,0.025 -0.5,0.061 V 342 a 3,3 0 0 0 -2.25781,-2.9043 4,4 0 0 1 1.25781,2.9043 v 5.5078 c -0.21463,0.1445 -0.39742,0.288 -0.5,0.3867 -0.10258,-0.099 -0.28537,-0.2422 -0.5,-0.3867 V 342 a 3,3 0 0 0 -3,-3 h -1 v -1 z m 5.5,10 c 0.66667,0 1.10352,0.3965 1.35352,0.6465 0.25,0.25 0.31315,0.3535 0.64648,0.3535 v 1 c -0.66667,0 -1.10352,-0.3965 -1.35352,-0.6465 -0.25,-0.25 -0.31315,-0.3535 -0.64648,-0.3535 -0.33333,0 -0.39648,0.1035 -0.64648,0.3535 -0.25,0.25 -0.68685,0.6465 -1.35352,0.6465 -0.66667,0 -1.10352,-0.3965 -1.35352,-0.6465 -0.25,-0.25 -0.31315,-0.3535 -0.64648,-0.3535 -0.33333,0 -0.39648,0.1035 -0.64648,0.3535 -0.25,0.25 -0.68685,0.6465 -1.35352,0.6465 -0.66667,0 -1.10352,-0.3965 -1.35352,-0.6465 -0.25,-0.25 -0.31315,-0.3535 -0.64648,-0.3535 -0.33333,0 -0.39648,0.1035 -0.64648,0.3535 -0.25,0.25 -0.68685,0.6465 -1.35352,0.6465 v -1 c 0.33333,0 0.39648,-0.1035 0.64648,-0.3535 0.25,-0.25 0.68685,-0.6465 1.35352,-0.6465 0.66667,0 1.10352,0.3965 1.35352,0.6465 0.25,0.25 0.31315,0.3535 0.64648,0.3535 0.33333,0 0.39648,-0.1035 0.64648,-0.3535 0.25,-0.25 0.68685,-0.6465 1.35352,-0.6465 0.66667,0 1.10352,0.3965 1.35352,0.6465 0.25,0.25 0.31315,0.3535 0.64648,0.3535 0.33333,0 0.39648,-0.1035 0.64648,-0.3535 0.25,-0.25 0.68685,-0.6465 1.35352,-0.6465 z" fill="#000" transform="translate(8.0,8.0) translate(-504.0,-344.0)" /><path d="m 503.00001,338 a 4,4 0 0 1 4,4 v 5.5078 c -0.21463,0.1445 -0.39742,0.288 -0.5,0.3867 -0.10258,-0.099 -0.28537,-0.2422 -0.5,-0.3867 V 342 a 3,3 0 0 0 -2.25781,-2.9043 4,4 0 0 1 1.25781,2.9043 v 5.0606 c -0.15982,-0.035 -0.3251,-0.061 -0.5,-0.061 -0.1749,0 -0.34018,0.025 -0.5,0.061 V 342 a 3,3 0 0 0 -2.25781,-2.9043 4,4 0 0 1 1.25781,2.9043 v 5.5078 c -0.21463,0.1445 -0.39742,0.288 -0.5,0.3867 -0.10258,-0.099 -0.28537,-0.2422 -0.5,-0.3867 V 342 a 3,3 0 0 0 -3,-3 h -1 v -1 z m 5.5,10 c 0.66667,0 1.10352,0.3965 1.35352,0.6465 0.25,0.25 0.31315,0.3535 0.64648,0.3535 v 1 c -0.66667,0 -1.10352,-0.3965 -1.35352,-0.6465 -0.25,-0.25 -0.31315,-0.3535 -0.64648,-0.3535 -0.33333,0 -0.39648,0.1035 -0.64648,0.3535 -0.25,0.25 -0.68685,0.6465 -1.35352,0.6465 -0.66667,0 -1.10352,-0.3965 -1.35352,-0.6465 -0.25,-0.25 -0.31315,-0.3535 -0.64648,-0.3535 -0.33333,0 -0.39648,0.1035 -0.64648,0.3535 -0.25,0.25 -0.68685,0.6465 -1.35352,0.6465 -0.66667,0 -1.10352,-0.3965 -1.35352,-0.6465 -0.25,-0.25 -0.31315,-0.3535 -0.64648,-0.3535 -0.33333,0 -0.39648,0.1035 -0.64648,0.3535 -0.25,0.25 -0.68685,0.6465 -1.35352,0.6465 v -1 c 0.33333,0 0.39648,-0.1035 0.64648,-0.3535 0.25,-0.25 0.68685,-0.6465 1.35352,-0.6465 0.66667,0 1.10352,0.3965 1.35352,0.6465 0.25,0.25 0.31315,0.3535 0.64648,0.3535 0.33333,0 0.39648,-0.1035 0.64648,-0.3535 0.25,-0.25 0.68685,-0.6465 1.35352,-0.6465 0.66667,0 1.10352,0.3965 1.35352,0.6465 0.25,0.25 0.31315,0.3535 0.64648,0.3535 0.33333,0 0.39648,-0.1035 0.64648,-0.3535 0.25,-0.25 0.68685,-0.6465 1.35352,-0.6465 z" fill="#000" transform="translate(8.0,8.0) translate(-504.0,-344.0)" /></svg>