<?xml version="1.0" encoding="utf-8" ?>
<svg baseProfile="full" height="16" version="1.1" width="16" xmlns="http://www.w3.org/2000/svg" xmlns:ev="http://www.w3.org/2001/xml-events" xmlns:xlink="http://www.w3.org/1999/xlink"><defs /><path d="m 307,370 v 12 h 1 v -6 c 1.5,0 1.5,1 3,1 1.5,0 1.5,-1 3,-1 1.5,0 1.5,1 3,1 v -6 c -1.5,0 -1.5,-1 -3,-1 -1.5,0 -1.5,1 -3,1 -1.5,0 -1.5,-1 -3,-1 z" fill="#000" transform="translate(8.0,8.0) translate(-312.0,-376.0)" /><path d="m 307,370 v 12 h 1 v -6 c 1.5,0 1.5,1 3,1 1.5,0 1.5,-1 3,-1 1.5,0 1.5,1 3,1 v -6 c -1.5,0 -1.5,-1 -3,-1 -1.5,0 -1.5,1 -3,1 -1.5,0 -1.5,-1 -3,-1 z" fill="#000" transform="translate(8.0,8.0) translate(-312.0,-376.0)" /></svg>