<?xml version="1.0" encoding="utf-8" ?>
<svg baseProfile="full" height="16" version="1.1" width="16" xmlns="http://www.w3.org/2000/svg" xmlns:ev="http://www.w3.org/2001/xml-events" xmlns:xlink="http://www.w3.org/1999/xlink"><defs /><path d="m 392,305 c -0.17221,-7e-5 -0.33234,0.0885 -0.42383,0.23438 l -2.5,4 C 388.8674,309.56745 389.1069,310.0001 389.5,310 h 0.5 v 4 h -0.5 c -0.27613,0 -0.49997,0.22387 -0.5,0.5 v 1 c 1.7e-4,0.18961 0.10757,0.36282 0.27734,0.44727 0.38075,0.19037 0.51206,0.39394 0.61328,0.79882 C 389.99187,317.15098 390,317.75 390,318.5 c 3e-5,0.27613 0.22387,0.49997 0.5,0.5 h 3 c 0.27613,-3e-5 0.49997,-0.22387 0.5,-0.5 0,-0.75 0.008,-1.34902 0.10938,-1.75391 0.10122,-0.40488 0.23253,-0.60845 0.61328,-0.79882 0.16977,-0.0845 0.27717,-0.25766 0.27734,-0.44727 v -1 c -3e-5,-0.27613 -0.22387,-0.5 -0.5,-0.5 H 394 v -4 h 0.5 c 0.3931,10e-5 0.6326,-0.43255 0.42383,-0.76562 l -2.5,-4 C 392.33234,305.08848 392.17221,304.99993 392,305 Z m 0,6 c 0.53229,3.5e-4 0.97102,0.41761 0.99805,0.94922 0.001,0.0169 0.002,0.0338 0.002,0.0508 v 1.5 c 0,0.277 -0.223,0.5 -0.5,0.5 h -1 c -0.277,0 -0.5,-0.223 -0.5,-0.5 V 312 c 0,-0.0233 8.6e-4,-0.046 0.004,-0.0684 0.0359,-0.52392 0.47094,-0.93082 0.99609,-0.93164 z" fill="#000" transform="translate(8.0,8.0) translate(-392.0,-312.0)" /><path d="m 392,305 c -0.17221,-7e-5 -0.33234,0.0885 -0.42383,0.23438 l -2.5,4 C 388.8674,309.56745 389.1069,310.0001 389.5,310 h 0.5 v 4 h -0.5 c -0.27613,0 -0.49997,0.22387 -0.5,0.5 v 1 c 1.7e-4,0.18961 0.10757,0.36282 0.27734,0.44727 0.38075,0.19037 0.51206,0.39394 0.61328,0.79882 C 389.99187,317.15098 390,317.75 390,318.5 c 3e-5,0.27613 0.22387,0.49997 0.5,0.5 h 3 c 0.27613,-3e-5 0.49997,-0.22387 0.5,-0.5 0,-0.75 0.008,-1.34902 0.10938,-1.75391 0.10122,-0.40488 0.23253,-0.60845 0.61328,-0.79882 0.16977,-0.0845 0.27717,-0.25766 0.27734,-0.44727 v -1 c -3e-5,-0.27613 -0.22387,-0.5 -0.5,-0.5 H 394 v -4 h 0.5 c 0.3931,10e-5 0.6326,-0.43255 0.42383,-0.76562 l -2.5,-4 C 392.33234,305.08848 392.17221,304.99993 392,305 Z m 0,6 c 0.53229,3.5e-4 0.97102,0.41761 0.99805,0.94922 0.001,0.0169 0.002,0.0338 0.002,0.0508 v 1.5 c 0,0.277 -0.223,0.5 -0.5,0.5 h -1 c -0.277,0 -0.5,-0.223 -0.5,-0.5 V 312 c 0,-0.0233 8.6e-4,-0.046 0.004,-0.0684 0.0359,-0.52392 0.47094,-0.93082 0.99609,-0.93164 z" fill="#000" transform="translate(8.0,8.0) translate(-392.0,-312.0)" /></svg>