<?xml version="1.0" encoding="utf-8" ?>
<svg baseProfile="full" height="16" version="1.1" width="16" xmlns="http://www.w3.org/2000/svg" xmlns:ev="http://www.w3.org/2001/xml-events" xmlns:xlink="http://www.w3.org/1999/xlink"><defs /><path d="m 99.5,562 c -0.67616,-0.01 -0.67616,1.00956 0,1 h 1.58984 l 0.80274,4.00977 -0.008,0.002 C 99.73571,567.07445 98,568.83622 98,571 c 0,2.20322 1.79678,4 4,4 2.20322,0 4,-1.79678 4,-4 0,-1.19972 -0.54371,-2.26579 -1.38477,-3 h 2.47461 l 0.82422,4.12109 C 107.37866,572.35115 107,572.88468 107,573.5 c 0,0.8225 0.6775,1.5 1.5,1.5 0.8225,0 1.5,-0.6775 1.5,-1.5 0,-0.67464 -0.4584,-1.24401 -1.07617,-1.42969 l -0.9336,-4.66797 C 107.94364,567.1685 107.73843,567.00009 107.5,567 h -4.58984 l -0.40039,-2 H 105.5 c 0.67616,0.01 0.67616,-1.00956 0,-1 h -3 c -0.0627,-5.5e-4 -0.12502,0.0107 -0.18359,0.0332 l -0.32618,-1.63086 C 101.94364,562.1685 101.73843,562.00009 101.5,562 Z m 2.5,6 c 1.66278,0 3,1.33722 3,3 0,1.66278 -1.33722,3 -3,3 -1.66278,0 -3,-1.33722 -3,-3 0,-1.66278 1.33722,-3 3,-3 z m 6.44531,5.01172 c 0.037,0.004 0.0743,0.004 0.11133,0 0.25248,0.0283 0.44336,0.2265 0.44336,0.48828 0,0.28206 -0.21794,0.5 -0.5,0.5 -0.28206,0 -0.5,-0.21794 -0.5,-0.5 0,-0.26245 0.19185,-0.46078 0.44531,-0.48828 z" fill="#000" transform="translate(8.0,8.0) translate(-104.0,-568.0)" /><path d="m 99.5,562 c -0.67616,-0.01 -0.67616,1.00956 0,1 h 1.58984 l 0.80274,4.00977 -0.008,0.002 C 99.73571,567.07445 98,568.83622 98,571 c 0,2.20322 1.79678,4 4,4 2.20322,0 4,-1.79678 4,-4 0,-1.19972 -0.54371,-2.26579 -1.38477,-3 h 2.47461 l 0.82422,4.12109 C 107.37866,572.35115 107,572.88468 107,573.5 c 0,0.8225 0.6775,1.5 1.5,1.5 0.8225,0 1.5,-0.6775 1.5,-1.5 0,-0.67464 -0.4584,-1.24401 -1.07617,-1.42969 l -0.9336,-4.66797 C 107.94364,567.1685 107.73843,567.00009 107.5,567 h -4.58984 l -0.40039,-2 H 105.5 c 0.67616,0.01 0.67616,-1.00956 0,-1 h -3 c -0.0627,-5.5e-4 -0.12502,0.0107 -0.18359,0.0332 l -0.32618,-1.63086 C 101.94364,562.1685 101.73843,562.00009 101.5,562 Z m 2.5,6 c 1.66278,0 3,1.33722 3,3 0,1.66278 -1.33722,3 -3,3 -1.66278,0 -3,-1.33722 -3,-3 0,-1.66278 1.33722,-3 3,-3 z m 6.44531,5.01172 c 0.037,0.004 0.0743,0.004 0.11133,0 0.25248,0.0283 0.44336,0.2265 0.44336,0.48828 0,0.28206 -0.21794,0.5 -0.5,0.5 -0.28206,0 -0.5,-0.21794 -0.5,-0.5 0,-0.26245 0.19185,-0.46078 0.44531,-0.48828 z" fill="#000" transform="translate(8.0,8.0) translate(-104.0,-568.0)" /></svg>