<?xml version="1.0" encoding="utf-8" ?>
<svg baseProfile="full" height="16" version="1.1" width="16" xmlns="http://www.w3.org/2000/svg" xmlns:ev="http://www.w3.org/2001/xml-events" xmlns:xlink="http://www.w3.org/1999/xlink"><defs /><path d="m 8,564 c -2.5000575,0 -4.8124713,1.33489 -6.0625,3.5 A 0.50050329,0.50050329 0 1 0 2.8046875,568 C 3.876885,566.1429 5.8556049,565 8,565 c 2.144395,0 4.123115,1.1429 5.195312,3 A 0.5005035,0.5005035 0 0 0 14.0625,567.5 C 12.812471,565.33489 10.500058,564 8,564 Z m 0,2 c -1.7855264,0 -3.437315,0.95369 -4.3300781,2.5 A 0.50005,0.50005 0 1 0 4.5351562,569 C 5.2500883,567.7617 6.5701361,567 8,567 c 1.4298639,0 2.749912,0.7617 3.464844,2 a 0.50005,0.50005 0 1 0 0.865234,-0.5 C 11.437315,566.95369 9.7855264,566 8,566 Z m 0,2 c -1.0709952,0 -2.0621587,0.57249 -2.5976562,1.5 A 0.50005,0.50005 0 1 0 6.2675781,570 C 6.6252445,569.3805 7.2846672,569 8,569 c 0.7153328,0 1.3747555,0.3805 1.7324219,1 a 0.50005,0.50005 0 1 0 0.8652341,-0.5 C 10.062159,568.57249 9.0709952,568 8,568 Z m 0,2 a 1,1 0 0 0 -1,1 1,1 0 0 0 1,1 1,1 0 0 0 1,-1 1,1 0 0 0 -1,-1 z" fill="#000" transform="translate(8.0,8.0) translate(-8.0,-568.0)" /><path d="m 8,564 c -2.5000575,0 -4.8124713,1.33489 -6.0625,3.5 A 0.50050329,0.50050329 0 1 0 2.8046875,568 C 3.876885,566.1429 5.8556049,565 8,565 c 2.144395,0 4.123115,1.1429 5.195312,3 A 0.5005035,0.5005035 0 0 0 14.0625,567.5 C 12.812471,565.33489 10.500058,564 8,564 Z m 0,2 c -1.7855264,0 -3.437315,0.95369 -4.3300781,2.5 A 0.50005,0.50005 0 1 0 4.5351562,569 C 5.2500883,567.7617 6.5701361,567 8,567 c 1.4298639,0 2.749912,0.7617 3.464844,2 a 0.50005,0.50005 0 1 0 0.865234,-0.5 C 11.437315,566.95369 9.7855264,566 8,566 Z m 0,2 c -1.0709952,0 -2.0621587,0.57249 -2.5976562,1.5 A 0.50005,0.50005 0 1 0 6.2675781,570 C 6.6252445,569.3805 7.2846672,569 8,569 c 0.7153328,0 1.3747555,0.3805 1.7324219,1 a 0.50005,0.50005 0 1 0 0.8652341,-0.5 C 10.062159,568.57249 9.0709952,568 8,568 Z m 0,2 a 1,1 0 0 0 -1,1 1,1 0 0 0 1,1 1,1 0 0 0 1,-1 1,1 0 0 0 -1,-1 z" fill="#000" transform="translate(8.0,8.0) translate(-8.0,-568.0)" /></svg>