<?xml version="1.0" encoding="utf-8" ?>
<svg baseProfile="full" height="16" version="1.1" width="16" xmlns="http://www.w3.org/2000/svg" xmlns:ev="http://www.w3.org/2001/xml-events" xmlns:xlink="http://www.w3.org/1999/xlink"><defs /><path d="m 85,18 a 1,1 0 0 0 -1,1 v 6 l -1,1 v 2 l 1,1 v -2 l 1,-1 1,1 v 2 l 1,-1 v -2 l -1,-1 v -6 a 1,1 0 0 0 -1,-1 z m 3,1 v 2.5 h 1 V 21 h 0.5 l 1,0.5 L 90,24 v 5 h 2 v -5 l -0.5,-2.5 c 0,-2 2,-2.00001 3,-1 V 20 C 93.5,19 93,19 92,19 h -2 l -0.5,0.5 H 89 V 19 Z" fill="#000" transform="translate(8.0,8.0) translate(-88.0,-24.0)" /><path d="m 85,18 a 1,1 0 0 0 -1,1 v 6 l -1,1 v 2 l 1,1 v -2 l 1,-1 1,1 v 2 l 1,-1 v -2 l -1,-1 v -6 a 1,1 0 0 0 -1,-1 z m 3,1 v 2.5 h 1 V 21 h 0.5 l 1,0.5 L 90,24 v 5 h 2 v -5 l -0.5,-2.5 c 0,-2 2,-2.00001 3,-1 V 20 C 93.5,19 93,19 92,19 h -2 l -0.5,0.5 H 89 V 19 Z" fill="#000" transform="translate(8.0,8.0) translate(-88.0,-24.0)" /></svg>