<?xml version="1.0" encoding="utf-8" ?>
<svg baseProfile="full" height="16" version="1.1" width="16" xmlns="http://www.w3.org/2000/svg" xmlns:ev="http://www.w3.org/2001/xml-events" xmlns:xlink="http://www.w3.org/1999/xlink"><defs /><path d="m 501.17188,275.96484 c -0.12781,0 -0.25559,0.0485 -0.35352,0.14649 l -0.70703,0.70703 c -0.19587,0.19587 -0.19587,0.51116 0,0.70703 l 2.47461,2.47461 -2.47461,2.47461 c -0.19587,0.19587 -0.19587,0.51116 0,0.70703 l 0.70703,0.70703 c 0.19587,0.19587 0.51116,0.19587 0.70703,0 L 504,281.41406 l 2.47461,2.47461 c 0.19587,0.19587 0.51116,0.19587 0.70703,0 l 0.70703,-0.70703 c 0.19587,-0.19587 0.19587,-0.51116 0,-0.70703 L 505.41406,280 l 2.47461,-2.47461 c 0.19587,-0.19587 0.19587,-0.51116 0,-0.70703 l -0.70703,-0.70703 c -0.19587,-0.19587 -0.51116,-0.19587 -0.70703,0 L 504,278.58594 l -2.47461,-2.47461 c -0.0979,-0.0979 -0.22571,-0.14649 -0.35351,-0.14649 z" fill="#000" transform="translate(8.0,8.0) translate(-504.0,-280.0)" /><path d="m 501.17188,275.96484 c -0.12781,0 -0.25559,0.0485 -0.35352,0.14649 l -0.70703,0.70703 c -0.19587,0.19587 -0.19587,0.51116 0,0.70703 l 2.47461,2.47461 -2.47461,2.47461 c -0.19587,0.19587 -0.19587,0.51116 0,0.70703 l 0.70703,0.70703 c 0.19587,0.19587 0.51116,0.19587 0.70703,0 L 504,281.41406 l 2.47461,2.47461 c 0.19587,0.19587 0.51116,0.19587 0.70703,0 l 0.70703,-0.70703 c 0.19587,-0.19587 0.19587,-0.51116 0,-0.70703 L 505.41406,280 l 2.47461,-2.47461 c 0.19587,-0.19587 0.19587,-0.51116 0,-0.70703 l -0.70703,-0.70703 c -0.19587,-0.19587 -0.51116,-0.19587 -0.70703,0 L 504,278.58594 l -2.47461,-2.47461 c -0.0979,-0.0979 -0.22571,-0.14649 -0.35351,-0.14649 z" fill="#000" transform="translate(8.0,8.0) translate(-504.0,-280.0)" /></svg>