<?xml version="1.0" encoding="utf-8" ?>
<svg baseProfile="full" height="16" version="1.1" width="16" xmlns="http://www.w3.org/2000/svg" xmlns:ev="http://www.w3.org/2001/xml-events" xmlns:xlink="http://www.w3.org/1999/xlink"><defs /><path d="m 757.20703,147 c -0.12781,0 -0.25558,0.0486 -0.35351,0.14648 l -0.70704,0.70704 c -0.19586,0.19586 -0.19586,0.51116 0,0.70703 L 759,151.41406 v 4.03516 c 0,0.277 0.223,0.5 0.5,0.5 h 1 c 0.277,0 0.5,-0.223 0.5,-0.5 v -4.03516 l 2.85352,-2.85351 c 0.19586,-0.19587 0.19586,-0.51117 0,-0.70703 l -0.70704,-0.70704 c -0.19586,-0.19586 -0.51116,-0.19586 -0.70703,0 L 760,149.58594 757.56055,147.14648 C 757.46261,147.04855 757.33484,147 757.20703,147 Z" fill="#000" transform="translate(8.0,8.0) translate(-760.0,-152.0)" /><path d="m 757.20703,147 c -0.12781,0 -0.25558,0.0486 -0.35351,0.14648 l -0.70704,0.70704 c -0.19586,0.19586 -0.19586,0.51116 0,0.70703 L 759,151.41406 v 4.03516 c 0,0.277 0.223,0.5 0.5,0.5 h 1 c 0.277,0 0.5,-0.223 0.5,-0.5 v -4.03516 l 2.85352,-2.85351 c 0.19586,-0.19587 0.19586,-0.51117 0,-0.70703 l -0.70704,-0.70704 c -0.19586,-0.19586 -0.51116,-0.19586 -0.70703,0 L 760,149.58594 757.56055,147.14648 C 757.46261,147.04855 757.33484,147 757.20703,147 Z" fill="#000" transform="translate(8.0,8.0) translate(-760.0,-152.0)" /></svg>