<?xml version="1.0" encoding="UTF-8"?>
<svg width="30px" height="30px" viewBox="0 0 30 30" version="1.1" xmlns="http://www.w3.org/2000/svg" xmlns:xlink="http://www.w3.org/1999/xlink">
    <path d="M10,14.0012055 L10,10.0039695 L7,10.0039695 L7,14.0021096 L3,14.0033151 L3,7.25843328 C3,7.09854816 3.07646289,6.94830496 3.20572337,6.85420406 L8.20572337,3.21423176 C8.38112906,3.08653739 8.61887094,3.08653739 8.79427663,3.21423176 L13.7942766,6.85420406 C13.9235371,6.94830496 14,7.09854816 14,7.25843328 L14,14 L10,14.0012055 Z M24,26 L19,26 L19,27 L17.5,27 L17.5,26 L16.5,26 C16.2238576,26 16,25.7761424 16,25.5 L16,24.5 C16,24.2238576 16.2238576,24 16.5,24 L17.5,24 L17.5,22.5 L16.5,22.5 C16.2238576,22.5 16,22.2761424 16,22 L16,21 C16,20.7238576 16.2238576,20.5 16.5,20.5 L17.5,20.5 L17.5,19 L16.5,19 C16.2238576,19 16,18.7761424 16,18.5 L16,17.5 C16,17.2238576 16.2238576,17 16.5,17 L17.5,17 L17.5,16 L19,16 L19,17 L24,17 L24,16 L25.5,16 L25.5,17 L26.5,17 C26.7761424,17 27,17.2238576 27,17.5 L27,18.5 C27,18.7761424 26.7761424,19 26.5,19 L25.5,19 L25.5,20.5 L26.5,20.5 C26.7761424,20.5 27,20.7238576 27,21 L27,22 C27,22.2761424 26.7761424,22.5 26.5,22.5 L25.5,22.5 L25.5,24 L26.5,24 C26.7761424,24 27,24.2238576 27,24.5 L27,25.5 C27,25.7761424 26.7761424,26 26.5,26 L25.5,26 L25.5,27 L24,27 L24,26 Z M24,24 L24,22.5 L19,22.5 L19,24 L24,24 Z M24,20.5 L24,19 L19,19 L19,20.5 L24,20.5 Z M26.7405362,13.9999978 L16.2608595,13.9999978 C16.0839438,14.0005058 15.9194254,13.9131431 15.8262904,13.7692327 C15.7331553,13.6253222 15.7247466,13.4454812 15.804079,13.2941893 L21.0348222,3.26977567 C21.1210147,3.10446492 21.2975019,3 21.4905921,3 C21.6836823,3 21.8601696,3.10446492 21.9463621,3.26977567 L27.201359,13.2941893 C27.2350657,13.3624272 27.2516748,13.4372454 27.2498667,13.5126999 C27.2498667,13.7818271 27.0218317,13.9999978 26.7405362,13.9999978 Z M23.49227,9.9999992 C23.5992087,9.9999992 23.6858997,9.9206644 23.6858997,9.82279997 C23.6865871,9.79536197 23.6802729,9.76815534 23.6674588,9.74334158 L21.6696914,6.09810025 C21.636924,6.03798724 21.5698296,6 21.4964235,6 C21.4230173,6 21.3559229,6.03798724 21.3231555,6.09810025 L19.3346086,9.74334158 C19.3044491,9.7983568 19.3076458,9.86375353 19.3430525,9.91608461 C19.3784592,9.96841568 19.4410034,10.0001839 19.5082606,9.9999992 L23.49227,9.9999992 Z M9.49994574,24.9133852 C10.7597604,24.6744233 11.5803215,23.9380791 12.0636708,22.6491476 C12.2575909,22.1320273 12.8340031,21.8700217 13.3511234,22.0639419 C13.8682438,22.257862 14.1302493,22.8342742 13.9363292,23.3513945 C13.0373789,25.7485952 11.1598651,27.000271 8.5,27.000271 C5.84013487,27.000271 3.96262108,25.7485952 3.06367082,23.3513945 C2.8697507,22.8342742 3.13175623,22.257862 3.64887656,22.0639419 C4.16599688,21.8700217 4.74240906,22.1320273 4.93632918,22.6491476 C5.41967848,23.9380791 6.24023958,24.6744233 7.50005426,24.9133852 L7.50005426,21.3292943 C6.33492511,20.9174579 5.50016277,19.8062188 5.50016277,18.5 C5.50016277,16.8431458 6.84323565,15.5 8.5,15.5 C10.1567644,15.5 11.4998372,16.8431458 11.4998372,18.5 C11.4998372,19.8062188 10.6650749,20.9174579 9.49994574,21.3292943 L9.49994574,24.9133852 Z M8.5,19.5 C9.05225478,19.5 9.49994574,19.0522847 9.49994574,18.5 C9.49994574,17.9477153 9.05225478,17.5 8.5,17.5 C7.94774522,17.5 7.50005426,17.9477153 7.50005426,18.5 C7.50005426,19.0522847 7.94774522,19.5 8.5,19.5 Z" fill="currentColor"></path>
</svg>
