<?xml version="1.0" encoding="UTF-8"?>
<svg width="30px" height="30px" viewBox="0 0 30 30" version="1.1" xmlns="http://www.w3.org/2000/svg" xmlns:xlink="http://www.w3.org/1999/xlink">
    <path d="M13.8474286,6.81594155 C13.9439694,6.89746311 13.9998359,7.01801438 14,7.14516757 L14,13.5668079 C14,13.8060533 13.808122,14 13.5714286,14 L9.42857143,14 C9.19187796,14 9,13.8060533 9,13.5668079 L9,10 L7,10 L7,13.5668079 C7,13.8060533 6.80812204,14 6.57142857,14 L2.42857143,14 C2.19187796,14 2,13.8060533 2,13.5668079 L2,7.15556419 C2.00016414,7.028411 2.05603056,6.90785972 2.15257143,6.82633816 L7.73085714,2.09934553 C7.88700503,1.96688482 8.11470926,1.96688482 8.27085714,2.09934553 L13.8474286,6.81594155 Z M26.6666667,20 C27.4030667,20 28,20.5969333 28,21.3333333 L28,25.3333333 L26.6666667,25.3333333 L26.6666667,26.6666667 C26.6666667,27.4030667 26.0697333,28 25.3333333,28 C24.5969333,28 24,27.4030667 24,26.6666667 L24,25.3333333 L20,25.3333333 L20,26.6666667 C20,27.4030667 19.4030667,28 18.6666667,28 C17.9302667,28 17.3333333,27.4030667 17.3333333,26.6666667 L17.3333333,25.3333333 L16,25.3333333 L16,21.3333333 C16,20.5969333 16.5969333,20 17.3333333,20 L18.52,16.4533333 C18.6109333,16.1841333 18.8625333,16.0021333 19.1466667,16 L24.8533333,16 C25.1374667,16.0021333 25.3890667,16.1841333 25.48,16.4533333 L26.6666667,20 Z M18.6666667,24 C19.4030667,24 20,23.4030667 20,22.6666667 C20,21.9302667 19.4030667,21.3333333 18.6666667,21.3333333 C17.9302667,21.3333333 17.3333333,21.9302667 17.3333333,22.6666667 C17.3333333,23.4030667 17.9302667,24 18.6666667,24 Z M18.6666667,20 L25.3333333,20 L24.5066667,17.3333333 L19.4933333,17.3333333 L18.6666667,20 Z M25.3333333,24 C26.0697333,24 26.6666667,23.4030667 26.6666667,22.6666667 C26.6666667,21.9302667 26.0697333,21.3333333 25.3333333,21.3333333 C24.5969333,21.3333333 24,21.9302667 24,22.6666667 C24,23.4030667 24.5969333,24 25.3333333,24 Z M27.4683856,13.9999976 L16.5330708,13.9999976 C16.3484631,14.0005517 16.1767917,13.905247 16.0796073,13.7482538 C15.9824229,13.5912606 15.9736486,13.3950704 16.0564303,13.2300247 L21.5145971,2.29430074 C21.604537,2.11396173 21.7886976,2 21.9901831,2 C22.1916685,2 22.3758291,2.11396173 22.4657691,2.29430074 L27.9492442,13.2300247 C27.9844164,13.304466 28.0017476,13.3860859 27.9998609,13.4683999 C27.9998609,13.7619932 27.7619113,13.9999976 27.4683856,13.9999976 Z M24,9 L22,5 L20,9 L24,9 Z M7.99998123,16 C9.50617682,16 10.75,17.2437818 10.75,18.75 C10.7498909,19.9494545 9.94122484,20.9636364 8.81815077,21.3181818 L8.81815077,26.272 C9.53704908,26.1466545 10.2778743,25.8625818 10.8827743,25.3366545 C11.7214527,24.6073818 12.3635521,23.4505818 12.3635521,21.4545455 C12.3479524,20.3481455 14.015491,20.3481455 13.9998912,21.4545455 C13.9998912,23.8221455 13.1566311,25.5289818 11.9566491,26.5724364 C10.7566671,27.6158909 9.27272577,28 7.99998123,28 C6.72723669,28 5.24318622,27.6158909 4.04331331,26.5724364 C2.8434404,25.5289818 2.00007123,23.8221455 2.00007123,21.4545455 C1.99418041,21.0034545 2.35439319,20.6327636 2.80547733,20.6256727 C3.2664886,20.6184727 3.64241023,20.9935273 3.63641032,21.4545455 C3.63641032,23.4505818 4.27850978,24.6073818 5.11718811,25.3366545 C5.72208813,25.8625818 6.46291338,26.1465455 7.18181168,26.272 L7.18181168,21.3139273 C6.06004669,20.9599273 5.25196361,19.9479273 5.25,18.75 C5.25,17.2437818 6.49378564,16 7.99998123,16 Z M8.8793125,17.8601957 C8.39335703,17.3799296 7.60661575,17.3799355 7.12066768,17.860209 C6.63277915,18.3424002 6.62561418,19.1230972 7.10457204,19.6139941 L7.12065472,19.6304776 C7.13032613,19.6403901 7.14016767,19.6501384 7.15017504,19.6597181 C7.63581512,20.1246046 8.40998235,20.1115192 8.87932595,19.6304909 L8.8954216,19.6139946 C9.37439015,19.1231017 9.3672251,18.3423959 8.8793125,17.8601957 Z" fill="currentColor"></path>
</svg>
