<?xml version="1.0" encoding="UTF-8"?>
<svg width="30px" height="30px" viewBox="0 0 30 30" version="1.1" xmlns="http://www.w3.org/2000/svg" xmlns:xlink="http://www.w3.org/1999/xlink">
    <path d="M6.91359499,21.6721914 L21.6721914,6.91359499 C21.5610388,6.6306029 21.5,6.32242963 21.5,6 C21.5,4.61928813 22.6192881,3.5 24,3.5 C25.3807119,3.5 26.5,4.61928813 26.5,6 C26.5,7.38071187 25.3807119,8.5 24,8.5 C23.6775704,8.5 23.3693971,8.43896124 23.086405,8.32780855 L8.32780855,23.086405 C8.43896124,23.3693971 8.5,23.6775704 8.5,24 C8.5,25.3807119 7.38071187,26.5 6,26.5 C4.61928813,26.5 3.5,25.3807119 3.5,24 C3.5,22.6192881 4.61928813,21.5 6,21.5 C6.32242963,21.5 6.6306029,21.5610388 6.91359499,21.6721914 Z M6,25.5 C6.82842712,25.5 7.5,24.8284271 7.5,24 C7.5,23.1715729 6.82842712,22.5 6,22.5 C5.17157288,22.5 4.5,23.1715729 4.5,24 C4.5,24.8284271 5.17157288,25.5 6,25.5 Z M24,7.5 C24.8284271,7.5 25.5,6.82842712 25.5,6 C25.5,5.17157288 24.8284271,4.5 24,4.5 C23.1715729,4.5 22.5,5.17157288 22.5,6 C22.5,6.82842712 23.1715729,7.5 24,7.5 Z" fill="currentColor"></path>
</svg>
