<?xml version="1.0" encoding="UTF-8"?>
<svg width="30px" height="30px" viewBox="0 0 30 30" version="1.1" xmlns="http://www.w3.org/2000/svg" xmlns:xlink="http://www.w3.org/1999/xlink">
    <path d="M7,13 L7,21.7080218 C7.88295239,22.0938002 8.5,22.9748405 8.5,24 C8.5,25.3807119 7.38071187,26.5 6,26.5 C4.61928813,26.5 3.5,25.3807119 3.5,24 C3.5,22.9748405 4.11704761,22.0938002 5,21.7080218 L5,5 L21.7080218,5 C22.0938002,4.11704761 22.9748405,3.5 24,3.5 C25.3807119,3.5 26.5,4.61928813 26.5,6 C26.5,7.38071187 25.3807119,8.5 24,8.5 C22.9748405,8.5 22.0938002,7.88295239 21.7080218,7 L13,7 L13,13 L7,13 L7,13 Z M7,12 L12,12 L12,7 L7,7 L7,12 L7,12 Z M6,25.5 C6.82842712,25.5 7.5,24.8284271 7.5,24 C7.5,23.1715729 6.82842712,22.5 6,22.5 C5.17157288,22.5 4.5,23.1715729 4.5,24 C4.5,24.8284271 5.17157288,25.5 6,25.5 Z M24,7.5 C24.8284271,7.5 25.5,6.82842712 25.5,6 C25.5,5.17157288 24.8284271,4.5 24,4.5 C23.1715729,4.5 22.5,5.17157288 22.5,6 C22.5,6.82842712 23.1715729,7.5 24,7.5 Z" fill="currentColor"></path>
</svg>
